<?xml version="1.0" encoding="UTF-8"?>
<svg version="1.1" viewBox="0 0 932 365" xmlns="http://www.w3.org/2000/svg">
<title>Logo with sub text</title>
<desc>Created with Sketch.</desc>
<defs>
<linearGradient id="c" x1="16.474%" x2="79.963%" y1="42.916%" y2="76.712%">
<stop stop-color="#00D7AF" offset="0"/>
<stop stop-color="#46737A" offset="1"/>
</linearGradient>
<linearGradient id="b" x1="73.794%" x2="28.32%" y1="86.229%">
<stop stop-color="#00D7AF" offset="0"/>
<stop stop-color="#46737A" offset="1"/>
</linearGradient>
<linearGradient id="a" x1="28.055%" x2="68.014%" y1="21.454%" y2="63.075%">
<stop stop-color="#00D7AF" offset="0"/>
<stop stop-color="#46737A" offset="1"/>
</linearGradient>
</defs>
<g fill="none" fill-rule="evenodd">
<g transform="translate(273.75 29.759)" fill="#354F53" fill-rule="nonzero">
<path d="m461.56 19.073c0.9378 0 1.5655-0.081215 1.883-0.25841-0.31752 0.1772-0.94518 0.25841-1.883 0.25841zm-1.883 0.23626c0.94518 0 1.5655-0.081215 1.883-0.25841-0.31752 0.1772-0.9378 0.25841-1.883 0.25841zm-12.472 72.429c1.2553 0.31748 2.4368 0.51682 3.5297 0.59065 1.1002 0.088598 2.2743 0.20673 3.5297 0.36177h2.5845c0.24221 0.015056 0.48466-0.025347 0.70888-0.11813 0.22451-0.091797 0.46673-0.13216 0.70888-0.11813 0.9378 0 1.8461-0.036916 2.7026-0.12551 0.83039-0.073152 1.6562-0.19146 2.4737-0.35439 0.88143-0.016233 1.7543-0.17583 2.5845-0.47252 0.62766 0 1.019-0.073832 1.1815-0.23626 0.62766 0 1.4104-0.15505 2.3482-0.4799l2.3629-0.70878c0.77534-0.31748 1.6024-0.59065 2.4663-0.8343 0.85657-0.23626 1.6836-0.51682 2.4663-0.82691 0.16476-5.966e-4 0.32693-0.041132 0.47259-0.11813 0.14533-0.078755 0.30733-0.12178 0.47259-0.12551 0.32083-0.31771 0.73477-0.52465 1.1815-0.59065 0.40698-0.058359 0.8028-0.17784 1.1741-0.35439 1.2553-0.63495 2.4294-1.2699 3.5223-1.9049 0.15507 0 0.27322-0.036916 0.35444-0.11813 0.073843-0.073832 0.19937-0.11813 0.35444-0.11813 0.14768 0 0.2363-0.073832 0.2363-0.23626-0.53062 0.27662-1.081 0.51353-1.6467 0.70878l-1.4104 0.4799-6.1215 1.8975c-1.883 0.63495-3.6921 1.1075-5.4126 1.4249l-2.5845 0.71617-8.2408 1.1813c-1.0151 0.15204-2.0346 0.27269-3.0571 0.36177-0.8594 0.07636-1.7217 0.11577-2.5845 0.11813-0.73601 0.15348-1.4856 0.23263-2.2374 0.23626h-3.6478c-0.31752 0-0.47259-0.073832-0.47259-0.23626zm31.531-73.167c-2.9832 4.5997-7.2956 12.079-12.937 22.452-5.6489 10.373-11.999 23.633-19.059 39.795 0.31014 0 0.59074 0.036916 0.81965 0.11075 0.26714 0.085282 0.54669 0.12521 0.82703 0.11813h3.2934c0.62027 0 1.211-0.036916 1.7648-0.11813 0.54643-0.073832 1.1372-0.11813 1.7648-0.11813 0.78273-0.15505 1.6467-0.27318 2.5845-0.35439 0.94518-0.073832 1.883-0.27318 2.8282-0.59065l3.766-0.95981 3.766-0.94504 5.6415-2.1411c3.8291-1.611 7.5274-3.5167 11.062-5.6998l3.2934-2.37 3.2934-2.6136 3.0571-2.6136 2.8282-3.0935c0.62027-0.79 1.2553-1.5431 1.883-2.2519 0.64667-0.73704 1.2745-1.4904 1.883-2.2592 0.137-0.28542 0.29239-0.56164 0.46521-0.82691 0.15507-0.24364 0.31752-0.51682 0.47259-0.8343 0.62834-0.79607 1.1428-1.6757 1.5285-2.6136 0.39136-0.95243 0.82703-1.8163 1.2922-2.6136l1.4178-3.8023 0.9378-3.7949v-0.71617c0.14768-0.79 0.14768-1.6612 0-2.6136-0.23182-2.3007-1.0422-4.5053-2.3556-6.4086-0.29085-0.75408-0.7303-1.442-1.2922-2.023-0.66659-0.66988-1.3312-1.3417-1.9937-2.0156l-1.8904-1.4249c-0.67916-0.51301-1.384-0.99108-2.1119-1.4323-1.2857-0.72987-2.6234-1.3641-4.0022-1.8975l-3.5297-1.4249-3.766-0.95243c-0.48191 0.028212-0.96399-0.052543-1.4104-0.23626-0.47259 0-0.94518-0.036916-1.4104-0.11813-0.55358-0.095208-1.1029-0.21344-1.6467-0.35439h-1.5359c-0.51903 0.0057107-1.0355-0.074112-1.5285-0.23626v-0.0073832zm-42.828 135.16c-1.5185 0.49288-3.1073 0.73478-4.7037 0.71616-1.5655 0-3.3303-0.31748-5.2945-0.95243-1.9568-0.63495-4.0392-1.8975-6.2323-3.8023 0.9378 1.9049 2.1931 3.3224 3.766 4.2822 1.2553 0.94504 2.902 1.5431 4.94 1.772 2.038 0.24364 4.5487-0.43561 7.5319-2.0156h-0.007385zm-52.465-100c0-1.1075 0.036921-2.1411 0.11815-3.0862 0.084472-1.032 0.20021-2.0612 0.34706-3.0862 0.16776-0.37323 0.24856-0.77968 0.2363-1.1887 0.78757-3.7287 1.8893-7.3841 3.2934-10.927l-0.4652 0.47252c-2.2005 2.3774-3.5297 4.7548-4.0022 7.1321-0.47259 2.37-0.62766 4.4299-0.47259 6.1723v1.4249c0.16667 0.37097 0.24744 0.77477 0.2363 1.1813 0 0.64233 0.15507 1.1149 0.47259 1.4323 0.14768 0.16243 0.2363 0.31748 0.2363 0.47252zm-2.1193-14.249c1.0939-2.6874 2.5605-5.2076 4.3567-7.4865 1.7944-2.2888 3.7955-4.4668 5.996-6.5267 0.85476-0.88866 1.8002-1.6855 2.8208-2.3774 1.7279-1.4249 3.5666-2.7318 5.5382-3.9131 1.9568-1.1961 3.9506-2.3405 5.996-3.4479 3.1309-1.7424 6.3504-3.2486 9.6438-4.5185 3.2934-1.2625 6.5129-2.37 9.6512-3.3224 2.6583-0.79 5.132-1.5062 7.4064-2.1411 2.2743-0.62757 4.4305-1.1813 6.476-1.6612 0.62027 0 1.0929-0.073832 1.4104-0.23626l4.9474-0.95243c1.7505-0.31767 3.5147-0.55419 5.2871-0.70878l5.7597-0.4799c2.9832-0.47252 6.3578-0.70878 10.124-0.70878 7.4642-0.30983 14.941 0.0087708 22.352 0.95243 0.94518 0.15505 1.883 0.27318 2.8282 0.35439 0.9378 0.073832 1.883 0.27318 2.8208 0.59065 3.766 0.79738 7.2144 1.7498 10.353 2.8499 0.78273 0.32486 1.6098 0.63495 2.4737 0.95243 0.85657 0.31748 1.6836 0.63495 2.4663 0.95243l2.3629 1.1813 2.1119 1.4323c2.038 1.2699 4.0022 2.7687 5.8852 4.5037 2.5106 2.3848 4.4675 4.9172 5.8778 7.6046l1.1815 2.3774c0.26243 0.81134 0.57565 1.6054 0.9378 2.3774l0.70888 2.6136v0.47252c0 0.16243 0.036922 0.28056 0.11076 0.35439 0.073842 0.081215 0.11815 0.28056 0.11815 0.59065 0 0.16243 0.036921 0.28794 0.11815 0.36916 0.073842 0.073832 0.11815 0.19196 0.11815 0.34701v0.95243c0 0.31748 0.036921 0.51682 0.11815 0.59065 0.073843 0.088598 0.11815 0.28056 0.11815 0.59065v1.1961c0.15507 0.79 0.2363 1.6612 0.2363 2.6136v3.0862c0 0.63495-0.036921 1.2256-0.11815 1.7793-0.073842 0.56112-0.11815 1.1518-0.11815 1.7867-0.1764 0.61647-0.25611 1.2566-0.2363 1.8975l-0.46521 1.8975c-0.14446 0.7091-0.26268 1.4233-0.35444 2.1411-0.081226 0.63495-0.2806 1.3437-0.59074 2.1411l-0.47259 1.8975c-0.69234 2.3122-1.6384 4.5407-2.8208 6.6448-1.7279 3.1748-3.9653 6.4233-6.7049 9.7458-2.7469 3.3224-6.2397 6.4972-10.471 9.5021-2.5106 1.7424-5.7302 3.6399-9.6512 5.6998l-3.766 1.6612-3.9949 1.6612c-2.8282 1.1075-5.7302 2.0673-8.7134 2.8499-1.7205 0.63495-3.286 1.0336-4.7037 1.1887-2.038 0.63495-3.766 1.0336-5.169 1.1887l-1.8904 0.47252-3.5297 0.4799-4.4674 0.70878c-1.866 0.31958-3.7558 0.48013-5.6489 0.4799-0.27777-0.0045458-0.55447 0.035334-0.81965 0.11813-0.26721 0.085012-0.54671 0.12493-0.82703 0.11813h-2.3556c-0.62766 0-1.2553 0.036916-1.8756 0.11813-0.63504 0.081215-1.2553 0.11813-1.883 0.11813h-1.4178c-0.90223 0.0029743-1.8041-0.036446-2.7026-0.11813-0.90109-0.080218-1.8054-0.11964-2.71-0.11813-0.31014 0-0.50951-0.036916-0.59074-0.11813-0.073842-0.073832-0.27322-0.11813-0.58335-0.11813l-2.3556 6.6448c-0.71271 2.2423-1.3774 4.4996-1.9937 6.7704-0.86395 3.0935-1.6467 6.4972-2.3556 10.218-0.71198 3.7601-1.1072 7.5734-1.1815 11.4-0.073842 3.8835 0.43567 7.3315 1.5359 10.336 0 0.47252 0.073842 0.91551 0.2363 1.3068 0.14768 0.39131 0.31014 0.7457 0.4652 1.0632 1.1002 2.2149 2.3186 3.6916 3.6478 4.4004 1.3292 0.70878 2.5476 1.1444 3.6478 1.3068 1.2553 0.14766 2.5106-0.081214 3.766-0.71617 0.18919 1.1358-0.1083 2.2988-0.81965 3.2043-0.70888 0.87121-1.4547 1.6981-2.2374 2.4955-1.0119 0.83782-2.117 1.5563-3.2934 2.1411-4.5561 2.0525-8.5509 2.8056-11.999 2.2592-3.4558-0.56112-6.2766-1.4692-8.4771-2.7318-2.6657-1.4323-5.0213-4.1198-7.0593-8.0772-2.038-3.9648-2.5845-10.056-1.6467-18.295 0-0.94504 0.073842-1.6612 0.2363-2.1411v-0.22888l1.4104-7.3684c1.0762-4.98 2.2926-9.9287 3.6478-14.84 1.3292-4.836 2.71-9.5464 4.1204-14.139l-1.883-0.70878c-1.166-0.5818-2.3044-1.2174-3.4115-1.9049-0.94283-0.57414-1.848-1.2079-2.71-1.8975-2.0506-1.4616-3.9067-3.1785-5.5234-5.1091-0.97883-1.1707-1.8839-2.4012-2.71-3.6842-0.15507 0-0.2363-0.073832-0.2363-0.23626-0.15507-0.15505-0.22891-0.31748-0.22891-0.47252v-0.23626c0.14768-0.31748 0.9378-1.5062 2.3482-3.5661 1.468-2.1187 3.2083-4.0351 5.1763-5.6998l1.4104-0.95243c0.30194-0.30684 0.66392-0.54813 1.0633-0.70878 0.39762-0.16334 0.75713-0.40718 1.0559-0.71617l0.47259-0.23626v0.23626c0 0.16243 0.47259 0.75308 1.4104 1.7793 0.94518 1.0336 2.2743 2.2592 4.0022 3.6916l2.5845 2.1337 3.5297 1.8975c4.5487-12.035 9.2967-22.762 14.237-32.191 3.9285-7.5843 8.0477-15.068 12.354-22.445l-4.2312 0.95243c-1.3599 0.30051-2.6972 0.69523-4.0022 1.1813l-2.5845 0.71617c-2.2005 0.79738-4.2828 1.6243-6.2397 2.4955-1.9642 0.87121-3.8841 1.6981-5.7597 2.4955-5.9664 2.8499-11.261 6.0173-15.891 9.5021-4.6299 3.4848-8.6691 6.8885-12.11 10.211-3.4558 3.3224-6.2766 6.4529-8.4771 9.384s-3.766 5.1904-4.7037 6.7704c-0.94023-0.31561-1.8158-0.79833-2.5845-1.4249-0.86365-0.53157-1.6575-1.169-2.3629-1.8975-0.89793-0.93846-1.6858-1.9764-2.3482-3.0935l-0.47259-0.47252c-0.81336-1.5129-1.332-3.1665-1.5285-4.8729-0.23156-2.172-0.19187-4.3645 0.11815-6.5267 0-0.4799 0.073842-0.87121 0.2363-1.1887 0.016546-0.40609 0.096267-0.80713 0.2363-1.1887l0.4652-1.4249c0.31752-1.2625 0.62766-2.2149 0.94518-2.8499zm180.13 96.07c0 1.6021 0.39875 2.9606 1.1962 4.0829 0.79011 0.95981 1.9494 1.7646 3.4632 2.3995 1.5138 0.64234 3.6995 0.81215 6.572 0.4799-1.394 0.14292-2.8003-0.10506-4.0613-0.71617-1.4111-0.38908-2.7178-1.0877-3.825-2.0451-1.3802-1.17-2.5167-2.5999-3.345-4.2084v0.007383zm-1.4325-36.045c0.47997-1.4471 0.87134-3.0049 1.1962-4.6883 0.31752-1.6834 0.5169-3.3224 0.59074-4.9246 0.101-1.3712-0.018672-2.7496-0.35444-4.0829-0.25629-1.0426-0.9547-1.9216-1.9125-2.4069-1.7501-0.79738-3.6626-0.79738-5.7302 0-2.0676 0.80476-4.2238 2.2888-6.4538 4.4447-2.23 2.1633-4.4158 5.0132-6.572 8.5349-2.2792 3.8003-4.1599 7.8258-5.612 12.012-1.02 2.9643-1.7375 6.0242-2.1414 9.133-0.3249 2.2445-0.20676 4.4077 0.35444 6.4824 0.55382 2.0894 1.9494 3.2855 4.1795 3.6104 1.4325 0.31748 2.9832 0.23626 4.6521-0.24364 1.6762-0.4799 3.4263-1.5578 5.2649-3.2486 1.8239-1.676 3.6995-4.0829 5.612-7.206 1.9125-3.1231 3.7364-7.2429 5.4939-12.374v-0.23626c0-0.32486 0.073842-0.56112 0.2363-0.72355l1.1962-4.0829zm-39.173-0.95981c1.9051-3.8466 3.9727-7.1321 6.2027-9.8565 2.23-2.717 4.4305-5.0427 6.572-6.9697 2.1488-1.9196 3.9875-3.3593 5.4939-4.3191 1.5138-0.95981 2.5106-1.5209 2.9906-1.6834-3.9875 1.1222-7.2882 2.9237-9.917 5.4045-2.4533 2.282-4.6564 4.8189-6.572 7.5677-1.9376 3.1057-3.5368 6.4101-4.7702 9.8565zm-4.0613 33.394c0.14768 1.772 0.71627 3.3667 1.6688 4.8064 0.7975 1.2847 2.0676 2.4438 3.825 3.4848 1.7501 1.0484 4.209 1.7277 7.4064 2.0451-0.16245 0-0.76058-0.24364-1.7944-0.72355-1.2127-0.57933-2.3738-1.261-3.4706-2.0378-1.4019-0.97687-2.7572-2.019-4.0613-3.1231-1.4635-1.2434-2.6765-2.7544-3.574-4.452zm92.207-39.648c2.23 1.1222 3.1383 3.1748 2.7469 6.128-0.39875 2.968-1.6393 6.2904-3.7069 9.9673-0.95995 1.772-2.6657 4.895-5.132 9.3766-2.6385 4.737-5.6771 9.2399-9.0826 13.459-3.5166 4.4231-7.6612 8.3084-12.302 11.532-4.6151 3.2043-9.6364 4.4004-15.049 3.603-1.6919-0.35785-3.3085-1.0074-4.7776-1.9196-1.5073-1.019-2.8369-2.2786-3.9358-3.7285-1.3587-1.6834-2.3556-3.8835-2.9906-6.6079-2.23 3.6916-5.3388 6.8516-9.3115 9.4947-3.9875 2.6432-9.0014 3.7211-15.049 3.2486-3.9875-0.33224-7.2513-1.1665-9.7989-2.5324-2.3754-1.2148-4.455-2.9362-6.092-5.0427-1.5278-2.0413-2.6233-4.3726-3.2195-6.8516-0.62917-2.5183-1.0295-5.0882-1.1962-7.6785-0.31752-6.0911 0.71627-12.825 3.1014-20.193 2.3925-7.3684 5.2206-13.415 8.4845-18.14s6.7639-8.4906 10.508-11.296c3.7438-2.7982 7.6057-4.7252 11.593-5.7589 3.7375-1.0091 7.589-1.5352 11.46-1.5652 4.1352 0 7.2882 0.51682 9.437 1.5578 2.1488 1.0484 3.7807 2.2076 4.8957 3.4848l1.9125-4.3265c2.3977-0.83622 4.8823-1.3985 7.4064-1.676 2.5802-0.31491 5.1914-0.27516 7.7608 0.11813 2.9463 0.39869 6.0108 1.3216 9.2007 2.7613-3.6148 8.0904-7.042 16.263-10.279 24.512-1.2701 3.2043-2.4294 6.3274-3.4632 9.3766-1.0338 3.0345-1.8682 5.8032-2.5106 8.2839-0.5709 2.0798-0.92963 4.2121-1.0707 6.3643-0.081226 1.772 0.19937 2.8794 0.83442 3.3667 0.16245 0.4799 0.5612 0.72355 1.1962 0.72355 0.47997 0 1.0338-0.16243 1.6762-0.48729 0.63504-0.31748 1.4325-1.0336 2.3851-2.1559 0.95995-1.1222 2.0676-2.6432 3.345-4.5702 1.2701-1.9196 2.5845-4.0017 3.9432-6.2461 1.3513-2.2445 2.7469-4.4816 4.1795-6.7261l3.8176-6.0099c0.53136-1.1528 1.3564-2.1458 2.3925-2.8794 0.7975-0.64233 1.7501-1.1222 2.8651-1.4471 1.1076-0.31748 2.3925-0.15505 3.825 0.4799z"/>
<path d="m631.51 24.588c-0.77534 1.2699-1.5507 2.6136-2.326 4.0312-0.81748 1.3394-1.5571 2.7248-2.2153 4.1493-0.69412 1.4988-1.4325 2.9606-2.2153 4.3856 0.15507-0.4799 0.7015-1.3437 1.6393-2.6063 0.93041-1.2625 2.0159-2.6875 3.2564-4.2675 1.2405-1.58 2.6362-2.9976 4.1942-4.2675 1.5507-1.2625 3.1014-2.1337 4.6521-2.6063-1.0107 0.14749-2.0199 0.305-3.0275 0.47252-0.77534 0.16243-1.5507 0.28056-2.326 0.35439-0.55698 0.03047-1.1055 0.15012-1.6245 0.35439h-0.007384zm-30.74 107.84c0 1.58 0.39136 2.9237 1.1667 4.0238 0.77534 0.95243 1.8608 1.7424 3.2638 2.37 1.3956 0.63495 3.5666 0.79738 6.5203 0.4799-1.3604 0.13761-2.7321-0.11058-3.9579-0.71617-1.3781-0.3847-2.6523-1.0735-3.729-2.0156-1.3482-1.1541-2.457-2.5613-3.2638-4.1419zm46.114-42.66c2.326 1.1075 3.2934 3.1231 2.9094 6.0394-0.39136 2.9311-1.595 6.2018-3.6109 9.8344-1.2565 2.3221-2.4971 4.6528-3.7216 6.9918-1.9007 3.5541-4.0012 6.9977-6.2914 10.314-2.4811 3.6325-5.3536 7.1469-8.6174 10.543-3.2564 3.3962-6.7492 5.9656-10.478 7.7006-1.801 0.77338-3.6732 1.3693-5.5899 1.7793-1.9956 0.3961-4.0455 0.4361-6.0551 0.11813-1.7211-0.47954-3.3665-1.1978-4.8884-2.1337-1.4511-0.99198-2.7139-2.2345-3.729-3.6694-1.2405-1.6612-2.0971-3.9869-2.5623-6.9918-0.49122-2.3786-0.68469-4.8091-0.57597-7.2355 0.15284-3.245 0.66046-6.4635 1.5138-9.5981 1.3681-7.1773 3.1932-14.26 5.4643-21.204 1.4768-4.6588 3.4558-10.152 5.9443-16.472 1.0855-2.8425 2.3629-6.1649 3.8398-9.9525 1.4768-3.7949 2.5992-6.5562 3.3746-8.2987 2.1783-5.3676 4.1942-10.263 6.0551-14.692 1.8682-4.4225 3.574-8.2101 5.1246-11.37 1.7058-3.7949 3.3377-7.1174 4.8957-9.9599l2.326-1.1813c1.0918-0.39798 2.2231-0.67768 3.3746-0.8343 1.4768-0.23626 3.3007-0.35439 5.4717-0.35439 2.1783 0 4.0392 0.23626 5.5899 0.70878 1.5507 0.4799 2.8798 0.95243 3.9579 1.4249 1.2405 0.63495 2.2522 1.2699 3.0275 1.8975-1.7058 3.0049-3.4115 6.4824-5.1173 10.425-1.5507 3.3224-3.382 7.2724-5.4791 11.85-2.0897 4.5849-4.2312 9.6424-6.4021 15.165-1.5507 3.9574-3.3746 8.5349-5.4643 13.747-2.1045 5.2199-4.0022 10.041-5.7154 14.456-2.171 5.5374-4.113 10.949-5.8188 16.243-1.7131 5.2863-2.4885 9.1994-2.326 11.724 0.30275 1.1075 0.61289 1.7424 0.93041 1.8975 0.14768 0.47252 0.53905 0.70878 1.1593 0.70878 0.5734-0.027984 1.1323-0.18981 1.6319-0.47252 0.62027-0.31748 1.403-1.0263 2.3334-2.1337s2.0159-2.6063 3.2564-4.5037 2.5254-3.9426 3.8398-6.1575c1.3218-2.2149 2.6805-4.4299 4.0761-6.6448 1.403-2.2076 2.6435-4.1789 3.729-5.9213 0.62027-1.2551 1.403-2.2149 2.326-2.8425 0.77534-0.62757 1.7058-1.1075 2.7986-1.4176 1.1814-0.30343 2.4345-0.13389 3.4927 0.47252zm-573.52-30.219c0 11.481-3.9801 20.311-11.94 26.491-7.9676 6.1797-19.354 9.2732-34.182 9.2732h-13.557v44.594h-13.402v-113.41h29.877c28.806 0 43.205 11.016 43.205 33.047zm-59.679 24.438h12.066c11.874 0 20.469-1.8901 25.771-5.6629 5.3166-3.7802 7.975-9.827 7.975-18.155 0-7.4939-2.5032-13.083-7.495-16.76-4.9917-3.6694-12.775-5.5004-23.334-5.5004h-14.983v46.071 0.0073832zm152.14 13.341c0 13.858-3.5444 24.682-10.648 32.464-7.0888 7.7818-16.895 11.665-29.404 11.665-7.7239 0-14.584-1.772-20.58-5.3454-5.9886-3.5661-10.619-8.69-13.875-15.357-3.2564-6.6744-4.8884-14.478-4.8884-23.427 0-13.858 3.5223-24.66 10.559-32.39 7.0519-7.7302 16.829-11.592 29.337-11.592 12.088 0 21.687 3.95 28.813 11.865 7.1184 7.9147 10.685 18.62 10.685 32.117zm-65.83 0c0 10.853 2.2005 19.13 6.6163 24.822 4.4158 5.685 10.906 8.5349 19.48 8.5349 8.5657 0 15.064-2.8351 19.509-8.4906 4.4453-5.6703 6.6606-13.954 6.6606-24.866 0-10.809-2.2153-19.019-6.6606-24.63-4.4379-5.6112-11.002-8.4168-19.672-8.4168-8.5657 0-15.034 2.7687-19.391 8.2987-4.3641 5.5374-6.5424 13.784-6.5424 24.748zm97.575 42.586h-13.092v-120.7h13.092v120.69 0.007383zm36.552 0h-13.085v-85.017h13.085v85.01 0.007383zm-14.192-108.06c0-2.9459 0.73842-5.1018 2.2153-6.475 1.4695-1.3733 3.3081-2.0525 5.516-2.0525 2.1045 0 3.9136 0.69402 5.4348 2.0894 1.5285 1.4028 2.2891 3.5439 2.2891 6.4381 0 2.9016-0.76057 5.0575-2.2891 6.4824-1.4613 1.3969-3.4133 2.1633-5.4348 2.1337-2.2153 0-4.0466-0.71617-5.5234-2.1411-1.4695-1.4176-2.2079-3.5734-2.2079-6.475zm72.195 109.61c-12.509 0-22.197-3.7876-29.057-11.37-6.8526-7.5677-10.286-18.288-10.286-32.146 0-14.22 3.4854-25.213 10.449-32.966 6.9633-7.7597 16.88-11.636 29.758-11.636 4.1573 0 8.3072 0.44299 12.457 1.3142 4.1573 0.88598 7.4138 1.9196 9.7767 3.1009l-4.017 10.942c-3.0754-1.1943-6.2409-2.1423-9.4666-2.8351-2.9716-0.69528-6.009-1.0715-9.0604-1.1222-17.56 0-26.332 11.016-26.332 33.047 0 10.447 2.1414 18.458 6.4243 24.047 4.2828 5.5817 10.633 8.3799 19.037 8.3799 7.1996 0 14.584-1.5283 22.153-4.5776v11.4c-5.7818 2.9533-13.055 4.4225-21.835 4.4225zm24.331-86.567h14.03l18.926 48.478c4.1573 11.075 6.727 19.056 7.7313 23.973h0.62766c0.68673-2.6358 2.1193-7.1543 4.2976-13.541 2.1783-6.3864 9.3189-26.026 21.407-58.918h14.03l-37.135 96.815c-3.6773 9.5686-7.975 16.354-12.885 20.363-4.9179 4.0091-10.951 6.0099-18.091 6.0099-3.9801 0.00112-7.9478-0.44216-11.83-1.3216v-10.314c2.8872 0.62018 6.1289 0.93028 9.6955 0.93028 8.9866 0 15.403-4.9615 19.236-14.892l4.8145-12.108-34.853-85.475z"/>
</g>
<path transform="translate(117.81 96.611) scale(-1 1) rotate(135) translate(-117.81 -96.611)" d="m180.64 78.161c-12.457 9.6424-29.234 17.055-48.507 21.16-10.803 2.274-22.374 3.5218-34.433 3.5218-8.8315 0-17.427-0.6571-25.623-1.9344-12.952-1.9713-24.944-5.4119-35.518-10.019-1.0977-0.48851-2.1883-0.99308-3.2712-1.5135-3.536-1.1466-7.3688-0.96549-10.781 0.50944-2.5278 1.0756-4.7208 2.8093-6.3504 5.0205-2.5289 3.3697-3.5645 7.6291-2.8651 11.784 0.21414 0.87121 0.42828 1.7424 0.66458 2.5841 12.332 45.229 53.513 78.32 102.45 78.32 12.904 0.007717 25.701-2.3392 37.763-6.9254 22.822-8.7125 41.946-25.018 54.156-46.174 9.3452-16.134 14.252-34.455 14.222-53.1 0.04015-28.502-11.415-55.816-31.774-75.766 8.3442 9.3692 13.07 20.134 13.07 31.585 0 15.482-8.6765 29.717-23.201 40.947z" fill="url(#c)" fill-rule="nonzero"/>
<path transform="translate(128.06 50.163) scale(-1 1) rotate(135) translate(-128.06 -50.163)" d="m58.357 3.346c4.5786 9.1424 10 17.838 16.194 25.974 6.2443 8.29 13.07 16.126 20.425 23.449 28.85 28.89 61.031 46.056 81.669 45.458 4.5782-1.0632 9.0457-2.4438 13.373-4.0976 0.7015-0.51682 1.3365-1.0632 1.9568-1.6834 7.4285-7.4348 7.4728-20.916 1.5064-37.063-4.7997-13.083-13.543-27.886-25.498-42.601-10.803 2.2666-22.374 3.5218-34.433 3.5218-8.8315 0-17.427-0.66448-25.623-1.9344-12.952-1.9713-24.944-5.4119-35.518-10.026-1.1326-0.4998-2.2576-1.0167-3.3746-1.5505-3.5098-1.1067-7.3011-0.91004-10.678 0.55374" fill="url(#b)" fill-rule="nonzero" opacity=".5"/>
<path transform="translate(76.186 138.94) scale(-1 1) rotate(135) translate(-76.186 -138.94)" d="m74.572 76.884c-31.296-0.029548-61.001 13.788-81.138 37.743-3.1516 4.2282-3.9354 9.769-2.0801 14.705s6.0947 8.5896 11.251 9.6961c20.462 3.9131 47.466 20.03 72.026 44.609 5.6858 5.6924 10.929 11.532 15.669 17.373 19.273-4.0976 36.042-11.518 48.514-21.153 14.517-11.237 23.194-25.472 23.194-40.947 0-11.54-4.7997-22.349-13.247-31.762-19.798-19.435-46.444-30.307-74.189-30.271v0.0073831z" fill="url(#a)" fill-rule="nonzero"/>
<g transform="translate(0 252)">
<path d="m485.45 60.059c-0.19725 0.3111-0.39587 0.62221-0.59586 0.93332-0.808 1.2569-1.5711 2.424-2.2893 3.5013-0.71823 1.0773-1.3467 1.9302-1.8853 2.5587-0.53867 0.62845-0.98755 1.0324-1.3467 1.212s-0.62844 0.26933-0.808 0.26933c-0.26934 0-0.49378-0.13467-0.67333-0.404-0.44889-0.26933-0.62844-0.89777-0.53867-1.8853 0.089778-0.98756 0.31422-2.1771 0.67333-3.5687s0.83044-2.9402 1.414-4.646 1.2344-3.4564 1.9527-5.252c1.616-4.1298 3.5462-8.7084 5.7907-13.736-1.7956-0.808-3.5238-1.3242-5.1847-1.5487-1.6609-0.22445-3.1198-0.24689-4.3767-0.067333-1.5262 0.17956-2.9627 0.49378-4.3093 0.94267-0.89778 2.0649-1.7058 4.04-2.424 5.9253-0.71823 1.8853-1.3467 3.636-1.8853 5.252-0.17956 0.44889-0.31422 0.83044-0.404 1.1447-0.089778 0.31422-0.17956 0.65089-0.26933 1.01-0.53867 1.4365-1.3018 3.3442-2.2893 5.7233-0.98756 2.3791-2.0649 4.7133-3.232 7.0027s-2.424 4.242-3.7707 5.858-2.6036 2.3791-3.7707 2.2893c-0.71822-0.089778-1.2569-0.53866-1.616-1.3467-0.35911-0.71823-0.51622-1.7731-0.47133-3.1647s0.47133-3.3891 1.2793-5.9927c0.62845-2.0649 1.2569-4.0624 1.8853-5.9927 0.62845-1.9302 1.3018-3.8829 2.02-5.858l1.7507-4.5787c0.35911-0.98756 0.69578-1.8629 1.01-2.626 0.31422-0.76311 0.56111-1.4589 0.74067-2.0873 0.26934-0.71823 0.49378-1.3467 0.67333-1.8853-1.616-0.808-3.1647-1.3018-4.646-1.4813-1.4813-0.17956-2.828-0.24689-4.04-0.202s-2.2444 0.17955-3.0973 0.404-1.414 0.38156-1.6833 0.47133l-0.13467 0.13467-2.1547 6.1947c-0.98094 3.0246-1.9247 6.1236-2.8312 9.297-0.62769 0.98635-1.3448 2.1069-2.1515 3.3617-0.808 1.2569-1.5936 2.5138-2.3567 3.7707s-1.5038 2.424-2.222 3.5013c-0.71823 1.0773-1.3467 1.9302-1.8853 2.5587-0.53867 0.62845-0.98755 1.0324-1.3467 1.212s-0.67333 0.26933-0.94267 0.26933c-0.35911 0-0.58356-0.13467-0.67333-0.404-0.35911-0.26933-0.51622-0.89777-0.47133-1.8853s0.24689-2.1771 0.606-3.5687 0.83044-2.9402 1.414-4.646c0.58356-1.7058 1.2344-3.4564 1.9527-5.252 1.616-4.1298 3.5462-8.7084 5.7907-13.736-1.7956-0.808-3.5238-1.3242-5.1847-1.5487-1.6609-0.22445-3.1198-0.24689-4.3767-0.067333-1.5262 0.17956-2.9178 0.49378-4.1747 0.94267-1.9751 4.6685-3.5462 8.686-4.7133 12.053s-2.0649 6.2171-2.6933 8.5513l-1.4813 5.7907v0.404c0 0.17956-0.044888 0.31422-0.13467 0.404l-0.404 2.2893c0 0.17956-0.022444 0.31422-0.067333 0.404s-0.067333 0.22444-0.067333 0.404c-0.089779 0.62845-0.24689 1.5935-0.47133 2.8953-0.22444 1.3018-0.51622 2.8055-0.87533 4.5113s-0.808 3.5238-1.3467 5.454c-0.53867 1.9302-1.1671 3.8829-1.8853 5.858-1.616-0.44889-3.2769-0.78555-4.9827-1.01-1.7058-0.22445-3.5013-0.33667-5.3867-0.33667-4.4889 0-7.9229 0.71822-10.302 2.1547-2.3791 1.4365-4.1073 3.0075-5.1847 4.7133-1.2569 1.9751-1.9302 4.2195-2.02 6.7333 0.089778 3.232 0.89777 5.7458 2.424 7.5413 1.5262 1.7956 3.1871 3.0973 4.9827 3.9053 2.0649 0.98756 4.3991 1.5262 7.0027 1.616 2.2445 0.17956 4.3318 3e-6 6.262-0.53867 1.9302-0.53867 3.7033-1.3467 5.3193-2.424 1.616-1.0773 3.1198-2.4015 4.5113-3.9727s2.6709-3.2544 3.838-5.05c2.6933 1.2569 5.4315 2.0649 8.2147 2.424 2.9627 0.35911 5.2744 0.022449 6.9353-1.01 1.6609-1.0324 2.9402-2.222 3.838-3.5687 0.98756-1.616 1.6609-3.4564 2.02-5.5213-2.3342 1.2569-4.848 1.5711-7.5413 0.94267-2.6933-0.62845-5.6111-1.5711-8.7533-2.828 0.62845-1.5262 1.1671-3.0524 1.616-4.5787l1.3467-4.5787c2.6933-0.26933 5.1847-1.3691 7.474-3.2993 1.8542-1.5633 3.5464-3.2739 5.0767-5.1317 0.079747 0.51328 0.20552 1.0792 0.37733 1.6977 0.44889 1.616 1.4364 3.0973 2.9627 4.444s4.04 2.1098 7.5413 2.2893h1.212c2.3342-0.26933 4.3991-1.1895 6.1947-2.7607 1.7956-1.5711 3.4564-3.4789 4.9827-5.7233 0.17956 1.9751 0.62844 3.5013 1.3467 4.5787 0.71823 1.0773 1.4813 1.9302 2.2893 2.5587 0.98756 0.71823 2.02 1.1671 3.0973 1.3467 3.0525 0.44889 5.9029-0.22444 8.5513-2.02 2.2772-1.5439 4.3221-3.3532 6.1347-5.4281 0.08307 0.1953 0.17038 0.38867 0.26194 0.58011 0.808 1.7956 2.1771 3.4115 4.1073 4.848s4.7358 2.1996 8.4167 2.2893c2.5138 0.17956 4.9378-0.22444 7.272-1.212 1.9751-0.71823 3.8829-2.0424 5.7233-3.9727 1.8405-1.9302 3.2096-4.7806 4.1073-8.5513 0.808-3.5911 1.0549-6.868 0.74067-9.8307-0.31422-2.9627-0.71822-5.656-1.212-8.08-0.49378-2.424-0.87533-4.646-1.1447-6.666-0.26933-2.02 0.089773-3.9278 1.0773-5.7233-0.44889-0.62845-1.1671-1.212-2.1547-1.7507-0.808-0.44889-1.8853-0.89778-3.232-1.3467s-3.0524-0.76311-5.1173-0.94267c-0.53867 0.89778-1.1222 1.8404-1.7507 2.828-0.53867 0.89778-1.1222 1.9751-1.7507 3.232l-5.7922 11.584c-0.085395-0.048394-0.17466-0.09432-0.26778-0.13778-0.71822-0.35911-1.3916-0.44889-2.02-0.26933-0.62845 0.17956-1.1671 0.44889-1.616 0.808-0.53867 0.35911-0.98755 0.89777-1.3467 1.616-0.71823 0.98756-1.4589 2.1098-2.222 3.3667-0.001913 0.0031506-0.003826 0.0063012-0.005739 0.0094518-0.088819 0.1064-0.17668 0.21547-0.2636 0.32721-0.57137 0.73462-1.0685 1.5682-1.4915 2.5007zm65.121-8.3587c1.3467 0.62845 1.9078 1.7731 1.6833 3.434-0.22445 1.6609-0.92022 3.5238-2.0873 5.5887-0.44889 0.808-1.1671 2.1322-2.1547 3.9727-0.98756 1.8405-2.1995 3.7931-3.636 5.858-1.4365 2.0649-3.0973 4.0624-4.9827 5.9927s-3.9053 3.3891-6.06 4.3767c-1.0773 0.44889-2.1547 0.78555-3.232 1.01-1.0773 0.22445-2.2444 0.24689-3.5013 0.067333-0.98756-0.26933-1.9302-0.67333-2.828-1.212-0.71823-0.44889-1.4364-1.1447-2.1547-2.0873-0.71823-0.94267-1.2569-2.2669-1.616-3.9727-0.17956-1.1671-0.24689-2.5362-0.202-4.1073 0.044889-1.5711 0.33666-3.3891 0.87533-5.454 0.26934-1.4365 0.67333-3.232 1.212-5.3867 0.44889-1.7956 1.0998-4.0175 1.9527-6.666s1.9975-5.7682 3.434-9.3593c0.62845-1.616 1.3691-3.5013 2.222-5.656 0.85289-2.1547 1.5038-3.7258 1.9527-4.7133l0.808-2.1547c-2.0649-0.17956-3.3218-0.71822-3.7707-1.616-0.44889-0.89778-0.53867-1.8404-0.26933-2.828 0.35911-1.1671 1.0324-2.4689 2.02-3.9053 0.808 1.616 2.2444 2.5587 4.3093 2.828 0.89778-1.9751 1.7282-3.7258 2.4913-5.252 0.76312-1.5262 1.414-2.8729 1.9527-4.04l1.7507-3.5013 1.3467-0.67333c0.44889-0.17956 1.0998-0.33667 1.9527-0.47133 0.85289-0.13467 1.9078-0.202 3.1647-0.202 1.2569 0 2.3342 0.13467 3.232 0.404 0.89778 0.26933 1.6609 0.53867 2.2893 0.808 0.71823 0.35911 1.3018 0.71822 1.7507 1.0773l-1.212 2.424c-0.44889 0.71823-0.92022 1.6384-1.414 2.7607-0.49378 1.1222-1.0549 2.3567-1.6833 3.7033 1.7956-0.62845 3.5911-1.3242 5.3867-2.0873 1.7956-0.76311 3.5911-1.5038 5.3867-2.222 2.0649-0.89778 4.3542-1.8629 6.868-2.8953 2.5138-1.0324 5.0724-1.9078 7.676-2.626 2.6036-0.71823 5.1847-1.1671 7.7433-1.3467 2.5587-0.17956 5.0051 0.13466 7.3393 0.94267 2.3342 0.98756 3.7931 2.3342 4.3767 4.04s0.74067 3.4564 0.47133 5.252c-0.35911 2.0649-1.1222 4.2644-2.2893 6.5987-0.44889-2.2445-2.2893-3.636-5.5213-4.1747s-7.0924-0.58356-11.581-0.13467c-4.4889 0.44889-9.3144 1.1896-14.477 2.222s-9.9429 1.9976-14.342 2.8953l-2.5587 5.9253c-0.89778 2.2445-1.9527 4.848-3.1647 7.8107-1.212 2.9627-2.3118 5.7009-3.2993 8.2147-1.2569 3.1422-2.3791 6.2171-3.3667 9.2247-0.98756 3.0076-1.4364 5.2295-1.3467 6.666 0.17956 0.62845 0.35911 0.98756 0.53867 1.0773 0.089779 0.26933 0.31422 0.404 0.67333 0.404 0.17956 0 0.47133-0.089777 0.87533-0.26933s0.87533-0.58355 1.414-1.212 1.1671-1.4813 1.8853-2.5587c0.71823-1.0773 1.4589-2.2444 2.222-3.5013s1.5487-2.5138 2.3567-3.7707c0.808-1.2569 1.5262-2.3791 2.1547-3.3667 0.35911-0.71823 0.808-1.2569 1.3467-1.616 0.44889-0.35911 0.98755-0.62844 1.616-0.808 0.62845-0.17956 1.3018-0.08978 2.02 0.26933zm-113.52-16.968c-1.616-0.17956-2.828-0.606-3.636-1.2793s-1.3916-1.3691-1.7507-2.0873c-0.26934-0.53867-0.31422-1.1222-0.13467-1.7507l0.26933-1.0773 2.02-5.1173 0.53867-0.53867c0.44889-0.44889 0.89778-0.71822 1.3467-0.808 0.98756-0.17956 2.4015-0.33667 4.242-0.47133 1.8405-0.13467 3.838 0.15711 5.9927 0.87533 0.35911 0.17956 0.67333 0.404 0.94267 0.67333 0.53867 0.53867 0.62845 1.3018 0.26933 2.2893l-2.02 4.5787c-0.089778 0.26933-0.22444 0.58355-0.404 0.94267-0.26933 0.53867-0.58355 0.98755-0.94267 1.3467-0.53867 0.62845-1.3467 1.2569-2.424 1.8853-1.0773 0.62845-2.5138 0.808-4.3093 0.53867zm-27.068 60.735c-2.2445-1.1671-4.3318-2.0649-6.262-2.6933s-3.9278-0.58356-5.9927 0.13467h-0.13467c-1.1671 0.35911-2.0424 0.83044-2.626 1.414s-1.01 1.1896-1.2793 1.818c-0.26934 0.62845-0.404 1.1896-0.404 1.6833v1.01c0 0.17956 0.044888 0.31422 0.13467 0.404 0.089779 0.44889 0.26933 0.85289 0.53867 1.212 0.17956 0.35911 0.47133 0.71822 0.87533 1.0773s0.96511 0.62844 1.6833 0.808c1.3467 0.44889 3.1422 0.404 5.3867-0.13467 0.71823-0.17956 1.8629-0.74066 3.434-1.6833 1.5711-0.94267 3.1198-2.626 4.646-5.05zm-10.639 15.217c1.4365 0.17956 2.6933 0.15711 3.7707-0.067333 1.0773-0.22445 2.02-0.47133 2.828-0.74067 0.89778-0.35911 1.7058-0.76311 2.424-1.212-1.3467 0.53867-2.8729 0.94266-4.5787 1.212-1.5262 0.17956-3.2993 0.17956-5.3193 0s-4.3318-0.808-6.9353-1.8853c0.44889 0.35911 1.0324 0.71822 1.7507 1.0773 0.62845 0.26934 1.4364 0.56111 2.424 0.87533 0.98756 0.31422 2.1995 0.56111 3.636 0.74067zm27.876-64.371c0.17956-0.35911 0.47133-0.87533 0.87533-1.5487s0.92022-1.3916 1.5487-2.1547c0.62845-0.76311 1.3467-1.4364 2.1547-2.02s1.6609-0.96511 2.5587-1.1447c-0.71823 0.089778-1.3467 0.13467-1.8853 0.13467-0.44889 0.089778-0.89778 0.13467-1.3467 0.13467s-0.76311 0.044888-0.94267 0.13467l-2.9627 6.464zm7.9453-21.681c-0.17956 0.44889-0.44889 1.0549-0.808 1.818s-0.808 1.6384-1.3467 2.626c0.17956-0.26933 0.47133-0.69577 0.87533-1.2793 0.404-0.58356 0.89778-1.1896 1.4813-1.818s1.2569-1.212 2.02-1.7507 1.5936-0.89778 2.4913-1.0773c-0.44889 0.089778-0.85289 0.13467-1.212 0.13467-0.35911 0.089778-0.71822 0.13467-1.0773 0.13467s-0.71822 0.044888-1.0773 0.13467c-0.53867 0.17956-0.89778 0.404-1.0773 0.67333-0.17956 0.17956-0.26933 0.31422-0.26933 0.404zm-2.9627 75.952c-0.808 0.089778-1.6609 0.089778-2.5587 0-1.5262 0-3.1871-0.22444-4.9827-0.67333 0.71823 0.35911 1.4813 0.67333 2.2893 0.94267 0.71823 0.17956 1.5262 0.29178 2.424 0.33667 0.89778 0.044889 1.8404-0.15711 2.828-0.606zm16.968-20.873c1.7956 0.26933 3.4564 0.13467 4.9827-0.404 1.5262-0.53867 2.3791-0.85289 2.5587-0.94267-0.17956 0-0.69577 0.089777-1.5487 0.26933-0.85289 0.17956-1.8853 0.26933-3.0973 0.26933s-2.5362-0.202-3.9727-0.606c-1.4365-0.404-2.828-1.1447-4.1747-2.222 0.35911 0.62845 0.76311 1.1671 1.212 1.616 0.44889 0.44889 0.98755 0.85289 1.616 1.212 0.62845 0.35911 1.4364 0.62844 2.424 0.808zm-1.0773-33.397c0.17956-0.35911 0.47133-0.87533 0.87533-1.5487s0.92022-1.3916 1.5487-2.1547 1.3467-1.4364 2.1547-2.02 1.6609-0.96511 2.5587-1.1447c-0.62845 0.089778-1.212 0.13467-1.7507 0.13467-0.44889 0.089778-0.92022 0.13467-1.414 0.13467-0.49378 0-0.83044 0.044888-1.01 0.13467l-2.9627 6.464zm19.392 29.627c0 0.89778 0.22444 1.6609 0.67333 2.2893 0.44889 0.53867 1.0773 0.98755 1.8853 1.3467s2.0649 0.44889 3.7707 0.26933c-0.71822 0.089778-1.4813-0.044887-2.2893-0.404-0.71823-0.17956-1.4364-0.56111-2.1547-1.1447-0.71822-0.58356-1.3467-1.3691-1.8853-2.3567zm31.512-6.1947c1.616-0.44889 2.7607-1.414 3.434-2.8953s1.0773-3.1198 1.212-4.9153c0.13467-1.7956 0.089779-3.5238-0.13467-5.1847-0.22444-1.6609-0.42644-2.8953-0.606-3.7033l-2.02 3.3667c0.35911 0.44889 0.606 0.87533 0.74067 1.2793 0.13467 0.404 0.29178 0.78555 0.47133 1.1447l0.26933 1.0773c-1.0773 0.089778-2.1098 0.31422-3.0973 0.67333-0.808 0.35911-1.616 0.89777-2.424 1.616s-1.3467 1.7507-1.616 3.0973c-0.53867 1.7956-0.26934 3.1422 0.808 4.04 0.26934 0.26933 0.58355 0.42644 0.94267 0.47133s0.67333 0.067333 0.94267 0.067333c0.35911 0 0.71822-0.044888 1.0773-0.13467zm-10.504 5.9253c0.98756 1.1671 2.1995 2.1547 3.636 2.9627 1.2569 0.71823 2.7831 1.2344 4.5787 1.5487 1.7956 0.31422 3.9951 0.11223 6.5987-0.606-0.26933 0-0.89777 0.044888-1.8853 0.13467-0.98756 0.089778-2.1771 0.022446-3.5687-0.202-1.3916-0.22445-2.8953-0.606-4.5113-1.1447s-3.232-1.4364-4.848-2.6933zm16.968-39.592c1.7956 0.44889 3.3218 0.89778 4.5787 1.3467 1.2569 0.44889 1.9751 0.76311 2.1547 0.94267-0.53867-0.53867-1.1896-0.96511-1.9527-1.2793s-1.5038-0.56111-2.222-0.74067c-0.89778-0.17956-1.7507-0.26933-2.5587-0.26933zm36.225-21.412c-0.44889 0.71823-0.89778 1.4813-1.3467 2.2893-0.44889 0.71823-0.87533 1.5038-1.2793 2.3567-0.404 0.85289-0.83044 1.6833-1.2793 2.4913 0.089778-0.26933 0.404-0.76311 0.94267-1.4813 0.53867-0.71823 1.1671-1.5262 1.8853-2.424 0.71823-0.89778 1.5262-1.7058 2.424-2.424s1.7956-1.212 2.6933-1.4813c-0.62845 0.089778-1.212 0.17956-1.7507 0.26933-0.44889 0.089778-0.89778 0.15711-1.3467 0.202s-0.76311 0.11222-0.94267 0.202zm-17.776 61.273c0 0.89778 0.22444 1.6609 0.67333 2.2893 0.44889 0.53867 1.0773 0.98755 1.8853 1.3467s2.0649 0.44889 3.7707 0.26933c-0.71823 0.089778-1.4813-0.044887-2.2893-0.404-0.71822-0.17956-1.4364-0.56111-2.1547-1.1447-0.71823-0.58356-1.3467-1.3691-1.8853-2.3567zm92.396-2.7005c-1.8259 2.3316-3.9181 4.3764-6.2765 6.1345-2.4689 1.8405-5.1398 2.7607-8.0127 2.7607-0.44889 1.5262-0.89778 3.03-1.3467 4.5113s-0.98755 2.9851-1.616 4.5113c3.1422 1.2569 6.06 2.1996 8.7533 2.828 2.6933 0.62845 5.252 0.31423 7.676-0.94267-0.35911 2.0649-1.0324 3.9053-2.02 5.5213-0.89778 1.3467-2.1995 2.5362-3.9053 3.5687-1.7058 1.0324-4.04 1.3691-7.0027 1.01-2.7831-0.35911-5.5213-1.1671-8.2147-2.424-1.1671 1.7956-2.4464 3.4789-3.838 5.05s-2.8953 2.8953-4.5113 3.9727c-1.616 1.0773-3.3891 1.8853-5.3193 2.424-1.9302 0.53867-4.0175 0.71822-6.262 0.53867-2.6036-0.089778-4.9378-0.62844-7.0027-1.616-1.7956-0.808-3.4564-2.1098-4.9827-3.9053-1.5262-1.7956-2.3342-4.3093-2.424-7.5413 0.089778-2.5138 0.7631-4.7582 2.02-6.7333 1.0773-1.7058 2.8055-3.2769 5.1847-4.7133 2.3791-1.4365 5.8131-2.1547 10.302-2.1547 1.8853 0 3.6809 0.11222 5.3867 0.33667 1.7058 0.22445 3.3667 0.56111 4.9827 1.01 0.89778-2.5138 1.7058-5.1622 2.424-7.9453-1.2569 0.98756-2.7158 1.7507-4.3767 2.2893-1.6609 0.53867-3.5238 0.71822-5.5887 0.53867-2.2445-0.17956-4.0849-0.65088-5.5213-1.414-1.4365-0.76311-2.5811-1.7058-3.434-2.828-0.85289-1.1222-1.4589-2.4015-1.818-3.838-0.35911-1.4365-0.58356-2.8729-0.67333-4.3093-0.17956-3.4116 0.40399-7.1822 1.7507-11.312 1.3467-4.1298 2.9402-7.5189 4.7807-10.167 1.8405-2.6485 3.8155-4.7582 5.9253-6.3293 2.1098-1.5711 4.2869-2.6484 6.5313-3.232 2.2445-0.58356 4.3991-0.87533 6.464-0.87533 2.3342 0 4.1073 0.29177 5.3193 0.87533 1.212 0.58356 2.1322 1.2344 2.7607 1.9527 0.17956-0.44889 0.35911-0.85289 0.53867-1.212 0.17956-0.35911 0.35911-0.76311 0.53867-1.212 1.2569-0.44889 2.6484-0.76311 4.1747-0.94267 1.2569-0.17956 2.7158-0.15711 4.3767 0.067333 1.6609 0.22445 3.3891 0.74066 5.1847 1.5487-2.2445 5.0276-4.1747 9.6062-5.7907 13.736-0.71823 1.7956-1.3691 3.5462-1.9527 5.252s-1.0549 3.2544-1.414 4.646-0.56111 2.5811-0.606 3.5687 0.11222 1.616 0.47133 1.8853c0.089779 0.26933 0.31422 0.404 0.67333 0.404 0.26933 0 0.58355-0.089777 0.94267-0.26933s0.808-0.58355 1.3467-1.212 1.1671-1.4813 1.8853-2.5587c0.71823-1.0773 1.4589-2.2444 2.222-3.5013s1.5487-2.5138 2.3567-3.7707c0.808-1.2569 1.5262-2.3791 2.1547-3.3667 0.059404-0.11881 0.12126-0.2327 0.18558-0.34168 0.87161-1.9337 1.8197-3.6378 2.8444-5.1123 1.8405-2.6485 3.8155-4.7582 5.9253-6.3293 2.1098-1.5711 4.2869-2.6484 6.5313-3.232 2.2445-0.58356 4.3991-0.87533 6.464-0.87533 1.2569 0 2.424 0.13467 3.5013 0.404 0.808 0.17956 1.8853 0.71822 3.232 1.616 1.3467 0.89778 2.3791 2.3791 3.0973 4.444 0 0.089778 0.089777 0.404 0.26933 0.94267v0.13467c0.17956 0.62845 0.29178 1.2344 0.33667 1.818 0.044889 0.58356 0.11222 1.0998 0.202 1.5487 0 0.17956-0.022444 0.47133-0.067333 0.87533-0.044889 0.404-0.202 0.83044-0.47133 1.2793-0.89778 1.0773-1.7956 1.7956-2.6933 2.1547 2.3342 1.4365 3.8156 3.7258 4.444 6.868 0.44889 2.3342 0.35911 4.9378-0.26933 7.8107-0.53867 2.8729-1.4589 5.2295-2.7607 7.07s-2.7158 3.3442-4.242 4.5113c-1.5262 1.1671-3.0749 2.02-4.646 2.5587s-2.8953 0.89778-3.9727 1.0773c-0.35911 0.089778-0.65089 0.15711-0.87533 0.202s-0.42644 0.067333-0.606 0.067333h-0.67333c-1.1671 0.089778-2.424 0.089778-3.7707 0-1.616-0.089778-3.1871-0.31422-4.7133-0.67333-1.3467-0.35911-2.7382-0.85289-4.1747-1.4813s-2.6933-1.5711-3.7707-2.828c-0.089778 0-0.13467-0.044888-0.13467-0.13467-1.2334-1.4647-2.0366-3.128-2.4095-4.9898zm-27.621-50.224c-0.98756-0.35911-2.0649-0.606-3.232-0.74067-1.1671-0.13467-2.3342-0.202-3.5013-0.202-1.3467 0-2.6933 0.089777-4.04 0.26933 1.7956-0.53867 3.3667-0.78556 4.7133-0.74067s2.4689 0.15711 3.3667 0.33667c0.98756 0.26933 1.8853 0.62844 2.6933 1.0773zm8.3493 32.724c0.17956-0.808 0.35911-1.6833 0.53867-2.626s0.29178-1.8629 0.33667-2.7607c0.044889-0.89778 0-1.6609-0.13467-2.2893s-0.47133-1.0773-1.01-1.3467c-0.98756-0.44889-2.0649-0.44889-3.232 0-1.1671 0.44889-2.3791 1.2793-3.636 2.4913-1.2569 1.212-2.4913 2.8055-3.7033 4.7807s-2.2669 4.2195-3.1647 6.7333c-0.62845 1.8853-1.0324 3.5911-1.212 5.1173-0.17956 1.2569-0.11222 2.4689 0.202 3.636s1.0998 1.8404 2.3567 2.02c0.808 0.17956 1.6833 0.13467 2.626-0.13467 0.94267-0.26933 1.9302-0.87533 2.9627-1.818 1.0324-0.94267 2.0873-2.2893 3.1647-4.04 1.0773-1.7507 2.1098-4.0624 3.0973-6.9353v-0.13467c0-0.17956 0.044889-0.31422 0.13467-0.404l0.67333-2.2893zm-12.928 39.727c-2.2445-1.1671-4.3318-2.0649-6.262-2.6933s-3.9278-0.58356-5.9927 0.13467h-0.13467c-1.0773 0.35911-1.9302 0.83044-2.5587 1.414-0.62845 0.58356-1.0773 1.1896-1.3467 1.818-0.26934 0.62845-0.404 1.1896-0.404 1.6833v1.01c0 0.089778 0.022444 0.15711 0.067333 0.202s0.067333 0.11222 0.067333 0.202c0.089779 0.44889 0.26933 0.85289 0.53867 1.212 0.17956 0.35911 0.49378 0.71822 0.94267 1.0773s1.0324 0.62844 1.7507 0.808c1.2569 0.44889 3.0075 0.404 5.252-0.13467 0.808-0.17956 1.9751-0.74066 3.5013-1.6833 1.5262-0.94267 3.0524-2.626 4.5787-5.05zm-9.1573-40.265c0.98756-2.1547 2.1322-3.9951 3.434-5.5213s2.5362-2.828 3.7033-3.9053c1.1671-1.0773 2.1771-1.8853 3.03-2.424 0.85289-0.53867 1.414-0.85289 1.6833-0.94267-2.1547 0.62845-3.9727 1.6384-5.454 3.03-1.4813 1.3916-2.7158 2.8055-3.7033 4.242-1.0773 1.7058-1.9751 3.5462-2.6933 5.5213zm-0.67333 55.483c1.3467 0.17956 2.5811 0.15711 3.7033-0.067333 1.1222-0.22445 2.0873-0.47133 2.8953-0.74067 0.98756-0.35911 1.7956-0.76311 2.424-1.212-1.3467 0.53867-2.8729 0.94266-4.5787 1.212-1.5262 0.17956-3.2993 0.17956-5.3193 0s-4.3318-0.808-6.9353-1.8853c0.44889 0.35911 1.0324 0.71822 1.7507 1.0773 0.62845 0.26934 1.4364 0.56111 2.424 0.87533 0.98756 0.31422 2.1995 0.56111 3.636 0.74067zm28.28-64.371c0.17956-0.35911 0.47133-0.87533 0.87533-1.5487s0.92022-1.3916 1.5487-2.1547c0.62845-0.76311 1.3242-1.4364 2.0873-2.02s1.5936-0.96511 2.4913-1.1447c-0.62845 0.089778-1.212 0.13467-1.7507 0.13467-0.44889 0.089778-0.89778 0.13467-1.3467 0.13467s-0.76311 0.044888-0.94267 0.13467l-2.9627 6.464zm-29.896 27.607c0.089778 0.98756 0.404 1.8853 0.94267 2.6933 0.44889 0.71823 1.1671 1.3691 2.1547 1.9527s2.3791 0.96511 4.1747 1.1447c-0.089779 0-0.42644-0.13467-1.01-0.404-0.58356-0.26933-1.2344-0.65089-1.9527-1.1447s-1.4813-1.0773-2.2893-1.7507-1.4813-1.5038-2.02-2.4913zm34.475 26.664c-0.808 0.089778-1.6609 0.089778-2.5587 0-1.616 0-3.3218-0.22444-5.1173-0.67333 0.62845 0.35911 1.3916 0.67333 2.2893 0.94267 0.71822 0.17956 1.5487 0.29178 2.4913 0.33667s1.9078-0.15711 2.8953-0.606zm36.764-53.867c-0.98756-0.44889-2.0649-0.44889-3.232 0-1.1671 0.44889-2.3791 1.2793-3.636 2.4913-1.2569 1.212-2.4913 2.8055-3.7033 4.7807s-2.2669 4.2195-3.1647 6.7333c-0.26933 0.808-0.53866 1.6609-0.808 2.5587-0.17956 0.71823-0.33667 1.5262-0.47133 2.424-0.13467 0.89778-0.15711 1.7507-0.067333 2.5587 0 0.44889 0.26933 1.212 0.808 2.2893 0.17956 0.26933 0.38155 0.56111 0.606 0.87533 0.22444 0.31422 0.51622 0.56111 0.87533 0.74067 0.17956 0.17956 0.35911 0.31422 0.53867 0.404l0.53867 0.26933 0.67333 0.26933c0.17956 0 0.31422 0.022444 0.404 0.067333 0.089778 0.044889 0.22444 0.067333 0.404 0.067333 1.616 0.44889 3.0524 0.44889 4.3093 0 1.2569-0.44889 2.2893-1.0324 3.0973-1.7507 0.98756-0.808 1.7956-1.7507 2.424-2.828 0.98756-1.7058 1.4813-3.0973 1.4813-4.1747 0-1.0773-0.17955-1.9302-0.53867-2.5587-0.35911-0.71823-0.94266-1.212-1.7507-1.4813-1.5262-0.44889-2.7382-0.404-3.636 0.13467-0.89778 0.53867-1.5711 1.2569-2.02 2.1547-0.53867 0.98756-0.89778 2.1995-1.0773 3.636-0.98756-0.71823-1.5936-1.5487-1.818-2.4913-0.22445-0.94267-0.24689-1.9078-0.067333-2.8953 0.17956-1.0773 0.53866-2.2444 1.0773-3.5013 0.808-1.9751 2.1322-3.4564 3.9727-4.444 1.8405-0.98756 3.7482-1.3916 5.7233-1.212 0.17956-1.1671 0.22444-2.222 0.13467-3.1647-0.089779-0.94267-0.44889-1.5936-1.0773-1.9527zm-4.7133 33.263c-1.7956 0.35911-3.5911 0.53867-5.3867 0.53867-1.5262 0-3.2544-0.13467-5.1847-0.404-1.9302-0.26933-3.7482-0.89777-5.454-1.8853 1.1671 0.98756 2.5587 1.7507 4.1747 2.2893 1.3467 0.44889 3.0075 0.71822 4.9827 0.808 1.9751 0.089778 4.2644-0.35911 6.868-1.3467zm-12.389-33.397c0.808-0.98756 1.6609-1.818 2.5587-2.4913 0.89778-0.67334 1.7507-1.2569 2.5587-1.7507 0.808-0.49378 1.5038-0.85289 2.0873-1.0773 0.58356-0.22445 0.92022-0.33667 1.01-0.33667-1.3467 0.17956-2.5362 0.56111-3.5687 1.1447-1.0324 0.58356-1.9078 1.2344-2.626 1.9527-0.808 0.808-1.4813 1.6609-2.02 2.5587zm19.123 15.756c0.089779-0.53867 0.089779-0.98755 0-1.3467-0.17956-0.89778-0.53866-1.5711-1.0773-2.02-0.71823-0.35911-1.4813-0.44889-2.2893-0.26933-0.35911 0.089778-0.76311 0.22444-1.212 0.404 0.71822-0.089778 1.3916-0.04489 2.02 0.13467 0.53867 0.17956 1.0549 0.49378 1.5487 0.94267 0.49378 0.44889 0.83044 1.1671 1.01 2.1547zm42.016-10.639c1.3467 0.62845 1.9078 1.7731 1.6833 3.434-0.22445 1.6609-0.92022 3.5238-2.0873 5.5887-0.44889 0.808-1.1671 2.1322-2.1547 3.9727-0.98756 1.8405-2.1995 3.7931-3.636 5.858-1.4365 2.0649-3.0973 4.0624-4.9827 5.9927s-3.9053 3.3891-6.06 4.3767c-1.0773 0.44889-2.1547 0.78555-3.232 1.01-1.0773 0.22445-2.2444 0.24689-3.5013 0.067333-0.98756-0.26933-1.9302-0.67333-2.828-1.212-0.71823-0.44889-1.4364-1.1447-2.1547-2.0873-0.71823-0.94267-1.2569-2.2669-1.616-3.9727-0.17956-1.1671-0.24689-2.5362-0.202-4.1073 0.044889-1.5711 0.33666-3.3891 0.87533-5.454 0.26934-1.4365 0.67333-3.232 1.212-5.3867 0.44889-1.7956 1.0998-4.0175 1.9527-6.666s1.9975-5.7682 3.434-9.3593c0.62845-1.616 1.3691-3.5013 2.222-5.656 0.85289-2.1547 1.5038-3.7258 1.9527-4.7133l0.808-2.1547c-2.0649-0.17956-3.3218-0.71822-3.7707-1.616-0.44889-0.89778-0.53867-1.8404-0.26933-2.828 0.35911-1.1671 1.0324-2.4689 2.02-3.9053 0.808 1.616 2.2444 2.5587 4.3093 2.828 0.89778-1.9751 1.7282-3.7258 2.4913-5.252 0.76312-1.5262 1.414-2.8729 1.9527-4.04l1.7507-3.5013 1.3467-0.67333c0.44889-0.17956 1.0998-0.33667 1.9527-0.47133 0.85289-0.13467 1.9078-0.202 3.1647-0.202 1.2569 0 2.3342 0.13467 3.232 0.404 0.89778 0.26933 1.6609 0.53867 2.2893 0.808 0.71823 0.35911 1.3018 0.71822 1.7507 1.0773l-1.212 2.424c-0.44889 0.71823-0.92022 1.6384-1.414 2.7607-0.49378 1.1222-1.0549 2.3567-1.6833 3.7033 1.7956-0.62845 3.5911-1.3242 5.3867-2.0873 1.7956-0.76311 3.5911-1.5038 5.3867-2.222 2.0649-0.89778 4.3542-1.8629 6.868-2.8953 2.5138-1.0324 5.0724-1.9078 7.676-2.626 2.6036-0.71823 5.1847-1.1671 7.7433-1.3467 2.5587-0.17956 5.0051 0.13466 7.3393 0.94267 2.3342 0.98756 3.7931 2.3342 4.3767 4.04s0.74067 3.4564 0.47133 5.252c-0.35911 2.0649-1.1222 4.2644-2.2893 6.5987-0.44889-2.2445-2.2893-3.636-5.5213-4.1747s-7.0924-0.58356-11.581-0.13467c-4.4889 0.44889-9.3144 1.1896-14.477 2.222s-9.9429 1.9976-14.342 2.8953l-2.5587 5.9253c-0.89778 2.2445-1.9527 4.848-3.1647 7.8107-1.212 2.9627-2.3118 5.7009-3.2993 8.2147-1.2569 3.1422-2.3791 6.2171-3.3667 9.2247-0.98756 3.0076-1.4364 5.2295-1.3467 6.666 0.17956 0.62845 0.35911 0.98756 0.53867 1.0773 0.089779 0.26933 0.31422 0.404 0.67333 0.404 0.17956 0 0.47133-0.089777 0.87533-0.26933s0.87533-0.58355 1.414-1.212 1.1671-1.4813 1.8853-2.5587c0.71823-1.0773 1.4589-2.2444 2.222-3.5013s1.5487-2.5138 2.3567-3.7707c0.808-1.2569 1.5262-2.3791 2.1547-3.3667 0.35911-0.71823 0.808-1.2569 1.3467-1.616 0.44889-0.35911 0.98755-0.62844 1.616-0.808 0.62845-0.17956 1.3018-0.08978 2.02 0.26933zm-8.888-37.033c-0.44889 0.71823-0.89778 1.4813-1.3467 2.2893-0.44889 0.71823-0.87533 1.5038-1.2793 2.3567-0.404 0.85289-0.83044 1.6833-1.2793 2.4913 0.089778-0.26933 0.404-0.76311 0.94267-1.4813 0.53867-0.71823 1.1671-1.5262 1.8853-2.424 0.71823-0.89778 1.5262-1.7058 2.424-2.424s1.7956-1.212 2.6933-1.4813c-0.62845 0.089778-1.212 0.17956-1.7507 0.26933-0.44889 0.089778-0.89778 0.15711-1.3467 0.202s-0.76311 0.11222-0.94267 0.202zm-17.776 61.273c0 0.89778 0.22444 1.6609 0.67333 2.2893 0.44889 0.53867 1.0773 0.98755 1.8853 1.3467s2.0649 0.44889 3.7707 0.26933c-0.71823 0.089778-1.4813-0.044887-2.2893-0.404-0.71822-0.17956-1.4364-0.56111-2.1547-1.1447-0.71823-0.58356-1.3467-1.3691-1.8853-2.3567zm129.77-15.636c-0.14074 0.22935-0.28073 0.45869-0.41998 0.68804-0.76312 1.2569-1.5038 2.424-2.222 3.5013-0.71823 1.0773-1.3467 1.9302-1.8853 2.5587-0.53867 0.62845-0.98755 1.0324-1.3467 1.212s-0.67333 0.26933-0.94267 0.26933c-0.35911 0-0.58356-0.13467-0.67333-0.404-0.35911-0.26933-0.51622-0.89777-0.47133-1.8853s0.24689-2.1771 0.606-3.5687 0.83044-2.9402 1.414-4.646c0.58356-1.7058 1.2344-3.4564 1.9527-5.252 1.616-4.1298 3.5462-8.7084 5.7907-13.736-1.7956-0.808-3.5238-1.3242-5.1847-1.5487-1.6609-0.22445-3.1198-0.24689-4.3767-0.067333-1.5262 0.17956-2.9178 0.49378-4.1747 0.94267l-1.0773 2.424c-0.62845-0.71823-1.5487-1.3691-2.7607-1.9527-1.212-0.58356-2.9851-0.87533-5.3193-0.87533-2.0649 0-4.2195 0.29177-6.464 0.87533-2.2445 0.58356-4.4215 1.6609-6.5313 3.232-2.1098 1.5711-4.0849 3.6809-5.9253 6.3293-1.0547 1.5177-2.0283 3.2787-2.9208 5.2829-0.036389 0.055862-0.072778 0.1129-0.10917 0.17113-0.89778 1.2569-1.8629 2.7158-2.8953 4.3767-1.0324 1.6609-2.0424 3.2544-3.03 4.7807l-1.4813 2.02c-0.808 0.98756-1.7507 2.0649-2.828 3.232s-2.2444 2.1547-3.5013 2.9627l-2.5587 1.212c-1.2569 0.53867-2.5811 0.89778-3.9727 1.0773-1.3916 0.17956-2.8055 0.044891-4.242-0.404l-0.53867-0.26933c-0.44889-0.089778-0.808-0.31422-1.0773-0.67333-0.35911-0.17956-0.67333-0.42644-0.94267-0.74067-0.26934-0.31422-0.49378-0.606-0.67333-0.87533-0.26933-0.53867-0.44889-1.01-0.53867-1.414-0.089779-0.404-0.13467-0.69578-0.13467-0.87533-0.17956-0.808-0.202-1.6609-0.067333-2.5587 0.13467-0.89778 0.29178-1.7058 0.47133-2.424 1.0773 0.808 2.2444 1.4364 3.5013 1.8853 0.17956 0 0.65088 0.11222 1.414 0.33667 0.76312 0.22445 1.7731 0.29178 3.03 0.202 2.0649-0.089778 3.8604-0.49377 5.3867-1.212s2.828-1.5936 3.9053-2.626c1.0773-1.0324 1.9527-2.1098 2.626-3.232 0.67334-1.1222 1.1896-2.0873 1.5487-2.8953v-0.13467c0.17956-0.26933 0.35911-0.67333 0.53867-1.212v-0.26933l0.13467-0.26933c0.44889-1.5262 0.67333-2.8729 0.67333-4.04 0-0.98756-0.044889-1.7058-0.13467-2.1547-0.089778-0.89778-0.202-1.5936-0.33667-2.0873-0.13467-0.49378-0.202-0.83044-0.202-1.01l-0.13467-0.13467c-0.71823-2.0649-1.7282-3.5462-3.03-4.444-1.3018-0.89778-2.4016-1.4364-3.2993-1.616-0.98756-0.26933-2.1547-0.404-3.5013-0.404-2.0649 0-4.2195 0.29177-6.464 0.87533-2.2445 0.58356-4.4215 1.6609-6.5313 3.232-2.1098 1.5711-4.0849 3.6809-5.9253 6.3293-1.8405 2.6485-3.434 6.0375-4.7807 10.167-0.808 2.5138-1.3467 4.9378-1.616 7.272-0.17956 2.0649-0.15711 4.2195 0.067333 6.464s1.0549 4.2195 2.4913 5.9253l0.13467 0.13467c1.0773 1.2569 2.3342 2.1996 3.7707 2.828 1.4365 0.62845 2.828 1.1222 4.1747 1.4813 1.5262 0.35911 3.0973 0.58356 4.7133 0.67333 1.3467 0.17956 2.6484 0.17956 3.9053 0l2.9627-0.404c2.5138-0.53867 4.8031-1.4364 6.868-2.6933 2.0649-1.2569 3.9053-2.6035 5.5213-4.04 1.3093-1.1638 2.4566-2.3424 3.4417-3.5357 0.092989 0.50523 0.20264 1.0105 0.32895 1.5157 0.35911 1.4365 0.96511 2.7158 1.818 3.838 0.85289 1.1222 1.9975 2.0649 3.434 2.828 1.4365 0.76312 3.2769 1.2344 5.5213 1.414 3.4116 0.26933 6.2395-0.33666 8.484-1.818 2.2445-1.4813 3.9951-3.2544 5.252-5.3193 0.35911 1.5262 0.92022 2.7607 1.6833 3.7033 0.76312 0.94267 1.5038 1.6384 2.222 2.0873 0.89778 0.53867 1.7956 0.89778 2.6933 1.0773 3.0525 0.44889 5.8804-0.22444 8.484-2.02 2.2383-1.5436 4.2609-3.3526 6.0678-5.4271 0.08294 0.19495 0.17011 0.38798 0.26151 0.57909 0.808 1.7956 2.1771 3.4115 4.1073 4.848s4.7358 2.1996 8.4167 2.2893c2.5138 0.17956 4.9378-0.22444 7.272-1.212 1.9751-0.71823 3.8829-2.0424 5.7233-3.9727 1.8405-1.9302 3.2096-4.7806 4.1073-8.5513 0.808-3.5911 1.0549-6.868 0.74067-9.8307-0.31422-2.9627-0.71822-5.656-1.212-8.08-0.49378-2.424-0.87533-4.646-1.1447-6.666-0.26934-2.02 0.089773-3.9278 1.0773-5.7233-0.44889-0.62845-1.1671-1.212-2.1547-1.7507-0.808-0.44889-1.8853-0.89778-3.232-1.3467-1.3467-0.44889-3.0524-0.76311-5.1173-0.94267-0.53867 0.89778-1.1222 1.8404-1.7507 2.828-0.53867 0.89778-1.1222 1.9751-1.7507 3.232l-5.7657 11.531c-0.0518-0.029245-0.105-0.057517-0.15959-0.084814-0.808-0.35911-1.5262-0.44889-2.1547-0.26933-0.62845 0.17956-1.1671 0.44889-1.616 0.808-0.53867 0.35911-0.98755 0.89777-1.3467 1.616-0.57928 0.91029-1.2348 1.935-1.9667 3.0741-0.17859 0.19938-0.35349 0.40912-0.52468 0.62923-0.62101 0.79844-1.1543 1.7138-1.6 2.746zm-64.993-37.288c-0.98756-0.35911-2.0649-0.606-3.232-0.74067-1.1671-0.13467-2.3342-0.202-3.5013-0.202-1.3467 0-2.6933 0.089777-4.04 0.26933 1.7956-0.53867 3.3667-0.78556 4.7133-0.74067s2.4689 0.15711 3.3667 0.33667c0.98756 0.26933 1.8853 0.62844 2.6933 1.0773zm8.484 23.701c-1.7956-0.89778-3.9502-0.2469-6.464 1.9527s-4.6684 5.5438-6.464 10.033c0.44889 0.35911 1.3467 0.74066 2.6933 1.1447 1.3467 0.404 3.1422 0.24689 5.3867-0.47133 1.3467-0.53867 2.424-1.2344 3.232-2.0873 0.808-0.85289 1.414-1.7731 1.818-2.7607s0.67333-1.9527 0.808-2.8953c0.13467-0.94267 0.202-1.6833 0.202-2.222-0.17956-1.4365-0.58355-2.3342-1.212-2.6933zm-19.392 31.512c1.1671 0.98756 2.5587 1.7507 4.1747 2.2893 1.3467 0.44889 3.0075 0.71822 4.9827 0.808 1.9751 0.089778 4.2644-0.35911 6.868-1.3467-1.7956 0.35911-3.5911 0.53867-5.3867 0.53867-1.5262 0-3.2544-0.13467-5.1847-0.404-1.9302-0.26933-3.7482-0.89777-5.454-1.8853zm9.8307-36.495c-1.7956 0.44889-3.2993 1.1447-4.5113 2.0873s-2.1771 1.9078-2.8953 2.8953c-0.89778 1.0773-1.616 2.2893-2.1547 3.636 0.71823-0.98756 1.616-1.9976 2.6933-3.03 1.0773-1.0324 2.1098-1.9527 3.0973-2.7607 1.1671-0.98756 2.424-1.9302 3.7707-2.828zm1.4813 19.527c0.808 0.17956 1.616 0.22444 2.424 0.13467 0.71823-0.089778 1.4364-0.29178 2.1547-0.606 0.71822-0.31422 1.3916-0.87533 2.02-1.6833-0.53867 0.44889-1.1671 0.85289-1.8853 1.212-0.62845 0.26933-1.3467 0.51622-2.1547 0.74067-0.808 0.22445-1.6609 0.29178-2.5587 0.202zm46.191-5.5213c0.26933-0.808 0.49378-1.6833 0.67333-2.626s0.29178-1.8629 0.33667-2.7607c0.044889-0.89778-0.022444-1.6609-0.202-2.2893-0.17956-0.62845-0.53866-1.0773-1.0773-1.3467-0.98756-0.44889-2.0649-0.44889-3.232 0-1.1671 0.44889-2.3791 1.2793-3.636 2.4913-1.2569 1.212-2.4913 2.8055-3.7033 4.7807s-2.2669 4.2195-3.1647 6.7333c-0.62845 1.8853-1.0324 3.5911-1.212 5.1173-0.17956 1.2569-0.11222 2.4689 0.202 3.636 0.31422 1.1671 1.0998 1.8404 2.3567 2.02 0.808 0.17956 1.6833 0.13467 2.626-0.13467 0.94267-0.26933 1.9302-0.87533 2.9627-1.818 1.0324-0.94267 2.0873-2.2893 3.1647-4.04 1.0773-1.7507 2.1098-4.0624 3.0973-6.9353v-0.13467c0-0.17956 0.044888-0.31422 0.13467-0.404l0.67333-2.2893zm-22.085-0.53867c1.0773-2.1547 2.2444-3.9951 3.5013-5.5213 1.2569-1.5262 2.4913-2.828 3.7033-3.9053 1.212-1.0773 2.2444-1.8853 3.0973-2.424 0.85289-0.53867 1.414-0.85289 1.6833-0.94267-2.2445 0.62845-4.1073 1.6384-5.5887 3.03s-2.7158 2.8055-3.7033 4.242c-1.0773 1.7058-1.9751 3.5462-2.6933 5.5213zm-2.2893 18.719c0.089778 0.98756 0.404 1.8853 0.94267 2.6933 0.44889 0.71823 1.1671 1.3691 2.1547 1.9527 0.98756 0.58356 2.3791 0.96511 4.1747 1.1447-0.089778 0-0.42644-0.13467-1.01-0.404-0.58356-0.26933-1.2344-0.65089-1.9527-1.1447-0.71822-0.49378-1.4813-1.0773-2.2893-1.7507s-1.4813-1.5038-2.02-2.4913zm25.183 2.02c0 0.89778 0.22444 1.6609 0.67333 2.2893 0.44889 0.53867 1.0998 0.98755 1.9527 1.3467s2.0873 0.44889 3.7033 0.26933c-0.71823 0.089778-1.4813-0.044887-2.2893-0.404-0.71823-0.17956-1.4364-0.56111-2.1547-1.1447-0.71823-0.58356-1.3467-1.3691-1.8853-2.3567zm31.243-6.1947c1.616-0.44889 2.7607-1.414 3.434-2.8953 0.67334-1.4813 1.0773-3.1198 1.212-4.9153 0.13467-1.7956 0.089779-3.5238-0.13467-5.1847-0.22445-1.6609-0.42644-2.8953-0.606-3.7033l-2.02 3.3667c0.35911 0.44889 0.606 0.87533 0.74067 1.2793 0.13467 0.404 0.29178 0.78555 0.47133 1.1447l0.26933 1.0773c-1.0773 0.089778-2.1098 0.31422-3.0973 0.67333-0.808 0.35911-1.616 0.89777-2.424 1.616s-1.3467 1.7507-1.616 3.0973c-0.53867 1.7956-0.26934 3.1422 0.808 4.04 0.26933 0.26933 0.58355 0.42644 0.94267 0.47133s0.67333 0.067333 0.94267 0.067333c0.35911 0 0.71822-0.044888 1.0773-0.13467zm-10.504 5.9253c0.98756 1.1671 2.1995 2.1547 3.636 2.9627 1.2569 0.71823 2.7831 1.2344 4.5787 1.5487s3.9951 0.11223 6.5987-0.606c-0.26934 0-0.89777 0.044888-1.8853 0.13467-0.98756 0.089778-2.1771 0.022446-3.5687-0.202-1.3916-0.22445-2.8953-0.606-4.5113-1.1447s-3.232-1.4364-4.848-2.6933zm100.28-16.398c-0.22822 0.47187-0.48225 0.95534-0.76209 1.4504-0.35911 0.62845-0.89777 1.5935-1.616 2.8953s-1.5711 2.8055-2.5587 4.5113c-0.71822 0.98756-1.6384 2.222-2.7607 3.7033-1.1222 1.4813-2.4913 2.9402-4.1073 4.3767-1.616 1.4365-3.4564 2.7831-5.5213 4.04-2.0649 1.2569-4.3542 2.1547-6.868 2.6933l-2.9627 0.404c-1.2569 0.17956-2.5587 0.17956-3.9053 0-1.616-0.089778-3.1871-0.31422-4.7133-0.67333-1.3467-0.35911-2.7382-0.85289-4.1747-1.4813s-2.6933-1.5711-3.7707-2.828l-0.13467-0.13467c-1.3372-1.5879-2.1492-3.4092-2.4361-5.464-0.19484 0.25022-0.3928 0.50044-0.59386 0.75065-2.02 2.5138-4.3318 4.6684-6.9353 6.464-2.6036 1.7956-5.4315 2.4689-8.484 2.02-1.7956-0.35911-3.2769-1.212-4.444-2.5587-0.98756-1.1671-1.7507-2.8504-2.2893-5.05-0.53867-2.1996-0.31423-5.2744 0.67333-9.2247 0.26934-1.8853 0.808-4.1298 1.616-6.7333 0.62845-2.2445 1.5262-5.0051 2.6933-8.282 1.1671-3.2769 2.6933-7.2046 4.5787-11.783 1.3467-0.44889 2.7831-0.76311 4.3093-0.94267 1.2569-0.17956 2.7158-0.15711 4.3767 0.067333 1.6609 0.22445 3.3891 0.74066 5.1847 1.5487-2.2445 5.0276-4.1747 9.6062-5.7907 13.736-0.71822 1.7956-1.3691 3.5462-1.9527 5.252-0.58356 1.7058-1.0549 3.2544-1.414 4.646s-0.58356 2.5811-0.67333 3.5687c-0.089778 0.98756 0.044887 1.616 0.404 1.8853 0.089779 0.26933 0.31422 0.404 0.67333 0.404 0.26933 0 0.58355-0.089777 0.94267-0.26933s0.808-0.58355 1.3467-1.212 1.1671-1.4813 1.8853-2.5587c0.71823-1.0773 1.4813-2.2444 2.2893-3.5013s1.5936-2.5138 2.3567-3.7707c0.76312-1.2569 1.5038-2.3791 2.222-3.3667 0.24639-0.49278 0.53504-0.90103 0.86595-1.2248 0.75649-1.5736 1.5676-2.9834 2.4334-4.2292 1.8405-2.6485 3.8155-4.7582 5.9253-6.3293 2.1098-1.5711 4.2869-2.6484 6.5313-3.232 2.2445-0.58356 4.3991-0.87533 6.464-0.87533 1.3467 0 2.5138 0.13467 3.5013 0.404 0.89778 0.17956 1.9975 0.71822 3.2993 1.616s2.3118 2.3791 3.03 4.444l0.13467 0.13467c0 0.17956 0.067332 0.51622 0.202 1.01 0.13467 0.49378 0.24689 1.1896 0.33667 2.0873 0.089779 0.44889 0.13467 1.1671 0.13467 2.1547 0 1.1671-0.22444 2.5138-0.67333 4.04l-0.13467 0.26933v0.26933c-0.17956 0.53867-0.35911 0.94267-0.53867 1.212v0.13467c-0.35911 0.808-0.87533 1.7731-1.5487 2.8953-0.67334 1.1222-1.5487 2.1996-2.626 3.232-1.0773 1.0324-2.3791 1.9078-3.9053 2.626s-3.3218 1.1222-5.3867 1.212c-1.2569 0.089778-2.2669 0.022446-3.03-0.202-0.76312-0.22445-1.2344-0.33667-1.414-0.33667-1.2569-0.44889-2.424-1.0773-3.5013-1.8853-0.17956 0.71823-0.33667 1.5262-0.47133 2.424-0.13467 0.89778-0.11222 1.7507 0.067333 2.5587 0 0.17956 0.044889 0.47133 0.13467 0.87533 0.089778 0.404 0.26933 0.87533 0.53867 1.414 0.17956 0.26933 0.404 0.56111 0.67333 0.87533s0.58355 0.56111 0.94267 0.74067c0.26933 0.35911 0.62844 0.58356 1.0773 0.67333l0.53867 0.26933c1.4365 0.44889 2.8504 0.58356 4.242 0.404 1.3916-0.17956 2.7158-0.53866 3.9727-1.0773l2.5587-1.212c1.2569-0.808 2.424-1.7955 3.5013-2.9627 1.0773-1.1671 2.02-2.2444 2.828-3.232l1.4813-2.02c0.98756-1.5262 1.9976-3.1198 3.03-4.7807 0.71957-1.1576 1.4064-2.217 2.0606-3.1783 0.25799-0.51385 0.53624-1.048 0.83474-1.6023 0.62845-1.1671 1.2344-2.3567 1.818-3.5687s1.1671-2.4015 1.7507-3.5687c0.58356-1.1671 1.0549-2.1547 1.414-2.9627-0.89778-1.4365-1.4364-3.03-1.616-4.7807-0.17956-1.7507-0.044891-3.3891 0.404-4.9153 0.44889-1.5262 1.212-2.828 2.2893-3.9053 1.0773-1.0773 2.424-1.616 4.04-1.616 1.8853 0 3.1422 0.80799 3.7707 2.424 0.62845 1.616 0.98756 3.3218 1.0773 5.1173 0 0.808-0.022444 1.5936-0.067333 2.3567-0.044889 0.76312-0.067334 1.3691-0.067334 1.818-0.089778 0.17956-0.11222 0.49378-0.067333 0.94267s0.15711 0.76311 0.33667 0.94267c0.35911 0.17956 0.67333 0.26933 0.94267 0.26933 0.35911-0.089778 0.69578-0.29178 1.01-0.606 0.31422-0.31422 0.56111-0.65089 0.74067-1.01l0.67333-0.67333c0.35911-0.35911 0.98755-0.49378 1.8853-0.404 0.808 0.089778 1.7955 0.24689 2.9627 0.47133s2.2444 0.56111 3.232 1.01c0.98756 0.44889 1.7956 1.0998 2.424 1.9527 0.62845 0.85289 0.808 1.9078 0.53867 3.1647l-4.04 10.1-0.53867 1.212c0 0.35911-0.089777 0.71822-0.26933 1.0773-0.808 2.424-1.3916 4.5562-1.7507 6.3967-0.35911 1.8405-0.26934 2.9851 0.26933 3.434 0.089778 0.26933 0.31422 0.404 0.67333 0.404 0.26934 0 0.58355-0.089777 0.94267-0.26933s0.808-0.58355 1.3467-1.212c0.53867-0.62845 1.1671-1.4813 1.8853-2.5587 0.71822-1.0773 1.4589-2.2444 2.222-3.5013s1.5487-2.5138 2.3567-3.7707c0.808-1.2569 1.5262-2.3791 2.1547-3.3667 0.35911-0.71823 0.808-1.2569 1.3467-1.616 0.44889-0.35911 0.98755-0.62844 1.616-0.808 0.62845-0.17956 1.3018-0.08978 2.02 0.26933 1.3467 0.62845 1.9078 1.7731 1.6833 3.434s-0.92022 3.5238-2.0873 5.5887c-0.53867 0.98756-1.5038 2.7382-2.8953 5.252-1.3916 2.5138-3.0973 5.0275-5.1173 7.5413s-4.3542 4.6684-7.0027 6.464c-2.6485 1.7956-5.4989 2.4689-8.5513 2.02-1.8853-0.35911-3.3667-1.212-4.444-2.5587-0.98756-1.1671-1.7282-2.8504-2.222-5.05-0.49378-2.1996-0.24689-5.2744 0.74067-9.2247 0.17956-0.98756 0.44889-2.2444 0.808-3.7707l1.3467-4.7133c0.53867-1.8853 1.2569-4.1298 2.1547-6.7333-0.98756-0.26933-1.9302-0.67333-2.828-1.212-0.98756 1.9751-1.9078 3.6809-2.7607 5.1173-0.85289 1.4365-1.5038 2.5138-1.9527 3.232-0.45401 0.80324-0.9182 1.5318-1.3926 2.1856zm-83.313-23.194c0.808 0 1.6609 0.089777 2.5587 0.26933 0.71823 0.17956 1.4589 0.42644 2.222 0.74067s1.414 0.74066 1.9527 1.2793c-0.17956-0.17956-0.89777-0.49378-2.1547-0.94267-1.2569-0.44889-2.7831-0.89778-4.5787-1.3467zm31.647-14.005c1.0773-0.17956 2.5362-0.33667 4.3767-0.47133 1.8405-0.13467 3.7931 0.15711 5.858 0.87533 0.35911 0.17956 0.67333 0.404 0.94267 0.67333 0.53867 0.53867 0.62845 1.3018 0.26933 2.2893l-2.02 4.5787c-0.089779 0.26933-0.22444 0.58355-0.404 0.94267-0.26934 0.53867-0.58355 0.98755-0.94267 1.3467-0.53867 0.62845-1.3467 1.2569-2.424 1.8853s-2.5138 0.808-4.3093 0.53867c-1.616-0.17956-2.828-0.606-3.636-1.2793s-1.3467-1.3691-1.616-2.0873c-0.26934-0.53867-0.31422-1.1222-0.13467-1.7507l0.26933-1.0773c0.26934-0.808 0.56111-1.616 0.87533-2.424 0.31422-0.808 0.69578-1.7058 1.1447-2.6933 0.089779-0.17956 0.22444-0.35911 0.404-0.53867 0.44889-0.44889 0.89778-0.71822 1.3467-0.808zm-8.888 24.24c0.17956-0.35911 0.47133-0.87533 0.87533-1.5487s0.92022-1.3916 1.5487-2.1547 1.3467-1.4364 2.1547-2.02 1.6609-0.96511 2.5587-1.1447c-0.62845 0.089778-1.212 0.13467-1.7507 0.13467-0.44889 0.089778-0.92022 0.13467-1.414 0.13467-0.49378 0-0.83044 0.044888-1.01 0.13467l-2.9627 6.464zm6.298-17.194c0.097935-0.16152 0.2655-0.40041 0.50268-0.71666 0.404-0.53867 0.89778-1.1671 1.4813-1.8853s1.3018-1.3916 2.1547-2.02 1.7731-1.0773 2.7607-1.3467c-0.44889 0.089778-0.85289 0.13467-1.212 0.13467-0.35911 0.089778-0.74066 0.13467-1.1447 0.13467s-0.78555 0.044888-1.1447 0.13467c-0.53867 0.17956-0.89778 0.404-1.0773 0.67333-0.17956 0.17956-0.26933 0.31422-0.26933 0.404l-2.0513 4.4873zm-10.742 46.821c0 0.89778 0.22444 1.6609 0.67333 2.2893 0.44889 0.53867 1.0773 0.98755 1.8853 1.3467s2.0649 0.44889 3.7707 0.26933c-0.71822 0.089778-1.4813-0.044887-2.2893-0.404-0.71823-0.17956-1.4364-0.56111-2.1547-1.1447-0.71822-0.58356-1.3467-1.3691-1.8853-2.3567zm46.325-29.223c-1.7956-0.89778-3.9502-0.2469-6.464 1.9527-2.5138 2.1996-4.6684 5.5438-6.464 10.033 0.44889 0.35911 1.3467 0.74066 2.6933 1.1447 1.3467 0.404 3.1422 0.24689 5.3867-0.47133 1.3467-0.53867 2.424-1.2344 3.232-2.0873 0.808-0.85289 1.414-1.7731 1.818-2.7607s0.67333-1.9527 0.808-2.8953c0.13467-0.94267 0.202-1.6833 0.202-2.222-0.17956-1.4365-0.58355-2.3342-1.212-2.6933zm-19.392 31.512c1.1671 0.98756 2.5587 1.7507 4.1747 2.2893 1.3467 0.44889 3.0075 0.71822 4.9827 0.808 1.9751 0.089778 4.2644-0.35911 6.868-1.3467-1.7956 0.35911-3.5911 0.53867-5.3867 0.53867-1.5262 0-3.2544-0.13467-5.1847-0.404-1.9302-0.26933-3.7482-0.89777-5.454-1.8853zm9.8307-36.495c-1.7956 0.44889-3.2993 1.1447-4.5113 2.0873s-2.1771 1.9078-2.8953 2.8953c-0.89778 1.0773-1.616 2.2893-2.1547 3.636 0.71822-0.98756 1.616-1.9976 2.6933-3.03s2.1098-1.9527 3.0973-2.7607c1.1671-0.98756 2.424-1.9302 3.7707-2.828zm1.4813 19.527c0.808 0.17956 1.616 0.22444 2.424 0.13467 0.71823-0.089778 1.4364-0.29178 2.1547-0.606s1.3916-0.87533 2.02-1.6833c-0.53867 0.44889-1.1671 0.85289-1.8853 1.212-0.62845 0.26933-1.3467 0.51622-2.1547 0.74067-0.808 0.22445-1.6609 0.29178-2.5587 0.202zm27.741-19.931c-0.17956-0.98756-0.31422-1.9751-0.404-2.9627-0.089779-0.89778-0.11222-1.9078-0.067334-3.03s0.24689-2.3118 0.606-3.5687c-0.26933 0.35911-0.49378 0.76311-0.67333 1.212-0.17956 0.44889-0.33667 0.96511-0.47133 1.5487-0.13467 0.58356-0.202 1.2344-0.202 1.9527-0.089779 0.808-0.04489 1.6609 0.13467 2.5587 0.17956 0.89778 0.53866 1.6609 1.0773 2.2893zm6.868 34.609c0 0.89778 0.22444 1.6609 0.67333 2.2893 0.44889 0.53867 1.0773 0.98755 1.8853 1.3467s2.0649 0.44889 3.7707 0.26933c-0.71823 0.089778-1.4813-0.044887-2.2893-0.404-0.71823-0.17956-1.4364-0.56111-2.1547-1.1447-0.71823-0.58356-1.3467-1.3691-1.8853-2.3567zm13.871-31.781c-0.44889-0.71823-1.01-1.2569-1.6833-1.616s-1.3691-0.58356-2.0873-0.67333c-0.808-0.089778-1.616-0.089778-2.424 0 1.0773 0.26933 1.9976 0.53867 2.7607 0.808 0.76312 0.26933 1.414 0.49378 1.9527 0.67333 0.53867 0.26933 1.0324 0.53867 1.4813 0.808z" fill="#00D7AF"/>
<path d="m110.01 60.304c0.44567-1.0322 0.97901-1.9475 1.6-2.746 0.17119-0.22011 0.34609-0.42985 0.52468-0.62923 0.73183-1.1391 1.3874-2.1638 1.9667-3.0741 0.35911-0.71823 0.808-1.2569 1.3467-1.616 0.44889-0.35911 0.98755-0.62844 1.616-0.808 0.62845-0.17956 1.3018-0.08978 2.02 0.26933 0.093032 0.043415 0.18232 0.089294 0.26785 0.13764l5.7922-11.584c0.62845-1.2569 1.212-2.3342 1.7507-3.232 0.62845-0.98756 1.212-1.9302 1.7507-2.828 2.0649 0.17956 3.7707 0.49378 5.1173 0.94267s2.424 0.89778 3.232 1.3467c0.98756 0.53867 1.7058 1.1222 2.1547 1.7507-0.98756 1.7956-1.3467 3.7033-1.0773 5.7233 0.26934 2.02 0.65089 4.242 1.1447 6.666 0.49378 2.424 0.89778 5.1173 1.212 8.08 0.31422 2.9627 0.067337 6.2395-0.74067 9.8307-0.89778 3.7707-2.2669 6.6211-4.1073 8.5513-1.8405 1.9302-3.7482 3.2544-5.7233 3.9727-2.3342 0.98756-4.7582 1.3916-7.272 1.212-3.6809-0.089778-6.4864-0.85288-8.4167-2.2893s-3.2993-3.0524-4.1073-4.848c-0.091559-0.19144-0.17887-0.38481-0.26194-0.58011-1.8126 2.0749-3.8575 3.8842-6.1347 5.4281-2.6485 1.7956-5.4989 2.4689-8.5513 2.02-1.8853-0.35911-3.3667-1.212-4.444-2.5587-0.98756-1.1671-1.7282-2.8504-2.222-5.05-0.49378-2.1996-0.24689-5.2744 0.74067-9.2247 0.089778-0.71823 0.26933-1.5711 0.53867-2.5587 0.17956-0.89778 0.44889-1.9751 0.808-3.232s0.808-2.7831 1.3467-4.5787c0-0.17956 0.13467-0.53866 0.404-1.0773 0.17956-0.53867 0.38155-1.2344 0.606-2.0873 0.22445-0.85289 0.35911-1.7058 0.404-2.5587s6e-7 -1.616-0.13467-2.2893-0.47133-1.0549-1.01-1.1447c-0.62845-0.17956-1.5711 0.33666-2.828 1.5487-1.2569 1.212-2.6035 2.8504-4.04 4.9153s-2.8504 4.4889-4.242 7.272-2.5362 5.656-3.434 8.6187c-0.35911 0.98756-0.65089 2.02-0.87533 3.0973-0.22445 1.0773-0.47133 2.1547-0.74067 3.232-0.35911 1.3467-0.44889 2.4689-0.26933 3.3667 0.17956 0.89778 0.42644 1.616 0.74067 2.1547 0.31422 0.53867 0.67333 0.94267 1.0773 1.212 0.404 0.26933 0.65089 0.404 0.74067 0.404-0.71823 0.44889-1.5262 0.78555-2.424 1.01-0.89778 0.22445-1.7507 0.42644-2.5587 0.606-0.35911 0.089778-0.76311 0.13467-1.212 0.13467-2.0649 0.17956-3.636-0.089774-4.7133-0.808-1.0773-0.71823-1.8404-1.6384-2.2893-2.7607-0.44889-1.1222-0.69578-2.2669-0.74067-3.434-0.044889-1.1671-0.022445-2.1098 0.067333-2.828 0.71823-5.0276 1.7058-9.9653 2.9627-14.813 1.2569-4.848 2.6484-9.5164 4.1747-14.005l2.1547-6.1947 0.13467-0.13467c0.26933-0.089778 0.808-0.24689 1.616-0.47133 0.808-0.22445 1.818-0.35911 3.03-0.404 1.212-0.044889 2.5587 0.022444 4.04 0.202 1.4813 0.17956 3.03 0.67333 4.646 1.4813-0.089778 0.44889-0.22444 0.89778-0.404 1.3467-0.26933 0.808-0.67333 1.8853-1.212 3.232 1.5262-1.5262 3.1871-2.828 4.9827-3.9053 1.7956-1.0773 3.636-1.6609 5.5213-1.7507 0.62845 0 1.3916 0.089777 2.2893 0.26933 3.6809 0.53867 6.1049 2.3791 7.272 5.5213 1.1671 3.1422 0.89779 7.272-0.808 12.389-1.0773 2.8729-1.9078 5.4764-2.4913 7.8107-0.58356 2.3342-0.51622 3.7258 0.202 4.1747 0.089779 0.26933 0.31422 0.404 0.67333 0.404 0.26933 0 0.58355-0.089777 0.94267-0.26933s0.808-0.58355 1.3467-1.212 1.1671-1.4813 1.8853-2.5587c0.71823-1.0773 1.4589-2.2444 2.222-3.5013 0.13925-0.22935 0.27924-0.45869 0.41998-0.68804zm-92.195 30.719c-3.9502-0.62845-7.07-1.7058-9.3593-3.232-2.2893-1.5262-4.3767-3.7707-6.262-6.7333-0.98756-1.5262-1.616-3.1647-1.8853-4.9153-0.26933-1.7507-0.31422-3.3891-0.13467-4.9153 0.17956-1.7058 0.53866-3.3667 1.0773-4.9827 0.62845-1.8853 1.4364-3.4115 2.424-4.5787 0.98756-1.1671 1.9751-2.0424 2.9627-2.626 0.98756-0.58356 1.9302-0.96511 2.828-1.1447 0.89778-0.17956 1.6609-0.26933 2.2893-0.26933-0.44889 1.9751-0.76311 3.9951-0.94267 6.06-0.17956 2.0649-0.044891 3.9727 0.404 5.7233 0.44889 1.7507 1.2569 3.2993 2.424 4.646 1.1671 1.3467 2.828 2.3342 4.9827 2.9627 1.8853 0.44889 3.8155 0.58356 5.7907 0.404 1.9751-0.17956 3.9951-0.76311 6.06-1.7507 3.9502-2.3342 7.3169-5.2295 10.1-8.686 2.7831-3.4565 5.0724-6.9353 6.868-10.437l2.2893-4.9827 0.404-0.808c0.17956-0.35911 0.26933-0.67333 0.26933-0.94267 0.808-1.9751 1.4813-3.7931 2.02-5.454 0.53867-1.6609 0.94267-3.03 1.212-4.1073 1.3467-5.656 1.9302-10.93 1.7507-15.823s-0.62844-9.1798-1.3467-12.861c-2.6036 1.8853-5.05 4.0849-7.3393 6.5987s-4.3093 5.252-6.06 8.2147c-1.7507 2.9627-3.1871 6.1049-4.3093 9.4267-1.1222 3.3218-1.7282 6.7333-1.818 10.235-2.6036-1.0773-4.848-2.424-6.7333-4.04-1.616-1.3467-2.9627-3.03-4.04-5.05-1.0773-2.02-1.2569-4.3767-0.53867-7.07 0.35911-1.4365 1.2569-3.2993 2.6933-5.5887 1.4365-2.2893 3.3667-4.7358 5.7907-7.3393 2.424-2.6036 5.3642-5.252 8.8207-7.9453 3.4565-2.6933 7.4291-5.1622 11.918-7.4067 0.62845-0.26933 1.4364-0.51622 2.424-0.74067 0.98756-0.22445 2.0873-0.22445 3.2993 0 1.212 0.22445 2.4689 0.76311 3.7707 1.616 1.3018 0.85289 2.626 2.222 3.9727 4.1073 1.7058 2.424 2.8056 5.2295 3.2993 8.4167 0.49378 3.1871 0.606 6.4864 0.33667 9.898s-0.83044 6.7782-1.6833 10.1c-0.85289 3.3218-1.7282 6.3293-2.626 9.0227-0.17956 0.71823-0.78555 2.5138-1.818 5.3867-1.0324 2.8729-2.5362 6.262-4.5113 10.167s-4.444 7.9902-7.4067 12.255c-2.9627 4.2645-6.5089 8.1473-10.639 11.649-0.26933 0.17956-0.53867 0.38155-0.808 0.606-0.26933 0.22445-0.53867 0.47133-0.808 0.74067-2.3342 1.616-5.3193 3.1871-8.9553 4.7133-3.636 1.5262-7.7882 2.02-12.457 1.4813zm5.9253-3.0973c-2.6036-0.17956-5.05-0.76311-7.3393-1.7507s-4.3318-2.02-6.1273-3.0973c-2.0649-1.2569-3.9502-2.6484-5.656-4.1747 1.1671 1.7956 2.6484 3.4115 4.444 4.848 1.5262 1.2569 3.5013 2.3342 5.9253 3.232 2.424 0.89778 5.3418 1.212 8.7533 0.94267zm42.959-59.927c0.71823-2.6933 1.0549-5.0724 1.01-7.1373s-0.29178-3.8155-0.74067-5.252c-0.44889-1.616-1.0773-3.0973-1.8853-4.444 0.62845 2.2445 1.0549 4.3767 1.2793 6.3967 0.22445 2.02 0.38156 3.7931 0.47133 5.3193 0.089778 1.7956 0.04489 3.5013-0.13467 5.1173zm-38.515-2.2893c-1.0773 1.1671-1.8404 2.3791-2.2893 3.636-0.44889 1.0773-0.67333 2.2893-0.67333 3.636s0.58355 2.6933 1.7507 4.04c0-0.089778-0.089777-0.35911-0.26933-0.808-0.17956-0.44889-0.29178-1.1222-0.33667-2.02-0.044889-0.89778 0.044888-2.0424 0.26933-3.434 0.22445-1.3916 0.74066-3.0749 1.5487-5.05zm44.844 20.604c0.17956-0.35911 0.47133-0.87533 0.87533-1.5487 0.404-0.67334 0.92022-1.3916 1.5487-2.1547s1.3467-1.4364 2.1547-2.02 1.6609-0.96511 2.5587-1.1447c-0.71823 0.089778-1.3467 0.13467-1.8853 0.13467-0.44889 0.089778-0.89778 0.13467-1.3467 0.13467-0.44889 0-0.76311 0.044888-0.94267 0.13467l-2.9627 6.464zm19.392 29.627c0 0.89778 0.22444 1.6609 0.67333 2.2893 0.44889 0.53867 1.0773 0.98755 1.8853 1.3467s2.0649 0.44889 3.7707 0.26933c-0.71823 0.089778-1.4813-0.044887-2.2893-0.404-0.71823-0.17956-1.4364-0.56111-2.1547-1.1447-0.71823-0.58356-1.3467-1.3691-1.8853-2.3567zm-25.587 2.424c0.17956 0.71823 0.44889 1.3467 0.808 1.8853 0.35911 0.44889 0.87533 0.85289 1.5487 1.212s1.6384 0.49378 2.8953 0.404c-0.17956 0-0.87533-0.24689-2.0873-0.74067-1.212-0.49378-2.2669-1.414-3.1647-2.7607zm56.829-8.6187c1.616-0.44889 2.7607-1.414 3.434-2.8953s1.0773-3.1198 1.212-4.9153c0.13467-1.7956 0.089779-3.5238-0.13467-5.1847-0.22444-1.6609-0.42644-2.8953-0.606-3.7033l-2.02 3.3667c0.35911 0.44889 0.606 0.87533 0.74067 1.2793 0.13467 0.404 0.29178 0.78555 0.47133 1.1447l0.26933 1.0773c-1.0773 0.089778-2.1098 0.31422-3.0973 0.67333-0.808 0.35911-1.616 0.89777-2.424 1.616s-1.3467 1.7507-1.616 3.0973c-0.53867 1.7956-0.26934 3.1422 0.808 4.04 0.26934 0.26933 0.58355 0.42644 0.94267 0.47133s0.67333 0.067333 0.94267 0.067333c0.35911 0 0.71822-0.044888 1.0773-0.13467zm-10.504 5.9253c0.98756 1.1671 2.1995 2.1547 3.636 2.9627 1.2569 0.71823 2.7831 1.2344 4.5787 1.5487 1.7956 0.31422 3.9951 0.11223 6.5987-0.606-0.26933 0-0.89777 0.044888-1.8853 0.13467-0.98756 0.089778-2.1771 0.022446-3.5687-0.202-1.3916-0.22445-2.8953-0.606-4.5113-1.1447s-3.232-1.4364-4.848-2.6933zm243.03-3.1262c-1.0402 1.2374-2.2386 2.4591-3.5952 3.6649-1.616 1.4365-3.4564 2.7831-5.5213 4.04-2.0649 1.2569-4.3542 2.1547-6.868 2.6933l-2.9627 0.404c-1.1671 0.089778-2.424 0.089778-3.7707 0-1.616-0.089778-3.1871-0.31422-4.7133-0.67333-1.3467-0.35911-2.7382-0.85289-4.1747-1.4813-1.4365-0.62845-2.6933-1.5711-3.7707-2.828-0.089778 0-0.13467-0.044888-0.13467-0.13467-1.2325-1.4635-2.0353-3.1253-2.4086-4.9854-0.072054 0.090685-0.14452 0.18137-0.21739 0.27206-2.02 2.5138-4.3542 4.6684-7.0027 6.464-2.6485 1.7956-5.4989 2.4689-8.5513 2.02-1.8853-0.35911-3.3667-1.212-4.444-2.5587-0.98756-1.1671-1.7282-2.8504-2.222-5.05-0.49378-2.1996-0.24689-5.2744 0.74067-9.2247 0.089778-0.71823 0.26933-1.5711 0.53867-2.5587 0.17956-0.89778 0.44889-1.9751 0.808-3.232s0.808-2.7831 1.3467-4.5787c0-0.17956 0.13467-0.53866 0.404-1.0773 0.17956-0.53867 0.38156-1.2344 0.606-2.0873 0.22445-0.85289 0.35911-1.7058 0.404-2.5587s1e-6 -1.616-0.13467-2.2893c-0.13467-0.67334-0.47133-1.0549-1.01-1.1447-0.62845-0.17956-1.5711 0.33666-2.828 1.5487-1.2569 1.212-2.6035 2.8504-4.04 4.9153-1.4365 2.0649-2.8504 4.4889-4.242 7.272-1.3916 2.7831-2.5362 5.656-3.434 8.6187-0.35911 0.98756-0.65089 2.02-0.87533 3.0973-0.22444 1.0773-0.47133 2.1547-0.74067 3.232-0.35911 1.3467-0.44889 2.4689-0.26933 3.3667 0.17956 0.89778 0.42644 1.616 0.74067 2.1547 0.31422 0.53867 0.67333 0.94267 1.0773 1.212 0.404 0.26933 0.65089 0.404 0.74067 0.404-0.71823 0.44889-1.5262 0.78555-2.424 1.01-0.89778 0.22445-1.7507 0.42644-2.5587 0.606-0.35911 0.089778-0.76311 0.13467-1.212 0.13467-2.0649 0.17956-3.636-0.089774-4.7133-0.808s-1.8404-1.6384-2.2893-2.7607c-0.44889-1.1222-0.69578-2.2669-0.74067-3.434-0.024485-0.63662-0.028937-1.2065-0.013355-1.7095-1.8187 2.0967-3.8566 3.9234-6.114 5.4802-2.6036 1.7956-5.4315 2.4689-8.484 2.02-0.89778-0.17956-1.7956-0.53866-2.6933-1.0773-0.71822-0.44889-1.4589-1.1447-2.222-2.0873-0.76312-0.94267-1.3242-2.1771-1.6833-3.7033-1.2569 2.0649-3.0075 3.838-5.252 5.3193-2.2445 1.4813-5.0724 2.0873-8.484 1.818-2.2445-0.17956-4.0849-0.65088-5.5213-1.414-1.4365-0.76311-2.5811-1.7058-3.434-2.828-0.85289-1.1222-1.4589-2.4015-1.818-3.838-0.10453-0.41812-0.19765-0.83624-0.27936-1.2544-0.1519 0.19368-0.30567 0.38735-0.4613 0.58103-2.02 2.5138-4.3542 4.6684-7.0027 6.464-2.6485 1.7956-5.4989 2.4689-8.5513 2.02-1.8853-0.35911-3.3667-1.212-4.444-2.5587-0.98756-1.1671-1.7282-2.8504-2.222-5.05-0.49378-2.1996-0.24689-5.2744 0.74067-9.2247 0.17956-0.98756 0.44889-2.2444 0.808-3.7707l1.3467-4.7133c0.53867-1.8853 1.2569-4.1298 2.1547-6.7333-0.98756-0.26933-1.9302-0.67333-2.828-1.212-0.98756 1.9751-1.9078 3.6809-2.7607 5.1173-0.85289 1.4365-1.5038 2.5138-1.9527 3.232-0.50129 0.8869-1.015 1.6827-1.5411 2.3874-0.18742 0.40765-0.39193 0.82384-0.61353 1.2486-0.53867 0.98756-1.5038 2.7382-2.8953 5.252-1.3916 2.5138-3.0973 5.0275-5.1173 7.5413s-4.3542 4.6684-7.0027 6.464c-2.6485 1.7956-5.4989 2.4689-8.5513 2.02-1.0773-0.17956-2.1098-0.62844-3.0973-1.3467-0.808-0.62845-1.5711-1.4813-2.2893-2.5587-0.71823-1.0773-1.1671-2.6035-1.3467-4.5787-1.5262 2.2445-3.1871 4.1522-4.9827 5.7233-1.7956 1.5711-3.8604 2.4913-6.1947 2.7607h-1.212c-3.5014-0.17956-6.0151-0.94266-7.5413-2.2893s-2.5138-2.828-2.9627-4.444c-0.44889-1.616-0.58356-2.8729-0.404-3.7707 0-1.0773 0.067332-2.1771 0.202-3.2993 0.13467-1.1222 0.29178-1.9976 0.47133-2.626 0.71823-3.6809 1.5711-7.272 2.5587-10.773 0.98756-3.5014 2.02-6.9129 3.0973-10.235l2.1547-6.1947 0.13467-0.13467c0.26934-0.089778 0.83044-0.24689 1.6833-0.47133s1.8853-0.35911 3.0973-0.404 2.5587 0.022444 4.04 0.202 3.03 0.67333 4.646 1.4813c-0.17956 0.53867-0.404 1.1671-0.67333 1.8853-0.17956 0.62845-0.42644 1.3242-0.74067 2.0873s-0.65089 1.6384-1.01 2.626l-1.7507 4.5787c-0.71822 1.9751-1.3916 3.9278-2.02 5.858-0.62845 1.9302-1.2569 3.9278-1.8853 5.9927-0.808 2.6036-1.2344 4.6011-1.2793 5.9927s0.11222 2.4464 0.47133 3.1647c0.35911 0.808 0.89777 1.2569 1.616 1.3467 1.1671 0.089778 2.424-0.67333 3.7707-2.2893 1.3467-1.616 2.6035-3.5687 3.7707-5.858s2.2444-4.6235 3.232-7.0027c0.98756-2.3791 1.7507-4.2869 2.2893-5.7233 0.089778-0.35911 0.17956-0.69578 0.26933-1.01s0.22444-0.69578 0.404-1.1447c0.53867-1.616 1.1671-3.3667 1.8853-5.252 0.71823-1.8853 1.5262-3.8604 2.424-5.9253 1.3467-0.44889 2.7831-0.76311 4.3093-0.94267 1.2569-0.17956 2.7158-0.15711 4.3767 0.067333 1.6609 0.22445 3.3891 0.74066 5.1847 1.5487-2.2445 5.0276-4.1747 9.6062-5.7907 13.736-0.71822 1.7956-1.3691 3.5462-1.9527 5.252-0.58356 1.7058-1.0549 3.2544-1.414 4.646s-0.58356 2.5811-0.67333 3.5687c-0.089778 0.98756 0.089776 1.616 0.53867 1.8853 0.17956 0.26933 0.404 0.404 0.67333 0.404 0.17956 0 0.44889-0.089777 0.808-0.26933s0.808-0.58355 1.3467-1.212 1.1671-1.4813 1.8853-2.5587c0.71823-1.0773 1.4813-2.2444 2.2893-3.5013s1.5936-2.5138 2.3567-3.7707c0.65587-1.0803 1.2951-2.061 1.9179-2.9423 0.14105-0.2709 0.28732-0.54702 0.43881-0.82835 0.62845-1.1671 1.2344-2.3567 1.818-3.5687s1.1671-2.4015 1.7507-3.5687c0.58356-1.1671 1.0549-2.1547 1.414-2.9627-0.89778-1.4365-1.4364-3.03-1.616-4.7807-0.17956-1.7507-0.044891-3.3891 0.404-4.9153 0.44889-1.5262 1.212-2.828 2.2893-3.9053 1.0773-1.0773 2.424-1.616 4.04-1.616 1.8853 0 3.1422 0.80799 3.7707 2.424 0.62845 1.616 0.98756 3.3218 1.0773 5.1173 0 0.808-0.022444 1.5936-0.067333 2.3567-0.044889 0.76312-0.067334 1.3691-0.067334 1.818-0.089778 0.17956-0.11222 0.49378-0.067333 0.94267s0.15711 0.76311 0.33667 0.94267c0.35911 0.17956 0.67333 0.26933 0.94267 0.26933 0.35911-0.089778 0.69578-0.29178 1.01-0.606 0.31422-0.31422 0.56111-0.65089 0.74067-1.01l0.67333-0.67333c0.35911-0.35911 0.98755-0.49378 1.8853-0.404 0.808 0.089778 1.7955 0.24689 2.9627 0.47133s2.2444 0.56111 3.232 1.01c0.98756 0.44889 1.7956 1.0998 2.424 1.9527 0.62845 0.85289 0.808 1.9078 0.53867 3.1647l-4.04 10.1-0.53867 1.212c0 0.35911-0.089777 0.71822-0.26933 1.0773-0.808 2.424-1.3916 4.5562-1.7507 6.3967-0.35911 1.8405-0.26934 2.9851 0.26933 3.434 0.089778 0.26933 0.31422 0.404 0.67333 0.404 0.26934 0 0.58355-0.089777 0.94267-0.26933s0.808-0.58355 1.3467-1.212c0.53867-0.62845 1.1671-1.4813 1.8853-2.5587 0.71822-1.0773 1.4589-2.2444 2.222-3.5013s1.5487-2.5138 2.3567-3.7707c0.808-1.2569 1.5262-2.3791 2.1547-3.3667 0.17402-0.34805 0.36913-0.65392 0.58531-0.91764 0.79786-1.6979 1.6576-3.21 2.5794-4.5364 1.8405-2.6485 3.8155-4.7582 5.9253-6.3293 2.1098-1.5711 4.2869-2.6484 6.5313-3.232 2.2445-0.58356 4.3991-0.87533 6.464-0.87533 2.3342 0 4.1073 0.29177 5.3193 0.87533 1.212 0.58356 2.1322 1.2344 2.7607 1.9527l1.0773-2.424c1.2569-0.44889 2.6484-0.76311 4.1747-0.94267 1.2569-0.17956 2.7158-0.15711 4.3767 0.067333 1.6609 0.22445 3.3891 0.74066 5.1847 1.5487-2.2445 5.0276-4.1747 9.6062-5.7907 13.736-0.71823 1.7956-1.3691 3.5462-1.9527 5.252-0.58356 1.7058-1.0549 3.2544-1.414 4.646s-0.56111 2.5811-0.606 3.5687 0.11222 1.616 0.47133 1.8853c0.089778 0.26933 0.31422 0.404 0.67333 0.404 0.26934 0 0.58355-0.089777 0.94267-0.26933s0.808-0.58355 1.3467-1.212c0.53867-0.62845 1.1671-1.4813 1.8853-2.5587 0.71822-1.0773 1.4589-2.2444 2.222-3.5013s1.5487-2.5138 2.3567-3.7707c0.808-1.2569 1.5262-2.3791 2.1547-3.3667 0.04741-0.094819 0.096384-0.18651 0.14692-0.27507 0.88124-3.0821 1.8198-6.0877 2.8157-9.0169l2.1547-6.1947 0.13467-0.13467c0.26934-0.089778 0.808-0.24689 1.616-0.47133s1.818-0.35911 3.03-0.404 2.5587 0.022444 4.04 0.202 3.03 0.67333 4.646 1.4813c-0.089778 0.44889-0.22444 0.89778-0.404 1.3467-0.26934 0.808-0.67333 1.8853-1.212 3.232 1.5262-1.5262 3.1871-2.828 4.9827-3.9053 1.7956-1.0773 3.636-1.6609 5.5213-1.7507 0.62845 0 1.3916 0.089777 2.2893 0.26933 3.6809 0.53867 6.1049 2.3791 7.272 5.5213 1.1671 3.1422 0.89779 7.272-0.808 12.389-1.0773 2.8729-1.9078 5.4764-2.4913 7.8107s-0.51623 3.7258 0.202 4.1747c0.089778 0.26933 0.31422 0.404 0.67333 0.404 0.26934 0 0.58355-0.089777 0.94267-0.26933s0.808-0.58355 1.3467-1.212c0.53867-0.62845 1.1671-1.4813 1.8853-2.5587 0.71823-1.0773 1.4589-2.2444 2.222-3.5013s1.5487-2.5138 2.3567-3.7707c0.808-1.2569 1.5262-2.3791 2.1547-3.3667 0.059405-0.11881 0.12126-0.2327 0.18558-0.34168 0.87161-1.9337 1.8197-3.6378 2.8444-5.1123 1.8405-2.6485 3.8155-4.7582 5.9253-6.3293 2.1098-1.5711 4.2869-2.6484 6.5313-3.232 2.2445-0.58356 4.3991-0.87533 6.464-0.87533 1.2569 0 2.424 0.13467 3.5013 0.404 0.808 0.17956 1.8853 0.71822 3.232 1.616 1.3467 0.89778 2.3791 2.3791 3.0973 4.444 0 0.089778 0.089777 0.404 0.26933 0.94267v0.13467c0.17956 0.62845 0.29178 1.2344 0.33667 1.818 0.044889 0.58356 0.11222 1.0998 0.202 1.5487 0 0.17956-0.022445 0.47133-0.067334 0.87533-0.044889 0.404-0.202 0.83044-0.47133 1.2793-0.98756 1.1671-1.9976 1.9527-3.03 2.3567-1.0324 0.404-1.9078 0.69578-2.626 0.87533-0.089778 0-0.15711 0.022444-0.202 0.067333s-0.11222 0.067333-0.202 0.067333c-0.44889 0-0.71822-0.089777-0.808-0.26933s-0.13467-0.35911-0.13467-0.53867c0.35911-1.4365 0.51622-2.828 0.47133-4.1747s-0.47133-2.2444-1.2793-2.6933c-0.89778-0.44889-1.9527-0.44889-3.1647 0-1.212 0.44889-2.424 1.2793-3.636 2.4913-1.212 1.212-2.424 2.8055-3.636 4.7807s-2.2669 4.2195-3.1647 6.7333c-0.26934 0.808-0.53866 1.6609-0.808 2.5587-0.17956 0.71823-0.33667 1.5262-0.47133 2.424-0.13467 0.89778-0.15711 1.7507-0.067334 2.5587 0 0.44889 0.26933 1.212 0.808 2.2893 0.35911 0.71823 0.85289 1.2569 1.4813 1.616 0.17956 0.17956 0.35911 0.31422 0.53867 0.404l0.53867 0.26933 0.67333 0.26933c1.4365 0.44889 2.828 0.58356 4.1747 0.404s2.6484-0.53866 3.9053-1.0773l2.6933-1.212c1.2569-0.808 2.4016-1.7955 3.434-2.9627 1.0324-1.1671 1.9527-2.2444 2.7607-3.232l1.4813-2.02c0.98756-1.5262 2.02-3.1198 3.0973-4.7807s2.02-3.1198 2.828-4.3767c0.24639-0.49278 0.53504-0.90103 0.86595-1.2248 0.75649-1.5736 1.5676-2.9834 2.4334-4.2292 1.8405-2.6485 3.8155-4.7582 5.9253-6.3293 2.1098-1.5711 4.2869-2.6484 6.5313-3.232 2.2445-0.58356 4.3991-0.87533 6.464-0.87533 1.3467 0 2.5138 0.13467 3.5013 0.404 0.89778 0.17956 1.9975 0.71822 3.2993 1.616 1.3018 0.89778 2.3118 2.3791 3.03 4.444l0.13467 0.13467c0 0.17956 0.067333 0.51622 0.202 1.01 0.13467 0.49378 0.24689 1.1896 0.33667 2.0873 0.089778 0.44889 0.13467 1.1671 0.13467 2.1547 0 1.1671-0.22444 2.5138-0.67333 4.04l-0.13467 0.26933v0.26933c-0.17956 0.53867-0.35911 0.94267-0.53867 1.212v0.13467c-0.35911 0.808-0.87533 1.7731-1.5487 2.8953-0.67334 1.1222-1.5487 2.1996-2.626 3.232-1.0773 1.0324-2.3791 1.9078-3.9053 2.626s-3.3218 1.1222-5.3867 1.212c-1.2569 0.089778-2.2669 0.022446-3.03-0.202-0.76312-0.22445-1.2344-0.33667-1.414-0.33667-1.2569-0.44889-2.424-1.0773-3.5013-1.8853-0.17956 0.71823-0.33667 1.5262-0.47133 2.424-0.13467 0.89778-0.11222 1.7507 0.067333 2.5587 0 0.17956 0.044888 0.47133 0.13467 0.87533 0.089778 0.404 0.26933 0.87533 0.53867 1.414 0.17956 0.26933 0.404 0.56111 0.67333 0.87533 0.26933 0.31422 0.58355 0.56111 0.94267 0.74067 0.26934 0.35911 0.62844 0.58356 1.0773 0.67333l0.53867 0.26933c1.4365 0.44889 2.8504 0.58356 4.242 0.404 1.3916-0.17956 2.7158-0.53866 3.9727-1.0773l2.5587-1.212c1.2569-0.808 2.424-1.7955 3.5013-2.9627s2.02-2.2444 2.828-3.232l1.4813-2.02c0.98756-1.5262 1.9976-3.1198 3.03-4.7807 1.0324-1.6609 1.9976-3.1198 2.8953-4.3767 0.44889-0.71823 0.89778-1.2569 1.3467-1.616s0.96511-0.62844 1.5487-0.808c0.58356-0.17956 1.2793-0.08978 2.0873 0.26933 1.3467 0.62845 1.8853 1.7731 1.616 3.434-0.26933 1.6609-0.98755 3.5238-2.1547 5.5887-0.35911 0.62845-0.89778 1.5935-1.616 2.8953-0.71823 1.3018-1.5711 2.8055-2.5587 4.5113-0.71823 0.98756-1.6384 2.222-2.7607 3.7033-1.1222 1.4813-2.4913 2.9402-4.1073 4.3767-1.616 1.4365-3.4564 2.7831-5.5213 4.04-2.0649 1.2569-4.3542 2.1547-6.868 2.6933l-2.9627 0.404c-1.2569 0.17956-2.5587 0.17956-3.9053 0-1.616-0.089778-3.1871-0.31422-4.7133-0.67333-1.3467-0.35911-2.7382-0.85289-4.1747-1.4813-1.4365-0.62845-2.6933-1.5711-3.7707-2.828l-0.13467-0.13467c-1.3849-1.6446-2.2065-3.5396-2.4648-5.6849zm-226.06-36.466c0.808 0 1.6609 0.089777 2.5587 0.26933 0.71822 0.17956 1.4589 0.42644 2.222 0.74067s1.414 0.74066 1.9527 1.2793c-0.17956-0.17956-0.89777-0.49378-2.1547-0.94267-1.2569-0.44889-2.7831-0.89778-4.5787-1.3467zm23.432 43.632c1.7956 0.26933 3.4564 0.13467 4.9827-0.404 1.5262-0.53867 2.3791-0.85289 2.5587-0.94267-0.17956 0-0.69577 0.089777-1.5487 0.26933-0.85289 0.17956-1.8853 0.26933-3.0973 0.26933s-2.5362-0.202-3.9727-0.606c-1.4365-0.404-2.828-1.1447-4.1747-2.222 0.35911 0.62845 0.76311 1.1671 1.212 1.616 0.44889 0.44889 0.98755 0.85289 1.616 1.212s1.4364 0.62844 2.424 0.808zm-1.0773-33.397c0.17956-0.35911 0.47133-0.87533 0.87533-1.5487s0.92022-1.3916 1.5487-2.1547c0.62845-0.76311 1.3467-1.4364 2.1547-2.02s1.6609-0.96511 2.5587-1.1447c-0.62845 0.089778-1.212 0.13467-1.7507 0.13467-0.44889 0.089778-0.92022 0.13467-1.414 0.13467-0.49378 0-0.83044 0.044888-1.01 0.13467l-2.9627 6.464zm19.392 29.627c0 0.89778 0.22444 1.6609 0.67333 2.2893 0.44889 0.53867 1.0773 0.98755 1.8853 1.3467s2.0649 0.44889 3.7707 0.26933c-0.71823 0.089778-1.4813-0.044887-2.2893-0.404-0.71823-0.17956-1.4364-0.56111-2.1547-1.1447-0.71823-0.58356-1.3467-1.3691-1.8853-2.3567zm28.28-34.609c-0.17956-0.98756-0.31422-1.9751-0.404-2.9627-0.089779-0.89778-0.11222-1.9078-0.067334-3.03s0.24689-2.3118 0.606-3.5687c-0.26933 0.35911-0.49378 0.76311-0.67333 1.212-0.17956 0.44889-0.33667 0.96511-0.47133 1.5487-0.13467 0.58356-0.202 1.2344-0.202 1.9527-0.089779 0.808-0.04489 1.6609 0.13467 2.5587 0.17956 0.89778 0.53866 1.6609 1.0773 2.2893zm6.868 34.609c0 0.89778 0.22444 1.6609 0.67333 2.2893 0.44889 0.53867 1.0773 0.98755 1.8853 1.3467s2.0649 0.44889 3.7707 0.26933c-0.71823 0.089778-1.4813-0.044887-2.2893-0.404-0.71823-0.17956-1.4364-0.56111-2.1547-1.1447-0.71823-0.58356-1.3467-1.3691-1.8853-2.3567zm13.871-31.781c-0.44889-0.71823-1.01-1.2569-1.6833-1.616s-1.3691-0.58356-2.0873-0.67333c-0.808-0.089778-1.616-0.089778-2.424 0 1.0773 0.26933 1.9976 0.53867 2.7607 0.808 0.76312 0.26933 1.414 0.49378 1.9527 0.67333 0.53867 0.26933 1.0324 0.53867 1.4813 0.808zm32.589 11.581c0.26933-0.808 0.49378-1.6833 0.67333-2.626s0.29178-1.8629 0.33667-2.7607c0.044889-0.89778-0.022444-1.6609-0.202-2.2893-0.17956-0.62845-0.53866-1.0773-1.0773-1.3467-0.98756-0.44889-2.0649-0.44889-3.232 0-1.1671 0.44889-2.3791 1.2793-3.636 2.4913-1.2569 1.212-2.4913 2.8055-3.7033 4.7807s-2.2669 4.2195-3.1647 6.7333c-0.62845 1.8853-1.0324 3.5911-1.212 5.1173-0.17956 1.2569-0.11222 2.4689 0.202 3.636 0.31422 1.1671 1.0998 1.8404 2.3567 2.02 0.808 0.17956 1.6833 0.13467 2.626-0.13467 0.94267-0.26933 1.9302-0.87533 2.9627-1.818 1.0324-0.94267 2.0873-2.2893 3.1647-4.04 1.0773-1.7507 2.1098-4.0624 3.0973-6.9353v-0.13467c0-0.17956 0.044888-0.31422 0.13467-0.404l0.67333-2.2893zm-22.085-0.53867c1.0773-2.1547 2.2444-3.9951 3.5013-5.5213 1.2569-1.5262 2.4913-2.828 3.7033-3.9053 1.212-1.0773 2.2444-1.8853 3.0973-2.424 0.85289-0.53867 1.414-0.85289 1.6833-0.94267-2.2445 0.62845-4.1073 1.6384-5.5887 3.03s-2.7158 2.8055-3.7033 4.242c-1.0773 1.7058-1.9751 3.5462-2.6933 5.5213zm-2.2893 18.719c0.089778 0.98756 0.404 1.8853 0.94267 2.6933 0.44889 0.71823 1.1671 1.3691 2.1547 1.9527 0.98756 0.58356 2.3791 0.96511 4.1747 1.1447-0.089778 0-0.42644-0.13467-1.01-0.404-0.58356-0.26933-1.2344-0.65089-1.9527-1.1447-0.71822-0.49378-1.4813-1.0773-2.2893-1.7507s-1.4813-1.5038-2.02-2.4913zm25.183 2.02c0 0.89778 0.22444 1.6609 0.67333 2.2893 0.44889 0.53867 1.0998 0.98755 1.9527 1.3467s2.0873 0.44889 3.7033 0.26933c-0.71823 0.089778-1.4813-0.044887-2.2893-0.404-0.71823-0.17956-1.4364-0.56111-2.1547-1.1447-0.71823-0.58356-1.3467-1.3691-1.8853-2.3567zm26.125-29.627c0.17956-0.35911 0.47133-0.87533 0.87533-1.5487s0.92022-1.3916 1.5487-2.1547 1.3467-1.4364 2.1547-2.02 1.6609-0.96511 2.5587-1.1447c-0.71822 0.089778-1.3467 0.13467-1.8853 0.13467-0.44889 0.089778-0.89778 0.13467-1.3467 0.13467s-0.76311 0.044888-0.94267 0.13467l-2.9627 6.464zm19.392 29.627c0 0.89778 0.22444 1.6609 0.67333 2.2893 0.44889 0.53867 1.0773 0.98755 1.8853 1.3467s2.0649 0.44889 3.7707 0.26933c-0.71822 0.089778-1.4813-0.044887-2.2893-0.404-0.71823-0.17956-1.4364-0.56111-2.1547-1.1447-0.71822-0.58356-1.3467-1.3691-1.8853-2.3567zm-25.587 2.424c0.17956 0.71823 0.44889 1.3467 0.808 1.8853 0.35911 0.44889 0.87533 0.85289 1.5487 1.212s1.6384 0.49378 2.8953 0.404c-0.17956 0-0.87533-0.24689-2.0873-0.74067-1.212-0.49378-2.2669-1.414-3.1647-2.7607zm51.443-0.13467c1.1671 0.98756 2.5587 1.7507 4.1747 2.2893 1.3467 0.44889 3.0075 0.71822 4.9827 0.808 1.9751 0.089778 4.2644-0.35911 6.868-1.3467-1.7956 0.35911-3.5911 0.53867-5.3867 0.53867-1.5262 0-3.2544-0.13467-5.1847-0.404-1.9302-0.26933-3.7482-0.89777-5.454-1.8853zm9.8307-36.495c-1.7956 0.44889-3.2993 1.1447-4.5113 2.0873s-2.1771 1.9078-2.8953 2.8953c-0.89778 1.0773-1.616 2.2893-2.1547 3.636 0.71823-0.98756 1.616-1.9976 2.6933-3.03 1.0773-1.0324 2.1098-1.9527 3.0973-2.7607 1.1671-0.98756 2.424-1.9302 3.7707-2.828zm48.345 4.9827c-1.7956-0.89778-3.9502-0.2469-6.464 1.9527s-4.6684 5.5438-6.464 10.033c0.44889 0.35911 1.3467 0.74066 2.6933 1.1447 1.3467 0.404 3.1422 0.24689 5.3867-0.47133 1.3467-0.53867 2.424-1.2344 3.232-2.0873 0.808-0.85289 1.414-1.7731 1.818-2.7607s0.67333-1.9527 0.808-2.8953c0.13467-0.94267 0.202-1.6833 0.202-2.222-0.17956-1.4365-0.58355-2.3342-1.212-2.6933zm-19.392 31.512c1.1671 0.98756 2.5587 1.7507 4.1747 2.2893 1.3467 0.44889 3.0075 0.71822 4.9827 0.808 1.9751 0.089778 4.2644-0.35911 6.868-1.3467-1.7956 0.35911-3.5911 0.53867-5.3867 0.53867-1.5262 0-3.2544-0.13467-5.1847-0.404-1.9302-0.26933-3.7482-0.89777-5.454-1.8853zm9.8307-36.495c-1.7956 0.44889-3.2993 1.1447-4.5113 2.0873s-2.1771 1.9078-2.8953 2.8953c-0.89778 1.0773-1.616 2.2893-2.1547 3.636 0.71823-0.98756 1.616-1.9976 2.6933-3.03 1.0773-1.0324 2.1098-1.9527 3.0973-2.7607 1.1671-0.98756 2.424-1.9302 3.7707-2.828zm1.4813 19.527c0.808 0.17956 1.616 0.22444 2.424 0.13467 0.71823-0.089778 1.4364-0.29178 2.1547-0.606 0.71822-0.31422 1.3916-0.87533 2.02-1.6833-0.53867 0.44889-1.1671 0.85289-1.8853 1.212-0.62845 0.26933-1.3467 0.51622-2.1547 0.74067-0.808 0.22445-1.6609 0.29178-2.5587 0.202z" fill="#46737A"/>
</g>
</g>
</svg>
