<svg xmlns="http://www.w3.org/2000/svg" width="156" height="60" viewBox="0 0 156 60">
    <g fill="none" fill-rule="evenodd">
        <path fill="#FFF" d="M120.785 12.212c3.557-1.769 11.215-1.08 11.215-1.08L123.841 22H111s6.228-8.019 9.785-9.788"/>
        <path fill="#6D6E71" d="M113.232 20.383h9.598l6.367-8.756c-2.629-.056-6.305.109-8.255 1.111-2.074 1.065-5.471 4.897-7.71 7.645zM124.075 23H108l1.593-2.117c.262-.348 6.463-8.553 10.242-10.494 3.836-1.97 11.579-1.277 11.906-1.247l2.259.21L124.075 23z"/>
        <path fill="#FFF" d="M87.944 8.133c.392-1.395-1.21-3.185-6.593-4.713-4.747-1.347-11.81.828-15.49 2.522C62.082 7.682 43.041 17.778 43 19.148c-.043 1.368 5.093 3.048 9.844 4.379 4.751 1.33 8.612 1.85 10.594 1.182 1.982-.67 24.112-15.181 24.505-16.576"/>
        <path fill="#6D6E71" d="M85.543 7.16v.001M43.768 18.848c.751.517 2.823 1.53 8.528 3.18 4.618 1.336 8.179 1.783 9.769 1.228 1.781-.662 21.332-13.882 23.477-16.219-.094-.476-1.121-1.808-5.686-3.146-4.51-1.322-11.452 1.066-14.492 2.512-4.124 1.961-18.582 9.993-21.596 12.445M60.243 26c-2.151 0-5.03-.519-8.605-1.553C42.63 21.842 40.95 20.427 41 18.723c.027-.877.049-1.634 10.555-7.666C56.66 8.127 62.39 5.05 64.341 4.12c3.57-1.699 10.996-4.166 16.182-2.646 6.966 2.042 7.851 4.589 7.367 6.365-.146.54-.391 1.441-12.036 9.456-4.502 3.1-11.682 7.879-13.006 8.34-.697.243-1.566.364-2.605.364"/>
        <path fill="#8DE2D2" d="M81 4.327s-2.703-.575-5.187-.2c-2.486.375-6.024 1.562-8.846 2.647C62.727 8.402 56 11.643 56 11.643s.034.226 1.038.686c1.004.46 1.625.671 1.625.671s7.424-4.356 10.02-5.47C75.493 4.607 81 4.327 81 4.327"/>
        <path fill="#FFF" d="M154 1s-7.63 21.473-15.68 28.339c-8.052 6.867-28.8 10.573-62.957 10.573C34.293 39.912 1 41.765 1 28.468c0-9.156 13.381-6.322 19.81-11.992C28.54 9.66 36.76 5.671 56.412 7.104c18.035 1.314 53.681 9.076 66.604 8.829C128.926 15.819 136.249 1 136.249 1H154z"/>
        <path fill="#6D6E71" d="M49.225 8.208c-13.807 0-20.755 3.48-27.37 9.244-2.803 2.443-6.608 3.365-10.287 4.258-5.643 1.37-9.103 2.424-9.103 6.663 0 1.548.552 2.848 1.687 3.978 6.446 6.408 30.313 6.286 57.948 6.145 4.379-.023 8.892-.045 13.503-.045 33.253 0 54.17-3.418 62.167-10.158 6.429-5.417 12.733-20.758 14.695-25.83h-15.217c-1.675 3.205-8.067 14.643-13.965 14.755-7.171.136-20.769-2.053-35.166-4.37-11.516-1.854-23.425-3.77-31.556-4.356-2.646-.191-5.083-.284-7.336-.284M50.19 41c-23.595 0-41.606-.77-47.776-6.903C.813 32.505 0 30.58 0 28.373c0-6.39 5.586-7.746 10.986-9.056 3.392-.823 6.9-1.674 9.249-3.72C28.42 8.465 37.016 4.615 56.738 6.035c8.238.593 20.202 2.52 31.771 4.382 13.657 2.198 27.778 4.47 34.728 4.338 3.761-.07 9.452-8.67 12.156-14.074l.34-.681H156l-.593 1.65c-.317.877-7.837 21.607-16.048 28.526-8.455 7.124-29.905 10.738-63.756 10.738-4.607 0-9.116.022-13.49.045-4.104.021-8.088.041-11.924.041"/>
        <path fill="#8DE2D2" d="M24.68 15.843c-1.906 1.473-1.873 1.69-3.488 2.932S16 21.343 16 21.343s6.247 1.815 12.25 2.438c5.288.548 10.366-.043 11.074-.571 1.176-.876 1.014-5.7-2.07-6.928-3.15-1.256-10.668-1.91-12.574-.439M116.625 35.026c-4.317.606-14.152 2.466-43.69 2.917-17.377.266-32.73-.481-45.207-.481-10.468 0-15.127-1.849-18.235-3.054-6.738-2.612-5.381-3.106-5.381-3.106s10.604 3.721 21.362 4.392c6.78.423 49.436.9 79.667-1.205C122.888 33.253 136 29 136 29s-8.297 4.47-19.375 6.026"/>
        <path fill="#FFF" d="M139 40.47c0 .804-1.207 1.52-4.541 1.53-2.939.01-6.64-2.207-8.476-3.664-1.886-1.494-11.176-9.733-10.98-10.47.197-.738 3.413-.866 6.352-.866 2.94 0 5.238.299 6.266.953C128.65 28.608 139 39.666 139 40.47"/>
        <path fill="#6D6E71" d="M116.324 28.517c2.318 2.156 8.126 6.779 9.895 8.028 2.12 1.498 5.549 3.11 7.903 3.1 1.71-.005 2.618-.18 3.077-.324-1.975-2.28-9.69-9.623-10.704-10.276-.273-.154-1.544-.69-5.739-.69-2.25 0-3.61.076-4.432.162M134.107 42c-3.413 0-7.494-2.24-9.37-3.566-1.012-.715-3.917-2.974-6.47-5.075-5.533-4.553-5.416-4.941-5.186-5.715.383-1.275 2.104-1.644 7.675-1.644 3.454 0 5.82.347 7.03 1.034.122.07 12.214 10.612 12.214 12.396 0 1.695-1.975 2.56-5.87 2.57h-.023"/>
        <path fill="#8DE2D2" d="M54.5 27c-2.475 0-4.5-1.897-4.5-4.217v-2.566C50 17.898 52.025 16 54.5 16s4.5 1.898 4.5 4.217v2.566C59 25.103 56.975 27 54.5 27M68 28c-1.65 0-3-1.322-3-2.937v-3.126C65 20.322 66.35 19 68 19s3 1.322 3 2.937v3.126C71 26.678 69.65 28 68 28M79.5 27c-1.375 0-2.5-1.175-2.5-2.61v-2.778C77 20.175 78.125 19 79.5 19s2.5 1.175 2.5 2.612v2.777C82 25.825 80.875 27 79.5 27M90 27c-1.1 0-2-1.028-2-2.285v-2.43c0-1.256.9-2.285 2-2.285s2 1.029 2 2.285v2.43C92 25.972 91.1 27 90 27M100 28c-1.1 0-2-1.028-2-2.285v-2.43c0-1.256.9-2.285 2-2.285s2 1.029 2 2.285v2.43c0 1.257-.9 2.285-2 2.285M111 28c-1.1 0-2-1.028-2-2.285v-2.43c0-1.256.9-2.285 2-2.285s2 1.029 2 2.285v2.43c0 1.257-.9 2.285-2 2.285"/>
        <path fill="#FFF" d="M89 54.837c0 1.661-2.313 3.141-8.703 3.163-5.633.02-12.726-4.563-16.247-7.572-3.613-3.088-21.42-20.115-21.044-21.638.377-1.523 6.541-1.79 12.174-1.79 5.633 0 10.039.619 12.01 1.97C69.162 30.322 89 53.176 89 54.837"/>
        <path fill="#6D6E71" d="M44.712 29.357c2.259 3.354 16.476 17.2 20.622 20.763 2.99 2.57 10.088 7.417 15.63 7.403 5.788-.02 7.367-1.246 7.557-1.854-1.431-2.955-19.77-24.192-21.503-25.406-1.647-1.135-5.821-1.786-11.452-1.786-7.488 0-10.009.534-10.854.88zM80.932 60c-6.225 0-13.732-5.022-17.193-7.995-1.904-1.637-7.394-6.83-12.224-11.662-9.874-9.88-9.661-10.746-9.456-11.582.43-1.748 2.778-2.761 13.507-2.761 6.384 0 10.705.748 12.841 2.22 1.33.918 7.915 8.427 12.016 13.25C91 53.91 91 54.975 91 55.546c0 2.017-1.74 4.425-10.028 4.455h-.04z"/>
        <path fill="#8DE2D2" d="M81 58s-4.791-.537-8.6-2.684c-3.81-2.148-8.806-6.399-12.7-10.042C53.854 39.8 45 29.916 45 29.916s.205-.393 2.146-.643c1.94-.25 3.093-.273 3.093-.273S59.496 41.334 63 44.898C72.193 54.25 81 58 81 58"/>
    </g>
</svg>
