<svg width="130" height="130" viewBox="0 0 130 130" fill="none" xmlns="http://www.w3.org/2000/svg">
<g filter="url(#filter0_d)">
<circle cx="65" cy="59" r="50" fill="white"/>
</g>
<path d="M57 65L62.7273 71L73 61" stroke="#00D7AF" stroke-width="2" stroke-linecap="round" stroke-linejoin="round"/>
<path d="M88.5384 62.2302C88.5384 62.2302 88.9939 58.8195 88.2384 52.9757C87.7107 48.8872 86.6664 47.8151 86.0387 46.943C86.0387 46.943 86.572 45.9653 86.3164 43.099C85.9109 38.4606 83.7001 34 83.7001 34C81.4336 35.7942 78.5562 37.433 75.6121 38.4884C72.7568 37.1941 67.8518 36.9552 64.5133 36.9552C60.5193 36.9552 56.7697 37.9884 53.509 39.8049C49.7816 41.8769 46.6097 44.6599 44.56 48.404C42.7879 51.6314 41.1881 58.6861 42.1769 62.769" stroke="#6480EB" stroke-width="2" stroke-miterlimit="10"/>
<path d="M90 65.5966C90 67.402 88.5391 68.8629 86.7337 68.8629C85.6338 68.8629 85.1783 68.8129 85.1783 68.8129C85.1783 68.8129 85.0006 69.2795 84.695 70.135C81.8898 78.0841 74.3073 83.7779 65.3916 83.7779C56.5315 83.7779 48.9823 78.1452 46.1382 70.2628C45.9049 69.6184 45.6327 68.7796 45.6327 68.7796C45.6327 68.7796 44.3495 68.8574 43.2663 68.8574C41.4609 68.8574 40 67.3964 40 65.5911C40 63.7857 41.4609 62.3248 43.2663 62.3248C44.1162 62.3248 44.9272 62.3248 44.9272 62.3248C44.9272 62.3248 44.9328 61.8526 44.9439 61.6082C44.9939 60.4139 45.1439 60.0861 45.3883 58.9529C46.3271 54.6367 49.0268 51.6926 49.0268 51.6926C49.0268 51.6926 58.5813 54.5034 65.0028 54.5423C71.0521 54.5812 80.6788 51.2316 80.6788 51.2316C80.6788 51.2316 83.634 54.1757 85.0728 58.4196C85.3005 59.0862 85.5283 59.9139 85.6671 60.6416C85.7394 61.0249 85.8449 62.3303 85.8449 62.3303C85.8449 62.3303 85.8671 62.3303 86.7281 62.3303C88.5391 62.3303 90 63.7913 90 65.5966Z" stroke="#6480EB" stroke-width="2" stroke-miterlimit="10"/>
<defs>
<filter id="filter0_d" x="0" y="0" width="130" height="130" filterUnits="userSpaceOnUse" color-interpolation-filters="sRGB">
<feFlood flood-opacity="0" result="BackgroundImageFix"/>
<feColorMatrix in="SourceAlpha" type="matrix" values="0 0 0 0 0 0 0 0 0 0 0 0 0 0 0 0 0 0 127 0"/>
<feOffset dy="6"/>
<feGaussianBlur stdDeviation="7.5"/>
<feColorMatrix type="matrix" values="0 0 0 0 0 0 0 0 0 0 0 0 0 0 0 0 0 0 0.05 0"/>
<feBlend mode="normal" in2="BackgroundImageFix" result="effect1_dropShadow"/>
<feBlend mode="normal" in="SourceGraphic" in2="effect1_dropShadow" result="shape"/>
</filter>
</defs>
</svg>
