<?xml version="1.0" encoding="iso-8859-1"?>
<!-- Generator: Adobe Illustrator 21.0.0, SVG Export Plug-In . SVG Version: 6.00 Build 0)  -->
<svg version="1.1" id="Layer_1" xmlns="http://www.w3.org/2000/svg" xmlns:xlink="http://www.w3.org/1999/xlink" x="0px" y="0px"
	 viewBox="0 0 512 512" style="enable-background:new 0 0 512 512;" xml:space="preserve">
<g>
	<g>
		<polygon style="fill:#FFFFFF;" points="512,95.23 512,149.39 0,149.39 0,95.23 53.03,95.23 256,13.1 458.97,95.23 		"/>
	</g>
</g>
<g>
	<g>
		<rect y="444.73" style="fill:#FFFFFF;" width="512" height="54.17"/>
	</g>
</g>
<g>
	<g>
		<path style="fill:#FFFFFF;" d="M480.81,221.95v-42.14H31.19v42.14H46.4v150.23H31.19v42.14h449.62v-42.14H465.6V221.95H480.81z
			 M157.27,372.18h-24.29V221.95h24.29V372.18z M268.15,372.18h-24.3V221.95h24.3V372.18z M379.02,372.18h-24.29V221.95h24.29
			V372.18z"/>
	</g>
</g>
<linearGradient id="SVGID_1_" gradientUnits="userSpaceOnUse" x1="31.19" y1="297.065" x2="480.81" y2="297.065">
	<stop  offset="0" style="stop-color:#00D7AF"/>
	<stop  offset="1" style="stop-color:#46737A"/>
</linearGradient>
<path style="fill:url(#SVGID_1_);" d="M480.81,221.95v-42.14H31.19v42.14H46.4v150.23H31.19v42.14h449.62v-42.14H465.6V221.95
	H480.81z M157.27,372.18h-24.29V221.95h24.29V372.18z M268.15,372.18h-24.3V221.95h24.3V372.18z M379.02,372.18h-24.29V221.95h24.29
	V372.18z"/>
<linearGradient id="SVGID_2_" gradientUnits="userSpaceOnUse" x1="0" y1="81.245" x2="512" y2="81.245">
	<stop  offset="0" style="stop-color:#00D7AF"/>
	<stop  offset="1" style="stop-color:#46737A"/>
</linearGradient>
<polygon style="fill:url(#SVGID_2_);" points="512,95.23 512,149.39 0,149.39 0,95.23 53.03,95.23 256,13.1 458.97,95.23 "/>
<linearGradient id="SVGID_3_" gradientUnits="userSpaceOnUse" x1="0" y1="471.815" x2="512" y2="471.815">
	<stop  offset="0" style="stop-color:#00D7AF"/>
	<stop  offset="1" style="stop-color:#46737A"/>
</linearGradient>
<rect y="444.73" style="fill:url(#SVGID_3_);" width="512" height="54.17"/>
</svg>
