<svg width="350" height="350" viewBox="0 0 350 350" fill="none" xmlns="http://www.w3.org/2000/svg">
<g filter="url(#filter0_d)">
<path d="M187.219 68.6745C182.92 68.681 178.671 69.579 174.741 71.3074V25H62.4353C41.7585 25 25 41.7585 25 62.4353V174.741H71.3074C64.3816 158.968 71.5504 140.562 87.3297 133.637C103.102 126.711 121.508 133.88 128.433 149.659C131.946 157.651 131.946 166.755 128.433 174.747H174.741V128.44C190.513 135.365 208.919 128.197 215.844 112.417C222.769 96.6382 215.601 78.239 199.822 71.3139C195.854 69.5603 191.562 68.6681 187.219 68.6745Z" fill="white"/>
</g>
<g filter="url(#filter1_d)">
<path d="M324.481 62.4353C324.481 41.7585 307.723 25 287.047 25H174.741V71.3074C190.514 64.3816 208.919 71.5504 215.844 87.3297C222.77 103.102 215.601 121.508 199.822 128.433C191.83 131.946 182.726 131.946 174.734 128.433V174.741H221.042C214.116 190.513 221.285 208.919 237.064 215.844C252.837 222.77 271.242 215.601 278.168 199.822C281.68 191.83 281.68 182.726 278.168 174.734H324.481V62.4353Z" fill="white"/>
</g>
<g filter="url(#filter2_d)">
<path d="M162.262 224.654C166.561 224.661 170.81 225.559 174.741 227.287V174.741H128.433C135.359 158.968 128.19 140.562 112.411 133.637C96.6317 126.711 78.2325 133.88 71.3074 149.659C67.7945 157.651 67.7945 166.755 71.3074 174.747H25V287.052C25 307.729 41.7585 324.488 62.4353 324.488H174.741V284.419C158.968 291.345 140.562 284.176 133.637 268.397C126.711 252.624 133.88 234.219 149.659 227.294C153.627 225.54 157.92 224.648 162.262 224.654Z" fill="white"/>
</g>
<g filter="url(#filter3_d)">
<path d="M324.213 287.024L324.12 174.434L277.791 174.563C284.806 190.323 277.712 208.786 261.954 215.795C246.196 222.804 227.731 215.715 220.722 199.958C217.153 191.932 217.122 182.776 220.646 174.728L174.323 174.858L174.361 227.547C170.431 225.82 166.181 224.932 161.883 224.938C144.604 225.159 130.782 239.345 131.003 256.623C131.222 273.602 144.944 287.311 161.93 287.5C166.23 287.487 170.488 286.573 174.417 284.824L174.44 325L286.793 324.685C307.514 324.591 324.254 307.745 324.213 287.024Z" fill="white"/>
</g>
<path d="M99.9297 47.0469C99.9297 48.9531 99.4036 50.4219 98.3516 51.4531C97.3047 52.4844 95.8307 53 93.9297 53H90.2344V41.5781H94.1875C96.0208 41.5781 97.4349 42.0469 98.4297 42.9844C99.4297 43.9219 99.9297 45.276 99.9297 47.0469ZM96.7266 47.1562C96.7266 46.1094 96.5182 45.3333 96.1016 44.8281C95.6901 44.3229 95.0625 44.0703 94.2188 44.0703H93.3203V50.4688H94.0078C94.9453 50.4688 95.6328 50.1979 96.0703 49.6562C96.5078 49.1094 96.7266 48.276 96.7266 47.1562ZM104.875 53H101.82V44.1484H104.875V53ZM101.742 41.9453C101.742 41.487 101.87 41.1458 102.125 40.9219C102.38 40.6979 102.792 40.5859 103.359 40.5859C103.927 40.5859 104.341 40.7005 104.602 40.9297C104.862 41.1589 104.992 41.4974 104.992 41.9453C104.992 42.8411 104.448 43.2891 103.359 43.2891C102.281 43.2891 101.742 42.8411 101.742 41.9453ZM112.352 43.9922C112.617 43.9922 112.87 44.013 113.109 44.0547L113.281 44.0859L113.008 46.9688C112.758 46.9062 112.411 46.875 111.969 46.875C111.302 46.875 110.818 47.0286 110.516 47.3359C110.214 47.638 110.062 48.0755 110.062 48.6484V53H107.008V44.1484H109.281L109.758 45.5625H109.906C110.161 45.0938 110.516 44.7161 110.969 44.4297C111.427 44.138 111.888 43.9922 112.352 43.9922ZM118.797 53.1562C117.323 53.1562 116.177 52.7656 115.359 51.9844C114.547 51.1979 114.141 50.0807 114.141 48.6328C114.141 47.138 114.518 45.9922 115.273 45.1953C116.029 44.3932 117.107 43.9922 118.508 43.9922C119.841 43.9922 120.87 44.3411 121.594 45.0391C122.323 45.7318 122.688 46.7318 122.688 48.0391V49.3984H117.227C117.247 49.8932 117.427 50.2812 117.766 50.5625C118.109 50.8438 118.576 50.9844 119.164 50.9844C119.701 50.9844 120.193 50.9349 120.641 50.8359C121.094 50.7318 121.583 50.5573 122.109 50.3125V52.5078C121.63 52.7526 121.135 52.9219 120.625 53.0156C120.115 53.1094 119.505 53.1562 118.797 53.1562ZM118.617 46.0703C118.258 46.0703 117.956 46.1849 117.711 46.4141C117.471 46.638 117.331 46.9922 117.289 47.4766H119.914C119.904 47.0495 119.781 46.7083 119.547 46.4531C119.318 46.1979 119.008 46.0703 118.617 46.0703ZM128.445 53.1562C126.997 53.1562 125.898 52.7656 125.148 51.9844C124.404 51.2031 124.031 50.0807 124.031 48.6172C124.031 47.1484 124.435 46.0104 125.242 45.2031C126.049 44.3958 127.198 43.9922 128.688 43.9922C129.714 43.9922 130.68 44.2161 131.586 44.6641L130.688 46.9219C130.318 46.7604 129.977 46.6328 129.664 46.5391C129.352 46.4401 129.026 46.3906 128.688 46.3906C128.193 46.3906 127.81 46.5833 127.539 46.9688C127.268 47.3542 127.133 47.8984 127.133 48.6016C127.133 50.0182 127.656 50.7266 128.703 50.7266C129.599 50.7266 130.458 50.4661 131.281 49.9453V52.375C130.495 52.8958 129.549 53.1562 128.445 53.1562ZM137.375 50.7422C137.786 50.7422 138.279 50.6406 138.852 50.4375V52.6641C138.44 52.8411 138.047 52.9661 137.672 53.0391C137.302 53.1172 136.867 53.1562 136.367 53.1562C135.341 53.1562 134.602 52.9062 134.148 52.4062C133.695 51.901 133.469 51.1276 133.469 50.0859V46.4375H132.398V45.1953L133.758 44.2344L134.547 42.375H136.547V44.1484H138.719V46.4375H136.547V49.8828C136.547 50.4557 136.823 50.7422 137.375 50.7422ZM97.9141 75L97.1406 74.2031C96.6719 74.5 96.2865 74.7057 95.9844 74.8203C95.6875 74.9297 95.3516 75.013 94.9766 75.0703C94.6068 75.1276 94.1823 75.1562 93.7031 75.1562C92.8802 75.1562 92.151 75.0156 91.5156 74.7344C90.8854 74.4531 90.401 74.0599 90.0625 73.5547C89.7292 73.0495 89.5625 72.474 89.5625 71.8281C89.5625 70.4635 90.2708 69.4193 91.6875 68.6953C91.3646 68.3307 91.112 67.9453 90.9297 67.5391C90.7526 67.1276 90.6641 66.6641 90.6641 66.1484C90.6641 65.3151 90.9844 64.6536 91.625 64.1641C92.2708 63.6745 93.1562 63.4297 94.2812 63.4297C95.3802 63.4297 96.2344 63.6745 96.8438 64.1641C97.4583 64.6484 97.7656 65.3099 97.7656 66.1484C97.7656 66.7266 97.599 67.263 97.2656 67.7578C96.9375 68.2474 96.4167 68.7083 95.7031 69.1406L97.2578 70.6172C97.6484 70.0182 97.9193 69.3411 98.0703 68.5859H101.242C101.086 69.3047 100.839 70.026 100.5 70.75C100.167 71.4688 99.7891 72.0859 99.3672 72.6016L101.867 75H97.9141ZM92.7109 71.6094C92.7109 71.9375 92.8281 72.2057 93.0625 72.4141C93.2969 72.6224 93.6068 72.7266 93.9922 72.7266C94.2891 72.7266 94.5495 72.6875 94.7734 72.6094C94.9974 72.5312 95.1693 72.4427 95.2891 72.3438L93.3516 70.375C92.9245 70.6927 92.7109 71.1042 92.7109 71.6094ZM95.0156 66.1484C95.0156 65.8932 94.9401 65.7109 94.7891 65.6016C94.6432 65.487 94.4583 65.4297 94.2344 65.4297C94.0156 65.4297 93.8229 65.4948 93.6562 65.625C93.4948 65.7552 93.4141 65.9635 93.4141 66.25C93.4141 66.6406 93.6432 67.0443 94.1016 67.4609C94.3984 67.2943 94.625 67.0964 94.7812 66.8672C94.9375 66.6328 95.0156 66.3932 95.0156 66.1484ZM113.953 75H107.172V63.5781H113.953V66.0547H110.258V67.8516H113.68V70.3281H110.258V72.4844H113.953V75ZM121.547 75L120.961 73.8281H120.898C120.487 74.3385 120.068 74.6875 119.641 74.875C119.214 75.0625 118.661 75.1562 117.984 75.1562C117.151 75.1562 116.495 74.9062 116.016 74.4062C115.536 73.9062 115.297 73.2031 115.297 72.2969C115.297 71.3542 115.625 70.6536 116.281 70.1953C116.938 69.7318 117.888 69.4714 119.133 69.4141L120.609 69.3672V69.2422C120.609 68.513 120.25 68.1484 119.531 68.1484C118.885 68.1484 118.065 68.3672 117.07 68.8047L116.188 66.7891C117.219 66.2578 118.521 65.9922 120.094 65.9922C121.229 65.9922 122.107 66.2734 122.727 66.8359C123.352 67.3984 123.664 68.1849 123.664 69.1953V75H121.547ZM119.281 73C119.651 73 119.966 72.8828 120.227 72.6484C120.492 72.4141 120.625 72.1094 120.625 71.7344V71.0469L119.922 71.0781C118.917 71.1146 118.414 71.4844 118.414 72.1875C118.414 72.7292 118.703 73 119.281 73ZM132.578 72.2812C132.578 73.2292 132.255 73.9453 131.609 74.4297C130.964 74.9141 130.036 75.1562 128.828 75.1562C128.172 75.1562 127.602 75.1198 127.117 75.0469C126.633 74.9792 126.138 74.8516 125.633 74.6641V72.2188C126.107 72.4271 126.625 72.599 127.188 72.7344C127.755 72.8698 128.26 72.9375 128.703 72.9375C129.365 72.9375 129.695 72.7865 129.695 72.4844C129.695 72.3281 129.602 72.1901 129.414 72.0703C129.232 71.9453 128.695 71.7057 127.805 71.3516C126.992 71.0182 126.424 70.6406 126.102 70.2188C125.779 69.7917 125.617 69.2526 125.617 68.6016C125.617 67.7786 125.935 67.138 126.57 66.6797C127.206 66.2214 128.104 65.9922 129.266 65.9922C129.849 65.9922 130.396 66.0573 130.906 66.1875C131.422 66.3125 131.956 66.4974 132.508 66.7422L131.68 68.7109C131.273 68.5286 130.844 68.375 130.391 68.25C129.938 68.1198 129.568 68.0547 129.281 68.0547C128.781 68.0547 128.531 68.1771 128.531 68.4219C128.531 68.5729 128.617 68.7031 128.789 68.8125C128.966 68.9167 129.471 69.1328 130.305 69.4609C130.924 69.7161 131.385 69.9661 131.688 70.2109C131.995 70.4557 132.219 70.7448 132.359 71.0781C132.505 71.4062 132.578 71.8073 132.578 72.2812ZM133.203 66.1484H136.422L137.922 71.2266C137.995 71.4922 138.044 71.8125 138.07 72.1875H138.133C138.174 71.8281 138.237 71.513 138.32 71.2422L139.859 66.1484H142.977L139.477 75.5625C139.029 76.7604 138.477 77.6068 137.82 78.1016C137.169 78.5964 136.318 78.8438 135.266 78.8438C134.859 78.8438 134.443 78.7995 134.016 78.7109V76.3125C134.292 76.375 134.607 76.4062 134.961 76.4062C135.232 76.4062 135.469 76.3542 135.672 76.25C135.875 76.1458 136.052 75.9974 136.203 75.8047C136.354 75.6172 136.516 75.3073 136.688 74.875L133.203 66.1484ZM98.5234 89.2109C98.5234 90.487 98.1458 91.474 97.3906 92.1719C96.6406 92.8646 95.5729 93.2109 94.1875 93.2109H93.3203V97H90.2344V85.5781H94.1875C95.6302 85.5781 96.7135 85.8932 97.4375 86.5234C98.1615 87.1536 98.5234 88.0495 98.5234 89.2109ZM93.3203 90.6953H93.8828C94.3464 90.6953 94.7135 90.5651 94.9844 90.3047C95.2604 90.0443 95.3984 89.6849 95.3984 89.2266C95.3984 88.4557 94.9714 88.0703 94.1172 88.0703H93.3203V90.6953ZM106.469 97L106.086 95.8984H105.906C105.651 96.3047 105.294 96.6172 104.836 96.8359C104.383 97.0495 103.849 97.1562 103.234 97.1562C102.26 97.1562 101.503 96.875 100.961 96.3125C100.419 95.7448 100.148 94.9453 100.148 93.9141V88.1484H103.203V92.9844C103.203 93.5625 103.284 94 103.445 94.2969C103.612 94.5938 103.883 94.7422 104.258 94.7422C104.784 94.7422 105.159 94.5365 105.383 94.125C105.607 93.7083 105.719 93.0078 105.719 92.0234V88.1484H108.773V97H106.469ZM116.227 87.9922C116.492 87.9922 116.745 88.013 116.984 88.0547L117.156 88.0859L116.883 90.9688C116.633 90.9062 116.286 90.875 115.844 90.875C115.177 90.875 114.693 91.0286 114.391 91.3359C114.089 91.638 113.938 92.0755 113.938 92.6484V97H110.883V88.1484H113.156L113.633 89.5625H113.781C114.036 89.0938 114.391 88.7161 114.844 88.4297C115.302 88.138 115.763 87.9922 116.227 87.9922ZM122.43 97.1562C120.982 97.1562 119.883 96.7656 119.133 95.9844C118.388 95.2031 118.016 94.0807 118.016 92.6172C118.016 91.1484 118.419 90.0104 119.227 89.2031C120.034 88.3958 121.182 87.9922 122.672 87.9922C123.698 87.9922 124.664 88.2161 125.57 88.6641L124.672 90.9219C124.302 90.7604 123.961 90.6328 123.648 90.5391C123.336 90.4401 123.01 90.3906 122.672 90.3906C122.177 90.3906 121.794 90.5833 121.523 90.9688C121.253 91.3542 121.117 91.8984 121.117 92.6016C121.117 94.0182 121.641 94.7266 122.688 94.7266C123.583 94.7266 124.443 94.4661 125.266 93.9453V96.375C124.479 96.8958 123.534 97.1562 122.43 97.1562ZM132.594 97V92.1719C132.594 90.9844 132.242 90.3906 131.539 90.3906C131.039 90.3906 130.669 90.6016 130.43 91.0234C130.195 91.4401 130.078 92.1354 130.078 93.1094V97H127.023V84.8438H130.078V86.5703C130.078 87.3516 130.036 88.2422 129.953 89.2422H130.094C130.385 88.7839 130.732 88.4609 131.133 88.2734C131.534 88.0859 132 87.9922 132.531 87.9922C133.521 87.9922 134.289 88.2786 134.836 88.8516C135.388 89.4193 135.664 90.2161 135.664 91.2422V97H132.594ZM143.516 97L142.93 95.8281H142.867C142.456 96.3385 142.036 96.6875 141.609 96.875C141.182 97.0625 140.63 97.1562 139.953 97.1562C139.12 97.1562 138.464 96.9062 137.984 96.4062C137.505 95.9062 137.266 95.2031 137.266 94.2969C137.266 93.3542 137.594 92.6536 138.25 92.1953C138.906 91.7318 139.857 91.4714 141.102 91.4141L142.578 91.3672V91.2422C142.578 90.513 142.219 90.1484 141.5 90.1484C140.854 90.1484 140.034 90.3672 139.039 90.8047L138.156 88.7891C139.188 88.2578 140.49 87.9922 142.062 87.9922C143.198 87.9922 144.076 88.2734 144.695 88.8359C145.32 89.3984 145.633 90.1849 145.633 91.1953V97H143.516ZM141.25 95C141.62 95 141.935 94.8828 142.195 94.6484C142.461 94.4141 142.594 94.1094 142.594 93.7344V93.0469L141.891 93.0781C140.885 93.1146 140.383 93.4844 140.383 94.1875C140.383 94.7292 140.672 95 141.25 95ZM154.547 94.2812C154.547 95.2292 154.224 95.9453 153.578 96.4297C152.932 96.9141 152.005 97.1562 150.797 97.1562C150.141 97.1562 149.57 97.1198 149.086 97.0469C148.602 96.9792 148.107 96.8516 147.602 96.6641V94.2188C148.076 94.4271 148.594 94.599 149.156 94.7344C149.724 94.8698 150.229 94.9375 150.672 94.9375C151.333 94.9375 151.664 94.7865 151.664 94.4844C151.664 94.3281 151.57 94.1901 151.383 94.0703C151.201 93.9453 150.664 93.7057 149.773 93.3516C148.961 93.0182 148.393 92.6406 148.07 92.2188C147.747 91.7917 147.586 91.2526 147.586 90.6016C147.586 89.7786 147.904 89.138 148.539 88.6797C149.174 88.2214 150.073 87.9922 151.234 87.9922C151.818 87.9922 152.365 88.0573 152.875 88.1875C153.391 88.3125 153.924 88.4974 154.477 88.7422L153.648 90.7109C153.242 90.5286 152.812 90.375 152.359 90.25C151.906 90.1198 151.536 90.0547 151.25 90.0547C150.75 90.0547 150.5 90.1771 150.5 90.4219C150.5 90.5729 150.586 90.7031 150.758 90.8125C150.935 90.9167 151.44 91.1328 152.273 91.4609C152.893 91.7161 153.354 91.9661 153.656 92.2109C153.964 92.4557 154.188 92.7448 154.328 93.0781C154.474 93.4062 154.547 93.8073 154.547 94.2812ZM160.516 97.1562C159.042 97.1562 157.896 96.7656 157.078 95.9844C156.266 95.1979 155.859 94.0807 155.859 92.6328C155.859 91.138 156.237 89.9922 156.992 89.1953C157.747 88.3932 158.826 87.9922 160.227 87.9922C161.56 87.9922 162.589 88.3411 163.312 89.0391C164.042 89.7318 164.406 90.7318 164.406 92.0391V93.3984H158.945C158.966 93.8932 159.146 94.2812 159.484 94.5625C159.828 94.8438 160.294 94.9844 160.883 94.9844C161.419 94.9844 161.911 94.9349 162.359 94.8359C162.812 94.7318 163.302 94.5573 163.828 94.3125V96.5078C163.349 96.7526 162.854 96.9219 162.344 97.0156C161.833 97.1094 161.224 97.1562 160.516 97.1562ZM160.336 90.0703C159.977 90.0703 159.674 90.1849 159.43 90.4141C159.19 90.638 159.049 90.9922 159.008 91.4766H161.633C161.622 91.0495 161.5 90.7083 161.266 90.4531C161.036 90.1979 160.727 90.0703 160.336 90.0703Z" fill="#6480EB"/>
<path d="M205.273 154.5H202.172V149.844H198.586V154.5H195.484V143.078H198.586V147.312H202.172V143.078H205.273V154.5ZM210.836 150.344V154.5H207.75V143.078H211.492C214.596 143.078 216.148 144.203 216.148 146.453C216.148 147.776 215.503 148.799 214.211 149.523L217.539 154.5H214.039L211.617 150.344H210.836ZM210.836 148.023H211.414C212.492 148.023 213.031 147.547 213.031 146.594C213.031 145.807 212.503 145.414 211.445 145.414H210.836V148.023ZM232.43 148.547C232.43 150.453 231.904 151.922 230.852 152.953C229.805 153.984 228.331 154.5 226.43 154.5H222.734V143.078H226.688C228.521 143.078 229.935 143.547 230.93 144.484C231.93 145.422 232.43 146.776 232.43 148.547ZM229.227 148.656C229.227 147.609 229.018 146.833 228.602 146.328C228.19 145.823 227.563 145.57 226.719 145.57H225.82V151.969H226.508C227.445 151.969 228.133 151.698 228.57 151.156C229.008 150.609 229.227 149.776 229.227 148.656ZM240.078 154.5L239.492 153.328H239.43C239.018 153.839 238.599 154.188 238.172 154.375C237.745 154.562 237.193 154.656 236.516 154.656C235.682 154.656 235.026 154.406 234.547 153.906C234.068 153.406 233.828 152.703 233.828 151.797C233.828 150.854 234.156 150.154 234.813 149.695C235.469 149.232 236.419 148.971 237.664 148.914L239.141 148.867V148.742C239.141 148.013 238.781 147.648 238.063 147.648C237.417 147.648 236.596 147.867 235.602 148.305L234.719 146.289C235.75 145.758 237.052 145.492 238.625 145.492C239.76 145.492 240.638 145.773 241.258 146.336C241.883 146.898 242.195 147.685 242.195 148.695V154.5H240.078ZM237.813 152.5C238.182 152.5 238.497 152.383 238.758 152.148C239.023 151.914 239.156 151.609 239.156 151.234V150.547L238.453 150.578C237.448 150.615 236.945 150.984 236.945 151.688C236.945 152.229 237.234 152.5 237.813 152.5ZM251.109 151.781C251.109 152.729 250.786 153.445 250.141 153.93C249.495 154.414 248.568 154.656 247.359 154.656C246.703 154.656 246.133 154.62 245.648 154.547C245.164 154.479 244.669 154.352 244.164 154.164V151.719C244.638 151.927 245.156 152.099 245.719 152.234C246.286 152.37 246.792 152.438 247.234 152.438C247.896 152.438 248.227 152.286 248.227 151.984C248.227 151.828 248.133 151.69 247.945 151.57C247.763 151.445 247.227 151.206 246.336 150.852C245.523 150.518 244.956 150.141 244.633 149.719C244.31 149.292 244.148 148.753 244.148 148.102C244.148 147.279 244.466 146.638 245.102 146.18C245.737 145.721 246.635 145.492 247.797 145.492C248.38 145.492 248.927 145.557 249.438 145.688C249.953 145.812 250.487 145.997 251.039 146.242L250.211 148.211C249.805 148.029 249.375 147.875 248.922 147.75C248.469 147.62 248.099 147.555 247.813 147.555C247.313 147.555 247.063 147.677 247.063 147.922C247.063 148.073 247.148 148.203 247.32 148.312C247.497 148.417 248.003 148.633 248.836 148.961C249.456 149.216 249.917 149.466 250.219 149.711C250.526 149.956 250.75 150.245 250.891 150.578C251.036 150.906 251.109 151.307 251.109 151.781ZM258.375 154.5V149.672C258.375 148.484 258.023 147.891 257.32 147.891C256.82 147.891 256.451 148.102 256.211 148.523C255.977 148.94 255.859 149.635 255.859 150.609V154.5H252.805V142.344H255.859V144.07C255.859 144.852 255.818 145.742 255.734 146.742H255.875C256.167 146.284 256.513 145.961 256.914 145.773C257.315 145.586 257.781 145.492 258.313 145.492C259.302 145.492 260.07 145.779 260.617 146.352C261.169 146.919 261.445 147.716 261.445 148.742V154.5H258.375ZM268.93 145.492C269.893 145.492 270.656 145.896 271.219 146.703C271.786 147.51 272.07 148.628 272.07 150.055C272.07 151.492 271.784 152.62 271.211 153.438C270.643 154.25 269.852 154.656 268.836 154.656C268.508 154.656 268.216 154.62 267.961 154.547C267.706 154.479 267.477 154.383 267.273 154.258C267.076 154.133 266.844 153.924 266.578 153.633H266.391L265.906 154.5H263.523V142.344H266.578V145.094C266.578 145.422 266.542 145.987 266.469 146.789H266.578C266.875 146.331 267.216 146 267.602 145.797C267.992 145.594 268.435 145.492 268.93 145.492ZM267.813 147.891C267.385 147.891 267.073 148.039 266.875 148.336C266.677 148.633 266.578 149.099 266.578 149.734V150.164C266.578 150.888 266.677 151.409 266.875 151.727C267.073 152.039 267.396 152.195 267.844 152.195C268.203 152.195 268.479 152.013 268.672 151.648C268.865 151.279 268.961 150.737 268.961 150.023C268.961 148.602 268.578 147.891 267.813 147.891ZM282.273 150.055C282.273 151.503 281.883 152.633 281.102 153.445C280.326 154.253 279.237 154.656 277.836 154.656C276.492 154.656 275.422 154.242 274.625 153.414C273.833 152.586 273.438 151.466 273.438 150.055C273.438 148.612 273.826 147.492 274.602 146.695C275.383 145.893 276.477 145.492 277.883 145.492C278.753 145.492 279.521 145.677 280.188 146.047C280.854 146.417 281.367 146.948 281.727 147.641C282.091 148.328 282.273 149.133 282.273 150.055ZM276.539 150.055C276.539 150.815 276.641 151.396 276.844 151.797C277.047 152.193 277.388 152.391 277.867 152.391C278.341 152.391 278.675 152.193 278.867 151.797C279.065 151.396 279.164 150.815 279.164 150.055C279.164 149.299 279.065 148.729 278.867 148.344C278.669 147.958 278.331 147.766 277.852 147.766C277.383 147.766 277.047 147.958 276.844 148.344C276.641 148.724 276.539 149.294 276.539 150.055ZM289.797 154.5L289.211 153.328H289.148C288.737 153.839 288.318 154.188 287.891 154.375C287.464 154.562 286.911 154.656 286.234 154.656C285.401 154.656 284.745 154.406 284.266 153.906C283.786 153.406 283.547 152.703 283.547 151.797C283.547 150.854 283.875 150.154 284.531 149.695C285.188 149.232 286.138 148.971 287.383 148.914L288.859 148.867V148.742C288.859 148.013 288.5 147.648 287.781 147.648C287.135 147.648 286.315 147.867 285.32 148.305L284.438 146.289C285.469 145.758 286.771 145.492 288.344 145.492C289.479 145.492 290.357 145.773 290.977 146.336C291.602 146.898 291.914 147.685 291.914 148.695V154.5H289.797ZM287.531 152.5C287.901 152.5 288.216 152.383 288.477 152.148C288.742 151.914 288.875 151.609 288.875 151.234V150.547L288.172 150.578C287.167 150.615 286.664 150.984 286.664 151.688C286.664 152.229 286.953 152.5 287.531 152.5ZM299.336 145.492C299.602 145.492 299.854 145.513 300.094 145.555L300.266 145.586L299.992 148.469C299.742 148.406 299.396 148.375 298.953 148.375C298.286 148.375 297.802 148.529 297.5 148.836C297.198 149.138 297.047 149.576 297.047 150.148V154.5H293.992V145.648H296.266L296.742 147.062H296.891C297.146 146.594 297.5 146.216 297.953 145.93C298.411 145.638 298.872 145.492 299.336 145.492ZM304.258 154.656C303.628 154.656 303.076 154.477 302.602 154.117C302.133 153.758 301.768 153.229 301.508 152.531C301.253 151.833 301.125 151.018 301.125 150.086C301.125 148.648 301.414 147.523 301.992 146.711C302.57 145.898 303.365 145.492 304.375 145.492C304.87 145.492 305.302 145.591 305.672 145.789C306.047 145.987 306.388 146.32 306.695 146.789H306.758C306.659 146.096 306.609 145.404 306.609 144.711V142.344H309.688V154.5H307.383L306.727 153.383H306.609C306.083 154.232 305.3 154.656 304.258 154.656ZM305.508 152.242C305.997 152.242 306.341 152.089 306.539 151.781C306.742 151.474 306.852 151 306.867 150.359V150.117C306.867 149.336 306.755 148.781 306.531 148.453C306.307 148.12 305.956 147.953 305.477 147.953C305.076 147.953 304.763 148.143 304.539 148.523C304.32 148.898 304.211 149.435 304.211 150.133C304.211 150.82 304.323 151.344 304.547 151.703C304.771 152.062 305.091 152.242 305.508 152.242Z" fill="#6480EB"/>
<path d="M200.211 306L197.875 297.773H197.805C197.914 299.174 197.969 300.263 197.969 301.039V306H195.234V294.578H199.344L201.727 302.688H201.789L204.125 294.578H208.242V306H205.406V300.992C205.406 300.732 205.409 300.443 205.414 300.125C205.424 299.807 205.461 299.029 205.523 297.789H205.453L203.148 306H200.211ZM218.977 301.555C218.977 303.003 218.586 304.133 217.805 304.945C217.029 305.753 215.94 306.156 214.539 306.156C213.195 306.156 212.125 305.742 211.328 304.914C210.536 304.086 210.141 302.966 210.141 301.555C210.141 300.112 210.529 298.992 211.305 298.195C212.086 297.393 213.18 296.992 214.586 296.992C215.456 296.992 216.224 297.177 216.891 297.547C217.557 297.917 218.07 298.448 218.43 299.141C218.794 299.828 218.977 300.633 218.977 301.555ZM213.242 301.555C213.242 302.315 213.344 302.896 213.547 303.297C213.75 303.693 214.091 303.891 214.57 303.891C215.044 303.891 215.378 303.693 215.57 303.297C215.768 302.896 215.867 302.315 215.867 301.555C215.867 300.799 215.768 300.229 215.57 299.844C215.372 299.458 215.034 299.266 214.555 299.266C214.086 299.266 213.75 299.458 213.547 299.844C213.344 300.224 213.242 300.794 213.242 301.555ZM226.133 296.992C227.096 296.992 227.859 297.396 228.422 298.203C228.99 299.01 229.273 300.128 229.273 301.555C229.273 302.992 228.987 304.12 228.414 304.938C227.846 305.75 227.055 306.156 226.039 306.156C225.711 306.156 225.419 306.12 225.164 306.047C224.909 305.979 224.68 305.883 224.477 305.758C224.279 305.633 224.047 305.424 223.781 305.133H223.594L223.109 306H220.727V293.844H223.781V296.594C223.781 296.922 223.745 297.487 223.672 298.289H223.781C224.078 297.831 224.419 297.5 224.805 297.297C225.195 297.094 225.638 296.992 226.133 296.992ZM225.016 299.391C224.589 299.391 224.276 299.539 224.078 299.836C223.88 300.133 223.781 300.599 223.781 301.234V301.664C223.781 302.388 223.88 302.909 224.078 303.227C224.276 303.539 224.599 303.695 225.047 303.695C225.406 303.695 225.682 303.513 225.875 303.148C226.068 302.779 226.164 302.237 226.164 301.523C226.164 300.102 225.781 299.391 225.016 299.391ZM234.094 306H231.039V297.148H234.094V306ZM230.961 294.945C230.961 294.487 231.089 294.146 231.344 293.922C231.599 293.698 232.01 293.586 232.578 293.586C233.146 293.586 233.56 293.701 233.82 293.93C234.081 294.159 234.211 294.497 234.211 294.945C234.211 295.841 233.667 296.289 232.578 296.289C231.5 296.289 230.961 295.841 230.961 294.945ZM239.281 306H236.227V293.844H239.281V306ZM245.672 306.156C244.198 306.156 243.052 305.766 242.234 304.984C241.422 304.198 241.016 303.081 241.016 301.633C241.016 300.138 241.393 298.992 242.148 298.195C242.904 297.393 243.982 296.992 245.383 296.992C246.716 296.992 247.745 297.341 248.469 298.039C249.198 298.732 249.562 299.732 249.562 301.039V302.398H244.102C244.122 302.893 244.302 303.281 244.641 303.562C244.984 303.844 245.451 303.984 246.039 303.984C246.576 303.984 247.068 303.935 247.516 303.836C247.969 303.732 248.458 303.557 248.984 303.312V305.508C248.505 305.753 248.01 305.922 247.5 306.016C246.99 306.109 246.38 306.156 245.672 306.156ZM245.492 299.07C245.133 299.07 244.831 299.185 244.586 299.414C244.346 299.638 244.206 299.992 244.164 300.477H246.789C246.779 300.049 246.656 299.708 246.422 299.453C246.193 299.198 245.883 299.07 245.492 299.07ZM262.633 306L262.07 303.859H258.359L257.781 306H254.391L258.117 294.531H262.234L266.008 306H262.633ZM261.43 301.328L260.938 299.453C260.823 299.036 260.682 298.497 260.516 297.836C260.354 297.174 260.247 296.701 260.195 296.414C260.148 296.68 260.055 297.117 259.914 297.727C259.779 298.336 259.474 299.536 259 301.328H261.43ZM272.383 306.156C271.935 306.156 271.534 306.083 271.18 305.938C270.826 305.786 270.474 305.518 270.125 305.133H269.984C270.078 305.753 270.125 306.138 270.125 306.289V309.844H267.07V297.148H269.555L269.984 298.273H270.125C270.693 297.419 271.477 296.992 272.477 296.992C273.456 296.992 274.224 297.398 274.781 298.211C275.339 299.023 275.617 300.138 275.617 301.555C275.617 302.982 275.326 304.107 274.742 304.93C274.164 305.747 273.378 306.156 272.383 306.156ZM271.359 299.391C270.911 299.391 270.596 299.552 270.414 299.875C270.237 300.193 270.141 300.667 270.125 301.297V301.539C270.125 302.299 270.227 302.849 270.43 303.188C270.633 303.526 270.953 303.695 271.391 303.695C271.781 303.695 272.065 303.529 272.242 303.195C272.419 302.857 272.508 302.299 272.508 301.523C272.508 300.763 272.419 300.219 272.242 299.891C272.065 299.557 271.771 299.391 271.359 299.391ZM282.68 306.156C282.232 306.156 281.831 306.083 281.477 305.938C281.122 305.786 280.771 305.518 280.422 305.133H280.281C280.375 305.753 280.422 306.138 280.422 306.289V309.844H277.367V297.148H279.852L280.281 298.273H280.422C280.99 297.419 281.773 296.992 282.773 296.992C283.753 296.992 284.521 297.398 285.078 298.211C285.635 299.023 285.914 300.138 285.914 301.555C285.914 302.982 285.622 304.107 285.039 304.93C284.461 305.747 283.674 306.156 282.68 306.156ZM281.656 299.391C281.208 299.391 280.893 299.552 280.711 299.875C280.534 300.193 280.438 300.667 280.422 301.297V301.539C280.422 302.299 280.523 302.849 280.727 303.188C280.93 303.526 281.25 303.695 281.688 303.695C282.078 303.695 282.362 303.529 282.539 303.195C282.716 302.857 282.805 302.299 282.805 301.523C282.805 300.763 282.716 300.219 282.539 299.891C282.362 299.557 282.068 299.391 281.656 299.391Z" fill="#6480EB"/>
<path d="M48.3203 197.945C47.5859 197.945 47.013 198.247 46.6016 198.852C46.1901 199.451 45.9844 200.279 45.9844 201.336C45.9844 203.534 46.8203 204.633 48.4922 204.633C48.9974 204.633 49.487 204.562 49.9609 204.422C50.4349 204.281 50.9115 204.112 51.3906 203.914V206.523C50.4375 206.945 49.3594 207.156 48.1562 207.156C46.4323 207.156 45.1094 206.656 44.1875 205.656C43.2708 204.656 42.8125 203.211 42.8125 201.32C42.8125 200.138 43.0339 199.099 43.4766 198.203C43.9245 197.307 44.5651 196.62 45.3984 196.141C46.237 195.656 47.2214 195.414 48.3516 195.414C49.5859 195.414 50.7656 195.682 51.8906 196.219L50.9453 198.648C50.5234 198.451 50.1016 198.284 49.6797 198.148C49.2578 198.013 48.8047 197.945 48.3203 197.945ZM59.75 207L59.3672 205.898H59.1875C58.9323 206.305 58.5755 206.617 58.1172 206.836C57.6641 207.049 57.1302 207.156 56.5156 207.156C55.5417 207.156 54.7839 206.875 54.2422 206.312C53.7005 205.745 53.4297 204.945 53.4297 203.914V198.148H56.4844V202.984C56.4844 203.562 56.5651 204 56.7266 204.297C56.8932 204.594 57.1641 204.742 57.5391 204.742C58.0651 204.742 58.4401 204.536 58.6641 204.125C58.888 203.708 59 203.008 59 202.023V198.148H62.0547V207H59.75ZM71 204.281C71 205.229 70.6771 205.945 70.0312 206.43C69.3854 206.914 68.4583 207.156 67.25 207.156C66.5938 207.156 66.0234 207.12 65.5391 207.047C65.0547 206.979 64.5599 206.852 64.0547 206.664V204.219C64.5286 204.427 65.0469 204.599 65.6094 204.734C66.1771 204.87 66.6823 204.938 67.125 204.938C67.7865 204.938 68.1172 204.786 68.1172 204.484C68.1172 204.328 68.0234 204.19 67.8359 204.07C67.6536 203.945 67.1172 203.706 66.2266 203.352C65.4141 203.018 64.8464 202.641 64.5234 202.219C64.2005 201.792 64.0391 201.253 64.0391 200.602C64.0391 199.779 64.3568 199.138 64.9922 198.68C65.6276 198.221 66.526 197.992 67.6875 197.992C68.2708 197.992 68.8177 198.057 69.3281 198.188C69.8438 198.312 70.3776 198.497 70.9297 198.742L70.1016 200.711C69.6953 200.529 69.2656 200.375 68.8125 200.25C68.3594 200.12 67.9896 200.055 67.7031 200.055C67.2031 200.055 66.9531 200.177 66.9531 200.422C66.9531 200.573 67.0391 200.703 67.2109 200.812C67.388 200.917 67.8932 201.133 68.7266 201.461C69.3464 201.716 69.8073 201.966 70.1094 202.211C70.4167 202.456 70.6406 202.745 70.7812 203.078C70.9271 203.406 71 203.807 71 204.281ZM77.0312 204.742C77.4427 204.742 77.9349 204.641 78.5078 204.438V206.664C78.0964 206.841 77.7031 206.966 77.3281 207.039C76.9583 207.117 76.5234 207.156 76.0234 207.156C74.9974 207.156 74.2578 206.906 73.8047 206.406C73.3516 205.901 73.125 205.128 73.125 204.086V200.438H72.0547V199.195L73.4141 198.234L74.2031 196.375H76.2031V198.148H78.375V200.438H76.2031V203.883C76.2031 204.456 76.4792 204.742 77.0312 204.742ZM88.5078 202.555C88.5078 204.003 88.1172 205.133 87.3359 205.945C86.5599 206.753 85.4714 207.156 84.0703 207.156C82.7266 207.156 81.6562 206.742 80.8594 205.914C80.0677 205.086 79.6719 203.966 79.6719 202.555C79.6719 201.112 80.0599 199.992 80.8359 199.195C81.6172 198.393 82.7109 197.992 84.1172 197.992C84.987 197.992 85.7552 198.177 86.4219 198.547C87.0885 198.917 87.6016 199.448 87.9609 200.141C88.3255 200.828 88.5078 201.633 88.5078 202.555ZM82.7734 202.555C82.7734 203.315 82.875 203.896 83.0781 204.297C83.2812 204.693 83.6224 204.891 84.1016 204.891C84.5755 204.891 84.9089 204.693 85.1016 204.297C85.2995 203.896 85.3984 203.315 85.3984 202.555C85.3984 201.799 85.2995 201.229 85.1016 200.844C84.9036 200.458 84.5651 200.266 84.0859 200.266C83.6172 200.266 83.2812 200.458 83.0781 200.844C82.875 201.224 82.7734 201.794 82.7734 202.555ZM101.125 207V202.188C101.125 201.589 101.042 201.141 100.875 200.844C100.714 200.542 100.456 200.391 100.102 200.391C99.6328 200.391 99.2891 200.591 99.0703 200.992C98.8516 201.393 98.7422 202.021 98.7422 202.875V207H95.6797V202.188C95.6797 201.589 95.6016 201.141 95.4453 200.844C95.2891 200.542 95.0365 200.391 94.6875 200.391C94.2083 200.391 93.8594 200.604 93.6406 201.031C93.4219 201.458 93.3125 202.156 93.3125 203.125V207H90.2578V198.148H92.5625L92.9453 199.242H93.125C93.3594 198.836 93.6979 198.526 94.1406 198.312C94.5885 198.099 95.0964 197.992 95.6641 197.992C96.9401 197.992 97.8359 198.38 98.3516 199.156H98.5938C98.8438 198.792 99.1901 198.508 99.6328 198.305C100.081 198.096 100.573 197.992 101.109 197.992C102.156 197.992 102.93 198.26 103.43 198.797C103.93 199.333 104.18 200.148 104.18 201.242V207H101.125ZM109.328 207H106.273V198.148H109.328V207ZM106.195 195.945C106.195 195.487 106.323 195.146 106.578 194.922C106.833 194.698 107.245 194.586 107.812 194.586C108.38 194.586 108.794 194.701 109.055 194.93C109.315 195.159 109.445 195.497 109.445 195.945C109.445 196.841 108.901 197.289 107.812 197.289C106.734 197.289 106.195 196.841 106.195 195.945ZM118.297 204.281C118.297 205.229 117.974 205.945 117.328 206.43C116.682 206.914 115.755 207.156 114.547 207.156C113.891 207.156 113.32 207.12 112.836 207.047C112.352 206.979 111.857 206.852 111.352 206.664V204.219C111.826 204.427 112.344 204.599 112.906 204.734C113.474 204.87 113.979 204.938 114.422 204.938C115.083 204.938 115.414 204.786 115.414 204.484C115.414 204.328 115.32 204.19 115.133 204.07C114.951 203.945 114.414 203.706 113.523 203.352C112.711 203.018 112.143 202.641 111.82 202.219C111.497 201.792 111.336 201.253 111.336 200.602C111.336 199.779 111.654 199.138 112.289 198.68C112.924 198.221 113.823 197.992 114.984 197.992C115.568 197.992 116.115 198.057 116.625 198.188C117.141 198.312 117.674 198.497 118.227 198.742L117.398 200.711C116.992 200.529 116.562 200.375 116.109 200.25C115.656 200.12 115.286 200.055 115 200.055C114.5 200.055 114.25 200.177 114.25 200.422C114.25 200.573 114.336 200.703 114.508 200.812C114.685 200.917 115.19 201.133 116.023 201.461C116.643 201.716 117.104 201.966 117.406 202.211C117.714 202.456 117.938 202.745 118.078 203.078C118.224 203.406 118.297 203.807 118.297 204.281ZM125.766 207L125.18 205.828H125.117C124.706 206.339 124.286 206.688 123.859 206.875C123.432 207.062 122.88 207.156 122.203 207.156C121.37 207.156 120.714 206.906 120.234 206.406C119.755 205.906 119.516 205.203 119.516 204.297C119.516 203.354 119.844 202.654 120.5 202.195C121.156 201.732 122.107 201.471 123.352 201.414L124.828 201.367V201.242C124.828 200.513 124.469 200.148 123.75 200.148C123.104 200.148 122.284 200.367 121.289 200.805L120.406 198.789C121.438 198.258 122.74 197.992 124.312 197.992C125.448 197.992 126.326 198.273 126.945 198.836C127.57 199.398 127.883 200.185 127.883 201.195V207H125.766ZM123.5 205C123.87 205 124.185 204.883 124.445 204.648C124.711 204.414 124.844 204.109 124.844 203.734V203.047L124.141 203.078C123.135 203.115 122.633 203.484 122.633 204.188C122.633 204.729 122.922 205 123.5 205ZM135.367 197.992C136.331 197.992 137.094 198.396 137.656 199.203C138.224 200.01 138.508 201.128 138.508 202.555C138.508 203.992 138.221 205.12 137.648 205.938C137.081 206.75 136.289 207.156 135.273 207.156C134.945 207.156 134.654 207.12 134.398 207.047C134.143 206.979 133.914 206.883 133.711 206.758C133.513 206.633 133.281 206.424 133.016 206.133H132.828L132.344 207H129.961V194.844H133.016V197.594C133.016 197.922 132.979 198.487 132.906 199.289H133.016C133.312 198.831 133.654 198.5 134.039 198.297C134.43 198.094 134.872 197.992 135.367 197.992ZM134.25 200.391C133.823 200.391 133.51 200.539 133.312 200.836C133.115 201.133 133.016 201.599 133.016 202.234V202.664C133.016 203.388 133.115 203.909 133.312 204.227C133.51 204.539 133.833 204.695 134.281 204.695C134.641 204.695 134.917 204.513 135.109 204.148C135.302 203.779 135.398 203.237 135.398 202.523C135.398 201.102 135.016 200.391 134.25 200.391ZM143.312 207H140.258V194.844H143.312V207ZM149.703 207.156C148.229 207.156 147.083 206.766 146.266 205.984C145.453 205.198 145.047 204.081 145.047 202.633C145.047 201.138 145.424 199.992 146.18 199.195C146.935 198.393 148.013 197.992 149.414 197.992C150.747 197.992 151.776 198.341 152.5 199.039C153.229 199.732 153.594 200.732 153.594 202.039V203.398H148.133C148.154 203.893 148.333 204.281 148.672 204.562C149.016 204.844 149.482 204.984 150.07 204.984C150.607 204.984 151.099 204.935 151.547 204.836C152 204.732 152.49 204.557 153.016 204.312V206.508C152.536 206.753 152.042 206.922 151.531 207.016C151.021 207.109 150.411 207.156 149.703 207.156ZM149.523 200.07C149.164 200.07 148.862 200.185 148.617 200.414C148.378 200.638 148.237 200.992 148.195 201.477H150.82C150.81 201.049 150.688 200.708 150.453 200.453C150.224 200.198 149.914 200.07 149.523 200.07ZM43.2344 229V217.578H46.3359V229H43.2344ZM54.2188 229V224.172C54.2188 223.583 54.1328 223.141 53.9609 222.844C53.7943 222.542 53.5234 222.391 53.1484 222.391C52.6328 222.391 52.2604 222.596 52.0312 223.008C51.8021 223.419 51.6875 224.125 51.6875 225.125V229H48.6328V220.148H50.9375L51.3203 221.242H51.5C51.7604 220.826 52.1198 220.513 52.5781 220.305C53.0417 220.096 53.5729 219.992 54.1719 219.992C55.151 219.992 55.9115 220.276 56.4531 220.844C57 221.411 57.2734 222.211 57.2734 223.242V229H54.2188ZM66.1875 226.281C66.1875 227.229 65.8646 227.945 65.2188 228.43C64.5729 228.914 63.6458 229.156 62.4375 229.156C61.7812 229.156 61.2109 229.12 60.7266 229.047C60.2422 228.979 59.7474 228.852 59.2422 228.664V226.219C59.7161 226.427 60.2344 226.599 60.7969 226.734C61.3646 226.87 61.8698 226.938 62.3125 226.938C62.974 226.938 63.3047 226.786 63.3047 226.484C63.3047 226.328 63.2109 226.19 63.0234 226.07C62.8411 225.945 62.3047 225.706 61.4141 225.352C60.6016 225.018 60.0339 224.641 59.7109 224.219C59.388 223.792 59.2266 223.253 59.2266 222.602C59.2266 221.779 59.5443 221.138 60.1797 220.68C60.8151 220.221 61.7135 219.992 62.875 219.992C63.4583 219.992 64.0052 220.057 64.5156 220.188C65.0312 220.312 65.5651 220.497 66.1172 220.742L65.2891 222.711C64.8828 222.529 64.4531 222.375 64 222.25C63.5469 222.12 63.1771 222.055 62.8906 222.055C62.3906 222.055 62.1406 222.177 62.1406 222.422C62.1406 222.573 62.2266 222.703 62.3984 222.812C62.5755 222.917 63.0807 223.133 63.9141 223.461C64.5339 223.716 64.9948 223.966 65.2969 224.211C65.6042 224.456 65.8281 224.745 65.9688 225.078C66.1146 225.406 66.1875 225.807 66.1875 226.281ZM74.1875 229L73.8047 227.898H73.625C73.3698 228.305 73.013 228.617 72.5547 228.836C72.1016 229.049 71.5677 229.156 70.9531 229.156C69.9792 229.156 69.2214 228.875 68.6797 228.312C68.138 227.745 67.8672 226.945 67.8672 225.914V220.148H70.9219V224.984C70.9219 225.562 71.0026 226 71.1641 226.297C71.3307 226.594 71.6016 226.742 71.9766 226.742C72.5026 226.742 72.8776 226.536 73.1016 226.125C73.3255 225.708 73.4375 225.008 73.4375 224.023V220.148H76.4922V229H74.1875ZM83.9453 219.992C84.2109 219.992 84.4635 220.013 84.7031 220.055L84.875 220.086L84.6016 222.969C84.3516 222.906 84.0052 222.875 83.5625 222.875C82.8958 222.875 82.4115 223.029 82.1094 223.336C81.8073 223.638 81.6562 224.076 81.6562 224.648V229H78.6016V220.148H80.875L81.3516 221.562H81.5C81.7552 221.094 82.1094 220.716 82.5625 220.43C83.0208 220.138 83.4818 219.992 83.9453 219.992ZM91.8906 229L91.3047 227.828H91.2422C90.8307 228.339 90.4115 228.688 89.9844 228.875C89.5573 229.062 89.0052 229.156 88.3281 229.156C87.4948 229.156 86.8385 228.906 86.3594 228.406C85.8802 227.906 85.6406 227.203 85.6406 226.297C85.6406 225.354 85.9688 224.654 86.625 224.195C87.2812 223.732 88.2318 223.471 89.4766 223.414L90.9531 223.367V223.242C90.9531 222.513 90.5938 222.148 89.875 222.148C89.2292 222.148 88.4089 222.367 87.4141 222.805L86.5312 220.789C87.5625 220.258 88.8646 219.992 90.4375 219.992C91.5729 219.992 92.4505 220.273 93.0703 220.836C93.6953 221.398 94.0078 222.185 94.0078 223.195V229H91.8906ZM89.625 227C89.9948 227 90.3099 226.883 90.5703 226.648C90.8359 226.414 90.9688 226.109 90.9688 225.734V225.047L90.2656 225.078C89.2604 225.115 88.7578 225.484 88.7578 226.188C88.7578 226.729 89.0469 227 89.625 227ZM101.672 229V224.172C101.672 223.583 101.586 223.141 101.414 222.844C101.247 222.542 100.977 222.391 100.602 222.391C100.086 222.391 99.7135 222.596 99.4844 223.008C99.2552 223.419 99.1406 224.125 99.1406 225.125V229H96.0859V220.148H98.3906L98.7734 221.242H98.9531C99.2135 220.826 99.5729 220.513 100.031 220.305C100.495 220.096 101.026 219.992 101.625 219.992C102.604 219.992 103.365 220.276 103.906 220.844C104.453 221.411 104.727 222.211 104.727 223.242V229H101.672ZM110.836 229.156C109.388 229.156 108.289 228.766 107.539 227.984C106.794 227.203 106.422 226.081 106.422 224.617C106.422 223.148 106.826 222.01 107.633 221.203C108.44 220.396 109.589 219.992 111.078 219.992C112.104 219.992 113.07 220.216 113.977 220.664L113.078 222.922C112.708 222.76 112.367 222.633 112.055 222.539C111.742 222.44 111.417 222.391 111.078 222.391C110.583 222.391 110.201 222.583 109.93 222.969C109.659 223.354 109.523 223.898 109.523 224.602C109.523 226.018 110.047 226.727 111.094 226.727C111.99 226.727 112.849 226.466 113.672 225.945V228.375C112.885 228.896 111.94 229.156 110.836 229.156ZM119.703 229.156C118.229 229.156 117.083 228.766 116.266 227.984C115.453 227.198 115.047 226.081 115.047 224.633C115.047 223.138 115.424 221.992 116.18 221.195C116.935 220.393 118.013 219.992 119.414 219.992C120.747 219.992 121.776 220.341 122.5 221.039C123.229 221.732 123.594 222.732 123.594 224.039V225.398H118.133C118.154 225.893 118.333 226.281 118.672 226.562C119.016 226.844 119.482 226.984 120.07 226.984C120.607 226.984 121.099 226.935 121.547 226.836C122 226.732 122.49 226.557 123.016 226.312V228.508C122.536 228.753 122.042 228.922 121.531 229.016C121.021 229.109 120.411 229.156 119.703 229.156ZM119.523 222.07C119.164 222.07 118.862 222.185 118.617 222.414C118.378 222.638 118.237 222.992 118.195 223.477H120.82C120.81 223.049 120.688 222.708 120.453 222.453C120.224 222.198 119.914 222.07 119.523 222.07ZM50.7031 247.531C50.7031 248.24 50.5234 248.87 50.1641 249.422C49.8047 249.969 49.2865 250.396 48.6094 250.703C47.9323 251.005 47.138 251.156 46.2266 251.156C45.4661 251.156 44.8281 251.104 44.3125 251C43.7969 250.891 43.2604 250.703 42.7031 250.438V247.688C43.2917 247.99 43.9036 248.227 44.5391 248.398C45.1745 248.565 45.7578 248.648 46.2891 248.648C46.7474 248.648 47.0833 248.57 47.2969 248.414C47.5104 248.253 47.6172 248.047 47.6172 247.797C47.6172 247.641 47.5729 247.505 47.4844 247.391C47.401 247.271 47.263 247.151 47.0703 247.031C46.8828 246.911 46.3776 246.667 45.5547 246.297C44.8099 245.958 44.25 245.63 43.875 245.312C43.5052 244.995 43.2292 244.63 43.0469 244.219C42.8698 243.807 42.7812 243.32 42.7812 242.758C42.7812 241.706 43.1641 240.885 43.9297 240.297C44.6953 239.708 45.7474 239.414 47.0859 239.414C48.2682 239.414 49.474 239.688 50.7031 240.234L49.7578 242.617C48.6901 242.128 47.7682 241.883 46.9922 241.883C46.5911 241.883 46.2995 241.953 46.1172 242.094C45.9349 242.234 45.8438 242.409 45.8438 242.617C45.8438 242.841 45.9583 243.042 46.1875 243.219C46.4219 243.396 47.0521 243.719 48.0781 244.188C49.0625 244.63 49.7448 245.107 50.125 245.617C50.5104 246.122 50.7031 246.76 50.7031 247.531ZM60.7422 246.555C60.7422 248.003 60.3516 249.133 59.5703 249.945C58.7943 250.753 57.7057 251.156 56.3047 251.156C54.9609 251.156 53.8906 250.742 53.0938 249.914C52.3021 249.086 51.9062 247.966 51.9062 246.555C51.9062 245.112 52.2943 243.992 53.0703 243.195C53.8516 242.393 54.9453 241.992 56.3516 241.992C57.2214 241.992 57.9896 242.177 58.6562 242.547C59.3229 242.917 59.8359 243.448 60.1953 244.141C60.5599 244.828 60.7422 245.633 60.7422 246.555ZM55.0078 246.555C55.0078 247.315 55.1094 247.896 55.3125 248.297C55.5156 248.693 55.8568 248.891 56.3359 248.891C56.8099 248.891 57.1432 248.693 57.3359 248.297C57.5339 247.896 57.6328 247.315 57.6328 246.555C57.6328 245.799 57.5339 245.229 57.3359 244.844C57.138 244.458 56.7995 244.266 56.3203 244.266C55.8516 244.266 55.5156 244.458 55.3125 244.844C55.1094 245.224 55.0078 245.794 55.0078 246.555ZM65.5469 251H62.4922V238.844H65.5469V251ZM73.9688 251L73.5859 249.898H73.4062C73.151 250.305 72.7943 250.617 72.3359 250.836C71.8828 251.049 71.349 251.156 70.7344 251.156C69.7604 251.156 69.0026 250.875 68.4609 250.312C67.9193 249.745 67.6484 248.945 67.6484 247.914V242.148H70.7031V246.984C70.7031 247.562 70.7839 248 70.9453 248.297C71.112 248.594 71.3828 248.742 71.7578 248.742C72.2839 248.742 72.6589 248.536 72.8828 248.125C73.1068 247.708 73.2188 247.008 73.2188 246.023V242.148H76.2734V251H73.9688ZM82.7188 248.742C83.1302 248.742 83.6224 248.641 84.1953 248.438V250.664C83.7839 250.841 83.3906 250.966 83.0156 251.039C82.6458 251.117 82.2109 251.156 81.7109 251.156C80.6849 251.156 79.9453 250.906 79.4922 250.406C79.0391 249.901 78.8125 249.128 78.8125 248.086V244.438H77.7422V243.195L79.1016 242.234L79.8906 240.375H81.8906V242.148H84.0625V244.438H81.8906V247.883C81.8906 248.456 82.1667 248.742 82.7188 248.742ZM88.8125 251H85.7578V242.148H88.8125V251ZM85.6797 239.945C85.6797 239.487 85.8073 239.146 86.0625 238.922C86.3177 238.698 86.7292 238.586 87.2969 238.586C87.8646 238.586 88.2786 238.701 88.5391 238.93C88.7995 239.159 88.9297 239.497 88.9297 239.945C88.9297 240.841 88.3854 241.289 87.2969 241.289C86.2188 241.289 85.6797 240.841 85.6797 239.945ZM99.3984 246.555C99.3984 248.003 99.0078 249.133 98.2266 249.945C97.4505 250.753 96.362 251.156 94.9609 251.156C93.6172 251.156 92.5469 250.742 91.75 249.914C90.9583 249.086 90.5625 247.966 90.5625 246.555C90.5625 245.112 90.9505 243.992 91.7266 243.195C92.5078 242.393 93.6016 241.992 95.0078 241.992C95.8776 241.992 96.6458 242.177 97.3125 242.547C97.9792 242.917 98.4922 243.448 98.8516 244.141C99.2161 244.828 99.3984 245.633 99.3984 246.555ZM93.6641 246.555C93.6641 247.315 93.7656 247.896 93.9688 248.297C94.1719 248.693 94.513 248.891 94.9922 248.891C95.4661 248.891 95.7995 248.693 95.9922 248.297C96.1901 247.896 96.2891 247.315 96.2891 246.555C96.2891 245.799 96.1901 245.229 95.9922 244.844C95.7943 244.458 95.4557 244.266 94.9766 244.266C94.5078 244.266 94.1719 244.458 93.9688 244.844C93.7656 245.224 93.6641 245.794 93.6641 246.555ZM106.734 251V246.172C106.734 245.583 106.648 245.141 106.477 244.844C106.31 244.542 106.039 244.391 105.664 244.391C105.148 244.391 104.776 244.596 104.547 245.008C104.318 245.419 104.203 246.125 104.203 247.125V251H101.148V242.148H103.453L103.836 243.242H104.016C104.276 242.826 104.635 242.513 105.094 242.305C105.557 242.096 106.089 241.992 106.688 241.992C107.667 241.992 108.427 242.276 108.969 242.844C109.516 243.411 109.789 244.211 109.789 245.242V251H106.734ZM118.703 248.281C118.703 249.229 118.38 249.945 117.734 250.43C117.089 250.914 116.161 251.156 114.953 251.156C114.297 251.156 113.727 251.12 113.242 251.047C112.758 250.979 112.263 250.852 111.758 250.664V248.219C112.232 248.427 112.75 248.599 113.312 248.734C113.88 248.87 114.385 248.938 114.828 248.938C115.49 248.938 115.82 248.786 115.82 248.484C115.82 248.328 115.727 248.19 115.539 248.07C115.357 247.945 114.82 247.706 113.93 247.352C113.117 247.018 112.549 246.641 112.227 246.219C111.904 245.792 111.742 245.253 111.742 244.602C111.742 243.779 112.06 243.138 112.695 242.68C113.331 242.221 114.229 241.992 115.391 241.992C115.974 241.992 116.521 242.057 117.031 242.188C117.547 242.312 118.081 242.497 118.633 242.742L117.805 244.711C117.398 244.529 116.969 244.375 116.516 244.25C116.062 244.12 115.693 244.055 115.406 244.055C114.906 244.055 114.656 244.177 114.656 244.422C114.656 244.573 114.742 244.703 114.914 244.812C115.091 244.917 115.596 245.133 116.43 245.461C117.049 245.716 117.51 245.966 117.812 246.211C118.12 246.456 118.344 246.745 118.484 247.078C118.63 247.406 118.703 247.807 118.703 248.281Z" fill="#6480EB"/>
<rect x="162.5" y="162.5" width="25" height="25" rx="12.5" fill="#00D7AF"/>
<path d="M170 175L173.58 178.75L180 172.5" stroke="white" stroke-width="2" stroke-linecap="round" stroke-linejoin="round"/>
<path d="M286.786 93.3043L267.319 103.797C267.099 103.915 267.017 104.19 267.135 104.411C267.176 104.487 267.238 104.549 267.313 104.591C279.925 111.656 286.487 115.188 287.001 115.188C287.514 115.188 294.077 111.656 306.689 104.591L306.689 104.591C306.907 104.469 306.985 104.193 306.863 103.974C306.821 103.899 306.758 103.837 306.682 103.797L287.216 93.3043C287.082 93.2319 286.92 93.2319 286.786 93.3043Z" fill="#2C3652" stroke="#2C3652" stroke-linecap="round" stroke-linejoin="round"/>
<path d="M271.966 110.348L267.215 112.909C267.016 113.016 266.942 113.264 267.049 113.462C267.086 113.531 267.141 113.587 267.209 113.625C279.867 120.716 286.453 124.261 286.968 124.261C287.482 124.261 294.069 120.716 306.727 113.625C306.924 113.515 306.994 113.266 306.884 113.069C306.846 113.001 306.789 112.946 306.721 112.909L302.478 110.348" stroke="#6480EB" stroke-linecap="round" stroke-linejoin="round"/>
<path d="M271.966 119.336L267.215 121.897C267.016 122.004 266.942 122.252 267.049 122.451C267.086 122.519 267.141 122.576 267.209 122.614C279.867 129.704 286.453 133.25 286.968 133.25C287.482 133.25 294.069 129.704 306.727 122.614C306.924 122.503 306.994 122.255 306.884 122.058C306.846 121.99 306.789 121.934 306.721 121.897L302.478 119.336" stroke="#6480EB" stroke-linecap="round" stroke-linejoin="round"/>
<rect x="197" y="240.75" width="24.7143" height="39" rx="3.5" stroke="#6480EB"/>
<rect x="200.072" y="247.393" width="18.5714" height="22.1429" rx="2" fill="#2C3652"/>
<rect x="207" y="272.179" width="4.71429" height="4.71429" rx="2.35714" stroke="#6480EB"/>
<rect x="206.5" y="243.821" width="5.71429" height="1.42857" rx="0.714286" stroke="#6480EB"/>
<path d="M47.3692 70.3014C47.2114 69.6702 47.6888 69.0588 48.3394 69.0588H78.7478C79.3892 69.0588 79.8648 69.6543 79.723 70.2799L75.91 87.1034C75.8067 87.559 75.4019 87.8824 74.9347 87.8824H52.5453C52.0864 87.8824 51.6864 87.5701 51.5751 87.1249L47.3692 70.3014Z" fill="#2C3652"/>
<path d="M40 62H45.8824L47.0588 67.2941" stroke="#6480EB" stroke-linecap="round"/>
<circle cx="55.7646" cy="94.2353" r="3.5" stroke="#6480EB"/>
<circle cx="71.7646" cy="94.2353" r="3.5" stroke="#6480EB"/>
<path fill-rule="evenodd" clip-rule="evenodd" d="M74.2404 276.433C74.2404 275.881 74.6881 275.433 75.2404 275.433H83.0219C83.7549 275.433 84.2328 274.672 83.8511 274.046C81.2742 269.821 76.6219 267 71.3107 267C66.3215 267 61.9138 269.489 59.2616 273.293C59.0671 273.572 58.7523 273.747 58.4121 273.747H55C54.4477 273.747 54 274.195 54 274.747V288.77C54 289.323 54.4477 289.77 55 289.77H58.5259C58.8614 289.77 59.1725 289.94 59.3678 290.213C62.0306 293.932 66.3876 296.356 71.3107 296.356C76.5502 296.356 81.1485 293.611 83.7457 289.48C84.1387 288.855 83.6616 288.084 82.9232 288.084H75.2404C74.6881 288.084 74.2404 287.636 74.2404 287.084V276.433Z" fill="#2C3652"/>
<rect x="44.5" y="274.5" width="7" height="15" rx="0.5" stroke="#6480EB"/>
<g style="mix-blend-mode:multiply">
<rect x="0.75" y="0.75" width="348.5" height="348.5" rx="59.25" stroke="#E8E8FB" stroke-width="1.5" stroke-dasharray="6 6"/>
</g>
<defs>
<filter id="filter0_d" x="5" y="9" width="233.484" height="189.747" filterUnits="userSpaceOnUse" color-interpolation-filters="sRGB">
<feFlood flood-opacity="0" result="BackgroundImageFix"/>
<feColorMatrix in="SourceAlpha" type="matrix" values="0 0 0 0 0 0 0 0 0 0 0 0 0 0 0 0 0 0 127 0"/>
<feOffset dy="4"/>
<feGaussianBlur stdDeviation="10"/>
<feColorMatrix type="matrix" values="0 0 0 0 0.131004 0 0 0 0 0.374323 0 0 0 0 1 0 0 0 0.25 0"/>
<feBlend mode="normal" in2="BackgroundImageFix" result="effect1_dropShadow"/>
<feBlend mode="normal" in="SourceGraphic" in2="effect1_dropShadow" result="shape"/>
</filter>
<filter id="filter1_d" x="154.734" y="9" width="189.747" height="233.484" filterUnits="userSpaceOnUse" color-interpolation-filters="sRGB">
<feFlood flood-opacity="0" result="BackgroundImageFix"/>
<feColorMatrix in="SourceAlpha" type="matrix" values="0 0 0 0 0 0 0 0 0 0 0 0 0 0 0 0 0 0 127 0"/>
<feOffset dy="4"/>
<feGaussianBlur stdDeviation="10"/>
<feColorMatrix type="matrix" values="0 0 0 0 0.131004 0 0 0 0 0.374323 0 0 0 0 1 0 0 0 0.25 0"/>
<feBlend mode="normal" in2="BackgroundImageFix" result="effect1_dropShadow"/>
<feBlend mode="normal" in="SourceGraphic" in2="effect1_dropShadow" result="shape"/>
</filter>
<filter id="filter2_d" x="5" y="114.997" width="189.741" height="233.491" filterUnits="userSpaceOnUse" color-interpolation-filters="sRGB">
<feFlood flood-opacity="0" result="BackgroundImageFix"/>
<feColorMatrix in="SourceAlpha" type="matrix" values="0 0 0 0 0 0 0 0 0 0 0 0 0 0 0 0 0 0 127 0"/>
<feOffset dy="4"/>
<feGaussianBlur stdDeviation="10"/>
<feColorMatrix type="matrix" values="0 0 0 0 0.131004 0 0 0 0 0.374323 0 0 0 0 1 0 0 0 0.25 0"/>
<feBlend mode="normal" in2="BackgroundImageFix" result="effect1_dropShadow"/>
<feBlend mode="normal" in="SourceGraphic" in2="effect1_dropShadow" result="shape"/>
</filter>
<filter id="filter3_d" x="111" y="158.434" width="233.213" height="190.566" filterUnits="userSpaceOnUse" color-interpolation-filters="sRGB">
<feFlood flood-opacity="0" result="BackgroundImageFix"/>
<feColorMatrix in="SourceAlpha" type="matrix" values="0 0 0 0 0 0 0 0 0 0 0 0 0 0 0 0 0 0 127 0"/>
<feOffset dy="4"/>
<feGaussianBlur stdDeviation="10"/>
<feColorMatrix type="matrix" values="0 0 0 0 0.131004 0 0 0 0 0.374323 0 0 0 0 1 0 0 0 0.25 0"/>
<feBlend mode="normal" in2="BackgroundImageFix" result="effect1_dropShadow"/>
<feBlend mode="normal" in="SourceGraphic" in2="effect1_dropShadow" result="shape"/>
</filter>
</defs>
</svg>
