<svg xmlns="http://www.w3.org/2000/svg" width="60" height="43" viewBox="0 0 60 43">
    <g fill="#99BBC1" fill-rule="evenodd">
        <path d="M57.16 14.428L12.705.196a3.986 3.986 0 0 0-5.011 2.499l-4.9 14.03 1.891.661L9.585 3.354a1.99 1.99 0 0 1 2.507-1.248l44.474 14.236a2.012 2.012 0 0 1 1.337 2.519l-3.738 11.927 1.912.6 3.753-11.973c.635-2.117-.57-4.357-2.67-4.987"/>
        <path d="M41.96 13.248l.641-1.895 1.899.642-.641 1.895zM40.678 17.048l.64-1.894 1.9.642-.642 1.895z"/>
        <path d="M6.703 6.802l.627-1.904 34.078 11.206-.627 1.905zM10.596 12.207l.64-1.9 8.549 2.876-.64 1.9zM22.936 16.36l.649-1.896 4.8 1.643-.649 1.897zM54.803 23.016l.633-1.9 3.007 1.001-.634 1.9z"/>
        <path d="M54.12 37.1a3.01 3.01 0 0 1-3.007 3.007H5.01a3.01 3.01 0 0 1-3.006-3.006V21.065A3.01 3.01 0 0 1 5.01 18.06h46.102a3.01 3.01 0 0 1 3.006 3.006v16.036zm-3.007-21.046H5.01A5.017 5.017 0 0 0 0 21.065v16.036a5.017 5.017 0 0 0 5.011 5.01h46.102a5.017 5.017 0 0 0 5.01-5.01V21.065a5.017 5.017 0 0 0-5.01-5.01z"/>
        <path d="M36.08 20.063h2.004V18.06h-2.005zM36.08 24.072h2.004v-2.004h-2.005zM36.08 28.08h2.004v-2.004h-2.005zM36.08 32.09h2.004v-2.005h-2.005zM36.08 36.098h2.004v-2.004h-2.005zM36.08 40.107h2.004v-2.004h-2.005z"/>
        <path d="M1.002 25.074h54.12V23.07H1.001zM7.015 31.087v-1.002H5.011v3.007h11.024v-2.005zM48.106 29.083h4.009v-2.004h-4.01zM48.106 33.092h4.009v-2.005h-4.01zM48.106 37.1h4.009v-2.004h-4.01zM40.088 29.083h6.013v-2.004h-6.013zM40.088 33.092h4.01v-2.005h-4.01zM40.088 37.1h6.013v-2.004h-6.013zM19.042 29.083H32.07v-2.004H19.04zM19.042 33.092H32.07v-2.005H19.04zM19.042 37.1h9.02v-2.004h-9.02z"/>
        <path d="M9.822 27.48l-1.604 1.202 2.556 3.408-2.556 3.408L9.822 36.7l3.457-4.61z"/>
    </g>
</svg>
