<svg xmlns="http://www.w3.org/2000/svg" width="59" height="42" viewBox="0 0 59 42">
    <path fill="#00D7AF" fill-rule="evenodd" d="M45.947 30.978a4.426 4.426 0 0 1 0-8.851 4.424 4.424 0 0 1 4.426 4.425 4.427 4.427 0 0 1-4.426 4.426M8.267 26.552a4.426 4.426 0 0 1 4.426-4.425 4.425 4.425 0 1 1 0 8.851 4.427 4.427 0 0 1-4.426-4.426m6.729-19.238c5.745-3.781 22.843-3.781 28.586 0 1.116.73 2.551 3.692 3.867 7.316H11.133c1.313-3.623 2.748-6.58 3.864-7.316m43.25 5.514a1.503 1.503 0 0 0-1.163-.552h-5.702c-1.405-3.71-3.24-7.347-5.323-8.72-7.206-4.74-26.325-4.74-33.532 0-2.085 1.375-3.911 5.015-5.325 8.72H1.5c-.453 0-.879.203-1.163.552-.285.35-.399.809-.306 1.253l.845 4.09a1.5 1.5 0 0 0 1.469 1.197h1.688c-1.63 1.881-2.42 4.25-2.431 6.62-.01 2.928 1.101 5.574 3.133 7.446.023.018.045.031.066.052v5.724c0 1.24 1.008 2.25 2.25 2.25h5.26c1.242 0 2.25-1.01 2.25-2.25v-2.3h29.461v2.3c0 1.24 1.008 2.25 2.25 2.25h5.259c1.239 0 2.25-1.01 2.25-2.25V33.6c2.157-1.976 3.188-4.695 3.201-7.407.009-2.451-.818-4.907-2.544-6.827h1.801c.713 0 1.328-.498 1.469-1.198l.846-4.09a1.508 1.508 0 0 0-.308-1.249" opacity=".25"/>
</svg>
