<svg xmlns="http://www.w3.org/2000/svg" xmlns:xlink="http://www.w3.org/1999/xlink" width="521" height="400" viewBox="0 0 521 400">
    <defs>
        <path id="a" d="M0 388.002h434.779V0H0z"/>
    </defs>
    <g fill="none" fill-rule="evenodd">
        <path fill="#00D7AF" fill-opacity=".2" d="M205 382c0 9.94-45.891 18-102.5 18S0 391.94 0 382s45.891-18 102.5-18S205 372.06 205 382"/>
        <path fill="#00D7AF" fill-opacity=".2" d="M360 382c0 9.94-45.891 18-102.5 18S155 391.94 155 382s45.891-18 102.5-18S360 372.06 360 382"/>
        <path fill="#00D7AF" fill-opacity=".2" d="M521 382c0 9.94-45.891 18-102.5 18S316 391.94 316 382s45.891-18 102.5-18S521 372.06 521 382"/>
        <g transform="translate(40)">
            <path fill="#FFF" d="M27.213 238.276a6.211 6.211 0 1 1-12.423-.001 6.211 6.211 0 0 1 12.423 0"/>
            <path stroke="#6D6E71" stroke-width="3" d="M27.213 238.276a6.211 6.211 0 1 1-12.423-.001 6.211 6.211 0 0 1 12.423 0z"/>
            <path fill="#FFF" d="M96.287 238.837a6.211 6.211 0 1 1-12.423 0 6.211 6.211 0 0 1 12.423 0"/>
            <path stroke="#6D6E71" stroke-width="3" d="M96.287 238.837a6.211 6.211 0 1 1-12.423 0 6.211 6.211 0 0 1 12.423 0z"/>
            <path fill="#FFF" d="M44.164 121.13c-29.38 0-29.373 23.927-29.373 53.428v61.394l12.785.008c.068-4.383 2.053-53.934 2.053-62.968 0-5.408.666-15.58.666-15.58h1.573l-1.819 58.26 50.98.162-1.405-58.423 1.66-.015s1.047 10.732 1.088 16.017c.04 5.284 1.364 63.285 1.364 63.285.001.177 12.822-.17 12.822-.17s.861-41.933.861-60.079c0-30.911-.006-55.32-28.94-55.32H44.164z"/>
            <path stroke="#6D6E71" stroke-width="3" d="M44.164 121.13c-29.38 0-29.373 23.927-29.373 53.428v61.394l12.785.008c.068-4.383 2.053-53.934 2.053-62.968 0-5.408.666-15.58.666-15.58h1.573l-1.819 58.26 50.98.162-1.405-58.423 1.66-.015s1.047 10.732 1.088 16.017c.04 5.284 1.364 63.285 1.364 63.285.001.177 12.822-.17 12.822-.17s.861-41.933.861-60.079c0-30.911-.006-55.32-28.94-55.32H44.164z"/>
            <path fill="#8DE2D2" d="M94.82 234.127l-9.537-.06-1.684-67.716s-.434-20.358-7.212-27.918c-5.62-6.268-7.609-6.314-7.609-6.314s.274-2.549.475-4.853c.08-.897.106-4.124.106-4.124s7.488-.214 14.135 4.208c3.252 2.163 5.843 5.341 8.147 10.382 4.538 9.925 3.936 28.526 3.936 43.021 0 9.546-.756 53.374-.756 53.374"/>
            <path fill="#FFF" d="M68.876 115.395s.772 13.372-1.574 18.89c-2.077 4.887-7.911 7.777-11.314 7.777-3.668 0-8.77-1.74-11.445-7.21-2.607-5.335-1.169-19.677-1.169-19.677s6.584 2.853 12.113 2.853c5.531 0 13.39-2.633 13.39-2.633"/>
            <path stroke="#6D6E71" stroke-width="3" d="M68.876 115.395s.772 13.372-1.574 18.89c-2.077 4.887-7.911 7.777-11.314 7.777-3.668 0-8.77-1.74-11.445-7.21-2.607-5.335-1.169-19.677-1.169-19.677s6.584 2.853 12.113 2.853c5.531 0 13.39-2.633 13.39-2.633z"/>
            <path fill="#FFF" d="M82.811 378.232l-18.925-.082-.142-134.862H47.101l-.037 134.944h-17.81V215.223H82.81z"/>
            <path stroke="#6D6E71" stroke-width="3" d="M82.811 378.232l-18.925-.082-.142-134.862H47.101l-.037 134.944h-17.81V215.223H82.81z"/>
            <mask id="b" fill="#fff">
                <use xlink:href="#a"/>
            </mask>
            <path fill="#8DE2D2" d="M70.437 375.193h10.566V217.451H70.437z" mask="url(#b)"/>
            <path fill="#FFF" d="M47.93 375.338l-11.119-.085s-10.698-5.806-15.551-.952c-3.516 3.516-2.638 11.78-2.638 11.78h29.307v-10.743z" mask="url(#b)"/>
            <path stroke="#6D6E71" stroke-width="3" d="M47.93 375.338l-11.119-.085s-10.698-5.806-15.551-.952c-3.516 3.516-2.638 11.78-2.638 11.78h29.307v-10.743z" mask="url(#b)"/>
            <path fill="#FFF" d="M63.051 375.338l11.12-.085s10.697-5.806 15.55-.952c3.516 3.516 2.638 11.78 2.638 11.78H63.05v-10.743z" mask="url(#b)"/>
            <path stroke="#6D6E71" stroke-width="3" d="M63.051 375.338l11.12-.085s10.697-5.806 15.55-.952c3.516 3.516 2.638 11.78 2.638 11.78H63.05v-10.743z" mask="url(#b)"/>
            <path fill="#8DE2D2" d="M46.112 384.288h-25.77s-.814-2.852.682-3.959c1.497-1.106 25.088 0 25.088 0v3.96zM64.759 384.288h25.77s.813-2.852-.684-3.959c-1.495-1.106-25.086 0-25.086 0v3.96z" mask="url(#b)"/>
            <path fill="#FFF" d="M107.217 71.777s.986-7.4-.653-20.077c-1.147-8.874-3.409-11.195-4.773-13.09 0 0 1.153-2.117.607-8.34-.884-10.065-5.68-19.743-5.68-19.743-4.92 3.894-11.164 7.451-17.543 9.745-6.19-2.813-16.834-3.329-24.077-3.329A48.891 48.891 0 0 0 31.22 23.13c-8.093 4.503-14.966 10.532-19.415 18.657-3.846 7-7.31 22.312-5.169 31.175l100.581-1.184z" mask="url(#b)"/>
            <path stroke="#6D6E71" stroke-width="3" d="M107.217 71.777s.986-7.4-.653-20.077c-1.147-8.874-3.409-11.195-4.773-13.09 0 0 1.153-2.117.607-8.34-.884-10.065-5.68-19.743-5.68-19.743-4.92 3.894-11.164 7.451-17.543 9.745-6.19-2.813-16.834-3.329-24.077-3.329A48.891 48.891 0 0 0 31.22 23.13c-8.093 4.503-14.966 10.532-19.415 18.657-3.846 7-7.31 22.312-5.169 31.175l100.581-1.184z" mask="url(#b)"/>
            <path fill="#8DE2D2" d="M37.521 24.576c9.895-4.784 24-2.647 24-2.647s-6.158 2.067-15.977 7.437c-6.762 3.7-2.49 6.822-4.854 6.822-6.284 0-10.42 2.501-13.061 4.146-2.64 1.645-9.482 7.228-11.755 10.224-3.141 4.14-4.567 8.656-4.567 8.656H9.831s1.277-5.674 3.248-11.3c1.396-3.983 4.152-7.944 5.859-9.847 4.117-4.59 8.688-8.706 18.583-13.49" mask="url(#b)"/>
            <path fill="#FFF" d="M1.92 79.086a7.087 7.087 0 0 0 7.088 7.089c2.38 0 3.37-.106 3.37-.106s.39 1.01 1.047 2.87c6.091 17.25 22.54 29.609 41.879 29.609 19.227 0 35.6-12.226 41.77-29.324a128.648 128.648 0 0 0 1.097-3.223s2.78.174 5.131.174a7.086 7.086 0 0 0 7.088-7.089 7.087 7.087 0 0 0-7.088-7.09l-3.604.001s-.015-1.026-.036-1.55c-.106-2.595-.432-3.305-.968-5.767-2.032-9.37-7.898-15.75-7.898-15.75S79.832 55.41 65.9 55.493c-8.565.052-20.298-13.018-27.513-15.159-3.844-1.142-22.657 13.969-25.784 23.175a38.306 38.306 0 0 0-1.29 4.826c-.157.826-.382 3.662-.382 3.662l-1.922-.001a7.087 7.087 0 0 0-7.089 7.09" mask="url(#b)"/>
            <path stroke="#6D6E71" stroke-width="3" d="M1.92 79.086a7.087 7.087 0 0 0 7.088 7.089c2.38 0 3.37-.106 3.37-.106s.39 1.01 1.047 2.87c6.091 17.25 22.54 29.609 41.879 29.609 19.227 0 35.6-12.226 41.77-29.324a128.648 128.648 0 0 0 1.097-3.223s2.78.174 5.131.174a7.086 7.086 0 0 0 7.088-7.089 7.087 7.087 0 0 0-7.088-7.09l-3.604.001s-.015-1.026-.036-1.55c-.106-2.595-.432-3.305-.968-5.767-2.032-9.37-7.898-15.75-7.898-15.75S79.832 55.41 65.9 55.493c-8.565.052-20.298-13.018-27.513-15.159-3.844-1.142-22.657 13.969-25.784 23.175a38.306 38.306 0 0 0-1.29 4.826c-.157.826-.382 3.662-.382 3.662l-1.922-.001a7.087 7.087 0 0 0-7.089 7.09z" mask="url(#b)"/>
            <path fill="#6D6E71" d="M35.085 81.591a3.012 3.012 0 0 1-3.003-3.003V72.68a3.013 3.013 0 0 1 3.003-3.004 3.013 3.013 0 0 1 3.003 3.004v5.908a3.012 3.012 0 0 1-3.003 3.003M76.24 81.591a3.012 3.012 0 0 1-3.003-3.003V72.68a3.013 3.013 0 0 1 3.003-3.004 3.013 3.013 0 0 1 3.003 3.004v5.908a3.012 3.012 0 0 1-3.003 3.003M47.424 98.41c.887 1.415 2.454 5.333 9.487 5.333 7.03 0 7.881-4.32 9.54-5.168 1.54-.787 2.139.61-.223 3.392-1.583 1.866-5.221 3.563-9.317 3.563-7.5 0-11.367-4.853-11.367-6.387 0-1.534 1.149-1.903 1.88-.733" mask="url(#b)"/>
            <path stroke="#6D6E71" stroke-width="3" d="M47.009 75.635c0 6.586-5.339 11.925-11.924 11.925-6.586 0-11.924-5.34-11.924-11.925 0-6.587 0-11.926 11.924-11.926s11.924 5.34 11.924 11.926zM88.164 75.635c0 6.586-5.339 11.925-11.924 11.925-6.586 0-11.925-5.34-11.925-11.925 0-6.587 0-11.926 11.925-11.926 11.924 0 11.924 5.34 11.924 11.926z" mask="url(#b)"/>
            <path fill="#6D6E71" d="M46.41 74.628h17.905v-4.95H46.41zM23.16 73.794L11.23 70.51v-5.783l11.93 3.283zM88.164 74.21l11.93-3.282v-5.784l-11.93 3.282z" mask="url(#b)"/>
            <path fill="#FFF" d="M192.096 237.113a6.212 6.212 0 1 1-12.424.002 6.212 6.212 0 0 1 12.424-.002" mask="url(#b)"/>
            <path stroke="#6D6E71" stroke-width="3" d="M192.096 237.113a6.212 6.212 0 1 1-12.424.002 6.212 6.212 0 0 1 12.424-.002z" mask="url(#b)"/>
            <path fill="#FFF" d="M261.17 237.675a6.212 6.212 0 1 1-12.424.001 6.212 6.212 0 0 1 12.424-.001" mask="url(#b)"/>
            <path stroke="#6D6E71" stroke-width="3" d="M261.17 237.675a6.212 6.212 0 1 1-12.424.001 6.212 6.212 0 0 1 12.424-.001z" mask="url(#b)"/>
            <path fill="#FFF" d="M209.046 119.968c-29.38 0-29.372 23.928-29.372 53.429v61.394l12.785.008c.068-4.383 2.052-53.934 2.052-62.968 0-5.41.667-15.582.667-15.582h1.573s2.526 22.524 2.297 31.833c-.228 9.309-4.116 26.43-4.116 26.43l50.98.161s-4.157-18.737-3.907-27.753c.251-9.016 2.502-30.671 2.502-30.671l1.659-.014s1.048 10.732 1.089 16.017c.04 5.283 1.364 63.285 1.364 63.285 0 .177 12.822-.17 12.822-.17s.86-41.933.86-60.079c0-30.911-.005-55.32-28.94-55.32h-24.315z" mask="url(#b)"/>
            <path stroke="#6D6E71" stroke-width="3" d="M209.046 119.968c-29.38 0-29.372 23.928-29.372 53.429v61.394l12.785.008c.068-4.383 2.052-53.934 2.052-62.968 0-5.41.667-15.582.667-15.582h1.573s2.526 22.524 2.297 31.833c-.228 9.309-4.116 26.43-4.116 26.43l50.98.161s-4.157-18.737-3.907-27.753c.251-9.016 2.502-30.671 2.502-30.671l1.659-.014s1.048 10.732 1.089 16.017c.04 5.283 1.364 63.285 1.364 63.285 0 .177 12.822-.17 12.822-.17s.86-41.933.86-60.079c0-30.911-.005-55.32-28.94-55.32h-24.315z" mask="url(#b)"/>
            <path fill="#8DE2D2" d="M259.703 232.965l-9.538-.06-1.683-67.715s-.434-20.36-7.212-27.918c-5.62-6.268-7.609-6.314-7.609-6.314s.274-2.55.475-4.853c.079-.897.106-4.126.106-4.126s7.488-.212 14.135 4.21c3.252 2.163 5.843 5.341 8.147 10.382 4.538 9.926 3.936 28.526 3.936 43.021 0 9.546-.757 53.373-.757 53.373" mask="url(#b)"/>
            <path fill="#FFF" d="M233.76 114.234s.77 13.372-1.575 18.89c-2.077 4.887-7.911 7.777-11.313 7.777-3.67 0-8.772-1.74-11.446-7.21-2.607-5.337-1.17-19.677-1.17-19.677s7.966 2.377 12.59 2.377c4.623 0 12.913-2.157 12.913-2.157" mask="url(#b)"/>
            <path stroke="#6D6E71" stroke-width="3" d="M233.76 114.234s.77 13.372-1.575 18.89c-2.077 4.887-7.911 7.777-11.313 7.777-3.67 0-8.772-1.74-11.446-7.21-2.607-5.337-1.17-19.677-1.17-19.677s7.966 2.377 12.59 2.377c4.623 0 12.913-2.157 12.913-2.157z" mask="url(#b)"/>
            <path fill="#FFF" d="M247.694 377.072l-18.925-.082-.142-134.863h-16.643l-.037 134.945h-17.81v-163.01h53.557z" mask="url(#b)"/>
            <path stroke="#6D6E71" stroke-width="3" d="M247.694 377.072l-18.925-.082-.142-134.863h-16.643l-.037 134.945h-17.81v-163.01h53.557z" mask="url(#b)"/>
            <path fill="#8DE2D2" d="M235.32 374.031h10.566v-157.74H235.32z" mask="url(#b)"/>
            <path fill="#FFF" d="M239.89 16.998c0 8.326-6.748 15.076-15.075 15.076-8.325 0-15.075-6.75-15.075-15.076 0-8.328 6.75-15.078 15.075-15.078 8.327 0 15.076 6.75 15.076 15.078" mask="url(#b)"/>
            <path stroke="#6D6E71" stroke-linecap="round" stroke-width="3" d="M239.89 16.998c0 8.326-6.748 15.076-15.075 15.076-8.325 0-15.075-6.75-15.075-15.076 0-8.328 6.75-15.078 15.075-15.078 8.327 0 15.076 6.75 15.076 15.078z" mask="url(#b)"/>
            <path fill="#8DE2D2" d="M215.265 11.987c-2.705 4.686-2.357 9.952.778 11.762 3.134 1.81 7.87-.521 10.574-5.207 2.705-4.686 2.357-9.951-.778-11.762-3.136-1.81-7.87.52-10.574 5.207" mask="url(#b)"/>
            <path fill="#FFF" d="M212.812 374.176l-11.118-.086s-10.698-5.805-15.551-.95c-3.516 3.516-2.638 11.781-2.638 11.781h29.307v-10.745z" mask="url(#b)"/>
            <path stroke="#6D6E71" stroke-width="3" d="M212.812 374.176l-11.118-.086s-10.698-5.805-15.551-.95c-3.516 3.516-2.638 11.781-2.638 11.781h29.307v-10.745z" mask="url(#b)"/>
            <path fill="#FFF" d="M227.934 374.176l11.12-.086s10.697-5.805 15.55-.95c3.516 3.516 2.638 11.781 2.638 11.781h-29.308v-10.745z" mask="url(#b)"/>
            <path stroke="#6D6E71" stroke-width="3" d="M227.934 374.176l11.12-.086s10.697-5.805 15.55-.95c3.516 3.516 2.638 11.781 2.638 11.781h-29.308v-10.745z" mask="url(#b)"/>
            <path fill="#8DE2D2" d="M210.995 383.127h-25.77s-.814-2.852.682-3.959c1.497-1.106 25.088 0 25.088 0v3.96zM229.642 383.127h25.77s.813-2.852-.684-3.959c-1.495-1.106-25.086 0-25.086 0v3.96z" mask="url(#b)"/>
            <path fill="#FFF" d="M271.312 70.706c0 29.465-21.846-5.89-51.308-5.89-28.218 0-51.307 40.255-51.307 6.472 0-29.465 22.151-53.315 55.293-53.315 29.461 0 47.322 23.268 47.322 52.733" mask="url(#b)"/>
            <path stroke="#6D6E71" stroke-width="3" d="M271.312 70.706c0 29.465-21.846-5.89-51.308-5.89-28.218 0-51.307 40.255-51.307 6.472 0-29.465 22.151-53.315 55.293-53.315 29.461 0 47.322 23.268 47.322 52.733z" mask="url(#b)"/>
            <path fill="#8DE2D2" d="M200.73 26.231c9.747-4.714 23.643-4.462 23.643-4.462s-16.604 6.854-21.666 13.637c-4.54 6.088.35 14.255-1.978 14.255-6.19 0-10.864-3.028-11.92-3.464-1.054-.437-4.168-1.425-4.168-1.425s-5.335 5.875-7.061 10.466c-.863 2.295-2.892 8.246-2.892 8.246h-2.231s1.356-6.39 3.298-11.932c1.376-3.925 5.981-10.543 7.663-12.417 4.057-4.523 7.562-8.189 17.311-12.904" mask="url(#b)"/>
            <path fill="#FFF" d="M273.214 78.642a6.982 6.982 0 0 1-6.985 6.986c-2.345 0-3.319-.105-3.319-.105s-.386.994-1.033 2.828c-6 16.994-22.205 29.17-41.259 29.17-18.942 0-35.072-12.043-41.15-28.889-.5-1.382-1.082-3.177-1.082-3.177s-2.74.173-5.056.173a6.982 6.982 0 0 1-6.984-6.986 6.983 6.983 0 0 1 6.984-6.985l3.55.001s.016-1.01.036-1.528c.104-2.554.426-3.254.954-5.678 2.001-9.233 7.78-15.52 7.78-15.52s34.839 12.615 52.075 14.552c17.683 1.99 25.402.454 25.402.454s1.036 3.832 1.165 6.095c.048.83.044 1.625.044 1.625l1.893-.001a6.983 6.983 0 0 1 6.985 6.985" mask="url(#b)"/>
            <path stroke="#6D6E71" stroke-width="3" d="M273.214 78.642a6.982 6.982 0 0 1-6.985 6.986c-2.345 0-3.319-.105-3.319-.105s-.386.994-1.033 2.828c-6 16.994-22.205 29.17-41.259 29.17-18.942 0-35.072-12.043-41.15-28.889-.5-1.382-1.082-3.177-1.082-3.177s-2.74.173-5.056.173a6.982 6.982 0 0 1-6.984-6.986 6.983 6.983 0 0 1 6.984-6.985l3.55.001s.016-1.01.036-1.528c.104-2.554.426-3.254.954-5.678 2.001-9.233 7.78-15.52 7.78-15.52s34.839 12.615 52.075 14.552c17.683 1.99 25.402.454 25.402.454s1.036 3.832 1.165 6.095c.048.83.044 1.625.044 1.625l1.893-.001a6.983 6.983 0 0 1 6.985 6.985z" mask="url(#b)"/>
            <path fill="#6D6E71" d="M200.991 83.13a2.9 2.9 0 0 1-2.891-2.892V74.55a2.9 2.9 0 0 1 2.891-2.892 2.9 2.9 0 0 1 2.892 2.892v5.688a2.9 2.9 0 0 1-2.892 2.892M240.616 83.13a2.9 2.9 0 0 1-2.891-2.892V74.55a2.9 2.9 0 0 1 2.891-2.892 2.9 2.9 0 0 1 2.891 2.892v5.688a2.9 2.9 0 0 1-2.891 2.892" mask="url(#b)"/>
            <path fill="#6D6E71" d="M198.422 73.296v3.358s-1.123-.897-1.733-1.509c-.612-.61-.837-1.35-1.282-2.148-.446-.798-.698-2.259-.06-1.516.413.478.948 1.068 1.591 1.712.572.57 1.484.103 1.484.103M242.767 73.296v3.358s1.123-.897 1.733-1.509c.612-.61.837-1.35 1.282-2.148.445-.798.697-2.259.059-1.516a31.505 31.505 0 0 1-1.59 1.712c-.572.57-1.484.103-1.484.103M210.591 99.89c.948 1.516 2.624 5.704 10.143 5.704 7.52 0 8.429-4.62 10.202-5.527 1.647-.843 2.288.653-.238 3.63-1.692 1.994-5.583 3.808-9.964 3.808-8.02 0-12.154-5.188-12.154-6.83 0-1.64 1.228-2.034 2.011-.784" mask="url(#b)"/>
            <path fill="#FFF" d="M431.004 70.781c0 28.745-19.325 49.775-48.066 49.775-7.653 0-28.289 23.806-34.833 27.548-16.12 9.218-16.359-8.537-16.792-26.904-.416-17.57-.416-47.614-.416-49.852 0-28.745 21.612-52.011 53.942-52.011 28.741 0 46.165 22.698 46.165 51.444" mask="url(#b)"/>
            <path stroke="#6D6E71" stroke-width="3" d="M431.004 70.781c0 28.745-19.325 49.775-48.066 49.775-7.653 0-28.289 23.806-34.833 27.548-16.12 9.218-16.359-8.537-16.792-26.904-.416-17.57-.416-47.614-.416-49.852 0-28.745 21.612-52.011 53.942-52.011 28.741 0 46.165 22.698 46.165 51.444z" mask="url(#b)"/>
            <path fill="#FFF" d="M352.314 237.113a6.21 6.21 0 1 1-12.422 0 6.21 6.21 0 1 1 12.422 0" mask="url(#b)"/>
            <path stroke="#6D6E71" stroke-width="3" d="M352.314 237.113a6.21 6.21 0 1 1-12.422 0 6.21 6.21 0 1 1 12.422 0z" mask="url(#b)"/>
            <path fill="#FFF" d="M421.388 237.675a6.212 6.212 0 1 1-12.423.001 6.212 6.212 0 0 1 12.423-.001" mask="url(#b)"/>
            <path stroke="#6D6E71" stroke-width="3" d="M421.388 237.675a6.212 6.212 0 1 1-12.423.001 6.212 6.212 0 0 1 12.423-.001z" mask="url(#b)"/>
            <path fill="#FFF" d="M369.265 119.968c-29.38 0-29.372 23.928-29.372 53.429v61.394l12.785.008c.068-4.383 2.052-53.934 2.052-62.968 0-5.41.667-15.582.667-15.582h1.573s2.526 22.524 2.297 31.833c-.228 9.309-4.116 26.43-4.116 26.43l50.98.161s-4.157-18.737-3.907-27.753c.251-9.016 2.5-30.671 2.5-30.671l1.66-.014s1.049 10.732 1.09 16.017c.04 5.283 1.364 63.285 1.364 63.285 0 .177 12.822-.17 12.822-.17s.86-41.933.86-60.079c0-30.911-.006-55.32-28.94-55.32h-24.315z" mask="url(#b)"/>
            <path stroke="#6D6E71" stroke-width="3" d="M369.265 119.968c-29.38 0-29.372 23.928-29.372 53.429v61.394l12.785.008c.068-4.383 2.052-53.934 2.052-62.968 0-5.41.667-15.582.667-15.582h1.573s2.526 22.524 2.297 31.833c-.228 9.309-4.116 26.43-4.116 26.43l50.98.161s-4.157-18.737-3.907-27.753c.251-9.016 2.5-30.671 2.5-30.671l1.66-.014s1.049 10.732 1.09 16.017c.04 5.283 1.364 63.285 1.364 63.285 0 .177 12.822-.17 12.822-.17s.86-41.933.86-60.079c0-30.911-.006-55.32-28.94-55.32h-24.315z" mask="url(#b)"/>
            <path fill="#8DE2D2" d="M419.922 232.965l-9.538-.06-1.683-67.715s-.434-20.36-7.213-27.918c-5.619-6.268-7.608-6.314-7.608-6.314s.274-2.55.474-4.853c.08-.897.107-4.126.107-4.126s7.488-.212 14.135 4.21c3.252 2.163 5.843 5.341 8.147 10.382 4.538 9.926 3.935 28.526 3.935 43.021 0 9.546-.756 53.373-.756 53.373" mask="url(#b)"/>
            <path fill="#FFF" d="M393.978 114.234s.771 13.372-1.574 18.89c-2.077 4.887-7.912 7.777-11.314 7.777-3.669 0-8.771-1.74-11.445-7.21-2.608-5.337-1.17-19.677-1.17-19.677s7.966 2.377 12.59 2.377c4.622 0 12.913-2.157 12.913-2.157" mask="url(#b)"/>
            <path stroke="#6D6E71" stroke-width="3" d="M393.978 114.234s.771 13.372-1.574 18.89c-2.077 4.887-7.912 7.777-11.314 7.777-3.669 0-8.771-1.74-11.445-7.21-2.608-5.337-1.17-19.677-1.17-19.677s7.966 2.377 12.59 2.377c4.622 0 12.913-2.157 12.913-2.157z" mask="url(#b)"/>
            <path fill="#FFF" d="M407.913 377.072l-18.925-.082-.142-134.863h-16.643l-.037 134.945h-17.81v-163.01h53.557z" mask="url(#b)"/>
            <path stroke="#6D6E71" stroke-width="3" d="M407.913 377.072l-18.925-.082-.142-134.863h-16.643l-.037 134.945h-17.81v-163.01h53.557z" mask="url(#b)"/>
            <path fill="#8DE2D2" d="M362.147 27.393c9.51-4.6 23.066-4.353 23.066-4.353s-16.2 6.686-21.135 13.303c-4.431 5.938.34 13.905-1.931 13.905-6.039 0-10.6-2.952-11.629-3.378-1.028-.426-4.066-1.39-4.066-1.39s-5.204 5.732-6.888 10.21c-.842 2.238-2.821 8.045-2.821 8.045h-2.176s1.323-6.234 3.216-11.64c1.342-3.829 5.836-10.286 7.476-12.114 3.957-4.411 7.378-7.989 16.888-12.588" mask="url(#b)"/>
            <path fill="#FFF" d="M432.86 78.522a6.812 6.812 0 0 1-6.814 6.814c-2.289 0-3.238-.1-3.238-.1s-.377.97-1.008 2.757c-5.853 16.58-21.662 28.457-40.25 28.457-18.479 0-34.214-11.748-40.146-28.183-.486-1.348-1.054-3.098-1.054-3.098s-2.673.167-4.932.167a6.812 6.812 0 0 1-6.813-6.814 6.812 6.812 0 0 1 6.813-6.814c1.777 0 3.463.002 3.463.002s.014-.987.035-1.491c.1-2.494.416-3.176.931-5.54 1.953-9.007 7.591-15.14 7.591-15.14s33.985 12.306 50.8 14.196c17.25 1.94 24.781.442 24.781.442s1.01 3.737 1.138 5.947c.044.808.042 1.586.042 1.586s.047-.002 1.847-.002a6.812 6.812 0 0 1 6.813 6.814" mask="url(#b)"/>
            <path stroke="#6D6E71" stroke-width="3" d="M432.86 78.522a6.812 6.812 0 0 1-6.814 6.814c-2.289 0-3.238-.1-3.238-.1s-.377.97-1.008 2.757c-5.853 16.58-21.662 28.457-40.25 28.457-18.479 0-34.214-11.748-40.146-28.183-.486-1.348-1.054-3.098-1.054-3.098s-2.673.167-4.932.167a6.812 6.812 0 0 1-6.813-6.814 6.812 6.812 0 0 1 6.813-6.814c1.777 0 3.463.002 3.463.002s.014-.987.035-1.491c.1-2.494.416-3.176.931-5.54 1.953-9.007 7.591-15.14 7.591-15.14s33.985 12.306 50.8 14.196c17.25 1.94 24.781.442 24.781.442s1.01 3.737 1.138 5.947c.044.808.042 1.586.042 1.586s.047-.002 1.847-.002a6.812 6.812 0 0 1 6.813 6.814z" mask="url(#b)"/>
            <path fill="#6D6E71" d="M371.502 96.637c.893 1.425 2.473 5.372 9.557 5.372 7.084 0 7.941-4.352 9.61-5.207 1.553-.793 2.155.615-.223 3.419-1.596 1.88-5.261 3.588-9.387 3.588-7.558 0-11.452-4.888-11.452-6.434 0-1.546 1.158-1.917 1.895-.738M362.48 80.593a2.713 2.713 0 0 1-2.707-2.705v-5.322a2.714 2.714 0 0 1 2.706-2.706 2.714 2.714 0 0 1 2.706 2.706v5.322a2.713 2.713 0 0 1-2.706 2.705M399.554 80.593a2.713 2.713 0 0 1-2.706-2.705v-5.322a2.714 2.714 0 0 1 2.706-2.706 2.713 2.713 0 0 1 2.705 2.706v5.322a2.712 2.712 0 0 1-2.705 2.705" mask="url(#b)"/>
            <path fill="#6D6E71" d="M360.075 71.393v3.142s-1.051-.841-1.622-1.412c-.572-.573-.783-1.264-1.2-2.011-.416-.748-.652-2.113-.055-1.418.386.447.887.998 1.49 1.602.534.535 1.387.097 1.387.097M401.566 71.393v3.142s1.052-.841 1.622-1.412c.572-.573.783-1.264 1.2-2.011.416-.748.653-2.113.055-1.418-.386.447-.886.998-1.489 1.602-.535.535-1.388.097-1.388.097" mask="url(#b)"/>
            <path fill="#8DE2D2" d="M395.54 374.031h10.566v-157.74h-10.567z" mask="url(#b)"/>
            <path fill="#FFF" d="M373.031 374.176l-11.12-.086s-10.696-5.805-15.55-.95c-3.515 3.516-2.637 11.781-2.637 11.781h29.307v-10.745z" mask="url(#b)"/>
            <path stroke="#6D6E71" stroke-width="3" d="M373.031 374.176l-11.12-.086s-10.696-5.805-15.55-.95c-3.515 3.516-2.637 11.781-2.637 11.781h29.307v-10.745z" mask="url(#b)"/>
            <path fill="#FFF" d="M388.153 374.176l11.12-.086s10.697-5.805 15.55-.95c3.515 3.516 2.638 11.781 2.638 11.781h-29.308v-10.745z" mask="url(#b)"/>
            <path stroke="#6D6E71" stroke-width="3" d="M388.153 374.176l11.12-.086s10.697-5.805 15.55-.95c3.515 3.516 2.638 11.781 2.638 11.781h-29.308v-10.745z" mask="url(#b)"/>
            <path fill="#8DE2D2" d="M371.214 383.127h-25.77s-.814-2.852.682-3.959c1.497-1.106 25.088 0 25.088 0v3.96zM389.86 383.127h25.77s.814-2.852-.683-3.959c-1.495-1.106-25.086 0-25.086 0v3.96z" mask="url(#b)"/>
        </g>
    </g>
</svg>
