<svg width="78" height="78" viewBox="0 0 78 78" fill="none" xmlns="http://www.w3.org/2000/svg">
<g filter="url(#filter0_d)">
<circle cx="39" cy="33" r="24" fill="white"/>
<path d="M47 34C47.5523 34 48 33.5523 48 33C48 32.4477 47.5523 32 47 32L47 34ZM30.2929 32.2929C29.9024 32.6834 29.9024 33.3166 30.2929 33.7071L36.6569 40.0711C37.0474 40.4616 37.6805 40.4616 38.0711 40.0711C38.4616 39.6805 38.4616 39.0474 38.0711 38.6569L32.4142 33L38.0711 27.3431C38.4616 26.9526 38.4616 26.3195 38.0711 25.9289C37.6805 25.5384 37.0474 25.5384 36.6569 25.9289L30.2929 32.2929ZM47 32L31 32L31 34L47 34L47 32Z" fill="#46737A"/>
</g>
<defs>
<filter id="filter0_d" x="0" y="0" width="78" height="78" filterUnits="userSpaceOnUse" color-interpolation-filters="sRGB">
<feFlood flood-opacity="0" result="BackgroundImageFix"/>
<feColorMatrix in="SourceAlpha" type="matrix" values="0 0 0 0 0 0 0 0 0 0 0 0 0 0 0 0 0 0 127 0"/>
<feOffset dy="6"/>
<feGaussianBlur stdDeviation="7.5"/>
<feColorMatrix type="matrix" values="0 0 0 0 0 0 0 0 0 0 0 0 0 0 0 0 0 0 0.05 0"/>
<feBlend mode="normal" in2="BackgroundImageFix" result="effect1_dropShadow"/>
<feBlend mode="normal" in="SourceGraphic" in2="effect1_dropShadow" result="shape"/>
</filter>
</defs>
</svg>
