<svg xmlns="http://www.w3.org/2000/svg" xmlns:xlink="http://www.w3.org/1999/xlink" width="26" height="27" viewBox="0 0 26 27">
    <defs>
        <linearGradient id="a" x1="50%" x2="50%" y1="0%" y2="100%">
            <stop offset="0%" stop-color="#00EDD8"/>
            <stop offset="100%" stop-color="#00D7AF"/>
        </linearGradient>
        <circle id="b" cx="13" cy="13" r="13"/>
    </defs>
    <g fill="none" fill-rule="evenodd">
        <circle cx="13" cy="13.722" r="13" fill="url(#a)"/>
        <mask id="c" fill="#fff">
            <use xlink:href="#b"/>
        </mask>
        <use fill="url(#a)" xlink:href="#b"/>
        <g fill="#000" mask="url(#c)" opacity=".3" style="mix-blend-mode:overlay">
            <path d="M19.5 22.389c-1.913 0-2.9.738-3.77 1.39-.779.58-1.393 1.04-2.73 1.04-1.336 0-1.95-.46-2.728-1.04-.871-.652-1.859-1.39-3.772-1.39-1.913 0-2.9.738-3.771 1.39-.778.58-1.392 1.04-2.729 1.04v1.823c1.913 0 2.9-.739 3.771-1.39.778-.581 1.392-1.04 2.73-1.04 1.336 0 1.95.459 2.728 1.04.871.651 1.858 1.39 3.771 1.39 1.914 0 2.9-.739 3.772-1.39.777-.581 1.392-1.04 2.728-1.04 1.337 0 1.951.459 2.729 1.04.87.651 1.858 1.39 3.771 1.39v-1.823c-1.337 0-1.95-.46-2.728-1.04-.871-.652-1.859-1.39-3.772-1.39zM23.272 18.017c-.871-.659-1.859-1.406-3.772-1.406-1.913 0-2.9.747-3.77 1.406-.779.589-1.393 1.054-2.73 1.054-1.336 0-1.95-.465-2.728-1.054-.871-.659-1.859-1.406-3.772-1.406-1.913 0-2.9.747-3.771 1.406-.778.589-1.392 1.054-2.729 1.054v1.845c1.913 0 2.9-.747 3.771-1.407.778-.588 1.392-1.053 2.73-1.053 1.336 0 1.95.465 2.728 1.053.871.66 1.858 1.407 3.771 1.407 1.914 0 2.9-.747 3.772-1.407.777-.588 1.392-1.053 2.728-1.053 1.337 0 1.951.465 2.729 1.053.87.66 1.858 1.407 3.771 1.407V19.07c-1.337 0-1.95-.465-2.728-1.054M23.272 11.517c-.871-.659-1.859-1.406-3.772-1.406-1.913 0-2.9.747-3.77 1.406-.779.589-1.393 1.054-2.73 1.054-1.336 0-1.95-.465-2.728-1.054-.871-.659-1.859-1.406-3.772-1.406-1.913 0-2.9.747-3.771 1.406-.778.589-1.392 1.054-2.729 1.054v1.845c1.913 0 2.9-.747 3.771-1.407.778-.588 1.392-1.053 2.73-1.053 1.336 0 1.95.465 2.728 1.053.871.66 1.858 1.407 3.771 1.407 1.914 0 2.9-.747 3.772-1.407.777-.588 1.392-1.053 2.728-1.053 1.337 0 1.951.465 2.729 1.053.87.66 1.858 1.407 3.771 1.407V12.57c-1.337 0-1.95-.465-2.728-1.054M23.272 5.723c-.871-.652-1.859-1.39-3.772-1.39-1.913 0-2.9.738-3.77 1.39-.779.581-1.393 1.04-2.73 1.04-1.336 0-1.95-.459-2.728-1.04C9.4 5.07 8.413 4.333 6.5 4.333c-1.913 0-2.9.738-3.771 1.39-.778.581-1.392 1.04-2.729 1.04v1.823c1.913 0 2.9-.738 3.771-1.39.778-.58 1.392-1.04 2.73-1.04 1.336 0 1.95.46 2.728 1.04.871.652 1.858 1.39 3.771 1.39 1.914 0 2.9-.738 3.772-1.39.777-.58 1.392-1.04 2.728-1.04 1.337 0 1.951.46 2.729 1.04.87.652 1.858 1.39 3.771 1.39V6.763c-1.337 0-1.95-.459-2.728-1.04M19.5-1.444c-1.913 0-2.9.738-3.77 1.389C14.95.526 14.336.985 13 .985c-1.336 0-1.95-.459-2.728-1.04C9.4-.706 8.413-1.445 6.5-1.445c-1.913 0-2.9.739-3.771 1.39C1.95.526 1.337.985 0 .985v1.823c1.913 0 2.9-.738 3.771-1.39.778-.58 1.392-1.04 2.73-1.04 1.336 0 1.95.46 2.728 1.04.871.652 1.858 1.39 3.771 1.39 1.914 0 2.9-.738 3.772-1.39.777-.58 1.392-1.04 2.728-1.04 1.337 0 1.951.46 2.729 1.04.87.652 1.858 1.39 3.771 1.39V.986c-1.337 0-1.95-.46-2.728-1.041-.871-.651-1.859-1.39-3.772-1.39z"/>
        </g>
        <path fill="#FFF" d="M12.828 12.025c0 1.196-.353 2.12-1.058 2.773-.706.652-1.708.978-3.008.978H7.95v3.553H5.056V8.619h3.706c1.353 0 2.37.295 3.048.886.679.59 1.018 1.43 1.018 2.52zM7.95 13.417h.528c.434 0 .78-.122 1.036-.366.257-.245.385-.582.385-1.011 0-.723-.4-1.085-1.202-1.085H7.95v2.462zm9.088 5.414a8.71 8.71 0 0 1-3.092-.718V15.68c.567.288 1.182.528 1.847.721.664.193 1.247.29 1.75.29.416 0 .72-.05.912-.15.193-.1.29-.268.29-.503a.51.51 0 0 0-.209-.41c-.14-.112-.371-.24-.696-.38a23.434 23.434 0 0 0-1.315-.514c-.62-.23-1.12-.487-1.502-.772-.38-.286-.658-.606-.831-.96-.174-.354-.26-.795-.26-1.322 0-.806.259-1.436.776-1.89.518-.455 1.295-.735 2.33-.843V7.944h1.516v.99c.972.053 1.951.292 2.938.717l-.872 2.088c-1.02-.459-1.941-.688-2.762-.688-.39 0-.665.047-.824.142a.462.462 0 0 0-.238.422c0 .16.058.294.172.399.115.105.314.222.597.352.284.129.677.28 1.18.45 1.02.362 1.753.773 2.198 1.235.444.461.666 1.056.666 1.783 0 .82-.26 1.488-.78 2-.52.513-1.278.83-2.275.953V20.2h-1.516v-1.37z"/>
    </g>
</svg>
