<svg xmlns="http://www.w3.org/2000/svg" width="58" height="60" viewBox="0 0 58 60">
    <g fill="none" fill-rule="evenodd">
        <path fill="#00D7AF" d="M39.498 5.54V1.53a1.5 1.5 0 0 1 1.5-1.5h.38a1.5 1.5 0 0 1 1.5 1.5V5.54h.029c8.284 0 15 6.716 15 15V45c0 8.284-6.716 15-15 15H15C6.716 60 0 53.284 0 45V20.54C0 12.497 6.33 5.932 14.28 5.557V1.53a1.5 1.5 0 0 1 1.5-1.5h.381a1.5 1.5 0 0 1 1.5 1.5V5.54h21.837z" opacity=".25"/>
        <path fill="#FFF" d="M0 20.282h57.907v3.38H0z"/>
    </g>
</svg>
