<?xml version="1.0" encoding="utf-8"?>
<!-- Generator: Adobe Illustrator 22.1.0, SVG Export Plug-In . SVG Version: 6.00 Build 0)  -->
<svg version="1.1" id="Layer_1" xmlns="http://www.w3.org/2000/svg" xmlns:xlink="http://www.w3.org/1999/xlink" x="0px" y="0px"
	 viewBox="0 0 92.1 49.7" style="enable-background:new 0 0 92.1 49.7;" xml:space="preserve">
<style type="text/css">
	.st0{fill:#ED1C24;}
	.st1{fill:#FFFFFF;}
</style>
<polyline class="st0" points="92.1,0 92.1,49.7 0,49.7 0,0 "/>
<polygon class="st1" points="49.3,7 54.1,7 54.1,5.9 38.5,5.9 38.5,7 43.2,7 43.2,42.6 38.5,42.6 38.5,43.6 54.1,43.6 54.1,42.6 
	49.3,42.6 49.3,7 "/>
<path class="st1" d="M35.5,16.8h-1.2c0,0-1.2-10.6-11.4-10.6c-9.4,0-10.1,8.8-10.1,16.1c0,11.5,1.2,20.9,10.6,20.9
	c10.1,0,11.8-10.6,11.8-10.6h1.1v11h-0.7l-2.2-2.3c0,0-4.2,3-10,3c-10.1,0-17.7-8.7-17.7-19c0-10.9,7-19.9,16.9-19.9
	c6,0,9.2,3.3,9.2,3.3L34.5,6h0.8L35.5,16.8L35.5,16.8z"/>
<path class="st1" d="M70.5,5.5c-9.9,0-16.2,10.9-16.2,19.4c0,8.5,6.3,19.5,16.2,19.5c9.9,0,16.2-10.9,16.2-19.5
	C86.6,16.4,80.4,5.5,70.5,5.5z M70.5,43.3c-9.7,0-9.2-9.5-9.2-18.4S60.7,6.3,70.5,6.3s9.2,9.6,9.2,18.6S80.2,43.3,70.5,43.3z"/>
</svg>
