<svg width="80" height="78" viewBox="0 0 80 78" fill="none" xmlns="http://www.w3.org/2000/svg">
<path d="M58.0039 40.0598V36.9707H68.6422V40.0598H58.0039Z" fill="#6480EB"/>
<path d="M52.308 55.6697C51.4583 55.6697 50.7695 54.9782 50.7695 54.1251C50.7695 53.2721 51.4583 52.5806 52.308 52.5806H69.1682C72.5669 52.5806 75.3221 55.3466 75.3221 58.7588V64.8055C75.3221 65.6586 74.6333 66.3501 73.7836 66.3501C72.9339 66.3501 72.2451 65.6586 72.2451 64.8055V58.7588C72.2451 57.0527 70.8676 55.6697 69.1682 55.6697H52.308Z" fill="#6480EB"/>
<path d="M52.308 24.45C51.4583 24.45 50.7695 23.7585 50.7695 22.9054C50.7695 22.0524 51.4583 21.3609 52.308 21.3609H68.9365C70.6358 21.3609 72.0134 19.9778 72.0134 18.2718V13.0466C72.0134 12.1935 72.7022 11.502 73.5519 11.502C74.4015 11.502 75.0903 12.1935 75.0903 13.0466V18.2718C75.0903 21.6839 72.3351 24.45 68.9365 24.45H52.308Z" fill="#6480EB"/>
<path d="M12.1777 40.0598V36.9707H22.816V40.0598H12.1777Z" fill="#6480EB"/>
<path d="M5.31836 12.225C5.31836 11.3719 6.00715 10.6804 6.85682 10.6804C7.70649 10.6804 8.39528 11.3719 8.39528 12.225V18.2717C8.39528 19.9778 9.77287 21.3608 11.4722 21.3608H28.4607C29.3104 21.3608 29.9992 22.0524 29.9992 22.9054C29.9992 23.7584 29.3104 24.45 28.4607 24.45H11.4722C8.07353 24.45 5.31836 21.6839 5.31836 18.2717V12.225Z" fill="#6480EB"/>
<path d="M8.39528 64.8055C8.39528 65.6586 7.70649 66.3501 6.85682 66.3501C6.00715 66.3501 5.31836 65.6586 5.31836 64.8055V58.7588C5.31836 55.3466 8.07353 52.5806 11.4722 52.5806H27.6915C28.5412 52.5806 29.23 53.2721 29.23 54.1251C29.23 54.9782 28.5412 55.6697 27.6915 55.6697H11.4722C9.77287 55.6697 8.39528 57.0527 8.39528 58.7588V64.8055Z" fill="#6480EB"/>
<path d="M73.1428 45.7697C69.3554 45.7697 66.2852 42.6873 66.2852 38.885C66.2852 35.0826 69.3554 32.0002 73.1428 32.0002C76.9301 32.0002 80.0004 35.0826 80.0004 38.885C80.0004 42.6873 76.9301 45.7697 73.1428 45.7697ZM73.1428 42.6806C75.2308 42.6806 76.9235 40.9812 76.9235 38.885C76.9235 36.7887 75.2308 35.0893 73.1428 35.0893C71.0548 35.0893 69.3621 36.7887 69.3621 38.885C69.3621 40.9812 71.0548 42.6806 73.1428 42.6806Z" fill="#6480EB"/>
<path d="M73.1428 77.77C69.3554 77.77 66.2852 74.6876 66.2852 70.8852C66.2852 67.0828 69.3554 64.0004 73.1428 64.0004C76.9301 64.0004 80.0004 67.0828 80.0004 70.8852C80.0004 74.6876 76.9301 77.77 73.1428 77.77ZM73.1428 74.6809C75.2308 74.6809 76.9235 72.9815 76.9235 70.8852C76.9235 68.7889 75.2308 67.0895 73.1428 67.0895C71.0548 67.0895 69.3621 68.7889 69.3621 70.8852C69.3621 72.9815 71.0548 74.6809 73.1428 74.6809Z" fill="#6480EB"/>
<path d="M73.1428 13.7695C69.3554 13.7695 66.2852 10.6871 66.2852 6.88477C66.2852 3.08242 69.3554 0 73.1428 0C76.9301 0 80.0004 3.08242 80.0004 6.88477C80.0004 10.6871 76.9301 13.7695 73.1428 13.7695ZM73.1428 10.6804C75.2308 10.6804 76.9235 8.98106 76.9235 6.88477C76.9235 4.78848 75.2308 3.08911 73.1428 3.08911C71.0548 3.08911 69.3621 4.78848 69.3621 6.88477C69.3621 8.98106 71.0548 10.6804 73.1428 10.6804Z" fill="#6480EB"/>
<path d="M6.85761 45.8109C3.07026 45.8109 0 42.7284 0 38.9261C0 35.1237 3.07026 32.0413 6.85761 32.0413C10.645 32.0413 13.7152 35.1237 13.7152 38.9261C13.7152 42.7284 10.645 45.8109 6.85761 45.8109ZM6.85761 42.7217C8.94563 42.7217 10.6383 41.0224 10.6383 38.9261C10.6383 36.8298 8.94563 35.1304 6.85761 35.1304C4.76959 35.1304 3.07692 36.8298 3.07692 38.9261C3.07692 41.0224 4.76959 42.7217 6.85761 42.7217Z" fill="#6480EB"/>
<path d="M6.85761 13.7695C3.07026 13.7695 0 10.6871 0 6.88477C0 3.08242 3.07026 0 6.85761 0C10.645 0 13.7152 3.08242 13.7152 6.88477C13.7152 10.6871 10.645 13.7695 6.85761 13.7695ZM6.85761 10.6804C8.94563 10.6804 10.6383 8.98106 10.6383 6.88477C10.6383 4.78848 8.94563 3.08911 6.85761 3.08911C4.76959 3.08911 3.07692 4.78848 3.07692 6.88477C3.07692 8.98106 4.76959 10.6804 6.85761 10.6804Z" fill="#6480EB"/>
<path d="M6.85761 77.8521C3.07026 77.8521 0 74.7697 0 70.9673C0 67.165 3.07026 64.0826 6.85761 64.0826C10.645 64.0826 13.7152 67.165 13.7152 70.9673C13.7152 74.7697 10.645 77.8521 6.85761 77.8521ZM6.85761 74.763C8.94563 74.763 10.6383 73.0636 10.6383 70.9673C10.6383 68.8711 8.94563 67.1717 6.85761 67.1717C4.76959 67.1717 3.07692 68.8711 3.07692 70.9673C3.07692 73.0636 4.76959 74.763 6.85761 74.763Z" fill="#6480EB"/>
<path d="M19.9863 27.5291C19.9863 26.676 20.6751 25.9845 21.5248 25.9845H59.3349C60.1845 25.9845 60.8733 26.676 60.8733 27.5291V50.1109C60.8733 50.6623 60.5805 51.1719 60.1051 51.448L41.2 62.4248C40.7235 62.7015 40.1361 62.7015 39.6596 62.4248L20.7546 51.448C20.2791 51.1719 19.9863 50.6623 19.9863 50.1109V27.5291ZM23.0633 29.0736V49.2199L40.4298 59.3035L57.7964 49.2199V29.0736H23.0633Z" fill="#6480EB"/>
<path d="M39.4237 14.8794C39.9067 14.588 40.5097 14.585 40.9956 14.8716L60.1142 26.1495C61.1391 26.754 61.123 28.2472 60.0854 28.8294L40.9668 39.5572C40.4957 39.8215 39.9212 39.8187 39.4527 39.5498L20.7613 28.8221C19.741 28.2365 19.725 26.7651 20.7323 26.1573L39.4237 14.8794Z" fill="#6480EB"/>
<path d="M40.2249 17.9999L24.5664 27.4478L40.2246 36.4347L56.241 27.4476L40.2249 17.9999Z" fill="#F1F4FE"/>
<path d="M27.6719 31.5093C27.6719 30.6562 28.3607 29.9647 29.2103 29.9647H51.6772C52.5269 29.9647 53.2157 30.6562 53.2157 31.5093V45.0584C53.2157 45.6197 52.9124 46.1368 52.4235 46.4091L41.19 52.6651C40.7258 52.9236 40.1617 52.9236 39.6975 52.6651L28.4641 46.4091C27.9752 46.1368 27.6719 45.6197 27.6719 45.0584V31.5093ZM30.7488 33.0538V44.1489L40.4438 49.5481L50.1387 44.1489V33.0538H30.7488Z" fill="#00D7AF"/>
<path d="M39.5187 23.7302C40.0044 23.4343 40.6132 23.4312 41.1018 23.7223L52.4622 30.489C53.4795 31.095 53.4635 32.5789 52.4333 33.1625L41.073 39.5992C40.599 39.8677 40.019 39.8649 39.5477 39.5917L28.4412 33.1551C27.4284 32.5681 27.4124 31.1061 28.4122 30.497L39.5187 23.7302Z" fill="#00D7AF"/>
<path d="M40.3259 26.8519L32.2305 31.7842L40.3256 36.4756L48.6061 31.784L40.3259 26.8519Z" fill="#F1F4FE"/>
</svg>
