<svg xmlns="http://www.w3.org/2000/svg" width="1193" height="634" viewBox="0 0 1193 634">
    <defs>
        <linearGradient id="a" x1="5.586%" x2="89.693%" y1="42.916%" y2="76.712%">
            <stop offset="0%" stop-color="#00D7AF"/>
            <stop offset="100%" stop-color="#46737A"/>
        </linearGradient>
        <linearGradient id="b" x1="8.054%" x2="84.433%" y1="21.454%" y2="63.075%">
            <stop offset="0%" stop-color="#00D7AF"/>
            <stop offset="100%" stop-color="#46737A"/>
        </linearGradient>
    </defs>
    <g fill="none" fill-rule="evenodd">
        <path fill="url(#a)" d="M926.037 956.58c-12.459-97.16-53.8-203.476-120.854-306.237-37.716-57.479-83.315-113.835-136.601-166.838-39.026-38.82-79.922-73.726-121.766-104.143-65.957-48.238-134.16-85.843-201.25-112.051a771.007 771.007 0 0 0-21.122-7.732c-9.007-4.664-16.973-10.365-24.102-17.457-9.476-9.425-16.613-20.428-21.302-32.188-4.604-11.097-6.843-23.054-7.026-34.815a80.15 80.15 0 0 1 1.14-15.132c2.907-19.874 11.922-38.92 27.224-54.14 3.849-3.829 7.885-7.284 12.203-10.272 4.796-2.905 9.574-5.791 14.361-8.5C581.309-57.508 909.565-21.958 1125.805 193.132c37.15 36.953 68.856 77.081 95.315 119.648 15.56 24.815 29.16 50.48 40.975 76.8 62.736 139.158 74.517 295.406 35.232 441.048-29.034 108.384-86.313 210.896-171.834 295.963-131.135 130.438-303.464 194.913-475.293 193.382 78.268-4.506 146.793-31.048 197.392-81.378 68.435-68.072 92.953-168.79 78.445-282.015z" transform="translate(-127 -686)"/>
        <path fill="url(#b)" d="M193.076 1125.74C53.874 985.656-9.994 798.495 1.266 615.16c.281-5.165.572-10.153 1.134-15.225 2.89-19.996 11.856-39.159 27.074-54.473 32.77-32.977 83.178-37.323 120.493-12.907 107.118 73.222 296.654 121.34 512.618 121.267 50.034-.026 98.743-2.663 145.232-7.571 66.687 103.393 107.8 210.363 120.19 308.12 14.43 113.92-9.954 215.259-78.014 283.75-50.694 51.015-119.31 77.626-197.8 81.879-166.407-1.729-332.231-66.572-459.117-194.26z" transform="translate(-127 -686)"/>
    </g>
</svg>
