<svg xmlns="http://www.w3.org/2000/svg" width="40" height="50" viewBox="0 0 40 50">
    <g fill="#99BBC1" fill-rule="evenodd">
        <path d="M32.5 20.833H11.667a.833.833 0 1 0 0 1.667H32.5a.833.833 0 1 0 0-1.667M11.667 15.833H20a.833.833 0 1 0 0-1.666h-8.333a.833.833 0 1 0 0 1.666M32.5 27.5H11.667a.833.833 0 1 0 0 1.667H32.5a.833.833 0 1 0 0-1.667M32.5 34.167H11.667a.833.833 0 1 0 0 1.666H32.5a.833.833 0 1 0 0-1.666M32.5 40.833H11.667a.833.833 0 1 0 0 1.667H32.5a.833.833 0 1 0 0-1.667"/>
        <path d="M5.833 48.333v-42.5h20.834V17.5h11.666v30.833h-32.5zm-4.166-4.166v-42.5h32.5v8.821l-6.322-6.321H4.167v40h-2.5zM28.333 7.012l7.5 7.5 1.322 1.321h-8.822V7.012zm7.5 5.143V0H0v45.833h4.167V50H40V16.322l-4.167-4.167z"/>
    </g>
</svg>
