<svg width="18" height="18" viewBox="0 0 18 18" fill="none" xmlns="http://www.w3.org/2000/svg">
<path fill-rule="evenodd" clip-rule="evenodd" d="M8.96016 1C7.27411 1 5.6663 1.53159 4.31058 2.53733C2.98283 3.52236 2.0082 4.87452 1.49204 6.44742C1.36966 6.82038 1.5695 7.22305 1.93835 7.34678C2.30739 7.47058 2.70556 7.26847 2.82791 6.8955C3.2516 5.60433 4.05223 4.49402 5.14325 3.68463C6.25582 2.85925 7.57565 2.42294 8.96016 2.42294C10.3447 2.42294 11.6645 2.85925 12.7771 3.68466C13.4268 4.16666 13.9735 4.75545 14.399 5.42556C14.0752 5.37638 13.7511 5.56199 13.6342 5.88492C13.5006 6.25399 13.6883 6.66258 14.0533 6.79761L15.5185 7.33969C15.5221 7.34099 15.5256 7.34184 15.5291 7.34308C15.5414 7.34742 15.5539 7.35134 15.5663 7.35499C15.5731 7.35692 15.5798 7.35891 15.5865 7.36069C15.5991 7.36395 15.6119 7.3667 15.6247 7.3693C15.6312 7.37057 15.6378 7.37209 15.6443 7.3732C15.6579 7.37551 15.6716 7.37712 15.6855 7.37867C15.6911 7.37928 15.6967 7.38023 15.7023 7.38067C15.7215 7.38228 15.7408 7.3832 15.7602 7.3832H15.7603H15.7603C15.7786 7.3832 15.7968 7.38244 15.8148 7.38102C15.8191 7.38067 15.8234 7.37994 15.8277 7.37956C15.8416 7.37817 15.8555 7.37671 15.8693 7.37449C15.8746 7.37364 15.8798 7.3724 15.8852 7.37139C15.898 7.36905 15.9108 7.36661 15.9234 7.36357C15.9293 7.36214 15.9352 7.36031 15.9411 7.35869C15.953 7.35549 15.965 7.3522 15.9767 7.34837C15.9784 7.3478 15.9801 7.34742 15.982 7.34685C15.9854 7.34568 15.9887 7.34406 15.9922 7.34286C16.0077 7.33738 16.023 7.33139 16.0381 7.32484C16.0446 7.32205 16.051 7.31923 16.0574 7.31626C16.0721 7.30932 16.0865 7.30181 16.1008 7.29387C16.1052 7.29136 16.1099 7.28912 16.1144 7.28652C16.1315 7.27648 16.1481 7.26552 16.1643 7.25399C16.1707 7.2495 16.1768 7.24472 16.1829 7.24003C16.1937 7.23179 16.2044 7.22334 16.2148 7.21444C16.2204 7.20956 16.2261 7.20469 16.2317 7.19962C16.2435 7.18882 16.255 7.17755 16.2661 7.16592C16.2692 7.16269 16.2724 7.15962 16.2755 7.15633C16.29 7.14059 16.3038 7.12412 16.317 7.10696C16.3179 7.10575 16.3187 7.10452 16.3196 7.10328C16.3313 7.08776 16.3424 7.07161 16.3529 7.05499C16.3556 7.05052 16.3583 7.04599 16.361 7.04146C16.3691 7.02797 16.3768 7.0142 16.3841 7.00004C16.3871 6.99421 16.3901 6.98842 16.3929 6.9825C16.3993 6.96923 16.4051 6.95567 16.4107 6.94187C16.4133 6.93547 16.4161 6.92917 16.4185 6.92271C16.4193 6.92049 16.4204 6.9184 16.4212 6.91612L16.9574 5.43462C17.0909 5.06552 16.9033 4.65686 16.5384 4.52183C16.214 4.40184 15.8589 4.5388 15.6902 4.82984C15.1581 3.94191 14.4557 3.16504 13.6097 2.53733C12.254 1.53159 10.6462 1 8.96016 1Z" stroke="#6480EB"/>
<path fill-rule="evenodd" clip-rule="evenodd" d="M15.1725 10.8671C14.7488 12.1583 13.9482 13.2685 12.8572 14.0779C11.7446 14.9033 10.4248 15.3396 9.0403 15.3396C7.65576 15.3396 6.33597 14.9033 5.22341 14.0779C4.57366 13.5959 4.02697 13.0072 3.60152 12.337C3.92526 12.3862 4.24942 12.2007 4.36628 11.8777C4.49987 11.5087 4.31222 11.1 3.94722 10.965L2.48194 10.4229C2.47843 10.4216 2.47486 10.4208 2.47135 10.4196C2.45904 10.4152 2.44664 10.4113 2.43411 10.4076C2.42741 10.4057 2.42074 10.4037 2.41403 10.4019C2.40138 10.3987 2.38863 10.3959 2.37579 10.3934C2.36924 10.3921 2.3627 10.3905 2.35618 10.3894C2.34256 10.3871 2.32881 10.3855 2.31502 10.384C2.30942 10.3834 2.30381 10.3824 2.2982 10.382C2.279 10.3803 2.25968 10.3794 2.24026 10.3794H2.24023H2.2402C2.22193 10.3794 2.20374 10.3802 2.18569 10.3816C2.18134 10.382 2.17705 10.3827 2.17276 10.3831C2.15885 10.3845 2.14498 10.3859 2.13123 10.3881C2.1259 10.389 2.12061 10.3903 2.11525 10.3912C2.10244 10.3936 2.08969 10.396 2.07707 10.3991C2.07115 10.4005 2.06529 10.4023 2.05937 10.4039C2.04741 10.4071 2.03554 10.4104 2.02382 10.4143C2.02204 10.4148 2.02031 10.4152 2.01853 10.4158C2.01505 10.417 2.01179 10.4186 2.00832 10.4198C1.99281 10.4253 1.9775 10.4312 1.9624 10.4378C1.95592 10.4406 1.94946 10.4434 1.9431 10.4464C1.92841 10.4533 1.91397 10.4608 1.89975 10.4688C1.89524 10.4713 1.89055 10.4735 1.8861 10.4761C1.869 10.4861 1.85236 10.4972 1.83614 10.5086C1.82978 10.5132 1.82374 10.5179 1.8176 10.5226C1.80676 10.5308 1.79611 10.5394 1.78571 10.5482C1.78001 10.5531 1.77437 10.5579 1.76883 10.563C1.75699 10.5738 1.74552 10.585 1.7344 10.5967C1.73134 10.5999 1.72802 10.603 1.72501 10.6063C1.71051 10.622 1.69663 10.6385 1.68351 10.6557C1.6826 10.6569 1.68175 10.6582 1.68088 10.6594C1.66919 10.6748 1.6581 10.691 1.64761 10.7076C1.64482 10.7121 1.64216 10.7166 1.63947 10.7212C1.63136 10.7347 1.62368 10.7484 1.61638 10.7626C1.61341 10.7684 1.6104 10.7742 1.60758 10.7801C1.60119 10.7934 1.59537 10.807 1.58976 10.8208C1.58716 10.8272 1.58437 10.8335 1.58196 10.8399C1.58115 10.8421 1.58011 10.8443 1.5793 10.8465L1.04306 12.3281C0.909473 12.6971 1.09709 13.1057 1.46209 13.2407C1.78646 13.3608 2.1415 13.2238 2.31026 12.9327C2.8423 13.8207 3.5447 14.5975 4.39074 15.2252C5.74643 16.2309 7.35423 16.7626 9.04024 16.7626C10.7263 16.7626 12.3341 16.231 13.6898 15.2252C15.0176 14.2402 15.9922 12.8881 16.5084 11.3152C16.6308 10.9422 16.4309 10.5395 16.062 10.4158C15.9885 10.3911 15.9137 10.3794 15.8402 10.3794C15.5452 10.3794 15.2705 10.5685 15.1725 10.8671Z" stroke="#6480EB"/>
<path d="M8.69922 6.05664V9.65655L11.4992 10.8565" stroke="#00D7AF" stroke-width="3" stroke-linecap="round" stroke-linejoin="round"/>
<path d="M8.69922 6.05664V9.65655L11.4992 10.8565" stroke="white" stroke-linecap="round" stroke-linejoin="round"/>
</svg>
