<svg width="84" height="83" viewBox="0 0 84 83" fill="none" xmlns="http://www.w3.org/2000/svg">
<path fill-rule="evenodd" clip-rule="evenodd" d="M41.7968 2C33.3664 2 25.3271 4.65803 18.5484 9.68685C11.9094 14.6121 7.03619 21.3731 4.45533 29.2378C3.84343 31.1026 4.84264 33.116 6.68694 33.7347C8.53218 34.3537 10.5231 33.3431 11.1348 31.4782C13.2533 25.0222 17.2566 19.4705 22.7118 15.4235C28.2748 11.2965 34.8741 9.11489 41.7968 9.11489C48.7195 9.11489 55.3187 11.2965 60.8818 15.4236C64.1306 17.8337 66.8642 20.7777 68.9915 24.1283C67.3727 23.8824 65.7519 24.8105 65.1676 26.4252C64.4995 28.2706 65.4379 30.3136 67.2629 30.9888L74.5896 33.6992C74.6071 33.7057 74.625 33.71 74.6425 33.7162C74.704 33.7379 74.7662 33.7575 74.8286 33.7757C74.8622 33.7854 74.8956 33.7953 74.9291 33.8042C74.9922 33.8205 75.0561 33.8343 75.1203 33.8473C75.1531 33.8536 75.1858 33.8612 75.2184 33.8668C75.2863 33.8783 75.3551 33.8864 75.4242 33.8941C75.4522 33.8972 75.4802 33.9019 75.5081 33.9041C75.6043 33.9122 75.7009 33.9168 75.798 33.9168H75.7982H75.7983C75.8896 33.9168 75.9806 33.913 76.0708 33.9059C76.0924 33.9041 76.1139 33.9005 76.1353 33.8986C76.205 33.8916 76.2746 33.8843 76.3432 33.8732C76.3698 33.869 76.3961 33.8628 76.4231 33.8577C76.4871 33.846 76.5507 33.8338 76.614 33.8186C76.6436 33.8115 76.6729 33.8023 76.7025 33.7942C76.7621 33.7782 76.8216 33.7618 76.8802 33.7426C76.889 33.7398 76.8976 33.7379 76.9067 33.735C76.9241 33.7291 76.9404 33.7211 76.9577 33.7151C77.0353 33.6877 77.1117 33.6577 77.1873 33.625C77.2198 33.611 77.252 33.5969 77.2837 33.582C77.3573 33.5474 77.4295 33.5098 77.5007 33.4701C77.5231 33.4576 77.5466 33.4463 77.5687 33.4334C77.6544 33.3832 77.7374 33.3284 77.8185 33.2707C77.8503 33.2482 77.8807 33.2243 77.9114 33.2009C77.9656 33.1597 78.0188 33.1175 78.0708 33.073C78.0991 33.0486 78.1275 33.0242 78.1552 32.9988C78.2144 32.9449 78.2717 32.8885 78.3272 32.8304C78.3427 32.8142 78.3591 32.7989 78.3745 32.7824C78.4468 32.7037 78.5161 32.6213 78.5818 32.5355C78.5862 32.5295 78.5905 32.5233 78.5948 32.5172C78.6534 32.4396 78.7089 32.3588 78.7613 32.2757C78.7751 32.2533 78.7886 32.2307 78.8019 32.2081C78.8426 32.1406 78.8808 32.0717 78.9175 32.0009C78.9323 31.9718 78.9472 31.9428 78.9615 31.9132C78.9933 31.8469 79.0226 31.7791 79.0506 31.7101C79.0636 31.6781 79.0775 31.6466 79.0894 31.6143C79.0937 31.6032 79.099 31.5927 79.1029 31.5813L81.7838 24.1736C82.4516 22.3281 81.5137 20.2848 79.6888 19.6096C78.0667 19.0096 76.2915 19.6944 75.4478 21.1497C72.7874 16.7099 69.2754 12.8255 65.0451 9.68685C58.2663 4.65803 50.2273 2 41.7968 2Z" stroke="#6480EB" stroke-width="4"/>
<path fill-rule="evenodd" clip-rule="evenodd" d="M72.8642 51.3367C70.7458 57.7928 66.7424 63.3442 61.2872 67.3911C55.7244 71.5182 49.1251 73.6998 42.2025 73.6998C35.2796 73.6998 28.6805 71.5184 23.1176 67.3911C19.8688 64.9812 17.1352 62.0372 15.0079 58.6866C16.6267 58.9325 18.2475 58.0048 18.8318 56.3898C19.4998 54.5448 18.5615 52.5015 16.7365 51.8263L9.40988 49.1157C9.39234 49.1094 9.37448 49.1053 9.35694 49.0989C9.29539 49.0772 9.23337 49.0576 9.17073 49.0394C9.13721 49.0297 9.10385 49.0199 9.07034 49.0109C9.00707 48.9946 8.94332 48.9808 8.87911 48.968C8.84638 48.9615 8.81365 48.9539 8.78107 48.9483C8.71294 48.9368 8.64419 48.9287 8.57528 48.9209C8.54724 48.9179 8.51921 48.9132 8.49118 48.911C8.39517 48.9029 8.29854 48.8983 8.20144 48.8983H8.20128H8.20113C8.10982 48.8983 8.01883 48.9021 7.92862 48.9092C7.90685 48.911 7.88539 48.9146 7.86394 48.9167C7.7944 48.9235 7.72502 48.9307 7.65626 48.9418C7.62964 48.9461 7.60317 48.9526 7.57639 48.9572C7.51234 48.9691 7.44859 48.9813 7.38548 48.9965C7.35588 49.0036 7.32659 49.0128 7.29699 49.0208C7.23716 49.0368 7.17781 49.0533 7.11923 49.0725C7.11031 49.0753 7.10169 49.0772 7.09277 49.0801C7.07538 49.0859 7.05909 49.094 7.04171 49.1C6.96418 49.1276 6.8876 49.1573 6.81211 49.1901C6.77969 49.2041 6.74743 49.2182 6.71564 49.233C6.64219 49.2677 6.56999 49.3052 6.49888 49.345C6.47633 49.3575 6.45284 49.3689 6.4306 49.3819C6.34509 49.4318 6.26192 49.487 6.1808 49.5443C6.14901 49.567 6.11878 49.5907 6.08808 49.6142C6.03389 49.6553 5.98064 49.6979 5.92865 49.7421C5.90014 49.7665 5.87195 49.7909 5.84423 49.8164C5.78503 49.8704 5.72771 49.9264 5.67211 49.9847C5.65677 50.0009 5.64016 50.0162 5.62513 50.0327C5.55262 50.1114 5.48324 50.1937 5.41762 50.2795C5.41307 50.2856 5.40885 50.2921 5.40446 50.2981C5.34604 50.3753 5.2906 50.4563 5.23814 50.5394C5.2242 50.5617 5.21088 50.5844 5.19742 50.607C5.15685 50.6745 5.11848 50.7433 5.08199 50.8141C5.06711 50.8433 5.05208 50.8724 5.03798 50.9018C5.00603 50.9682 4.9769 51.036 4.94887 51.105C4.93587 51.137 4.92193 51.1685 4.90987 51.2006C4.9058 51.2119 4.90063 51.2225 4.89656 51.2337L2.21532 58.6417C1.54736 60.4867 2.48548 62.5302 4.31051 63.2052C5.93241 63.8053 7.70763 63.1203 8.55147 61.665C11.2117 66.1049 14.7238 69.9893 18.9541 73.1278C25.7327 78.1566 33.7719 80.8149 42.2022 80.8149C50.6327 80.8149 58.6721 78.1568 65.4505 73.1278C72.0897 68.2026 76.9626 61.4422 79.5438 53.5773C80.1557 51.7123 79.1565 49.6989 77.312 49.0802C76.9441 48.9569 76.5703 48.8983 76.203 48.8981C74.7277 48.8981 73.3541 49.8435 72.8642 51.3367Z" stroke="#6480EB" stroke-width="4"/>
<path d="M40.5 24V42L54.5 48" stroke="#00D7AF" stroke-width="12" stroke-linecap="round" stroke-linejoin="round"/>
<path d="M40.5 24V42L54.5 48" stroke="white" stroke-width="4" stroke-linecap="round" stroke-linejoin="round"/>
</svg>
