<svg width="480" height="340" viewBox="0 0 480 340" fill="none" xmlns="http://www.w3.org/2000/svg">
<line x1="1.5" y1="282.5" x2="478.5" y2="282.5" stroke="#E1E5FA" stroke-width="3" stroke-linecap="round"/>
<path fill-rule="evenodd" clip-rule="evenodd" d="M112.316 283.269H200.634V148.27C200.634 142.747 196.157 138.27 190.634 138.27H112.316V283.269Z" fill="#E1E5FA"/>
<path fill-rule="evenodd" clip-rule="evenodd" d="M317.953 283.269H456.361V132.452C456.361 126.929 451.884 122.452 446.361 122.452H317.953V283.269Z" fill="#E1E5FA"/>
<path fill-rule="evenodd" clip-rule="evenodd" d="M109.149 193.067H123.852V149.449H109.149V193.067Z" fill="#D6DBFA"/>
<path fill-rule="evenodd" clip-rule="evenodd" d="M109.809 274.372H124.512V247.653H109.809V274.372Z" fill="#D6DBFA"/>
<path fill-rule="evenodd" clip-rule="evenodd" d="M109.809 216.101H124.512V201.399H109.809V216.101Z" fill="#D6DBFA"/>
<path fill-rule="evenodd" clip-rule="evenodd" d="M109.809 239.135H124.512V224.432H109.809V239.135Z" fill="#D6DBFA"/>
<path fill-rule="evenodd" clip-rule="evenodd" d="M200.875 283H336.479V9.99999C336.479 4.47714 332.002 0 326.479 0H210.875C205.352 0 200.875 4.47715 200.875 10V283Z" fill="#E1E5FA"/>
<path fill-rule="evenodd" clip-rule="evenodd" d="M434.282 273.053H451.012V256.576H434.282V273.053Z" fill="#D6DBFA"/>
<path fill-rule="evenodd" clip-rule="evenodd" d="M434.282 176.826H450.759V160.349H434.282V176.826Z" fill="#D6DBFA"/>
<path fill-rule="evenodd" clip-rule="evenodd" d="M434.282 149.804H450.759V133.327H434.282V149.804Z" fill="#D6DBFA"/>
<path fill-rule="evenodd" clip-rule="evenodd" d="M434.282 246.031H451.012V187.372H434.282V246.031Z" fill="#D6DBFA"/>
<path fill-rule="evenodd" clip-rule="evenodd" d="M406.602 273.053H423.331V256.576H406.602V273.053Z" fill="#D6DBFA"/>
<path fill-rule="evenodd" clip-rule="evenodd" d="M406.602 176.826H423.079V160.349H406.602V176.826Z" fill="#D6DBFA"/>
<path fill-rule="evenodd" clip-rule="evenodd" d="M406.602 149.804H423.079V133.327H406.602V149.804Z" fill="#D6DBFA"/>
<path fill-rule="evenodd" clip-rule="evenodd" d="M406.602 246.031H423.331V187.372H406.602V246.031Z" fill="#D6DBFA"/>
<path fill-rule="evenodd" clip-rule="evenodd" d="M378.259 273.053H394.988V256.576H378.259V273.053Z" fill="#D6DBFA"/>
<path fill-rule="evenodd" clip-rule="evenodd" d="M378.259 176.826H394.736V160.349H378.259V176.826Z" fill="#D6DBFA"/>
<path fill-rule="evenodd" clip-rule="evenodd" d="M378.259 149.804H394.736V133.327H378.259V149.804Z" fill="#D6DBFA"/>
<path fill-rule="evenodd" clip-rule="evenodd" d="M378.259 246.031H394.988V187.372H378.259V246.031Z" fill="#D6DBFA"/>
<path fill-rule="evenodd" clip-rule="evenodd" d="M350.578 273.053H367.308V256.576H350.578V273.053Z" fill="#D6DBFA"/>
<path fill-rule="evenodd" clip-rule="evenodd" d="M350.578 176.826H367.055V160.349H350.578V176.826Z" fill="#D6DBFA"/>
<path fill-rule="evenodd" clip-rule="evenodd" d="M350.578 149.804H367.055V133.327H350.578V149.804Z" fill="#D6DBFA"/>
<path fill-rule="evenodd" clip-rule="evenodd" d="M350.578 246.031H367.308V187.372H350.578V246.031Z" fill="#D6DBFA"/>
<path fill-rule="evenodd" clip-rule="evenodd" d="M312.351 230.213H329.08V213.735H312.351V230.213Z" fill="#D6DBFA"/>
<path fill-rule="evenodd" clip-rule="evenodd" d="M312.351 61.2704H328.828V44.7932H312.351V61.2704Z" fill="#D6DBFA"/>
<path fill-rule="evenodd" clip-rule="evenodd" d="M312.351 34.2478H328.828V17.7706H312.351V34.2478Z" fill="#D6DBFA"/>
<path fill-rule="evenodd" clip-rule="evenodd" d="M312.351 130.474H329.08V71.8157H312.351V130.474Z" fill="#D6DBFA"/>
<path fill-rule="evenodd" clip-rule="evenodd" d="M312.351 274.371H329.08V240.757H312.351V274.371Z" fill="#D6DBFA"/>
<path fill-rule="evenodd" clip-rule="evenodd" d="M288.623 230.213H305.353V213.735H288.623V230.213Z" fill="#D6DBFA"/>
<path fill-rule="evenodd" clip-rule="evenodd" d="M288.623 61.2704H305.1V44.7932H288.623V61.2704Z" fill="#D6DBFA"/>
<path fill-rule="evenodd" clip-rule="evenodd" d="M288.623 34.2478H305.1V17.7706H288.623V34.2478Z" fill="#D6DBFA"/>
<path fill-rule="evenodd" clip-rule="evenodd" d="M288.623 130.474H305.353V71.8157H288.623V130.474Z" fill="#D6DBFA"/>
<path fill-rule="evenodd" clip-rule="evenodd" d="M288.623 274.371H305.353V240.757H288.623V274.371Z" fill="#D6DBFA"/>
<path fill-rule="evenodd" clip-rule="evenodd" d="M262.918 230.213H279.648V213.735H262.918V230.213Z" fill="#D6DBFA"/>
<path fill-rule="evenodd" clip-rule="evenodd" d="M262.918 61.2704H279.395V44.7932H262.918V61.2704Z" fill="#D6DBFA"/>
<path fill-rule="evenodd" clip-rule="evenodd" d="M262.918 34.2478H279.395V17.7706H262.918V34.2478Z" fill="#D6DBFA"/>
<path fill-rule="evenodd" clip-rule="evenodd" d="M262.918 130.474H279.648V71.8157H262.918V130.474Z" fill="#D6DBFA"/>
<path fill-rule="evenodd" clip-rule="evenodd" d="M262.918 274.371H279.648V240.757H262.918V274.371Z" fill="#D6DBFA"/>
<path fill-rule="evenodd" clip-rule="evenodd" d="M236.555 230.213H253.284V213.735H236.555V230.213Z" fill="#D6DBFA"/>
<path fill-rule="evenodd" clip-rule="evenodd" d="M236.555 61.2704H253.032V44.7932H236.555V61.2704Z" fill="#D6DBFA"/>
<path fill-rule="evenodd" clip-rule="evenodd" d="M236.555 34.2478H253.032V17.7706H236.555V34.2478Z" fill="#D6DBFA"/>
<path fill-rule="evenodd" clip-rule="evenodd" d="M236.555 130.474H253.284V71.8157H236.555V130.474Z" fill="#D6DBFA"/>
<path fill-rule="evenodd" clip-rule="evenodd" d="M236.555 274.371H253.284V240.757H236.555V274.371Z" fill="#D6DBFA"/>
<path fill-rule="evenodd" clip-rule="evenodd" d="M209.532 230.213H226.262V213.735H209.532V230.213Z" fill="#D6DBFA"/>
<path fill-rule="evenodd" clip-rule="evenodd" d="M209.532 61.2704H226.009V44.7932H209.532V61.2704Z" fill="#D6DBFA"/>
<path fill-rule="evenodd" clip-rule="evenodd" d="M209.532 34.2478H226.009V17.7706H209.532V34.2478Z" fill="#D6DBFA"/>
<path fill-rule="evenodd" clip-rule="evenodd" d="M209.532 130.474H226.262V71.8157H209.532V130.474Z" fill="#D6DBFA"/>
<path fill-rule="evenodd" clip-rule="evenodd" d="M209.532 274.371H226.262V240.757H209.532V274.371Z" fill="#D6DBFA"/>
<path fill-rule="evenodd" clip-rule="evenodd" d="M179.012 193.067H193.715V149.449H179.012V193.067Z" fill="#D6DBFA"/>
<path fill-rule="evenodd" clip-rule="evenodd" d="M179.672 274.372H194.375V247.653H179.672V274.372Z" fill="#D6DBFA"/>
<path fill-rule="evenodd" clip-rule="evenodd" d="M179.672 216.101H194.375V201.399H179.672V216.101Z" fill="#D6DBFA"/>
<path fill-rule="evenodd" clip-rule="evenodd" d="M179.672 239.135H194.375V224.432H179.672V239.135Z" fill="#D6DBFA"/>
<path fill-rule="evenodd" clip-rule="evenodd" d="M156.604 193.067H171.307V149.449H156.604V193.067Z" fill="#D6DBFA"/>
<path fill-rule="evenodd" clip-rule="evenodd" d="M157.263 274.372H171.966V247.653H157.263V274.372Z" fill="#D6DBFA"/>
<path fill-rule="evenodd" clip-rule="evenodd" d="M157.263 216.101H171.966V201.399H157.263V216.101Z" fill="#D6DBFA"/>
<path fill-rule="evenodd" clip-rule="evenodd" d="M157.263 239.135H171.966V224.432H157.263V239.135Z" fill="#D6DBFA"/>
<path fill-rule="evenodd" clip-rule="evenodd" d="M132.217 193.067H146.92V149.449H132.217V193.067Z" fill="#D6DBFA"/>
<path fill-rule="evenodd" clip-rule="evenodd" d="M132.875 274.372H147.578V247.653H132.875V274.372Z" fill="#D6DBFA"/>
<path fill-rule="evenodd" clip-rule="evenodd" d="M132.875 216.101H147.578V201.399H132.875V216.101Z" fill="#D6DBFA"/>
<path fill-rule="evenodd" clip-rule="evenodd" d="M132.875 239.135H147.578V224.432H132.875V239.135Z" fill="#D6DBFA"/>
<path fill-rule="evenodd" clip-rule="evenodd" d="M24 283.269H112.318V121.247C112.318 115.724 107.841 111.247 102.318 111.247H34C28.4772 111.247 24 115.724 24 121.247V283.269Z" fill="#E1E5FA"/>
<path fill-rule="evenodd" clip-rule="evenodd" d="M86.0811 166.703H100.784V123.086H86.0811V166.703Z" fill="#D6DBFA"/>
<path fill-rule="evenodd" clip-rule="evenodd" d="M86.7393 248.008H101.442V221.29H86.7393V248.008Z" fill="#D6DBFA"/>
<path fill-rule="evenodd" clip-rule="evenodd" d="M86.7393 189.738H101.442V175.035H86.7393V189.738Z" fill="#D6DBFA"/>
<path fill-rule="evenodd" clip-rule="evenodd" d="M86.7393 212.772H101.442V198.069H86.7393V212.772Z" fill="#D6DBFA"/>
<path fill-rule="evenodd" clip-rule="evenodd" d="M86.7393 271.43H101.442V256.727H86.7393V271.43Z" fill="#D6DBFA"/>
<path fill-rule="evenodd" clip-rule="evenodd" d="M63.0137 166.703H77.7166V123.086H63.0137V166.703Z" fill="#D6DBFA"/>
<path fill-rule="evenodd" clip-rule="evenodd" d="M63.6719 248.008H78.3748V221.29H63.6719V248.008Z" fill="#D6DBFA"/>
<path fill-rule="evenodd" clip-rule="evenodd" d="M63.6719 189.738H78.3748V175.035H63.6719V189.738Z" fill="#D6DBFA"/>
<path fill-rule="evenodd" clip-rule="evenodd" d="M63.6719 212.772H78.3748V198.069H63.6719V212.772Z" fill="#D6DBFA"/>
<path fill-rule="evenodd" clip-rule="evenodd" d="M63.6719 271.43H78.3748V256.727H63.6719V271.43Z" fill="#D6DBFA"/>
<path fill-rule="evenodd" clip-rule="evenodd" d="M39.2842 166.703H53.9871V123.086H39.2842V166.703Z" fill="#D6DBFA"/>
<path fill-rule="evenodd" clip-rule="evenodd" d="M39.9453 248.008H54.6482V221.29H39.9453V248.008Z" fill="#D6DBFA"/>
<path fill-rule="evenodd" clip-rule="evenodd" d="M39.9453 189.738H54.6482V175.035H39.9453V189.738Z" fill="#D6DBFA"/>
<path fill-rule="evenodd" clip-rule="evenodd" d="M39.9453 212.772H54.6482V198.069H39.9453V212.772Z" fill="#D6DBFA"/>
<path fill-rule="evenodd" clip-rule="evenodd" d="M39.9453 271.43H54.6482V256.727H39.9453V271.43Z" fill="#D6DBFA"/>
<g filter="url(#filter0_d)">
<path d="M202.925 180.943H173C167.477 180.943 163 185.421 163 190.943V283.608H202.925V180.943Z" fill="white"/>
</g>
<g filter="url(#filter1_d)">
<path d="M307 180.943H277.075V283.608H317V190.943C317 185.421 312.523 180.943 307 180.943Z" fill="white"/>
</g>
<path d="M305.59 192.351H288.479V203.758H305.59V192.351Z" fill="#D6DBFA"/>
<path d="M305.59 215.165H288.479V226.572H305.59V215.165Z" fill="#D6DBFA"/>
<path d="M305.59 237.979H288.479V249.387H305.59V237.979Z" fill="#D6DBFA"/>
<path d="M305.59 260.793H288.479V272.2H305.59V260.793Z" fill="#D6DBFA"/>
<path d="M191.519 192.351H174.408V203.758H191.519V192.351Z" fill="#D6DBFA"/>
<path d="M191.519 215.165H174.408V226.572H191.519V215.165Z" fill="#D6DBFA"/>
<path d="M191.519 237.979H174.408V249.387H191.519V237.979Z" fill="#D6DBFA"/>
<path d="M191.519 260.793H174.408V272.2H191.519V260.793Z" fill="#D6DBFA"/>
<g filter="url(#filter2_d)">
<path d="M277.517 151.756H202.865V283.608H277.517V151.756Z" fill="white"/>
</g>
<path d="M259.96 226.572H220.035V283.608H259.96V226.572Z" fill="#63D3C8"/>
<path d="M247.351 165.329H232.649V180.032H217.946V194.734H232.649V209.437H247.351V194.734H262.054V180.032H247.351V165.329Z" fill="#EC5C8C"/>
<path d="M275.839 144H204.164C201.119 144 198.65 146.468 198.65 149.513C198.65 152.558 201.119 155.027 204.164 155.027H275.839C278.884 155.027 281.352 152.558 281.352 149.513C281.352 146.468 278.884 144 275.839 144Z" fill="#5E62F6"/>
<path d="M80.2128 79.592C80.2128 84.3322 76.3646 88.184 71.6064 88.184C66.8482 88.184 63 84.3322 63 79.592C63 74.8518 66.8482 71 71.6064 71C76.3646 71 80.2128 74.8518 80.2128 79.592Z" stroke="#D1F7F4" stroke-width="10"/>
<path d="M173.213 31.592C173.213 36.3322 169.365 40.184 164.606 40.184C159.848 40.184 156 36.3322 156 31.592C156 26.8518 159.848 23 164.606 23C169.365 23 173.213 26.8518 173.213 31.592Z" stroke="#FDF0C6" stroke-width="10"/>
<path d="M429.213 88.592C429.213 93.3322 425.365 97.184 420.606 97.184C415.848 97.184 412 93.3322 412 88.592C412 83.8518 415.848 80 420.606 80C425.365 80 429.213 83.8518 429.213 88.592Z" stroke="#F8D4E1" stroke-width="10"/>
<g style="mix-blend-mode:multiply">
<path d="M323 340C350.614 340 373 336.418 373 332C373 327.582 350.614 324 323 324C295.386 324 273 327.582 273 332C273 336.418 295.386 340 323 340Z" fill="#DDE1FB"/>
</g>
<path d="M343.08 326.07L328.2 326L328.09 219.93H314.99L314.96 326.07H300.95V197.85H343.08V326.07Z" fill="#3232C8"/>
<path d="M295.19 227.09C298.631 227.09 301.42 224.301 301.42 220.86C301.42 217.419 298.631 214.63 295.19 214.63C291.749 214.63 288.96 217.419 288.96 220.86C288.96 224.301 291.749 227.09 295.19 227.09Z" fill="#D9DDFC"/>
<g filter="url(#filter3_d)">
<path d="M311.99 123.39C288.24 123.39 288.24 148.79 288.24 173.09C288.24 185.48 288.24 218.13 288.24 218.13H299.21L299.36 164.02L299 258.19L344.88 258.32L344.9 151.12L345.03 177.87L354.49 177.72C354.49 177.72 356.3 174.38 356.3 169.6C356.3 144.14 356.29 123.83 335.48 123.83L311.99 123.39Z" fill="white"/>
</g>
<path d="M322.49 154.65L320.23 151.09V138.97H324.54V151.11L322.49 154.65Z" fill="#84E3D9"/>
<path d="M332.12 116.3C332.12 116.3 332.73 126.82 330.88 131.16C329.25 135 325.55 137.28 322.87 137.28C319.98 137.28 315.08 135.91 312.98 131.61C310.93 127.41 312.06 116.13 312.06 116.13C312.06 116.13 317.55 118.82 321.59 118.82C325.63 118.82 332.12 116.3 332.12 116.3Z" fill="#D9DDFC"/>
<path d="M332.12 106.17C332.12 106.17 332.73 116.69 330.88 121.03C329.25 124.87 325.55 127.15 322.87 127.15C319.98 127.15 315.08 125.78 312.98 121.48C310.93 117.28 312.06 106 312.06 106C312.06 106 317.55 108.69 321.59 108.69C325.63 108.69 332.12 106.17 332.12 106.17Z" fill="#C9D0FB"/>
<path d="M324.541 169.6C327.981 169.6 330.771 166.811 330.771 163.37C330.771 159.929 327.981 157.14 324.541 157.14C321.1 157.14 318.311 159.929 318.311 163.37C318.311 166.811 321.1 169.6 324.541 169.6Z" fill="#84EEE3"/>
<path d="M338.74 124.05L325.15 142.15L322.49 138.82L319.4 142.41L304.91 124.57L311.75 122.57L322.49 135.95L332.22 122.55L338.74 124.05Z" fill="#84EEE3"/>
<path d="M303.11 139.23L304.89 133.11L299.13 127.1C299.13 127.1 300.65 125.79 302.33 125.18C304.01 124.56 305.96 124.19 305.96 124.19L319.49 152.46L303.11 139.23Z" fill="#84EEE3"/>
<path d="M342.27 138.44L339.45 132.73L344.07 125.81C344.07 125.81 342.35 124.79 340.58 124.48C338.82 124.17 337.29 123.98 337.29 123.98L325.28 152.62L342.27 138.44Z" fill="#84EEE3"/>
<path d="M322.49 144.11L319.08 141.7L322.49 138.42L325.36 141.7L322.49 144.11Z" fill="#84E3D9"/>
<path d="M323.06 257.15H321.95V155.87L322.53 156.33L323.06 155.9V257.15Z" fill="#84EEE3"/>
<path d="M336.22 159.43L340.61 160.11C340.61 160.11 341.23 116.28 326.96 116.28C316.26 116.28 303.65 121.11 299.7 127.7C296.59 132.88 295.09 132.2 294.83 144.5C294.6 155.34 297.86 166.61 297.86 166.61L300.07 166.47C300.07 166.47 297.7 155.93 297.48 145.77C297.3 137.49 298.29 134.12 300 132.8C301.02 132.02 301.76 134.9 301.95 146.81C302.15 159.86 308.93 173.31 308.93 173.31L311.74 171.6C311.74 171.6 304.67 156.76 304.9 145.48C305.14 133.69 304.65 129.79 305.27 128.36C307.97 122.07 317.14 118.45 327.36 119.46C335.7 120.28 336.22 159.43 336.22 159.43Z" fill="#BAC4F4"/>
<path d="M322.5 165.72C323.439 165.72 324.2 164.959 324.2 164.02C324.2 163.081 323.439 162.32 322.5 162.32C321.561 162.32 320.8 163.081 320.8 164.02C320.8 164.959 321.561 165.72 322.5 165.72Z" fill="#84E3D9"/>
<path d="M322.5 179.44C323.439 179.44 324.2 178.679 324.2 177.74C324.2 176.801 323.439 176.04 322.5 176.04C321.561 176.04 320.8 176.801 320.8 177.74C320.8 178.679 321.561 179.44 322.5 179.44Z" fill="#84EEE3"/>
<path d="M322.5 193.15C323.439 193.15 324.2 192.389 324.2 191.45C324.2 190.511 323.439 189.75 322.5 189.75C321.561 189.75 320.8 190.511 320.8 191.45C320.8 192.389 321.561 193.15 322.5 193.15Z" fill="#84EEE3"/>
<path d="M322.5 206.87C323.439 206.87 324.2 206.109 324.2 205.17C324.2 204.231 323.439 203.47 322.5 203.47C321.561 203.47 320.8 204.231 320.8 205.17C320.8 206.109 321.561 206.87 322.5 206.87Z" fill="#84EEE3"/>
<path d="M341.23 164.52C341.23 164.52 337.64 169.86 336.73 169.86C335.82 169.86 332.23 164.52 332.23 164.52V157.63H341.24V164.52H341.23Z" fill="white" stroke="#6D6E71" stroke-width="3" stroke-miterlimit="10"/>
<path d="M339.9 163.91L336.96 167.53V159.22H339.9V163.91Z" fill="#8DE2D2"/>
<path d="M341.2 259.41H334.86V324.5H341.2V259.41Z" fill="#514CE9"/>
<path d="M315.041 323.79L306.291 323.72C306.291 323.72 297.881 319.15 294.061 322.97C291.291 325.74 291.981 332.24 291.981 332.24H315.041V323.79Z" fill="#02065A"/>
<path d="M328.24 323.79L336.99 323.72C336.99 323.72 345.4 319.15 349.22 322.97C351.99 325.74 351.3 332.24 351.3 332.24H328.24V323.79Z" fill="#02065A"/>
<path d="M313.7 330.83H293.42C293.42 330.83 292.78 328.59 293.96 327.72C295.14 326.85 313.7 327.72 313.7 327.72V330.83Z" fill="#242883"/>
<path d="M329.59 330.83H349.86C349.86 330.83 350.5 328.59 349.32 327.72C348.14 326.85 329.58 327.72 329.58 327.72V330.83H329.59Z" fill="#242883"/>
<path d="M309.33 172.38L312.43 170.86L313.89 173.83L310.79 175.35C309.48 175.99 308.08 175.85 307.68 175.04C307.28 174.22 308.02 173.02 309.33 172.38Z" fill="#BAC4F4"/>
<path d="M300.53 170.19L297.12 170.97L296.37 167.71L299.78 166.93C301.22 166.6 302.56 167.06 302.77 167.96C302.97 168.85 301.96 169.86 300.53 170.19Z" fill="#BAC4F4"/>
<g filter="url(#filter4_d)">
<path d="M348.67 133.47H324C322.895 133.47 322 134.365 322 135.47V175.34C322 176.444 322.895 177.34 324 177.34H348.67C349.775 177.34 350.67 176.444 350.67 175.34V135.47C350.67 134.365 349.775 133.47 348.67 133.47Z" fill="white"/>
</g>
<path d="M342.57 130.53H331C329.895 130.53 329 131.425 329 132.53V134.28C329 135.384 329.895 136.28 331 136.28H342.57C343.675 136.28 344.57 135.384 344.57 134.28V132.53C344.57 131.425 343.675 130.53 342.57 130.53Z" fill="#EAEDFC"/>
<path d="M323.06 160.88C326.501 160.88 329.29 158.091 329.29 154.65C329.29 151.209 326.501 148.42 323.06 148.42C319.619 148.42 316.83 151.209 316.83 154.65C316.83 158.091 319.619 160.88 323.06 160.88Z" fill="#D9DDFC"/>
<g filter="url(#filter5_d)">
<path d="M350.59 180.54C346.77 181.51 323.78 160.87 323.78 160.87L329.14 153.28C329.14 153.28 355.86 168.16 355.64 173.72C355.47 178.08 354.39 179.58 350.59 180.54Z" fill="white"/>
</g>
<path d="M353.35 176.79C353.35 176.79 350.79 179.73 349.38 178.9C348.82 178.57 343.04 174.73 339.69 172.12C336.34 169.51 326.03 160.87 326.03 160.87C326.03 160.87 334.81 167.17 339.71 170.6C344.61 174.03 353.35 176.79 353.35 176.79Z" fill="#84EEE3"/>
<path d="M359.29 86.11C359.29 86.11 360.03 80.54 358.8 71C357.94 64.32 356.23 62.57 355.21 61.14C355.21 61.14 356.08 59.55 355.67 54.86C355 47.28 351.39 40 351.39 40C347.68 42.93 342.98 45.61 338.18 47.34C333.51 45.21 325.5 44.83 320.05 44.83C313.52 44.83 307.4 46.52 302.07 49.49C295.98 52.88 290.8 57.42 287.45 63.53C284.55 68.8 281.95 80.33 283.56 87L359.29 86.11Z" fill="#02065A"/>
<path d="M306.81 50.5701C314.26 46.9701 324.88 48.5801 324.88 48.5801C324.88 48.5801 312.19 52.4001 308.32 57.5801C304.85 62.2301 308.59 68.4701 306.81 68.4701C302.08 68.4701 296.5 66.0501 295.69 65.7201C294.88 65.3901 293.35 65.3001 293.35 65.3001C293.35 65.3001 291.97 66.3601 289.96 69.5301C289.49 70.2701 287.07 76.6501 287.07 76.6501H285.96C285.96 76.6501 286.92 72.3801 288.41 68.1401C289.46 65.1401 291.54 62.1601 292.82 60.7301C295.92 57.2701 299.36 54.1701 306.81 50.5701Z" fill="#2B2F86"/>
<path d="M361.68 91.6099C361.68 94.5599 359.29 96.9499 356.34 96.9499C354.55 96.9499 353.8 96.8699 353.8 96.8699C353.8 96.8699 353.51 97.6299 353.01 99.0299C348.43 112.01 336.05 121.32 321.48 121.32C307 121.32 294.68 112.12 290.03 99.2499C289.65 98.1899 289.2 96.8199 289.2 96.8199C289.2 96.8199 287.11 96.9499 285.34 96.9499C282.39 96.9499 280 94.5599 280 91.6099C280 88.6599 282.39 86.2699 285.34 86.2699C286.73 86.2699 288.05 86.2699 288.05 86.2699C288.05 86.2699 288.06 85.4999 288.08 85.0999C288.16 83.1499 288.41 82.6099 288.81 80.7599C290.34 73.7099 294.76 68.8999 294.76 68.8999C294.76 68.8999 310.35 73.4799 320.84 73.5399C330.73 73.5999 346.45 68.1399 346.45 68.1399C346.45 68.1399 351.28 72.9499 353.63 79.8799C354 80.9699 354.37 82.3199 354.6 83.5099C354.72 84.1299 354.89 86.2699 354.89 86.2699C354.89 86.2699 354.93 86.2699 356.34 86.2699C359.29 86.2699 361.68 88.6599 361.68 91.6099Z" fill="#D9DDFC"/>
<path d="M306.71 93.05H305.91C304.89 93.05 304.05 92.21 304.05 91.19V85.94C304.05 84.92 304.89 84.08 305.91 84.08H306.71C307.73 84.08 308.57 84.92 308.57 85.94V91.19C308.57 92.21 307.74 93.05 306.71 93.05Z" fill="#02065A"/>
<path d="M337.7 93.05H336.9C335.88 93.05 335.04 92.21 335.04 91.19V85.94C335.04 84.92 335.88 84.08 336.9 84.08H337.7C338.72 84.08 339.56 84.92 339.56 85.94V91.19C339.56 92.21 338.72 93.05 337.7 93.05Z" fill="#02065A"/>
<path d="M288.45 87.16C288.45 87.16 290.81 86.83 292.48 86.83C293.84 86.83 295.26 87.51 295.26 87.51L297.1 82.22L288.46 82.45L288.45 87.16Z" fill="#02065A"/>
<path d="M354.71 87C354.71 87 353.39 86.58 351.67 86.58C349.95 86.58 348.95 87.83 348.95 87.83C348.95 87.83 349.29 86.45 347.92 84.53C346.55 82.61 344.44 81.47 344.44 81.47L354.15 82.22L354.71 87Z" fill="#02065A"/>
<path d="M326.28 88.81C326.28 88.81 324.02 86.13 322.44 86.13C320.84 86.13 318.74 88.5 318.74 88.5C318.74 88.5 319.32 87.29 318.91 85.29C318.5 83.29 317.46 82.21 317.46 82.21H327.62C327.62 82.21 326.74 83.09 326.13 85.01C325.51 86.93 326.28 88.81 326.28 88.81Z" fill="#02065A"/>
<path d="M326.49 89.3C328.16 94.8 329.58 99.68 339.26 99.68C345.56 99.68 348.7 94.95 348.7 89.3C348.7 83.65 348.22 80.72 337.29 80.72C326.36 80.72 324.67 83.29 326.49 89.3Z" stroke="#02065A" stroke-width="3" stroke-miterlimit="10"/>
<path d="M318.051 89.3C315.761 94.59 315.111 99.68 304.951 99.68C298.481 99.68 295.271 94.95 295.271 89.3C295.271 83.65 295.771 80.72 306.981 80.72C318.191 80.72 320.411 83.83 318.051 89.3Z" stroke="#02065A" stroke-width="3" stroke-miterlimit="10"/>
<path d="M314.523 106.527C315.238 107.617 316.504 110.623 322.191 110.623C327.879 110.623 328.567 107.303 329.906 106.658C331.153 106.057 331.63 107.129 329.722 109.264C328.447 110.693 325.503 112 322.191 112C316.128 112 313 108.27 313 107.094C313 105.917 313.926 105.63 314.523 106.527Z" fill="#02065A"/>
<defs>
<filter id="filter0_d" x="148" y="171.943" width="69.9249" height="132.664" filterUnits="userSpaceOnUse" color-interpolation-filters="sRGB">
<feFlood flood-opacity="0" result="BackgroundImageFix"/>
<feColorMatrix in="SourceAlpha" type="matrix" values="0 0 0 0 0 0 0 0 0 0 0 0 0 0 0 0 0 0 127 0"/>
<feOffset dy="6"/>
<feGaussianBlur stdDeviation="7.5"/>
<feColorMatrix type="matrix" values="0 0 0 0 0 0 0 0 0 0.138341 0 0 0 0 0.864629 0 0 0 0.2 0"/>
<feBlend mode="normal" in2="BackgroundImageFix" result="effect1_dropShadow"/>
<feBlend mode="normal" in="SourceGraphic" in2="effect1_dropShadow" result="shape"/>
</filter>
<filter id="filter1_d" x="262.075" y="171.943" width="69.9249" height="132.664" filterUnits="userSpaceOnUse" color-interpolation-filters="sRGB">
<feFlood flood-opacity="0" result="BackgroundImageFix"/>
<feColorMatrix in="SourceAlpha" type="matrix" values="0 0 0 0 0 0 0 0 0 0 0 0 0 0 0 0 0 0 127 0"/>
<feOffset dy="6"/>
<feGaussianBlur stdDeviation="7.5"/>
<feColorMatrix type="matrix" values="0 0 0 0 0 0 0 0 0 0.138341 0 0 0 0 0.864629 0 0 0 0.2 0"/>
<feBlend mode="normal" in2="BackgroundImageFix" result="effect1_dropShadow"/>
<feBlend mode="normal" in="SourceGraphic" in2="effect1_dropShadow" result="shape"/>
</filter>
<filter id="filter2_d" x="182.865" y="141.756" width="114.651" height="171.852" filterUnits="userSpaceOnUse" color-interpolation-filters="sRGB">
<feFlood flood-opacity="0" result="BackgroundImageFix"/>
<feColorMatrix in="SourceAlpha" type="matrix" values="0 0 0 0 0 0 0 0 0 0 0 0 0 0 0 0 0 0 127 0"/>
<feOffset dy="10"/>
<feGaussianBlur stdDeviation="10"/>
<feColorMatrix type="matrix" values="0 0 0 0 0 0 0 0 0 0.137255 0 0 0 0 0.862745 0 0 0 0.2 0"/>
<feBlend mode="normal" in2="BackgroundImageFix" result="effect1_dropShadow"/>
<feBlend mode="normal" in="SourceGraphic" in2="effect1_dropShadow" result="shape"/>
</filter>
<filter id="filter3_d" x="273.24" y="114.39" width="98.06" height="164.93" filterUnits="userSpaceOnUse" color-interpolation-filters="sRGB">
<feFlood flood-opacity="0" result="BackgroundImageFix"/>
<feColorMatrix in="SourceAlpha" type="matrix" values="0 0 0 0 0 0 0 0 0 0 0 0 0 0 0 0 0 0 127 0"/>
<feOffset dy="6"/>
<feGaussianBlur stdDeviation="7.5"/>
<feColorMatrix type="matrix" values="0 0 0 0 0 0 0 0 0 0.138341 0 0 0 0 0.864629 0 0 0 0.2 0"/>
<feBlend mode="normal" in2="BackgroundImageFix" result="effect1_dropShadow"/>
<feBlend mode="normal" in="SourceGraphic" in2="effect1_dropShadow" result="shape"/>
</filter>
<filter id="filter4_d" x="307" y="124.47" width="58.67" height="73.87" filterUnits="userSpaceOnUse" color-interpolation-filters="sRGB">
<feFlood flood-opacity="0" result="BackgroundImageFix"/>
<feColorMatrix in="SourceAlpha" type="matrix" values="0 0 0 0 0 0 0 0 0 0 0 0 0 0 0 0 0 0 127 0"/>
<feOffset dy="6"/>
<feGaussianBlur stdDeviation="7.5"/>
<feColorMatrix type="matrix" values="0 0 0 0 0 0 0 0 0 0.138341 0 0 0 0 0.864629 0 0 0 0.2 0"/>
<feBlend mode="normal" in2="BackgroundImageFix" result="effect1_dropShadow"/>
<feBlend mode="normal" in="SourceGraphic" in2="effect1_dropShadow" result="shape"/>
</filter>
<filter id="filter5_d" x="308.78" y="144.28" width="61.8614" height="57.2931" filterUnits="userSpaceOnUse" color-interpolation-filters="sRGB">
<feFlood flood-opacity="0" result="BackgroundImageFix"/>
<feColorMatrix in="SourceAlpha" type="matrix" values="0 0 0 0 0 0 0 0 0 0 0 0 0 0 0 0 0 0 127 0"/>
<feOffset dy="6"/>
<feGaussianBlur stdDeviation="7.5"/>
<feColorMatrix type="matrix" values="0 0 0 0 0 0 0 0 0 0.138341 0 0 0 0 0.864629 0 0 0 0.2 0"/>
<feBlend mode="normal" in2="BackgroundImageFix" result="effect1_dropShadow"/>
<feBlend mode="normal" in="SourceGraphic" in2="effect1_dropShadow" result="shape"/>
</filter>
</defs>
</svg>
