<svg width="78" height="82" viewBox="0 0 78 82" fill="none" xmlns="http://www.w3.org/2000/svg">
<path d="M28.8669 58.8571L41.4479 62.6714C41.4319 62.7516 41.3998 62.8477 41.3678 62.9279C41.0312 63.8414 40.3421 64.3543 39.2202 64.5306C35.0853 65.1877 28.2258 64.771 28.1617 64.771C27.1039 64.7069 26.1904 65.5082 26.1263 66.566C26.0622 67.6237 26.8635 68.5373 27.9213 68.6014C28.2258 68.6174 35.2616 69.0501 39.8292 68.3129C44.3648 67.5917 45.663 63.601 45.4226 61.0848C45.3424 60.2995 44.8136 59.6424 44.0603 59.418L29.9727 55.1549C23.0171 53.0553 15.3883 56.9338 15.0678 57.0941C15.0357 57.1101 14.9876 57.1262 14.9556 57.1582L0.932084 65.6364C0.0185539 66.1813 -0.269929 67.3673 0.274983 68.2808C0.6436 68.8738 1.26865 69.2104 1.92575 69.2104C2.26231 69.2104 2.59887 69.1142 2.91941 68.9379L16.8788 60.5238C17.4878 60.2033 23.6261 57.2704 28.8669 58.8571Z" fill="#6480EB"/>
<path d="M76.8835 55.6358C75.7777 53.6164 72.3319 50.395 67.1072 52.7029C62.1709 54.8986 51.7374 59.915 51.6253 59.9631C50.6636 60.4278 50.263 61.5658 50.7277 62.5274C51.1925 63.489 52.3465 63.8896 53.292 63.4249C53.4042 63.3768 63.7736 58.3764 68.6618 56.2128C70.0561 55.5877 71.2261 55.5877 72.2358 56.2128C72.2678 56.2288 72.2838 56.2448 72.3159 56.2609L46.1761 75.4129C44.317 76.7752 41.9611 77.3362 39.7013 76.9836L16.3822 73.2653C15.8373 73.1852 15.2764 73.3294 14.8437 73.682L8.94579 78.6023C8.12843 79.2754 8.01624 80.4934 8.70539 81.3108C9.09004 81.7596 9.63495 82 10.1799 82C10.6126 82 11.0453 81.8557 11.4139 81.5512L16.6387 77.1919L39.1083 80.7819C42.3778 81.3108 45.7915 80.4774 48.468 78.5221L76.3547 58.104C77.1079 57.527 77.3483 56.4852 76.8835 55.6358Z" fill="#6480EB"/>
<path d="M38.6681 50.2002C51.9904 50.2002 62.7903 39.4102 62.7903 26.1001C62.7903 12.79 51.9904 2 38.6681 2C25.3458 2 14.5459 12.79 14.5459 26.1001C14.5459 39.4102 25.3458 50.2002 38.6681 50.2002Z" stroke="#6480EB" stroke-width="4"/>
<path fill-rule="evenodd" clip-rule="evenodd" d="M38.0526 23.3027C38.0526 25.284 37.4574 26.815 36.2658 27.8936C35.0754 28.9744 33.3833 29.5142 31.1919 29.5142H29.82V35.3971H24.9365V17.6621H31.1919C33.4747 17.6621 35.1881 18.151 36.3346 19.13C37.4799 20.1079 38.0526 21.4996 38.0526 23.3027ZM29.82 25.6081H30.7105C31.4433 25.6081 32.0261 25.4057 32.4578 25.0008C32.8918 24.597 33.1072 24.0384 33.1072 23.3271C33.1072 22.1301 32.4319 21.5317 31.0803 21.5317H29.82V25.6081ZM45.1546 34.5719C43.356 34.4927 41.5876 34.09 39.9374 33.3838V29.356C40.8934 29.8328 41.9327 30.231 43.0533 30.5507C44.1738 30.8704 45.1579 31.0297 46.0068 31.0297C46.708 31.0297 47.2209 30.9468 47.5467 30.7808C47.8713 30.6149 48.0348 30.3383 48.0348 29.9511C48.0348 29.6834 47.9176 29.4567 47.6819 29.2708C47.4475 29.085 47.0563 28.8748 46.5073 28.6403C45.7767 28.3353 45.0368 28.052 44.2888 27.7907C43.2427 27.4113 42.3972 26.9842 41.7546 26.5108C41.1121 26.0384 40.6442 25.5085 40.3511 24.9222C40.0581 24.3359 39.9126 23.6058 39.9126 22.7319C39.9126 21.3978 40.35 20.3546 41.2237 19.6024C42.0962 18.8502 43.4072 18.3856 45.1546 18.2086V16.5459H47.7135V18.1831C49.3526 18.2716 51.0052 18.6687 52.6702 19.3723L51.1991 22.8293C49.4766 22.0693 47.9232 21.6899 46.5389 21.6899C45.8794 21.6899 45.4161 21.7673 45.1478 21.9255C45.0217 21.9938 44.9174 22.0951 44.8466 22.2182C44.7757 22.3412 44.7411 22.4812 44.7465 22.6224C44.7465 22.8901 44.8434 23.1102 45.0373 23.285C45.2301 23.4587 45.5671 23.6523 46.044 23.8669C46.522 24.0815 47.1859 24.3293 48.0348 24.6125C49.7573 25.211 50.9928 25.8924 51.7436 26.6568C52.4932 27.4201 52.8675 28.4058 52.8675 29.6104C52.8675 30.9689 52.429 32.0729 51.5519 32.9225C50.6738 33.7721 49.3943 34.2975 47.7135 34.5V36.8407H45.1546V34.573V34.5719Z" fill="#00D7AF"/>
</svg>
