<svg width="69" height="81" viewBox="0 0 69 81" fill="none" xmlns="http://www.w3.org/2000/svg">
<circle cx="34.5" cy="19.5" r="17.5" stroke="#6480EB" stroke-width="4"/>
<path d="M2.01343 72.7538L4.01228 72.8218L4.01343 72.7878V72.7538H2.01343ZM34.504 45.5V43.5V45.5ZM5.26249 80H63.7455V76H5.26249V80ZM63.7455 80C64.3659 80 66.0656 80.081 67.3628 78.7288C68.5655 77.4751 68.9946 75.4596 68.9946 72.7538H64.9946C64.9946 75.2941 64.5318 75.9018 64.4763 75.9597C64.472 75.9641 64.4783 75.9575 64.4895 75.9517C64.4975 75.9475 64.4873 75.9547 64.4424 75.9646C64.3161 75.9923 64.1481 76 63.7455 76V80ZM0.0145874 72.6858C-0.0752988 75.3292 0.221557 77.4048 1.43028 78.7056C2.73137 80.1058 4.56031 80 5.26249 80V76C4.16293 76 4.27815 75.8942 4.36054 75.9828C4.38207 76.006 4.25844 75.8913 4.14948 75.3743C4.03987 74.8542 3.9706 74.0474 4.01228 72.8218L0.0145874 72.6858ZM4.01343 72.7538C4.01343 64.6808 7.65042 58.434 13.2499 54.1516C18.8946 49.8347 26.5708 47.5 34.504 47.5V43.5C25.8404 43.5 17.2713 46.0403 10.8199 50.9743C4.32332 55.9429 0.0134321 63.323 0.0134321 72.7538H4.01343ZM34.504 47.5C42.4372 47.5 50.1134 49.8347 55.7581 54.1516C61.3576 58.434 64.9946 64.6808 64.9946 72.7538H68.9946C68.9946 63.323 64.6847 55.9429 58.1881 50.9743C51.7366 46.0403 43.1676 43.5 34.504 43.5V47.5Z" fill="#6480EB"/>
<path d="M33.6033 51.817C33.9701 51.0737 35.0299 51.0737 35.3967 51.817L37.6471 56.3767C37.7928 56.6719 38.0743 56.8764 38.4 56.9238L43.432 57.6549C44.2522 57.7741 44.5797 58.7821 43.9862 59.3606L40.345 62.9099C40.1094 63.1396 40.0018 63.4706 40.0574 63.795L40.917 68.8066C41.0571 69.6235 40.1997 70.2465 39.4661 69.8608L34.9653 67.4946C34.674 67.3415 34.326 67.3415 34.0347 67.4946L29.5339 69.8608C28.8003 70.2465 27.9429 69.6235 28.083 68.8066L28.9426 63.795C28.9982 63.4706 28.8906 63.1396 28.655 62.9099L25.0138 59.3606C24.4203 58.7821 24.7478 57.7741 25.568 57.6549L30.6 56.9238C30.9257 56.8764 31.2072 56.6719 31.3529 56.3767L33.6033 51.817Z" fill="#00D7AF"/>
</svg>
