<svg width="80" height="80" viewBox="0 0 80 80" fill="none" xmlns="http://www.w3.org/2000/svg">
<path d="M2 77.0007V67.2801C2 67.0131 2.10681 66.7571 2.29664 66.5693L22.04 47.0337C22.4312 46.6467 23.0614 46.6484 23.4505 47.0375L36.2381 59.8251C36.6276 60.2145 37.2587 60.2158 37.6496 59.8278L64.8381 32.8468C65.2316 32.4563 65.8677 32.4605 66.2561 32.8561L77.0584 43.8584C77.242 44.0454 77.3448 44.297 77.3448 44.559V77.0007C77.3448 77.553 76.8971 78.0007 76.3448 78.0007H3C2.44772 78.0007 2 77.553 2 77.0007Z" stroke="#6480EB" stroke-width="4"/>
<path d="M66 32L66 28.4526L66 23" stroke="#6480EB" stroke-width="4" stroke-linecap="round"/>
<path d="M47.674 0H67C67.5523 0 68 0.447716 68 1V17.8052C68 18.6629 66.991 19.1227 66.3438 18.5598L47.0178 1.75461C46.3199 1.14771 46.7491 0 47.674 0Z" fill="#00D7AF"/>
</svg>
