<svg width="84" height="63" viewBox="0 0 84 63" fill="none" xmlns="http://www.w3.org/2000/svg">
<circle cx="23.0014" cy="13.7992" r="10.601" stroke="#6480EB" stroke-width="4"/>
<path d="M2.00868 48.2121L4.00753 48.2801L4.00868 48.2461V48.2121H2.00868ZM23.0042 32.6006C24.1088 32.6006 25.0042 31.7052 25.0042 30.6006C25.0042 29.496 24.1088 28.6006 23.0042 28.6006V32.6006ZM23.0042 53.6022C24.1088 53.6022 25.0042 52.7068 25.0042 51.6022C25.0042 50.4977 24.1088 49.6022 23.0042 49.6022V53.6022ZM0.00983596 48.1441C-0.0484931 49.8595 0.120349 51.4711 1.11349 52.5399C2.199 53.7081 3.72478 53.6022 4.10824 53.6022V49.6022C3.95375 49.6022 3.85801 49.6019 3.77355 49.5979C3.69332 49.5941 3.6669 49.5885 3.67144 49.5894C3.70943 49.5971 3.88798 49.6494 4.04375 49.8171C4.17307 49.9563 4.13534 50.0156 4.08139 49.7596C4.02678 49.5005 3.98163 49.0417 4.00753 48.2801L0.00983596 48.1441ZM4.00868 48.2121C4.00868 43.2355 6.23989 39.3993 9.69959 36.7534C13.2045 34.0729 18.007 32.6006 23.0042 32.6006V28.6006C17.2766 28.6006 11.5813 30.2786 7.26962 33.5761C2.91278 36.9081 0.0086807 41.8777 0.0086807 48.2121H4.00868ZM4.10824 53.6022H23.0042V49.6022H4.10824V53.6022Z" fill="#6480EB"/>
<circle cx="57.0018" cy="15.0008" r="13.0008" stroke="#6480EB" stroke-width="4"/>
<path d="M79.5 60.0033H34.5107C33.1247 60.0033 31.8741 60.0033 32.0113 55.9675C32.0113 42.5023 44.2379 35.002 57.0054 35.002C69.7728 35.002 81.9994 42.5023 81.9994 55.9675C81.9994 60.0033 80.6273 60.0033 79.5 60.0033Z" fill="white"/>
<path d="M32.0113 55.9675L34.0102 56.0355L34.0113 56.0015V55.9675H32.0113ZM57.0054 35.002V33.002V35.002ZM34.5107 62.0033H79.5V58.0033H34.5107V62.0033ZM79.5 62.0033C79.9513 62.0033 81.4636 62.0843 82.6157 60.8833C83.6732 59.781 83.9994 58.0681 83.9994 55.9675H79.9994C79.9994 56.8775 79.9205 57.4529 79.8307 57.8016C79.7421 58.1451 79.6662 58.1799 79.7292 58.1142C79.9134 57.9222 80.176 58.0033 79.5 58.0033V62.0033ZM30.0125 55.8995C29.9432 57.9377 30.1565 59.7107 31.2247 60.8602C32.3852 62.1091 34.0164 62.0033 34.5107 62.0033V58.0033C34.1185 58.0033 33.9911 57.9958 33.9148 57.9803C33.9032 57.978 34.0366 58.0101 34.1549 58.1374C34.2467 58.2362 34.1791 58.235 34.1061 57.8882C34.0323 57.5383 33.9788 56.9585 34.0102 56.0355L30.0125 55.8995ZM34.0113 55.9675C34.0113 49.9138 36.7315 45.2391 40.9355 42.0239C45.1847 38.7742 50.9868 37.002 57.0054 37.002V33.002C50.2564 33.002 43.5615 34.9799 38.5056 38.8466C33.4044 42.7479 30.0113 48.556 30.0113 55.9675H34.0113ZM57.0054 37.002C63.0239 37.002 68.826 38.7742 73.0752 42.0239C77.2792 45.2391 79.9994 49.9138 79.9994 55.9675H83.9994C83.9994 48.556 80.6063 42.7479 75.5052 38.8466C70.4492 34.9799 63.7543 33.002 57.0054 33.002V37.002Z" fill="#6480EB"/>
<path fill-rule="evenodd" clip-rule="evenodd" d="M43.8344 42.2116C44.3524 41.8112 44.3524 41.0293 43.8344 40.629L31.6407 31.2067C30.9834 30.6987 30.0293 31.1673 30.0293 31.9979V36.7013H16.2002C15.6479 36.7013 15.2002 37.149 15.2002 37.7012V45.1379C15.2002 45.6902 15.6479 46.1379 16.2002 46.1379H30.0293V50.8426C30.0293 51.6733 30.9834 52.1418 31.6407 51.6339L43.8344 42.2116Z" fill="#00D7AF"/>
</svg>
