<svg xmlns="http://www.w3.org/2000/svg" width="56" height="50" viewBox="0 0 56 50">
    <defs>
        <linearGradient id="a" x1="0%" y1="9.057%" y2="100%">
            <stop offset="0%" stop-color="#00D7AF"/>
            <stop offset="100%" stop-color="#46737A"/>
        </linearGradient>
    </defs>
    <g fill="url(#a)" fill-rule="evenodd" transform="translate(-252 -1326)">
        <path d="M258.231 1333.545c0 .61.527 1.134 1.14 1.134h5.091v5.056c0 .61.527 1.133 1.141 1.133s1.141-.523 1.141-1.133v-5.056h5.09c.615 0 1.141-.523 1.141-1.134 0-.61-.526-1.133-1.14-1.133h-5.091v-4.969c0-.61-.527-1.133-1.14-1.133-.615 0-1.142.523-1.142 1.133v5.056h-5.178c-.526 0-1.053.523-1.053 1.046M285.438 1350.632c-.615 0-1.141.523-1.141 1.133s.526 1.133 1.14 1.133c2.809 0 5.09-2.266 5.09-5.056a5.072 5.072 0 0 0-1.49-3.574 5.142 5.142 0 0 0-3.6-1.482h-14.042l-2.281 4.01h-8.689l-.526-2.528c-.176-.872-.703-1.482-1.317-1.918a2.84 2.84 0 0 0-2.194-.348c-1.316.348-2.282 1.482-2.282 2.876 0 .262 0 .436.088.61l.614 2.616.088.174c-.088.175.176 1.133.439 2.005.263.785.439 1.57.526 1.744.088.436.527.784 1.054.784h.263c.614-.174.965-.784.79-1.307-.088-.175-.264-.96-.527-1.831-.263-.872-.526-1.744-.614-2.005l-.615-2.702v-.175c0-.349.264-.697.615-.697.439-.087.79.174.877.61l.966 4.184h11.672l2.282-4.01h12.726c.79 0 1.493.262 2.018.872.527.523.878 1.308.878 2.005.088 1.57-1.229 2.877-2.808 2.877M295.18 1337.643c1.49 0 2.72 1.22 2.72 2.702s-1.23 2.703-2.72 2.703c-1.492 0-2.722-1.22-2.722-2.703 0-1.482 1.23-2.702 2.722-2.702m0 7.584c2.72 0 4.915-2.18 4.915-4.882 0-2.702-2.194-4.882-4.915-4.882-2.722 0-4.916 2.18-4.916 4.882 0 2.703 2.194 4.882 4.916 4.882"/>
        <path d="M305.009 1351.155l-6.407 6.102c-3.159 2.964-7.284 4.62-11.585 4.62h-30.892c-1.053 0-1.93-.871-1.93-1.917s.877-1.918 1.93-1.918h30.892c3.336 0 6.495-1.22 8.952-3.574l6.407-6.103c.79-.697 2.02-.697 2.721.088.701.784.701 2.005-.088 2.702zM281.4 1368.94c-.703-.61-1.668-1.046-2.633-1.046-.966 0-1.931.436-2.633 1.046h-7.898c-.703-.61-1.669-1.046-2.633-1.046-.966 0-1.932.436-2.633 1.046h-3.863v-4.882h26.066v4.882h-3.773zm-2.633 4.62a1.754 1.754 0 0 1-1.755-1.743 1.755 1.755 0 1 1 3.51 0c0 .959-.79 1.743-1.755 1.743zm-13.253 0a1.755 1.755 0 0 1-1.755-1.743c0-.96.79-1.744 1.755-1.744.966 0 1.755.785 1.755 1.744s-.789 1.743-1.755 1.743zm35.281-26.763l-6.407 6.103a10.688 10.688 0 0 1-7.372 2.964h-30.892c-2.282 0-4.124 1.83-4.124 4.097 0 2.266 1.842 4.097 4.124 4.097h.79v7.061h4.74c0 .262-.09.436-.09.698 0 2.18 1.756 3.923 3.95 3.923s3.95-1.744 3.95-3.923c0-.262 0-.436-.088-.698h5.529c0 .262-.087.436-.087.698 0 2.18 1.755 3.923 3.95 3.923 2.193 0 3.949-1.744 3.949-3.923 0-.262 0-.436-.089-.698h4.74v-7.061c4.74-.087 9.302-1.918 12.725-5.23l6.407-6.103c1.668-1.569 1.755-4.184.175-5.84-1.579-1.57-4.212-1.657-5.88-.088z"/>
    </g>
</svg>
