<svg xmlns="http://www.w3.org/2000/svg" width="22" height="22" viewBox="0 0 22 22">
    <g fill="none" fill-rule="evenodd" stroke="#99bbc1">
        <path fill="#99bbc1" d="M20.66 18.873c0 .572-.466 1.036-1.037 1.036H3.728a1.038 1.038 0 0 1-1.037-1.036V8.506h17.97v10.367h-.001zM19.623 2.977h-3.455V1.595a.345.345 0 1 0-.691 0v3.11a.345.345 0 1 0 .69 0V3.668h3.456c.572 0 1.037.466 1.037 1.037v3.11H2.69v-3.11c0-.572.466-1.037 1.037-1.037h2.764v-.691H3.728A1.73 1.73 0 0 0 2 4.705v14.168c0 .95.775 1.727 1.728 1.727h15.896c.953 0 1.728-.776 1.728-1.727V4.705a1.73 1.73 0 0 0-1.729-1.728z"/>
        <path fill="#99bbc1" d="M7.364 5a.363.363 0 0 0 .363-.364v-1.09H15v-.728H7.727V1.364a.363.363 0 1 0-.727 0v3.272c0 .201.163.364.364.364"/>
        <g stroke-linecap="round" stroke-linejoin="round" stroke-width="1.75">
            <path d="M1 14h7.5M5.5 17l3-3M5.5 11l3 3"/>
        </g>
    </g>
</svg>
