<svg xmlns="http://www.w3.org/2000/svg" width="27" height="21" viewBox="0 0 27 21">
    <g fill="none" fill-rule="evenodd" stroke="#99bbc1">
        <g fill="#99bbc1">
            <path d="M19.66 17.873c0 .572-.466 1.036-1.037 1.036H2.728a1.038 1.038 0 0 1-1.037-1.036V7.506h17.97v10.367h-.001zM18.623 1.977h-3.455V.595a.345.345 0 1 0-.691 0v3.11a.345.345 0 1 0 .69 0V2.668h3.456c.572 0 1.037.466 1.037 1.037v3.11H1.69v-3.11c0-.572.466-1.037 1.037-1.037h2.764v-.691H2.728A1.73 1.73 0 0 0 1 3.705v14.168c0 .95.775 1.727 1.728 1.727h15.896c.953 0 1.728-.776 1.728-1.727V3.705a1.73 1.73 0 0 0-1.729-1.728z"/>
            <path d="M6.474 4.085c.189 0 .342-.155.342-.348V2.692h6.842v-.696H6.816V.602a.345.345 0 0 0-.342-.348.345.345 0 0 0-.342.348v3.135c0 .193.153.348.342.348"/>
        </g>
        <g stroke-linecap="round" stroke-linejoin="round" stroke-width="1.75">
            <path d="M18 13h7.5M22.5 16l3-3M22.5 10l3 3"/>
        </g>
    </g>
</svg>
