<svg width="16" height="16" viewBox="0 0 16 16" fill="none" xmlns="http://www.w3.org/2000/svg">
<path d="M5.50004 1C5.50004 0.585786 5.16425 0.25 4.75004 0.25C4.33583 0.25 4.00004 0.585786 4.00004 1H5.50004ZM4.00004 4.00003C4.00004 4.41425 4.33583 4.75003 4.75004 4.75003C5.16425 4.75003 5.50004 4.41425 5.50004 4.00003H4.00004ZM11.5003 1C11.5003 0.585786 11.1645 0.25 10.7503 0.25C10.3361 0.25 10.0003 0.585786 10.0003 1H11.5003ZM10.0003 4.00003C10.0003 4.41425 10.3361 4.75003 10.7503 4.75003C11.1645 4.75003 11.5003 4.41425 11.5003 4.00003H10.0003ZM1.75 7.75008V4.00003H0.25V7.75008H1.75ZM1.75 4.00003C1.75 3.58581 2.08579 3.25002 2.50002 3.25002V1.75002C1.25737 1.75002 0.25 2.75738 0.25 4.00003H1.75ZM2.50002 3.25002H13.0001V1.75002H2.50002V3.25002ZM13.0001 3.25002C13.4144 3.25002 13.7501 3.58581 13.7501 4.00003H15.2501C15.2501 2.75739 14.2428 1.75002 13.0001 1.75002V3.25002ZM13.7501 4.00003V13.0001H15.2501V4.00003H13.7501ZM13.7501 13.0001C13.7501 13.4144 13.4144 13.7501 13.0001 13.7501V15.2501C14.2428 15.2501 15.2501 14.2428 15.2501 13.0001H13.7501ZM13.0001 13.7501H2.50002V15.2501H13.0001V13.7501ZM2.50002 13.7501C2.08579 13.7501 1.75 13.4144 1.75 13.0001H0.25C0.25 14.2428 1.25737 15.2501 2.50002 15.2501V13.7501ZM1.75 13.0001V12.2501H0.25V13.0001H1.75ZM1 7.18755H14.5001V5.68755H1V7.18755ZM4.00004 1V4.00003H5.50004V1H4.00004ZM10.0003 1V4.00003H11.5003V1H10.0003ZM1.75 12.2501V7.75008H0.25V12.2501H1.75Z" fill="#6480EB"/>
</svg>
