<svg xmlns="http://www.w3.org/2000/svg" width="50" height="50" viewBox="0 0 50 50">
    <defs>
        <linearGradient id="a" x1="0%" y1="9.057%" y2="100%">
            <stop offset="0%" stop-color="#00D7AF"/>
            <stop offset="100%" stop-color="#46737A"/>
        </linearGradient>
    </defs>
    <g fill="url(#a)" fill-rule="evenodd" transform="translate(-255 -1230)">
        <path d="M290.274 1277.916h-33.2v-45.832h24.9v7.292c0 .575.464 1.04 1.037 1.04h7.263v37.5zm-6.225-44.358l4.757 4.776h-4.757v-4.776zm7.996 5.08l-8.3-8.332a1.037 1.037 0 0 0-.734-.305h-26.973c-.575 0-1.038.466-1.038 1.04v47.917a1.04 1.04 0 0 0 1.038 1.042h35.273a1.04 1.04 0 0 0 1.038-1.042v-39.582c0-.276-.11-.542-.304-.737zM302.907 1267.587h-4.184v-26.114a2.093 2.093 0 0 1 4.184 0v26.114zm-2.093 6.89l-1.753-1.167 1.042-3.634h1.422l1.042 3.634-1.753 1.167zm4.185-33.004a4.182 4.182 0 0 0-4.185-4.179 4.18 4.18 0 0 0-4.183 4.179v28.203h1.296l-1.296 4.526 4.183 2.786 4.185-2.786-1.298-4.526h1.298v-28.203z"/>
        <path d="M284.693 1257.108h-22.639c-.568 0-1.03.405-1.03.905 0 .499.462.903 1.03.903h22.638c.57 0 1.03-.404 1.03-.903 0-.5-.46-.905-1.03-.905M284.693 1263.133h-22.639c-.568 0-1.03.403-1.03.904 0 .499.462.903 1.03.903h22.638c.57 0 1.03-.404 1.03-.903 0-.5-.46-.904-1.03-.904M274.449 1269.759h-12.39c-.571 0-1.035.404-1.035.904s.464.903 1.035.903h12.39c.57 0 1.033-.404 1.033-.903 0-.5-.463-.904-1.033-.904M273.03 1248.787l-.52.454v2.126h-1.044v-1.525h-1.044v1.525h-1.044v-1.525h-1.045v1.525h-1.044v-1.525h-1.044v1.525H265.2v-2.126l-.52-.454c-1.329-1.16-2.09-2.813-2.09-4.536 0-3.364 2.81-6.1 6.264-6.1 3.455 0 6.266 2.736 6.266 6.1 0 1.723-.762 3.377-2.09 4.536m-4.176-12.16c-4.325 0-7.83 3.413-7.83 7.624 0 2.255 1.01 4.275 2.61 5.671v1.953c0 .562.467 1.017 1.044 1.017h8.353c.576 0 1.044-.455 1.044-1.017v-1.953c1.6-1.396 2.61-3.416 2.61-5.671 0-4.211-3.505-7.624-7.83-7.624m2.61 7.115c-.865 0-1.566.683-1.566 1.525 0 .842.701 1.525 1.566 1.525.864 0 1.566-.683 1.566-1.525 0-.842-.702-1.525-1.566-1.525m-5.221 0c-.865 0-1.566.683-1.566 1.525 0 .842.701 1.525 1.566 1.525.865 0 1.566-.683 1.566-1.525 0-.842-.701-1.525-1.566-1.525"/>
    </g>
</svg>
