<svg width="80" height="54" viewBox="0 0 80 54" fill="none" xmlns="http://www.w3.org/2000/svg">
<g clip-path="url(#clip0)">
<path d="M44.2549 18.7234C42.0649 18.7234 40.2832 16.9414 40.2832 14.751C40.2832 12.5615 42.0649 10.7802 44.2549 10.7802C46.4448 10.7802 48.2265 12.5615 48.2265 14.751C48.2265 16.9414 46.4448 18.7234 44.2549 18.7234Z" stroke="#00D7AF" stroke-width="4"/>
<path d="M65.5175 47.3373C65.5253 47.3277 65.546 47.3024 65.5968 47.3024C65.6477 47.3024 65.6684 47.3277 65.676 47.3371C68.7796 51.1479 73.4275 53.3334 78.4282 53.3334C79.2958 53.3334 79.9993 52.6513 79.9993 51.81C79.9993 50.9685 79.2957 50.2865 78.4282 50.2865C74.395 50.2865 70.6462 48.5234 68.1421 45.4487C67.5245 44.6903 66.5966 44.2554 65.5967 44.2554C64.5968 44.2554 63.6688 44.6903 63.0511 45.4487C60.5472 48.5232 56.7984 50.2865 52.7654 50.2865C48.7322 50.2865 44.9834 48.5234 42.4793 45.4487C41.8616 44.6903 40.9338 44.2554 39.9337 44.2554C38.9338 44.2554 38.006 44.6903 37.3883 45.4487C34.8844 48.5232 31.1353 50.2865 27.1024 50.2865C26.2346 50.2865 25.5312 50.9687 25.5312 51.81C25.5312 52.6514 26.2347 53.3334 27.1024 53.3334C32.1029 53.3334 36.7509 51.1479 39.8545 47.3371C39.8622 47.3276 39.8829 47.3024 39.9337 47.3024C39.9848 47.3024 40.0054 47.3277 40.0129 47.3371C43.1163 51.1479 47.7642 53.3334 52.7651 53.3334C57.7661 53.3337 62.414 51.148 65.5175 47.3373Z" fill="#6480EB"/>
<path d="M78.4316 36.594C74.4045 36.594 70.6612 34.7876 68.1623 31.6393C67.5461 30.8609 66.6195 30.4144 65.6204 30.4144C64.6214 30.4144 63.695 30.8607 63.0798 31.6378C61.5087 33.6176 59.4336 35.0765 57.0907 35.8812L59.7959 24.2674C62.0162 23.2095 63.9843 21.6509 65.5218 19.721C65.5584 19.675 65.6022 19.6653 65.6323 19.6653C65.6325 19.6653 65.6325 19.6653 65.6325 19.6653C65.6751 19.6653 65.6892 19.6832 65.6998 19.6963C68.7983 23.6013 73.4387 25.8409 78.4311 25.8409C79.2973 25.8409 79.9997 25.1419 79.9997 24.2798C79.9997 23.4177 79.2972 22.7187 78.4311 22.7187C74.4047 22.7187 70.6619 20.9118 68.1617 17.7614C67.5484 16.9882 66.6276 16.5441 65.6356 16.5432C65.6345 16.5432 65.6334 16.5432 65.6323 16.5432C64.6267 16.5432 63.6904 16.9943 63.0636 17.7813C62.8242 18.0819 62.5711 18.3705 62.307 18.648L60.9679 16.9047C60.9576 16.8901 60.9467 16.8755 60.9357 16.8613L48.4542 0.613261C47.9974 0.0184722 47.1809 -0.169994 46.5077 0.164487L28.1224 9.29189C28.1219 9.2922 28.1213 9.29236 28.1208 9.29267L24.6661 11.0078C23.891 11.3927 23.576 12.3301 23.9627 13.1016C24.3494 13.8731 25.2916 14.1867 26.0666 13.8017L26.5347 13.5692L24.4607 22.4315C21.5071 21.8008 18.8118 20.145 16.9197 17.76C16.3039 16.9836 15.3782 16.5382 14.3807 16.5382H14.3805C13.3817 16.5382 12.4552 16.9839 11.8381 17.7614C9.33846 20.9117 5.59548 22.7186 1.56922 22.7186C0.702814 22.7186 0.000625001 23.4175 0.000625001 24.2796C0.000625001 25.1419 0.70297 25.8407 1.56922 25.8407C6.56158 25.8407 11.2017 23.6012 14.3003 19.6964C14.3082 19.6866 14.3289 19.6605 14.3803 19.6605C14.43 19.6605 14.4492 19.6844 14.4574 19.6947C16.7893 22.6343 20.1082 24.6811 23.7488 25.4728L21.4541 35.2782C19.6971 34.4249 18.1502 33.1883 16.9216 31.6393C16.3052 30.8609 15.3788 30.4146 14.3797 30.4146C13.3807 30.4146 12.4544 30.8609 11.8388 31.6379C9.33877 34.7877 5.59548 36.5943 1.56828 36.5943C0.702345 36.594 0 37.2928 0 38.1551C0 39.0173 0.702345 39.7162 1.5686 39.7162C6.56173 39.7162 11.2024 37.4771 14.3017 33.5717C14.31 33.5613 14.3296 33.5366 14.3796 33.5366C14.4296 33.5366 14.4491 33.5611 14.4582 33.5725C16.4253 36.0526 19.0491 37.8895 22.0463 38.8866C22.051 38.8881 22.0555 38.8898 22.0602 38.8914C22.0633 38.8925 22.0664 38.8936 22.0696 38.8946C23.7161 39.4397 25.4385 39.716 27.189 39.716C29.5618 39.716 31.8498 39.2162 33.989 38.2316C33.9929 38.2299 33.9968 38.2282 34.0007 38.2265C34.0063 38.224 34.0119 38.2215 34.0174 38.219C36.3071 37.1607 38.3485 35.554 39.9221 33.5716C39.9304 33.5611 39.9499 33.5364 39.9999 33.5364C40.0498 33.5364 40.0693 33.561 40.0785 33.5727C41.1904 34.9737 42.5177 36.1749 44.024 37.1432C44.0413 37.1544 44.0591 37.1647 44.0765 37.1757C44.0793 37.1773 44.0818 37.1792 44.0846 37.1807C46.6887 38.839 49.7042 39.7162 52.8109 39.7162C53.619 39.7162 54.43 39.6561 55.2189 39.5384C55.2251 39.5375 55.2314 39.5364 55.2378 39.5355C55.2459 39.5342 55.254 39.533 55.2621 39.5316C59.3279 38.9189 62.9773 36.8041 65.5428 33.5717C65.5511 33.5613 65.5706 33.5367 65.6204 33.5367C65.6703 33.5367 65.6898 33.5613 65.6992 33.5731C68.7978 37.4773 73.4386 39.7163 78.4314 39.7163C79.2977 39.7163 80 39.0173 80 38.1552C80 37.2931 79.2977 36.594 78.4316 36.594ZM40.0002 30.4143C40.0001 30.4143 40.0001 30.4143 40.0002 30.4143C39.001 30.4143 38.0746 30.8606 37.4591 31.6376C36.9491 32.2801 36.3774 32.8727 35.7571 33.4084L37.5284 25.7989L45.1888 27.5664L43.9001 33.1029C43.4123 32.6507 42.9573 32.1627 42.5415 31.6388C41.9256 30.8609 40.9993 30.4143 40.0002 30.4143ZM46.6637 35.0675L48.5996 26.7507C48.7951 25.911 48.2696 25.0724 47.4259 24.8775L36.709 22.4048C36.3038 22.3113 35.8774 22.3818 35.5244 22.601C35.1715 22.8203 34.9202 23.1698 34.8265 23.5732L32.0079 35.6819C30.4774 36.2871 28.8599 36.5939 27.1893 36.5939C26.2571 36.5939 25.3358 36.4948 24.4354 36.3031L30.1794 11.7597L46.7488 3.53371L57.9948 18.1733L53.7118 36.562C53.4126 36.5822 53.1117 36.5939 52.8112 36.5939C50.651 36.594 48.5473 36.0678 46.6637 35.0675Z" fill="#6480EB"/>
</g>
<defs>
<clipPath id="clip0">
<rect width="80" height="53.6" fill="white"/>
</clipPath>
</defs>
</svg>
