<svg xmlns="http://www.w3.org/2000/svg" width="42" height="50" viewBox="0 0 42 50">
    <defs>
        <linearGradient id="a" x1="0%" y1="9.057%" y2="100%">
            <stop offset="0%" stop-color="#00D7AF"/>
            <stop offset="100%" stop-color="#46737A"/>
        </linearGradient>
    </defs>
    <path fill="url(#a)" fill-rule="evenodd" d="M11.895 5.9a3.069 3.069 0 0 0 3.06 3.071 3.069 3.069 0 0 0 3.06-3.07 3.069 3.069 0 0 0-3.06-3.07 3.069 3.069 0 0 0-3.06 3.07m-2.82 0C9.075 2.647 11.713 0 14.955 0c3.243 0 5.881 2.647 5.881 5.9 0 3.254-2.638 5.901-5.88 5.901-3.243 0-5.881-2.647-5.881-5.9m18.978 34.366a1.408 1.408 0 0 0-1.924.529 12.497 12.497 0 0 1-10.84 6.326c-6.875 0-12.468-5.612-12.468-12.51 0-5.132 3.204-9.823 7.972-11.673a1.417 1.417 0 0 0 .807-1.83 1.409 1.409 0 0 0-1.824-.81 15.271 15.271 0 0 0-7.032 5.542A15.286 15.286 0 0 0 0 34.61c0 8.46 6.858 15.341 15.288 15.341 5.482 0 10.574-2.971 13.291-7.755a1.417 1.417 0 0 0-.526-1.93m13.668 8.27c0 .781-.631 1.415-1.41 1.415h-4.463a1.402 1.402 0 0 1-.67-.17 1.41 1.41 0 0 1-.695-.894l-4.395-15.892-13.184-.037a1.403 1.403 0 0 1-.946-.353 1.41 1.41 0 0 1-.471-.91l-1.928-16.023a1.414 1.414 0 0 1 1.449-1.612h.34c3.469 0 3.882.078 6.214 2.113l.252.22.034.03 9.415 8.742h2.203c.779 0 1.41.634 1.41 1.415 0 .782-.631 1.416-1.41 1.416h-2.75l-.09-.003a1.4 1.4 0 0 1-.402-.084h-.002a1.4 1.4 0 0 1-.426-.251v-.001l-.002-.001a1.362 1.362 0 0 1-.042-.037l-9.803-9.104-.238-.207c-.927-.808-1.318-1.141-1.706-1.268-.303-.1-.76-.133-1.458-.144l1.592 13.235 13.026.037a1.411 1.411 0 0 1 1.355 1.036l4.4 15.917h3.39c.78 0 1.411.633 1.411 1.415"/>
</svg>
