<svg xmlns="http://www.w3.org/2000/svg" width="50" height="50" viewBox="0 0 50 50">
    <g fill="#99BBC1" fill-rule="evenodd">
        <path fill-rule="nonzero" d="M4.843 20.965h27.421v1.614H4.843zM4.843 28.228H30.65v1.614H4.843zM4.843 35.482H25v1.614H4.843zM11.289 42.746h1.614v1.614h-1.614zM8.061 42.746h1.614v1.614H8.061zM4.843 42.746h1.614v1.614H4.843z"/>
        <path fill-rule="nonzero" d="M49.291 22.343l-2.283-2.284a2.424 2.424 0 0 0-3.425 0l-6.496 6.496V11.762L25.335 0H0v50h37.096V37.963l12.195-12.195a2.424 2.424 0 0 0 0-3.425zM25.807 2.756l8.534 8.533h-8.534V2.756zm9.675 45.63H1.614V1.614h22.579v11.29h11.29v15.265L24.025 39.626l-1.428 7.126 7.126-1.427 5.758-5.758v8.819zm-10.216-6.732l2.43 2.43-3.04.61.61-3.04zm4.065 1.79l-3.425-3.424 14.832-14.823 3.425 3.425-14.832 14.823zM45.305 27.48l-3.425-3.425 1.142-1.142 3.425 3.426-1.142 1.141zm2.845-2.854l-.571.57-3.425-3.424.57-.571a.808.808 0 0 1 1.142 0l2.284 2.283a.808.808 0 0 1 0 1.142z"/>
        <path d="M10 5h1.5v10H10z"/>
        <path d="M5.75 10.75v-1.5h10v1.5z"/>
        <path fill-rule="nonzero" d="M28.76 39.454l11.407-11.407 1.142 1.142-11.407 11.406z"/>
    </g>
</svg>
