<svg width="22" height="26" viewBox="0 0 22 26" fill="none" xmlns="http://www.w3.org/2000/svg">
<path d="M5.72121 1C4.13346 1 3.48418 1.12635 2.81318 1.48799C2.23885 1.79753 1.79139 2.24846 1.48424 2.82725C1.12538 3.50345 1 4.15777 1 5.75784V20.2422C1 21.8422 1.12538 22.4965 1.48424 23.1728C1.79139 23.7515 2.23885 24.2025 2.81318 24.512C3.48418 24.8736 4.13346 25 5.72121 25H16.2788C17.8665 25 18.5158 24.8736 19.1868 24.512C19.7611 24.2025 20.2086 23.7515 20.5158 23.1728C20.8746 22.4965 21 21.8422 21 20.2422V5.75784C21 4.15777 20.8746 3.50345 20.5158 2.82725C20.2086 2.24846 19.7611 1.79753 19.1868 1.48799C18.5158 1.12635 17.8665 1 16.2788 1H5.72121Z" stroke="#6480EB" stroke-width="1.5"/>
<rect x="4" y="16" width="14" height="1.5" rx="0.75" fill="#6480EB"/>
<rect x="4" y="20" width="14" height="1.5" rx="0.75" fill="#6480EB"/>
<path d="M11 12.75C13.0711 12.75 14.75 11.0711 14.75 9C14.75 6.92893 13.0711 5.25 11 5.25C8.92893 5.25 7.25 6.92893 7.25 9C7.25 11.0711 8.92893 12.75 11 12.75Z" stroke="#6480EB" stroke-width="1.5"/>
<path d="M9.71387 9.257L10.6957 10.2856L12.4567 8.57129" stroke="#6480EB" stroke-width="1.5" stroke-linecap="round" stroke-linejoin="round"/>
</svg>
