<svg width="17" height="17" viewBox="0 0 17 17" fill="none" xmlns="http://www.w3.org/2000/svg">
<circle cx="8.5" cy="8.5" r="7.5" stroke="#6480EB" stroke-width="1.5"/>
<path d="M11.6013 10.2128C11.6013 10.9097 11.3493 11.4708 10.8452 11.896C10.3411 12.3168 9.63539 12.5688 8.72803 12.6521V13.3889H7.82726V12.6784C6.95774 12.6606 6.17513 12.5327 5.47944 12.2947C5.1916 12.1962 5.01315 11.9166 5.01315 11.6124C5.01315 11.0435 5.6208 10.6543 6.16661 10.8146C6.23867 10.8358 6.31224 10.8566 6.38733 10.8769C6.92648 11.0215 7.40646 11.107 7.82726 11.1333V9.09504L7.38673 8.92409C6.51883 8.58219 5.90297 8.2118 5.53915 7.81291C5.17972 7.40965 5 6.91214 5 6.32039C5 5.6848 5.24766 5.16318 5.74298 4.75553C6.24268 4.3435 6.93744 4.09365 7.82726 4.00598V3.61111H8.72803V3.97968C9.42903 4.01029 10.083 4.11786 10.6899 4.30239C11.123 4.43406 11.3164 4.91744 11.1476 5.33748C10.9737 5.77045 10.4813 5.97338 10.0321 5.84718C9.604 5.72692 9.16932 5.64796 8.72803 5.61028V7.54991C9.58279 7.87866 10.1899 8.16358 10.5493 8.40467C10.9131 8.64575 11.1783 8.91094 11.3449 9.20024C11.5158 9.48954 11.6013 9.82706 11.6013 10.2128ZM9.62224 10.3114C9.62224 10.1273 9.54772 9.97171 9.39868 9.84459C9.24965 9.71748 9.0261 9.58598 8.72803 9.45009V11.0873C9.32417 10.9865 9.62224 10.7278 9.62224 10.3114ZM6.97908 6.32039C6.97908 6.51325 7.04483 6.67324 7.17633 6.80036C7.31221 6.9231 7.52919 7.05021 7.82726 7.18171V5.63658C7.2618 5.71987 6.97908 5.9478 6.97908 6.32039Z" fill="#6480EB"/>
<path fill-rule="evenodd" clip-rule="evenodd" d="M8.31322 3C8.79284 3 9.18164 3.38881 9.18164 3.86842L9.18164 13.1316C9.18164 13.6112 8.79283 14 8.31322 14C7.8336 14 7.4448 13.6112 7.4448 13.1316L7.4448 3.86842C7.4448 3.38881 7.8336 3 8.31322 3Z" fill="#6480EB"/>
</svg>
