<svg xmlns="http://www.w3.org/2000/svg" width="60" height="60" viewBox="0 0 60 60">
    <g fill="none" fill-rule="evenodd" opacity=".25">
        <circle cx="30" cy="30" r="30" fill="#00D7AF"/>
        <path fill="#FFF" d="M40.442 35.786c0 2.187-.79 3.945-2.372 5.272-1.582 1.328-3.797 2.122-6.645 2.383v4.23H28.6v-4.147c-3.357-.069-6.3-.66-8.832-1.775v-5.447c1.197.591 2.638 1.114 4.323 1.568 1.685.454 3.188.722 4.509.805v-6.397l-1.383-.536c-2.724-1.073-4.653-2.239-5.788-3.498-1.135-1.258-1.702-2.816-1.702-4.673 0-1.995.78-3.635 2.342-4.921 1.561-1.287 3.738-2.067 6.53-2.342V13.15h2.827v3.074c3.15.138 5.998.77 8.543 1.898l-1.94 4.829a22.304 22.304 0 0 0-6.603-1.61v6.087c2.683 1.032 4.592 1.926 5.726 2.683 1.135.756 1.967 1.589 2.497 2.496.53.908.794 1.968.794 3.178zm-6.21.31c0-.578-.234-1.066-.702-1.465-.468-.4-1.17-.812-2.105-1.238v5.137c1.871-.316 2.807-1.128 2.807-2.434zM25.937 23.57c0 .605.21 1.104.63 1.496.419.392 1.096.794 2.032 1.207v-4.85c-1.775.262-2.662.978-2.662 2.147z"/>
    </g>
</svg>
