<svg xmlns="http://www.w3.org/2000/svg" width="30" height="30" viewBox="0 0 30 30">
    <path fill="#00D7AF" fill-rule="evenodd" d="M22.13 10.794l-1.425 1.425-2.9-2.9-1.1 1.1 2.9 2.9-7.113 7.113-2.9-2.9-1.1 1.1 2.9 2.9-.709.71-.014-.014a.562.562 0 0 1-.358.258l-2.704.602a.56.56 0 0 1-.52-.15.561.561 0 0 1-.15-.521l.602-2.704a.563.563 0 0 1 .258-.358l-.014-.013L19.23 7.894a.43.43 0 0 1 .608 0l2.292 2.292a.43.43 0 0 1 0 .608M15 0C6.715 0 0 6.716 0 15c0 8.283 6.716 15 15 15 8.283 0 15-6.716 15-15 0-8.284-6.717-15-15-15"/>
</svg>
