<svg width="17" height="26" viewBox="0 0 17 26" fill="none" xmlns="http://www.w3.org/2000/svg">
<path d="M5.62052 8.05892C6.90869 8.05892 7.95296 7.01465 7.95296 5.72648C7.95296 4.43831 6.90869 3.39404 5.62052 3.39404C4.33235 3.39404 3.28809 4.43831 3.28809 5.72648C3.28809 7.01465 4.33235 8.05892 5.62052 8.05892Z" stroke="#6480EB" stroke-width="1.5" stroke-miterlimit="10"/>
<path d="M4.65407 9.75324L8.74492 8.25113C8.74492 8.25113 11.2697 7.29233 10.3429 4.54379C10.3429 4.54379 9.76763 3.00972 9.51195 2.65817C9.25628 2.30661 9.41607 1.28389 10.4068 1.02822C11.3976 0.772538 12.1007 2.33857 12.1007 2.33857C12.1007 2.33857 14.1461 6.39746 12.4523 8.60268C12.4523 8.60268 11.8901 9.72128 10.19 10.2646L15.2967 23.2077C15.2967 23.2077 15.6163 24.6459 14.5296 24.9015C13.443 25.1572 13.0275 24.1665 13.0275 24.1665L9.99762 16.8157L9.44866 17.0075L7.33932 23.9747C7.33932 23.9747 7.10682 25.3609 5.67427 24.9097C4.44727 24.523 5.05075 23.5348 5.55019 21.866L7.18014 16.8803L5.58215 12.6935L4.20663 14.2922L6.57165 15.8256C6.57165 15.8256 7.65829 17.0401 6.2201 17.903C6.2201 17.903 5.86854 18.3185 4.20663 17.2638L1.42613 15.7297C1.42613 15.7297 0.467337 15.0586 1.42613 13.908L4.65407 9.75324Z" stroke="#6480EB" stroke-width="1.5" stroke-miterlimit="10"/>
</svg>
