<svg xmlns="http://www.w3.org/2000/svg" width="60" height="34" viewBox="0 0 60 34">
    <g fill="#00D7AF" fill-rule="evenodd" opacity=".25">
        <g transform="translate(32.571 5.667)">
            <path d="M24.397 28.333H2.543C1.142 28.333 0 27.204 0 25.816c0-6.998 5.304-10.428 13.47-10.428 8.167 0 13.47 3.43 13.47 10.428 0 1.383-1.135 2.517-2.543 2.517"/>
            <path d="M13.593 19.296c-5.973 0-9.4 1.748-9.92 5.374h19.839c-.52-3.626-3.947-5.374-9.92-5.374"/>
            <ellipse cx="13.225" cy="7.083" rx="7.347" ry="7.083"/>
        </g>
        <g transform="translate(13.571)">
            <path d="M29.276 34H3.052C1.37 34 0 32.645 0 30.98c0-8.399 6.364-12.514 16.164-12.514s16.164 4.115 16.164 12.513c0 1.66-1.362 3.021-3.052 3.021"/>
            <path d="M16.311 23.155c-7.167 0-11.28 2.098-11.903 6.448h23.806c-.623-4.35-4.736-6.448-11.903-6.448"/>
            <ellipse cx="15.87" cy="8.5" rx="8.817" ry="8.5"/>
        </g>
        <g transform="translate(0 5.667)">
            <path d="M24.397 28.333H2.543C1.142 28.333 0 27.204 0 25.816c0-6.998 5.304-10.428 13.47-10.428 8.167 0 13.47 3.43 13.47 10.428 0 1.383-1.135 2.517-2.543 2.517"/>
            <path d="M13.593 19.296c-5.973 0-9.4 1.748-9.92 5.374h19.839c-.52-3.626-3.947-5.374-9.92-5.374"/>
            <ellipse cx="13.225" cy="7.083" rx="7.347" ry="7.083"/>
        </g>
    </g>
</svg>
