<svg xmlns="http://www.w3.org/2000/svg" width="281" height="200" viewBox="0 0 281 200">
    <g fill="none" fill-rule="evenodd" opacity=".5">
        <g fill="#00D7AF">
            <path d="M280.972 78.202v87.353c0 8.043-6.509 14.563-14.532 14.563h-77.509v16.004c0 3.051-3.682 4.575-5.833 2.42l-18.39-18.424H130.8c-7.376 0-13.472-5.503-14.405-12.638.055.378.12.752.197 1.121 33.865-13.618 57.802-46.758 57.802-85.55 0-6.663-.74-13.145-2.08-19.412h94.126c8.023 0 14.532 6.52 14.532 14.563"/>
            <path d="M164.707 83.053c0-45.566-36.87-82.503-82.353-82.503S0 37.487 0 83.053c0 39.912 28.292 73.2 65.88 80.845l24.804 24.85c2.289 2.292 6.203.668 6.203-2.575v-21.978c38.539-6.886 67.82-40.553 67.82-81.142"/>
        </g>
        <path fill="#FFF" d="M72.071 96.562v-4.987c0-3.788.77-6.988 2.307-9.597 1.537-2.61 4.267-5.152 8.188-7.626 3.114-1.972 5.353-3.75 6.718-5.335 1.364-1.585 2.047-3.402 2.047-5.451 0-1.624-.73-2.91-2.192-3.856-1.46-.948-3.363-1.421-5.708-1.421-5.805 0-12.59 2.068-20.355 6.205L55.06 48.72c9.572-5.49 19.567-8.234 29.984-8.234 8.573 0 15.3 1.894 20.182 5.683 4.883 3.789 7.324 8.95 7.324 15.483 0 4.678-1.086 8.728-3.258 12.15-2.172 3.42-5.642 6.658-10.408 9.713-4.037 2.629-6.564 4.552-7.583 5.77-1.019 1.217-1.528 2.658-1.528 4.32v2.957H72.07zm-2.48 20.297c0-3.557 1.03-6.302 3.086-8.235 2.056-1.933 5.084-2.9 9.082-2.9 3.844 0 6.794.977 8.85 2.93 2.058 1.952 3.086 4.687 3.086 8.205s-1.067 6.244-3.2 8.177c-2.134 1.933-5.046 2.9-8.736 2.9-3.806 0-6.785-.958-8.938-2.871-2.153-1.914-3.23-4.65-3.23-8.206z"/>
        <g fill="#FFF">
            <path d="M242.713 89.069l-44.332 46.154 14.777 15.384 44.332-46.154z"/>
            <path d="M184.615 121.382l28.17 29.225 14.745-15.304-28.164-29.23z"/>
        </g>
    </g>
</svg>
