<svg width="283" height="99" viewBox="0 0 283 99" fill="none" xmlns="http://www.w3.org/2000/svg">
<path d="M184.233 63.4834V57.8375C184.233 53.5484 185.102 49.9377 186.841 47.0053C188.579 44.0292 191.665 41.1406 196.098 38.3395C199.619 36.1074 202.14 34.0942 203.661 32.2997C205.226 30.5053 206.008 28.4483 206.008 26.1286C206.008 24.2905 205.182 22.8462 203.531 21.7958C201.879 20.7016 199.728 20.1545 197.076 20.1545C190.513 20.1545 182.842 22.496 174.062 27.179L165 9.32228C175.822 3.10743 187.123 0 198.902 0C208.594 0 216.2 2.14456 221.72 6.43369C227.24 10.7228 230 16.5657 230 23.9622C230 29.258 228.761 33.8535 226.284 37.7487C223.85 41.6001 219.938 45.2546 214.549 48.7122C209.985 51.6883 207.116 53.8767 205.943 55.2772C204.813 56.634 204.248 58.2533 204.248 60.1353V63.4834H184.233ZM181.429 86.4609C181.429 82.4343 182.581 79.3269 184.885 77.1386C187.232 74.9503 190.665 73.8561 195.186 73.8561C199.532 73.8561 202.857 74.9722 205.16 77.2042C207.508 79.3926 208.681 82.4781 208.681 86.4609C208.681 90.4436 207.464 93.5292 205.03 95.7175C202.64 97.9058 199.358 99 195.186 99C190.883 99 187.514 97.9277 185.08 95.7832C182.646 93.5948 181.429 90.4874 181.429 86.4609Z" fill="#E2E6FB"/>
<path d="M22.2128 22.592C22.2128 27.3322 18.3646 31.184 13.6064 31.184C8.84822 31.184 5 27.3322 5 22.592C5 17.8518 8.84822 14 13.6064 14C18.3646 14 22.2128 17.8518 22.2128 22.592Z" stroke="#D1F7F4" stroke-width="10"/>
<path d="M277.213 83.592C277.213 88.3322 273.365 92.184 268.606 92.184C263.848 92.184 260 88.3322 260 83.592C260 78.8518 263.848 75 268.606 75C273.365 75 277.213 78.8518 277.213 83.592Z" stroke="#FDF0C6" stroke-width="10"/>
<path d="M83.2128 55.592C83.2128 60.3322 79.3646 64.184 74.6064 64.184C69.8482 64.184 66 60.3322 66 55.592C66 50.8518 69.8482 47 74.6064 47C79.3646 47 83.2128 50.8518 83.2128 55.592Z" stroke="#F8D4E1" stroke-width="10"/>
</svg>
