<svg xmlns="http://www.w3.org/2000/svg" width="1440" height="314" viewBox="0 0 1440 314">
    <g fill="#00D7AF" fill-rule="evenodd" opacity=".05">
        <path d="M1056.016 41.06c2.136 0 3.555-.177 4.273-.536-.718.36-2.137.536-4.273.536m-4.273.536c2.137 0 3.555-.175 4.273-.536-.718.36-2.136.536-4.273.536m-28.308 163.722c2.846.721 5.517 1.165 8.012 1.342 2.487.184 5.158.453 8.012.804h5.874c.71 0 1.244-.083 1.603-.267.35-.176.885-.269 1.603-.269 2.136 0 4.18-.084 6.142-.268a52.354 52.354 0 0 0 5.608-.805c1.777 0 3.739-.353 5.875-1.073 1.42 0 2.311-.177 2.67-.538 1.42 0 3.206-.353 5.342-1.073l5.34-1.61a51.926 51.926 0 0 1 5.61-1.88 50.929 50.929 0 0 0 5.606-1.878c.352 0 .71-.084 1.068-.269.352-.176.71-.268 1.07-.268.709-.713 1.601-1.158 2.669-1.342 1.07-.176 1.954-.444 2.672-.805a160.01 160.01 0 0 0 8.01-4.295c.352 0 .618-.084.803-.268.174-.176.441-.268.8-.268.35 0 .535-.176.535-.537-1.429.722-2.67 1.259-3.74 1.61a443.32 443.32 0 0 1-3.204 1.074l-13.886 4.295c-4.274 1.434-8.371 2.507-12.286 3.22l-5.874 1.61-18.694 2.684c-2.495.361-4.807.63-6.943.805a68.703 68.703 0 0 1-5.876.269c-1.786.36-3.471.537-5.074.537h-8.279c-.718 0-1.068-.176-1.068-.537m71.57-165.331c-6.767 10.383-16.556 27.291-29.375 50.726-12.82 23.442-27.24 53.41-43.263 89.912.71 0 1.335.093 1.87.27.533.183 1.15.268 1.869.268h7.477c1.42 0 2.755-.085 4.006-.269a28.513 28.513 0 0 1 4.006-.269c1.778-.351 3.738-.62 5.876-.806a26.904 26.904 0 0 0 6.409-1.34c2.845-.714 5.691-1.427 8.545-2.148 2.846-.713 5.691-1.425 8.547-2.147l12.817-4.832c9.255-3.933 17.626-8.227 25.103-12.881l7.477-5.368 7.479-5.906 6.942-5.904 6.41-6.979a124.794 124.794 0 0 1 4.273-5.1 131.1 131.1 0 0 0 4.273-5.098c.35-.713.71-1.342 1.068-1.88.35-.536.71-1.156 1.068-1.878a24.66 24.66 0 0 0 3.471-5.905 45.222 45.222 0 0 1 2.938-5.904l3.206-8.59 2.136-8.588v-1.61c.35-1.786.35-3.758 0-5.905-.718-5.72-2.495-10.552-5.342-14.493-.718-1.787-1.694-3.305-2.938-4.564a1072.037 1072.037 0 0 1-4.539-4.562c-1.427-1.073-2.854-2.146-4.273-3.22a56.867 56.867 0 0 0-4.807-3.22c-3.205-1.788-6.233-3.22-9.08-4.296l-8.011-3.22-8.545-2.148c-1.427 0-2.495-.175-3.206-.537-1.068 0-2.136-.083-3.204-.267a46.08 46.08 0 0 1-3.738-.805h-3.473c-1.251 0-2.403-.177-3.471-.537m-97.208 305.432c-3.205 1.075-6.768 1.61-10.682 1.61-3.563 0-7.569-.72-12.018-2.146-4.455-1.435-9.172-4.294-14.154-8.59 2.138 4.296 4.982 7.517 8.547 9.664 2.845 2.146 6.585 3.488 11.216 4.026 4.623.537 10.323-.99 17.091-4.564M878.693 119.431c0-2.5.082-4.83.267-6.978.174-2.147.441-4.47.8-6.978.35-.714.535-1.61.535-2.684 1.418-6.443 2.937-11.986 4.54-16.64 1.602-4.646 2.578-7.33 2.937-8.052l-1.068 1.073c-4.99 5.368-8.011 10.735-9.08 16.105-1.069 5.366-1.426 10.022-1.069 13.956v3.22c.352.721.535 1.61.535 2.684 0 1.434.351 2.507 1.068 3.221.351.361.535.722.535 1.073m-4.807-32.206a69.82 69.82 0 0 1 9.88-16.91 131.928 131.928 0 0 1 13.62-14.762 49.55 49.55 0 0 1 3.205-2.952 40.116 40.116 0 0 1 3.204-2.416 104.96 104.96 0 0 1 12.552-8.856 335.814 335.814 0 0 1 13.62-7.784 174.34 174.34 0 0 1 21.897-10.199c7.48-2.86 14.773-5.368 21.9-7.514 6.05-1.788 11.657-3.398 16.823-4.832 5.158-1.425 10.056-2.684 14.688-3.758 1.42 0 2.488-.176 3.206-.536l11.216-2.148c3.914-.712 7.92-1.25 12.017-1.61 4.089-.352 8.454-.713 13.086-1.074 6.76-1.073 14.421-1.61 22.966-1.61 8.186-.352 16.641-.352 25.37 0 8.722.36 17.176 1.074 25.37 2.148 2.137.36 4.273.628 6.41.804 2.136.184 4.273.63 6.41 1.342 8.544 1.795 16.373 3.943 23.5 6.442 1.777.721 3.647 1.434 5.607 2.148 1.954.72 3.823 1.432 5.609 2.146l5.341 2.684 4.807 3.22c4.623 2.87 9.08 6.267 13.353 10.2 5.69 5.367 10.147 11.096 13.353 17.178l2.67 5.367c.35 1.075.71 2.063 1.068 2.952.35.897.71 1.703 1.068 2.416l1.603 5.904v1.075c0 .36.083.628.266.804.176.184.267.63.267 1.342 0 .361.084.63.268.805.175.186.267.454.267.806v2.147c0 .721.084 1.165.267 1.342.175.184.268.63.268 1.342v2.684c.35 1.795.533 3.757.533 5.905v6.977a28.94 28.94 0 0 1-.267 4.027 28.001 28.001 0 0 0-.266 4.026c-.36 1.073-.535 2.507-.535 4.294l-1.068 4.294a66.176 66.176 0 0 0-.802 4.832c-.183 1.434-.625 3.045-1.335 4.83l-1.068 4.295c-1.786 5.728-3.922 10.735-6.41 15.03-3.921 7.163-8.995 14.493-15.221 22.008-6.235 7.516-14.154 14.678-23.768 21.472-5.7 3.942-13.002 8.236-21.899 12.883l-8.545 3.757-9.08 3.758a181.08 181.08 0 0 1-19.762 6.441c-3.922 1.434-7.477 2.332-10.683 2.684-4.63 1.434-8.545 2.332-11.75 2.684l-4.272 1.073-8.012 1.074-10.147 1.61c-2.138.361-4.274.63-6.41.807a74.602 74.602 0 0 1-6.409.267c-.718 0-1.335.092-1.87.269-.535.184-1.16.268-1.87.268h-5.34c-1.428 0-2.855.092-4.273.269a33.364 33.364 0 0 1-4.273.267h-3.204c-2.138 0-4.19-.083-6.143-.267a68.4 68.4 0 0 0-6.142-.269c-.718 0-1.16-.084-1.336-.268-.183-.177-.626-.27-1.335-.27l-5.341 15.032c-1.068 3.22-2.587 8.32-4.54 15.298-1.961 6.979-3.738 14.678-5.34 23.081-1.603 8.413-2.495 17.001-2.671 25.767-.183 8.773.976 16.556 3.471 23.35 0 1.074.176 2.064.535 2.952.35.89.709 1.694 1.068 2.415 2.487 5.008 5.25 8.321 8.279 9.932 3.02 1.61 5.783 2.592 8.278 2.953 2.846.351 5.69-.186 8.546-1.611.35 2.859-.267 5.274-1.87 7.246a79.4 79.4 0 0 1-5.074 5.637c-2.136 1.787-4.632 3.396-7.477 4.83-10.332 4.647-19.412 6.35-27.24 5.1-7.835-1.258-14.245-3.312-19.227-6.173-6.06-3.221-11.4-9.31-16.024-18.25-4.632-8.95-5.874-22.722-3.738-41.333 0-2.147.175-3.758.533-4.832v-.536l3.205-16.64a609.98 609.98 0 0 1 8.28-33.551 1138.332 1138.332 0 0 1 9.345-31.938l-4.272-1.611c-2.855-1.425-5.432-2.86-7.744-4.295-2.32-1.425-4.365-2.859-6.143-4.293-5.34-3.934-9.53-7.783-12.551-11.54-3.03-3.76-5.074-6.527-6.142-8.322-.36 0-.535-.176-.535-.537-.359-.352-.533-.713-.533-1.073v-.536c.35-.714 2.136-3.397 5.341-8.052 3.204-4.647 7.118-8.942 11.749-12.883l3.205-2.147a7.106 7.106 0 0 1 2.404-1.61 7.069 7.069 0 0 0 2.403-1.611l1.07-.538v.538c0 .36 1.067 1.703 3.203 4.026 2.136 2.33 5.158 5.1 9.08 8.32l5.874 4.831 8.012 4.294c10.324-27.191 21.098-51.44 32.314-72.735 11.217-21.287 20.564-38.196 28.041-50.727-3.205.722-6.409 1.434-9.614 2.148-3.204.722-6.234 1.611-9.08 2.683l-5.875 1.61a216.768 216.768 0 0 0-14.153 5.637 714.725 714.725 0 0 1-13.086 5.637c-13.536 6.442-25.554 13.603-36.054 21.471-10.505 7.876-19.678 15.567-27.505 23.082-7.836 7.516-14.245 14.585-19.228 21.203-4.99 6.626-8.546 11.725-10.682 15.298a18.734 18.734 0 0 1-5.876-3.22c-1.786-1.073-3.563-2.5-5.34-4.294-1.786-1.786-3.564-4.11-5.341-6.98l-1.07-1.072c-1.785-3.22-2.936-6.886-3.47-11.004-.535-4.11-.451-9.033.267-14.762 0-1.073.175-1.963.533-2.684 0-.713.176-1.61.535-2.684.35-1.073.709-2.147 1.068-3.22.709-2.86 1.419-5.007 2.137-6.441M1282.761 304.314c0 3.624.898 6.702 2.711 9.231 1.804 2.172 4.422 3.987 7.863 5.43 3.43 1.451 8.405 1.816 14.911 1.086-2.899.365-5.965-.179-9.22-1.63-2.896-.72-5.784-2.255-8.674-4.614-2.897-2.35-5.422-5.516-7.59-9.503zm-3.254-81.449c1.086-3.258 1.984-6.787 2.711-10.588a82.29 82.29 0 0 0 1.356-11.132c.178-3.615-.093-6.693-.813-9.23-.729-2.528-2.168-4.344-4.338-5.431-3.981-1.807-8.32-1.807-13.013 0-4.701 1.815-9.582 5.158-14.64 10.046-5.066 4.887-10.03 11.318-14.912 19.276-4.88 7.966-9.132 17.02-12.742 27.149-2.532 7.603-4.16 14.484-4.88 20.635-.728 5.073-.457 9.96.814 14.66 1.262 4.71 4.423 7.424 9.489 8.146 3.254.73 6.778.542 10.573-.544 3.796-1.085 7.77-3.529 11.93-7.33 4.15-3.8 8.404-9.232 12.74-16.29 4.339-7.06 8.491-16.374 12.473-27.964v-.544c0-.72.178-1.263.54-1.628l2.712-9.23zm-88.923-2.173c4.338-8.687 9.031-16.102 14.097-22.262 5.058-6.151 10.032-11.403 14.911-15.747 4.88-4.345 9.032-7.602 12.47-9.773 3.433-2.173 5.695-3.436 6.779-3.802-9.04 2.537-16.537 6.61-22.503 12.217-5.963 5.618-10.936 11.319-14.91 17.105-4.338 6.88-7.955 14.305-10.844 22.262zm-9.218 75.477c.355 3.987 1.627 7.603 3.795 10.86 1.804 2.902 4.694 5.524 8.677 7.874 3.972 2.359 9.573 3.894 16.808 4.616-.364 0-1.72-.544-4.067-1.63-2.356-1.085-4.974-2.621-7.862-4.616-2.897-1.985-5.965-4.344-9.218-7.058-3.254-2.715-5.965-6.059-8.133-10.046zm209.297-89.594c5.058 2.536 7.133 7.152 6.235 13.847-.906 6.702-3.71 14.21-8.403 22.533-2.17 3.989-6.058 11.048-11.66 21.178-5.608 10.138-12.47 20.276-20.603 30.408-8.134 10.138-17.445 18.826-27.925 26.062-10.488 7.247-21.875 9.953-34.16 8.145-3.617-.72-7.235-2.171-10.844-4.343-2.898-1.808-5.879-4.616-8.947-8.417-3.075-3.8-5.337-8.772-6.778-14.93-5.065 8.33-12.115 15.474-21.145 21.446-9.04 5.974-20.427 8.417-34.161 7.33-9.04-.728-16.452-2.62-22.231-5.7-5.786-3.071-10.386-6.872-13.826-11.403-3.431-4.523-5.87-9.681-7.321-15.476-1.44-5.786-2.347-11.581-2.71-17.375-.72-13.754 1.626-28.957 7.048-45.612 5.423-16.647 11.836-30.315 19.249-40.997 7.406-10.672 15.36-19.182 23.857-25.52 8.49-6.33 17.259-10.673 26.3-13.031 9.03-2.35 17.706-3.53 26.026-3.53 9.395 0 16.537 1.18 21.416 3.53 4.882 2.358 8.584 4.98 11.117 7.872l4.338-9.773c5.056-1.808 10.657-3.071 16.808-3.801 5.058-.72 10.93-.628 17.622.27 6.685.909 13.641 2.989 20.876 6.246-9.04 20.277-16.81 38.739-23.316 55.385a440.76 440.76 0 0 0-7.862 21.177c-2.355 6.881-4.253 13.125-5.693 18.734-1.45 5.616-2.262 10.41-2.44 14.388-.187 3.988.449 6.517 1.898 7.603.355 1.085 1.262 1.629 2.71 1.629 1.085 0 2.348-.357 3.796-1.087 1.441-.721 3.254-2.35 5.423-4.887 2.168-2.529 4.693-5.972 7.59-10.316a397.48 397.48 0 0 0 8.947-14.118 705.973 705.973 0 0 1 9.489-15.205 3341.42 3341.42 0 0 0 8.676-13.573c1.44-2.894 3.253-5.066 5.421-6.518 1.806-1.441 3.974-2.527 6.508-3.257 2.524-.72 5.421-.356 8.675 1.086z"/>
        <path d="M1441.778 53.58a202.235 202.235 0 0 0-5.286 9.104c-1.768 2.861-3.436 5.984-5.022 9.372a173.643 173.643 0 0 1-5.021 9.908c.346-1.071 1.586-3.029 3.7-5.89a391.426 391.426 0 0 1 7.4-9.641 61.416 61.416 0 0 1 9.515-9.64c3.519-2.854 7.045-4.82 10.572-5.892-2.47.36-4.757.72-6.872 1.071a52.82 52.82 0 0 1-5.286.805c-1.768.183-2.997.451-3.7.802m-69.776 243.68c0 3.574.876 6.612 2.643 9.105 1.76 2.143 4.23 3.934 7.402 5.357 3.17 1.43 8.102 1.79 14.8 1.07-2.824.36-5.814-.175-8.986-1.606-2.825-.713-5.642-2.226-8.457-4.553-2.826-2.318-5.286-5.439-7.402-9.373m104.664-96.4c5.284 2.502 7.483 7.053 6.607 13.656-.884 6.612-3.618 14.018-8.193 22.226-1.768 3.214-4.585 8.486-8.457 15.8-3.882 7.32-8.64 15.088-14.274 23.296-5.64 8.218-12.156 16.16-19.557 23.833-7.4 7.682-15.33 13.48-23.787 17.405-4.229 1.791-8.458 3.13-12.687 4.017-4.228.887-8.812.98-13.743.268a43.533 43.533 0 0 1-11.1-4.82c-2.817-1.783-5.634-4.552-8.459-8.301-2.815-3.749-4.757-9.013-5.814-15.8-1.057-4.635-1.495-10.083-1.321-16.333.181-6.243 1.321-13.473 3.435-21.69 1.059-5.708 2.643-12.854 4.759-21.423 1.766-7.138 4.318-15.974 7.664-26.511 3.345-10.527 7.837-22.937 13.479-37.221a3367.306 3367.306 0 0 1 8.721-22.493c3.347-8.57 5.897-14.813 7.665-18.745a2589.458 2589.458 0 0 1 13.743-33.206c4.23-9.99 8.103-18.56 11.63-25.706 3.873-8.569 7.575-16.066 11.1-22.495l5.286-2.676c1.76-.712 4.312-1.34 7.666-1.875 3.344-.535 7.483-.804 12.421-.804 4.931 0 9.16.536 12.686 1.607 3.52 1.072 6.517 2.143 8.987 3.214 2.817 1.43 5.104 2.861 6.872 4.285-3.881 6.786-7.757 14.644-11.63 23.563a3391.506 3391.506 0 0 0-12.42 26.78c-4.76 10.358-9.607 21.78-14.538 34.274a4480.31 4480.31 0 0 1-12.421 31.063 2562.444 2562.444 0 0 0-12.951 32.669c-4.94 12.502-9.342 24.73-13.216 36.686-3.881 11.967-5.641 20.805-5.286 26.511.702 2.502 1.405 3.933 2.114 4.284.348 1.07 1.23 1.607 2.645 1.607 1.055 0 2.286-.351 3.7-1.071 1.403-.711 3.17-2.318 5.284-4.82 2.116-2.494 4.577-5.892 7.402-10.177a392.18 392.18 0 0 0 8.72-13.924c2.99-4.996 6.08-9.991 9.252-14.995 3.171-4.996 5.987-9.457 8.459-13.39 1.403-2.852 3.169-4.995 5.284-6.426 1.76-1.422 3.874-2.494 6.343-3.213 2.462-.712 5.104-.352 7.93 1.071M165.59 130.184c0 26.521-9.02 46.92-27.062 61.196-18.042 14.276-43.854 21.414-77.436 21.414H30.367v103.04H0V53.844h67.7c65.26 0 97.89 25.447 97.89 76.34zM30.367 186.63h27.33c26.914 0 46.385-4.36 58.413-13.081 12.028-8.721 18.041-22.699 18.041-41.933 0-17.322-5.656-30.225-16.97-38.707-11.313-8.482-28.938-12.723-52.874-12.723h-33.94v106.444zm344.697 30.823c0 32.017-8.038 57.015-24.115 74.994-16.077 17.98-38.286 26.97-66.629 26.97-17.506 0-33.046-4.122-46.622-12.365s-24.056-20.07-31.44-35.481c-7.383-15.411-11.074-33.45-11.074-54.118 0-32.017 7.978-56.956 23.936-74.816s38.108-26.79 66.45-26.79c27.39 0 49.154 9.139 65.29 27.417 16.136 18.279 24.204 43.008 24.204 74.189zm-149.156 0c0 25.088 5.002 44.202 15.005 57.343 10.003 13.142 24.71 19.712 44.122 19.712 19.41 0 34.148-6.54 44.21-19.622 10.063-13.082 15.095-32.226 15.095-57.433 0-24.969-5.032-43.934-15.094-56.896-10.063-12.962-24.92-19.443-44.569-19.443-19.41 0-34.058 6.391-43.943 19.174-9.884 12.783-14.826 31.838-14.826 57.165zm221.085 98.38H417.34V37h29.653v278.834zm82.825 0h-29.653V119.432h29.653v196.402zM497.665 66.209c0-6.81 1.667-11.797 5.001-14.963 3.335-3.166 7.503-4.748 12.504-4.748 4.764 0 8.872 1.612 12.326 4.838 3.453 3.226 5.18 8.183 5.18 14.873 0 6.69-1.727 11.678-5.18 14.964-3.454 3.285-7.562 4.928-12.326 4.928-5.001 0-9.17-1.643-12.504-4.928-3.334-3.286-5.001-8.273-5.001-14.964zM661.23 319.418c-28.343 0-50.285-8.75-65.826-26.253-15.54-17.502-23.31-42.26-23.31-74.278 0-32.853 7.889-58.24 23.668-76.16 15.779-17.92 38.256-26.88 67.433-26.88 9.407 0 18.815 1.016 28.223 3.047 9.408 2.031 16.791 4.42 22.15 7.168l-9.11 25.267c-6.55-2.628-13.695-4.808-21.435-6.54-7.741-1.733-14.589-2.6-20.543-2.6-39.775 0-59.662 25.447-59.662 76.34 0 24.132 4.852 42.65 14.558 55.552 9.706 12.902 24.085 19.353 43.14 19.353 16.314 0 33.046-3.524 50.194-10.573v26.343c-13.1 6.81-29.593 10.214-49.48 10.214zm55.137-199.986h31.796l42.872 112c9.407 25.565 15.243 44.022 17.505 55.372h1.43c1.547-6.093 4.793-16.516 9.735-31.27 4.942-14.755 21.108-60.122 48.498-136.102H900l-84.135 223.64c-8.336 22.102-18.071 37.781-29.206 47.04-11.135 9.259-24.8 13.888-40.996 13.888a118.93 118.93 0 0 1-26.794-3.046V377.12c6.55 1.434 13.873 2.15 21.971 2.15 20.364 0 34.893-11.468 43.586-34.406l10.897-27.955-78.955-197.477z"/>
    </g>
</svg>
