<?xml version="1.0" encoding="UTF-8"?>
<svg width="124px" height="47px" viewBox="0 0 124 47" version="1.1" xmlns="http://www.w3.org/2000/svg" xmlns:xlink="http://www.w3.org/1999/xlink">
    <!-- Generator: Sketch 42 (36781) - http://www.bohemiancoding.com/sketch -->
    <title>get5</title>
    <desc>Created with Sketch.</desc>
    <defs>
        <linearGradient x1="0%" y1="50%" x2="52.1590164%" y2="50%" id="linearGradient-1">
            <stop stop-color="#FFD138" offset="0%"></stop>
            <stop stop-color="#FFA41A" offset="100%"></stop>
        </linearGradient>
        <linearGradient x1="52.1413661%" y1="50%" x2="0.406301639%" y2="50%" id="linearGradient-2">
            <stop stop-color="#FFD138" offset="0%"></stop>
            <stop stop-color="#FFA41A" offset="100%"></stop>
        </linearGradient>
    </defs>
    <g id="Page-1" stroke="none" stroke-width="1" fill="none" fill-rule="evenodd">
        <g id="get5">
            <path d="M19.805,46 C17.424,46 15.183,44.8686 13.769,42.9517 L2.269,27.3581 C0.577,25.0642 0.577,21.9358 2.269,19.6419 L13.769,4.0483 C15.183,2.1314 17.424,1 19.805,1 L36,1 L89,1 L113,1 C118.523,1 123,5.4772 123,11 L123,36 C123,41.5228 118.523,46 113,46 L89,46 L36,46 L19.805,46 Z M15.134,28 C17.619,28 19.634,25.9853 19.634,23.5 C19.634,21.0147 17.619,19 15.134,19 C12.648,19 10.634,21.0147 10.634,23.5 C10.634,25.9853 12.648,28 15.134,28 Z" id="Shape" fill="url(#linearGradient-1)"></path>
            <path d="M13.769,42.9517 L13.367,43.2484 L13.367,43.2484 L13.769,42.9517 Z M2.269,27.3581 L2.671,27.0613 L2.671,27.0613 L2.269,27.3581 Z M2.269,19.6419 L2.671,19.9387 L2.671,19.9387 L2.269,19.6419 Z M13.769,4.0483 L13.367,3.7516 L13.367,3.7516 L13.769,4.0483 Z M13.367,43.2484 C14.875,45.2932 17.265,46.5 19.805,46.5 L19.805,45.5 C17.582,45.5 15.491,44.444 14.172,42.6549 L13.367,43.2484 Z M1.866,27.6549 L13.367,43.2484 L14.172,42.6549 L2.671,27.0613 L1.866,27.6549 Z M1.866,19.3451 C0.045,21.8154 0.045,25.1846 1.866,27.6549 L2.671,27.0613 C1.11,24.9439 1.11,22.0561 2.671,19.9387 L1.866,19.3451 Z M13.367,3.7516 L1.866,19.3451 L2.671,19.9387 L14.172,4.3451 L13.367,3.7516 Z M19.805,0.5 C17.265,0.5 14.875,1.7068 13.367,3.7516 L14.172,4.3451 C15.491,2.556 17.582,1.5 19.805,1.5 L19.805,0.5 Z M36,0.5 L19.805,0.5 L19.805,1.5 L36,1.5 L36,0.5 Z M36,1.5 L89,1.5 L89,0.5 L36,0.5 L36,1.5 Z M89,1.5 L113,1.5 L113,0.5 L89,0.5 L89,1.5 Z M113,1.5 C118.247,1.5 122.5,5.7533 122.5,11 L123.5,11 C123.5,5.201 118.799,0.5 113,0.5 L113,1.5 Z M122.5,11 L122.5,36 L123.5,36 L123.5,11 L122.5,11 Z M122.5,36 C122.5,41.2467 118.247,45.5 113,45.5 L113,46.5 C118.799,46.5 123.5,41.799 123.5,36 L122.5,36 Z M113,45.5 L89,45.5 L89,46.5 L113,46.5 L113,45.5 Z M89,45.5 L36,45.5 L36,46.5 L89,46.5 L89,45.5 Z M19.805,46.5 L36,46.5 L36,45.5 L19.805,45.5 L19.805,46.5 Z M19.134,23.5 C19.134,25.7091 17.343,27.5 15.134,27.5 L15.134,28.5 C17.895,28.5 20.134,26.2614 20.134,23.5 L19.134,23.5 Z M15.134,19.5 C17.343,19.5 19.134,21.2909 19.134,23.5 L20.134,23.5 C20.134,20.7386 17.895,18.5 15.134,18.5 L15.134,19.5 Z M11.134,23.5 C11.134,21.2909 12.925,19.5 15.134,19.5 L15.134,18.5 C12.372,18.5 10.134,20.7386 10.134,23.5 L11.134,23.5 Z M15.134,27.5 C12.925,27.5 11.134,25.7091 11.134,23.5 L10.134,23.5 C10.134,26.2614 12.372,28.5 15.134,28.5 L15.134,27.5 Z" id="Shape" fill="url(#linearGradient-2)" fill-rule="nonzero"></path>
            <path d="M37.309,11.7505 C37.309,13.2658 36.861,14.4378 35.964,15.2666 C35.073,16.0892 33.805,16.5005 32.16,16.5005 L31.13,16.5005 L31.13,21 L27.466,21 L27.466,7.4365 L32.16,7.4365 C33.873,7.4365 35.16,7.8107 36.02,8.5591 C36.879,9.3075 37.309,10.3713 37.309,11.7505 Z M31.13,13.5132 L31.798,13.5132 C32.349,13.5132 32.785,13.3586 33.106,13.0493 C33.434,12.7401 33.598,12.3133 33.598,11.769 C33.598,10.8537 33.091,10.396 32.077,10.396 L31.13,10.396 L31.13,13.5132 Z M49.295,15.7212 C49.295,17.4406 48.832,18.7827 47.904,19.7476 C46.982,20.7062 45.69,21.1855 44.026,21.1855 C42.43,21.1855 41.159,20.6938 40.213,19.7104 C39.273,18.7271 38.803,17.3973 38.803,15.7212 C38.803,14.008 39.264,12.6782 40.185,11.7319 C41.113,10.7795 42.412,10.3032 44.082,10.3032 C45.114,10.3032 46.027,10.5228 46.818,10.9619 C47.61,11.401 48.219,12.0319 48.646,12.8545 C49.079,13.6709 49.295,14.6265 49.295,15.7212 Z M42.486,15.7212 C42.486,16.6242 42.606,17.3138 42.848,17.79 C43.089,18.2601 43.494,18.4951 44.063,18.4951 C44.626,18.4951 45.022,18.2601 45.25,17.79 C45.486,17.3138 45.603,16.6242 45.603,15.7212 C45.603,14.8244 45.486,14.1471 45.25,13.6895 C45.015,13.2318 44.613,13.0029 44.044,13.0029 C43.488,13.0029 43.089,13.2318 42.848,13.6895 C42.606,14.141 42.486,14.8182 42.486,15.7212 Z M55.001,21 L51.374,21 L51.374,6.5645 L55.001,6.5645 L55.001,21 Z M61.161,21 L57.534,21 L57.534,10.4888 L61.161,10.4888 L61.161,21 Z M57.441,7.8726 C57.441,7.3283 57.592,6.9232 57.896,6.6572 C58.199,6.3913 58.687,6.2583 59.361,6.2583 C60.035,6.2583 60.527,6.3944 60.836,6.6665 C61.146,6.9386 61.3,7.3407 61.3,7.8726 C61.3,8.9364 60.654,9.4683 59.361,9.4683 C58.081,9.4683 57.441,8.9364 57.441,7.8726 Z M68.481,21.1855 C66.762,21.1855 65.457,20.7217 64.566,19.7939 C63.681,18.8662 63.239,17.5334 63.239,15.7954 C63.239,14.0513 63.719,12.6999 64.677,11.7412 C65.636,10.7826 67,10.3032 68.769,10.3032 C69.987,10.3032 71.134,10.5692 72.21,11.1011 L71.144,13.7822 C70.704,13.5905 70.299,13.439 69.928,13.3276 C69.557,13.2101 69.171,13.1514 68.769,13.1514 C68.181,13.1514 67.726,13.3802 67.405,13.8379 C67.083,14.2956 66.922,14.9419 66.922,15.7769 C66.922,17.4591 67.544,18.3003 68.787,18.3003 C69.851,18.3003 70.871,17.991 71.849,17.3726 L71.849,20.2578 C70.915,20.8763 69.792,21.1855 68.481,21.1855 Z M72.665,10.4888 L76.487,10.4888 L78.269,16.519 C78.355,16.8345 78.414,17.2148 78.445,17.6602 L78.519,17.6602 C78.569,17.2334 78.643,16.8592 78.742,16.5376 L80.569,10.4888 L84.271,10.4888 L80.115,21.668 C79.583,23.0905 78.927,24.0955 78.148,24.6831 C77.375,25.2707 76.364,25.5645 75.114,25.5645 C74.632,25.5645 74.137,25.5119 73.63,25.4067 L73.63,22.5586 C73.958,22.6328 74.332,22.6699 74.752,22.6699 C75.074,22.6699 75.355,22.6081 75.597,22.4844 C75.838,22.3607 76.048,22.1844 76.228,21.9556 C76.407,21.7329 76.599,21.3649 76.803,20.8516 L72.665,10.4888 Z M95.589,11.7505 C95.589,13.2658 95.141,14.4378 94.244,15.2666 C93.354,16.0892 92.086,16.5005 90.44,16.5005 L89.411,16.5005 L89.411,21 L85.746,21 L85.746,7.4365 L90.44,7.4365 C92.154,7.4365 93.44,7.8107 94.3,8.5591 C95.16,9.3075 95.589,10.3713 95.589,11.7505 Z M89.411,13.5132 L90.079,13.5132 C90.629,13.5132 91.065,13.3586 91.387,13.0493 C91.715,12.7401 91.878,12.3133 91.878,11.769 C91.878,10.8537 91.371,10.396 90.357,10.396 L89.411,10.396 L89.411,13.5132 Z M104.394,21 L103.698,19.6084 L103.624,19.6084 C103.135,20.2145 102.637,20.6289 102.13,20.8516 C101.623,21.0742 100.967,21.1855 100.163,21.1855 C99.174,21.1855 98.394,20.8887 97.825,20.2949 C97.256,19.7012 96.972,18.8662 96.972,17.79 C96.972,16.6706 97.361,15.8387 98.141,15.2944 C98.92,14.744 100.049,14.4347 101.527,14.3667 L103.28,14.311 L103.28,14.1626 C103.28,13.2967 102.854,12.8638 102,12.8638 C101.233,12.8638 100.259,13.1235 99.078,13.6431 L98.029,11.2495 C99.254,10.6187 100.8,10.3032 102.668,10.3032 C104.016,10.3032 105.058,10.6372 105.794,11.3052 C106.537,11.9731 106.908,12.9071 106.908,14.1069 L106.908,21 L104.394,21 Z M101.703,18.625 C102.142,18.625 102.516,18.4858 102.826,18.2075 C103.141,17.9292 103.299,17.5674 103.299,17.1221 L103.299,16.3057 L102.464,16.3428 C101.27,16.3861 100.673,16.8252 100.673,17.6602 C100.673,18.3034 101.017,18.625 101.703,18.625 Z M113.003,21 L109.375,21 L109.375,6.5645 L113.003,6.5645 L113.003,21 Z" id="Shape" fill="#FFFFFF" fill-rule="nonzero"></path>
            <path d="M31.4,34.8047 L31.4,40 L27.543,40 L27.543,25.7227 L32.221,25.7227 C36.101,25.7227 38.041,27.1289 38.041,29.9414 C38.041,31.5951 37.234,32.8743 35.619,33.7793 L39.779,40 L35.404,40 L32.377,34.8047 L31.4,34.8047 Z M31.4,31.9043 L32.123,31.9043 C33.471,31.9043 34.145,31.3086 34.145,30.1172 C34.145,29.1341 33.484,28.6426 32.162,28.6426 L31.4,28.6426 L31.4,31.9043 Z M46.195,40.1953 C44.353,40.1953 42.921,39.707 41.898,38.7305 C40.883,37.7474 40.375,36.3509 40.375,34.541 C40.375,32.6725 40.847,31.2402 41.791,30.2441 C42.735,29.2415 44.083,28.7402 45.834,28.7402 C47.501,28.7402 48.786,29.1764 49.691,30.0488 C50.603,30.9147 51.059,32.1647 51.059,33.7988 L51.059,35.498 L44.232,35.498 C44.258,36.1165 44.483,36.6016 44.906,36.9531 C45.336,37.3047 45.919,37.4805 46.654,37.4805 C47.325,37.4805 47.94,37.4186 48.5,37.2949 C49.066,37.1647 49.678,36.9466 50.336,36.6406 L50.336,39.3848 C49.737,39.6908 49.118,39.9023 48.48,40.0195 C47.842,40.1367 47.081,40.1953 46.195,40.1953 Z M45.971,31.3379 C45.521,31.3379 45.144,31.4811 44.838,31.7676 C44.538,32.0475 44.363,32.4902 44.311,33.0957 L47.592,33.0957 C47.579,32.5618 47.426,32.1354 47.133,31.8164 C46.846,31.4974 46.459,31.3379 45.971,31.3379 Z M62.738,40 L61.488,34.7266 L61.195,33.1348 L61,31.8555 L60.941,31.8555 C60.622,33.6784 60.408,34.8275 60.297,35.3027 L59.174,40 L55.16,40 L52.143,28.9355 L55.902,28.9355 L56.801,33.1836 C57.087,34.6419 57.253,35.8529 57.299,36.8164 L57.357,36.8164 C57.377,36.2174 57.556,35.0781 57.895,33.3984 L58.92,28.9355 L63.139,28.9355 L64.076,33.457 C64.376,34.8958 64.564,36.0156 64.643,36.8164 L64.701,36.8164 C64.74,36.3216 64.805,35.7064 64.896,34.9707 C64.988,34.2285 65.089,33.6328 65.199,33.1836 L66.176,28.9355 L69.857,28.9355 L66.82,40 L62.738,40 Z M78.637,40 L77.904,38.5352 L77.826,38.5352 C77.312,39.1732 76.788,39.6094 76.254,39.8438 C75.72,40.0781 75.03,40.1953 74.184,40.1953 C73.142,40.1953 72.322,39.8828 71.723,39.2578 C71.124,38.6328 70.824,37.7539 70.824,36.6211 C70.824,35.4427 71.234,34.5671 72.055,33.9941 C72.875,33.4147 74.063,33.0892 75.619,33.0176 L77.465,32.959 L77.465,32.8027 C77.465,31.8913 77.016,31.4355 76.117,31.4355 C75.31,31.4355 74.285,31.709 73.041,32.2559 L71.938,29.7363 C73.227,29.0723 74.854,28.7402 76.82,28.7402 C78.24,28.7402 79.337,29.0918 80.111,29.7949 C80.893,30.498 81.283,31.4811 81.283,32.7441 L81.283,40 L78.637,40 Z M75.805,37.5 C76.267,37.5 76.661,37.3535 76.986,37.0605 C77.318,36.7676 77.484,36.3867 77.484,35.918 L77.484,35.0586 L76.605,35.0977 C75.349,35.1432 74.721,35.6055 74.721,36.4844 C74.721,37.1615 75.082,37.5 75.805,37.5 Z M90.561,28.7402 C90.893,28.7402 91.208,28.7663 91.508,28.8184 L91.723,28.8574 L91.381,32.4609 C91.068,32.3828 90.635,32.3438 90.082,32.3438 C89.249,32.3438 88.643,32.5358 88.266,32.9199 C87.888,33.2975 87.699,33.8444 87.699,34.5605 L87.699,40 L83.881,40 L83.881,28.9355 L86.723,28.9355 L87.318,30.7031 L87.504,30.7031 C87.823,30.1172 88.266,29.6452 88.832,29.2871 C89.405,28.9225 89.981,28.7402 90.561,28.7402 Z M96.713,40.1953 C95.925,40.1953 95.235,39.9707 94.643,39.5215 C94.057,39.0723 93.601,38.4115 93.275,37.5391 C92.956,36.6667 92.797,35.6478 92.797,34.4824 C92.797,32.6855 93.158,31.2793 93.881,30.2637 C94.604,29.248 95.596,28.7402 96.859,28.7402 C97.478,28.7402 98.018,28.8639 98.48,29.1113 C98.949,29.3587 99.376,29.7754 99.76,30.3613 L99.838,30.3613 C99.714,29.4954 99.652,28.6296 99.652,27.7637 L99.652,24.8047 L103.5,24.8047 L103.5,40 L100.619,40 L99.799,38.6035 L99.652,38.6035 C98.995,39.6647 98.015,40.1953 96.713,40.1953 Z M98.275,37.1777 C98.887,37.1777 99.317,36.9857 99.564,36.6016 C99.818,36.2174 99.955,35.625 99.975,34.8242 L99.975,34.5215 C99.975,33.5449 99.835,32.8516 99.555,32.4414 C99.275,32.0247 98.835,31.8164 98.236,31.8164 C97.735,31.8164 97.344,32.054 97.064,32.5293 C96.791,32.998 96.654,33.6686 96.654,34.541 C96.654,35.4004 96.794,36.0547 97.074,36.5039 C97.354,36.9531 97.755,37.1777 98.275,37.1777 Z M114.691,36.6016 C114.691,37.7865 114.288,38.6816 113.48,39.2871 C112.673,39.8926 111.514,40.1953 110.004,40.1953 C109.184,40.1953 108.471,40.1497 107.865,40.0586 C107.26,39.974 106.641,39.8145 106.01,39.5801 L106.01,36.5234 C106.602,36.7839 107.25,36.9987 107.953,37.168 C108.663,37.3372 109.294,37.4219 109.848,37.4219 C110.674,37.4219 111.088,37.2331 111.088,36.8555 C111.088,36.6602 110.971,36.4876 110.736,36.3379 C110.508,36.1816 109.838,35.8822 108.725,35.4395 C107.709,35.0228 106.999,34.5508 106.596,34.0234 C106.192,33.4896 105.99,32.8158 105.99,32.002 C105.99,30.9733 106.387,30.1725 107.182,29.5996 C107.976,29.0267 109.099,28.7402 110.551,28.7402 C111.28,28.7402 111.964,28.8216 112.602,28.9844 C113.246,29.1406 113.913,29.3717 114.604,29.6777 L113.568,32.1387 C113.061,31.9108 112.523,31.7188 111.957,31.5625 C111.391,31.3997 110.928,31.3184 110.57,31.3184 C109.945,31.3184 109.633,31.4714 109.633,31.7773 C109.633,31.9661 109.74,32.1289 109.955,32.2656 C110.176,32.3958 110.808,32.666 111.85,33.0762 C112.624,33.3952 113.201,33.7077 113.578,34.0137 C113.962,34.3197 114.242,34.681 114.418,35.0977 C114.6,35.5078 114.691,36.0091 114.691,36.6016 Z" id="Shape" fill="#5C4D14" fill-rule="nonzero"></path>
        </g>
    </g>
</svg>