<svg xmlns="http://www.w3.org/2000/svg" xmlns:xlink="http://www.w3.org/1999/xlink" width="264" height="523" viewBox="0 0 264 523">
    <defs>
        <filter id="a" width="129.4%" height="113.4%" x="-22.1%" y="-6.5%" filterUnits="objectBoundingBox">
            <feOffset dx="-18" dy="1" in="SourceAlpha" result="shadowOffsetOuter1"/>
            <feGaussianBlur in="shadowOffsetOuter1" result="shadowBlurOuter1" stdDeviation="8"/>
            <feColorMatrix in="shadowBlurOuter1" result="shadowMatrixOuter1" values="0 0 0 0 0 0 0 0 0 0 0 0 0 0 0 0 0 0 0.2 0"/>
            <feMerge>
                <feMergeNode in="shadowMatrixOuter1"/>
                <feMergeNode in="SourceGraphic"/>
            </feMerge>
        </filter>
        <path id="b" d="M.104.063h109.663v71.91H.104z"/>
    </defs>
    <g fill="none" fill-rule="evenodd">
        <path fill="#00D7AF" fill-opacity=".2" d="M173 506c0 8.284-38.504 15-86 15s-86-6.716-86-15c0-8.284 38.504-15 86-15s86 6.716 86 15"/>
        <g filter="url(#a)" transform="translate(33 14)">
            <path fill="#FFF" d="M137 191.5a8.501 8.501 0 1 1-17.002-.002A8.501 8.501 0 0 1 137 191.5"/>
            <path fill="#6D6E71" d="M128.5 184.836a5.67 5.67 0 0 0-5.663 5.664 5.669 5.669 0 0 0 5.663 5.662 5.667 5.667 0 0 0 5.661-5.662 5.669 5.669 0 0 0-5.661-5.664zm0 16.164c-5.79 0-10.5-4.71-10.5-10.5s4.71-10.5 10.5-10.5 10.5 4.71 10.5 10.5-4.71 10.5-10.5 10.5z"/>
            <path fill="#FFF" d="M105 174.725c0 28.904-19.497 50.05-48.495 50.05-7.721 0-28.541 23.935-35.145 27.698-16.263 9.266-16.502-8.583-16.942-27.052C4 207.754 4 177.547 4 175.297 4 146.394 25.804 123 58.423 123 87.421 123 105 145.823 105 174.725"/>
            <path fill="#6D6E71" d="M59.927 124.93c-30.141 0-52.017 21.134-52.017 50.252 0 5.457.02 33.545.419 50.468l.015.607c.26 11.173.558 23.84 4.962 26.335 1.752.994 4.545.402 8.307-1.757 2.175-1.247 6.583-5.445 11.25-9.887 11.29-10.749 19.702-18.357 25.144-18.357 27.133 0 46.081-19.732 46.081-47.987 0-29.247-18.16-49.673-44.161-49.673zM15.228 258c-1.586 0-3.027-.371-4.337-1.114-6.833-3.874-7.137-16.814-7.457-30.513l-.014-.607c-.4-16.977-.42-45.117-.42-50.584 0-15.036 5.58-28.897 15.715-39.03C29.129 125.736 43.765 120 59.927 120 88.82 120 109 142.455 109 174.604c0 14.846-4.993 28.29-14.063 37.852-9.211 9.715-22.327 15.066-36.93 15.066-3.904 0-15.085 10.644-21.763 17.003-5.1 4.854-9.504 9.048-12.193 10.592-3.355 1.924-6.278 2.883-8.823 2.883z"/>
            <path fill="#FFF" d="M42.593 223.391c-29.6 0-29.593 23.904-29.593 53.375l14.95-1.565.67-15.567h1.586l-1.834 58.204 51.363.162-1.416-73.698c.548-.404 23.937-8.769 28.345-10.99 7.471-3.766 26.336-35.611 26.336-35.611L119.665 195s-16.33 24.773-26.218 26.987c-6.433 1.44-18.763 1.404-26.355 1.404H42.593"/>
            <path fill="#6D6E71" d="M31.465 314.947l46.595.145-1.401-72.946 1.016-.751c.437-.322.483-.357 8.511-3.347 7.039-2.623 17.675-6.586 20.347-7.934 4.615-2.331 16.278-19.734 23.705-31.96l-8.384-1.701c-3.897 5.728-17.416 24.688-26.953 26.826-6.588 1.477-18.582 1.465-26.506 1.474H43.222c-12.669 0-19.99 4.366-23.735 14.155-3.335 8.713-3.545 21.12-3.558 34.412l10.197-1.069.685-15.905h6.496l-1.842 58.601zM83.082 320l-56.701-.178 1.347-42.82L11 278.757v-2.719c0-14.785 0-28.726 3.88-38.866 4.459-11.646 13.728-17.308 28.342-17.308h25.173c7.248.003 19.369.001 25.42-1.355 7.353-1.648 20.426-19.413 24.846-26.118l.913-1.39L138 194.734l-1.747 2.95c-1.978 3.346-19.562 32.79-27.487 36.79-2.916 1.472-13.28 5.334-20.849 8.155a769.337 769.337 0 0 0-6.277 2.353L83.082 320z"/>
            <path fill="#8DE2D2" d="M130 200.485L123.45 199l-14.752 18.087s-7.598 7.644-19.87 8.595c-8.502.66-16.62.238-16.62.238s.131 5.853-1.326 9.962L68 244l9.691-3.106s12.155-2.673 22.926-7.843c10.772-5.171 14.918-11.551 14.918-11.551L130 200.485"/>
            <path fill="#FFF" d="M68.874 218.221s.8 13.428-1.635 18.97C65.084 242.101 59.032 245 55.5 245c-3.808 0-9.101-1.745-11.875-7.24C40.918 232.403 42.41 218 42.41 218s8.266 2.388 13.063 2.388c4.797 0 13.4-2.167 13.4-2.167"/>
            <path fill="#6D6E71" d="M45.046 220.388c-.32 5.463-.241 12.817 1.165 15.733 2.113 4.378 6.184 5.938 9.289 5.938 2.616 0 7.464-2.49 9.104-6.393 1.386-3.303 1.575-10.491 1.49-15.12-2.95.668-7.488 1.56-10.62 1.56-3.146 0-7.554-.979-10.428-1.718zM55.5 247c-4.579 0-10.573-2.29-13.672-8.709-2.84-5.88-1.564-19.754-1.409-21.316l.294-2.975 2.83.855c.076.022 7.706 2.312 11.93 2.312 4.269 0 12.26-2.09 12.34-2.111l2.878-.759.172 3.006c.083 1.449.734 14.331-1.77 20.296C66.518 243.732 59.543 247 55.5 247z"/>
            <path fill="#FFF" d="M83 480l-19.082-.083-.142-134.854h-16.78L46.958 480H29V317h54v163"/>
            <path fill="#6D6E71" d="M30.91 478.122h13.078l.038-135.038h21.716l.143 134.965 14.203.064V319.866H30.91v158.256zM85 483l-24.022-.103-.143-134.947H48.936l-.038 135.041H26V315h59v168z"/>
            <path fill="#8DE2D2" d="M36.23 129.388c9.387-4.634 22.77-4.386 22.77-4.386s-15.992 6.737-20.865 13.402c-4.375 5.983.336 14.009-1.906 14.009-5.962 0-10.464-2.975-11.48-3.405-1.016-.428-4.014-1.399-4.014-1.399s-5.138 5.774-6.8 10.285c-.831 2.255-2.786 8.106-2.786 8.106H9s1.306-6.28 3.176-11.727c1.325-3.857 5.762-10.361 7.382-12.204 3.905-4.445 7.282-8.049 16.671-12.68"/>
            <g transform="translate(0 149)">
                <mask id="c" fill="#fff">
                    <use xlink:href="#b"/>
                </mask>
                <path fill="#FFF" d="M107.322 31.766c0 3.749-3.067 6.788-6.854 6.788-2.302 0-3.258-.103-3.258-.103s-.379.967-1.014 2.748c-5.888 16.518-21.79 28.35-40.49 28.35-18.588 0-34.418-11.704-40.384-28.075-.49-1.344-1.06-3.088-1.06-3.088s-2.688.168-4.963.168c-3.786 0-6.853-3.04-6.853-6.788 0-3.751 3.067-6.789 6.853-6.789h3.486s.014-.982.035-1.484c.102-2.483.417-3.163.936-5.52 1.963-8.971 7.635-15.081 7.635-15.081s34.19 12.259 51.104 14.143c17.353 1.932 24.928.44 24.928.44s1.016 3.722 1.144 5.923c.045.806.042 1.58.042 1.58h1.859c3.787 0 6.854 3.037 6.854 6.788" mask="url(#c)"/>
                <path fill="#6D6E71" d="M16.003 35.85l.585 1.789c.007.017.564 1.723 1.035 3.012 5.77 15.835 21.075 26.475 38.084 26.475 17.138 0 32.483-10.743 38.182-26.732.64-1.795 1.025-2.776 1.04-2.817l.679-1.731 1.862.197c.002 0 .907.087 2.998.087 2.43 0 4.406-1.957 4.406-4.364s-1.976-4.367-4.406-4.367c-1.598 0-1.812.002-1.842.002l-2.47.012.007-2.446c0-.007.002-.715-.04-1.43-.051-.91-.302-2.234-.56-3.38-3.5.334-11.025.656-23.341-.715-15.079-1.68-42.924-11.203-50.027-13.694-1.613 2.102-4.742 6.768-6.05 12.739-.127.578-.241 1.058-.345 1.488-.311 1.301-.469 1.956-.536 3.615-.021.484-.033 1.423-.033 1.423l-.035 2.39-5.897-.004c-2.43 0-4.406 1.96-4.406 4.367s1.976 4.364 4.406 4.364c2.167 0 4.784-.16 4.809-.16l1.895-.12zm39.704 36.123c-19.063 0-36.217-11.927-42.686-29.676-.163-.451-.336-.94-.492-1.396-.95.04-2.129.076-3.23.076C4.171 40.977 0 36.845 0 31.766c0-5.08 4.171-9.213 9.3-9.213h1.121c.112-1.58.332-2.498.62-3.7.096-.404.204-.853.323-1.395 2.082-9.504 7.977-15.937 8.227-16.207L20.693.063l1.532.55c.337.12 34.11 12.184 50.542 14.013 16.632 1.853 24.113.485 24.186.47l2.23-.425.601 2.17c.1.369.914 3.39 1.165 5.724 4.905.25 8.818 4.28 8.818 9.2 0 5.08-4.171 9.212-9.3 9.212-.615 0-1.142-.007-1.586-.018-.113.309-.24.659-.378 1.048-6.39 17.923-23.588 29.966-42.796 29.966z" mask="url(#c)"/>
            </g>
            <path fill="#6D6E71" d="M45.86 199.705c.876 1.451 2.425 5.464 9.373 5.464 6.95 0 7.79-4.426 9.428-5.294 1.522-.807 2.113.625-.22 3.476-1.564 1.913-5.16 3.649-9.208 3.649C47.82 207 44 202.03 44 200.458c0-1.573 1.136-1.95 1.86-.753M37 184c-1.65 0-3-1.247-3-2.772v-5.454c0-1.526 1.35-2.774 3-2.774s3 1.248 3 2.774v5.454c0 1.525-1.35 2.772-3 2.772M73.999 184c-1.648 0-2.999-1.247-2.999-2.772v-5.454c0-1.526 1.35-2.774 2.999-2.774 1.65 0 3.001 1.248 3.001 2.774v5.454c0 1.525-1.35 2.772-3.001 2.772M34 175.253V179s-.974-1.001-1.503-1.683c-.53-.683-.727-1.508-1.112-2.399-.385-.89-.605-2.517-.05-1.69.356.533.82 1.192 1.378 1.91.496.638 1.287.115 1.287.115"/>
            <path fill="#6D6E71" d="M76 175.253V179s.974-1.001 1.504-1.683c.53-.683.725-1.508 1.111-2.399.386-.89.605-2.517.051-1.69a33.545 33.545 0 0 1-1.38 1.91c-.495.638-1.286.115-1.286.115"/>
            <path fill="#8DE2D2" d="M70 479h11V320H70z"/>
            <path fill="#FFF" d="M49 477.818l-11.345-.082s-10.913-5.502-15.865-.902C18.204 480.166 19.1 488 19.1 488H49v-10.182"/>
            <path fill="#6D6E71" d="M18.833 487.032h24.344v-6.028l-9.237-.074-.531-.295c-2.345-1.303-9.692-4.358-12.567-1.4-1.59 1.637-1.985 5.243-2.009 7.797zM48 492H14.348l-.228-2.222c-.101-.985-.87-9.748 3.31-14.057 5.393-5.554 15.107-1.108 17.728.25l12.842.103V492z"/>
            <path fill="#FFF" d="M63 477.818l11.345-.082s10.913-5.502 15.865-.902C93.796 480.166 92.9 488 92.9 488H63v-10.182"/>
            <path fill="#6D6E71" d="M63.823 487.032h24.344c-.024-2.552-.42-6.16-2.009-7.796-2.889-2.975-10.225.09-12.569 1.399l-.529.295-9.237.074v6.028zM92.65 492H59v-15.925l12.842-.104c2.621-1.357 12.335-5.804 17.728-.25 4.18 4.31 3.411 13.073 3.31 14.057L92.65 492z"/>
            <path fill="#8DE2D2" d="M46 487H19.23s-.846-2.564.707-3.559c1.555-.993 26.063 0 26.063 0V487M63 487h26.77s.846-2.564-.707-3.559c-1.555-.993-26.063 0-26.063 0V487"/>
            <path fill="#FFF" d="M120.646 17.159C69.76 18.205 18.419 53.597 17 104.119h.958s9.913-16.31 34.375-16.31c24.463 0 34.376 16.31 34.376 16.31s5.531-14.098 30.339-16.076v85.106c0 .307.027.607.077.899.285 8.858 7.55 15.952 16.475 15.952 7.413 0 13.68-4.89 15.757-11.62.46-.728.732-7.225.732-7.225a4.711 4.711 0 1 0-9.423 0v2.354a7.068 7.068 0 0 1-7.066 7.069 7.068 7.068 0 0 1-7.065-7.069l-.057-85.621c26.916 1.203 32.811 16.23 32.811 16.23s9.917-16.31 34.376-16.31c24.462 0 34.379 16.31 34.379 16.31H229c-1.419-50.521-52.761-85.913-103.644-86.96V7.71c0-2.6-1.055-4.71-2.354-4.71-1.302 0-2.356 2.11-2.356 4.71v9.449"/>
            <path fill="#6D6E71" d="M117.954 84.894v87.804c0 .153.016.317.045.5l.033.323c.244 7.624 6.469 13.596 14.165 13.596 6.258 0 11.704-3.98 13.548-9.905l.12-.347c.186-.895.408-3.813.509-6.205a2.283 2.283 0 0 0-2.29-2.232 2.287 2.287 0 0 0-2.294 2.275v2.356c0 5.247-4.304 9.514-9.593 9.514-5.29 0-9.591-4.267-9.591-9.514l-.06-88.23 2.573.113c20.499.91 29.646 9.403 33.254 14.325 4.4-5.033 15.177-14.404 34.437-14.404 17.15 0 27.575 7.428 32.761 12.61-5.35-47.443-55.708-77.485-101.744-78.424l-2.41-.07-2.242.07c-46.036.94-96.396 30.983-101.746 78.427 5.184-5.183 15.608-12.613 32.76-12.613 19.263 0 30.04 9.373 34.438 14.406 3.455-4.709 11.982-12.686 30.671-14.165l2.656-.21zM132.197 192c-10.32 0-18.67-7.969-19.08-18.17a7.727 7.727 0 0 1-.085-1.132V90.236c-20.754 2.507-25.664 13.798-25.87 14.297l-1.85 4.471-2.537-4.112c-.381-.611-9.688-15.147-32.587-15.147-22.898 0-32.206 14.536-32.59 15.154l-.722 1.159-4.876.007.071-2.51c.69-24.338 12.946-47.038 34.512-63.92 19.38-15.17 44.798-24.359 70.08-25.393V7.154c0-4.145 2.035-7.154 4.837-7.154 2.804 0 4.838 3.009 4.838 7.154v7.088c25.283 1.034 50.698 10.223 70.079 25.392 21.564 16.883 33.824 39.583 34.512 63.92l.071 2.51h-4.88l-.72-1.174c-.38-.611-9.69-15.145-32.59-15.145-23.03 0-32.493 14.993-32.587 15.145l-2.58 4.21-1.814-4.586c-.214-.518-5.507-12.68-28.355-14.534l.054 83.077c0 2.556 2.093 4.634 4.669 4.634 2.574 0 4.67-2.078 4.67-4.632v-2.356c0-3.947 3.239-7.157 7.216-7.157 3.978 0 7.214 3.21 7.214 7.157l-.003.102c-.239 5.716-.615 7.376-.911 8.057-2.548 7.867-9.828 13.138-18.186 13.138z"/>
            <path fill="#FFF" d="M87 256l-3.081 37H64.757l-.453-6.106L62 256h25"/>
            <path fill="#6D6E71" d="M66.74 289.23h14.2l2.633-31.463h-19.19l2.357 31.464zM85.572 294H62.068L59 253h30l-3.428 41z"/>
            <path fill="#FFF" d="M87 261H62v-7.368L87 251v10"/>
            <path fill="#6D6E71" d="M63.91 257.529h19.181v-3.59l-19.18 1.737v1.853zM88 262H59v-10.372L88 249v13z"/>
            <path fill="#8DE2D2" d="M81.168 288h-16.03c-2.86 0-5.2-2.345-5.2-5.21L59 276.208c0-2.863 2.34-5.208 5.198-5.208h17.604c2.858 0 5.198 2.345 5.198 5.208l-.632 6.582c0 2.865-2.34 5.21-5.2 5.21"/>
            <path fill="#FFF" d="M85.646 266H61.354c-1.852 0-3.354-1.791-3.354-4 0-2.21 1.502-4 3.354-4h24.292c1.852 0 3.354 1.79 3.354 4 0 2.209-1.502 4-3.354 4"/>
            <path fill="#6D6E71" d="M61.824 261.553c-.506 0-.92.383-.92.854v.185c0 .472.414.853.92.853h25.35c.508 0 .92-.381.92-.853v-.185c0-.47-.412-.854-.92-.854h-25.35zM87.174 268h-25.35c-3.212 0-5.824-2.425-5.824-5.408v-.185c0-2.982 2.612-5.407 5.824-5.407h25.35c3.214 0 5.826 2.425 5.826 5.407v.185c0 2.983-2.612 5.408-5.826 5.408z"/>
            <path fill="#FFF" d="M73 278c0 3.315-2.797 6-6.247 6-.67 0-1.32-.101-1.927-.289L64 272.613a6.41 6.41 0 0 1 2.753-.613c3.45 0 6.247 2.687 6.247 6"/>
            <path fill="#FFF" d="M65 278a6 6 0 1 1-11.999 0A6 6 0 0 1 65 278"/>
            <path fill="#6D6E71" d="M59.5 276.129a4.375 4.375 0 0 0-4.37 4.37 4.376 4.376 0 0 0 4.37 4.372c2.41 0 4.37-1.96 4.37-4.372 0-2.41-1.96-4.37-4.37-4.37zm0 13.871c-5.238 0-9.5-4.263-9.5-9.5s4.262-9.5 9.5-9.5 9.5 4.263 9.5 9.5-4.262 9.5-9.5 9.5z"/>
            <path fill="#FFF" d="M25.627 272L55 273.388v14.567s-42 1.212-42-8.962c0-1.013 1.025-3.344 3.075-6.993h9.552z"/>
            <path fill="#6D6E71" d="M51.757 290c-10.198 0-32.502-.694-38.718-6.57-1.685-1.593-2.039-3.265-2.039-4.39 0-1.44.01-7.236.01-7.236l4.986.008s-.01 5.789-.01 7.228c0 .116 0 .421.527.92 4.378 4.135 24.353 5.351 37.503 5.19v-9.106L27 274.836l.23-4.836L59 271.42v18.46l-2.423.063c-.695.018-2.423.057-4.82.057"/>
        </g>
    </g>
</svg>
