<svg xmlns="http://www.w3.org/2000/svg" width="475" height="423" viewBox="0 0 475 423">
    <defs>
        <filter id="a" width="117.4%" height="118%" x="-13%" y="-8.7%" filterUnits="objectBoundingBox">
            <feOffset dx="-18" dy="1" in="SourceAlpha" result="shadowOffsetOuter1"/>
            <feGaussianBlur in="shadowOffsetOuter1" result="shadowBlurOuter1" stdDeviation="8"/>
            <feColorMatrix in="shadowBlurOuter1" result="shadowMatrixOuter1" values="0 0 0 0 0 0 0 0 0 0 0 0 0 0 0 0 0 0 0.2 0"/>
            <feMerge>
                <feMergeNode in="shadowMatrixOuter1"/>
                <feMergeNode in="SourceGraphic"/>
            </feMerge>
        </filter>
    </defs>
    <g fill="none" fill-rule="evenodd">
        <path fill="#00D7AF" fill-opacity=".2" d="M205 398c0 9.94-45.891 18-102.5 18S0 407.94 0 398s45.891-18 102.5-18S205 388.06 205 398M475 398c0 9.94-45.891 18-102.5 18S270 407.94 270 398s45.891-18 102.5-18S475 388.06 475 398"/>
        <g filter="url(#a)" transform="translate(49 16)">
            <path fill="#FFF" d="M268.643 199.252h-7.872a3.11 3.11 0 0 1-3.1-3.1v-15.306a3.11 3.11 0 0 1 3.1-3.1h7.872a3.11 3.11 0 0 1 3.1 3.1v15.306a3.11 3.11 0 0 1-3.1 3.1"/>
            <path fill="#6D6E71" fill-rule="nonzero" d="M268.643 197.63c.81 0 1.48-.669 1.48-1.478v-15.306c0-.809-.67-1.478-1.48-1.478h-7.872c-.809 0-1.478.67-1.478 1.478v15.306c0 .81.67 1.479 1.478 1.479h7.872zm0 3.243h-7.872a4.73 4.73 0 0 1-4.72-4.72v-15.307a4.73 4.73 0 0 1 4.72-4.72h7.872a4.73 4.73 0 0 1 4.721 4.72v15.306a4.73 4.73 0 0 1-4.721 4.721z"/>
            <path fill="#FFF" d="M382.94 199.252h-7.872a3.11 3.11 0 0 1-3.1-3.1v-15.306a3.11 3.11 0 0 1 3.1-3.1h7.872a3.11 3.11 0 0 1 3.1 3.1v15.306a3.11 3.11 0 0 1-3.1 3.1"/>
            <path fill="#6D6E71" fill-rule="nonzero" d="M382.94 197.63c.81 0 1.48-.669 1.48-1.478v-15.306c0-.809-.67-1.478-1.48-1.478h-7.872c-.809 0-1.478.67-1.478 1.478v15.306c0 .81.67 1.479 1.478 1.479h7.872zm0 3.243h-7.872a4.73 4.73 0 0 1-4.72-4.72v-15.307a4.73 4.73 0 0 1 4.72-4.72h7.872a4.73 4.73 0 0 1 4.722 4.72v15.306a4.73 4.73 0 0 1-4.722 4.721z"/>
            <path fill="#FFF" d="M385.134 304.556l-121.887 48.95-2.414-6.007 121.889-48.951z"/>
            <path fill="#6D6E71" fill-rule="nonzero" d="M381.821 300.657l-118.879 47.742 1.205 3 118.879-47.743-1.205-3zm-119.474 54.958l-3.622-9.016 124.897-50.16 3.62 9.017-124.895 50.16z"/>
            <path fill="#FFF" d="M261.427 306.414l121.887 48.951 2.412-6.008-121.887-48.95z"/>
            <path fill="#6D6E71" fill-rule="nonzero" d="M259.319 307.315l3.62-9.017 124.896 50.159-3.62 9.017-124.896-50.16zm123.095 45.942l1.204-3-118.878-47.742-1.205 3 118.879 47.742z"/>
            <path fill="#FFF" d="M250.22 361.206h-3.416a1.35 1.35 0 0 1-1.345-1.345V294.85c0-.74.605-1.346 1.345-1.346h3.415c.74 0 1.346.605 1.346 1.346v65.01a1.35 1.35 0 0 1-1.346 1.346"/>
            <path fill="#6D6E71" fill-rule="nonzero" d="M249.944 295.125h-2.864v64.46h2.864v-64.46zm.275 67.702h-3.415a2.97 2.97 0 0 1-2.967-2.966V294.85a2.97 2.97 0 0 1 2.967-2.967h3.415a2.97 2.97 0 0 1 2.967 2.967v65.01a2.97 2.97 0 0 1-2.967 2.967z"/>
            <path fill="#FFF" d="M261.388 300.672h7.169V187.304h-7.17z"/>
            <path fill="#6D6E71" fill-rule="nonzero" d="M259.767 302.294V185.683h10.41v116.61h-10.41zm7.168-3.243V188.925h-3.926v110.126h3.926z"/>
            <path fill="#FFF" d="M375.42 300.672h7.169V187.304h-7.17z"/>
            <path fill="#6D6E71" fill-rule="nonzero" d="M373.799 302.294V185.683h10.41v116.61H373.8zm7.168-3.243V188.925h-3.926v110.126h3.926z"/>
            <path fill="#FFF" d="M396.898 361.206h-3.415a1.35 1.35 0 0 1-1.346-1.345V294.85c0-.74.606-1.346 1.346-1.346h3.415c.74 0 1.346.605 1.346 1.346v65.01a1.35 1.35 0 0 1-1.346 1.346"/>
            <path fill="#6D6E71" fill-rule="nonzero" d="M396.623 295.125h-2.864v64.46h2.864v-64.46zm.275 67.702h-3.415a2.97 2.97 0 0 1-2.967-2.966V294.85a2.97 2.97 0 0 1 2.967-2.967h3.415a2.97 2.97 0 0 1 2.967 2.967v65.01a2.97 2.97 0 0 1-2.967 2.967z"/>
            <path fill="#FFF" d="M263.296 385.367h-5.94a2.346 2.346 0 0 1-2.34-2.34V272.48a2.346 2.346 0 0 1 2.34-2.34h5.94a2.346 2.346 0 0 1 2.34 2.34v110.547a2.346 2.346 0 0 1-2.34 2.34"/>
            <path fill="#6D6E71" fill-rule="nonzero" d="M263.296 383.745a.725.725 0 0 0 .72-.718V272.48a.725.725 0 0 0-.72-.719h-5.94a.725.725 0 0 0-.718.72v110.546c0 .392.327.718.718.718h5.94zm0 3.243h-5.94a3.968 3.968 0 0 1-3.96-3.961V272.48a3.968 3.968 0 0 1 3.96-3.96h5.94a3.968 3.968 0 0 1 3.961 3.96v110.547a3.968 3.968 0 0 1-3.96 3.96z"/>
            <path fill="#FFF" d="M386.488 385.367h-5.94a2.346 2.346 0 0 1-2.34-2.34V272.48a2.346 2.346 0 0 1 2.34-2.34h5.94a2.346 2.346 0 0 1 2.34 2.34v110.547a2.346 2.346 0 0 1-2.34 2.34"/>
            <path fill="#6D6E71" fill-rule="nonzero" d="M386.488 383.745a.725.725 0 0 0 .719-.718V272.48a.725.725 0 0 0-.72-.719h-5.94a.725.725 0 0 0-.718.72v110.546c0 .392.327.718.719.718h5.94zm0 3.243h-5.94a3.968 3.968 0 0 1-3.961-3.961V272.48a3.968 3.968 0 0 1 3.96-3.96h5.94a3.968 3.968 0 0 1 3.962 3.96v110.547a3.968 3.968 0 0 1-3.961 3.96z"/>
            <path fill="#FFF" d="M265.636 300.672h112.572v-93.72H265.636z"/>
            <path fill="#6D6E71" fill-rule="nonzero" d="M264.015 302.294V205.33H379.83v96.964H264.015zm112.572-3.243v-90.478h-109.33v90.478h109.33z"/>
            <path fill="#FFF" d="M388.828 369.702h4.513V286.6h-4.513z"/>
            <path fill="#6D6E71" fill-rule="nonzero" d="M387.207 371.323v-86.344h7.755v86.344h-7.755zm4.513-3.242v-79.86h-1.271v79.86h1.271z"/>
            <path fill="#FFF" d="M250.503 369.702h4.514V286.6h-4.514z"/>
            <path fill="#6D6E71" fill-rule="nonzero" d="M248.882 371.323v-86.344h7.756v86.344h-7.756zm4.513-3.242v-79.86h-1.27v79.86h1.27z"/>
            <path fill="#FFF" d="M265.636 372.091h32.391v-5.575h-32.39z"/>
            <path fill="#6D6E71" fill-rule="nonzero" d="M264.015 373.713v-8.818h35.633v8.818h-35.633zm32.391-3.243v-2.333h-29.149v2.333h29.15z"/>
            <path fill="#FFF" d="M345.551 372.091h32.391v-5.575h-32.39z"/>
            <path fill="#6D6E71" fill-rule="nonzero" d="M343.93 373.713v-8.818h35.633v8.818H343.93zm32.391-3.243v-2.333h-29.149v2.333h29.15z"/>
            <path fill="#FFF" d="M378.208 294.13v7.854c0 .964-.048 1.895-.138 2.804H265.774c-.09-.909-.138-1.84-.138-2.804v-7.853c0-7.404 2.867-13.461 6.372-13.461h99.828c3.505 0 6.372 6.057 6.372 13.46"/>
            <path fill="#6D6E71" fill-rule="nonzero" d="M376.587 301.984v-7.853c0-6.618-2.473-11.84-4.751-11.84h-99.828c-2.279 0-4.75 5.222-4.75 11.84v7.853c0 .398.008.792.025 1.183H376.56c.017-.391.026-.785.026-1.183zm3.242-7.853v7.853c0 1.005-.049 1.99-.146 2.965l-.146 1.46h-115.23l-.146-1.46a29.778 29.778 0 0 1-.146-2.965v-7.853c0-8.19 3.262-15.083 7.993-15.083h99.828c4.73 0 7.993 6.893 7.993 15.083z"/>
            <path fill="#8DE2D2" d="M386.089 381.975h-3.327c-.72 0-1.31-.589-1.31-1.31V274.173c0-.721.59-1.311 1.31-1.311h3.327c.72 0 1.311.59 1.311 1.31v106.493c0 .721-.59 1.31-1.311 1.31M301.367 278.058h72.296v-66.792h-72.296zM373.664 300.137h-74.42l2.123-16.228h70.058z"/>
            <path fill="#FFF" d="M388.504 260.943h-11.831a2.756 2.756 0 0 1-2.748-2.748v-6.976a2.756 2.756 0 0 1 2.748-2.748h11.831a2.756 2.756 0 0 1 2.747 2.748v6.976a2.756 2.756 0 0 1-2.747 2.748"/>
            <path fill="#6D6E71" fill-rule="nonzero" d="M388.504 259.321c.616 0 1.126-.51 1.126-1.126v-6.976c0-.616-.51-1.126-1.126-1.126h-11.831c-.616 0-1.126.51-1.126 1.126v6.976c0 .616.51 1.126 1.126 1.126h11.831zm0 3.243h-11.831a4.377 4.377 0 0 1-4.369-4.369v-6.976a4.377 4.377 0 0 1 4.369-4.369h11.831a4.377 4.377 0 0 1 4.369 4.369v6.976a4.377 4.377 0 0 1-4.369 4.369z"/>
            <path fill="#FFF" d="M268.897 260.943h-11.832a2.756 2.756 0 0 1-2.747-2.748v-6.976a2.756 2.756 0 0 1 2.747-2.748h11.832a2.756 2.756 0 0 1 2.747 2.748v6.976a2.756 2.756 0 0 1-2.747 2.748"/>
            <path fill="#6D6E71" fill-rule="nonzero" d="M268.897 259.321c.615 0 1.126-.51 1.126-1.126v-6.976c0-.616-.51-1.126-1.126-1.126h-11.832c-.615 0-1.126.51-1.126 1.126v6.976c0 .616.51 1.126 1.126 1.126h11.832zm0 3.243h-11.832a4.377 4.377 0 0 1-4.368-4.369v-6.976a4.377 4.377 0 0 1 4.368-4.369h11.832a4.377 4.377 0 0 1 4.368 4.369v6.976a4.377 4.377 0 0 1-4.368 4.369z"/>
            <path fill="#FFF" d="M353.616 358.072l-18.245-.08 19.977-58.06-22.525-7.909h-10.7l-23.154 8.65 19.805 61.599h-17.17l-24.72-64.985 22.772-22.027h53.27l25.137 24.766z"/>
            <path fill="#6D6E71" fill-rule="nonzero" d="M376.142 300.41l-23.88-23.528h-51.95l-21.534 20.827 23.944 62.942h13.828l-19.598-60.955 24.879-9.294H333.1l24.305 8.535-19.765 57.444 14.902.065 23.6-56.036zm-55.144 63.483h-20.512l-25.498-67.029 24.013-23.225h54.59l26.392 26.004-25.292 60.055-21.59-.095 20.19-58.675-20.744-7.284h-10.13l-21.43 8.006 20.011 62.243z"/>
            <path fill="#8DE2D2" d="M351.886 355.58h-9.955l23.346-54.167-23.008-23.355h9.955l23.008 23.075z"/>
            <path fill="#FFF" d="M319.32 357.46l-10.72-.083s-10.312-5.595-14.991-.916c-3.39 3.389-2.544 11.356-2.544 11.356h28.255V357.46z"/>
            <path fill="#6D6E71" fill-rule="nonzero" d="M320.94 355.852v13.587h-31.333l-.154-1.45a16.286 16.286 0 0 1-.053-.677c-.12-1.965-.052-4.14.351-6.228.463-2.402 1.32-4.379 2.712-5.77 1.898-1.898 4.544-2.56 7.657-2.28 1.9.171 3.895.685 5.9 1.433a31.36 31.36 0 0 1 2.981 1.292l11.94.093zm-12.757 3.143l-.356-.193a17.255 17.255 0 0 0-.792-.393 28.138 28.138 0 0 0-2.148-.904c-1.756-.655-3.482-1.1-5.058-1.241-2.243-.202-3.958.227-5.074 1.343-.857.857-1.47 2.268-1.82 4.09-.283 1.468-.374 3.033-.338 4.5h25.102v-7.128l-9.516-.074z"/>
            <path fill="#FFF" d="M333.899 357.46l10.719-.083s10.313-5.595 14.992-.916c3.39 3.389 2.543 11.356 2.543 11.356H333.9V357.46z"/>
            <path fill="#6D6E71" fill-rule="nonzero" d="M335.52 366.196h25.101c.036-1.466-.055-3.031-.337-4.499-.351-1.822-.963-3.233-1.82-4.09-1.116-1.116-2.831-1.545-5.074-1.343-1.576.141-3.303.586-5.059 1.24-.771.289-1.495.597-2.148.905-.386.182-.658.32-.792.393l-.356.193-9.515.074v7.127zm9.28-10.72a31.36 31.36 0 0 1 2.398-1.01c2.006-.747 4-1.26 5.902-1.432 3.112-.28 5.758.382 7.657 2.28 1.39 1.391 2.248 3.368 2.71 5.77.403 2.088.472 4.263.351 6.227-.019.313-.038.544-.053.678l-.154 1.45h-31.334v-13.587l11.94-.093c.162-.081.358-.177.584-.283z"/>
            <path fill="#8DE2D2" d="M317.568 366.088h-24.845s-.784-2.75.658-3.817c1.443-1.065 24.187 0 24.187 0v3.817zM335.545 366.088h24.845s.783-2.75-.66-3.817c-1.442-1.065-24.185 0-24.185 0v3.817z"/>
            <path fill="#FFF" d="M373.06 146.521s.91-6.827-.602-18.523c-1.058-8.187-3.145-10.33-4.405-12.078 0 0 1.064-1.953.56-7.693-.815-9.287-5.24-18.217-5.24-18.217-4.54 3.593-10.301 6.876-16.19 8.99-5.712-2.594-15.532-3.07-22.216-3.07a45.128 45.128 0 0 0-22.034 5.707c-7.468 4.155-13.81 9.718-17.915 17.213-3.548 6.46-6.746 20.587-4.77 28.763l92.813-1.092z"/>
            <path fill="#6D6E71" fill-rule="nonzero" d="M369.87 115.649c.177.242.358.49.459.635.44.632.822 1.26 1.185 1.98 1.157 2.29 2.005 5.298 2.551 9.526.914 7.067 1.056 12.915.748 17.357-.053.768-.107 1.3-.145 1.588l-.185 1.39-95.507 1.124-.303-1.255c-1.917-7.93.76-22.343 4.923-29.923 4.042-7.379 10.316-13.27 18.548-17.85a46.744 46.744 0 0 1 22.823-5.912c9.284 0 17.139.829 22.267 2.947 5.368-2.005 10.757-5.055 15.134-8.517l1.57-1.242.888 1.794c.048.096.133.272.249.522.19.41.401.882.628 1.411a66.893 66.893 0 0 1 1.89 4.962c1.357 4.026 2.298 8.053 2.635 11.9.27 3.07.144 5.412-.247 7.117-.036.16-.074.308-.112.446zm.98 12.556c-.502-3.884-1.251-6.542-2.23-8.48a12.805 12.805 0 0 0-.952-1.588c-.204-.293-.879-1.198-.93-1.27l-.596-.827.488-.895c.014-.028.093-.238.19-.665.312-1.359.42-3.362.178-6.111-.312-3.562-1.197-7.347-2.477-11.148a63.692 63.692 0 0 0-1.786-4.69c-4.487 3.28-9.76 6.112-15.004 7.995l-.619.222-.599-.272c-4.544-2.063-12.33-2.925-21.546-2.925a43.503 43.503 0 0 0-21.246 5.503c-7.727 4.299-13.554 9.77-17.282 16.576-3.585 6.527-6.038 19.01-4.864 26.346l90.004-1.059c.293-4.233.156-9.866-.73-16.712z"/>
            <path fill="#FFF" d="M307.147 189.706c-5.869 0-10.883 2.753-15.175 6.771-7.155 6.697-12.976 30.335-16.077 36.258-3.1 5.925-17.042 12.89-17.042 12.89l11.487 11.414s14.975-8.388 18.11-14.731c4.177-8.453 9.415-23.558 9.415-23.558l.282 56.433 56.228.156.02-56.591s5.847 28.187 14.127 33.142c8.28 4.957 37.827-38.908 37.827-38.908l-18.373-3.242s-9.462 21.502-13.377 20.478c-3.915-1.024-5.07-28.242-15.946-36.66-4.75-3.675-10.137-5.876-15.81-5.876l-35.696 2.024z"/>
            <path fill="#6D6E71" fill-rule="nonzero" d="M342.844 186.06c5.859 0 11.592 2.186 16.8 6.216 4.346 3.363 7.395 9.292 10.012 17.928.989 3.262 3.65 13.88 4.16 15.487.358 1.125.685 1.954.988 2.504.079.143.153.26.218.35.274-.16.63-.463 1.04-.9.863-.918 1.885-2.332 3.016-4.155a81.77 81.77 0 0 0 2.45-4.263 150.297 150.297 0 0 0 3.509-6.975 164.123 164.123 0 0 0 1.455-3.165l.513-1.165 22.083 3.897-1.394 2.069-.305.449a344.331 344.331 0 0 1-4.011 5.729c-3.31 4.627-6.775 9.254-10.23 13.577a199.671 199.671 0 0 1-5.558 6.676c-9.17 10.502-15.693 15.481-19.9 12.962-3.767-2.254-7.057-8.277-10.117-17.059a125.378 125.378 0 0 1-1.562-4.803l-.016 45.545-59.46-.164-.246-48.996a298.081 298.081 0 0 1-2.387 6.114 194.853 194.853 0 0 1-1.793 4.299 105.394 105.394 0 0 1-2.206 4.81c-.675 1.365-1.796 2.798-3.313 4.314-1.597 1.596-3.612 3.264-5.953 4.976a101.12 101.12 0 0 1-6.527 4.367c-.778.48-1.5.913-2.15 1.292-.391.23-.674.39-.828.477l-1.067.598-13.956-13.868 2.02-1.008a86.32 86.32 0 0 0 2.692-1.44 82.703 82.703 0 0 0 5.948-3.64c2.644-1.788 4.784-3.519 6.223-5.105.654-.721 1.147-1.396 1.467-2.006.996-1.904 6.652-18.244 6.617-18.15 3.45-9.361 6.47-15.436 9.788-18.54 4.975-4.657 10.342-7.195 16.236-7.209l35.744-2.024zm45.124 27.578a153.455 153.455 0 0 1-3.587 7.128 84.93 84.93 0 0 1-2.548 4.434c-3.003 4.839-5.238 7.216-7.644 6.587-1.6-.419-2.477-2.01-3.463-5.115-.548-1.728-3.217-12.374-4.173-15.527-2.436-8.038-5.228-13.468-8.893-16.305-4.668-3.612-9.719-5.537-14.724-5.54l-35.697 2.025c-5.096.003-9.728 2.188-14.16 6.336-2.812 2.632-5.69 8.42-8.96 17.295.151-.414-5.66 16.377-6.788 18.531-.46.879-1.11 1.77-1.938 2.682-1.644 1.812-3.968 3.692-6.808 5.612a85.874 85.874 0 0 1-6.184 3.784c-.288.162-.57.316-.84.464l9.041 8.985c.554-.327 1.16-.691 1.805-1.09a97.948 97.948 0 0 0 6.316-4.224c2.218-1.622 4.111-3.189 5.574-4.652 1.289-1.288 2.205-2.46 2.699-3.458.66-1.337 1.376-2.9 2.137-4.66a191.647 191.647 0 0 0 1.762-4.226 325.224 325.224 0 0 0 3.817-9.96 363.726 363.726 0 0 0 1.621-4.525l3.106-8.954.321 64.301 52.994.147.024-70.733 3.204 15.439.078.366a154.772 154.772 0 0 0 1.153 4.857c1 3.929 2.147 7.856 3.422 11.513 2.808 8.058 5.85 13.626 8.72 15.344 1.998 1.196 7.994-3.382 15.793-12.312a196.47 196.47 0 0 0 5.467-6.568c3.415-4.273 6.847-8.856 10.126-13.44a345.23 345.23 0 0 0 2.847-4.038l-14.652-2.586c-.291.64-.616 1.338-.968 2.083z"/>
            <path fill="#FFF" d="M338.848 187.245s.743 12.89-1.519 18.21c-2.003 4.71-7.626 7.494-10.907 7.494-3.537 0-8.455-1.676-11.033-6.949-2.514-5.143-1.128-18.968-1.128-18.968s4.87 1.057 11.679 1.057c6.808 0 12.908-.844 12.908-.844"/>
            <path fill="#6D6E71" fill-rule="nonzero" d="M335.09 189.282c-3.014.268-6.12.429-9.15.429-3.051 0-5.947-.203-8.598-.542a57.71 57.71 0 0 1-1.61-.228c-.015.206-.03.42-.044.64-.167 2.632-.236 5.327-.15 7.828.123 3.577.56 6.348 1.308 7.88 1.96 4.009 5.715 6.04 9.576 6.04 3.221 0 7.88-2.898 9.415-6.51.671-1.577 1.118-4.173 1.341-7.452.184-2.707.203-5.596.12-8.303-.682.075-1.421.148-2.208.218zm5.395-1.752c.014.298.028.64.041 1.021.1 2.922.088 6.068-.113 9.036-.245 3.613-.744 6.507-1.592 8.502-2.058 4.842-7.912 8.482-12.4 8.482-5.03 0-9.947-2.66-12.488-7.859-1.004-2.054-1.498-5.188-1.636-9.191-.09-2.622-.018-5.416.156-8.147a90.071 90.071 0 0 1 .195-2.503l.181-1.808 1.776.385c.131.029.404.082.804.153.68.12 1.465.24 2.344.352 2.52.322 5.28.515 8.187.515 2.926 0 5.938-.156 8.863-.415 1.024-.091 1.964-.189 2.797-.286.497-.058.846-.103 1.025-.128l1.74-.24.101 1.753.02.378z"/>
            <path fill="#8DE2D2" d="M308.748 102.973c9.13-4.415 22.145-2.443 22.145-2.443s-15.552 4.684-20.293 11.035c-4.252 5.7.329 13.35-1.852 13.35-5.798 0-12.64-2.965-13.628-3.374-.987-.409-2.861-.511-2.861-.511s-1.689 1.305-4.157 5.179c-.58.911-3.543 8.722-3.543 8.722h-1.363s1.18-5.235 2.998-10.425c1.289-3.677 3.83-7.33 5.406-9.087 3.798-4.234 8.018-8.03 17.148-12.446"/>
            <path fill="#FFF" d="M375.99 153.264a6.539 6.539 0 0 1-6.541 6.541c-2.198 0-3.11-.097-3.11-.097s-.36.931-.967 2.648c-5.62 15.914-20.798 27.316-38.645 27.316-17.74 0-32.849-11.278-38.542-27.054-.468-1.293-1.013-2.974-1.013-2.974s-2.566.161-4.735.161a6.54 6.54 0 0 1-6.542-6.54 6.54 6.54 0 0 1 6.542-6.542h3.326s.014-.945.033-1.43c.096-2.394.399-3.047.893-5.32 1.875-8.644 7.288-14.531 7.288-14.531s19.109 5.61 31.966 5.688c12.114.072 31.388-6.624 31.388-6.624s5.914 5.893 8.8 14.388c.455 1.34.91 2.988 1.19 4.45.146.764.353 3.38.353 3.38h1.775a6.539 6.539 0 0 1 6.54 6.54"/>
            <path fill="#6D6E71" fill-rule="nonzero" d="M294.036 127.942a33.963 33.963 0 0 0-2.597 4.046c-1.434 2.618-2.533 5.412-3.166 8.33-.12.556-.505 2.175-.575 2.514-.157.767-.24 1.463-.282 2.526-.005.135-.01.324-.016.55-.008.314-.013.63-.016.84l-.024 1.596h-4.923a4.918 4.918 0 0 0-4.92 4.92 4.918 4.918 0 0 0 4.92 4.92c.271 0 .558-.003.858-.008a83.544 83.544 0 0 0 2.252-.071 102.037 102.037 0 0 0 1.523-.08l1.256-.078.388 1.197a108.955 108.955 0 0 0 .996 2.924c5.58 15.464 20.303 25.983 37.017 25.983 16.819 0 31.609-10.64 37.116-26.235a135.746 135.746 0 0 1 .984-2.694l.45-1.158 1.234.132c.082.008.29.024.637.041.602.03 1.365.047 2.3.047 2.72 0 4.92-2.201 4.92-4.92s-2.2-4.92-4.92-4.92h-3.272l-.118-1.493a93.512 93.512 0 0 0-.241-2.567c-.035-.297-.066-.52-.088-.635a33.572 33.572 0 0 0-1.133-4.234c-.854-2.51-2.039-4.95-3.472-7.279a42.046 42.046 0 0 0-3.424-4.781c-.299-.36-.58-.687-.842-.98a178.548 178.548 0 0 1-10.163 3.01c-3.307.872-6.52 1.611-9.563 2.175-4.252.79-8.023 1.21-11.199 1.19-3.06-.018-6.587-.338-10.496-.916-3.341-.494-6.878-1.163-10.514-1.965a202.934 202.934 0 0 1-10.38-2.581c-.16.2-.33.418-.507.654zm83.575 25.322a8.16 8.16 0 0 1-8.162 8.162c-.774 0-1.441-.011-2.01-.032-.163.448-.343.949-.539 1.501-5.961 16.882-21.97 28.398-40.173 28.398-18.09 0-34.026-11.385-40.067-28.123-.058-.16-.118-.33-.18-.507l-.093-.266c-.12-.343-.243-.703-.365-1.068l-.333.015a86.7 86.7 0 0 1-2.34.074c-.317.005-.622.008-.912.008a8.16 8.16 0 0 1-8.163-8.162 8.16 8.16 0 0 1 8.163-8.162h1.745c.051-1.168.153-2.01.34-2.921.082-.4.472-2.044.583-2.55.703-3.243 1.915-6.324 3.49-9.201a37.189 37.189 0 0 1 2.847-4.433 22.887 22.887 0 0 1 1.341-1.653l.683-.742.967.284a164.954 164.954 0 0 0 3.186.877c2.502.661 5.203 1.323 8.002 1.94 3.566.786 7.03 1.442 10.29 1.924 3.77.557 7.152.864 10.041.882 2.943.017 6.522-.382 10.589-1.137 2.956-.548 6.094-1.27 9.328-2.122a175.336 175.336 0 0 0 10.108-2.998c.401-.134.68-.228.822-.278l.958-.333.718.716c.358.357.959 1.01 1.72 1.928a45.268 45.268 0 0 1 3.69 5.152c1.554 2.526 2.845 5.18 3.78 7.935a36.785 36.785 0 0 1 1.249 4.668c.04.212.08.5.123.87a49.184 49.184 0 0 1 .123 1.192c4.798 0 8.45 3.653 8.45 8.162z"/>
            <path fill="#6D6E71" d="M306.5 155.577a2.78 2.78 0 0 1-2.771-2.772v-5.45a2.779 2.779 0 0 1 2.77-2.771 2.779 2.779 0 0 1 2.772 2.771v5.45a2.78 2.78 0 0 1-2.771 2.772M344.476 155.577a2.78 2.78 0 0 1-2.771-2.772v-5.45a2.779 2.779 0 0 1 2.77-2.771 2.779 2.779 0 0 1 2.772 2.771v5.45a2.78 2.78 0 0 1-2.771 2.772"/>
            <path fill="#FFF" d="M275.528 248.471c0 5.34-4.33 9.67-9.67 9.67s-9.67-4.33-9.67-9.67a9.67 9.67 0 1 1 19.34 0"/>
            <path fill="#6D6E71" fill-rule="nonzero" d="M273.907 248.471a8.05 8.05 0 1 0-16.098 0 8.05 8.05 0 0 0 16.098 0zm3.242 0c0 6.236-5.055 11.291-11.29 11.291-6.237 0-11.293-5.055-11.293-11.29 0-6.237 5.056-11.293 11.292-11.293s11.291 5.056 11.291 11.292z"/>
            <path fill="#FFF" d="M407.463 209.567c0 5.339-4.334 9.662-9.673 9.662-5.34 0-9.673-4.323-9.673-9.662 0-.94-.14-5.664-.14-7.393 0-4.777 1.448-8.646 3.242-8.646 1.578 0 2.885 2.994 3.177 6.971a9.835 9.835 0 0 1 3.394-.605 9.67 9.67 0 0 1 9.673 9.673"/>
            <path fill="#6D6E71" fill-rule="nonzero" d="M391.168 195.283c-.238.269-.494.73-.725 1.346-.53 1.415-.845 3.403-.845 5.545 0 .65.019 1.738.057 3.424l.012.53c.073 3.144.071 3.043.071 3.439 0 4.44 3.605 8.04 8.052 8.04 4.446 0 8.052-3.6 8.052-8.04a8.049 8.049 0 0 0-8.052-8.052c-.972 0-1.93.173-2.835.506l-2.018.741-.158-2.144c-.13-1.782-.483-3.353-.968-4.43-.2-.448-.41-.774-.594-.96l-.05.055zm6.622 2.99c6.238 0 11.294 5.052 11.294 11.294 0 6.233-5.058 11.283-11.294 11.283-6.236 0-11.294-5.05-11.294-11.283 0-.355 0-.32-.07-3.363l-.012-.532a178.925 178.925 0 0 1-.059-3.498c0-5.622 1.741-10.267 4.864-10.267 2.41 0 3.963 2.706 4.573 6.542a11.421 11.421 0 0 1 1.998-.176z"/>
            <path fill="#6D6E71" d="M317.38 171.64c.869 1.386 2.403 5.22 9.286 5.22 6.882 0 7.714-4.229 9.338-5.059 1.507-.77 2.093.598-.219 3.322-1.548 1.825-5.11 3.485-9.12 3.485-7.341 0-11.125-4.749-11.125-6.25 0-1.502 1.124-1.862 1.84-.718"/>
            <path fill="#8DE2D2" d="M388.517 212.442s1.08 4.323 3.242 6.484c2.162 2.162 6.485 2.162 6.485 2.162s-20.535 27.02-28.1 27.02c-3.243 0-7.964-12.369-8.834-15.372-1.54-5.316-5.929-20.798-12.365-27.974-5.335-5.949-7.224-5.993-7.224-5.993s.26-2.421.452-4.608c.074-.851.1-3.916.1-3.916s7.11-.201 13.42 3.995c3.088 2.055 6.646 6.015 8.835 10.798 4.309 9.423 5.615 25.777 8.858 27.939 2.843 1.895 15.13-20.535 15.13-20.535"/>
            <path fill="#FFF" d="M108.795 54.88c0 30.384-20.43 52.615-50.815 52.615-8.09 0-29.906 25.161-36.825 29.117-17.04 9.742-17.293-9.023-17.752-28.439-.439-18.572-.439-50.328-.439-52.694C2.964 25.095 25.811.503 59.991.503c30.385 0 48.804 23.991 48.804 54.376"/>
            <path fill="#6D6E71" fill-rule="nonzero" d="M107.174 54.88c0-30.8-18.834-52.756-47.183-52.756-32.366 0-55.406 22.951-55.406 53.355a2462.649 2462.649 0 0 0 .003 3.63 3513.293 3513.293 0 0 0 .142 29.267c.071 7.754.168 14.446.294 19.76l.017.71c.328 13.964.814 19.563 2.61 24.098 2.105 5.314 5.675 6.276 12.7 2.26 1.305-.746 3.38-2.455 6.45-5.272 1.817-1.67 9.008-8.482 9.348-8.8.995-.934 1.908-1.782 2.783-2.586 9.244-8.486 15.046-12.673 19.048-12.673 29.106 0 49.194-21.103 49.194-50.994zm3.242 0c0 31.646-21.502 54.236-52.436 54.236-2.774 0-8.417 4.072-16.855 11.819-.866.795-1.771 1.636-2.758 2.561-.323.303-7.534 7.135-9.375 8.824-3.251 2.985-5.444 4.791-7.033 5.7-8.647 4.943-14.446 3.379-17.322-3.882-2.001-5.054-2.498-10.773-2.838-25.216l-.017-.71c-.126-5.332-.223-12.038-.294-19.806-.064-6.896-.105-14.278-.127-21.719a4195.275 4195.275 0 0 1-.018-11.208c0-32.197 24.494-56.597 58.648-56.597 30.26 0 50.425 23.508 50.425 55.997z"/>
            <path fill="#FFF" d="M170.25 180.643a8.562 8.562 0 1 1-17.124 0 8.562 8.562 0 0 1 17.124 0"/>
            <path fill="#6D6E71" fill-rule="nonzero" d="M168.63 180.643a6.941 6.941 0 1 0-13.883 0 6.941 6.941 0 0 0 13.882 0zm3.242 0c0 5.624-4.56 10.183-10.184 10.183-5.623 0-10.183-4.56-10.183-10.183 0-5.624 4.56-10.183 10.183-10.183 5.624 0 10.184 4.56 10.184 10.183z"/>
            <path fill="#FFF" d="M25.978 231.878a6.839 6.839 0 1 1-13.678 0 6.839 6.839 0 0 1 13.678 0"/>
            <path fill="#6D6E71" fill-rule="nonzero" d="M24.357 231.878a5.218 5.218 0 1 0-10.435 0 5.218 5.218 0 0 0 10.435 0zm3.243 0a8.46 8.46 0 0 1-8.46 8.46 8.46 8.46 0 0 1-8.461-8.46 8.46 8.46 0 0 1 8.46-8.46 8.46 8.46 0 0 1 8.46 8.46z"/>
            <path fill="#8DE2D2" d="M36.001 9.017c10.053-4.861 24.385-4.602 24.385-4.602S43.26 11.483 38.042 18.478c-4.685 6.277.36 14.699-2.041 14.699-6.385 0-11.206-3.121-12.294-3.572-1.087-.45-4.298-1.469-4.298-1.469s-5.502 6.059-7.282 10.793c-.89 2.366-2.983 8.503-2.983 8.503H6.843s1.398-6.59 3.4-12.304c1.42-4.048 6.17-10.873 7.905-12.805C22.33 17.66 25.947 13.878 36 9.017"/>
            <path fill="#FFF" d="M43.55 106.906c-31.43 0-31.423 25.592-31.423 57.147v65.668l13.679.008c.071-4.687 2.196-57.689 2.196-67.35 0-5.786.712-16.668.712-16.668h1.683s2.796 26.29 2.706 35.725c-.08 8.385-4.653 26.594-4.653 26.594l54.538.172s-3.967-17.695-3.967-26.015c0-9.389 2.462-36.476 2.462-36.476l1.777-.015s13.446 21.353 18.31 26.217c4.863 4.863 55.12 17.292 55.12 17.292l2.16-17.292s-33.503-5.404-43.23-15.131c-9.727-9.727-15.101-25.588-20.555-36.377-4.276-8.457-11.902-13.499-25.504-13.499H43.55z"/>
            <path fill="#6D6E71" fill-rule="nonzero" d="M29.19 197.403c.356-1.736.68-3.418.968-5.025.827-4.621 1.3-8.39 1.324-10.958.031-3.262-.288-8.842-.872-16.055-.144-1.783-.303-3.64-.474-5.552-.113-1.273-.23-2.547-.348-3.813-.106 2.564-.165 4.734-.165 6.378 0 4.017-.343 15.163-.984 33.146a10233.7 10233.7 0 0 1-.194 5.38c.254-1.155.503-2.326.744-3.5zm-1.402 21.537c-.233 6.448-.346 9.788-.361 10.814l-.025 1.597-16.896-.01v-67.288c0-23.162.64-32.055 4.034-40.99 4.49-11.818 13.6-17.778 29.01-17.778h26.011c13.498 0 22.113 4.821 26.951 14.389.1.196.2.395.3.598 1.338 2.692 6.333 13.77 7.481 16.158 4.143 8.619 7.935 14.667 12.473 19.206 3.374 3.374 10.295 6.56 19.631 9.396 4.964 1.507 10.292 2.822 15.621 3.934 1.866.39 3.599.726 5.153 1.008a139.917 139.917 0 0 0 1.938.338l1.545.25-2.582 20.655-1.772-.438-.627-.156c-.51-.127-1.1-.276-1.766-.444-1.9-.48-4.017-1.023-6.297-1.616a845.578 845.578 0 0 1-19.114-5.192 501.285 501.285 0 0 1-7.56-2.22c-11.534-3.491-18.557-6.136-20.513-8.092-1.807-1.807-4.713-5.69-8.48-11.185-.374-.544-.754-1.102-1.14-1.671a515.723 515.723 0 0 1-6.189-9.378 583.515 583.515 0 0 1-1.72-2.68 1237.771 1237.771 0 0 0-1.406 17.5c-.539 7.493-.846 13.25-.846 16.542 0 2.529.386 6.184 1.079 10.645.257 1.658.553 3.398.879 5.193a280.644 280.644 0 0 0 1.97 9.823l.444 1.982-56.887-.18-.339 9.29zm128.803-45.775c-1.58-.287-3.34-.63-5.235-1.025-5.417-1.13-10.835-2.467-15.9-4.006-9.82-2.982-17.12-6.343-20.983-10.206-4.851-4.852-8.814-11.173-13.102-20.094-1.175-2.444-6.158-13.494-7.462-16.119l-.29-.578c-4.262-8.427-11.735-12.61-24.058-12.61H43.55c-14.094 0-21.979 5.159-25.98 15.688-3.195 8.411-3.821 17.13-3.821 39.816v64.07l10.477.006c.054-1.752.158-4.745.322-9.284.049-1.349.568-15.56.735-20.192l.115-3.223c.64-17.92.983-29.071.983-33.03 0-1.725.061-3.979.172-6.64.053-1.258.115-2.582.186-3.946a526.746 526.746 0 0 1 .357-6.186l.1-1.516h4.659l.154 1.45.117 1.118a934.619 934.619 0 0 1 1.24 12.867c.171 1.92.33 3.786.476 5.578.592 7.308.915 12.958.882 16.348-.026 2.794-.518 6.712-1.374 11.498a205.07 205.07 0 0 1-.985 5.106 277.905 277.905 0 0 1-1.854 8.36l50.466.16-.196-.938a283.85 283.85 0 0 1-1.372-7.033c-.33-1.821-.63-3.588-.892-5.275-.716-4.613-1.117-8.408-1.117-11.142 0-3.395.31-9.205.854-16.775.118-1.646.246-3.353.382-5.109a1245.196 1245.196 0 0 1 1.366-16.2l4.148-.035.482.764c.348.55.53.838.737 1.162.59.927 1.251 1.96 1.97 3.072a512.579 512.579 0 0 0 6.149 9.318c.382.565.759 1.117 1.128 1.656 3.648 5.32 6.487 9.113 8.1 10.726 1.376 1.377 8.441 4.038 19.16 7.282 2.35.712 4.861 1.449 7.51 2.205a842.427 842.427 0 0 0 19.04 5.172 952.378 952.378 0 0 0 6.882 1.763l1.742-13.94-.459-.083z"/>
            <path fill="#FFF" d="M110.756 63.063a7.2 7.2 0 0 1-7.203 7.202c-2.419 0-3.423-.107-3.423-.107s-.398 1.026-1.065 2.915c-6.188 17.525-22.901 30.08-42.552 30.08-19.536 0-36.172-12.42-42.441-29.79-.515-1.425-1.116-3.275-1.116-3.275s-2.824.177-5.213.177A7.2 7.2 0 0 1 .54 63.063a7.201 7.201 0 0 1 7.203-7.204l3.661.001s.016-1.041.037-1.575c.107-2.635.44-3.355.984-5.856 2.065-9.52 8.026-16.002 8.026-16.002s35.928 13.006 53.705 15.005c18.237 2.05 26.198.467 26.198.467s1.069 3.95 1.202 6.286c.048.854.044 1.675.044 1.675h1.953a7.201 7.201 0 0 1 7.203 7.203"/>
            <path fill="#6D6E71" fill-rule="nonzero" d="M20.965 34.333c-.183.228-.377.479-.58.75a37.565 37.565 0 0 0-2.873 4.474c-1.586 2.896-2.803 5.988-3.503 9.216-.133.61-.556 2.394-.634 2.77-.175.853-.266 1.629-.314 2.807a108.633 108.633 0 0 0-.03 1.244l-.006.29-.023 1.599-1.598-.001-1.126-.001H7.743a5.58 5.58 0 0 0-5.581 5.582 5.579 5.579 0 0 0 5.58 5.58c.3 0 .615-.002.945-.008.786-.013 1.63-.04 2.487-.078a112.418 112.418 0 0 0 1.68-.087l1.256-.079.388 1.196a124.43 124.43 0 0 0 1.099 3.225c6.169 17.093 22.442 28.72 40.916 28.72 18.589 0 34.936-11.76 41.024-28.999a146.653 146.653 0 0 1 1.082-2.961l.448-1.158 1.235.132c.093.01.326.028.71.046.666.032 1.508.052 2.54.052a5.58 5.58 0 0 0 5.583-5.581 5.58 5.58 0 0 0-5.582-5.583l-1.688.001c-.172 0-.804.012-1.895.036l.009-1.665c0-.43-.01-1.006-.042-1.575-.031-.552-.128-1.27-.28-2.108-.08-.445-.175-.915-.28-1.401a55.4 55.4 0 0 0-.24-1.057c-.269.031-.567.063-.894.094-5.645.538-13.67.43-24.269-.762-5.571-.626-13.145-2.327-22.245-4.875a387.165 387.165 0 0 1-8.725-2.56 536.335 536.335 0 0 1-16.246-5.262 510.643 510.643 0 0 1-5.793-2.013zm82.588 19.905a8.822 8.822 0 0 1 8.824 8.825 8.822 8.822 0 0 1-8.824 8.823c-.904 0-1.676-.014-2.324-.04-.191.522-.404 1.111-.635 1.767-6.541 18.524-24.107 31.161-44.081 31.161-19.851 0-37.337-12.493-43.966-30.86a68.714 68.714 0 0 1-.202-.567l-.098-.282c-.144-.414-.292-.85-.44-1.292l-.49.023c-.885.04-1.757.068-2.576.081-.347.006-.68.01-.998.01a8.821 8.821 0 0 1-8.824-8.824 8.822 8.822 0 0 1 8.824-8.825H9.82c.055-1.368.167-2.318.378-3.347.09-.436.52-2.244.641-2.806.771-3.553 2.1-6.93 3.829-10.086a40.79 40.79 0 0 1 3.122-4.862 25.055 25.055 0 0 1 1.466-1.807l.73-.795 1.015.368.472.169a507.416 507.416 0 0 0 6.331 2.205 533.142 533.142 0 0 0 16.147 5.23c2.978.91 5.87 1.76 8.651 2.54 8.946 2.504 16.374 4.172 21.734 4.774 10.381 1.168 18.182 1.272 23.598.756a33.234 33.234 0 0 0 1.627-.19c.253-.038.411-.065.476-.078l1.485-.295.396 1.462a60.326 60.326 0 0 1 .627 2.605c.113.52.214 1.027.302 1.51.173.957.286 1.797.326 2.502.125.145.248.145.379.145z"/>
            <path fill="#FFF" d="M70.184 101.017s.69 13.386-1.8 19.244c-2.205 5.188-8.398 8.254-12.011 8.254-3.894 0-9.31-1.847-12.15-7.653-2.767-5.663-1.241-19.75-1.241-19.75s7.922 2.04 12.667 2.04c4.744 0 14.535-2.135 14.535-2.135"/>
            <path fill="#6D6E71" fill-rule="nonzero" d="M64.976 103.681a118.28 118.28 0 0 1-3.081.502c-2.553.379-4.673.59-6.246.59-1.353 0-2.98-.15-4.832-.423a74.576 74.576 0 0 1-3.596-.628c-.96-.19-1.899-.392-2.789-.595l-.043.595c-.192 2.805-.266 5.683-.154 8.355.15 3.585.63 6.404 1.445 8.073 2.189 4.475 6.383 6.744 10.693 6.744 3.61 0 8.802-3.228 10.519-7.267.732-1.723 1.234-4.416 1.51-7.775.238-2.91.29-5.998.226-8.858-1.172.235-2.405.468-3.652.687zm6.842-2.427c.01.254.02.546.03.873.096 3.18.057 6.677-.215 9.99-.301 3.676-.858 6.663-1.758 8.778-2.24 5.27-8.625 9.241-13.502 9.241-5.48 0-10.835-2.897-13.606-8.562-1.062-2.173-1.604-5.362-1.771-9.361-.118-2.807-.041-5.798.159-8.712a84.923 84.923 0 0 1 .215-2.564l.202-1.862 1.814.467.334.084a95.476 95.476 0 0 0 4.13.916c1.194.236 2.35.44 3.44.6 1.709.253 3.189.39 4.359.39 1.379 0 3.362-.2 5.77-.556.956-.142 1.96-.306 2.996-.488a155.438 155.438 0 0 0 5.424-1.055l1.866-.407.098 1.907.015.32z"/>
            <path fill="#6D6E71" d="M36.271 67.69a2.99 2.99 0 0 1-2.982-2.981v-5.867a2.99 2.99 0 0 1 2.982-2.982 2.991 2.991 0 0 1 2.982 2.982v5.867a2.99 2.99 0 0 1-2.982 2.981M77.137 67.69a2.99 2.99 0 0 1-2.982-2.981v-5.867a2.991 2.991 0 0 1 2.982-2.982 2.99 2.99 0 0 1 2.982 2.982v5.867a2.99 2.99 0 0 1-2.982 2.981"/>
            <path fill="#FFF" d="M84.467 379.59l-20.09-.088-.15-143.145H46.558l-.04 143.233H27.612V206.57h56.856z"/>
            <path fill="#6D6E71" fill-rule="nonzero" d="M82.846 208.192H29.233v169.776h15.666l.039-143.232h20.908l.15 143.152 16.85.073v-169.77zM48.14 381.21H25.99V204.95h60.098v176.268l-23.331-.102-.15-143.138H48.179l-.039 143.233z"/>
            <path fill="#8DE2D2" d="M71.331 376.364h11.217v-167.43H71.33zM155.068 173.534l-1.08 11.888c-.558-.422-45.393-12.97-50.797-16.211-3.174-1.906-9.995-13.74-15.131-24.858-3.606-7.806-5.1-15.14-9.439-18.94-6.773-5.931-8.139-6.753-8.139-6.753s.293-2.726.508-5.19c.084-.96.114-4.414.114-4.414s8.01-.226 15.12 4.503c3.48 2.314 4.775 5.949 7.24 11.34 4.855 10.616 11.888 29.18 22.696 36.746 10.808 7.566 38.908 11.889 38.908 11.889"/>
            <path fill="#FFF" d="M47.437 376.517l-11.803-.092s-11.355-6.16-16.508-1.008c-3.731 3.732-2.8 12.505-2.8 12.505h31.111v-11.405z"/>
            <path fill="#6D6E71" fill-rule="nonzero" d="M49.059 374.909v14.634H14.867l-.154-1.45a17.78 17.78 0 0 1-.058-.738c-.13-2.15-.055-4.532.385-6.817.504-2.614 1.436-4.763 2.94-6.267 2.05-2.05 4.917-2.768 8.3-2.464 2.078.187 4.26.75 6.456 1.568a34.367 34.367 0 0 1 3.3 1.432l13.023.102zm-13.842 3.134l-.356-.193a19.14 19.14 0 0 0-.88-.437 31.145 31.145 0 0 0-2.378-1c-1.946-.726-3.86-1.219-5.612-1.376-2.514-.227-4.45.258-5.718 1.526-.97.971-1.657 2.553-2.05 4.589-.324 1.682-.42 3.477-.37 5.148h27.963v-8.174l-10.599-.083z"/>
            <path fill="#FFF" d="M63.49 376.517l11.804-.092s11.356-6.16 16.508-1.008c3.733 3.732 2.801 12.505 2.801 12.505H63.491v-11.405z"/>
            <path fill="#6D6E71" fill-rule="nonzero" d="M65.112 386.3h27.964c.05-1.67-.047-3.466-.371-5.148-.392-2.036-1.079-3.618-2.05-4.589-1.268-1.268-3.204-1.753-5.717-1.526-1.752.157-3.667.65-5.613 1.376-.853.318-1.655.66-2.378 1-.428.202-.73.356-.88.437l-.356.193-10.6.083v8.174zm10.453-11.82c.801-.377 1.685-.754 2.628-1.105 2.195-.819 4.377-1.381 6.454-1.568 3.384-.304 6.25.413 8.3 2.463 1.506 1.505 2.438 3.654 2.942 6.268.44 2.284.515 4.666.384 6.817-.021.342-.042.593-.058.738l-.154 1.45H61.87v-14.634l13.023-.102c.184-.092.41-.202.673-.327z"/>
            <path fill="#8DE2D2" d="M45.508 386.017H18.151s-.863-3.028.725-4.201c1.588-1.174 26.632 0 26.632 0v4.201zM65.303 386.017H92.66s.863-3.028-.725-4.201c-1.588-1.174-26.632 0-26.632 0v4.201z"/>
            <path fill="#6D6E71" d="M33.622 57.55v3.462s-1.159-.925-1.789-1.555c-.63-.63-.862-1.393-1.322-2.217-.46-.822-.719-2.328-.06-1.563.424.494.976 1.102 1.64 1.765.59.59 1.53.108 1.53.108M79.355 57.55v3.462s1.159-.925 1.79-1.555c.63-.63.862-1.393 1.32-2.217.46-.822.72-2.328.061-1.563a31.902 31.902 0 0 1-1.64 1.765c-.59.59-1.53.108-1.53.108M46.172 84.974c.978 1.562 2.707 5.88 10.462 5.88 7.754 0 8.692-4.764 10.52-5.699 1.7-.867 2.36.674-.244 3.742-1.746 2.058-5.759 3.928-10.276 3.928-8.273 0-12.536-5.35-12.536-7.043 0-1.692 1.266-2.097 2.074-.808"/>
            <path fill="#8DE2D2" d="M165.336 196.77h76.735v-32.423h-76.735z"/>
            <path fill="#6D6E71" fill-rule="nonzero" d="M163.714 198.392v-35.666h79.978v35.666h-79.978zm76.736-3.243v-29.18h-73.493v29.18h73.493z"/>
            <text fill="#FFF" font-family="LucidaGrande, Lucida Grande" font-size="24">
                <tspan x="196" y="189">$</tspan>
            </text>
            <path stroke="#FFF" stroke-width="3" d="M217 180c0 7.18-5.82 13-13 13s-13-5.82-13-13 5.82-13 13-13 13 5.82 13 13z"/>
        </g>
    </g>
</svg>
