<svg width="150" height="135" viewBox="0 0 150 135" fill="none" xmlns="http://www.w3.org/2000/svg">
<g filter="url(#filter0_d)">
<path d="M133.149 45.042H16.7412V114.984H133.149V45.042Z" fill="white"/>
</g>
<g filter="url(#filter1_d)">
<path d="M114.603 29.8953L106.988 5H128.268L140.909 29.8953H114.603Z" fill="white"/>
<path d="M88.2984 29.8953L86.2217 5H106.989L114.604 29.8953H88.2984Z" fill="#E1E5FA"/>
<path d="M35.687 29.8953L43.3018 5H22.0215L9.38131 29.8953H35.687Z" fill="white"/>
<path d="M61.9916 29.8953L64.0684 5H43.3007L35.6859 29.8953H61.9916Z" fill="#E1E5FA"/>
<path d="M61.9932 29.8953L64.0819 5H86.2221L88.2988 29.8953H61.9932Z" fill="white"/>
<path fill-rule="evenodd" clip-rule="evenodd" d="M114.604 29.8953H140.905H140.909V39.9222C140.909 47.2602 134.988 53.2633 127.758 53.2633C120.521 53.2633 114.604 47.2563 114.604 39.9222V29.8953Z" fill="white"/>
<path fill-rule="evenodd" clip-rule="evenodd" d="M88.2969 29.8953H114.599H114.603V39.9222C114.603 47.2602 108.681 53.2633 101.452 53.2633C94.2144 53.2633 88.2969 47.2563 88.2969 39.9222V29.8953Z" fill="#E1E5FA"/>
<path fill-rule="evenodd" clip-rule="evenodd" d="M61.9932 29.8953H88.295H88.2988V39.9222C88.2988 47.2602 82.3775 53.2633 75.1479 53.2633C67.9107 53.2633 61.9932 47.2563 61.9932 39.9222V29.8953Z" fill="white"/>
<path fill-rule="evenodd" clip-rule="evenodd" d="M35.6865 29.8953H61.9884H61.9922V39.9222C61.9922 47.2602 56.0708 53.2633 48.8413 53.2633C41.6041 53.2633 35.6865 47.2563 35.6865 39.9222V29.8953Z" fill="#E1E5FA"/>
<path fill-rule="evenodd" clip-rule="evenodd" d="M9.38086 29.8953H35.6827H35.6865V39.9222C35.6865 47.2602 29.7652 53.2633 22.5356 53.2633C15.2984 53.2633 9.38086 47.2563 9.38086 39.9222V29.8953Z" fill="white"/>
</g>
<path d="M108 69H87C84.7909 69 83 70.7909 83 73V115H112V73C112 70.7909 110.209 69 108 69Z" fill="#63D3C8"/>
<line x1="1" y1="115.849" x2="149" y2="115.849" stroke="#E1E5FA" stroke-width="2" stroke-linecap="round"/>
<circle cx="50" cy="86" r="16.5" stroke="#E1E5FA"/>
<path d="M53 77H47V83H41V89H47V95H53V89H59V83H53V77Z" fill="#EC5C8C"/>
<defs>
<filter id="filter0_d" x="1.74121" y="35.042" width="146.408" height="99.942" filterUnits="userSpaceOnUse" color-interpolation-filters="sRGB">
<feFlood flood-opacity="0" result="BackgroundImageFix"/>
<feColorMatrix in="SourceAlpha" type="matrix" values="0 0 0 0 0 0 0 0 0 0 0 0 0 0 0 0 0 0 127 0"/>
<feOffset dy="5"/>
<feGaussianBlur stdDeviation="7.5"/>
<feColorMatrix type="matrix" values="0 0 0 0 0 0 0 0 0 0.137255 0 0 0 0 0.862745 0 0 0 0.2 0"/>
<feBlend mode="normal" in2="BackgroundImageFix" result="effect1_dropShadow"/>
<feBlend mode="normal" in="SourceGraphic" in2="effect1_dropShadow" result="shape"/>
</filter>
<filter id="filter1_d" x="1.38086" y="0" width="147.528" height="64.2633" filterUnits="userSpaceOnUse" color-interpolation-filters="sRGB">
<feFlood flood-opacity="0" result="BackgroundImageFix"/>
<feColorMatrix in="SourceAlpha" type="matrix" values="0 0 0 0 0 0 0 0 0 0 0 0 0 0 0 0 0 0 127 0"/>
<feOffset dy="3"/>
<feGaussianBlur stdDeviation="4"/>
<feColorMatrix type="matrix" values="0 0 0 0 0 0 0 0 0 0.137255 0 0 0 0 0.862745 0 0 0 0.15 0"/>
<feBlend mode="normal" in2="BackgroundImageFix" result="effect1_dropShadow"/>
<feBlend mode="normal" in="SourceGraphic" in2="effect1_dropShadow" result="shape"/>
</filter>
</defs>
</svg>
