<svg width="166" height="298" viewBox="0 0 166 298" fill="none" xmlns="http://www.w3.org/2000/svg">
<path d="M83.2036 297.697C37.4764 297.697 0.407135 291.232 0.407135 283.256C0.407135 275.281 37.4764 268.815 83.2036 268.815C128.931 268.815 166 275.281 166 283.256C166 291.232 128.931 297.697 83.2036 297.697Z" fill="#E2E6FB"/>
<path d="M80.1362 61.1877C80.1362 61.1877 79.2746 82.6208 81.8852 87.3423C84.2 91.5305 89.4468 94 93.2405 94C97.3299 94 104.274 92.5084 107.258 87.8264C110.164 83.2628 108.557 61 108.557 61C108.557 61 100.776 63.9238 95.0537 63.9238C89.331 63.9337 80.1362 61.1877 80.1362 61.1877Z" fill="#D9DDFC"/>
<path d="M83.9946 52.407C83.9946 52.407 83.3318 63.8729 85.3401 68.6017C87.1208 72.7964 91.1571 75.2696 94.0756 75.2696C97.2215 75.2696 102.564 73.7758 104.859 69.0865C107.095 64.516 105.858 52.219 105.858 52.219C105.858 52.219 99.8729 55.1473 95.4705 55.1473C91.0681 55.1572 83.9946 52.407 83.9946 52.407Z" fill="#C9D0FB"/>
<path d="M50.9534 39.2717C50.9534 42.4869 53.5552 45.0888 56.7704 45.0888C58.7293 45.0888 59.5405 44.9997 59.5405 44.9997C59.5405 44.9997 59.8571 45.8307 60.4012 47.3543C65.3971 61.5111 78.901 71.6514 94.7792 71.6514C110.559 71.6514 124.003 61.6199 129.068 47.5818C129.484 46.4342 129.969 44.9404 129.969 44.9404C129.969 44.9404 132.254 45.0789 134.183 45.0789C137.398 45.0789 140 42.477 140 39.2618C140 36.0466 137.398 33.4448 134.183 33.4448C132.669 33.4448 131.225 33.4448 131.225 33.4448C131.225 33.4448 131.215 32.6039 131.195 32.1686C131.106 30.0416 130.839 29.4579 130.404 27.4397C128.732 19.7529 120 10 120 10C120 10 111.5 0 92.5 0C80.5 0 70 10 70 10C70 10 62.5 17.5 59.7284 26.49C59.3228 27.6772 58.9172 29.1512 58.6699 30.4472C58.5413 31.1298 58.3533 33.4546 58.3533 33.4546C58.3533 33.4546 58.3138 33.4546 56.7803 33.4546C53.5552 33.4546 50.9534 36.0565 50.9534 39.2717Z" fill="#D9DDFC"/>
<path d="M103.358 55.9508C102.586 57.1874 101.221 60.6005 95.0872 60.6005C88.9536 60.6005 88.2116 56.8313 86.7673 56.0992C85.4218 55.4166 84.9074 56.6334 86.9651 59.0572C88.3402 60.6796 91.5159 62.1636 95.0872 62.1636C101.627 62.1636 105 57.9294 105 56.5938C105 55.2583 104.001 54.9318 103.358 55.9508Z" fill="#02065A"/>
<path d="M76.1486 72.6882C74.5492 75.5707 73.0428 78.2115 71.6294 80.908C71.3691 81.4101 71.2947 82.2284 71.5365 82.7305C78.1384 97.4035 84.7962 112.058 91.5656 126.991C92.0305 126.247 92.4025 125.708 92.7 125.15C101.069 109.938 109.437 94.707 117.806 79.4946C118.717 77.8209 118.085 73.897 116.69 72.558C115.723 71.6281 114.756 71.5351 113.492 72.1302C108.098 74.6222 102.631 76.9283 97.2563 79.4203C95.8615 80.0711 94.7271 80.1269 93.2951 79.5318C87.6602 77.2072 82.0067 75.0128 76.1486 72.6882Z" fill="#E0F2FC"/>
<path d="M98.0567 273.331C97.4616 276.046 96.8665 278.501 96.4015 280.974C96.0668 282.759 98.0753 285.103 99.8792 284.991C108.322 284.433 116.71 285.028 125.097 285.679C125.748 285.735 127.05 284.972 127.031 284.619C126.994 283.671 126.696 282.35 126.027 281.848C124.111 280.472 121.842 279.598 119.908 278.222C114.199 274.13 108.025 272.085 100.958 273.312C100.102 273.461 99.1911 273.331 98.0567 273.331Z" fill="#02065A"/>
<path d="M70.1602 273.535C66.0875 273.535 62.0891 273.517 58.0907 273.554C57.5328 273.554 56.9377 273.852 56.4355 274.131C51.842 276.715 47.2671 279.3 42.6922 281.923C42.2459 282.183 41.6508 282.481 41.5206 282.871C41.2788 283.634 41.0557 284.619 41.3346 285.289C41.5392 285.772 42.5992 286.144 43.2501 286.126C46.7278 285.958 50.2055 285.53 53.7017 285.437C58.3324 285.307 62.9631 285.363 67.5938 285.419C70.5136 285.456 72.2803 283.522 71.7038 280.677C71.2389 278.445 70.7367 276.213 70.1602 273.535Z" fill="#02065A"/>
<path d="M55.6362 167.793C62.2568 167.849 68.8774 167.867 75.498 167.942C92.5516 168.128 109.605 168.351 126.659 168.555C126.696 168.667 126.566 168.462 126.659 168.555C127.403 169.299 128.165 169.374 129.076 169.894C129.969 170.396 131.122 170.359 131.959 170.917C130.862 178.337 129.839 187.152 128.537 194.535C124.204 219.195 119.759 243.836 115.352 268.477C114.422 273.647 114.422 273.647 109.122 274.149C108.899 274.167 108.675 274.205 108.452 274.223C104.696 274.446 100.939 274.651 97.0149 274.893C94.6903 250.605 92.3842 226.559 90.0782 202.532H89.6133C83.1786 226.541 76.7626 250.531 70.3094 274.632C64.9348 274.372 59.7462 274.112 54.7436 273.851C54.7436 271.917 54.7808 270.299 54.7436 268.681C54.4646 259.755 54.1671 250.847 53.8509 241.92C53.0326 218.656 52.2144 195.391 51.3775 172.126C51.2659 169.281 52.7537 167.774 55.6362 167.793Z" fill="#3232C8"/>
<path d="M117.025 71.7955C108.285 86.2826 99.8972 100.212 91.2867 114.494C86.1725 100.286 81.1885 86.4871 76.0742 72.279C74.3075 73.6924 72.6152 74.7896 71.2762 76.1844C68.282 79.2901 65.4367 82.526 62.6099 85.799C61.9962 86.5057 61.4941 87.6029 61.4941 88.5142C61.4197 115.294 61.3825 142.073 61.4383 168.853C61.4383 169.634 62.2008 170.787 62.9074 171.103C68.0217 173.484 73.1917 175.771 78.3989 177.91C79.2172 178.244 80.5747 178.059 81.3558 177.594C84.0338 176.013 86.5444 174.172 89.2596 172.368C91.2681 174.172 93.2394 175.845 95.1177 177.631C95.9732 178.449 96.6427 178.709 97.8143 178.059C107.485 172.684 117.193 167.365 126.937 162.102C128.09 161.47 128.239 160.708 128.202 159.592C127.681 142.352 127.179 125.094 126.677 107.855C126.398 98.259 126.101 88.6816 125.915 79.0855C125.877 77.3932 125.394 76.296 123.888 75.5335C121.6 74.3991 119.387 73.0973 117.025 71.7955Z" fill="white"/>
<path d="M116.45 71.4236C115.539 73.3577 114.311 75.2546 113.679 77.3374C109.104 92.4009 104.659 107.483 100.196 122.584C99.8983 123.569 99.8053 124.629 99.7681 125.652C99.2102 139.674 101.182 153.548 102.242 167.477C102.335 168.704 102.93 169.894 103.376 171.066C105.422 176.552 107.486 182.02 109.625 187.748C114.367 185.516 119.555 184.66 123.089 180.513C124.484 178.877 126.083 177.389 127.775 176.069C132.555 172.368 135.772 167.551 138.097 162.084C138.506 161.135 138.673 159.908 138.45 158.922C137.26 153.566 135.586 148.285 134.731 142.873C133.782 136.959 133.373 130.952 133.001 124.964C132.759 121.208 132.295 117.228 133.206 113.694C134.917 107.111 137.576 100.77 139.826 94.3164C140.105 93.554 140.384 92.7729 140.626 92.0104C141.593 88.9233 141.37 87.51 138.748 85.7246C131.699 80.9266 124.521 76.296 117.38 71.6096C117.231 71.498 116.97 71.5166 116.45 71.4236Z" fill="#F7C645"/>
<path d="M62.8332 185.125C65.4554 177.854 68.8959 171.345 70.0489 164.464C72.0946 152.246 73.1919 139.823 73.88 127.438C74.8842 109.622 75.1818 91.7686 75.7397 73.9342C75.7583 73.339 75.6095 72.4092 75.2375 72.2232C74.8098 72.0187 73.9543 72.2976 73.4708 72.6324C67.278 77.0026 61.0107 81.2985 55.0224 85.9478C53.888 86.8404 53.2371 89.2766 53.4603 90.8388C54.4645 98.1288 55.8779 105.344 57.0495 112.597C57.2355 113.787 57.1797 115.108 56.8636 116.279C53.4789 129.279 50.0012 142.259 46.6351 155.277C46.319 156.486 46.4863 157.881 46.7095 159.164C48.1601 167.867 53.2185 174.841 57.998 181.889C58.9092 183.228 60.8619 183.842 62.8332 185.125Z" fill="#F7C645"/>
<path d="M104.268 85.3712C104.268 85.2968 104.268 85.2224 104.268 85.148C104.677 77.8394 102.092 78.2672 97.5547 80.7034C94.4304 82.3771 92.0685 82.1725 89.186 80.4058C85.8013 78.323 83.644 79.7921 83.6812 83.8091C83.7742 91.9173 86.6382 90.7829 91.9756 89.0906C93.3517 88.6443 95.0441 88.886 96.5319 89.1836C98.1126 89.4997 99.5818 90.3738 101.144 90.7643C103.245 91.3036 104.231 90.4854 104.287 88.2909C104.324 87.3239 104.287 86.3568 104.287 85.3898C104.305 85.3712 104.287 85.3712 104.268 85.3712Z" fill="#E65950"/>
<path d="M117.918 99.8025C115.966 98.1474 114.217 96.6596 112.116 94.8929C114.329 94.2048 116.245 93.7027 118.086 93.0146C118.755 92.7728 119.313 92.1405 119.834 91.6012C120.057 91.3595 120.02 90.8945 120.131 90.5412C121.47 85.6874 122.809 80.8336 124.186 75.8124C121.377 74.2689 118.662 72.7811 115.445 71.0144C109.512 88.3282 104.956 105.828 99.8977 123.235C105.867 115.48 111.818 107.725 117.918 99.8025Z" fill="#FFD975"/>
<path d="M72.2393 93.401C69.8402 94.4982 67.7759 95.428 65.3955 96.5067C68.4454 105.024 71.4768 113.504 74.6011 122.263C74.8429 121.873 74.9916 121.724 74.9916 121.594C75.6239 106.14 76.2562 90.6858 76.8142 75.2318C76.8514 74.3577 76.4236 73.0001 75.7913 72.684C75.1776 72.3678 73.9688 72.9629 73.1505 73.3907C70.3238 74.8412 68.8174 77.1286 68.4826 80.3831C68.2223 82.8751 67.59 85.3485 66.9763 87.8033C66.6415 89.1609 66.8461 89.9977 68.1293 90.6858C69.4869 91.3925 70.7143 92.3595 72.2393 93.401Z" fill="#FFD975"/>
<g filter="url(#filter0_d)">
<path d="M73.0004 75.1191C78.9515 79.0617 84.512 82.7439 90.3144 86.5748C91.2814 84.306 92.1927 82.1674 93.2899 79.6196C94.0152 82.1674 94.6289 84.3246 95.2798 86.6492C102.105 82.279 108.763 78.0203 115.588 73.6314C114.175 72.9619 110.715 71.6084 107.215 72.1085C106.564 71.8853 105.384 72.8109 104.715 73.1084C100.698 74.8193 101.156 75.4353 97.1767 77.2392C95.2426 78.1132 93.4573 78.169 91.4302 77.2764C87.4876 75.5469 89.6388 75.3795 85.7148 73.6314C83.7807 72.7759 76.1619 71.6601 74.8973 73.3896C74.5068 73.9847 73.8373 74.3938 73.0004 75.1191Z" fill="white"/>
</g>
<path d="M89.7995 126.266C88.7724 126.266 87.9397 125.433 87.9397 124.406C87.9397 123.379 88.7724 122.547 89.7995 122.547C90.8266 122.547 91.6592 123.379 91.6592 124.406C91.6592 125.433 90.8266 126.266 89.7995 126.266Z" fill="#A07D1F"/>
<path d="M89.0182 144.863C87.9911 144.863 87.1585 144.03 87.1585 143.003C87.1585 141.976 87.9911 141.144 89.0182 141.144C90.0453 141.144 90.8779 141.976 90.8779 143.003C90.8779 144.03 90.0453 144.863 89.0182 144.863Z" fill="#A07D1F"/>
<path d="M89.0182 162.846C87.9911 162.846 87.1585 162.014 87.1585 160.987C87.1585 159.959 87.9911 159.127 89.0182 159.127C90.0453 159.127 90.8779 159.959 90.8779 160.987C90.8779 162.014 90.0453 162.846 89.0182 162.846Z" fill="#A07D1F"/>
<path d="M111.31 40.8446C112.665 40.8446 113.773 39.7366 113.773 38.3812V33.5337C113.773 32.1783 112.665 31.0703 111.31 31.0703C109.955 31.0703 108.847 32.1783 108.847 33.5337V38.3812C108.847 39.7366 109.955 40.8446 111.31 40.8446Z" fill="#02065A"/>
<path d="M77.5367 40.8446C78.892 40.8446 80 39.7366 80 38.3812V33.5337C80 32.1783 78.892 31.0703 77.5367 31.0703C76.1813 31.0703 75.0733 32.1783 75.0733 33.5337V38.3812C75.0634 39.7366 76.1714 40.8446 77.5367 40.8446Z" fill="#02065A"/>
<path d="M94.0491 71.893C98.9286 72.0047 103.344 71.1902 107.408 68.6349C112.415 65.4886 112.751 59.6273 111.135 55.0596C110.719 53.8777 109.536 52.4563 108.4 52.105C105.408 51.1627 102.256 50.5877 99.1366 50.1405C97.3288 49.885 95.441 50.0287 93.6011 50.1725C90.1775 50.444 86.7538 50.7794 83.3621 51.2745C82.4982 51.4022 81.6183 52.0571 80.9144 52.664C76.8987 56.1616 77.0587 64.147 81.2343 67.3732C85.9539 71.0145 89.0896 72.42 94.0491 71.893ZM95.9689 52.9674C95.9689 52.9514 95.9689 52.9514 95.9689 52.9355C97.3768 52.9355 98.7846 52.9355 100.193 52.9355C101.6 52.9514 103.008 52.9674 104.416 52.9834C107.824 53.0313 109.216 54.4048 109.648 57.7108C110.048 60.7452 108.352 62.534 106.224 64.0672C103.248 66.2073 100.097 67.3732 96.4169 65.6004C94.945 64.8977 93.3452 64.8817 91.9533 66.1754C91.5693 66.5267 90.8174 66.6066 90.2255 66.6225C86.9298 66.7184 84.466 64.8338 81.9063 63.1409C80.4024 62.1507 80.0344 60.8251 80.2424 59.1961C80.7704 55.1394 82.1302 53.75 86.7858 53.0313C89.7775 52.6001 92.8972 52.9674 95.9689 52.9674Z" fill="#BAC4F4"/>
<path d="M130.512 33.8058C131.27 33.3711 132.081 32.9917 132.794 32.4763C134.923 30.9556 134.978 29.1448 133.547 26.9854C132.327 25.1556 131.367 23.0694 130.672 20.9597C129.896 18.5965 128.096 16.6913 125.916 16.5905C124.02 16.4986 120.805 18.7059 120.072 20.4553C119.653 21.4455 119.099 22.3851 118.438 23.2141C116.962 25.0891 117.062 27.7324 118.525 29.5735C119.135 30.3384 119.54 31.4566 119.578 32.4207C119.705 35.3708 123.502 39.3031 126.441 39.269C129.389 39.2511 130.821 37.3369 130.512 33.8058Z" fill="#BAC4F4"/>
<path d="M62.273 37.9779C65.9483 38.4781 67.86 36.9022 68.0314 33.6023C68.1584 31.0596 69.1601 28.5536 67.8843 26.0092C67.7077 25.6554 68.2747 24.9579 68.4926 24.419C69.3054 22.2673 68.9931 20.3017 67.3873 18.6513C65.8127 17.0283 63.85 16.6685 61.894 17.7523C60.3419 18.6149 58.9265 19.7632 57.5385 20.8802C56.6876 21.5611 56.0055 22.4783 55.1678 23.1818C53.3336 24.6819 53.1487 27.1517 55.1374 28.441C57.2872 29.8492 58.6005 31.4423 59.14 34.0825C59.4175 35.5199 61.1731 36.6713 62.273 37.9779Z" fill="#BAC4F4"/>
<path d="M130.779 34.4239C130.779 34.4239 128.207 34.0579 126.387 34.0579C124.913 34.0579 123.36 34.7998 123.36 34.7998L121.351 29.0322L130.769 29.2894L130.779 34.4239Z" fill="#02065A"/>
<path d="M58.5513 34.2461C58.5513 34.2461 59.9858 33.7812 61.8654 33.7812C63.7451 33.7812 64.8333 35.1464 64.8333 35.1464C64.8333 35.1464 64.4673 33.6427 65.9512 31.5454C67.4352 29.448 69.7402 28.2114 69.7402 28.2114L59.1548 29.0325L58.5513 34.2461Z" fill="#02065A"/>
<path d="M89.546 36.2244C89.546 36.2244 92.0094 33.2961 93.7406 33.2961C95.4818 33.2961 97.777 35.8782 97.777 35.8782C97.777 35.8782 97.1537 34.5624 97.589 32.3859C98.0342 30.2095 99.1719 29.0322 99.1719 29.0322H88.0918C88.0918 29.0322 89.0514 29.9918 89.7142 32.0892C90.377 34.1766 89.546 36.2244 89.546 36.2244Z" fill="#02065A"/>
<path d="M89.3177 36.7488C87.4974 42.7538 85.9541 48.0663 75.3983 48.0663C68.5227 48.0663 65.1096 42.9022 65.1096 36.7488C65.1096 30.5953 65.6339 27.3999 77.555 27.3999C89.476 27.3999 91.2963 30.2095 89.3177 36.7488Z" stroke="#02065A" stroke-width="2" stroke-miterlimit="10"/>
<path d="M98.5192 36.7488C101.012 42.5065 101.725 48.0663 112.795 48.0663C119.839 48.0663 123.351 42.9022 123.351 36.7488C123.351 30.5953 122.806 27.3999 110.589 27.3999C98.3708 27.3999 95.9372 30.7932 98.5192 36.7488Z" stroke="#02065A" stroke-width="2" stroke-miterlimit="10"/>
<path d="M54 179C51.2386 179 49 176.761 49 174C49 171.239 51.2386 169 54 169C56.7614 169 59 171.239 59 174C59 176.761 56.7614 179 54 179Z" fill="#D9DDFC"/>
<path d="M128 176C125.239 176 123 173.761 123 171C123 168.239 125.239 166 128 166C130.761 166 133 168.239 133 171C133 173.761 130.761 176 128 176Z" fill="#D9DDFC"/>
<path d="M46.7661 169.206C47.4914 170.75 48.1609 172.126 48.9606 173.837C51.341 172.275 53.5727 170.806 55.9531 169.243C55.3394 168.202 54.8373 167.328 54.2608 166.361C51.7316 167.309 49.2953 168.239 46.7661 169.206Z" fill="white"/>
<path d="M46.1151 172.07C48.9233 170.861 51.6756 169.764 54.3164 168.444C54.8372 168.184 55.2835 167.031 55.1905 166.38C53.8887 158.085 52.4753 149.828 51.1549 141.534C50.9875 140.493 51.0619 139.302 51.3595 138.28C52.7915 133.277 54.0933 128.237 55.8786 123.383C57.6453 118.567 57.9429 113.825 57.1246 108.803C55.9902 101.997 55.2835 95.1161 54.3908 88.2724C54.3722 88.0678 54.242 87.8819 53.9259 87.0636C51.6198 90.2065 49.0348 92.7729 47.6029 95.8786C42.3399 107.334 37.3558 118.939 32.4648 130.562C30.6051 134.988 30.4191 139.581 32.6321 144.119C36.8909 152.86 41.0009 161.656 45.2038 170.434C45.427 170.973 45.7431 171.457 46.1151 172.07Z" fill="#F7C645"/>
<path d="M136.293 167.867C132.685 166.342 129.375 164.929 125.953 163.478C125.339 164.65 124.8 165.673 124.186 166.844C127.72 168.611 131.086 170.285 134.731 172.089C135.27 170.675 135.735 169.411 136.293 167.867Z" fill="white"/>
<path d="M134.879 168.779C134.079 168.295 133.224 167.923 132.406 167.458C132.499 167.44 132.554 167.44 132.666 167.421C132.238 167.198 131.848 166.993 131.438 166.789C131.345 166.714 131.253 166.659 131.16 166.566C130.955 166.38 130.75 166.324 130.546 166.324C128.37 165.208 126.38 164.185 124.353 163.144C127.533 154.31 130.657 145.737 133.652 137.108C134.079 135.862 134.191 134.356 133.931 133.054C132.963 128.182 131.699 123.346 130.732 118.474C130.453 117.098 130.527 115.498 130.955 114.178C133.689 105.772 136.571 97.4222 139.398 89.0535C139.621 88.4026 139.919 87.7703 140.179 87.1194C140.421 87.0451 140.681 86.9707 140.923 86.8777C141.76 88.1609 142.894 89.3511 143.396 90.7458C148.064 103.745 152.509 116.819 157.289 129.762C158.404 132.794 158.181 135.323 156.805 137.982C156.47 138.633 156.061 139.265 155.652 139.898C149.775 149.01 143.88 158.123 137.985 167.235C137.538 167.905 137.073 168.574 136.646 169.206C135.902 168.927 135.307 168.704 134.86 168.537C134.86 168.667 134.879 168.723 134.879 168.779Z" fill="#F7C645"/>
<defs>
<filter id="filter0_d" x="58" y="63" width="72.5875" height="44.6493" filterUnits="userSpaceOnUse" color-interpolation-filters="sRGB">
<feFlood flood-opacity="0" result="BackgroundImageFix"/>
<feColorMatrix in="SourceAlpha" type="matrix" values="0 0 0 0 0 0 0 0 0 0 0 0 0 0 0 0 0 0 127 0"/>
<feOffset dy="6"/>
<feGaussianBlur stdDeviation="7.5"/>
<feColorMatrix type="matrix" values="0 0 0 0 0 0 0 0 0 0.138341 0 0 0 0 0.864629 0 0 0 0.2 0"/>
<feBlend mode="normal" in2="BackgroundImageFix" result="effect1_dropShadow"/>
<feBlend mode="normal" in="SourceGraphic" in2="effect1_dropShadow" result="shape"/>
</filter>
</defs>
</svg>
