<svg width="78" height="82" viewBox="0 0 78 82" fill="none" xmlns="http://www.w3.org/2000/svg">
<path d="M28.8669 58.8572L41.4479 62.6716C41.4319 62.7517 41.3998 62.8479 41.3678 62.928C41.0312 63.8415 40.3421 64.3544 39.2202 64.5307C35.0853 65.1878 28.2258 64.7711 28.1617 64.7711C27.1039 64.707 26.1904 65.5083 26.1263 66.5661C26.0622 67.6239 26.8635 68.5374 27.9213 68.6015C28.2258 68.6175 35.2616 69.0502 39.8292 68.313C44.3648 67.5918 45.663 63.6011 45.4226 61.0849C45.3424 60.2996 44.8136 59.6425 44.0603 59.4181L29.9727 55.155C23.0171 53.0555 15.3883 56.934 15.0678 57.0942C15.0357 57.1103 14.9876 57.1263 14.9556 57.1583L0.932084 65.6365C0.0185539 66.1814 -0.269929 67.3674 0.274983 68.281C0.6436 68.874 1.26865 69.2105 1.92575 69.2105C2.26231 69.2105 2.59887 69.1144 2.91941 68.9381L16.8788 60.524C17.4878 60.2034 23.6261 57.2705 28.8669 58.8572Z" fill="#6480EB"/>
<path d="M76.8826 55.6359C75.7767 53.6165 72.3309 50.3951 67.1062 52.703C62.1699 54.8986 51.7365 59.915 51.6243 59.9631C50.6627 60.4279 50.262 61.5658 50.7268 62.5274C51.1916 63.489 52.3455 63.8897 53.2911 63.4249C53.4033 63.3768 63.7726 58.3765 68.6608 56.2128C70.0551 55.5878 71.2251 55.5878 72.2348 56.2128C72.2668 56.2289 72.2829 56.2449 72.3149 56.2609L46.1752 75.413C44.316 76.7753 41.9601 77.3362 39.7003 76.9836L16.3813 73.2654C15.8364 73.1853 15.2754 73.3295 14.8427 73.6821L8.94482 78.6023C8.12745 79.2755 8.01526 80.4935 8.70442 81.3109C9.08906 81.7596 9.63397 82 10.1789 82C10.6116 82 11.0443 81.8558 11.413 81.5513L16.6377 77.192L39.1073 80.782C42.3768 81.3109 45.7905 80.4775 48.467 78.5222L76.3537 58.104C77.1069 57.527 77.3473 56.4853 76.8826 55.6359Z" fill="#6480EB"/>
<path d="M38.6671 50.2002C51.9895 50.2002 62.7893 39.4102 62.7893 26.1001C62.7893 12.79 51.9895 2 38.6671 2C25.3448 2 14.5449 12.79 14.5449 26.1001C14.5449 39.4102 25.3448 50.2002 38.6671 50.2002Z" stroke="#6480EB" stroke-width="4"/>
<path fill-rule="evenodd" clip-rule="evenodd" d="M38.0516 23.3023C38.0516 25.2836 37.4564 26.8146 36.2649 27.8931C35.0744 28.9739 33.3824 29.5138 31.1909 29.5138H29.819V35.3967H24.9355V17.6617H31.1909C33.4737 17.6617 35.1872 18.1506 36.3336 19.1296C37.479 20.1075 38.0516 21.4992 38.0516 23.3023ZM29.819 25.6077H30.7095C31.4423 25.6077 32.0251 25.4052 32.4569 25.0004C32.8909 24.5966 33.1062 24.0379 33.1062 23.3266C33.1062 22.1297 32.4309 21.5312 31.0793 21.5312H29.819V25.6077V25.6077ZM45.1536 34.5714C43.3551 34.4923 41.5867 34.0896 39.9365 33.3833V29.3556C40.8924 29.8324 41.9318 30.2306 43.0523 30.5503C44.1728 30.87 45.157 31.0293 46.0058 31.0293C46.707 31.0293 47.2199 30.9463 47.5457 30.7804C47.8704 30.6145 48.0338 30.3379 48.0338 29.9507C48.0338 29.683 47.9166 29.4562 47.681 29.2704C47.4465 29.0845 47.0553 28.8744 46.5063 28.6398C45.7757 28.3349 45.0358 28.0515 44.2878 27.7903C43.2417 27.4108 42.3962 26.9838 41.7537 26.5104C41.1111 26.038 40.6433 25.5081 40.3502 24.9218C40.0571 24.3355 39.9117 23.6054 39.9117 22.7315C39.9117 21.3974 40.349 20.3542 41.2227 19.602C42.0952 18.8497 43.4063 18.3851 45.1536 18.2081V16.5455H47.7125V18.1827C49.3516 18.2712 51.0042 18.6683 52.6692 19.3719L51.1981 22.8288C49.4756 22.0689 47.9222 21.6894 46.5379 21.6894C45.8784 21.6894 45.4151 21.7669 45.1468 21.925C45.0207 21.9934 44.9164 22.0947 44.8456 22.2177C44.7747 22.3408 44.7401 22.4807 44.7455 22.622C44.7455 22.8897 44.8424 23.1098 45.0363 23.2846C45.2291 23.4583 45.5662 23.6519 46.043 23.8665C46.521 24.0811 47.185 24.3289 48.0338 24.6121C49.7563 25.2105 50.9918 25.892 51.7426 26.6564C52.4923 27.4197 52.8665 28.4053 52.8665 29.61C52.8665 30.9685 52.428 32.0725 51.551 32.922C50.6728 33.7716 49.3933 34.2971 47.7125 34.4995V36.8403H45.1536V34.5725V34.5714Z" fill="#00D7AF"/>
</svg>
