<?xml version="1.0" encoding="iso-8859-1"?>
<!-- Generator: Adobe Illustrator 21.0.0, SVG Export Plug-In . SVG Version: 6.00 Build 0)  -->
<svg version="1.1" id="Layer_1" xmlns="http://www.w3.org/2000/svg" xmlns:xlink="http://www.w3.org/1999/xlink" x="0px" y="0px"
	 viewBox="-49 141 512 512" style="enable-background:new -49 141 512 512;" xml:space="preserve">
<g>
	<path style="fill:#FFFFFF;" d="M450.87,284.95c-82.74,0-128.64,21.18-130.56,22.07c-2.74,1.29-4.78,3.67-5.62,6.55
		c-0.74,2.54-0.51,5.23,0.63,7.58c-15.92-6.03-38.15-14.81-60.36-24.75c-38.02-17-62.54-11.81-89.72,9.63H80.95
		c0.44-3.37,0.81-6.59,1.08-9.63c0.26-3.21-0.91-6.37-3.25-8.55c-18.06-17.12-90.29-22.67-111.99-23.95
		c-2.99-0.15-5.76,0.84-7.86,2.85c-2.11,1.98-3.31,4.76-3.31,7.67v189.67c0,5.81,4.72,10.53,10.54,10.53h63.22
		c4.55,0,8.6-2.92,10.01-7.27c0.22-0.65,1.1-3.37,2.47-7.69c2.4,2.48,5.05,5.25,7.79,8.12c9.4,9.82,19.12,19.97,25.65,25.46
		c39.24,32.85,86.41,68.32,95.8,74.49c7.76,5.11,24.47,12.27,37.41,12.27c10.4,0,18.38-2.38,23.92-7.04
		c7.42,2.89,15.85,2.91,23.97-0.25c9.59-3.71,17.46-11.19,21.94-20.25c8.29,1.77,17.8,0.52,26.44-3.82
		c8.46-4.25,14.56-10.77,17.6-18.38c8.38,0.45,17.03-2.53,24.17-8.65c9.64-8.25,13.71-20.15,11.43-31.98l16.67-11.19
		c1.19,3.79,2.14,7,2.84,9.53c1.26,4.57,5.41,7.73,10.15,7.73h63.23c5.82,0,10.54-4.72,10.54-10.54V295.49
		C461.41,289.65,456.69,284.95,450.87,284.95z M411.69,452.75c-5.39,0-9.76-4.36-9.76-9.75c0-5.38,4.37-9.75,9.76-9.75
		c5.38,0,9.75,4.37,9.75,9.75C421.44,448.39,417.07,452.75,411.69,452.75z M2.25,440.87c-5.39,0-9.76-4.37-9.76-9.75
		c0-5.39,4.37-9.75,9.76-9.75s9.76,4.36,9.76,9.75C12.01,436.5,7.64,440.87,2.25,440.87z M332.86,505.56
		c-4,3.43-9.41,4.63-12.57,2.82l-0.03-0.03c-7.88-6.32-41.26-40.51-61.97-62.09c-4.03-4.22-10.71-4.36-14.9-0.31
		c-4.21,4.02-4.34,10.7-0.31,14.89c4.89,5.1,44.28,46.17,60.07,60.56c-1.21,4.57-5.66,7.3-7.81,8.38
		c-6.52,3.31-13.34,2.85-16.15,0.61c0-0.01-0.01-0.02-0.03-0.02c-0.04-0.04-0.08-0.08-0.12-0.11c-0.22-0.23-0.46-0.43-0.7-0.63
		c-12.63-10.1-44.35-43.79-51.51-51.59c-3.96-4.3-10.6-4.55-14.9-0.63c-4.28,3.94-4.57,10.62-0.63,14.9
		c0.33,0.36,31.26,33.75,48.76,49.43c-1.99,5-6.17,9.32-11.25,11.28c-3.18,1.22-7.8,1.95-11.96-1.75c-0.04-0.05-0.09-0.1-0.14-0.13
		c-0.1-0.09-0.21-0.19-0.32-0.28c-15.02-12.68-45.77-45.4-51.77-51.83c-3.98-4.25-10.67-4.49-14.9-0.5
		c-4.26,3.98-4.48,10.64-0.51,14.9c7.13,7.62,28.4,30.19,44.34,45.21c-1.34,0.18-3,0.29-5.04,0.29c-7.01,0-19.64-4.74-25.81-8.83
		c-7.4-4.87-53.79-39.48-93.85-73.03c-5.63-4.74-15.36-14.89-23.96-23.87c-6.28-6.56-12.12-12.62-15.98-16.24
		c8.79-29.07,21.52-73.6,28.53-109.86h64.63c-14.39,14.48-33.79,43.49-28.75,64.79c2.16,9.1,8.58,15.84,18.1,18.99
		c23.88,7.88,45.67,0.33,61.9-21.2c6.7-1.04,10.34-2.55,15.83-5.02c1.98-0.88,4.29-1.92,7.37-3.16
		c12.06,11.32,28.33,24.49,45.46,38.34c30.98,25.05,66.11,53.46,74.02,69.9C339.89,497.85,335.7,503.14,332.86,505.56z
		 M348.65,470.5c-14.53-19.41-44.4-43.57-73.42-67.04c-19.13-15.47-37.21-30.09-48.74-41.62c-2.89-2.92-7.21-3.84-11.02-2.47
		c-7.11,2.57-11.49,4.55-14.95,6.09c-5.26,2.36-7.03,3.16-14.14,3.88c-3.14,0.31-5.96,2-7.71,4.61
		c-14.9,22.28-30.33,20.38-40.63,16.92c-3.29-1.09-3.87-2.5-4.19-3.85c-2.21-9.25,8.89-30.79,23.28-45.19
		c34.25-34.27,51.91-42.84,89.21-26.17c35.31,15.78,70.66,28.71,81.66,32.65c12.36,30.07,29.08,76.81,39.91,109.26L348.65,470.5z"/>
	<g>
		<path style="fill:#FFFFFF;" d="M346.55,521.61c-7.14,6.12-15.79,9.1-24.17,8.65c-3.04,7.61-9.14,14.13-17.6,18.38
			c-8.64,4.34-18.15,5.59-26.44,3.82c-4.48,9.06-12.35,16.54-21.94,20.25c-8.12,3.16-16.55,3.14-23.97,0.25
			c-5.54,4.66-13.52,7.04-23.92,7.04c-12.94,0-29.65-7.16-37.41-12.27c-9.39-6.17-56.56-41.64-95.8-74.49
			c-6.53-5.49-16.25-15.64-25.65-25.46c-2.74-2.87-5.39-5.64-7.79-8.12c-3.7-3.82-6.8-6.92-8.77-8.6
			c-4.45-3.74-4.99-10.41-1.25-14.85c3.74-4.47,10.37-5.04,14.86-1.25c0.63,0.54,1.38,1.21,2.21,2c3.86,3.62,9.7,9.68,15.98,16.24
			c8.6,8.98,18.33,19.13,23.96,23.87c40.06,33.55,86.45,68.16,93.85,73.03c6.17,4.09,18.8,8.83,25.81,8.83
			c2.04,0,3.7-0.11,5.04-0.29c5.18-0.69,5.81-2.46,6.14-3.3c1.19-3.31,3.96-5.8,7.39-6.64c3.39-0.82,7.02,0.09,9.63,2.44
			c0.05,0.03,0.1,0.08,0.14,0.13c4.16,3.7,8.78,2.97,11.96,1.75c5.08-1.96,9.26-6.28,11.25-11.28c0.62-1.57,1.04-3.21,1.19-4.86
			c0.37-4,2.99-7.46,6.73-8.87c3.76-1.39,7.99-0.59,10.94,2.15c0.04,0.04,0.08,0.07,0.12,0.1c0.04,0.03,0.08,0.07,0.12,0.11
			c0.02,0,0.03,0.01,0.03,0.02c2.81,2.24,9.63,2.7,16.15-0.61c2.15-1.08,6.6-3.81,7.81-8.38c0.29-1.06,0.4-2.22,0.26-3.49
			c-0.44-4.09,1.54-8.07,5.09-10.17c3.51-2.12,7.96-1.97,11.38,0.37c0.11,0.09,0.25,0.17,0.38,0.24l0.03,0.03
			c3.16,1.81,8.57,0.61,12.57-2.82c2.84-2.42,7.03-7.71,3.14-15.82c-7.91-16.44-43.04-44.85-74.02-69.9
			c-17.13-13.85-33.4-27.02-45.46-38.34c-3.08,1.24-5.39,2.28-7.37,3.16c-5.49,2.47-9.13,3.98-15.83,5.02
			c-16.23,21.53-38.02,29.08-61.9,21.2c-9.52-3.15-15.94-9.89-18.1-18.99c-5.04-21.3,14.36-50.31,28.75-64.79l0.19-0.18
			c8.07-8.08,15.62-15.09,22.98-20.89c27.18-21.44,51.7-26.63,89.72-9.63c22.21,9.94,44.44,18.72,60.36,24.75
			c13.82,5.24,22.9,8.41,23.1,8.48c5.5,1.92,8.39,7.93,6.49,13.43c-1.92,5.5-7.88,8.41-13.43,6.49c-0.07-0.03-1.29-0.46-3.48-1.24
			c-11-3.94-46.35-16.87-81.66-32.65c-37.3-16.67-54.96-8.1-89.21,26.17c-14.39,14.4-25.49,35.94-23.28,45.19
			c0.32,1.35,0.9,2.76,4.19,3.85c10.3,3.46,25.73,5.36,40.63-16.92c1.75-2.61,4.57-4.3,7.71-4.61c7.11-0.72,8.88-1.52,14.14-3.88
			c3.46-1.54,7.84-3.52,14.95-6.09c3.81-1.37,8.13-0.45,11.02,2.47c11.53,11.53,29.61,26.15,48.74,41.62
			c29.02,23.47,58.89,47.63,73.42,67.04c2.66,3.55,4.8,6.94,6.33,10.13c1.43,2.95,2.43,5.98,3,9
			C360.26,501.46,356.19,513.36,346.55,521.61z"/>
		<path style="fill:#FFFFFF;" d="M176.9,316.56c0,5.82-4.72,10.54-10.54,10.54H71.52c-5.8,0-10.53-4.72-10.53-10.54
			c0-5.8,4.73-10.53,10.53-10.53h94.84C172.18,306.03,176.9,310.76,176.9,316.56z"/>
		<path style="fill:#FFFFFF;" d="M382.99,472.84l-8.34,5.6l-16.67,11.19l-5.8,3.9c-1.82,1.23-3.85,1.79-5.86,1.79
			c-3.4,0-6.73-1.64-8.77-4.65c-3.24-4.83-1.96-11.38,2.87-14.63l8.23-5.54l19.26-12.93l3.32-2.23c4.83-3.28,11.36-1.96,14.63,2.87
			C389.11,463.04,387.81,469.59,382.99,472.84z"/>
		<path style="fill:#FFFFFF;" d="M322.19,523.29c-2.11,2.63-5.21,4.03-8.3,4.03c-2.28,0-4.59-0.74-6.52-2.27
			c-1.09-0.85-2.51-2.09-4.22-3.65c-15.79-14.39-55.18-55.46-60.07-60.56c-4.03-4.19-3.9-10.87,0.31-14.89
			c4.19-4.05,10.87-3.91,14.9,0.31c20.71,21.58,54.09,55.77,61.97,62.09l0.03,0.03c0.05,0.04,0.1,0.08,0.15,0.12
			C325.01,512.09,325.79,518.73,322.19,523.29z"/>
		<path style="fill:#FFFFFF;" d="M279.98,544.45c-2.09,2.56-5.17,3.94-8.24,3.94c-2.3,0-4.64-0.76-6.58-2.3
			c-1.51-1.21-3.22-2.68-5.1-4.35c-17.5-15.68-48.43-49.07-48.76-49.43c-3.94-4.28-3.65-10.96,0.63-14.9
			c4.3-3.92,10.94-3.67,14.9,0.63c7.16,7.8,38.88,41.49,51.51,51.59c0.24,0.2,0.48,0.4,0.7,0.63c0.04,0.03,0.08,0.07,0.12,0.11
			c0.02,0,0.03,0.01,0.03,0.02C282.94,534.13,283.36,540.2,279.98,544.45z"/>
		<path style="fill:#FFFFFF;" d="M237.66,565.72c-2.09,2.46-5.08,3.74-8.08,3.74c-2.4,0-4.8-0.82-6.78-2.48
			c-2.72-2.29-5.87-5.15-9.25-8.34c-15.94-15.02-37.21-37.59-44.34-45.21c-3.97-4.26-3.75-10.92,0.51-14.9
			c4.23-3.99,10.92-3.75,14.9,0.5c6,6.43,36.75,39.15,51.77,51.83c0.11,0.09,0.22,0.19,0.32,0.28c0.05,0.03,0.1,0.08,0.14,0.13
			C240.89,555.07,241.27,561.4,237.66,565.72z"/>
		<path style="fill:#FFFFFF;" d="M78.78,287.85c-18.06-17.12-90.29-22.67-111.99-23.95c-2.99-0.15-5.76,0.84-7.86,2.85
			c-2.11,1.98-3.31,4.76-3.31,7.67v189.67c0,5.81,4.72,10.53,10.54,10.53h63.22c4.55,0,8.6-2.92,10.01-7.27
			c0.22-0.65,1.1-3.37,2.47-7.69c1.71-5.36,4.17-13.21,7.05-22.7c8.79-29.07,21.52-73.6,28.53-109.86
			c1.44-7.44,2.64-14.54,3.51-21.07c0.44-3.37,0.81-6.59,1.08-9.63C82.29,293.19,81.12,290.03,78.78,287.85z M21.69,453.55h-45
			V285.71c33.87,2.68,70.41,8.5,83.69,14.95C54.79,346.81,29.53,428.81,21.69,453.55z"/>
		<path style="fill:#FFFFFF;" d="M450.87,284.95c-82.74,0-128.64,21.18-130.56,22.07c-2.74,1.29-4.78,3.67-5.62,6.55
			c-0.74,2.54-0.51,5.23,0.63,7.58c0.15,0.33,0.33,0.67,0.53,0.99c2.89,4.66,7.17,14.06,12.15,26.17
			c12.36,30.07,29.08,76.81,39.91,109.26c2.65,7.97,4.96,15.09,6.74,20.87c1.19,3.79,2.14,7,2.84,9.53
			c1.26,4.57,5.41,7.73,10.15,7.73h63.23c5.82,0,10.54-4.72,10.54-10.54V295.49C461.41,289.65,456.69,284.95,450.87,284.95z
			 M440.34,474.62h-44.81c-9.99-32.54-39.5-117.38-55.96-152.45c16.09-5.46,50.62-14.83,100.77-16.02V474.62z"/>
	</g>
</g>
<linearGradient id="SVGID_1_" gradientUnits="userSpaceOnUse" x1="-44.38" y1="421.9426" x2="461.41" y2="421.9426">
	<stop  offset="0" style="stop-color:#00D7AF"/>
	<stop  offset="1" style="stop-color:#46737A"/>
</linearGradient>
<path style="fill:url(#SVGID_1_);" d="M450.87,284.95c-82.74,0-128.64,21.18-130.56,22.07c-2.74,1.29-4.78,3.67-5.62,6.55
	c-0.74,2.54-0.51,5.23,0.63,7.58c-15.92-6.03-38.15-14.81-60.36-24.75c-38.02-17-62.54-11.81-89.72,9.63H80.95
	c0.44-3.37,0.81-6.59,1.08-9.63c0.26-3.21-0.91-6.37-3.25-8.55c-18.06-17.12-90.29-22.67-111.99-23.95
	c-2.99-0.15-5.76,0.84-7.86,2.85c-2.11,1.98-3.31,4.76-3.31,7.67v189.67c0,5.81,4.72,10.53,10.54,10.53h63.22
	c4.55,0,8.6-2.92,10.01-7.27c0.22-0.65,1.1-3.37,2.47-7.69c2.4,2.48,5.05,5.25,7.79,8.12c9.4,9.82,19.12,19.97,25.65,25.46
	c39.24,32.85,86.41,68.32,95.8,74.49c7.76,5.11,24.47,12.27,37.41,12.27c10.4,0,18.38-2.38,23.92-7.04
	c7.42,2.89,15.85,2.91,23.97-0.25c9.59-3.71,17.46-11.19,21.94-20.25c8.29,1.77,17.8,0.52,26.44-3.82
	c8.46-4.25,14.56-10.77,17.6-18.38c8.38,0.45,17.03-2.53,24.17-8.65c9.64-8.25,13.71-20.15,11.43-31.98l16.67-11.19
	c1.19,3.79,2.14,7,2.84,9.53c1.26,4.57,5.41,7.73,10.15,7.73h63.23c5.82,0,10.54-4.72,10.54-10.54V295.49
	C461.41,289.65,456.69,284.95,450.87,284.95z M411.69,452.75c-5.39,0-9.76-4.36-9.76-9.75c0-5.38,4.37-9.75,9.76-9.75
	c5.38,0,9.75,4.37,9.75,9.75C421.44,448.39,417.07,452.75,411.69,452.75z M2.25,440.87c-5.39,0-9.76-4.37-9.76-9.75
	c0-5.39,4.37-9.75,9.76-9.75s9.76,4.36,9.76,9.75C12.01,436.5,7.64,440.87,2.25,440.87z M332.86,505.56
	c-4,3.43-9.41,4.63-12.57,2.82l-0.03-0.03c-7.88-6.32-41.26-40.51-61.97-62.09c-4.03-4.22-10.71-4.36-14.9-0.31
	c-4.21,4.02-4.34,10.7-0.31,14.89c4.89,5.1,44.28,46.17,60.07,60.56c-1.21,4.57-5.66,7.3-7.81,8.38
	c-6.52,3.31-13.34,2.85-16.15,0.61c0-0.01-0.01-0.02-0.03-0.02c-0.04-0.04-0.08-0.08-0.12-0.11c-0.22-0.23-0.46-0.43-0.7-0.63
	c-12.63-10.1-44.35-43.79-51.51-51.59c-3.96-4.3-10.6-4.55-14.9-0.63c-4.28,3.94-4.57,10.62-0.63,14.9
	c0.33,0.36,31.26,33.75,48.76,49.43c-1.99,5-6.17,9.32-11.25,11.28c-3.18,1.22-7.8,1.95-11.96-1.75c-0.04-0.05-0.09-0.1-0.14-0.13
	c-0.1-0.09-0.21-0.19-0.32-0.28c-15.02-12.68-45.77-45.4-51.77-51.83c-3.98-4.25-10.67-4.49-14.9-0.5
	c-4.26,3.98-4.48,10.64-0.51,14.9c7.13,7.62,28.4,30.19,44.34,45.21c-1.34,0.18-3,0.29-5.04,0.29c-7.01,0-19.64-4.74-25.81-8.83
	c-7.4-4.87-53.79-39.48-93.85-73.03c-5.63-4.74-15.36-14.89-23.96-23.87c-6.28-6.56-12.12-12.62-15.98-16.24
	c8.79-29.07,21.52-73.6,28.53-109.86h64.63c-14.39,14.48-33.79,43.49-28.75,64.79c2.16,9.1,8.58,15.84,18.1,18.99
	c23.88,7.88,45.67,0.33,61.9-21.2c6.7-1.04,10.34-2.55,15.83-5.02c1.98-0.88,4.29-1.92,7.37-3.16
	c12.06,11.32,28.33,24.49,45.46,38.34c30.98,25.05,66.11,53.46,74.02,69.9C339.89,497.85,335.7,503.14,332.86,505.56z M348.65,470.5
	c-14.53-19.41-44.4-43.57-73.42-67.04c-19.13-15.47-37.21-30.09-48.74-41.62c-2.89-2.92-7.21-3.84-11.02-2.47
	c-7.11,2.57-11.49,4.55-14.95,6.09c-5.26,2.36-7.03,3.16-14.14,3.88c-3.14,0.31-5.96,2-7.71,4.61
	c-14.9,22.28-30.33,20.38-40.63,16.92c-3.29-1.09-3.87-2.5-4.19-3.85c-2.21-9.25,8.89-30.79,23.28-45.19
	c34.25-34.27,51.91-42.84,89.21-26.17c35.31,15.78,70.66,28.71,81.66,32.65c12.36,30.07,29.08,76.81,39.91,109.26L348.65,470.5z"/>
</svg>
