<svg width="25" height="27" viewBox="0 0 25 27" fill="none" xmlns="http://www.w3.org/2000/svg">
<path d="M22.6512 16.8571C22.6512 16.8571 24.0061 13.0532 23.6527 10.4505C23.4067 8.62867 22.9233 8.15151 22.6321 7.76383C22.6321 7.76383 22.8781 7.33005 22.7622 6.05311C22.5727 3.98725 21.5465 2 21.5465 2C20.492 2.79978 18.0148 3.52907 16.6493 4.0008C15.3234 3.42333 13.0447 3.3176 11.4955 3.3176C9.64088 3.3176 7.89653 3.77849 6.38403 4.5864C4.65101 5.51089 3.16528 7.44319 2.7139 8.28571C1.20419 11.1037 0.999779 15.7143 2.26565 16.6006" stroke="#6480EB" stroke-width="1.5" stroke-miterlimit="10"/>
<path d="M23.8571 17.6988C23.8571 18.5239 23.1893 19.1907 22.3628 19.1907C21.8619 19.1907 21.6532 19.1684 21.6532 19.1684C21.6532 19.1684 21.5697 19.3796 21.4334 19.7713C20.1506 23.3994 16.6833 25.9997 12.6094 25.9997C8.55782 25.9997 5.10726 23.43 3.80774 19.8324C3.702 19.5379 3.57679 19.1545 3.57679 19.1545C3.57679 19.1545 2.98963 19.1907 2.49431 19.1907C1.66785 19.1907 1 18.5239 1 17.6988C1 16.8737 1.66785 16.207 2.49431 16.207C2.88389 16.207 3.25398 16.207 3.25398 16.207C3.25398 16.207 3.25678 15.9903 3.26234 15.882C3.2846 15.3375 3.35416 15.1875 3.46547 14.6707C3.89401 12.7011 5.12952 11.3565 5.12952 11.3565C5.12952 11.3565 9.4928 12.6344 12.4286 12.6539C15.1946 12.6705 19.5968 11.1426 19.5968 11.1426C19.5968 11.1426 20.9464 12.4872 21.6059 14.4235C21.7089 14.7291 21.8146 15.1041 21.8786 15.4375C21.912 15.6125 21.9593 16.207 21.9593 16.207C21.9593 16.207 21.9704 16.207 22.3656 16.207C23.1893 16.207 23.8571 16.8765 23.8571 17.6988Z" stroke="#6480EB" stroke-width="1.5" stroke-miterlimit="10"/>
<path d="M16.9606 17.7056C16.6459 17.7056 16.3892 17.4488 16.3892 17.1342V16.0089C16.3892 15.6943 16.6459 15.4375 16.9606 15.4375C17.2752 15.4375 17.532 15.6943 17.532 16.0089V17.1342C17.5345 17.4488 17.2752 17.7056 16.9606 17.7056Z" fill="#6480EB" stroke="#6480EB" stroke-width="1.5"/>
<path d="M7.73547 17.7056C7.4208 17.7056 7.16406 17.4488 7.16406 17.1342V16.0089C7.16406 15.6943 7.4208 15.4375 7.73547 15.4375C8.05013 15.4375 8.3069 15.6943 8.3069 16.0089V17.1342C8.30942 17.4488 8.05013 17.7056 7.73547 17.7056Z" fill="#6480EB" stroke="#6480EB" stroke-width="1.5"/>
<path d="M14.7798 21.4287C14.7798 22.0599 13.6205 22.5716 12.4612 22.5716C11.3019 22.5716 10.1426 22.0599 10.1426 21.4287" stroke="#6480EB" stroke-width="1.5" stroke-linecap="round" stroke-linejoin="round"/>
</svg>
