<svg width="331" height="347" viewBox="0 0 331 347" fill="none" xmlns="http://www.w3.org/2000/svg">
<path d="M149.876 82.7026C152.708 81.4573 155.769 80.8103 158.866 80.8057C161.995 80.801 165.088 81.4438 167.946 82.7072C179.315 87.6966 184.479 100.953 179.49 112.321C174.501 123.69 161.24 128.855 149.876 123.865V157.223H41.9922V76.3105C41.9922 61.4134 54.0662 49.3394 68.9633 49.3394H149.876V82.7026Z" fill="#5169C8"/>
<path d="M244.982 38C259.879 38 271.953 50.074 271.953 64.9711V145.879H238.585C241.116 151.637 241.116 158.196 238.585 163.954C233.596 175.323 220.335 180.488 208.971 175.498C197.603 170.508 192.438 157.248 197.428 145.884H164.064L164.069 38H244.982Z" fill="#5169C8"/>
<path d="M280.706 214.021L240.205 284.305C232.766 297.248 216.252 301.729 203.29 294.323L133.074 254.046L147.533 228.97C144.451 228.646 141.465 227.683 138.777 226.141C128.247 219.905 124.624 206.408 130.603 195.735C136.69 184.875 150.424 181.002 161.285 187.089C163.969 188.633 166.301 190.719 168.131 193.212L187.088 160.324L280.706 214.021Z" fill="#5169C8"/>
<g filter="url(#filter0_d)">
<circle cx="272" cy="219" r="44" fill="#6480EB"/>
</g>
<path d="M261.135 216H259.318V208.945H256.992V207.434H263.461V208.945H261.135V216ZM264.562 207.756C264.562 207.174 264.887 206.883 265.535 206.883C266.184 206.883 266.508 207.174 266.508 207.756C266.508 208.033 266.426 208.25 266.262 208.406C266.102 208.559 265.859 208.635 265.535 208.635C264.887 208.635 264.562 208.342 264.562 207.756ZM266.426 216H264.639V209.449H266.426V216ZM274.172 216H272.385V212.174C272.385 211.701 272.305 211.348 272.145 211.113C271.988 210.875 271.74 210.756 271.4 210.756C270.943 210.756 270.611 210.924 270.404 211.26C270.197 211.596 270.094 212.148 270.094 212.918V216H268.307V209.449H269.672L269.912 210.287H270.012C270.188 209.986 270.441 209.752 270.773 209.584C271.105 209.412 271.486 209.326 271.916 209.326C272.896 209.326 273.561 209.646 273.908 210.287H274.066C274.242 209.982 274.5 209.746 274.84 209.578C275.184 209.41 275.57 209.326 276 209.326C276.742 209.326 277.303 209.518 277.682 209.9C278.064 210.279 278.256 210.889 278.256 211.729V216H276.463V212.174C276.463 211.701 276.383 211.348 276.223 211.113C276.066 210.875 275.818 210.756 275.479 210.756C275.041 210.756 274.713 210.912 274.494 211.225C274.279 211.537 274.172 212.033 274.172 212.713V216ZM282.809 210.598C282.43 210.598 282.133 210.719 281.918 210.961C281.703 211.199 281.58 211.539 281.549 211.98H284.057C284.049 211.539 283.934 211.199 283.711 210.961C283.488 210.719 283.188 210.598 282.809 210.598ZM283.061 216.117C282.006 216.117 281.182 215.826 280.588 215.244C279.994 214.662 279.697 213.838 279.697 212.771C279.697 211.674 279.971 210.826 280.518 210.229C281.068 209.627 281.828 209.326 282.797 209.326C283.723 209.326 284.443 209.59 284.959 210.117C285.475 210.645 285.732 211.373 285.732 212.303V213.17H281.508C281.527 213.678 281.678 214.074 281.959 214.359C282.24 214.645 282.635 214.787 283.143 214.787C283.537 214.787 283.91 214.746 284.262 214.664C284.613 214.582 284.98 214.451 285.363 214.271V215.654C285.051 215.811 284.717 215.926 284.361 216C284.006 216.078 283.572 216.117 283.061 216.117ZM242.742 224.822C242.059 224.822 241.529 225.08 241.154 225.596C240.779 226.107 240.592 226.822 240.592 227.74C240.592 229.65 241.309 230.605 242.742 230.605C243.344 230.605 244.072 230.455 244.928 230.154V231.678C244.225 231.971 243.439 232.117 242.572 232.117C241.326 232.117 240.373 231.74 239.713 230.986C239.053 230.229 238.723 229.143 238.723 227.729C238.723 226.838 238.885 226.059 239.209 225.391C239.533 224.719 239.998 224.205 240.604 223.85C241.213 223.49 241.926 223.311 242.742 223.311C243.574 223.311 244.41 223.512 245.25 223.914L244.664 225.391C244.344 225.238 244.021 225.105 243.697 224.992C243.373 224.879 243.055 224.822 242.742 224.822ZM248.039 228.713C248.039 229.361 248.145 229.852 248.355 230.184C248.57 230.516 248.918 230.682 249.398 230.682C249.875 230.682 250.217 230.518 250.424 230.189C250.635 229.857 250.74 229.365 250.74 228.713C250.74 228.064 250.635 227.578 250.424 227.254C250.213 226.93 249.867 226.768 249.387 226.768C248.91 226.768 248.566 226.93 248.355 227.254C248.145 227.574 248.039 228.061 248.039 228.713ZM252.568 228.713C252.568 229.779 252.287 230.613 251.725 231.215C251.162 231.816 250.379 232.117 249.375 232.117C248.746 232.117 248.191 231.98 247.711 231.707C247.23 231.43 246.861 231.033 246.604 230.518C246.346 230.002 246.217 229.4 246.217 228.713C246.217 227.643 246.496 226.811 247.055 226.217C247.613 225.623 248.398 225.326 249.41 225.326C250.039 225.326 250.594 225.463 251.074 225.736C251.555 226.01 251.924 226.402 252.182 226.914C252.439 227.426 252.568 228.025 252.568 228.713ZM260.092 232H258.305V228.174C258.305 227.701 258.221 227.348 258.053 227.113C257.885 226.875 257.617 226.756 257.25 226.756C256.75 226.756 256.389 226.924 256.166 227.26C255.943 227.592 255.832 228.145 255.832 228.918V232H254.045V225.449H255.41L255.65 226.287H255.75C255.949 225.971 256.223 225.732 256.57 225.572C256.922 225.408 257.32 225.326 257.766 225.326C258.527 225.326 259.105 225.533 259.5 225.947C259.895 226.357 260.092 226.951 260.092 227.729V232ZM266.502 230.055C266.502 230.727 266.268 231.238 265.799 231.59C265.334 231.941 264.637 232.117 263.707 232.117C263.23 232.117 262.824 232.084 262.488 232.018C262.152 231.955 261.838 231.861 261.545 231.736V230.26C261.877 230.416 262.25 230.547 262.664 230.652C263.082 230.758 263.449 230.811 263.766 230.811C264.414 230.811 264.738 230.623 264.738 230.248C264.738 230.107 264.695 229.994 264.609 229.908C264.523 229.818 264.375 229.719 264.164 229.609C263.953 229.496 263.672 229.365 263.32 229.217C262.816 229.006 262.445 228.811 262.207 228.631C261.973 228.451 261.801 228.246 261.691 228.016C261.586 227.781 261.533 227.494 261.533 227.154C261.533 226.572 261.758 226.123 262.207 225.807C262.66 225.486 263.301 225.326 264.129 225.326C264.918 225.326 265.686 225.498 266.432 225.842L265.893 227.131C265.564 226.99 265.258 226.875 264.973 226.785C264.688 226.695 264.396 226.65 264.1 226.65C263.572 226.65 263.309 226.793 263.309 227.078C263.309 227.238 263.393 227.377 263.561 227.494C263.732 227.611 264.105 227.785 264.68 228.016C265.191 228.223 265.566 228.416 265.805 228.596C266.043 228.775 266.219 228.982 266.332 229.217C266.445 229.451 266.502 229.73 266.502 230.055ZM272.537 232L272.297 231.162H272.203C272.012 231.467 271.74 231.703 271.389 231.871C271.037 232.035 270.637 232.117 270.188 232.117C269.418 232.117 268.838 231.912 268.447 231.502C268.057 231.088 267.861 230.494 267.861 229.721V225.449H269.648V229.275C269.648 229.748 269.732 230.104 269.9 230.342C270.068 230.576 270.336 230.693 270.703 230.693C271.203 230.693 271.564 230.527 271.787 230.195C272.01 229.859 272.121 229.305 272.121 228.531V225.449H273.908V232H272.537ZM281.648 232H279.861V228.174C279.861 227.701 279.781 227.348 279.621 227.113C279.465 226.875 279.217 226.756 278.877 226.756C278.42 226.756 278.088 226.924 277.881 227.26C277.674 227.596 277.57 228.148 277.57 228.918V232H275.783V225.449H277.148L277.389 226.287H277.488C277.664 225.986 277.918 225.752 278.25 225.584C278.582 225.412 278.963 225.326 279.393 225.326C280.373 225.326 281.037 225.646 281.385 226.287H281.543C281.719 225.982 281.977 225.746 282.316 225.578C282.66 225.41 283.047 225.326 283.477 225.326C284.219 225.326 284.779 225.518 285.158 225.9C285.541 226.279 285.732 226.889 285.732 227.729V232H283.939V228.174C283.939 227.701 283.859 227.348 283.699 227.113C283.543 226.875 283.295 226.756 282.955 226.756C282.518 226.756 282.189 226.912 281.971 227.225C281.756 227.537 281.648 228.033 281.648 228.713V232ZM287.496 223.756C287.496 223.174 287.82 222.883 288.469 222.883C289.117 222.883 289.441 223.174 289.441 223.756C289.441 224.033 289.359 224.25 289.195 224.406C289.035 224.559 288.793 224.635 288.469 224.635C287.82 224.635 287.496 224.342 287.496 223.756ZM289.359 232H287.572V225.449H289.359V232ZM297.287 232H295.5V228.174C295.5 227.701 295.416 227.348 295.248 227.113C295.08 226.875 294.812 226.756 294.445 226.756C293.945 226.756 293.584 226.924 293.361 227.26C293.139 227.592 293.027 228.145 293.027 228.918V232H291.24V225.449H292.605L292.846 226.287H292.945C293.145 225.971 293.418 225.732 293.766 225.572C294.117 225.408 294.516 225.326 294.961 225.326C295.723 225.326 296.301 225.533 296.695 225.947C297.09 226.357 297.287 226.951 297.287 227.729V232ZM304.828 225.449V226.357L303.803 226.621C303.99 226.914 304.084 227.242 304.084 227.605C304.084 228.309 303.838 228.857 303.346 229.252C302.857 229.643 302.178 229.838 301.307 229.838L300.984 229.82L300.721 229.791C300.537 229.932 300.445 230.088 300.445 230.26C300.445 230.518 300.773 230.646 301.43 230.646H302.543C303.262 230.646 303.809 230.801 304.184 231.109C304.562 231.418 304.752 231.871 304.752 232.469C304.752 233.234 304.432 233.828 303.791 234.25C303.154 234.672 302.238 234.883 301.043 234.883C300.129 234.883 299.43 234.723 298.945 234.402C298.465 234.086 298.225 233.641 298.225 233.066C298.225 232.672 298.348 232.342 298.594 232.076C298.84 231.811 299.201 231.621 299.678 231.508C299.494 231.43 299.334 231.303 299.197 231.127C299.061 230.947 298.992 230.758 298.992 230.559C298.992 230.309 299.064 230.102 299.209 229.938C299.354 229.77 299.562 229.605 299.836 229.445C299.492 229.297 299.219 229.059 299.016 228.73C298.816 228.402 298.717 228.016 298.717 227.57C298.717 226.855 298.949 226.303 299.414 225.912C299.879 225.521 300.543 225.326 301.406 225.326C301.59 225.326 301.807 225.344 302.057 225.379C302.311 225.41 302.473 225.434 302.543 225.449H304.828ZM299.771 232.926C299.771 233.172 299.889 233.365 300.123 233.506C300.361 233.646 300.693 233.717 301.119 233.717C301.76 233.717 302.262 233.629 302.625 233.453C302.988 233.277 303.17 233.037 303.17 232.732C303.17 232.486 303.062 232.316 302.848 232.223C302.633 232.129 302.301 232.082 301.852 232.082H300.926C300.598 232.082 300.322 232.158 300.1 232.311C299.881 232.467 299.771 232.672 299.771 232.926ZM300.422 227.594C300.422 227.949 300.502 228.23 300.662 228.438C300.826 228.645 301.074 228.748 301.406 228.748C301.742 228.748 301.988 228.645 302.145 228.438C302.301 228.23 302.379 227.949 302.379 227.594C302.379 226.805 302.055 226.41 301.406 226.41C300.75 226.41 300.422 226.805 300.422 227.594Z" fill="white"/>
<g filter="url(#filter1_d)">
<circle cx="266" cy="53" r="44" fill="#6480EB"/>
</g>
<path d="M241.135 50H238.826L235.1 43.5195H235.047C235.121 44.6641 235.158 45.4805 235.158 45.9688V50H233.535V41.4336H235.826L239.547 47.8496H239.588C239.529 46.7363 239.5 45.9492 239.5 45.4883V41.4336H241.135V50ZM244.58 46.7129C244.58 47.3613 244.686 47.8516 244.896 48.1836C245.111 48.5156 245.459 48.6816 245.939 48.6816C246.416 48.6816 246.758 48.5176 246.965 48.1895C247.176 47.8574 247.281 47.3652 247.281 46.7129C247.281 46.0645 247.176 45.5781 246.965 45.2539C246.754 44.9297 246.408 44.7676 245.928 44.7676C245.451 44.7676 245.107 44.9297 244.896 45.2539C244.686 45.5742 244.58 46.0605 244.58 46.7129ZM249.109 46.7129C249.109 47.7793 248.828 48.6133 248.266 49.2148C247.703 49.8164 246.92 50.1172 245.916 50.1172C245.287 50.1172 244.732 49.9805 244.252 49.707C243.771 49.4297 243.402 49.0332 243.145 48.5176C242.887 48.002 242.758 47.4004 242.758 46.7129C242.758 45.6426 243.037 44.8105 243.596 44.2168C244.154 43.623 244.939 43.3262 245.951 43.3262C246.58 43.3262 247.135 43.4629 247.615 43.7363C248.096 44.0098 248.465 44.4023 248.723 44.9141C248.98 45.4258 249.109 46.0254 249.109 46.7129ZM259.088 50L258.467 47.9609H255.344L254.723 50H252.766L255.789 41.3984H258.01L261.045 50H259.088ZM258.033 46.4375C257.459 44.5898 257.135 43.5449 257.061 43.3027C256.99 43.0605 256.939 42.8691 256.908 42.7285C256.779 43.2285 256.41 44.4648 255.801 46.4375H258.033ZM264.062 50.1172C263.293 50.1172 262.688 49.8184 262.246 49.2207C261.809 48.623 261.59 47.7949 261.59 46.7363C261.59 45.6621 261.812 44.8262 262.258 44.2285C262.707 43.627 263.324 43.3262 264.109 43.3262C264.934 43.3262 265.562 43.6465 265.996 44.2871H266.055C265.965 43.7988 265.92 43.3633 265.92 42.9805V40.8828H267.713V50H266.342L265.996 49.1504H265.92C265.514 49.7949 264.895 50.1172 264.062 50.1172ZM264.689 48.6934C265.146 48.6934 265.48 48.5605 265.691 48.2949C265.906 48.0293 266.023 47.5781 266.043 46.9414V46.748C266.043 46.0449 265.934 45.541 265.715 45.2363C265.5 44.9316 265.148 44.7793 264.66 44.7793C264.262 44.7793 263.951 44.9492 263.729 45.2891C263.51 45.625 263.4 46.1152 263.4 46.7598C263.4 47.4043 263.512 47.8887 263.734 48.2129C263.957 48.5332 264.275 48.6934 264.689 48.6934ZM271.656 50.1172C270.887 50.1172 270.281 49.8184 269.84 49.2207C269.402 48.623 269.184 47.7949 269.184 46.7363C269.184 45.6621 269.406 44.8262 269.852 44.2285C270.301 43.627 270.918 43.3262 271.703 43.3262C272.527 43.3262 273.156 43.6465 273.59 44.2871H273.648C273.559 43.7988 273.514 43.3633 273.514 42.9805V40.8828H275.307V50H273.936L273.59 49.1504H273.514C273.107 49.7949 272.488 50.1172 271.656 50.1172ZM272.283 48.6934C272.74 48.6934 273.074 48.5605 273.285 48.2949C273.5 48.0293 273.617 47.5781 273.637 46.9414V46.748C273.637 46.0449 273.527 45.541 273.309 45.2363C273.094 44.9316 272.742 44.7793 272.254 44.7793C271.855 44.7793 271.545 44.9492 271.322 45.2891C271.104 45.625 270.994 46.1152 270.994 46.7598C270.994 47.4043 271.105 47.8887 271.328 48.2129C271.551 48.5332 271.869 48.6934 272.283 48.6934ZM276.596 47.5156V46.0508H279.742V47.5156H276.596ZM288.959 45.7051C288.959 47.123 288.607 48.2129 287.904 48.9746C287.201 49.7363 286.193 50.1172 284.881 50.1172C283.568 50.1172 282.561 49.7363 281.857 48.9746C281.154 48.2129 280.803 47.1191 280.803 45.6934C280.803 44.2676 281.154 43.1797 281.857 42.4297C282.564 41.6758 283.576 41.2988 284.893 41.2988C286.209 41.2988 287.215 41.6777 287.91 42.4355C288.609 43.1934 288.959 44.2832 288.959 45.7051ZM282.707 45.7051C282.707 46.6621 282.889 47.3828 283.252 47.8672C283.615 48.3516 284.158 48.5938 284.881 48.5938C286.33 48.5938 287.055 47.6309 287.055 45.7051C287.055 43.7754 286.334 42.8105 284.893 42.8105C284.17 42.8105 283.625 43.0547 283.258 43.543C282.891 44.0273 282.707 44.748 282.707 45.7051ZM296.641 50H294.854V46.1738C294.854 45.7012 294.77 45.3477 294.602 45.1133C294.434 44.875 294.166 44.7559 293.799 44.7559C293.299 44.7559 292.938 44.9238 292.715 45.2598C292.492 45.5918 292.381 46.1445 292.381 46.918V50H290.594V43.4492H291.959L292.199 44.2871H292.299C292.498 43.9707 292.771 43.7324 293.119 43.5723C293.471 43.4082 293.869 43.3262 294.314 43.3262C295.076 43.3262 295.654 43.5332 296.049 43.9473C296.443 44.3574 296.641 44.9512 296.641 45.7285V50ZM244.58 66H242.793V57.4336H247.703V58.9219H244.58V61.1309H247.486V62.6133H244.58V66ZM251.951 60.5977C251.572 60.5977 251.275 60.7188 251.061 60.9609C250.846 61.1992 250.723 61.5391 250.691 61.9805H253.199C253.191 61.5391 253.076 61.1992 252.854 60.9609C252.631 60.7188 252.33 60.5977 251.951 60.5977ZM252.203 66.1172C251.148 66.1172 250.324 65.8262 249.73 65.2441C249.137 64.6621 248.84 63.8379 248.84 62.7715C248.84 61.6738 249.113 60.8262 249.66 60.2285C250.211 59.627 250.971 59.3262 251.939 59.3262C252.865 59.3262 253.586 59.5898 254.102 60.1172C254.617 60.6445 254.875 61.373 254.875 62.3027V63.1699H250.65C250.67 63.6777 250.82 64.0742 251.102 64.3594C251.383 64.6445 251.777 64.7871 252.285 64.7871C252.68 64.7871 253.053 64.7461 253.404 64.6641C253.756 64.582 254.123 64.4512 254.506 64.2715V65.6543C254.193 65.8105 253.859 65.9258 253.504 66C253.148 66.0781 252.715 66.1172 252.203 66.1172ZM260.488 66L260.143 65.1094H260.096C259.795 65.4883 259.484 65.752 259.164 65.9004C258.848 66.0449 258.434 66.1172 257.922 66.1172C257.293 66.1172 256.797 65.9375 256.434 65.5781C256.074 65.2188 255.895 64.707 255.895 64.043C255.895 63.3477 256.137 62.8359 256.621 62.5078C257.109 62.1758 257.844 61.9922 258.824 61.957L259.961 61.9219V61.6348C259.961 60.9707 259.621 60.6387 258.941 60.6387C258.418 60.6387 257.803 60.7969 257.096 61.1133L256.504 59.9062C257.258 59.5117 258.094 59.3145 259.012 59.3145C259.891 59.3145 260.564 59.5059 261.033 59.8887C261.502 60.2715 261.736 60.8535 261.736 61.6348V66H260.488ZM259.961 62.9648L259.27 62.9883C258.75 63.0039 258.363 63.0977 258.109 63.2695C257.855 63.4414 257.729 63.7031 257.729 64.0547C257.729 64.5586 258.018 64.8105 258.596 64.8105C259.01 64.8105 259.34 64.6914 259.586 64.4531C259.836 64.2148 259.961 63.8984 259.961 63.5039V62.9648ZM266.342 64.6934C266.654 64.6934 267.029 64.625 267.467 64.4883V65.8184C267.021 66.0176 266.475 66.1172 265.826 66.1172C265.111 66.1172 264.59 65.9375 264.262 65.5781C263.938 65.2148 263.775 64.6719 263.775 63.9492V60.791H262.92V60.0352L263.904 59.4375L264.42 58.0547H265.562V59.4492H267.396V60.791H265.562V63.9492C265.562 64.2031 265.633 64.3906 265.773 64.5117C265.918 64.6328 266.107 64.6934 266.342 64.6934ZM273.438 66L273.197 65.1621H273.104C272.912 65.4668 272.641 65.7031 272.289 65.8711C271.938 66.0352 271.537 66.1172 271.088 66.1172C270.318 66.1172 269.738 65.9121 269.348 65.502C268.957 65.0879 268.762 64.4941 268.762 63.7207V59.4492H270.549V63.2754C270.549 63.748 270.633 64.1035 270.801 64.3418C270.969 64.5762 271.236 64.6934 271.604 64.6934C272.104 64.6934 272.465 64.5273 272.688 64.1953C272.91 63.8594 273.021 63.3047 273.021 62.5312V59.4492H274.809V66H273.438ZM280.34 59.3262C280.582 59.3262 280.783 59.3438 280.943 59.3789L280.809 61.0547C280.664 61.0156 280.488 60.9961 280.281 60.9961C279.711 60.9961 279.266 61.1426 278.945 61.4355C278.629 61.7285 278.471 62.1387 278.471 62.666V66H276.684V59.4492H278.037L278.301 60.5508H278.389C278.592 60.1836 278.865 59.8887 279.209 59.666C279.557 59.4395 279.934 59.3262 280.34 59.3262ZM284.846 60.5977C284.467 60.5977 284.17 60.7188 283.955 60.9609C283.74 61.1992 283.617 61.5391 283.586 61.9805H286.094C286.086 61.5391 285.971 61.1992 285.748 60.9609C285.525 60.7188 285.225 60.5977 284.846 60.5977ZM285.098 66.1172C284.043 66.1172 283.219 65.8262 282.625 65.2441C282.031 64.6621 281.734 63.8379 281.734 62.7715C281.734 61.6738 282.008 60.8262 282.555 60.2285C283.105 59.627 283.865 59.3262 284.834 59.3262C285.76 59.3262 286.48 59.5898 286.996 60.1172C287.512 60.6445 287.77 61.373 287.77 62.3027V63.1699H283.545C283.564 63.6777 283.715 64.0742 283.996 64.3594C284.277 64.6445 284.672 64.7871 285.18 64.7871C285.574 64.7871 285.947 64.7461 286.299 64.6641C286.65 64.582 287.018 64.4512 287.4 64.2715V65.6543C287.088 65.8105 286.754 65.9258 286.398 66C286.043 66.0781 285.609 66.1172 285.098 66.1172Z" fill="white"/>
<g filter="url(#filter2_d)">
<circle cx="59" cy="69" r="44" fill="#6480EB"/>
</g>
<path d="M36.9551 58.8223C36.2715 58.8223 35.7422 59.0801 35.3672 59.5957C34.9922 60.1074 34.8047 60.8223 34.8047 61.7402C34.8047 63.6504 35.5215 64.6055 36.9551 64.6055C37.5566 64.6055 38.2852 64.4551 39.1406 64.1543V65.6777C38.4375 65.9707 37.6523 66.1172 36.7852 66.1172C35.5391 66.1172 34.5859 65.7402 33.9258 64.9863C33.2656 64.2285 32.9355 63.1426 32.9355 61.7285C32.9355 60.8379 33.0977 60.0586 33.4219 59.3906C33.7461 58.7188 34.2109 58.2051 34.8164 57.8496C35.4258 57.4902 36.1387 57.3105 36.9551 57.3105C37.7871 57.3105 38.623 57.5117 39.4629 57.9141L38.877 59.3906C38.5566 59.2383 38.2344 59.1055 37.9102 58.9922C37.5859 58.8789 37.2676 58.8223 36.9551 58.8223ZM42.252 62.7129C42.252 63.3613 42.3574 63.8516 42.5684 64.1836C42.7832 64.5156 43.1309 64.6816 43.6113 64.6816C44.0879 64.6816 44.4297 64.5176 44.6367 64.1895C44.8477 63.8574 44.9531 63.3652 44.9531 62.7129C44.9531 62.0645 44.8477 61.5781 44.6367 61.2539C44.4258 60.9297 44.0801 60.7676 43.5996 60.7676C43.123 60.7676 42.7793 60.9297 42.5684 61.2539C42.3574 61.5742 42.252 62.0605 42.252 62.7129ZM46.7812 62.7129C46.7812 63.7793 46.5 64.6133 45.9375 65.2148C45.375 65.8164 44.5918 66.1172 43.5879 66.1172C42.959 66.1172 42.4043 65.9805 41.9238 65.707C41.4434 65.4297 41.0742 65.0332 40.8164 64.5176C40.5586 64.002 40.4297 63.4004 40.4297 62.7129C40.4297 61.6426 40.709 60.8105 41.2676 60.2168C41.8262 59.623 42.6113 59.3262 43.623 59.3262C44.252 59.3262 44.8066 59.4629 45.2871 59.7363C45.7676 60.0098 46.1367 60.4023 46.3945 60.9141C46.6523 61.4258 46.7812 62.0254 46.7812 62.7129ZM52.8281 64.0547C52.8281 64.7266 52.5938 65.2383 52.125 65.5898C51.6602 65.9414 50.9629 66.1172 50.0332 66.1172C49.5566 66.1172 49.1504 66.084 48.8145 66.0176C48.4785 65.9551 48.1641 65.8613 47.8711 65.7363V64.2598C48.2031 64.416 48.5762 64.5469 48.9902 64.6523C49.4082 64.7578 49.7754 64.8105 50.0918 64.8105C50.7402 64.8105 51.0645 64.623 51.0645 64.248C51.0645 64.1074 51.0215 63.9941 50.9355 63.9082C50.8496 63.8184 50.7012 63.7188 50.4902 63.6094C50.2793 63.4961 49.998 63.3652 49.6465 63.2168C49.1426 63.0059 48.7715 62.8105 48.5332 62.6309C48.2988 62.4512 48.127 62.2461 48.0176 62.0156C47.9121 61.7812 47.8594 61.4941 47.8594 61.1543C47.8594 60.5723 48.084 60.123 48.5332 59.8066C48.9863 59.4863 49.627 59.3262 50.4551 59.3262C51.2441 59.3262 52.0117 59.498 52.7578 59.8418L52.2188 61.1309C51.8906 60.9902 51.584 60.875 51.2988 60.7852C51.0137 60.6953 50.7227 60.6504 50.4258 60.6504C49.8984 60.6504 49.6348 60.793 49.6348 61.0781C49.6348 61.2383 49.7188 61.377 49.8867 61.4941C50.0586 61.6113 50.4316 61.7852 51.0059 62.0156C51.5176 62.2227 51.8926 62.416 52.1309 62.5957C52.3691 62.7754 52.5449 62.9824 52.6582 63.2168C52.7715 63.4512 52.8281 63.7305 52.8281 64.0547ZM56.9824 64.6934C57.2949 64.6934 57.6699 64.625 58.1074 64.4883V65.8184C57.6621 66.0176 57.1152 66.1172 56.4668 66.1172C55.752 66.1172 55.2305 65.9375 54.9023 65.5781C54.5781 65.2148 54.416 64.6719 54.416 63.9492V60.791H53.5605V60.0352L54.5449 59.4375L55.0605 58.0547H56.2031V59.4492H58.0371V60.791H56.2031V63.9492C56.2031 64.2031 56.2734 64.3906 56.4141 64.5117C56.5586 64.6328 56.748 64.6934 56.9824 64.6934ZM61.2246 66H59.4375V56.8828H61.2246V66ZM62.168 59.4492H64.125L65.3613 63.1348C65.4668 63.4551 65.5391 63.834 65.5781 64.2715H65.6133C65.6562 63.8691 65.7402 63.4902 65.8652 63.1348L67.0781 59.4492H68.9941L66.2227 66.8379C65.9688 67.5215 65.6055 68.0332 65.1328 68.373C64.6641 68.7129 64.1152 68.8828 63.4863 68.8828C63.1777 68.8828 62.875 68.8496 62.5781 68.7832V67.3652C62.793 67.416 63.0273 67.4414 63.2812 67.4414C63.5977 67.4414 63.873 67.3438 64.1074 67.1484C64.3457 66.957 64.5312 66.666 64.6641 66.2754L64.7695 65.9531L62.168 59.4492ZM75.8145 64.6934C76.127 64.6934 76.502 64.625 76.9395 64.4883V65.8184C76.4941 66.0176 75.9473 66.1172 75.2988 66.1172C74.584 66.1172 74.0625 65.9375 73.7344 65.5781C73.4102 65.2148 73.248 64.6719 73.248 63.9492V60.791H72.3926V60.0352L73.377 59.4375L73.8926 58.0547H75.0352V59.4492H76.8691V60.791H75.0352V63.9492C75.0352 64.2031 75.1055 64.3906 75.2461 64.5117C75.3906 64.6328 75.5801 64.6934 75.8145 64.6934ZM79.6934 62.7129C79.6934 63.3613 79.7988 63.8516 80.0098 64.1836C80.2246 64.5156 80.5723 64.6816 81.0527 64.6816C81.5293 64.6816 81.8711 64.5176 82.0781 64.1895C82.2891 63.8574 82.3945 63.3652 82.3945 62.7129C82.3945 62.0645 82.2891 61.5781 82.0781 61.2539C81.8672 60.9297 81.5215 60.7676 81.041 60.7676C80.5645 60.7676 80.2207 60.9297 80.0098 61.2539C79.7988 61.5742 79.6934 62.0605 79.6934 62.7129ZM84.2227 62.7129C84.2227 63.7793 83.9414 64.6133 83.3789 65.2148C82.8164 65.8164 82.0332 66.1172 81.0293 66.1172C80.4004 66.1172 79.8457 65.9805 79.3652 65.707C78.8848 65.4297 78.5156 65.0332 78.2578 64.5176C78 64.002 77.8711 63.4004 77.8711 62.7129C77.8711 61.6426 78.1504 60.8105 78.709 60.2168C79.2676 59.623 80.0527 59.3262 81.0645 59.3262C81.6934 59.3262 82.248 59.4629 82.7285 59.7363C83.209 60.0098 83.5781 60.4023 83.8359 60.9141C84.0938 61.4258 84.2227 62.0254 84.2227 62.7129ZM25.0195 82L24.7793 81.1621H24.6855C24.4941 81.4668 24.2227 81.7031 23.8711 81.8711C23.5195 82.0352 23.1191 82.1172 22.6699 82.1172C21.9004 82.1172 21.3203 81.9121 20.9297 81.502C20.5391 81.0879 20.3438 80.4941 20.3438 79.7207V75.4492H22.1309V79.2754C22.1309 79.748 22.2148 80.1035 22.3828 80.3418C22.5508 80.5762 22.8184 80.6934 23.1855 80.6934C23.6855 80.6934 24.0469 80.5273 24.2695 80.1953C24.4922 79.8594 24.6035 79.3047 24.6035 78.5312V75.4492H26.3906V82H25.0195ZM31.8633 82.1172C31.0938 82.1172 30.4902 81.8379 30.0527 81.2793H29.959C30.0215 81.8262 30.0527 82.1426 30.0527 82.2285V84.8828H28.2656V75.4492H29.7188L29.9707 76.2988H30.0527C30.4707 75.6504 31.0898 75.3262 31.9102 75.3262C32.6836 75.3262 33.2891 75.625 33.7266 76.2227C34.1641 76.8203 34.3828 77.6504 34.3828 78.7129C34.3828 79.4121 34.2793 80.0195 34.0723 80.5352C33.8691 81.0508 33.5781 81.4434 33.1992 81.7129C32.8203 81.9824 32.375 82.1172 31.8633 82.1172ZM31.3359 76.7559C30.8945 76.7559 30.5723 76.8926 30.3691 77.166C30.166 77.4355 30.0605 77.8828 30.0527 78.5078V78.7012C30.0527 79.4043 30.1562 79.9082 30.3633 80.2129C30.5742 80.5176 30.9062 80.6699 31.3594 80.6699C32.1602 80.6699 32.5605 80.0098 32.5605 78.6895C32.5605 78.0449 32.4609 77.5625 32.2617 77.2422C32.0664 76.918 31.7578 76.7559 31.3359 76.7559ZM37.9336 82.1172C37.1641 82.1172 36.5586 81.8184 36.1172 81.2207C35.6797 80.623 35.4609 79.7949 35.4609 78.7363C35.4609 77.6621 35.6836 76.8262 36.1289 76.2285C36.5781 75.627 37.1953 75.3262 37.9805 75.3262C38.8047 75.3262 39.4336 75.6465 39.8672 76.2871H39.9258C39.8359 75.7988 39.791 75.3633 39.791 74.9805V72.8828H41.584V82H40.2129L39.8672 81.1504H39.791C39.3848 81.7949 38.7656 82.1172 37.9336 82.1172ZM38.5605 80.6934C39.0176 80.6934 39.3516 80.5605 39.5625 80.2949C39.7773 80.0293 39.8945 79.5781 39.9141 78.9414V78.748C39.9141 78.0449 39.8047 77.541 39.5859 77.2363C39.3711 76.9316 39.0195 76.7793 38.5312 76.7793C38.1328 76.7793 37.8223 76.9492 37.5996 77.2891C37.3809 77.625 37.2715 78.1152 37.2715 78.7598C37.2715 79.4043 37.3828 79.8887 37.6055 80.2129C37.8281 80.5332 38.1465 80.6934 38.5605 80.6934ZM47.6133 82L47.2676 81.1094H47.2207C46.9199 81.4883 46.6094 81.752 46.2891 81.9004C45.9727 82.0449 45.5586 82.1172 45.0469 82.1172C44.418 82.1172 43.9219 81.9375 43.5586 81.5781C43.1992 81.2188 43.0195 80.707 43.0195 80.043C43.0195 79.3477 43.2617 78.8359 43.7461 78.5078C44.2344 78.1758 44.9688 77.9922 45.9492 77.957L47.0859 77.9219V77.6348C47.0859 76.9707 46.7461 76.6387 46.0664 76.6387C45.543 76.6387 44.9277 76.7969 44.2207 77.1133L43.6289 75.9062C44.3828 75.5117 45.2188 75.3145 46.1367 75.3145C47.0156 75.3145 47.6895 75.5059 48.1582 75.8887C48.627 76.2715 48.8613 76.8535 48.8613 77.6348V82H47.6133ZM47.0859 78.9648L46.3945 78.9883C45.875 79.0039 45.4883 79.0977 45.2344 79.2695C44.9805 79.4414 44.8535 79.7031 44.8535 80.0547C44.8535 80.5586 45.1426 80.8105 45.7207 80.8105C46.1348 80.8105 46.4648 80.6914 46.7109 80.4531C46.9609 80.2148 47.0859 79.8984 47.0859 79.5039V78.9648ZM53.4668 80.6934C53.7793 80.6934 54.1543 80.625 54.5918 80.4883V81.8184C54.1465 82.0176 53.5996 82.1172 52.9512 82.1172C52.2363 82.1172 51.7148 81.9375 51.3867 81.5781C51.0625 81.2148 50.9004 80.6719 50.9004 79.9492V76.791H50.0449V76.0352L51.0293 75.4375L51.5449 74.0547H52.6875V75.4492H54.5215V76.791H52.6875V79.9492C52.6875 80.2031 52.7578 80.3906 52.8984 80.5117C53.043 80.6328 53.2324 80.6934 53.4668 80.6934ZM58.6348 76.5977C58.2559 76.5977 57.959 76.7188 57.7441 76.9609C57.5293 77.1992 57.4062 77.5391 57.375 77.9805H59.8828C59.875 77.5391 59.7598 77.1992 59.5371 76.9609C59.3145 76.7188 59.0137 76.5977 58.6348 76.5977ZM58.8867 82.1172C57.832 82.1172 57.0078 81.8262 56.4141 81.2441C55.8203 80.6621 55.5234 79.8379 55.5234 78.7715C55.5234 77.6738 55.7969 76.8262 56.3438 76.2285C56.8945 75.627 57.6543 75.3262 58.623 75.3262C59.5488 75.3262 60.2695 75.5898 60.7852 76.1172C61.3008 76.6445 61.5586 77.373 61.5586 78.3027V79.1699H57.334C57.3535 79.6777 57.5039 80.0742 57.7852 80.3594C58.0664 80.6445 58.4609 80.7871 58.9688 80.7871C59.3633 80.7871 59.7363 80.7461 60.0879 80.6641C60.4395 80.582 60.8066 80.4512 61.1895 80.2715V81.6543C60.877 81.8105 60.543 81.9258 60.1875 82C59.832 82.0781 59.3984 82.1172 58.8867 82.1172ZM69.7266 82.1172C68.957 82.1172 68.3535 81.8379 67.916 81.2793H67.8223C67.8848 81.8262 67.916 82.1426 67.916 82.2285V84.8828H66.1289V75.4492H67.582L67.834 76.2988H67.916C68.334 75.6504 68.9531 75.3262 69.7734 75.3262C70.5469 75.3262 71.1523 75.625 71.5898 76.2227C72.0273 76.8203 72.2461 77.6504 72.2461 78.7129C72.2461 79.4121 72.1426 80.0195 71.9355 80.5352C71.7324 81.0508 71.4414 81.4434 71.0625 81.7129C70.6836 81.9824 70.2383 82.1172 69.7266 82.1172ZM69.1992 76.7559C68.7578 76.7559 68.4355 76.8926 68.2324 77.166C68.0293 77.4355 67.9238 77.8828 67.916 78.5078V78.7012C67.916 79.4043 68.0195 79.9082 68.2266 80.2129C68.4375 80.5176 68.7695 80.6699 69.2227 80.6699C70.0234 80.6699 70.4238 80.0098 70.4238 78.6895C70.4238 78.0449 70.3242 77.5625 70.125 77.2422C69.9297 76.918 69.6211 76.7559 69.1992 76.7559ZM75.5098 82H73.7227V72.8828H75.5098V82ZM81.5508 82L81.2051 81.1094H81.1582C80.8574 81.4883 80.5469 81.752 80.2266 81.9004C79.9102 82.0449 79.4961 82.1172 78.9844 82.1172C78.3555 82.1172 77.8594 81.9375 77.4961 81.5781C77.1367 81.2188 76.957 80.707 76.957 80.043C76.957 79.3477 77.1992 78.8359 77.6836 78.5078C78.1719 78.1758 78.9062 77.9922 79.8867 77.957L81.0234 77.9219V77.6348C81.0234 76.9707 80.6836 76.6387 80.0039 76.6387C79.4805 76.6387 78.8652 76.7969 78.1582 77.1133L77.5664 75.9062C78.3203 75.5117 79.1562 75.3145 80.0742 75.3145C80.9531 75.3145 81.627 75.5059 82.0957 75.8887C82.5645 76.2715 82.7988 76.8535 82.7988 77.6348V82H81.5508ZM81.0234 78.9648L80.332 78.9883C79.8125 79.0039 79.4258 79.0977 79.1719 79.2695C78.918 79.4414 78.791 79.7031 78.791 80.0547C78.791 80.5586 79.0801 80.8105 79.6582 80.8105C80.0723 80.8105 80.4023 80.6914 80.6484 80.4531C80.8984 80.2148 81.0234 79.8984 81.0234 79.5039V78.9648ZM90.6914 82H88.9043V78.1738C88.9043 77.7012 88.8203 77.3477 88.6523 77.1133C88.4844 76.875 88.2168 76.7559 87.8496 76.7559C87.3496 76.7559 86.9883 76.9238 86.7656 77.2598C86.543 77.5918 86.4316 78.1445 86.4316 78.918V82H84.6445V75.4492H86.0098L86.25 76.2871H86.3496C86.5488 75.9707 86.8223 75.7324 87.1699 75.5723C87.5215 75.4082 87.9199 75.3262 88.3652 75.3262C89.127 75.3262 89.7051 75.5332 90.0996 75.9473C90.4941 76.3574 90.6914 76.9512 90.6914 77.7285V82ZM97.1016 80.0547C97.1016 80.7266 96.8672 81.2383 96.3984 81.5898C95.9336 81.9414 95.2363 82.1172 94.3066 82.1172C93.8301 82.1172 93.4238 82.084 93.0879 82.0176C92.752 81.9551 92.4375 81.8613 92.1445 81.7363V80.2598C92.4766 80.416 92.8496 80.5469 93.2637 80.6523C93.6816 80.7578 94.0488 80.8105 94.3652 80.8105C95.0137 80.8105 95.3379 80.623 95.3379 80.248C95.3379 80.1074 95.2949 79.9941 95.209 79.9082C95.123 79.8184 94.9746 79.7188 94.7637 79.6094C94.5527 79.4961 94.2715 79.3652 93.9199 79.2168C93.416 79.0059 93.0449 78.8105 92.8066 78.6309C92.5723 78.4512 92.4004 78.2461 92.291 78.0156C92.1855 77.7812 92.1328 77.4941 92.1328 77.1543C92.1328 76.5723 92.3574 76.123 92.8066 75.8066C93.2598 75.4863 93.9004 75.3262 94.7285 75.3262C95.5176 75.3262 96.2852 75.498 97.0312 75.8418L96.4922 77.1309C96.1641 76.9902 95.8574 76.875 95.5723 76.7852C95.2871 76.6953 94.9961 76.6504 94.6992 76.6504C94.1719 76.6504 93.9082 76.793 93.9082 77.0781C93.9082 77.2383 93.9922 77.377 94.1602 77.4941C94.332 77.6113 94.7051 77.7852 95.2793 78.0156C95.791 78.2227 96.166 78.416 96.4043 78.5957C96.6426 78.7754 96.8184 78.9824 96.9316 79.2168C97.0449 79.4512 97.1016 79.7305 97.1016 80.0547Z" fill="white"/>
<path d="M180.739 95H178.08V85.0059H183.986V87.1729H180.739V89.0801H183.733V91.2471H180.739V95ZM188.156 95H185.483V87.2549H188.156V95ZM185.415 85.3271C185.415 84.9261 185.527 84.6276 185.75 84.4316C185.973 84.2357 186.333 84.1377 186.83 84.1377C187.327 84.1377 187.689 84.238 187.917 84.4385C188.145 84.639 188.259 84.9352 188.259 85.3271C188.259 86.111 187.783 86.5029 186.83 86.5029C185.887 86.5029 185.415 86.111 185.415 85.3271ZM191.663 91.0488L189.298 87.2549H192.333L193.509 89.4287L194.712 87.2549H197.754L195.327 91.0488L197.85 95H194.814L193.509 92.6484L192.21 95H189.168L191.663 91.0488ZM202.58 95.1367C201.29 95.1367 200.288 94.7949 199.572 94.1113C198.861 93.4232 198.506 92.4456 198.506 91.1787C198.506 89.8708 198.836 88.8682 199.497 88.1709C200.158 87.4691 201.101 87.1182 202.327 87.1182C203.494 87.1182 204.394 87.4235 205.027 88.0342C205.665 88.6403 205.984 89.5153 205.984 90.6592V91.8486H201.206C201.224 92.2816 201.382 92.6211 201.678 92.8672C201.979 93.1133 202.386 93.2363 202.901 93.2363C203.371 93.2363 203.801 93.193 204.193 93.1064C204.59 93.0153 205.018 92.8626 205.479 92.6484V94.5693C205.059 94.7835 204.626 94.9316 204.18 95.0137C203.733 95.0957 203.2 95.1367 202.58 95.1367ZM202.423 88.9365C202.108 88.9365 201.844 89.0368 201.63 89.2373C201.42 89.4333 201.297 89.7432 201.261 90.167H203.558C203.549 89.7933 203.441 89.4948 203.236 89.2715C203.036 89.0482 202.765 88.9365 202.423 88.9365ZM209.901 95.1367C209.35 95.1367 208.867 94.9795 208.452 94.665C208.042 94.3506 207.723 93.888 207.495 93.2773C207.272 92.6667 207.16 91.9535 207.16 91.1377C207.16 89.8799 207.413 88.8955 207.919 88.1846C208.425 87.4736 209.12 87.1182 210.004 87.1182C210.437 87.1182 210.815 87.2048 211.139 87.3779C211.467 87.5511 211.765 87.8428 212.034 88.2529H212.089C212.002 87.6468 211.959 87.0407 211.959 86.4346V84.3633H214.652V95H212.636L212.062 94.0225H211.959C211.499 94.7653 210.813 95.1367 209.901 95.1367ZM210.995 93.0244C211.424 93.0244 211.724 92.89 211.897 92.6211C212.075 92.3522 212.171 91.9375 212.185 91.377V91.165C212.185 90.4814 212.087 89.9961 211.891 89.709C211.695 89.4173 211.387 89.2715 210.968 89.2715C210.617 89.2715 210.343 89.4378 210.147 89.7705C209.956 90.0986 209.86 90.568 209.86 91.1787C209.86 91.7803 209.958 92.2383 210.154 92.5527C210.35 92.8672 210.631 93.0244 210.995 93.0244ZM178.08 114V104.006H180.794V114H178.08ZM187.691 114V109.775C187.691 109.26 187.616 108.873 187.466 108.613C187.32 108.349 187.083 108.217 186.755 108.217C186.304 108.217 185.978 108.397 185.777 108.757C185.577 109.117 185.477 109.734 185.477 110.609V114H182.804V106.255H184.82L185.155 107.212H185.312C185.54 106.847 185.855 106.574 186.256 106.392C186.661 106.209 187.126 106.118 187.65 106.118C188.507 106.118 189.173 106.367 189.646 106.863C190.125 107.36 190.364 108.06 190.364 108.962V114H187.691ZM198.164 111.621C198.164 112.451 197.882 113.077 197.316 113.501C196.751 113.925 195.94 114.137 194.883 114.137C194.309 114.137 193.81 114.105 193.386 114.041C192.962 113.982 192.529 113.87 192.087 113.706V111.566C192.502 111.749 192.955 111.899 193.447 112.018C193.944 112.136 194.386 112.195 194.773 112.195C195.352 112.195 195.642 112.063 195.642 111.799C195.642 111.662 195.56 111.541 195.396 111.437C195.236 111.327 194.767 111.118 193.987 110.808C193.276 110.516 192.78 110.186 192.497 109.816C192.215 109.443 192.073 108.971 192.073 108.401C192.073 107.681 192.351 107.121 192.907 106.72C193.463 106.319 194.249 106.118 195.266 106.118C195.776 106.118 196.255 106.175 196.701 106.289C197.152 106.398 197.619 106.56 198.103 106.774L197.378 108.497C197.022 108.338 196.646 108.203 196.25 108.094C195.854 107.98 195.53 107.923 195.279 107.923C194.842 107.923 194.623 108.03 194.623 108.244C194.623 108.376 194.698 108.49 194.849 108.586C195.004 108.677 195.446 108.866 196.175 109.153C196.717 109.377 197.12 109.595 197.385 109.81C197.654 110.024 197.85 110.277 197.973 110.568C198.1 110.855 198.164 111.206 198.164 111.621ZM205.164 114L204.829 113.036H204.672C204.449 113.392 204.136 113.665 203.735 113.856C203.339 114.043 202.872 114.137 202.334 114.137C201.482 114.137 200.819 113.891 200.345 113.398C199.871 112.902 199.634 112.202 199.634 111.3V106.255H202.307V110.486C202.307 110.992 202.377 111.375 202.519 111.635C202.664 111.895 202.901 112.024 203.229 112.024C203.69 112.024 204.018 111.844 204.214 111.484C204.41 111.12 204.508 110.507 204.508 109.646V106.255H207.181V114H205.164ZM213.702 106.118C213.935 106.118 214.156 106.136 214.365 106.173L214.516 106.2L214.276 108.723C214.058 108.668 213.755 108.641 213.367 108.641C212.784 108.641 212.36 108.775 212.096 109.044C211.831 109.308 211.699 109.691 211.699 110.192V114H209.026V106.255H211.016L211.433 107.492H211.562C211.786 107.082 212.096 106.752 212.492 106.501C212.893 106.246 213.297 106.118 213.702 106.118ZM220.654 114L220.142 112.975H220.087C219.727 113.421 219.36 113.727 218.986 113.891C218.613 114.055 218.13 114.137 217.537 114.137C216.808 114.137 216.234 113.918 215.814 113.48C215.395 113.043 215.186 112.428 215.186 111.635C215.186 110.81 215.473 110.197 216.047 109.796C216.621 109.39 217.453 109.162 218.542 109.112L219.834 109.071V108.962C219.834 108.324 219.52 108.005 218.891 108.005C218.326 108.005 217.608 108.196 216.737 108.579L215.965 106.815C216.867 106.351 218.007 106.118 219.383 106.118C220.376 106.118 221.144 106.364 221.687 106.856C222.233 107.349 222.507 108.037 222.507 108.921V114H220.654ZM218.672 112.25C218.995 112.25 219.271 112.147 219.499 111.942C219.731 111.737 219.848 111.471 219.848 111.143V110.541L219.232 110.568C218.353 110.6 217.913 110.924 217.913 111.539C217.913 112.013 218.166 112.25 218.672 112.25ZM229.213 114V109.775C229.213 109.26 229.138 108.873 228.987 108.613C228.841 108.349 228.604 108.217 228.276 108.217C227.825 108.217 227.499 108.397 227.299 108.757C227.098 109.117 226.998 109.734 226.998 110.609V114H224.325V106.255H226.342L226.677 107.212H226.834C227.062 106.847 227.376 106.574 227.777 106.392C228.183 106.209 228.648 106.118 229.172 106.118C230.029 106.118 230.694 106.367 231.168 106.863C231.646 107.36 231.886 108.06 231.886 108.962V114H229.213ZM237.231 114.137C235.965 114.137 235.003 113.795 234.347 113.111C233.695 112.428 233.369 111.446 233.369 110.165C233.369 108.88 233.722 107.884 234.429 107.178C235.135 106.471 236.14 106.118 237.443 106.118C238.341 106.118 239.187 106.314 239.979 106.706L239.193 108.682C238.87 108.54 238.571 108.429 238.298 108.347C238.024 108.26 237.74 108.217 237.443 108.217C237.01 108.217 236.675 108.385 236.438 108.723C236.201 109.06 236.083 109.536 236.083 110.151C236.083 111.391 236.541 112.011 237.457 112.011C238.241 112.011 238.993 111.783 239.713 111.327V113.453C239.025 113.909 238.198 114.137 237.231 114.137ZM244.99 114.137C243.701 114.137 242.698 113.795 241.982 113.111C241.271 112.423 240.916 111.446 240.916 110.179C240.916 108.871 241.246 107.868 241.907 107.171C242.568 106.469 243.511 106.118 244.737 106.118C245.904 106.118 246.804 106.424 247.438 107.034C248.076 107.64 248.395 108.515 248.395 109.659V110.849H243.616C243.634 111.282 243.792 111.621 244.088 111.867C244.389 112.113 244.797 112.236 245.312 112.236C245.781 112.236 246.212 112.193 246.604 112.106C247 112.015 247.428 111.863 247.889 111.648V113.569C247.469 113.784 247.036 113.932 246.59 114.014C246.143 114.096 245.61 114.137 244.99 114.137ZM244.833 107.937C244.519 107.937 244.254 108.037 244.04 108.237C243.83 108.433 243.707 108.743 243.671 109.167H245.968C245.959 108.793 245.852 108.495 245.646 108.271C245.446 108.048 245.175 107.937 244.833 107.937ZM184.615 129.965C184.615 130.585 184.458 131.136 184.144 131.619C183.829 132.098 183.376 132.471 182.783 132.74C182.191 133.005 181.496 133.137 180.698 133.137C180.033 133.137 179.475 133.091 179.023 133C178.572 132.904 178.103 132.74 177.615 132.508V130.102C178.13 130.366 178.666 130.573 179.222 130.724C179.778 130.869 180.288 130.942 180.753 130.942C181.154 130.942 181.448 130.874 181.635 130.737C181.822 130.596 181.915 130.416 181.915 130.197C181.915 130.061 181.876 129.942 181.799 129.842C181.726 129.737 181.605 129.632 181.437 129.527C181.272 129.423 180.83 129.208 180.11 128.885C179.459 128.589 178.969 128.301 178.641 128.023C178.317 127.745 178.076 127.426 177.916 127.066C177.761 126.706 177.684 126.28 177.684 125.788C177.684 124.868 178.019 124.15 178.688 123.635C179.358 123.12 180.279 122.862 181.45 122.862C182.485 122.862 183.54 123.102 184.615 123.58L183.788 125.665C182.854 125.237 182.047 125.022 181.368 125.022C181.017 125.022 180.762 125.084 180.603 125.207C180.443 125.33 180.363 125.483 180.363 125.665C180.363 125.861 180.464 126.036 180.664 126.191C180.869 126.346 181.421 126.629 182.318 127.039C183.18 127.426 183.777 127.843 184.109 128.29C184.447 128.732 184.615 129.29 184.615 129.965ZM193.399 129.11C193.399 130.377 193.058 131.366 192.374 132.077C191.695 132.784 190.743 133.137 189.517 133.137C188.341 133.137 187.404 132.774 186.707 132.05C186.014 131.325 185.668 130.345 185.668 129.11C185.668 127.848 186.007 126.868 186.687 126.171C187.37 125.469 188.327 125.118 189.558 125.118C190.319 125.118 190.991 125.28 191.574 125.604C192.158 125.927 192.606 126.392 192.921 126.998C193.24 127.6 193.399 128.304 193.399 129.11ZM188.382 129.11C188.382 129.776 188.471 130.284 188.648 130.635C188.826 130.981 189.125 131.154 189.544 131.154C189.959 131.154 190.25 130.981 190.419 130.635C190.592 130.284 190.679 129.776 190.679 129.11C190.679 128.45 190.592 127.951 190.419 127.613C190.246 127.276 189.95 127.107 189.53 127.107C189.12 127.107 188.826 127.276 188.648 127.613C188.471 127.946 188.382 128.445 188.382 129.11ZM197.604 133H194.931V122.363H197.604V133ZM204.973 133L204.638 132.036H204.48C204.257 132.392 203.945 132.665 203.544 132.856C203.147 133.043 202.68 133.137 202.143 133.137C201.29 133.137 200.627 132.891 200.153 132.398C199.679 131.902 199.442 131.202 199.442 130.3V125.255H202.115V129.486C202.115 129.992 202.186 130.375 202.327 130.635C202.473 130.895 202.71 131.024 203.038 131.024C203.498 131.024 203.826 130.844 204.022 130.484C204.218 130.12 204.316 129.507 204.316 128.646V125.255H206.989V133H204.973ZM212.629 131.024C212.989 131.024 213.42 130.936 213.921 130.758V132.706C213.561 132.861 213.217 132.97 212.889 133.034C212.565 133.103 212.185 133.137 211.747 133.137C210.849 133.137 210.202 132.918 209.806 132.48C209.409 132.038 209.211 131.362 209.211 130.45V127.258H208.274V126.171L209.464 125.33L210.154 123.703H211.904V125.255H213.805V127.258H211.904V130.272C211.904 130.774 212.146 131.024 212.629 131.024ZM217.961 133H215.288V125.255H217.961V133ZM215.22 123.327C215.22 122.926 215.331 122.628 215.555 122.432C215.778 122.236 216.138 122.138 216.635 122.138C217.132 122.138 217.494 122.238 217.722 122.438C217.95 122.639 218.063 122.935 218.063 123.327C218.063 124.111 217.587 124.503 216.635 124.503C215.691 124.503 215.22 124.111 215.22 123.327ZM227.224 129.11C227.224 130.377 226.882 131.366 226.198 132.077C225.519 132.784 224.567 133.137 223.341 133.137C222.165 133.137 221.229 132.774 220.531 132.05C219.839 131.325 219.492 130.345 219.492 129.11C219.492 127.848 219.832 126.868 220.511 126.171C221.194 125.469 222.151 125.118 223.382 125.118C224.143 125.118 224.815 125.28 225.398 125.604C225.982 125.927 226.431 126.392 226.745 126.998C227.064 127.6 227.224 128.304 227.224 129.11ZM222.206 129.11C222.206 129.776 222.295 130.284 222.473 130.635C222.65 130.981 222.949 131.154 223.368 131.154C223.783 131.154 224.075 130.981 224.243 130.635C224.416 130.284 224.503 129.776 224.503 129.11C224.503 128.45 224.416 127.951 224.243 127.613C224.07 127.276 223.774 127.107 223.354 127.107C222.944 127.107 222.65 127.276 222.473 127.613C222.295 127.946 222.206 128.445 222.206 129.11ZM233.643 133V128.775C233.643 128.26 233.567 127.873 233.417 127.613C233.271 127.349 233.034 127.217 232.706 127.217C232.255 127.217 231.929 127.397 231.729 127.757C231.528 128.117 231.428 128.734 231.428 129.609V133H228.755V125.255H230.771L231.106 126.212H231.264C231.492 125.847 231.806 125.574 232.207 125.392C232.613 125.209 233.077 125.118 233.602 125.118C234.458 125.118 235.124 125.367 235.598 125.863C236.076 126.36 236.315 127.06 236.315 127.962V133H233.643Z" fill="white"/>
<path d="M171.706 215.708L173.535 208.452L173.482 208.421C172.952 209.531 172.517 210.379 172.178 210.967L170.007 214.727L167.935 213.53L172.932 204.875L176.046 206.673L174.304 213.861L174.352 213.888L179.67 208.765L182.789 210.566L177.792 219.221L175.643 217.981L177.834 214.186C177.948 213.988 178.077 213.771 178.22 213.532C178.366 213.296 178.735 212.722 179.324 211.81L179.271 211.779L173.932 216.993L171.706 215.708ZM183.896 222.745L183.965 221.601L183.917 221.574C183.382 221.78 182.912 221.861 182.506 221.817C182.1 221.772 181.641 221.601 181.128 221.305C180.497 220.94 180.109 220.464 179.964 219.875C179.82 219.287 179.946 218.649 180.342 217.963C180.755 217.248 181.31 216.861 182.008 216.801C182.708 216.737 183.542 216.955 184.51 217.456L185.65 218.067L185.705 217.972C186.024 217.419 185.911 216.986 185.366 216.672C184.877 216.389 184.159 216.196 183.214 216.092L183.427 214.179C184.441 214.227 185.544 214.596 186.736 215.284C187.596 215.78 188.138 216.377 188.362 217.075C188.589 217.775 188.482 218.507 188.04 219.273L185.5 223.672L183.896 222.745ZM183.054 220.239C183.334 220.4 183.624 220.449 183.924 220.386C184.228 220.324 184.462 220.152 184.626 219.867L184.927 219.346L184.38 219.062C183.603 218.65 183.06 218.711 182.752 219.243C182.515 219.654 182.616 219.986 183.054 220.239ZM191.308 227.025L193.42 223.366C193.678 222.92 193.806 222.547 193.806 222.247C193.812 221.945 193.673 221.712 193.388 221.548C192.998 221.322 192.626 221.315 192.272 221.527C191.918 221.738 191.523 222.223 191.085 222.981L189.39 225.917L187.075 224.581L190.948 217.873L192.694 218.882L192.506 219.878L192.642 219.956C193.021 219.755 193.43 219.675 193.869 219.718C194.311 219.763 194.759 219.916 195.213 220.178C195.955 220.607 196.407 221.154 196.569 221.822C196.735 222.491 196.593 223.216 196.142 223.998L193.623 228.361L191.308 227.025ZM199.975 232.028L200.167 231.026L200.031 230.948C199.659 231.144 199.252 231.225 198.809 231.19C198.373 231.153 197.921 231.001 197.456 230.732C196.718 230.306 196.266 229.761 196.102 229.098C195.94 228.431 196.085 227.706 196.536 226.925L199.058 222.556L201.373 223.892L199.257 227.557C199.004 227.995 198.874 228.362 198.866 228.657C198.863 228.955 199.003 229.186 199.287 229.35C199.686 229.58 200.06 229.589 200.41 229.375C200.762 229.157 201.153 228.675 201.584 227.929L203.279 224.993L205.594 226.329L201.721 233.037L199.975 232.028ZM207.695 236.485L207.763 235.341L207.716 235.314C207.181 235.521 206.711 235.602 206.305 235.557C205.899 235.512 205.44 235.342 204.927 235.045C204.295 234.681 203.907 234.204 203.763 233.616C203.619 233.027 203.745 232.39 204.141 231.703C204.554 230.988 205.109 230.601 205.807 230.541C206.507 230.477 207.341 230.695 208.309 231.196L209.449 231.807L209.503 231.712C209.822 231.16 209.71 230.726 209.165 230.412C208.676 230.129 207.958 229.936 207.013 229.832L207.226 227.919C208.24 227.967 209.343 228.336 210.535 229.024C211.395 229.521 211.937 230.118 212.16 230.815C212.388 231.515 212.281 232.247 211.839 233.013L209.299 237.412L207.695 236.485ZM206.853 233.979C207.133 234.141 207.423 234.19 207.723 234.126C208.027 234.065 208.261 233.892 208.425 233.608L208.726 233.087L208.179 232.803C207.402 232.391 206.859 232.451 206.551 232.984C206.314 233.394 206.415 233.726 206.853 233.979ZM213.189 239.657L210.874 238.321L216.192 229.109L218.507 230.446L213.189 239.657ZM162.257 232.349C161.917 232.153 161.645 231.922 161.441 231.657C161.238 231.387 161.089 231.03 160.993 230.586L160.887 230.524C160.687 231.035 160.554 231.347 160.488 231.462L158.932 234.155L156.618 232.819L162.172 223.199L164.054 224.286L163.888 225.326L163.994 225.388C164.798 224.989 165.579 225.008 166.337 225.446C167.079 225.874 167.483 226.518 167.55 227.377C167.617 228.237 167.34 229.204 166.721 230.277C166.096 231.358 165.383 232.083 164.581 232.452C163.785 232.818 163.01 232.784 162.257 232.349ZM164.441 226.774C164.102 226.578 163.792 226.563 163.513 226.728C163.24 226.891 162.959 227.208 162.672 227.679L162.566 227.862C162.233 228.439 162.07 228.899 162.075 229.245C162.081 229.59 162.25 229.859 162.581 230.05C162.877 230.221 163.165 230.219 163.445 230.044C163.728 229.865 164.039 229.481 164.378 228.893C164.711 228.317 164.882 227.866 164.891 227.539C164.903 227.209 164.753 226.954 164.441 226.774ZM170.477 236.937L170.546 235.793L170.498 235.765C169.963 235.972 169.493 236.053 169.087 236.008C168.681 235.964 168.222 235.793 167.709 235.497C167.077 235.132 166.69 234.656 166.545 234.067C166.401 233.479 166.527 232.841 166.923 232.154C167.336 231.44 167.891 231.053 168.589 230.992C169.289 230.928 170.123 231.147 171.091 231.648L172.231 232.259L172.285 232.164C172.604 231.611 172.492 231.178 171.947 230.863C171.458 230.581 170.74 230.388 169.795 230.284L170.008 228.37C171.022 228.419 172.125 228.787 173.317 229.475C174.177 229.972 174.719 230.569 174.943 231.267C175.17 231.966 175.063 232.699 174.621 233.465L172.081 237.863L170.477 236.937ZM169.635 234.43C169.915 234.592 170.205 234.641 170.505 234.577C170.809 234.516 171.043 234.343 171.207 234.059L171.508 233.538L170.961 233.254C170.184 232.842 169.641 232.902 169.333 233.435C169.096 233.846 169.197 234.177 169.635 234.43ZM177.613 241.215C177.274 241.019 177.002 240.788 176.797 240.523C176.595 240.254 176.446 239.897 176.35 239.452L176.244 239.39C176.043 239.901 175.91 240.214 175.844 240.328L174.289 243.022L171.974 241.685L177.528 232.065L179.411 233.152L179.245 234.192L179.351 234.254C180.155 233.855 180.936 233.874 181.694 234.312C182.436 234.74 182.84 235.384 182.907 236.244C182.974 237.103 182.697 238.07 182.077 239.143C181.453 240.225 180.74 240.95 179.938 241.318C179.142 241.685 178.367 241.65 177.613 241.215ZM179.798 235.641C179.458 235.445 179.149 235.429 178.869 235.594C178.596 235.757 178.316 236.074 178.028 236.545L177.922 236.729C177.59 237.305 177.426 237.766 177.432 238.111C177.438 238.456 177.607 238.725 177.938 238.916C178.234 239.087 178.522 239.085 178.802 238.91C179.084 238.731 179.395 238.347 179.735 237.759C180.068 237.183 180.239 236.732 180.248 236.406C180.26 236.076 180.109 235.821 179.798 235.641ZM184.629 245.265C183.512 244.621 182.814 243.823 182.536 242.873C182.265 241.922 182.446 240.898 183.079 239.801C183.733 238.668 184.521 237.965 185.442 237.691C186.365 237.414 187.357 237.582 188.419 238.195C189.429 238.778 190.056 239.492 190.299 240.338C190.549 241.182 190.387 242.099 189.816 243.09L189.221 244.12L185.083 241.731C184.882 242.115 184.848 242.488 184.982 242.849C185.119 243.212 185.411 243.523 185.857 243.78C186.264 244.015 186.658 244.193 187.041 244.314C187.43 244.433 187.877 244.515 188.383 244.56L187.422 246.223C186.952 246.199 186.503 246.111 186.075 245.959C185.648 245.806 185.165 245.575 184.629 245.265ZM187.592 239.817C187.32 239.66 187.041 239.615 186.755 239.681C186.476 239.746 186.214 239.953 185.971 240.302L187.96 241.45C188.139 241.122 188.195 240.81 188.13 240.514C188.068 240.22 187.888 239.988 187.592 239.817ZM196.944 243.117C197.145 243.233 197.327 243.359 197.491 243.495L197.607 243.594L196.139 245.659C195.977 245.502 195.728 245.327 195.392 245.134C194.887 244.842 194.453 244.746 194.09 244.847C193.729 244.944 193.423 245.209 193.172 245.643L191.268 248.941L188.953 247.605L192.826 240.897L194.549 241.892L194.291 243.172L194.404 243.237C194.802 242.993 195.236 242.862 195.704 242.843C196.179 242.823 196.592 242.914 196.944 243.117ZM204.766 250.103L203.339 249.28L200.468 254.252L198.153 252.916L201.024 247.943L200.136 247.43L200.793 246.294L202.056 246.266L202.121 246.153C202.631 245.269 203.178 244.737 203.76 244.558C204.347 244.381 205.039 244.522 205.836 244.983C206.144 245.16 206.42 245.351 206.665 245.556C206.914 245.763 207.186 246.03 207.481 246.358L206.119 247.569C205.88 247.326 205.625 247.126 205.352 246.969C205.175 246.866 205.012 246.846 204.866 246.909C204.725 246.97 204.584 247.123 204.443 247.367L204.341 247.545L205.767 248.369L204.766 250.103ZM211.157 255.932C210.523 257.029 209.733 257.715 208.785 257.989C207.844 258.261 206.843 258.091 205.781 257.478C204.763 256.89 204.133 256.108 203.891 255.132C203.654 254.158 203.844 253.136 204.461 252.067C205.092 250.973 205.876 250.295 206.813 250.03C207.756 249.764 208.76 249.939 209.826 250.554C210.485 250.935 210.986 251.411 211.33 251.983C211.673 252.555 211.829 253.182 211.799 253.864C211.774 254.544 211.56 255.234 211.157 255.932ZM206.812 253.423C206.479 254 206.302 254.484 206.28 254.877C206.261 255.266 206.433 255.565 206.796 255.775C207.155 255.982 207.494 255.978 207.813 255.762C208.139 255.545 208.468 255.148 208.801 254.572C209.131 254 209.306 253.524 209.324 253.146C209.343 252.767 209.171 252.473 208.808 252.263C208.452 252.058 208.113 252.057 207.791 252.26C207.471 252.46 207.144 252.847 206.812 253.423ZM218.528 255.578C218.73 255.695 218.912 255.821 219.075 255.957L219.192 256.056L217.723 258.121C217.561 257.964 217.313 257.789 216.977 257.596C216.472 257.304 216.038 257.208 215.674 257.309C215.313 257.406 215.007 257.671 214.757 258.105L212.853 261.403L210.538 260.066L214.411 253.359L216.133 254.354L215.876 255.634L215.988 255.699C216.387 255.455 216.82 255.324 217.289 255.305C217.764 255.285 218.177 255.376 218.528 255.578ZM224.468 268.109L226.574 264.462C226.836 264.008 226.968 263.632 226.972 263.335C226.982 263.035 226.853 262.808 226.584 262.653C226.229 262.448 225.881 262.449 225.54 262.657C225.198 262.866 224.841 263.293 224.467 263.941L222.662 267.066L220.342 265.727L222.447 262.08C222.709 261.626 222.846 261.252 222.858 260.959C222.871 260.662 222.746 260.437 222.482 260.284C222.118 260.074 221.761 260.084 221.408 260.312C221.055 260.539 220.667 261.02 220.243 261.755L218.548 264.691L216.233 263.355L220.106 256.647L221.852 257.655L221.664 258.652L221.8 258.73C222.155 258.525 222.547 258.438 222.976 258.47C223.409 258.504 223.841 258.646 224.271 258.894C225.238 259.452 225.747 260.138 225.798 260.952L225.982 261.058C226.331 260.891 226.717 260.827 227.142 260.867C227.572 260.905 227.991 261.042 228.397 261.276C229.19 261.734 229.659 262.276 229.803 262.901C229.948 263.526 229.78 264.253 229.302 265.082L226.783 269.445L224.468 268.109ZM234.727 271.285C234.312 272.003 233.754 272.405 233.053 272.489C232.352 272.574 231.543 272.352 230.628 271.823C230.13 271.536 229.714 271.259 229.379 270.992C229.042 270.728 228.723 270.415 228.422 270.052L229.492 268.199C229.76 268.564 230.077 268.921 230.444 269.27C230.815 269.621 231.168 269.893 231.504 270.087C232.005 270.376 232.322 270.407 232.454 270.178C232.522 270.059 232.511 269.914 232.422 269.741C232.338 269.566 232.037 269.15 231.517 268.492C231.047 267.884 230.782 267.35 230.722 266.889C230.664 266.424 230.777 265.945 231.062 265.451C231.422 264.828 231.943 264.481 232.625 264.412C233.307 264.343 234.088 264.562 234.969 265.07C235.411 265.325 235.796 265.614 236.126 265.936C236.462 266.256 236.786 266.63 237.097 267.057L235.608 268.187C235.38 267.871 235.122 267.566 234.833 267.273C234.547 266.976 234.295 266.765 234.078 266.64C233.699 266.421 233.456 266.405 233.349 266.59C233.283 266.704 233.291 266.841 233.373 266.999C233.462 267.155 233.75 267.54 234.238 268.153C234.596 268.618 234.836 269.009 234.958 269.327C235.084 269.647 235.127 269.964 235.088 270.278C235.055 270.59 234.935 270.926 234.727 271.285ZM152.757 248.803C152.417 248.607 152.145 248.377 151.941 248.111C151.738 247.842 151.589 247.485 151.493 247.04L151.387 246.979C151.187 247.489 151.054 247.802 150.988 247.916L149.432 250.61L147.118 249.273L152.672 239.653L154.554 240.74L154.388 241.781L154.494 241.842C155.298 241.443 156.079 241.463 156.837 241.9C157.579 242.329 157.983 242.972 158.05 243.832C158.117 244.691 157.84 245.658 157.221 246.731C156.596 247.813 155.883 248.538 155.081 248.906C154.285 249.273 153.51 249.239 152.757 248.803ZM154.941 243.229C154.602 243.033 154.292 243.017 154.013 243.182C153.74 243.346 153.459 243.663 153.172 244.133L153.066 244.317C152.733 244.893 152.57 245.354 152.575 245.699C152.581 246.045 152.75 246.313 153.081 246.504C153.377 246.675 153.665 246.673 153.945 246.498C154.228 246.319 154.539 245.936 154.878 245.347C155.211 244.771 155.382 244.32 155.391 243.994C155.403 243.664 155.253 243.409 154.941 243.229ZM161.379 253.624L161.571 252.622L161.435 252.543C161.064 252.739 160.657 252.82 160.214 252.785C159.777 252.749 159.326 252.596 158.86 252.327C158.122 251.901 157.671 251.357 157.507 250.693C157.344 250.026 157.489 249.302 157.94 248.52L160.463 244.151L162.777 245.488L160.662 249.152C160.409 249.59 160.278 249.957 160.271 250.253C160.267 250.551 160.408 250.782 160.692 250.946C161.09 251.176 161.465 251.184 161.814 250.97C162.166 250.753 162.558 250.271 162.988 249.525L164.684 246.588L166.998 247.925L163.126 254.632L161.379 253.624ZM172.715 251.067C172.916 251.183 173.098 251.31 173.261 251.446L173.378 251.545L171.91 253.61C171.747 253.453 171.499 253.278 171.163 253.084C170.658 252.792 170.224 252.697 169.86 252.798C169.499 252.894 169.193 253.16 168.943 253.594L167.039 256.892L164.724 255.555L168.597 248.848L170.32 249.842L170.062 251.122L170.175 251.187C170.573 250.944 171.007 250.813 171.475 250.794C171.95 250.773 172.363 250.864 172.715 251.067ZM174.64 261.28L176.753 257.622C177.272 256.722 177.266 256.118 176.733 255.81C176.354 255.592 175.981 255.59 175.615 255.805C175.255 256.018 174.862 256.493 174.436 257.231L172.734 260.18L170.419 258.843L175.738 249.632L178.053 250.968L177.297 252.276C176.955 252.868 176.534 253.525 176.033 254.246L176.14 254.308C176.562 254.088 176.965 253.995 177.351 254.028C177.737 254.062 178.131 254.195 178.534 254.427C179.284 254.86 179.741 255.413 179.904 256.087C180.074 256.758 179.935 257.483 179.486 258.26L176.967 262.623L174.64 261.28ZM182.917 266.059L182.985 264.914L182.938 264.887C182.403 265.094 181.933 265.175 181.527 265.13C181.121 265.085 180.662 264.915 180.149 264.618C179.517 264.254 179.129 263.777 178.985 263.189C178.841 262.6 178.967 261.963 179.363 261.276C179.776 260.561 180.331 260.174 181.029 260.114C181.729 260.05 182.563 260.268 183.531 260.77L184.671 261.38L184.725 261.285C185.044 260.733 184.932 260.299 184.387 259.985C183.898 259.702 183.18 259.509 182.235 259.405L182.448 257.492C183.462 257.54 184.565 257.909 185.757 258.597C186.617 259.094 187.159 259.691 187.382 260.388C187.61 261.088 187.503 261.82 187.061 262.586L184.521 266.985L182.917 266.059ZM182.075 263.552C182.355 263.714 182.645 263.763 182.945 263.699C183.249 263.638 183.483 263.465 183.647 263.181L183.948 262.66L183.401 262.376C182.623 261.964 182.081 262.024 181.773 262.557C181.536 262.967 181.637 263.299 182.075 263.552ZM192.465 268.825C192.051 269.543 191.493 269.944 190.791 270.029C190.09 270.113 189.282 269.891 188.366 269.362C187.869 269.075 187.452 268.798 187.117 268.531C186.78 268.268 186.461 267.955 186.16 267.592L187.23 265.739C187.498 266.104 187.815 266.461 188.182 266.809C188.553 267.16 188.906 267.433 189.242 267.626C189.743 267.916 190.06 267.946 190.192 267.717C190.26 267.599 190.25 267.453 190.16 267.28C190.077 267.106 189.775 266.69 189.255 266.032C188.785 265.424 188.52 264.889 188.46 264.428C188.402 263.963 188.516 263.484 188.8 262.991C189.16 262.367 189.681 262.021 190.363 261.951C191.046 261.882 191.827 262.101 192.707 262.61C193.149 262.865 193.535 263.153 193.864 263.475C194.201 263.796 194.524 264.169 194.835 264.596L193.347 265.726C193.118 265.41 192.86 265.106 192.571 264.813C192.285 264.516 192.033 264.305 191.816 264.179C191.437 263.961 191.194 263.944 191.087 264.129C191.021 264.244 191.029 264.38 191.112 264.538C191.2 264.695 191.489 265.079 191.976 265.693C192.334 266.157 192.574 266.548 192.696 266.866C192.822 267.186 192.865 267.503 192.826 267.817C192.793 268.13 192.673 268.465 192.465 268.825ZM195.73 273.614C194.614 272.97 193.916 272.172 193.638 271.223C193.367 270.271 193.548 269.247 194.181 268.15C194.835 267.017 195.623 266.314 196.543 266.04C197.467 265.763 198.459 265.931 199.521 266.544C200.531 267.127 201.158 267.841 201.401 268.687C201.651 269.531 201.489 270.448 200.917 271.439L200.323 272.469L196.185 270.08C195.984 270.464 195.95 270.837 196.084 271.198C196.221 271.561 196.513 271.872 196.959 272.129C197.365 272.364 197.76 272.542 198.143 272.663C198.532 272.782 198.979 272.864 199.485 272.909L198.524 274.572C198.054 274.548 197.605 274.46 197.177 274.308C196.75 274.155 196.267 273.924 195.73 273.614ZM198.694 268.166C198.422 268.009 198.143 267.964 197.857 268.03C197.578 268.095 197.316 268.302 197.073 268.651L199.062 269.799C199.241 269.471 199.297 269.159 199.231 268.863C199.169 268.569 198.99 268.337 198.694 268.166Z" fill="white"/>
<path d="M98.5957 140H95.0547L91.4043 132.959H91.3428C91.4294 134.066 91.4727 134.912 91.4727 135.495V140H89.0801V130.006H92.6074L96.2441 136.951H96.2852C96.2214 135.944 96.1895 135.135 96.1895 134.524V130.006H98.5957V140ZM107.995 136.11C107.995 137.377 107.653 138.366 106.97 139.077C106.291 139.784 105.338 140.137 104.112 140.137C102.937 140.137 102 139.774 101.303 139.05C100.61 138.325 100.264 137.345 100.264 136.11C100.264 134.848 100.603 133.868 101.282 133.171C101.966 132.469 102.923 132.118 104.153 132.118C104.914 132.118 105.587 132.28 106.17 132.604C106.753 132.927 107.202 133.392 107.517 133.998C107.836 134.6 107.995 135.304 107.995 136.11ZM102.978 136.11C102.978 136.776 103.066 137.284 103.244 137.635C103.422 137.981 103.72 138.154 104.14 138.154C104.554 138.154 104.846 137.981 105.015 137.635C105.188 137.284 105.274 136.776 105.274 136.11C105.274 135.45 105.188 134.951 105.015 134.613C104.841 134.276 104.545 134.107 104.126 134.107C103.716 134.107 103.422 134.276 103.244 134.613C103.066 134.946 102.978 135.445 102.978 136.11ZM119.452 140L118.96 138.127H115.713L115.207 140H112.24L115.501 129.965H119.104L122.405 140H119.452ZM118.399 135.912L117.969 134.271C117.868 133.907 117.745 133.435 117.6 132.856C117.458 132.278 117.365 131.863 117.319 131.612C117.278 131.845 117.196 132.228 117.073 132.761C116.955 133.294 116.688 134.344 116.273 135.912H118.399ZM127.983 140.137C127.591 140.137 127.241 140.073 126.931 139.945C126.621 139.813 126.313 139.578 126.008 139.241H125.885C125.967 139.784 126.008 140.121 126.008 140.253V143.363H123.335V132.255H125.509L125.885 133.239H126.008C126.505 132.492 127.19 132.118 128.065 132.118C128.922 132.118 129.594 132.474 130.082 133.185C130.57 133.896 130.813 134.871 130.813 136.11C130.813 137.359 130.558 138.343 130.048 139.063C129.542 139.779 128.854 140.137 127.983 140.137ZM127.088 134.217C126.696 134.217 126.42 134.358 126.261 134.641C126.106 134.919 126.021 135.333 126.008 135.885V136.097C126.008 136.762 126.097 137.243 126.274 137.539C126.452 137.835 126.732 137.983 127.115 137.983C127.457 137.983 127.705 137.838 127.86 137.546C128.015 137.25 128.093 136.762 128.093 136.083C128.093 135.418 128.015 134.941 127.86 134.654C127.705 134.363 127.448 134.217 127.088 134.217ZM136.993 140.137C136.601 140.137 136.25 140.073 135.94 139.945C135.631 139.813 135.323 139.578 135.018 139.241H134.895C134.977 139.784 135.018 140.121 135.018 140.253V143.363H132.345V132.255H134.519L134.895 133.239H135.018C135.514 132.492 136.2 132.118 137.075 132.118C137.932 132.118 138.604 132.474 139.092 133.185C139.579 133.896 139.823 134.871 139.823 136.11C139.823 137.359 139.568 138.343 139.058 139.063C138.552 139.779 137.864 140.137 136.993 140.137ZM136.098 134.217C135.706 134.217 135.43 134.358 135.271 134.641C135.116 134.919 135.031 135.333 135.018 135.885V136.097C135.018 136.762 135.106 137.243 135.284 137.539C135.462 137.835 135.742 137.983 136.125 137.983C136.467 137.983 136.715 137.838 136.87 137.546C137.025 137.25 137.103 136.762 137.103 136.083C137.103 135.418 137.025 134.941 136.87 134.654C136.715 134.363 136.458 134.217 136.098 134.217Z" fill="white"/>
<path d="M80.5207 164.516H113.884V272.405H32.9711C18.074 272.405 6 260.331 6 245.434V164.521H39.3632C36.8323 158.763 36.8323 152.204 39.3632 146.446C44.3526 135.077 57.6086 129.912 68.9771 134.902C80.3456 139.892 85.5106 153.152 80.5207 164.516Z" fill="#5169C8"/>
<path d="M27.5957 188.404H24.0547L20.4043 181.363H20.3428C20.4294 182.47 20.4727 183.315 20.4727 183.899V188.404H18.0801V178.409H21.6074L25.2441 185.355H25.2852C25.2214 184.348 25.1895 183.539 25.1895 182.928V178.409H27.5957V188.404ZM36.9951 184.514C36.9951 185.781 36.6533 186.77 35.9697 187.481C35.2907 188.187 34.3382 188.54 33.1123 188.54C31.9365 188.54 31 188.178 30.3027 187.453C29.61 186.729 29.2637 185.749 29.2637 184.514C29.2637 183.252 29.6032 182.272 30.2822 181.574C30.9658 180.873 31.9229 180.522 33.1533 180.522C33.9144 180.522 34.5866 180.684 35.1699 181.007C35.7533 181.331 36.2021 181.795 36.5166 182.402C36.8356 183.003 36.9951 183.707 36.9951 184.514ZM31.9775 184.514C31.9775 185.179 32.0664 185.687 32.2441 186.038C32.4219 186.385 32.7204 186.558 33.1396 186.558C33.5544 186.558 33.846 186.385 34.0146 186.038C34.1878 185.687 34.2744 185.179 34.2744 184.514C34.2744 183.853 34.1878 183.354 34.0146 183.017C33.8415 182.68 33.5452 182.511 33.126 182.511C32.7158 182.511 32.4219 182.68 32.2441 183.017C32.0664 183.35 31.9775 183.849 31.9775 184.514ZM26.6455 207.404H23.9316V203.329H20.7939V207.404H18.0801V197.409H20.7939V201.115H23.9316V197.409H26.6455V207.404ZM31.5127 203.767V207.404H28.8125V197.409H32.0869C34.8031 197.409 36.1611 198.394 36.1611 200.363C36.1611 201.52 35.596 202.416 34.4658 203.049L37.3779 207.404H34.3154L32.1963 203.767H31.5127ZM31.5127 201.737H32.0186C32.9619 201.737 33.4336 201.32 33.4336 200.486C33.4336 199.797 32.971 199.453 32.0459 199.453H31.5127V201.737ZM26.5635 221.195C26.5635 222.863 26.1032 224.148 25.1826 225.05C24.2666 225.952 22.9769 226.404 21.3135 226.404H18.0801V216.409H21.5391C23.1432 216.409 24.3805 216.82 25.251 217.64C26.126 218.46 26.5635 219.645 26.5635 221.195ZM23.7607 221.29C23.7607 220.374 23.5785 219.695 23.2139 219.253C22.8538 218.811 22.3047 218.59 21.5664 218.59H20.7803V224.189H21.3818C22.2021 224.189 22.8037 223.952 23.1865 223.478C23.5693 222.999 23.7607 222.27 23.7607 221.29ZM33.2559 226.404L32.7432 225.378H32.6885C32.3285 225.825 31.9616 226.13 31.5879 226.294C31.2142 226.458 30.7311 226.54 30.1387 226.54C29.4095 226.54 28.8353 226.322 28.416 225.884C27.9967 225.447 27.7871 224.831 27.7871 224.038C27.7871 223.213 28.0742 222.601 28.6484 222.199C29.2227 221.794 30.0544 221.566 31.1436 221.516L32.4355 221.475V221.365C32.4355 220.727 32.1211 220.408 31.4922 220.408C30.9271 220.408 30.2093 220.6 29.3389 220.983L28.5664 219.219C29.4688 218.754 30.6081 218.522 31.9844 218.522C32.9779 218.522 33.7458 218.768 34.2881 219.26C34.835 219.752 35.1084 220.44 35.1084 221.324V226.404H33.2559ZM31.2734 224.654C31.597 224.654 31.8727 224.551 32.1006 224.346C32.333 224.141 32.4492 223.874 32.4492 223.546V222.945L31.834 222.972C30.9544 223.004 30.5146 223.327 30.5146 223.943C30.5146 224.417 30.7676 224.654 31.2734 224.654ZM42.9082 224.025C42.9082 224.854 42.6257 225.481 42.0605 225.905C41.4954 226.328 40.6842 226.54 39.627 226.54C39.0527 226.54 38.5537 226.508 38.1299 226.445C37.7061 226.385 37.2731 226.274 36.8311 226.11V223.97C37.2458 224.152 37.6992 224.303 38.1914 224.421C38.6882 224.54 39.1302 224.599 39.5176 224.599C40.0964 224.599 40.3857 224.467 40.3857 224.202C40.3857 224.066 40.3037 223.945 40.1396 223.84C39.9801 223.731 39.5107 223.521 38.7314 223.211C38.0205 222.92 37.5238 222.589 37.2412 222.22C36.9587 221.846 36.8174 221.375 36.8174 220.805C36.8174 220.085 37.0954 219.524 37.6514 219.123C38.2074 218.722 38.9935 218.522 40.0098 218.522C40.5202 218.522 40.9987 218.579 41.4453 218.693C41.8965 218.802 42.3636 218.964 42.8467 219.178L42.1221 220.901C41.7666 220.741 41.3906 220.607 40.9941 220.497C40.5977 220.383 40.2741 220.326 40.0234 220.326C39.5859 220.326 39.3672 220.434 39.3672 220.648C39.3672 220.78 39.4424 220.894 39.5928 220.99C39.7477 221.081 40.1898 221.27 40.9189 221.557C41.4613 221.78 41.8646 221.999 42.1289 222.213C42.3978 222.427 42.5938 222.68 42.7168 222.972C42.8444 223.259 42.9082 223.61 42.9082 224.025ZM49.2656 226.404V222.179C49.2656 221.14 48.958 220.62 48.3428 220.62C47.9053 220.62 47.5817 220.805 47.3721 221.174C47.167 221.539 47.0645 222.147 47.0645 222.999V226.404H44.3916V215.767H47.0645V217.278C47.0645 217.961 47.028 218.74 46.9551 219.615H47.0781C47.3333 219.214 47.6364 218.932 47.9873 218.768C48.3382 218.604 48.7461 218.522 49.2109 218.522C50.0768 218.522 50.749 218.772 51.2275 219.274C51.7106 219.77 51.9521 220.468 51.9521 221.365V226.404H49.2656ZM58.501 218.522C59.3441 218.522 60.0117 218.875 60.5039 219.581C61.0007 220.288 61.249 221.265 61.249 222.514C61.249 223.772 60.9984 224.758 60.4971 225.474C60.0003 226.185 59.3076 226.54 58.4189 226.54C58.1318 226.54 57.8766 226.508 57.6533 226.445C57.43 226.385 57.2295 226.301 57.0518 226.192C56.8786 226.082 56.6758 225.9 56.4434 225.645H56.2793L55.8555 226.404H53.7705V215.767H56.4434V218.173C56.4434 218.46 56.4115 218.955 56.3477 219.656H56.4434C56.7031 219.255 57.0016 218.966 57.3389 218.788C57.6807 218.611 58.068 218.522 58.501 218.522ZM57.5234 220.62C57.1497 220.62 56.8763 220.75 56.7031 221.01C56.5299 221.27 56.4434 221.678 56.4434 222.234V222.61C56.4434 223.243 56.5299 223.699 56.7031 223.977C56.8763 224.25 57.1589 224.387 57.5508 224.387C57.8652 224.387 58.1068 224.227 58.2754 223.908C58.444 223.585 58.5283 223.111 58.5283 222.487C58.5283 221.242 58.1934 220.62 57.5234 220.62ZM70.1768 222.514C70.1768 223.781 69.835 224.77 69.1514 225.481C68.4723 226.187 67.5199 226.54 66.2939 226.54C65.1182 226.54 64.1816 226.178 63.4844 225.453C62.7917 224.729 62.4453 223.749 62.4453 222.514C62.4453 221.252 62.7848 220.272 63.4639 219.574C64.1475 218.873 65.1045 218.522 66.335 218.522C67.096 218.522 67.7682 218.684 68.3516 219.007C68.9349 219.331 69.3838 219.795 69.6982 220.402C70.0173 221.003 70.1768 221.707 70.1768 222.514ZM65.1592 222.514C65.1592 223.179 65.248 223.687 65.4258 224.038C65.6035 224.385 65.902 224.558 66.3213 224.558C66.736 224.558 67.0277 224.385 67.1963 224.038C67.3695 223.687 67.4561 223.179 67.4561 222.514C67.4561 221.853 67.3695 221.354 67.1963 221.017C67.0231 220.68 66.7269 220.511 66.3076 220.511C65.8975 220.511 65.6035 220.68 65.4258 221.017C65.248 221.35 65.1592 221.849 65.1592 222.514ZM76.7598 226.404L76.2471 225.378H76.1924C75.8324 225.825 75.4655 226.13 75.0918 226.294C74.7181 226.458 74.235 226.54 73.6426 226.54C72.9134 226.54 72.3392 226.322 71.9199 225.884C71.5007 225.447 71.291 224.831 71.291 224.038C71.291 223.213 71.5781 222.601 72.1523 222.199C72.7266 221.794 73.5583 221.566 74.6475 221.516L75.9395 221.475V221.365C75.9395 220.727 75.625 220.408 74.9961 220.408C74.431 220.408 73.7132 220.6 72.8428 220.983L72.0703 219.219C72.9727 218.754 74.112 218.522 75.4883 218.522C76.4818 218.522 77.2497 218.768 77.792 219.26C78.3389 219.752 78.6123 220.44 78.6123 221.324V226.404H76.7598ZM74.7773 224.654C75.1009 224.654 75.3766 224.551 75.6045 224.346C75.8369 224.141 75.9531 223.874 75.9531 223.546V222.945L75.3379 222.972C74.4583 223.004 74.0186 223.327 74.0186 223.943C74.0186 224.417 74.2715 224.654 74.7773 224.654ZM85.1064 218.522C85.3389 218.522 85.5599 218.54 85.7695 218.576L85.9199 218.604L85.6807 221.126C85.4619 221.072 85.1589 221.044 84.7715 221.044C84.1882 221.044 83.7643 221.179 83.5 221.448C83.2357 221.712 83.1035 222.095 83.1035 222.596V226.404H80.4307V218.658H82.4199L82.8369 219.896H82.9668C83.1901 219.486 83.5 219.155 83.8965 218.905C84.2975 218.649 84.7008 218.522 85.1064 218.522ZM89.4131 226.54C88.8617 226.54 88.3786 226.383 87.9639 226.069C87.5537 225.754 87.2347 225.292 87.0068 224.681C86.7835 224.07 86.6719 223.357 86.6719 222.541C86.6719 221.283 86.9248 220.299 87.4307 219.588C87.9365 218.877 88.6315 218.522 89.5156 218.522C89.9486 218.522 90.3268 218.608 90.6504 218.781C90.9785 218.955 91.277 219.246 91.5459 219.656H91.6006C91.514 219.05 91.4707 218.444 91.4707 217.838V215.767H94.1641V226.404H92.1475L91.5732 225.426H91.4707C91.0104 226.169 90.3245 226.54 89.4131 226.54ZM90.5068 224.428C90.9352 224.428 91.236 224.294 91.4092 224.025C91.5869 223.756 91.6826 223.341 91.6963 222.781V222.569C91.6963 221.885 91.5983 221.4 91.4023 221.113C91.2064 220.821 90.8988 220.675 90.4795 220.675C90.1286 220.675 89.8551 220.841 89.6592 221.174C89.4678 221.502 89.3721 221.972 89.3721 222.582C89.3721 223.184 89.4701 223.642 89.666 223.956C89.862 224.271 90.1423 224.428 90.5068 224.428Z" fill="white"/>
<g filter="url(#filter3_d)">
<circle cx="81" cy="281.404" r="44" fill="#6480EB"/>
</g>
<path d="M80.582 269.404H78.2734L74.5469 262.923H74.4941C74.5684 264.068 74.6055 264.884 74.6055 265.372V269.404H72.9824V260.837H75.2734L78.9941 267.253H79.0352C78.9766 266.14 78.9473 265.353 78.9473 264.892V260.837H80.582V269.404ZM84.0273 266.116C84.0273 266.765 84.1328 267.255 84.3438 267.587C84.5586 267.919 84.9062 268.085 85.3867 268.085C85.8633 268.085 86.2051 267.921 86.4121 267.593C86.623 267.261 86.7285 266.769 86.7285 266.116C86.7285 265.468 86.623 264.982 86.4121 264.657C86.2012 264.333 85.8555 264.171 85.375 264.171C84.8984 264.171 84.5547 264.333 84.3438 264.657C84.1328 264.978 84.0273 265.464 84.0273 266.116ZM88.5566 266.116C88.5566 267.183 88.2754 268.017 87.7129 268.618C87.1504 269.22 86.3672 269.521 85.3633 269.521C84.7344 269.521 84.1797 269.384 83.6992 269.111C83.2188 268.833 82.8496 268.437 82.5918 267.921C82.334 267.406 82.2051 266.804 82.2051 266.116C82.2051 265.046 82.4844 264.214 83.043 263.62C83.6016 263.027 84.3867 262.73 85.3984 262.73C86.0273 262.73 86.582 262.866 87.0625 263.14C87.543 263.413 87.9121 263.806 88.1699 264.318C88.4277 264.829 88.5566 265.429 88.5566 266.116ZM60.707 285.404H58.8906V278.349H56.5645V276.837H63.0332V278.349H60.707V285.404ZM67.8672 278.73C68.1094 278.73 68.3105 278.747 68.4707 278.782L68.3359 280.458C68.1914 280.419 68.0156 280.4 67.8086 280.4C67.2383 280.4 66.793 280.546 66.4727 280.839C66.1562 281.132 65.998 281.542 65.998 282.07V285.404H64.2109V278.853H65.5645L65.8281 279.954H65.916C66.1191 279.587 66.3926 279.292 66.7363 279.07C67.084 278.843 67.4609 278.73 67.8672 278.73ZM73.8203 285.404L73.4746 284.513H73.4277C73.127 284.892 72.8164 285.156 72.4961 285.304C72.1797 285.448 71.7656 285.521 71.2539 285.521C70.625 285.521 70.1289 285.341 69.7656 284.982C69.4062 284.622 69.2266 284.111 69.2266 283.447C69.2266 282.751 69.4688 282.24 69.9531 281.911C70.4414 281.579 71.1758 281.396 72.1562 281.361L73.293 281.325V281.038C73.293 280.374 72.9531 280.042 72.2734 280.042C71.75 280.042 71.1348 280.2 70.4277 280.517L69.8359 279.31C70.5898 278.915 71.4258 278.718 72.3438 278.718C73.2227 278.718 73.8965 278.909 74.3652 279.292C74.834 279.675 75.0684 280.257 75.0684 281.038V285.404H73.8203ZM73.293 282.368L72.6016 282.392C72.082 282.407 71.6953 282.501 71.4414 282.673C71.1875 282.845 71.0605 283.107 71.0605 283.458C71.0605 283.962 71.3496 284.214 71.9277 284.214C72.3418 284.214 72.6719 284.095 72.918 283.857C73.168 283.618 73.293 283.302 73.293 282.907V282.368ZM82.9609 285.404H81.1738V281.577C81.1738 281.105 81.0898 280.751 80.9219 280.517C80.7539 280.279 80.4863 280.159 80.1191 280.159C79.6191 280.159 79.2578 280.327 79.0352 280.663C78.8125 280.995 78.7012 281.548 78.7012 282.322V285.404H76.9141V278.853H78.2793L78.5195 279.691H78.6191C78.8184 279.374 79.0918 279.136 79.4395 278.976C79.791 278.812 80.1895 278.73 80.6348 278.73C81.3965 278.73 81.9746 278.937 82.3691 279.351C82.7637 279.761 82.9609 280.355 82.9609 281.132V285.404ZM89.3711 283.458C89.3711 284.13 89.1367 284.642 88.668 284.993C88.2031 285.345 87.5059 285.521 86.5762 285.521C86.0996 285.521 85.6934 285.488 85.3574 285.421C85.0215 285.359 84.707 285.265 84.4141 285.14V283.663C84.7461 283.82 85.1191 283.95 85.5332 284.056C85.9512 284.161 86.3184 284.214 86.6348 284.214C87.2832 284.214 87.6074 284.027 87.6074 283.652C87.6074 283.511 87.5645 283.398 87.4785 283.312C87.3926 283.222 87.2441 283.122 87.0332 283.013C86.8223 282.9 86.541 282.769 86.1895 282.62C85.6855 282.409 85.3145 282.214 85.0762 282.034C84.8418 281.855 84.6699 281.65 84.5605 281.419C84.4551 281.185 84.4023 280.898 84.4023 280.558C84.4023 279.976 84.627 279.527 85.0762 279.21C85.5293 278.89 86.1699 278.73 86.998 278.73C87.7871 278.73 88.5547 278.902 89.3008 279.245L88.7617 280.534C88.4336 280.394 88.127 280.279 87.8418 280.189C87.5566 280.099 87.2656 280.054 86.9688 280.054C86.4414 280.054 86.1777 280.197 86.1777 280.482C86.1777 280.642 86.2617 280.781 86.4297 280.898C86.6016 281.015 86.9746 281.189 87.5488 281.419C88.0605 281.626 88.4355 281.82 88.6738 281.999C88.9121 282.179 89.0879 282.386 89.2012 282.62C89.3145 282.855 89.3711 283.134 89.3711 283.458ZM94.3633 285.521C93.5938 285.521 92.9902 285.241 92.5527 284.683H92.459C92.5215 285.23 92.5527 285.546 92.5527 285.632V288.286H90.7656V278.853H92.2188L92.4707 279.702H92.5527C92.9707 279.054 93.5898 278.73 94.4102 278.73C95.1836 278.73 95.7891 279.029 96.2266 279.626C96.6641 280.224 96.8828 281.054 96.8828 282.116C96.8828 282.816 96.7793 283.423 96.5723 283.939C96.3691 284.454 96.0781 284.847 95.6992 285.116C95.3203 285.386 94.875 285.521 94.3633 285.521ZM93.8359 280.159C93.3945 280.159 93.0723 280.296 92.8691 280.57C92.666 280.839 92.5605 281.286 92.5527 281.911V282.105C92.5527 282.808 92.6562 283.312 92.8633 283.616C93.0742 283.921 93.4062 284.073 93.8594 284.073C94.6602 284.073 95.0605 283.413 95.0605 282.093C95.0605 281.448 94.9609 280.966 94.7617 280.646C94.5664 280.322 94.2578 280.159 93.8359 280.159ZM102.52 285.404L102.174 284.513H102.127C101.826 284.892 101.516 285.156 101.195 285.304C100.879 285.448 100.465 285.521 99.9531 285.521C99.3242 285.521 98.8281 285.341 98.4648 284.982C98.1055 284.622 97.9258 284.111 97.9258 283.447C97.9258 282.751 98.168 282.24 98.6523 281.911C99.1406 281.579 99.875 281.396 100.855 281.361L101.992 281.325V281.038C101.992 280.374 101.652 280.042 100.973 280.042C100.449 280.042 99.834 280.2 99.127 280.517L98.5352 279.31C99.2891 278.915 100.125 278.718 101.043 278.718C101.922 278.718 102.596 278.909 103.064 279.292C103.533 279.675 103.768 280.257 103.768 281.038V285.404H102.52ZM101.992 282.368L101.301 282.392C100.781 282.407 100.395 282.501 100.141 282.673C99.8867 282.845 99.7598 283.107 99.7598 283.458C99.7598 283.962 100.049 284.214 100.627 284.214C101.041 284.214 101.371 284.095 101.617 283.857C101.867 283.618 101.992 283.302 101.992 282.907V282.368ZM62.207 299.919V298.454H65.3535V299.919H62.207ZM70.3105 295.73C70.5527 295.73 70.7539 295.747 70.9141 295.782L70.7793 297.458C70.6348 297.419 70.459 297.4 70.252 297.4C69.6816 297.4 69.2363 297.546 68.916 297.839C68.5996 298.132 68.4414 298.542 68.4414 299.07V302.404H66.6543V295.853H68.0078L68.2715 296.954H68.3594C68.5625 296.587 68.8359 296.292 69.1797 296.07C69.5273 295.843 69.9043 295.73 70.3105 295.73ZM74.8164 297.001C74.4375 297.001 74.1406 297.122 73.9258 297.365C73.7109 297.603 73.5879 297.943 73.5566 298.384H76.0645C76.0566 297.943 75.9414 297.603 75.7188 297.365C75.4961 297.122 75.1953 297.001 74.8164 297.001ZM75.0684 302.521C74.0137 302.521 73.1895 302.23 72.5957 301.648C72.002 301.066 71.7051 300.241 71.7051 299.175C71.7051 298.077 71.9785 297.23 72.5254 296.632C73.0762 296.031 73.8359 295.73 74.8047 295.73C75.7305 295.73 76.4512 295.993 76.9668 296.521C77.4824 297.048 77.7402 297.777 77.7402 298.706V299.573H73.5156C73.5352 300.081 73.6855 300.478 73.9668 300.763C74.248 301.048 74.6426 301.191 75.1504 301.191C75.5449 301.191 75.918 301.15 76.2695 301.068C76.6211 300.986 76.9883 300.855 77.3711 300.675V302.058C77.0586 302.214 76.7246 302.329 76.3691 302.404C76.0137 302.482 75.5801 302.521 75.0684 302.521ZM85.2402 302.404H83.4531V298.577C83.4531 298.105 83.3691 297.751 83.2012 297.517C83.0332 297.279 82.7656 297.159 82.3984 297.159C81.8984 297.159 81.5371 297.327 81.3145 297.663C81.0918 297.995 80.9805 298.548 80.9805 299.322V302.404H79.1934V295.853H80.5586L80.7988 296.691H80.8984C81.0977 296.374 81.3711 296.136 81.7188 295.976C82.0703 295.812 82.4688 295.73 82.9141 295.73C83.6758 295.73 84.2539 295.937 84.6484 296.351C85.043 296.761 85.2402 297.355 85.2402 298.132V302.404ZM89.7402 302.521C87.7012 302.521 86.6816 301.402 86.6816 299.163C86.6816 298.05 86.959 297.2 87.5137 296.615C88.0684 296.025 88.8633 295.73 89.8984 295.73C90.6562 295.73 91.3359 295.878 91.9375 296.175L91.4102 297.558C91.1289 297.445 90.8672 297.353 90.625 297.282C90.3828 297.208 90.1406 297.171 89.8984 297.171C88.9688 297.171 88.5039 297.831 88.5039 299.152C88.5039 300.433 88.9688 301.073 89.8984 301.073C90.2422 301.073 90.5605 301.029 90.8535 300.939C91.1465 300.845 91.4395 300.7 91.7324 300.505V302.034C91.4434 302.218 91.1504 302.345 90.8535 302.415C90.5605 302.486 90.1895 302.521 89.7402 302.521ZM92.3184 295.853H94.2754L95.5117 299.538C95.6172 299.859 95.6895 300.238 95.7285 300.675H95.7637C95.8066 300.273 95.8906 299.894 96.0156 299.538L97.2285 295.853H99.1445L96.373 303.241C96.1191 303.925 95.7559 304.437 95.2832 304.777C94.8145 305.116 94.2656 305.286 93.6367 305.286C93.3281 305.286 93.0254 305.253 92.7285 305.187V303.769C92.9434 303.82 93.1777 303.845 93.4316 303.845C93.748 303.845 94.0234 303.747 94.2578 303.552C94.4961 303.361 94.6816 303.07 94.8145 302.679L94.9199 302.357L92.3184 295.853Z" fill="white"/>
<defs>
<filter id="filter0_d" x="213" y="166" width="118" height="118" filterUnits="userSpaceOnUse" color-interpolation-filters="sRGB">
<feFlood flood-opacity="0" result="BackgroundImageFix"/>
<feColorMatrix in="SourceAlpha" type="matrix" values="0 0 0 0 0 0 0 0 0 0 0 0 0 0 0 0 0 0 127 0"/>
<feOffset dy="6"/>
<feGaussianBlur stdDeviation="7.5"/>
<feColorMatrix type="matrix" values="0 0 0 0 0 0 0 0 0 0 0 0 0 0 0 0 0 0 0.05 0"/>
<feBlend mode="normal" in2="BackgroundImageFix" result="effect1_dropShadow"/>
<feBlend mode="normal" in="SourceGraphic" in2="effect1_dropShadow" result="shape"/>
</filter>
<filter id="filter1_d" x="207" y="0" width="118" height="118" filterUnits="userSpaceOnUse" color-interpolation-filters="sRGB">
<feFlood flood-opacity="0" result="BackgroundImageFix"/>
<feColorMatrix in="SourceAlpha" type="matrix" values="0 0 0 0 0 0 0 0 0 0 0 0 0 0 0 0 0 0 127 0"/>
<feOffset dy="6"/>
<feGaussianBlur stdDeviation="7.5"/>
<feColorMatrix type="matrix" values="0 0 0 0 0 0 0 0 0 0 0 0 0 0 0 0 0 0 0.05 0"/>
<feBlend mode="normal" in2="BackgroundImageFix" result="effect1_dropShadow"/>
<feBlend mode="normal" in="SourceGraphic" in2="effect1_dropShadow" result="shape"/>
</filter>
<filter id="filter2_d" x="0" y="16" width="118" height="118" filterUnits="userSpaceOnUse" color-interpolation-filters="sRGB">
<feFlood flood-opacity="0" result="BackgroundImageFix"/>
<feColorMatrix in="SourceAlpha" type="matrix" values="0 0 0 0 0 0 0 0 0 0 0 0 0 0 0 0 0 0 127 0"/>
<feOffset dy="6"/>
<feGaussianBlur stdDeviation="7.5"/>
<feColorMatrix type="matrix" values="0 0 0 0 0 0 0 0 0 0 0 0 0 0 0 0 0 0 0.05 0"/>
<feBlend mode="normal" in2="BackgroundImageFix" result="effect1_dropShadow"/>
<feBlend mode="normal" in="SourceGraphic" in2="effect1_dropShadow" result="shape"/>
</filter>
<filter id="filter3_d" x="22" y="228.404" width="118" height="118" filterUnits="userSpaceOnUse" color-interpolation-filters="sRGB">
<feFlood flood-opacity="0" result="BackgroundImageFix"/>
<feColorMatrix in="SourceAlpha" type="matrix" values="0 0 0 0 0 0 0 0 0 0 0 0 0 0 0 0 0 0 127 0"/>
<feOffset dy="6"/>
<feGaussianBlur stdDeviation="7.5"/>
<feColorMatrix type="matrix" values="0 0 0 0 0 0 0 0 0 0 0 0 0 0 0 0 0 0 0.05 0"/>
<feBlend mode="normal" in2="BackgroundImageFix" result="effect1_dropShadow"/>
<feBlend mode="normal" in="SourceGraphic" in2="effect1_dropShadow" result="shape"/>
</filter>
</defs>
</svg>
