<svg width="54" height="51" viewBox="0 0 54 51" fill="none" xmlns="http://www.w3.org/2000/svg">
<path d="M8.432 49.318H45.8111C48.1738 49.318 50.103 47.3894 50.103 45.0267V20.2073C50.103 17.8447 48.1738 15.916 45.8111 15.916H8.432C6.06934 15.916 4.14014 17.8447 4.14014 20.2073V45.0267C4.14014 47.3894 6.06934 49.318 8.432 49.318Z" fill="white" stroke="#6480EB" stroke-width="2" stroke-miterlimit="10"/>
<path d="M9.55247 8.59396L9.85128 7.35882C10.1533 6.11056 11.0172 3.37225 13.4849 1.91409L9.55247 8.59396ZM9.55247 8.59396H10.8232M9.55247 8.59396H10.8232M10.8232 8.59396H10.8546H10.886H10.9173H10.9487H10.9801H11.0114H11.0428H11.0741H11.1055H11.1369H11.1682H11.1996H11.231H11.2623H11.2937H11.325H11.3564H11.3878H11.4191H11.4505H11.4818H11.5132H11.5446H11.5759H11.6073H11.6386H11.67H11.7014H11.7327H11.7641H11.7955H11.8268H11.8582H11.8895H11.9209H11.9523H11.9836H12.015H12.0463H12.0777H12.1091H12.1404H12.1718H12.2031H12.2345H12.2659H12.2972H12.3286H12.3599H12.3913H12.4227H12.454H12.4854H12.5167H12.5481H12.5795H12.6108H12.6422H12.6735H12.7049H12.7363H12.7676H12.799H12.8303H12.8617H12.893H12.9244H12.9558H12.9871H13.0185H13.0498H13.0812H13.1126H13.1439H13.1753H13.2066H13.238H13.2694H13.3007H13.3321H13.3634H13.3948H13.4261H13.4575H13.4889H13.5202H13.5516H13.5829H13.6143H13.6457H13.677H13.7084H13.7397H13.7711H13.8024H13.8338H13.8652H13.8965H13.9279H13.9592H13.9906H14.0219H14.0533H14.0847H14.116H14.1474H14.1787H14.2101H14.2414H14.2728H14.3042H14.3355H14.3669H14.3982H14.4296H14.4609H14.4923H14.5237H14.555H14.5864H14.6177H14.6491H14.6804H14.7118H14.7432H14.7745H14.8059H14.8372H14.8686H14.8999H14.9313H14.9627H14.994H15.0254H15.0567H15.0881H15.1194H15.1508H15.1821H15.2135H15.2449H15.2762H15.3076H15.3389H15.3703H15.4016H15.433H15.4644H15.4957H15.5271H15.5584H15.5898H15.6211H15.6525H15.6838H15.7152H15.7466H15.7779H15.8093H15.8406H15.872H15.9033H15.9347H15.966H15.9974H16.0288H16.0601H16.0915H16.1228H16.1542H16.1855H16.2169H16.2482H16.2796H16.311H16.3423H16.3737H16.405H16.4364H16.4677H16.4991H16.5304H16.5618H16.5932H16.6245H16.6559H16.6872H16.7186H16.7499H16.7813H16.8126H16.844H16.8754H16.9067H16.9381H16.9694H17.0008H17.0321H17.0635H17.0948H17.1262H17.1575H17.1889H17.2203H17.2516H17.283H17.3143H17.3457H17.377H17.4084H17.4397H17.4711H17.5024H17.5338H17.5652H17.5965H17.6279H17.6592H17.6906H17.7219H17.7533H17.7846H17.816H17.8474H17.8787H17.9101H17.9414H17.9728H18.0041H18.0355H18.0668H18.0982H18.1295H18.1609H18.1923H18.2236H18.255H18.2863H18.3177H18.349H18.3804H18.4117H18.4431H18.4744H18.5058H18.5372H18.5685H18.5999H18.6312H18.6626H18.6939H18.7253H18.7566H18.788H18.8193H18.8507H18.8821H18.9134H18.9448H18.9761H19.0075H19.0388H19.0702H19.1015H19.1329H19.1642H19.1956H19.227H19.2583H19.2897H19.321H19.3524H19.3837H19.4151H19.4464H19.4778H19.5091H19.5405H19.5719H19.6032H19.6346H19.6659H19.6973H19.7286H19.76H19.7913H19.8227H19.854H19.8854H19.9168H19.9481H19.9795H20.0108H20.0422H20.0735H20.1049H20.1362H20.1676H20.199H20.2303H20.2617H20.293H20.3244H20.3557H20.3871H20.4184H20.4498H20.4811H20.5125H20.5439H20.5752H20.6066H20.6379H20.6693H20.7006H20.732H20.7633H20.7947H20.8261H20.8574H20.8888H20.9201H20.9515H20.9828H21.0142H21.0455H21.0769H21.1082H21.1396H21.171H21.2023H21.2337H21.265H21.2964H21.3277H21.3591H21.3904H21.4218H21.4532H21.4845H21.5159H21.5472H21.5786H21.6099H21.6413H21.6726H21.704H21.7354H21.7667H21.7981H21.8294H21.8608H21.8921H21.9235H21.9548H21.9862H22.0176H22.0489H22.0803H22.1116H22.143H22.1743H22.2057H22.237H22.2684H22.2998H22.3311H22.3625H22.3938H22.4252H22.4565H22.4879H22.5193H22.5506H22.582H22.6133H22.6447H22.676H22.7074H22.7387H22.7701H22.8015H22.8328H22.8642H22.8955H22.9269H22.9582H22.9896H23.021H23.0523H23.0837H23.115H23.1464H23.1777H23.2091H23.2405H23.2718H23.3032H23.3345H23.3659H23.3972H23.4286H23.46H23.4913H23.5227H23.554H23.5854H23.6167H23.6481H23.6795H23.7108H23.7422H23.7735H23.8049H23.8362H23.8676H23.899H23.9303H23.9617H23.993H24.0244H24.0557H24.0871H24.1185H24.1498H24.1812H24.2125H24.2439H24.2753H24.3066H24.338H24.3693H24.4007H24.432H24.4634H24.4948H24.5261H24.5575H24.5888H24.6202H24.6516H24.6829H24.7143H24.7456H24.777H24.8084H24.8397H24.8711H24.9024H24.9338H24.9651H24.9965H25.0279H25.0592H25.0906H25.1219H25.1533H25.1847H25.216H25.2474H25.2787H25.3101H25.3415H25.3728H25.4042H25.4355H25.4669H25.4983H25.5296H25.561H25.5923H25.6237H25.6551H25.6864H25.7178H25.7491H25.7805H25.8119H25.8432H25.8746H25.9059H25.9373H25.9687H26H26.0314H26.0628H26.0941H26.1255H26.1568H26.1882H26.2196H26.2509H26.2823H26.3136H26.345H26.3764H26.4077H26.4391H26.4705H26.5018H26.5332H26.5645H26.5959H26.6273H26.6586H26.69H26.7213H26.7527H26.7841H26.8154H26.8468H26.8782H28.8727M10.8232 8.59396H28.8727M28.8727 8.59396L27.6795 6.99572M28.8727 8.59396L27.6795 6.99572M27.6795 6.99572C25.7113 4.35945 23.1583 2.54086 20.6202 1.64353M27.6795 6.99572L20.6202 1.64353M20.6202 1.64353C18.1036 0.753784 15.479 0.73506 13.4852 1.91388L20.6202 1.64353Z" fill="white" stroke="#6480EB" stroke-width="2" stroke-miterlimit="10"/>
<path d="M44.4082 8.59396H43.1374H43.1061H43.0747H43.0434H43.012H42.9806H42.9493H42.9179H42.8865H42.8552H42.8238H42.7925H42.7611H42.7297H42.6984H42.667H42.6356H42.6043H42.5729H42.5416H42.5102H42.4788H42.4475H42.4161H42.3848H42.3534H42.322H42.2907H42.2593H42.2279H42.1966H42.1652H42.1339H42.1025H42.0711H42.0398H42.0084H41.9771H41.9457H41.9143H41.883H41.8516H41.8203H41.7889H41.7575H41.7262H41.6948H41.6635H41.6321H41.6007H41.5694H41.538H41.5067H41.4753H41.4439H41.4126H41.3812H41.3499H41.3185H41.2871H41.2558H41.2244H41.1931H41.1617H41.1303H41.099H41.0676H41.0363H41.0049H40.9736H40.9422H40.9108H40.8795H40.8481H40.8168H40.7854H40.754H40.7227H40.6913H40.66H40.6286H40.5973H40.5659H40.5345H40.5032H40.4718H40.4405H40.4091H40.3777H40.3464H40.315H40.2837H40.2523H40.221H40.1896H40.1582H40.1269H40.0955H40.0642H40.0328H40.0015H39.9701H39.9387H39.9074H39.876H39.8447H39.8133H39.7819H39.7506H39.7192H39.6879H39.6565H39.6252H39.5938H39.5624H39.5311H39.4997H39.4684H39.437H39.4057H39.3743H39.3429H39.3116H39.2802H39.2489H39.2175H39.1862H39.1548H39.1235H39.0921H39.0607H39.0294H38.998H38.9667H38.9353H38.904H38.8726H38.8412H38.8099H38.7785H38.7472H38.7158H38.6845H38.6531H38.6218H38.5904H38.559H38.5277H38.4963H38.465H38.4336H38.4023H38.3709H38.3395H38.3082H38.2768H38.2455H38.2141H38.1828H38.1514H38.1201H38.0887H38.0573H38.026H37.9946H37.9633H37.9319H37.9006H37.8692H37.8379H37.8065H37.7751H37.7438H37.7124H37.6811H37.6497H37.6184H37.587H37.5557H37.5243H37.4929H37.4616H37.4302H37.3989H37.3675H37.3362H37.3048H37.2735H37.2421H37.2107H37.1794H37.148H37.1167H37.0853H37.054H37.0226H36.9913H36.9599H36.9286H36.8972H36.8658H36.8345H36.8031H36.7718H36.7404H36.7091H36.6777H36.6464H36.615H36.5836H36.5523H36.5209H36.4896H36.4582H36.4269H36.3955H36.3642H36.3328H36.3015H36.2701H36.2387H36.2074H36.176H36.1447H36.1133H36.082H36.0506H36.0193H35.9879H35.9566H35.9252H35.8938H35.8625H35.8311H35.7998H35.7684H35.7371H35.7057H35.6744H35.643H35.6117H35.5803H35.5489H35.5176H35.4862H35.4549H35.4235H35.3922H35.3608H35.3295H35.2981H35.2668H35.2354H35.204H35.1727H35.1413H35.11H35.0786H35.0473H35.0159H34.9846H34.9532H34.9219H34.8905H34.8591H34.8278H34.7964H34.7651H34.7337H34.7024H34.671H34.6397H34.6083H34.577H34.5456H34.5142H34.4829H34.4515H34.4202H34.3888H34.3575H34.3261H34.2948H34.2634H34.232H34.2007H34.1693H34.138H34.1066H34.0753H34.0439H34.0126H33.9812H33.9499H33.9185H33.8871H33.8558H33.8244H33.7931H33.7617H33.7304H33.699H33.6677H33.6363H33.605H33.5736H33.5422H33.5109H33.4795H33.4482H33.4168H33.3855H33.3541H33.3228H33.2914H33.26H33.2287H33.1973H33.166H33.1346H33.1033H33.0719H33.0406H33.0092H32.9779H32.9465H32.9151H32.8838H32.8524H32.8211H32.7897H32.7584H32.727H32.6957H32.6643H32.6329H32.6016H32.5702H32.5389H32.5075H32.4762H32.4448H32.4135H32.3821H32.3507H32.3194H32.288H32.2567H32.2253H32.194H32.1626H32.1313H32.0999H32.0685H32.0372H32.0058H31.9745H31.9431H31.9118H31.8804H31.8491H31.8177H31.7863H31.755H31.7236H31.6923H31.6609H31.6296H31.5982H31.5669H31.5355H31.5041H31.4728H31.4414H31.4101H31.3787H31.3474H31.316H31.2846H31.2533H31.2219H31.1906H31.1592H31.1279H31.0965H31.0651H31.0338H31.0024H30.9711H30.9397H30.9084H30.877H30.8457H30.8143H30.7829H30.7516H30.7202H30.6889H30.6575H30.6262H30.5948H30.5634H30.5321H30.5007H30.4694H30.438H30.4067H30.3753H30.3439H30.3126H30.2812H30.2499H30.2185H30.1871H30.1558H30.1244H30.0931H30.0617H30.0304H29.999H29.9676H29.9363H29.9049H29.8736H29.8422H29.8109H29.7795H29.7481H29.7168H29.6854H29.6541H29.6227H29.5913H29.56H29.5286H29.4973H29.4659H29.4346H29.4032H29.3718H29.3405H29.3091H29.2778H29.2464H29.215H29.1837H29.1523H29.121H29.0896H29.0582H29.0269H28.9955H28.9642H28.9328H28.9015H28.8701H28.8387H28.8074H28.776H28.7447H28.7133H28.6819H28.6506H28.6192H28.5879H28.5565H28.5251H28.4938H28.4624H28.4311H28.3997H28.3683H28.337H28.3056H28.2743H28.2429H28.2115H28.1802H28.1488H28.1175H28.0861H28.0547H28.0234H27.992H27.9606H27.9293H27.8979H27.8666H27.8352H27.8038H27.7725H27.7411H27.7098H27.6784H27.647H27.6157H27.5843H27.553H27.5216H27.4902H27.4589H27.4275H27.3961H27.3648H27.3334H27.3021H27.2707H27.2393H27.208H27.1766H27.1452H27.1139H27.0825H25.088L26.2812 6.99572C28.2494 4.35945 30.8024 2.54086 33.3405 1.64353C35.8571 0.753784 38.4817 0.73506 40.4754 1.91388L44.4082 8.59396ZM44.4082 8.59396L44.1094 7.35882M44.4082 8.59396L44.1094 7.35882M44.1094 7.35882C43.8074 6.11056 42.9435 3.37225 40.4758 1.91409L44.1094 7.35882Z" fill="white" stroke="#6480EB" stroke-width="2" stroke-miterlimit="10"/>
<path d="M5.24851 23.1497H48.7515C51.0934 23.1497 53 21.2326 53 18.891V11.6972C53 9.35561 51.0934 7.43848 48.7515 7.43848H5.24851C2.90658 7.43848 1 9.35561 1 11.6972V18.891C1 21.2326 2.90658 23.1497 5.24851 23.1497Z" fill="white" stroke="#6480EB" stroke-width="2" stroke-miterlimit="10"/>
<path d="M31.9118 36.2484C32.0872 36.3846 32.3029 36.4585 32.525 36.4585H32.5277C33.08 36.4585 33.5277 36.0107 33.5277 35.4585V7.45898C33.5277 6.9067 33.08 6.45898 32.5277 6.45898H21.6074C21.0551 6.45898 20.6074 6.9067 20.6074 7.45898V7.47576V7.49298V7.51064V7.52875V7.54729V7.56628V7.58569V7.60555V7.62584V7.64655V7.6677V7.68928V7.71128V7.7337V7.75655V7.77982V7.80351V7.82761V7.85213V7.87707V7.90241V7.92817V7.95433V7.98091V8.00788V8.03526V8.06304V8.09122V8.1198V8.14878V8.17815V8.20791V8.23807V8.26861V8.29954V8.33085V8.36255V8.39464V8.4271V8.45994V8.49316V8.52676V8.56072V8.59506V8.62977V8.66485V8.7003V8.73611V8.77228V8.80881V8.84571V8.88296V8.92057V8.95853V8.99684V9.03551V9.07452V9.11388V9.15359V9.19364V9.23404V9.27477V9.31584V9.35725V9.399V9.44108V9.48349V9.52623V9.5693V9.61269V9.65641V9.70045V9.74482V9.7895V9.8345V9.87982V9.92545V9.97139V10.0176V10.0642V10.1111V10.1583V10.2057V10.2535V10.3016V10.35V10.3987V10.4476V10.4969V10.5464V10.5963V10.6464V10.6968V10.7476V10.7985V10.8498V10.9014V10.9532V11.0053V11.0577V11.1103V11.1632V11.2164V11.2699V11.3236V11.3776V11.4318V11.4863V11.5411V11.5961V11.6514V11.7069V11.7627V11.8187V11.875V11.9315V11.9883V12.0453V12.1026V12.1601V12.2178V12.2757V12.3339V12.3924V12.451V12.5099V12.569V12.6284V12.6879V12.7477V12.8077V12.868V12.9284V12.9891V13.0499V13.111V13.1723V13.2338V13.2955V13.3574V13.4195V13.4818V13.5443V13.607V13.6699V13.733V13.7963V13.8598V13.9235V13.9873V14.0514V14.1156V14.18V14.2446V14.3093V14.3743V14.4394V14.5047V14.5701V14.6358V14.7016V14.7675V14.8336V14.8999V14.9664V15.033V15.0997V15.1667V15.2337V15.3009V15.3683V15.4358V15.5035V15.5713V15.6393V15.7074V15.7756V15.844V15.9125V15.9811V16.0499V16.1188V16.1879V16.257V16.3263V16.3957V16.4653V16.5349V16.6047V16.6746V16.7446V16.8147V16.885V16.9553V17.0258V17.0963V17.167V17.2378V17.3086V17.3796V17.4507V17.5218V17.5931V17.6644V17.7359V17.8074V17.879V17.9507V18.0225V18.0944V18.1663V18.2383V18.3104V18.3826V18.4549V18.5272V18.5996V18.672V18.7446V18.8172V18.8898V18.9625V19.0353V19.1081V19.181V19.254V19.327V19.4V19.4731V19.5462V19.6194V19.6927V19.7659V19.8392V19.9126V19.986V20.0594V20.1328V20.2063V20.2799V20.3534V20.427V20.5006V20.5742V20.6478V20.7215V20.7951V20.8688V20.9425V21.0163V21.09V21.1637V21.2375V21.3112V21.385V21.4587V21.5325V21.6062V21.68V21.7537V21.8275V21.9012V21.9749V22.0486V22.1223V22.196V22.2696V22.3433V22.4169V22.4905V22.564V22.6376V22.7111V22.7846V22.8581V22.9315V23.0049V23.0782V23.1515V23.2248V23.298V23.3712V23.4444V23.5174V23.5905V23.6635V23.7364V23.8093V23.8821V23.9549V24.0276V24.1003V24.1729V24.2454V24.3179V24.3903V24.4626V24.5348V24.607V24.6791V24.7511V24.8231V24.895V24.9667V25.0384V25.1101V25.1816V25.253V25.3244V25.3956V25.4668V25.5378V25.6088V25.6797V25.7505V25.8211V25.8917V25.9621V26.0325V26.1027V26.1728V26.2428V26.3127V26.3825V26.4522V26.5217V26.5911V26.6604V26.7296V26.7986V26.8675V26.9363V27.0049V27.0735V27.1418V27.2101V27.2782V27.3461V27.4139V27.4816V27.5491V27.6165V27.6837V27.7508V27.8177V27.8845V27.9511V28.0175V28.0838V28.1499V28.2159V28.2817V28.3473V28.4128V28.4781V28.5432V28.6081V28.6729V28.7375V28.8019V28.8661V28.9301V28.994V29.0576V29.1211V29.1844V29.2475V29.3104V29.3731V29.4356V29.4979V29.56V29.6219V29.6837V29.7451V29.8064V29.8675V29.9284V29.989V30.0495V30.1097V30.1697V30.2295V30.2891V30.3484V30.4075V30.4664V30.5251V30.5835V30.6417V30.6997V30.7574V30.8149V30.8721V30.9291V30.9859V31.0424V31.0987V31.1547V31.2105V31.2661V31.3213V31.3764V31.4311V31.4856V31.5399V31.5939V31.6476V31.701V31.7542V31.8071V31.8598V31.9122V31.9643V32.0161V32.0676V32.1189V32.1699V32.2206V32.271V32.3212V32.371V32.4206V32.4698V32.5188V32.5675V32.6159V32.6639V32.7117V32.7592V32.8064V32.8532V32.8998V32.9461V32.992V33.0376V33.0829V33.1279V33.1726V33.217V33.261V33.3048V33.3482V33.3912V33.434V33.4764V33.5184V33.5602V33.6016V33.6427V33.6834V33.7238V33.7639V33.8036V33.8429V33.8819V33.9206V33.9589V33.9969V34.0345V34.0717V34.1086V34.1452V34.1813V34.2171V34.2526V34.2877V34.3224V34.3567V34.3907V34.4243V34.4575V34.4903V34.5228V34.5549V34.5866V34.6179V34.6488V34.6794V34.7095V34.7393V34.7687V34.7976V34.8262V34.8544V34.8822V34.9096V34.9365V34.9631V34.9893V35.015V35.0404V35.0653V35.0898V35.1139V35.1376V35.1609V35.1837V35.2062V35.2282V35.2497V35.2709V35.2916V35.3119V35.3318V35.3512V35.3702V35.3887V35.4068V35.4245V35.4417V35.4585C20.6074 35.8401 20.8246 36.1884 21.1672 36.3564C21.5098 36.5243 21.9182 36.4827 22.2199 36.249C23.8356 34.9972 25.4513 33.7434 27.0667 32.4895C28.6816 33.741 30.2965 34.9946 31.9118 36.2484Z" fill="white" stroke="#00D7AF" stroke-width="2" stroke-miterlimit="10" stroke-linejoin="round"/>
</svg>
