<svg width="52" height="51" viewBox="0 0 52 51" fill="none" xmlns="http://www.w3.org/2000/svg">
<path d="M1 49.4372V14.0205L17.6667 10.8955V45.7913L1 49.4372Z" stroke="#6480EB" stroke-width="2" stroke-linecap="round" stroke-linejoin="round"/>
<path d="M34.334 49.4372V14.0205L17.6673 10.8955V45.7913L34.334 49.4372Z" stroke="#6480EB" stroke-width="2" stroke-linecap="round" stroke-linejoin="round"/>
<path d="M34.334 49.4372V14.0205L51.0007 10.8955V45.7913L34.334 49.4372Z" stroke="#6480EB" stroke-width="2" stroke-linecap="round" stroke-linejoin="round"/>
<path fill-rule="evenodd" clip-rule="evenodd" d="M15.4072 11.2904C15.4072 19.5146 23.252 25.8588 25.5767 25.8588C27.9014 25.8588 35.7462 19.7251 35.7462 11.2904C35.7462 5.60725 31.1934 1 25.5767 1C19.9601 1 15.4072 5.60725 15.4072 11.2904Z" fill="white" stroke="#6480EB" stroke-width="2"/>
<path fill-rule="evenodd" clip-rule="evenodd" d="M20.9229 11.112C20.9229 8.57337 22.9949 6.51562 25.5512 6.51562C28.1074 6.51562 30.1795 8.57337 30.1795 11.112C30.1795 13.6506 28.1074 15.7084 25.5512 15.7084C22.9949 15.7084 20.9229 13.6506 20.9229 11.112Z" stroke="#00D7AF" stroke-width="2"/>
</svg>
