<svg width="130" height="130" viewBox="0 0 130 130" fill="none" xmlns="http://www.w3.org/2000/svg">
<g filter="url(#filter0_d)">
<circle cx="65" cy="59" r="50" fill="white"/>
</g>
<mask id="path-2-inside-1" fill="white">
<path fill-rule="evenodd" clip-rule="evenodd" d="M65 82H56.5C54.8431 82 53.5 80.6569 53.5 79C53.5 77.3431 54.8431 76 56.5 76H62L62 69H68V76H73.5C75.1569 76 76.5 77.3431 76.5 79C76.5 80.6569 75.1569 82 73.5 82H65Z"/>
</mask>
<path d="M62 76V78H64V76L62 76ZM62 69V67H60L60 69L62 69ZM68 69H70V67H68V69ZM68 76H66V78H68V76ZM65 80H56.5V84H65V80ZM56.5 80C55.9477 80 55.5 79.5523 55.5 79H51.5C51.5 81.7614 53.7386 84 56.5 84V80ZM55.5 79C55.5 78.4477 55.9477 78 56.5 78V74C53.7386 74 51.5 76.2386 51.5 79H55.5ZM56.5 78H62V74H56.5V78ZM64 76L64 69L60 69L60 76L64 76ZM62 71H68V67H62V71ZM66 69V76H70V69H66ZM68 78H73.5V74H68V78ZM73.5 78C74.0523 78 74.5 78.4477 74.5 79H78.5C78.5 76.2386 76.2614 74 73.5 74V78ZM74.5 79C74.5 79.5523 74.0523 80 73.5 80V84C76.2614 84 78.5 81.7614 78.5 79H74.5ZM73.5 80H65V84H73.5V80Z" fill="#6480EB" mask="url(#path-2-inside-1)"/>
<rect x="41" y="38" width="48" height="32" rx="5" stroke="#6480EB" stroke-width="2"/>
<circle cx="50" cy="47" r="4" stroke="#6480EB" stroke-width="2"/>
<path d="M61 52.5L67.4432 59.25L79 48" stroke="#00D7AF" stroke-width="2" stroke-linecap="round" stroke-linejoin="round"/>
<defs>
<filter id="filter0_d" x="0" y="0" width="130" height="130" filterUnits="userSpaceOnUse" color-interpolation-filters="sRGB">
<feFlood flood-opacity="0" result="BackgroundImageFix"/>
<feColorMatrix in="SourceAlpha" type="matrix" values="0 0 0 0 0 0 0 0 0 0 0 0 0 0 0 0 0 0 127 0"/>
<feOffset dy="6"/>
<feGaussianBlur stdDeviation="7.5"/>
<feColorMatrix type="matrix" values="0 0 0 0 0 0 0 0 0 0 0 0 0 0 0 0 0 0 0.05 0"/>
<feBlend mode="normal" in2="BackgroundImageFix" result="effect1_dropShadow"/>
<feBlend mode="normal" in="SourceGraphic" in2="effect1_dropShadow" result="shape"/>
</filter>
</defs>
</svg>
