<svg xmlns="http://www.w3.org/2000/svg" width="37" height="37" viewBox="0 0 37 37">
    <g fill="none" fill-rule="evenodd" stroke="#99BBC1" transform="translate(1 1)">
        <path fill="#99BBC1" stroke-width=".5" d="M23.271 17.674a5.597 5.597 0 0 0-5.597-5.597 5.604 5.604 0 0 0-5.597 5.597 5.597 5.597 0 0 0 5.597 5.597 5.591 5.591 0 0 0 5.597-5.597m-.105-6.355a.9.9 0 1 0 0 1.802.9.9 0 1 0 0-1.802m-10.064-1.293h9.153a3.08 3.08 0 0 1 3.077 3.076v9.153a3.08 3.08 0 0 1-3.077 3.077h-9.153a3.08 3.08 0 0 1-3.076-3.077v-9.153a3.08 3.08 0 0 1 3.076-3.076M22.255 9h-9.153A4.113 4.113 0 0 0 9 13.102v9.153a4.12 4.12 0 0 0 4.102 4.102h9.153a4.113 4.113 0 0 0 4.102-4.102v-9.153A4.107 4.107 0 0 0 22.255 9m-9.01 8.674a4.438 4.438 0 0 1 4.429-4.438 4.44 4.44 0 0 1 4.437 4.438 4.434 4.434 0 1 1-8.865 0"/>
        <circle cx="17.5" cy="17.5" r="17.5" stroke-width="2"/>
    </g>
</svg>
