<svg width="71" height="55" viewBox="0 0 71 55" fill="none" xmlns="http://www.w3.org/2000/svg">
<g filter="url(#filter0_d)">
<path d="M20 42.4595C14.4772 42.4595 10 37.9823 10 32.4595L10 26.2726C10 24.3216 10.5707 22.4132 11.6419 20.7825L18.585 10.2122C19.492 8.8315 21.033 8 22.685 8C26.1941 8 28.5683 11.5773 27.2051 14.8109L25.3482 19.2158C24.5343 21.1463 25.9517 23.282 28.0467 23.282C29.6641 23.282 30.9753 24.5932 30.9753 26.2106V32.8707C30.9753 38.1664 26.6823 42.4595 21.3866 42.4595H20Z" fill="#5169C8"/>
<path d="M50.0244 42.4595C44.5016 42.4595 40.0244 37.9823 40.0244 32.4595V26.2726C40.0244 24.3216 40.5951 22.4132 41.6663 20.7825L48.6095 10.2122C49.5164 8.8315 51.0574 8 52.7094 8C56.2186 8 58.5927 11.5773 57.2295 14.8109L55.3726 19.2158C54.5587 21.1463 55.9761 23.282 58.0712 23.282C59.6886 23.282 60.9997 24.5932 60.9997 26.2106V32.8707C60.9997 38.1664 56.7067 42.4595 51.411 42.4595H50.0244Z" fill="#5169C8"/>
</g>
<defs>
<filter id="filter0_d" x="0" y="0" width="70.9997" height="54.4595" filterUnits="userSpaceOnUse" color-interpolation-filters="sRGB">
<feFlood flood-opacity="0" result="BackgroundImageFix"/>
<feColorMatrix in="SourceAlpha" type="matrix" values="0 0 0 0 0 0 0 0 0 0 0 0 0 0 0 0 0 0 127 0"/>
<feOffset dy="2"/>
<feGaussianBlur stdDeviation="5"/>
<feColorMatrix type="matrix" values="0 0 0 0 0.392157 0 0 0 0 0.501961 0 0 0 0 0.921569 0 0 0 0.07 0"/>
<feBlend mode="normal" in2="BackgroundImageFix" result="effect1_dropShadow"/>
<feBlend mode="normal" in="SourceGraphic" in2="effect1_dropShadow" result="shape"/>
</filter>
</defs>
</svg>
