<svg width="100" height="68" viewBox="0 0 100 68" fill="none" xmlns="http://www.w3.org/2000/svg">
<path d="M10 67.5679C4.47715 67.5679 0 63.0908 0 57.5679V32.9555C0 31.0045 0.570727 29.096 1.64187 27.4653L16.8335 4.33776C18.6119 1.63041 21.6335 0 24.8727 0C31.7534 0 36.4086 7.01445 33.7357 13.3548L30.0946 21.9919C28.4988 25.7772 31.2781 29.9649 35.386 29.9649C38.5574 29.9649 41.1283 32.5358 41.1283 35.7073V57.5679C41.1283 63.0908 36.6511 67.5679 31.1283 67.5679H10Z" fill="#E2E6FB"/>
<path d="M68.8721 67.5679C63.3492 67.5679 58.8721 63.0908 58.8721 57.5679V32.9555C58.8721 31.0045 59.4428 29.096 60.5139 27.4653L75.7056 4.33776C77.4839 1.63041 80.5056 0 83.7448 0C90.6255 0 95.2807 7.01445 92.6078 13.3548L88.9666 21.9919C87.3709 25.7772 90.1501 29.9649 94.258 29.9649C97.4294 29.9649 100 32.5358 100 35.7073V57.5679C100 63.0908 95.5232 67.5679 90.0004 67.5679H68.8721Z" fill="#E2E6FB"/>
</svg>
