<svg xmlns="http://www.w3.org/2000/svg" width="50" height="50" viewBox="0 0 50 50">
    <g fill="#99BBC1" fill-rule="evenodd">
        <path d="M32.229 10.403H17.674V6.244h3.119a1.04 1.04 0 0 0 1.04-1.04 3.119 3.119 0 0 1 6.237 0c0 .575.466 1.04 1.04 1.04h3.119v4.159zm1.04-6.238h-3.223a5.198 5.198 0 0 0-10.189 0h-3.223a1.04 1.04 0 0 0-1.04 1.04v6.237c0 .574.466 1.04 1.04 1.04h16.634a1.04 1.04 0 0 0 1.04-1.04V5.205a1.04 1.04 0 0 0-1.04-1.04z"/>
        <path d="M23.912 6.244h2.08v-2.08h-2.08z"/>
        <path d="M44.704 4.165h-8.317v2.08h8.317a3.119 3.119 0 0 1 3.12 3.118v35.348a3.119 3.119 0 0 1-3.12 3.119H5.198a3.119 3.119 0 0 1-3.119-3.12V9.364A3.119 3.119 0 0 1 5.2 6.244h8.316v-2.08H5.198A5.204 5.204 0 0 0 0 9.365V44.71a5.204 5.204 0 0 0 5.198 5.198h39.506a5.204 5.204 0 0 0 5.198-5.198V9.363a5.204 5.204 0 0 0-5.198-5.198"/>
        <path d="M37.427 41.161v-2.688c0-.574.465-1.04 1.04-1.04h2.688l-3.728 3.728zm4.158-31.798h-5.198v2.08h5.198c.575 0 1.04.465 1.04 1.039v22.872h-4.159a3.119 3.119 0 0 0-3.118 3.119v4.158H8.318a1.04 1.04 0 0 1-1.04-1.04V12.483c0-.574.465-1.04 1.04-1.04h5.197V9.363H8.317a3.119 3.119 0 0 0-3.119 3.119v29.11a3.119 3.119 0 0 0 3.12 3.119h28.07c.275 0 .54-.11.734-.305L44.4 37.13a1.04 1.04 0 0 0 .304-.735V12.482a3.119 3.119 0 0 0-3.119-3.119z"/>
        <path d="M30.15 24.958c-.276 0-.54.11-.735.304l-1.864 1.864-2.904-2.903a1.04 1.04 0 0 0-1.47 0l-3.854 3.853h-1.434l-.09-.09a4.188 4.188 0 0 1 .125-5.92 4.512 4.512 0 0 1 3.152-1.267 4.512 4.512 0 0 1 3.15 1.261 1.04 1.04 0 0 0 1.45 0 4.552 4.552 0 0 1 6.428.126 4.172 4.172 0 0 1 1.162 2.772H30.15zm1.828 3.149l-7.027 6.831-4.954-4.813c.184-.044.355-.138.491-.274l3.424-3.423 2.903 2.903a1.04 1.04 0 0 0 1.47 0l2.295-2.294h2.205c-.205.387-.473.75-.807 1.07zm3.368-3.15a6.244 6.244 0 0 0-1.918-4.38 6.654 6.654 0 0 0-8.476-.61 6.654 6.654 0 0 0-8.65.778 6.266 6.266 0 0 0-.992 7.331H9.357v2.08h7.685l7.182 6.983c.194.19.456.295.727.294.272.001.533-.105.728-.294l7.749-7.536c.057-.056.114-.112.169-.17a6.237 6.237 0 0 0 1.442-2.396h5.507v-2.08h-5.2z"/>
    </g>
</svg>
