<svg width="60" height="60" viewBox="0 0 60 60" fill="none" xmlns="http://www.w3.org/2000/svg">
<g clip-path="url(#clip0)">
<path d="M54.7269 10.6641H27.8031L23.7568 59.3902C24.4679 59.7457 25.2327 60 26.0728 60H54.7269C57.6348 60 60.0004 57.6345 60.0004 54.7266V15.9375C60.0004 13.0296 57.6348 10.6641 54.7269 10.6641Z" fill="#D6DBFA"/>
<path d="M19.9062 47.7961L20.8401 55.3806C21.0276 56.887 22.0471 58.5356 23.7564 59.3902C27.1745 55.7136 24.8831 58.0612 32.9942 49.336L19.9062 47.7961Z" fill="#BAC4F4"/>
<path d="M32.9943 49.3359C33.5693 48.6787 34.0737 48.2375 33.938 47.3326L28.613 4.61941C28.2851 1.98609 26.0346 0 23.3808 0H5.27344C2.36555 0 0 2.36555 0 5.27344V44.0625C0 46.9704 2.36555 49.3359 5.27344 49.3359C14.4612 49.3359 23.7771 49.3359 32.9943 49.3359Z" fill="#E2E6FC"/>
<path d="M19.419 13.8347C19.2542 13.0141 18.5331 12.4219 17.6955 12.4219H14.1799C13.3422 12.4219 12.6211 13.0141 12.4564 13.8347L8.94075 31.4128C8.75021 32.3655 9.36814 33.2907 10.3192 33.4813C11.2823 33.6788 12.1989 33.0539 12.3877 32.1028L13.5112 26.4844H18.364L19.4875 32.1028C19.6798 33.0681 20.6239 33.6731 21.556 33.4813C22.507 33.2907 23.125 32.3655 22.9345 31.4128L19.419 13.8347ZM14.2142 22.9688L15.6201 15.9375H16.2552L17.6611 22.9688H14.2142Z" fill="#BAC4F4"/>
<path d="M51.0938 26.4844H45.8203V24.7266C45.8203 23.755 45.0341 22.9688 44.0625 22.9688C43.0909 22.9688 42.3047 23.755 42.3047 24.7266V26.4844H37.0312C36.0596 26.4844 35.2734 27.2706 35.2734 28.2422C35.2734 29.2138 36.0596 30 37.0312 30H37.5007C38.5009 33.2089 39.9698 35.7199 41.6182 37.6995C40.3269 38.88 39.0633 39.8486 37.6903 40.9331C36.9334 41.5391 36.8098 42.6445 37.4175 43.4033C38.0224 44.1609 39.1322 44.2839 39.8876 43.6763C41.3794 42.4989 42.6625 41.5134 44.0625 40.2285C45.4625 41.5136 46.7456 42.499 48.2372 43.6763C48.9928 44.2839 50.1026 44.1609 50.7075 43.4033C51.3152 42.6445 51.1916 41.5391 50.4345 40.9331C49.0616 39.8486 47.798 38.88 46.5067 37.6995C48.155 35.72 49.6241 33.2091 50.6242 30H51.0938C52.0654 30 52.8516 29.2138 52.8516 28.2422C52.8516 27.2706 52.0654 26.4844 51.0938 26.4844ZM44.0625 35.0938C42.9452 33.6894 41.9357 32.0388 41.1766 30H46.9484C46.1893 32.0389 45.1798 33.6894 44.0625 35.0938Z" fill="white"/>
</g>
<defs>
<clipPath id="clip0">
<rect width="60" height="60" fill="white"/>
</clipPath>
</defs>
</svg>
