<svg xmlns="http://www.w3.org/2000/svg" width="37" height="37" viewBox="0 0 37 37">
    <g fill="none" fill-rule="evenodd" transform="translate(1 1)">
        <circle cx="17.5" cy="17.5" r="17.5" stroke="#99BBC1" stroke-width="2"/>
        <path fill="#99BBC1" d="M10.782 7.875a2.031 2.031 0 1 0 0 4.065 2.03 2.03 0 0 0 2.032-2.033 2.03 2.03 0 0 0-2.032-2.032zm15.306 9.38c-.268-2.203-1.273-3.572-4.246-3.572-1.744 0-2.92.642-3.412 1.572h-.054v-1.572h-3.241v11.626h3.39v-5.765c0-1.519.3-2.984 2.162-2.984 1.871 0 2.01 1.733 2.01 3.091v5.658h3.487v-6.385c0-.6-.032-1.155-.096-1.669zM8.75 16.774v8.535h4.064V13.683H8.75v3.09z"/>
    </g>
</svg>
