<svg width="14" height="17" viewBox="0 0 14 17" fill="none" xmlns="http://www.w3.org/2000/svg">
<path d="M12.25 7.20192C12.25 9.62821 11.1126 11.657 9.81677 13.1013C9.17094 13.8211 8.49956 14.3794 7.94218 14.7525C7.66299 14.9394 7.4221 15.0733 7.23596 15.1574C7.02357 15.2535 6.95782 15.25 7 15.25V16.75C7.29218 16.75 7.60143 16.6384 7.85388 16.5242C8.13259 16.3982 8.44639 16.22 8.77657 15.999C9.43794 15.5563 10.2041 14.9157 10.9332 14.103C12.3874 12.4824 13.75 10.1122 13.75 7.20192H12.25ZM7 1.75C9.87629 1.75 12.25 4.16732 12.25 7.20192H13.75C13.75 3.38608 10.7511 0.25 7 0.25V1.75ZM1.75 7.20192C1.75 4.16732 4.12371 1.75 7 1.75V0.25C3.24887 0.25 0.25 3.38608 0.25 7.20192H1.75ZM7 15.25C7.04218 15.25 6.97643 15.2535 6.76404 15.1574C6.5779 15.0733 6.33701 14.9394 6.05782 14.7525C5.50044 14.3794 4.82906 13.8211 4.18323 13.1013C2.88736 11.657 1.75 9.62821 1.75 7.20192H0.25C0.25 10.1122 1.61264 12.4824 3.06677 14.103C3.79595 14.9157 4.56206 15.5563 5.22343 15.999C5.55361 16.22 5.86741 16.3982 6.14612 16.5242C6.39857 16.6384 6.70782 16.75 7 16.75V15.25ZM8.24997 7C8.24997 7.69036 7.69032 8.25 6.99997 8.25V9.75C8.51875 9.75 9.74997 8.51878 9.74997 7H8.24997ZM6.99997 5.75C7.69032 5.75 8.24997 6.30964 8.24997 7H9.74997C9.74997 5.48122 8.51875 4.25 6.99997 4.25V5.75ZM5.74997 7C5.74997 6.30964 6.30961 5.75 6.99997 5.75V4.25C5.48118 4.25 4.24997 5.48122 4.24997 7H5.74997ZM6.99997 8.25C6.30961 8.25 5.74997 7.69036 5.74997 7H4.24997C4.24997 8.51878 5.48118 9.75 6.99997 9.75V8.25Z" fill="#6480EB"/>
</svg>
