<?xml version="1.0" encoding="UTF-8"?>
<svg width="30px" height="30px" viewBox="0 0 30 30" version="1.1" xmlns="http://www.w3.org/2000/svg" xmlns:xlink="http://www.w3.org/1999/xlink">
    <!-- Generator: Sketch 42 (36781) - http://www.bohemiancoding.com/sketch -->
    <title>Group 2</title>
    <desc>Created with Sketch.</desc>
    <defs>
        <linearGradient x1="16.4735074%" y1="42.916%" x2="79.9627836%" y2="76.712%" id="linearGradient-1">
            <stop stop-color="#00D7AF" offset="0%"></stop>
            <stop stop-color="#46737A" offset="100%"></stop>
        </linearGradient>
        <linearGradient x1="73.7940579%" y1="86.229%" x2="28.3202821%" y2="0%" id="linearGradient-2">
            <stop stop-color="#00D7AF" offset="0%"></stop>
            <stop stop-color="#46737A" offset="100%"></stop>
        </linearGradient>
        <linearGradient x1="28.0552958%" y1="21.454%" x2="68.0141611%" y2="63.075%" id="linearGradient-3">
            <stop stop-color="#00D7AF" offset="0%"></stop>
            <stop stop-color="#46737A" offset="100%"></stop>
        </linearGradient>
    </defs>
    <g id="Page-1" stroke="none" stroke-width="1" fill="none" fill-rule="evenodd">
        <g id="Group" transform="translate(-4.000000, -6.000000)" fill-rule="nonzero">
            <g id="Group-2">
                <path d="M28.9516076,16.8363873 C27.2646076,18.1423873 24.9926076,19.1463873 22.3826076,19.7023873 C20.9196076,20.0103873 19.3526076,20.1793873 17.7196076,20.1793873 C16.5236076,20.1793873 15.3596076,20.0903873 14.2496076,19.9173873 C12.4956076,19.6503873 10.8716076,19.1843873 9.43960764,18.5603873 C9.29094718,18.4942223 9.14326464,18.4258816 8.99660764,18.3553873 C8.51774161,18.2000879 7.99869304,18.2246183 7.53660764,18.4243873 C7.1942871,18.5700653 6.89730337,18.8048896 6.67660764,19.1043873 C6.33413392,19.5607883 6.19388227,20.1376997 6.28860764,20.7003873 C6.31760764,20.8183873 6.34660764,20.9363873 6.37860764,21.0503873 C8.04860764,27.1763873 13.6256076,31.6583873 20.2526076,31.6583873 C22.0001426,31.6594324 23.7331985,31.3415586 25.3666076,30.7203873 C28.4572518,29.540339 31.0471591,27.3318197 32.7006076,24.4663873 C33.9661685,22.2810807 34.6306767,19.7996977 34.6266076,17.2743873 C34.632045,13.4139681 33.0807687,9.71441031 30.3236076,7.01238728 C31.4536076,8.28138728 32.0936076,9.73938728 32.0936076,11.2903873 C32.0936076,13.3873873 30.9186076,15.3153873 28.9516076,16.8363873 L28.9516076,16.8363873 Z" id="Shape" fill="url(#linearGradient-1)" transform="translate(20.443160, 19.335389) scale(-1, 1) rotate(135.000000) translate(-20.443160, -19.335389) "></path>
                <path d="M12.3918447,6.70322915 C13.0119021,7.94151364 13.7460804,9.11927901 14.5848447,10.2212291 C15.4304764,11.3440569 16.3548028,12.4053947 17.3508447,13.3972291 C21.2578447,17.3102291 25.6158447,19.6352291 28.4108447,19.5542291 C29.0308447,19.4102291 29.6358447,19.2232291 30.2218447,18.9992291 C30.3168447,18.9292291 30.4028447,18.8552291 30.4868447,18.7712291 C31.4928447,17.7642291 31.4988447,15.9382291 30.6908447,13.7512291 C30.0408447,11.9792291 28.8568447,9.97422915 27.2378447,7.98122915 C25.7748447,8.28822915 24.2078447,8.45822915 22.5748447,8.45822915 C21.3788447,8.45822915 20.2148447,8.36822915 19.1048447,8.19622915 C17.3508447,7.92922915 15.7268447,7.46322915 14.2948447,6.83822915 C14.1414628,6.77053401 13.9891121,6.70052603 13.8378447,6.62822915 C13.3625326,6.47834013 12.8490993,6.50497049 12.3918447,6.70322915" id="Shape" fill="url(#linearGradient-2)" opacity="0.5" transform="translate(21.831612, 13.044336) scale(-1, 1) rotate(135.000000) translate(-21.831612, -13.044336) "></path>
                <path d="M14.5877298,16.6635066 C10.3494837,16.6595045 6.32668098,18.5310524 3.5997298,21.7755066 C3.17292826,22.348186 3.06678743,23.0986565 3.31803504,23.7672341 C3.56928265,24.4358116 4.1434013,24.9306445 4.8417298,25.0805066 C7.6127298,25.6105066 11.2697298,27.7935066 14.5957298,31.1225066 C15.3657298,31.8935066 16.0757298,32.6845066 16.7177298,33.4755066 C19.3277298,32.9205066 21.5987298,31.9155066 23.2877298,30.6105066 C25.2537298,29.0885066 26.4287298,27.1605066 26.4287298,25.0645066 C26.4287298,23.5015066 25.7787298,22.0375066 24.6347298,20.7625066 C21.9536376,18.1301788 18.3450401,16.6575751 14.5877298,16.6625066 L14.5877298,16.6635066 Z" id="Shape" fill="url(#linearGradient-3)" transform="translate(14.806326, 25.069000) scale(-1, 1) rotate(135.000000) translate(-14.806326, -25.069000) "></path>
            </g>
        </g>
    </g>
</svg>