<svg width="130" height="130" viewBox="0 0 130 130" fill="none" xmlns="http://www.w3.org/2000/svg">
<g filter="url(#filter0_d)">
<circle cx="65" cy="59" r="50" fill="white"/>
</g>
<path d="M57 58L62.7273 64L73 54" stroke="#00D7AF" stroke-width="2" stroke-linecap="round" stroke-linejoin="round"/>
<path d="M85.0076 43.9715L85.0078 43.9717C90.3306 49.2638 90.3309 57.8677 85.0076 63.1638L66.0175 82.0243H65.9292L65.6292 82.4222C65.4836 82.6153 65.2563 82.7368 65 82.7368C64.7425 82.7368 64.5144 82.6141 64.3691 82.4196L64.0691 82.0181H63.9761L60.5261 78.6178L60.5227 78.6145L44.9926 63.1638L44.9926 63.1637C39.669 57.8677 39.6693 49.2638 44.9923 43.9717L44.9926 43.9715C50.315 38.6762 58.9723 38.6762 64.2947 43.9715L65 44.6732L65.7053 43.9715C71.0279 38.6762 79.6852 38.6762 85.0076 43.9715Z" stroke="#6480EB" stroke-width="2"/>
<defs>
<filter id="filter0_d" x="0" y="0" width="130" height="130" filterUnits="userSpaceOnUse" color-interpolation-filters="sRGB">
<feFlood flood-opacity="0" result="BackgroundImageFix"/>
<feColorMatrix in="SourceAlpha" type="matrix" values="0 0 0 0 0 0 0 0 0 0 0 0 0 0 0 0 0 0 127 0"/>
<feOffset dy="6"/>
<feGaussianBlur stdDeviation="7.5"/>
<feColorMatrix type="matrix" values="0 0 0 0 0 0 0 0 0 0 0 0 0 0 0 0 0 0 0.05 0"/>
<feBlend mode="normal" in2="BackgroundImageFix" result="effect1_dropShadow"/>
<feBlend mode="normal" in="SourceGraphic" in2="effect1_dropShadow" result="shape"/>
</filter>
</defs>
</svg>
