<svg xmlns="http://www.w3.org/2000/svg" xmlns:xlink="http://www.w3.org/1999/xlink" width="246" height="281" viewBox="0 0 246 281">
    <defs>
        <path id="a" d="M396.248.135L.602 397.394V.134z"/>
        <filter id="b" width="110.3%" height="107.2%" x="-7.7%" y="-1.9%" filterUnits="objectBoundingBox">
            <feOffset dx="-7" dy="6" in="SourceAlpha" result="shadowOffsetOuter1"/>
            <feGaussianBlur in="shadowOffsetOuter1" result="shadowBlurOuter1" stdDeviation="2.5"/>
            <feColorMatrix in="shadowBlurOuter1" result="shadowMatrixOuter1" values="0 0 0 0 0.27440389 0 0 0 0 0.450086906 0 0 0 0 0.478794643 0 0 0 0.0923913043 0"/>
            <feMerge>
                <feMergeNode in="shadowMatrixOuter1"/>
                <feMergeNode in="SourceGraphic"/>
            </feMerge>
        </filter>
    </defs>
    <g fill="none" fill-rule="evenodd" transform="translate(-37 -57)">
        <mask id="c" fill="#fff">
            <use xlink:href="#a"/>
        </mask>
        <g filter="url(#b)" mask="url(#c)">
            <path fill="#FFF" d="M209.81 142.323c.86 3.752-1.268 7.545-4.753 8.472-3.484.926-7.006-1.365-7.866-5.118-.86-3.752 1.267-7.545 4.752-8.472 3.484-.926 7.006 1.366 7.866 5.118"/>
            <path fill="#6D6E71" d="M205 138.19c-.46 0-.926.055-1.392.17a5.77 5.77 0 0 0-3.581 2.636 5.77 5.77 0 0 0-.668 4.397 5.772 5.772 0 0 0 2.637 3.58 5.773 5.773 0 0 0 4.396.668 5.77 5.77 0 0 0 3.581-2.637 5.77 5.77 0 0 0 .668-4.396 5.82 5.82 0 0 0-5.641-4.419M204.986 152a7.944 7.944 0 0 1-4.12-1.155 7.942 7.942 0 0 1-3.63-4.929 7.944 7.944 0 0 1 .92-6.05 7.946 7.946 0 0 1 4.928-3.63 7.943 7.943 0 0 1 6.05.92 7.945 7.945 0 0 1 3.63 4.928 7.946 7.946 0 0 1-.919 6.051 7.946 7.946 0 0 1-4.929 3.629 8.058 8.058 0 0 1-1.93.236"/>
            <path fill="#FFF" d="M62 163a6 6 0 1 1-12 0 6 6 0 0 1 12 0"/>
            <path fill="#6D6E71" d="M56 157.135A4.87 4.87 0 0 0 51.135 162 4.87 4.87 0 0 0 56 166.865 4.87 4.87 0 0 0 60.865 162 4.87 4.87 0 0 0 56 157.135M56 169c-3.86 0-7-3.14-7-7s3.14-7 7-7 7 3.14 7 7-3.14 7-7 7"/>
            <path fill="#8DE2D2" d="M143.97 170c-.013 0-18.504 4.325-18.524 4.325l-11.57 27.327-52.7 121.59c-.86 1.982 1.638 3.7 3.161 2.172l45.69-45.81 9.693 34.433c.678 2.407 3.955 2.693 5.032.437 6.565-13.756 21.482-45.64 23.928-56.349 2.052-8.982 4.609-19.325 6.004-29.233 2.72-19.314 4.316-38.097 4.316-38.097L143.97 170z"/>
            <path fill="#6D6E71" d="M126.843 175.346l-11.445 26.79-53.126 121.457c-.266.61.167.966.306 1.06.139.095.63.368 1.103-.101l47.375-47.068 10.278 36.18c.284 1.001 1.164 1.153 1.426 1.175.265.023 1.153.023 1.604-.913 6.41-13.313 21.588-45.425 24.038-56.055.314-1.361.64-2.754.971-4.171 1.818-7.776 3.878-16.589 5.064-24.936 2.486-17.492 4.057-34.749 4.308-37.588l-14.483-19.856-6.987 1.618a2932.116 2932.116 0 0 1-10.432 2.408M63.075 327c-.597 0-1.2-.178-1.734-.542a3.012 3.012 0 0 1-1.078-3.739l53.122-121.448 11.941-27.951h.602c.85-.195 6.365-1.472 10.851-2.511 7.812-1.809 7.812-1.809 7.943-1.809h.559L161 190.55l-.035.407c-.016.188-1.643 19.012-4.357 38.113-1.2 8.443-3.272 17.306-5.1 25.126-.331 1.415-.656 2.805-.969 4.165-2.5 10.843-17.756 43.133-24.2 56.512a3.787 3.787 0 0 1-3.767 2.143 3.787 3.787 0 0 1-3.347-2.756l-9.263-32.605-44.734 44.446c-.599.594-1.372.899-2.153.899"/>
            <path fill="#FFF" d="M109.462 368l-12.957-.062 19.323-101.763h-1.14L74.294 368H64l37.26-123H140z"/>
            <path fill="#6D6E71" d="M65.925 366.81h7.976l39.944-101.668h3.177L97.913 366.753l10.654.052 29.657-120.619h-36.111L65.925 366.81zm44.34 2.19l-14.971-.073 18.259-97.093-38.174 97.162H63L100.5 244H141l-30.735 125z"/>
            <path fill="#FFF" d="M151 172.357s-1.683 9.97-4.403 13.646c-2.41 3.256-7.333 4.422-9.92 3.862-2.787-.603-6.37-2.722-7.473-7.19-1.076-4.355 2.451-14.675 2.451-14.675s4.52 3.182 8.723 4.092c4.203.91 10.622.265 10.622.265"/>
            <path fill="#6D6E71" d="M132.14 169.511c-1.003 3.486-2.527 9.878-1.86 12.769.894 3.872 3.8 5.852 6.222 6.413 2.104.487 6.248-.591 8.225-3.452 1.836-2.657 3.182-9.042 3.71-11.872-2.068.14-5.993.274-8.921-.404-2.848-.66-5.78-2.399-7.376-3.454M137.577 191a6.889 6.889 0 0 1-1.538-.159c-3.047-.706-6.703-3.191-7.824-8.049-1.069-4.632 2.189-14.927 2.329-15.363l.455-1.429 1.176.885c.041.03 4.121 3.08 7.804 3.932 3.737.865 9.581.251 9.64.245l1.381-.148-.224 1.421c-.066.42-1.653 10.326-4.323 14.188-2.176 3.148-6.08 4.477-8.876 4.477"/>
            <path fill="#D4F9F2" d="M139.323 248.123L126.346 263l-4.503-12.132-13.814 9.605-5.963-13.033a1.958 1.958 0 0 1 .064-1.204L128.84 177l8.617 5.69L148 179.365l-8.19 67.68c-.047.401-.217.778-.487 1.078"/>
            <path fill="#6D6E71" d="M122.74 249.038l4.413 11.768 11.94-13.55a.87.87 0 0 0 .22-.481l8.092-66.2-9.553 2.983-8.026-5.248-26.567 68.173a.86.86 0 0 0-.045.462l5.448 11.785 14.079-9.692zM126.379 265l-4.712-12.568-13.91 9.575-6.652-14.43a3.009 3.009 0 0 1 .101-1.876L128.758 175l9.432 6.167L150 177.48l-8.503 69.553a3.02 3.02 0 0 1-.76 1.67L126.378 265z"/>
            <path fill="#FFF" d="M141 279s11.295-17.227 14.154-50.887c1.812-21.34 4.127-38.403 5.126-38.795 6.046-2.367 23.724-7.417 27.03-11.393 5.108-6.145 19.69-27.418 19.69-27.418L198.212 144s-15.187 21.377-19.722 23.429c-4.535 2.05-21.076 5.178-27.905 5.178l-3.731 13.15s-1.461 53.532-1.846 66.836C144.7 263.256 141 279 141 279"/>
            <path fill="#6D6E71" d="M147.425 186.37c-.082 3.02-1.471 53.755-1.842 66.55-.17 5.865-1.336 13.15-2.372 18.61 3.522-7.933 8.575-22.438 10.339-43.16.866-10.176 1.887-19.85 2.874-27.242 1.584-11.857 2.214-12.104 2.945-12.389 1.533-.599 3.764-1.354 6.347-2.228 7.154-2.422 17.965-6.082 20.249-8.822 4.434-5.32 16.24-22.358 19.037-26.407l-7.049-5.206c-3.206 4.455-15.244 20.904-19.52 22.834-4.614 2.081-20.237 5.028-27.535 5.25l-3.473 12.21zM138 285l1.416-6.013c.037-.157 3.68-15.726 3.981-26.13.38-13.12 1.832-66.15 1.847-66.684l.004-.137 3.995-14.046h.826c6.521 0 22.948-3.033 27.463-5.07 3.13-1.413 13.25-14.537 19.288-23.014l.645-.906L208 150.78l-.597.87c-.597.867-14.674 21.336-19.758 27.436-2.477 2.972-11.079 6.057-21.227 9.493-2.384.807-4.465 1.511-5.94 2.073-.843 2.147-2.88 15.95-4.75 37.904-2.85 33.476-13.866 50.569-14.334 51.28L138 285z"/>
            <path fill="#FFF" d="M129.995 194.712c-3.64 10.09-17.212 51.205-17.212 51.205s-3.602-1.37-9.854 2.224C94.41 253.039 80.087 281.176 79.675 282c0 0 20.57-49.292 22.943-55.114 2.372-5.822 14.724-35.87 14.724-35.87l-23.21-6.039L60 169.533 62.009 160l35.859 11.454 33.335 1.584s2.435 11.584-1.208 21.674"/>
            <path fill="#6D6E71" d="M94.054 183.164l24.548 6.284-.483 1.157c-.125.299-12.488 29.894-14.853 35.606-1.44 3.479-9.62 22.797-15.852 37.505 6.072-9.74 10.985-15.713 14.608-17.763 4.714-2.667 8.107-2.736 9.753-2.525 2.054-6.115 13.736-40.863 17.065-49.942 2.97-8.092 1.784-17.334 1.326-20.098l-32.901-1.538-.137-.043-35.024-11.009-1.591 7.432 33.541 14.934zM80.084 281l-1.988-.911c.207-.49 20.777-48.995 23.142-54.705 2.098-5.066 12.052-28.9 14.372-34.455l-22.284-5.704L58 169.495 60.462 158l37.192 11.69 34.332 1.605.176.822c.103.482 2.478 11.921-1.261 22.113-3.626 9.888-17.217 50.396-17.354 50.803l-.36 1.074-1.067-.4c-.02-.006-3.32-1.085-9.012 2.135-7.09 4.012-19.304 25.83-23.023 33.158z"/>
            <path fill="#FFF" d="M182.528 147s2.773-5.169 4.23-14.338c1.61-10.12-5.15-22.916-10.498-25.78-5.348-2.864-15.19-5.868-20.294-7.016a35.09 35.09 0 0 0-17.799.603c-6.41 1.91-12.203 5.096-16.616 10.151-3.812 4.355-8.663 14.662-8.549 21.285L182.528 147z"/>
            <path fill="#6D6E71" d="M113.2 130.886l67.64 14.621c.778-1.697 2.653-6.29 3.75-13.162 1.532-9.587-4.996-21.846-9.907-24.465-5.282-2.816-15.039-5.761-19.97-6.865a34.251 34.251 0 0 0-17.205.58c-6.738 1.998-12.143 5.28-16.066 9.755-3.647 4.147-7.94 13.492-8.242 19.536zM182.02 148l-71.003-15.348-.015-.868c-.123-7.106 5.13-17.705 8.8-21.88 4.2-4.788 9.947-8.29 17.085-10.406a36.43 36.43 0 0 1 18.303-.618c5.047 1.13 15.059 4.158 20.518 7.07 5.572 2.97 12.733 16.132 11.039 26.741-1.467 9.184-4.221 14.37-4.338 14.586l-.39.723z"/>
            <path fill="#8DE2D2" d="M141.792 102.503c7.672-1.833 17.208 1.933 17.208 1.933s-12.588.933-17.259 5.019c-4.191 3.667-2.012 10.36-3.666 9.985-4.397-1-9.083-4.468-9.763-4.954-.68-.486-2.084-.888-2.084-.888s-1.501.716-4.03 3.28c-.594.604-4.164 6.122-4.164 6.122l-1.034-.235s1.781-3.838 4.04-7.53c1.6-2.616 4.147-4.998 5.639-6.081 3.598-2.614 7.441-4.818 15.113-6.65"/>
            <path fill="#FFF" d="M183.877 151.974a5.071 5.071 0 0 1-6.057 3.85c-1.663-.372-2.336-.6-2.336-.6s-.432.645-1.18 1.843c-6.945 11.11-20.36 17.182-33.866 14.16-13.427-3.004-22.954-14.11-24.596-27.031-.135-1.06-.263-2.426-.263-2.426s-1.969-.312-3.611-.68a5.08 5.08 0 0 1-3.845-6.065 5.071 5.071 0 0 1 6.057-3.85l2.516.564s.17-.715.268-1.079c.478-1.797.817-2.242 1.575-3.88 2.881-6.235 7.973-9.78 7.973-9.78s13.514 7.488 23.23 9.723c9.158 2.107 24.876.295 24.876.295s3.48 5.468 4.228 12.396a27.48 27.48 0 0 1 .148 3.574c-.019.604-.304 2.621-.304 2.621l1.342.3a5.08 5.08 0 0 1 3.845 6.065"/>
            <path fill="#6D6E71" d="M113.144 132.6c-1.822 0-3.47 1.281-3.883 3.16-.478 2.172.875 4.336 3.016 4.821 1.585.36 3.517.671 3.537.675l.829.133.079.848c0 .014.128 1.377.259 2.418 1.623 12.944 11.149 23.554 23.704 26.401 12.651 2.869 25.768-2.689 32.64-13.83.758-1.23 1.195-1.892 1.195-1.892l.46-.7.786.27c.005.002.66.223 2.22.576 2.14.486 4.273-.887 4.752-3.06a4.063 4.063 0 0 0-.524-3.046 3.957 3.957 0 0 0-2.492-1.776l-1.332-.302-.983-.216.14-1.011c.106-.767.28-2.13.293-2.53a27.097 27.097 0 0 0-.143-3.464c-.575-5.402-2.855-9.929-3.72-11.485-3.197.334-16.272 1.52-24.485-.395-8.66-2.02-20.046-8.07-22.84-9.598-1.328 1.075-4.89 4.26-7.072 9.046-.183.4-.341.731-.484 1.028-.443.924-.687 1.433-1.024 2.717-.094.36-.26 1.064-.26 1.064l-.248 1.053-3.552-.807a3.924 3.924 0 0 0-.868-.097M147.348 174a32.24 32.24 0 0 1-7.135-.8c-13.443-3.048-23.642-14.408-25.38-28.268a77.162 77.162 0 0 1-.184-1.646 61.886 61.886 0 0 1-2.844-.56c-3.305-.75-5.395-4.09-4.657-7.446.739-3.355 4.028-5.477 7.337-4.726l1.478.336.017-.068c.391-1.489.718-2.17 1.17-3.112.137-.286.29-.605.466-.99 2.964-6.5 8.102-10.177 8.32-10.33l.553-.39.589.33c.134.075 13.465 7.525 22.898 9.724 8.848 2.063 24.3.295 24.455.277l.673-.078.364.58c.147.234 3.617 5.829 4.381 13.006.133 1.248.19 2.621.154 3.767-.011.367-.1 1.128-.18 1.764l.37.083a6.11 6.11 0 0 1 3.849 2.744 6.272 6.272 0 0 1 .808 4.702c-.738 3.355-4.03 5.475-7.336 4.726a41.574 41.574 0 0 1-1.626-.4c-.188.296-.433.687-.729 1.167-6.067 9.836-16.68 15.607-27.811 15.608"/>
            <path fill="#6D6E71" d="M130.61 141.951a2.046 2.046 0 0 1-1.56-2.437l.882-3.918a2.065 2.065 0 0 1 2.458-1.547 2.047 2.047 0 0 1 1.56 2.437l-.883 3.918a2.065 2.065 0 0 1-2.457 1.547M160.61 147.951a2.047 2.047 0 0 1-1.56-2.437l.883-3.918a2.065 2.065 0 0 1 2.457-1.547 2.047 2.047 0 0 1 1.56 2.437l-.883 3.918a2.065 2.065 0 0 1-2.457 1.547M136.391 155.614c.383 1.073.848 3.908 5.569 4.952 4.72 1.044 5.94-1.7 7.18-2.018 1.152-.294 1.344.724-.659 2.222-1.342 1.005-4.04 1.591-6.79.983-5.035-1.114-6.902-4.911-6.672-5.93.23-1.02 1.056-1.094 1.372-.209"/>
            <path fill="#FFF" d="M194.95 119.035c-1.095 5.043-19.87 5.312-41.933.598-22.064-4.714-39.062-12.623-37.967-17.668 1.095-5.044 19.87-5.311 41.933-.598 22.064 4.714 39.062 12.624 37.967 17.668"/>
            <path fill="#6D6E71" d="M129.375 99.14c-8.04 0-12.782 1.28-13.175 3.086-.73 3.359 13.011 11.191 37.05 16.318 24.04 5.126 39.82 3.59 40.55.23.73-3.359-13.011-11.19-37.05-16.317-11.113-2.37-20.463-3.316-27.375-3.316M180.713 124c-8.042 0-18.222-1.281-27.92-3.35-19.842-4.23-40.155-12.285-38.721-18.878 1.434-6.593 23.295-5.653 43.136-1.422 19.84 4.231 40.154 12.285 38.72 18.878-.733 3.37-6.805 4.772-15.215 4.772"/>
            <path fill="#D4F9F2" d="M188.967 77.305c-.725 3.428-13.163 3.61-27.78.405-14.618-3.205-25.879-8.584-25.154-12.012.726-3.432 13.163-3.614 27.781-.408 14.618 3.205 25.879 8.583 25.153 12.015"/>
            <path fill="#6D6E71" d="M145.501 64.157c-5.249 0-8.12.858-8.324 1.822-.377 1.774 7.616 6.978 24.242 10.603 16.626 3.626 26.027 2.214 26.404.44.377-1.774-7.616-6.98-24.241-10.605-7.589-1.655-13.673-2.26-18.08-2.26M179.614 81c-5.807 0-12.992-1.036-18.653-2.27-11.031-2.406-27.033-7.91-25.905-13.213 1.128-5.305 17.95-3.652 28.981-1.247 11.031 2.405 27.034 7.91 25.905 13.215-.549 2.582-4.819 3.515-10.328 3.515"/>
            <path fill="#FFF" d="M189 77.493l-7.392 34.835c-.72 3.398-13.074 3.579-27.593.405-14.518-3.174-25.703-8.5-24.982-11.898L136.425 66c-.72 3.395 10.464 8.72 24.983 11.895 14.519 3.174 26.872 2.993 27.592-.402"/>
            <path fill="#6D6E71" d="M136.05 69.442l-6.848 31.625c-.127.583 1.02 2.33 6.264 4.778 4.71 2.198 11.183 4.24 18.224 5.748 7.04 1.508 13.782 2.299 18.987 2.223 5.792-.083 7.56-1.207 7.687-1.79l6.848-31.625c-5.494 1.987-17.778.577-26.488-1.289-8.711-1.866-20.49-5.61-24.675-9.67M171.997 116c-5.257 0-11.885-.802-18.769-2.277-7.198-1.542-13.836-3.64-18.693-5.905-5.446-2.542-7.961-4.967-7.476-7.21l7.494-34.606V66l2.142.459v.003c-.372 1.763 7.704 6.924 24.49 10.52 16.79 3.596 26.285 2.197 26.672.438l.001-.002 2.142.46-7.494 34.608c-.486 2.242-3.782 3.422-9.797 3.51a50.99 50.99 0 0 1-.712.004"/>
            <path fill="#8DE2D2" d="M183 100.726l-2.311 10.55c-.724 3.305-12.044 3.71-26.62.623-14.576-3.086-24.756-8.044-24.033-11.349L132.348 90c-.724 3.301 9.457 8.26 24.033 11.346 14.576 3.087 25.896 2.682 26.619-.62"/>
            <path fill="#6D6E71" d="M123.085 251l-2.085-.529L137.915 183l2.085.529z"/>
            <path fill="#00D7AF" d="M138 196a2 2 0 1 1-4 0 2 2 0 0 1 4 0M134 215a2 2 0 1 1-4 0 2 2 0 0 1 4 0M129 232a2 2 0 1 1-4 0 2 2 0 0 1 4 0"/>
            <path fill="#FFF" d="M119 223l2.936-32.34 4.038-4.136-4.448-10.233L130.7 170s.962 11.489-.552 19.94C128.633 198.39 119 223 119 223"/>
            <path fill="#6D6E71" d="M123.806 191.292l-2.208 24.313c2.986-8 7.392-20.299 8.363-25.715 1.122-6.262.864-14.325.667-17.938l-6.928 4.75 4.424 10.171-4.318 4.42zM118 231l3.695-40.675 3.835-3.926-4.556-10.477L132.53 168l.157 1.874c.04.479.966 11.832-.57 20.4-1.53 8.533-10.912 32.542-11.31 33.56L118 231z"/>
            <path fill="#FFF" d="M145.301 227l10.109-31.473-3.226-8.142 7.816-7.44L149.926 173s-3.077 9.662-4.284 18.243c-1.208 8.583-.34 35.757-.34 35.757"/>
            <path fill="#6D6E71" d="M150.694 174.465c-.894 2.977-2.934 10.167-3.856 16.645-.828 5.827-.67 20.586-.494 29.143l8.112-24.976-3.388-8.456 7.455-7.019-7.829-5.337zM144.511 233l-.202-6.275c-.036-1.113-.866-27.348.354-35.919 1.218-8.567 4.34-18.312 4.371-18.41l.45-1.396L162 179.531l-8.343 7.853 3.133 7.816L144.51 233z"/>
            <path fill="#8DE2D2" d="M147.477 186.487c-3.062 1.221-6.296.188-7.226-2.307-.929-2.495.8-5.508 3.861-6.73 3.062-1.22 5.634.163 6.564 2.658.929 2.495-.137 5.158-3.199 6.379"/>
            <path fill="#8DE2D2" d="M141.663 190.04c-1.905-1.516-3.496-4.008-2.18-5.668 1.316-1.66 5.04-1.86 6.945-.344 1.904 1.517 2.008 3.844.692 5.504-1.316 1.66-3.553 2.025-5.457.508M131.611 182.516c2.298 2.6 5.85 3.266 7.933 1.489 2.084-1.777 1.91-5.324-.387-7.923-2.297-2.599-5.393-2.626-7.477-.85-2.084 1.777-2.366 4.685-.069 7.284"/>
            <path fill="#8DE2D2" d="M133.639 188.913c2.384-.463 4.703-1.342 4.319-3.513-.384-2.17-3.327-4.81-5.711-4.347-2.384.463-3.56 2.553-3.175 4.723.384 2.17 2.183 3.6 4.567 3.137"/>
            <path fill="#00D7AF" d="M143.816 181.834c-1.081 1.085-1.506 2.369-1.761 2.14-.257-.23.412-1.296 1.492-2.381 1.081-1.085 2.165-1.778 2.421-1.55.256.23-1.072.705-2.152 1.79"/>
            <path fill="#00D7AF" d="M143.452 182.39c-1.38.21-2.386.787-2.45.557-.062-.23 1.004-.588 2.383-.799 1.38-.21 2.55-.194 2.613.036.063.23-1.166-.005-2.546.206M141.397 186.052c-.232-1.103-.088-2.117-.276-2.049-.188.068-.153 1.017.079 2.12.231 1.103.572 1.941.76 1.873.188-.068-.331-.842-.563-1.944"/>
            <path fill="#00D7AF" d="M142.852 185.655c-1.089-.806-1.617-1.844-1.818-1.625-.202.219.518 1.048 1.607 1.854 1.09.805 2.136 1.281 2.337 1.063.201-.22-1.036-.486-2.126-1.292M135.206 180.436c.463 1.378.176 2.645.553 2.56.375-.085.305-1.272-.159-2.65-.463-1.378-1.143-2.426-1.52-2.341-.375.085.663 1.052 1.126 2.43"/>
            <path fill="#00D7AF" d="M135.148 180.793c1.09 1.075 1.617 2.46 1.818 2.168.201-.292-.518-1.399-1.607-2.473-1.09-1.074-2.136-1.709-2.337-1.417-.202.291 1.036.648 2.126 1.722"/>
            <path fill="#00D7AF" d="M134.638 183.625c.81-.814 1.129-1.777 1.32-1.605.193.172-.308.972-1.119 1.785-.81.814-1.623 1.334-1.815 1.162-.192-.172.804-.528 1.614-1.342"/>
            <path fill="#00D7AF" d="M134.548 183.61c1.38-.21 2.386-.787 2.45-.557.062.23-1.004.588-2.384.799-1.38.21-2.549.195-2.612-.036-.063-.23 1.167.005 2.546-.206"/>
            <path fill="#8DE2D2" d="M137.975 186.915l-1.788-.445a2.892 2.892 0 0 1-2.102-3.495l.445-1.788a2.892 2.892 0 0 1 3.495-2.102l1.788.445a2.892 2.892 0 0 1 2.102 3.495l-.445 1.788a2.893 2.893 0 0 1-3.495 2.102"/>
            <path fill="#00D7AF" d="M139 186.991s-.68.098-1.892-.354c-1.21-.452-2.324-2.78-2.072-4.297l.008-.052c.069-.408.46-.373.501.044.066.675.171 1.39.334 1.924.486 1.593 3.121 2.735 3.121 2.735"/>
            <path fill="#8DE2D2" d="M207.668 144L203 141.293 231.332 92 236 94.707z"/>
            <path fill="#6D6E71" d="M203.95 142.33l2.805 1.656L234.05 95.67l-2.805-1.655-27.295 48.315zm3.596 4.67L201 143.138 230.454 91 237 94.863 207.546 147z"/>
            <path fill="#FFF" d="M207.52 144l-3.52-2.017 3.48-5.983 3.52 2.016zM230.394 102.35l-3.045-1.895 3.692-6.58 3.396 1.951z"/>
            <path fill="#FFF" d="M198 141.17s3.312-5.383 6.045-3.917c2.732 1.467-1.267 5.747-1.267 5.747"/>
            <path fill="#6D6E71" d="M202.764 144a1.039 1.039 0 0 1-.758-1.75c.855-.915 2.052-2.685 1.905-3.575-.024-.146-.087-.302-.384-.461-1.377-.737-3.738 2.088-4.603 3.49a1.04 1.04 0 0 1-1.77-1.091c.389-.628 3.89-6.085 7.353-4.23.812.434 1.315 1.11 1.455 1.955.364 2.212-1.969 4.831-2.44 5.334a1.037 1.037 0 0 1-.758.328"/>
            <path fill="#8DE2D2" d="M241.393 70l-.132 1.74-1.261.856 1.328.69.283 1.714.953-1.314 1.436.204-.739-1.502.604-1.588-1.41.386zM259.045 74l-.1 1.393-.945.684.996.551.212 1.372.715-1.051 1.077.163-.555-1.202.454-1.27-1.057.308zM254.045 88l-.1 1.393-.945.684.996.551.212 1.372.715-1.051 1.077.163-.555-1.202.454-1.27-1.057.308zM228.045 78l-.1 1.392-.945.685.996.551.212 1.372.715-1.051 1.077.163-.555-1.202.454-1.27-1.058.308zM279.377 57.19l-1.095 1.997-2.265.23 1.56 1.66-.482 2.225 2.06-.972 1.969 1.146-.288-2.26 1.698-1.517-2.238-.425zM275.08 82.04l-1.554.83-1.535-.87.274 1.806-1.265 1.26 1.725.285.753 1.649.791-1.63 1.731-.24-1.235-1.293zM234.103 60l-1.646 1.347-2.062-.57.793 1.956L230 64.485l2.137-.138L233.464 66l.527-2.041 2.009-.73-1.811-1.125zM236.09 87.333c9.21-12.401 22.47-21.411 37.338-25.316.574-.15.82.746.244.897-14.62 3.84-27.724 12.685-36.787 24.888-.351.473-1.152.01-.796-.47M240.132 89.46c9.023-5.692 19.89-8.274 30.584-7.235.413.04.359.668-.055.627-10.517-1.021-21.24 1.493-30.119 7.093-.345.217-.759-.266-.41-.486M232.58 88.839c4.75-9.818 5.452-11.894 3.152-22.587-.09-.413-.722-.282-.633.132 2.263 10.515 1.613 12.439-3.062 22.1-.181.374.359.734.543.355"/>
        </g>
    </g>
</svg>
