<svg width="259" height="360" viewBox="0 0 259 360" fill="none" xmlns="http://www.w3.org/2000/svg">
<g filter="url(#filter0_d)">
<path fill-rule="evenodd" clip-rule="evenodd" d="M172.809 116.323C173.669 120.075 171.541 123.868 168.056 124.795C164.572 125.721 161.05 123.43 160.191 119.677C159.33 115.925 161.457 112.132 164.942 111.205C168.426 110.279 171.949 112.571 172.809 116.323Z" fill="#D9DDFC"/>
<path fill-rule="evenodd" clip-rule="evenodd" d="M24.9995 137C24.9995 140.314 22.313 143 18.9998 143C15.686 143 12.9995 140.314 12.9995 137C12.9995 133.686 15.686 131 18.9998 131C22.313 131 24.9995 133.686 24.9995 137Z" fill="white"/>
<path fill-rule="evenodd" clip-rule="evenodd" d="M18.9995 131.135C16.3171 131.135 14.1348 133.317 14.1348 136C14.1348 138.682 16.3171 140.865 18.9995 140.865C21.682 140.865 23.8642 138.682 23.8642 136C23.8642 133.317 21.682 131.135 18.9995 131.135ZM18.9995 143C15.14 143 11.9995 139.86 11.9995 136C11.9995 132.14 15.14 129 18.9995 129C22.859 129 25.9995 132.14 25.9995 136C25.9995 139.86 22.859 143 18.9995 143Z" fill="#6D6E71"/>
<path fill-rule="evenodd" clip-rule="evenodd" d="M106.969 144C106.956 144 88.4657 148.325 88.4451 148.325L76.8762 175.652L24.175 297.241C23.3154 299.224 25.8138 300.941 27.3368 299.414L73.0272 253.604L82.7196 288.037C83.3977 290.444 86.6747 290.73 87.7513 288.474C94.3162 274.718 109.233 242.834 111.68 232.125C113.732 223.143 116.288 212.8 117.683 202.892C120.403 183.578 122 164.795 122 164.795L106.969 144Z" fill="#8DE2D2"/>
<path fill-rule="evenodd" clip-rule="evenodd" d="M72.4616 342L59.5044 341.938L78.8279 240.175H77.6881L37.2921 342H26.9995L64.2602 219H103L72.4616 342Z" fill="#3232C8"/>
<path fill-rule="evenodd" clip-rule="evenodd" d="M38.9995 339.167L30.3024 339.104C30.3024 339.104 21.9356 334.873 18.1391 338.411C15.3895 340.975 16.0755 347 16.0755 347H38.9995V339.167Z" fill="white"/>
<path fill-rule="evenodd" clip-rule="evenodd" d="M17.1596 346.729H36.844V340.582L29.3855 340.521L29.1489 340.386C27.1325 339.238 21.3563 336.83 18.8727 339.447C17.3272 341.075 17.096 344.645 17.1596 346.729ZM38.9995 349H15.1809L15.0785 347.984C15.0494 347.698 14.4065 340.94 17.3487 337.84C21.1332 333.852 28.4667 337.471 29.9298 338.254L38.9995 338.328V349Z" fill="#6D6E71"/>
<path fill-rule="evenodd" clip-rule="evenodd" d="M22.1562 345.932L18.0049 346C18.0049 346 17.9142 344.229 18.4768 342.337C19.144 340.089 20.4091 339.071 22.6677 339C23.7344 338.967 21.9275 340.919 21.4745 342.82C21.1065 344.361 22.1562 345.932 22.1562 345.932Z" fill="#8DE2D2"/>
<path fill-rule="evenodd" clip-rule="evenodd" d="M58.9995 339.167L67.3185 339.104C67.3185 339.104 75.3215 334.873 78.9524 338.411C81.583 340.975 80.9268 347 80.9268 347H58.9995V339.167Z" fill="#02065A"/>
<path fill-rule="evenodd" clip-rule="evenodd" d="M75.8429 345.932L79.9941 346C79.9941 346 80.0848 344.229 79.5228 342.337C78.855 340.089 77.5906 339.071 75.3313 339C74.2646 338.967 76.0716 340.919 76.5252 342.82C76.8925 344.361 75.8429 345.932 75.8429 345.932Z" fill="#242883"/>
<path fill-rule="evenodd" clip-rule="evenodd" d="M114 143.357C114 143.357 112.316 153.326 109.596 157.003C107.187 160.259 102.264 161.425 99.6769 160.865C96.8891 160.262 93.3064 158.143 92.2037 153.676C91.1276 149.32 94.6549 139 94.6549 139C94.6549 139 99.1741 142.182 103.377 143.092C107.58 144.002 114 143.357 114 143.357Z" fill="#D5DBFB"/>
<path fill-rule="evenodd" clip-rule="evenodd" d="M117 131.555C117 131.555 115.24 141.977 112.396 145.821C109.878 149.225 104.73 150.444 102.026 149.859C99.1113 149.228 95.3658 147.013 94.213 142.343C93.088 137.789 96.7756 127 96.7756 127C96.7756 127 101.5 130.327 105.894 131.278C110.289 132.229 117 131.555 117 131.555Z" fill="#C9D0FB"/>
<g filter="url(#filter1_d)">
<path fill-rule="evenodd" clip-rule="evenodd" d="M102.323 222.123L89.3457 237L84.8423 224.868L71.0287 234.473L65.0652 221.44C64.9593 221.042 64.9821 220.621 65.1292 220.236L91.8392 151L100.456 156.69L111 153.365L102.81 221.045C102.762 221.446 102.592 221.823 102.323 222.123Z" fill="white"/>
</g>
<path fill-rule="evenodd" clip-rule="evenodd" d="M104 253C104 253 115.294 235.773 118.153 202.113C119.966 180.774 122.28 163.71 123.28 163.318C129.325 160.951 147.003 155.901 150.309 151.925C155.417 145.78 170 124.507 170 124.507L161.211 118C161.211 118 146.024 139.377 141.489 141.429C136.955 143.48 120.413 146.607 113.585 146.607L109.853 159.758C109.853 159.758 108.392 213.289 108.008 226.593C107.699 237.256 104 253 104 253Z" fill="#63D4C8"/>
<path fill-rule="evenodd" clip-rule="evenodd" d="M92.9941 169.712C89.3538 179.802 75.7827 220.917 75.7827 220.917C75.7827 220.917 72.1805 219.547 65.9285 223.141C57.4097 228.039 43.0867 256.176 42.6748 257C42.6748 257 63.245 207.708 65.6177 201.886C67.9898 196.064 80.3417 166.016 80.3417 166.016L57.1315 159.977L22.9995 144.533L25.0082 135L60.8674 146.454L94.203 148.038C94.203 148.038 96.6376 159.622 92.9941 169.712Z" fill="#63D4C8"/>
<path fill-rule="evenodd" clip-rule="evenodd" d="M145.528 121C145.528 121 148.3 115.831 149.758 106.662C151.367 96.5426 144.607 83.7457 139.259 80.8816C133.912 78.0176 124.069 75.0137 118.966 73.8661C112.859 72.4933 106.77 72.7951 101.167 74.4691C94.7562 76.3788 88.9637 79.565 84.5507 84.6201C80.739 88.9748 75.8877 99.2817 76.0015 105.905L145.528 121Z" fill="#2025B9"/>
<path fill-rule="evenodd" clip-rule="evenodd" d="M104.792 76.5031C112.464 74.6699 122 78.4363 122 78.4363C122 78.4363 109.412 79.3695 104.741 83.455C100.55 87.1219 102.728 93.8155 101.075 93.4399C96.6771 92.4398 91.9912 88.9716 91.3114 88.4859C90.631 87.9997 89.2274 87.5976 89.2274 87.5976C89.2274 87.5976 87.7264 88.3139 85.1979 90.8783C84.6034 91.4818 81.0331 97 81.0331 97L79.9995 96.7649C79.9995 96.7649 81.7808 92.9272 84.0399 89.2343C85.6397 86.6191 88.1867 84.2372 89.6784 83.1536C93.2769 80.54 97.1195 78.3362 104.792 76.5031Z" fill="#4F54E5"/>
<path fill-rule="evenodd" clip-rule="evenodd" d="M146.876 125.974C146.265 128.714 143.554 130.437 140.819 129.824C139.157 129.452 138.483 129.224 138.483 129.224C138.483 129.224 138.052 129.869 137.304 131.067C130.358 142.178 116.944 148.249 103.437 145.227C90.0106 142.223 80.4834 131.117 78.8418 118.196C78.7068 117.136 78.5782 115.77 78.5782 115.77C78.5782 115.77 76.6096 115.458 74.9674 115.091C72.2324 114.479 70.5116 111.764 71.1228 109.025C71.734 106.286 74.4446 104.563 77.1796 105.175C78.4709 105.464 79.696 105.739 79.696 105.739C79.696 105.739 79.8663 105.024 79.9633 104.66C80.4411 102.863 80.7806 102.418 81.5383 100.78C84.4197 94.5454 89.5116 91 89.5116 91C89.5116 91 103.025 98.4879 112.742 100.723C121.899 102.83 137.618 101.018 137.618 101.018C137.618 101.018 141.098 106.486 141.845 113.414C141.963 114.506 142.029 115.833 141.994 116.988C141.975 117.592 141.689 119.609 141.689 119.609C141.689 119.609 141.724 119.616 143.032 119.909C145.767 120.521 147.487 123.235 146.876 125.974Z" fill="#D9DDFC"/>
<path fill-rule="evenodd" clip-rule="evenodd" d="M93.6093 115.951C92.5042 115.706 91.8018 114.61 92.0491 113.514L92.9318 109.596C93.1786 108.5 94.2848 107.804 95.3899 108.049C96.495 108.294 97.1969 109.39 96.9501 110.486L96.0668 114.404C95.82 115.5 94.7139 116.196 93.6093 115.951Z" fill="#02065A"/>
<path fill-rule="evenodd" clip-rule="evenodd" d="M123.609 121.951C122.504 121.706 121.802 120.61 122.049 119.514L122.932 115.596C123.179 114.5 124.285 113.804 125.389 114.049C126.494 114.294 127.197 115.39 126.95 116.486L126.067 120.404C125.82 121.5 124.714 122.196 123.609 121.951Z" fill="#02065A"/>
<path fill-rule="evenodd" clip-rule="evenodd" d="M99.3909 130.614C99.7736 131.687 100.239 134.522 104.959 135.566C109.68 136.61 110.899 133.866 112.139 133.548C113.291 133.254 113.483 134.272 111.481 135.77C110.138 136.775 107.441 137.361 104.691 136.753C99.6557 135.639 97.7883 131.842 98.0182 130.822C98.2487 129.803 99.075 129.729 99.3909 130.614Z" fill="#02065A"/>
<g filter="url(#filter2_d)">
<path fill-rule="evenodd" clip-rule="evenodd" d="M157.949 93.0347C156.854 98.0783 138.08 98.3466 116.016 93.633C93.953 88.9194 76.9546 81.0095 78.0496 75.9655C79.1446 70.9214 97.9186 70.6536 119.982 75.3672C142.046 80.0808 159.044 87.9907 157.949 93.0347Z" fill="#0B1166"/>
</g>
<path fill-rule="evenodd" clip-rule="evenodd" d="M151.966 51.3048C151.241 54.7332 138.804 54.9154 124.186 51.7102C109.568 48.505 98.3075 43.1263 99.0327 39.6979C99.7584 36.2661 112.196 36.0845 126.814 39.2897C141.431 42.4949 152.692 47.873 151.966 51.3048Z" fill="#2F348C"/>
<g filter="url(#filter3_d)">
<path fill-rule="evenodd" clip-rule="evenodd" d="M152 51.4932L144.608 86.3282C143.887 89.7264 131.534 89.9068 117.015 86.733C102.496 83.5591 91.3117 78.2332 92.0325 74.835L99.4243 40C98.704 43.3949 109.888 48.7208 124.407 51.8947C138.926 55.0685 151.279 54.8881 152 51.4932Z" fill="#0A1167"/>
</g>
<path fill-rule="evenodd" clip-rule="evenodd" d="M146 74.7263L143.688 85.2767C142.965 88.5813 131.644 88.9856 117.069 85.8991C102.493 82.8125 92.3121 77.855 93.0358 74.5503L95.3471 64C94.6235 67.3015 104.805 72.2596 119.38 75.3461C133.956 78.4326 145.276 78.0278 146 74.7263Z" fill="#2F348D"/>
<path fill-rule="evenodd" clip-rule="evenodd" d="M86.0846 225L83.9995 224.471L100.914 157L103 157.529L86.0846 225Z" fill="#8ADCD4"/>
<path fill-rule="evenodd" clip-rule="evenodd" d="M101 170C101 171.105 100.104 172 98.9995 172C97.8947 172 96.9995 171.105 96.9995 170C96.9995 168.895 97.8947 168 98.9995 168C100.104 168 101 168.895 101 170Z" fill="#63D4C8"/>
<path fill-rule="evenodd" clip-rule="evenodd" d="M95.9995 188C95.9995 189.105 95.1037 190 93.9995 190C92.8947 190 91.9995 189.105 91.9995 188C91.9995 186.895 92.8947 186 93.9995 186C95.1037 186 95.9995 186.895 95.9995 188Z" fill="#63D4C8"/>
<path fill-rule="evenodd" clip-rule="evenodd" d="M91.9995 206C91.9995 207.105 91.1037 208 89.9995 208C88.8947 208 87.9995 207.105 87.9995 206C87.9995 204.895 88.8947 204 89.9995 204C91.1037 204 91.9995 204.895 91.9995 206Z" fill="#63D4C8"/>
<path fill-rule="evenodd" clip-rule="evenodd" d="M81.9995 198L84.9353 165.66L88.9737 161.524L84.5258 151.291L93.6982 145C93.6982 145 94.6603 156.489 93.1461 164.939C91.6323 173.39 81.9995 198 81.9995 198Z" fill="#3EBEB1"/>
<path fill-rule="evenodd" clip-rule="evenodd" d="M108.301 201L118.409 169.527L115.183 161.385L123 153.944L112.925 147C112.925 147 109.848 156.662 108.641 165.243C107.434 173.826 108.301 201 108.301 201Z" fill="#3EBEB1"/>
<path fill-rule="evenodd" clip-rule="evenodd" d="M107.511 208L107.308 201.725C107.272 200.612 106.443 174.377 107.662 165.806C108.881 157.239 112.002 147.494 112.033 147.397L112.483 146L125 154.531L116.657 162.384L119.789 170.2L107.511 208Z" fill="#3EBEB1"/>
<path fill-rule="evenodd" clip-rule="evenodd" d="M110.476 160.487C107.415 161.708 104.18 160.675 103.25 158.18C102.322 155.685 104.051 152.672 107.112 151.451C110.173 150.23 112.746 151.613 113.675 154.108C114.604 156.603 113.538 159.266 110.476 160.487Z" fill="#8ADCD3"/>
<path fill-rule="evenodd" clip-rule="evenodd" d="M104.662 164.04C102.758 162.524 101.166 160.032 102.482 158.372C103.798 156.711 107.522 156.512 109.427 158.028C111.332 159.545 111.435 161.872 110.119 163.532C108.803 165.193 106.567 165.557 104.662 164.04Z" fill="#8ADCD3"/>
<path fill-rule="evenodd" clip-rule="evenodd" d="M94.6108 156.516C96.9081 159.115 100.46 159.782 102.544 158.005C104.627 156.228 104.454 152.681 102.156 150.082C99.8591 147.483 96.763 147.456 94.6795 149.233C92.5955 151.009 92.3134 153.917 94.6108 156.516Z" fill="#8ADCD3"/>
<path fill-rule="evenodd" clip-rule="evenodd" d="M96.6386 162.913C99.0226 162.45 101.342 161.571 100.958 159.4C100.573 157.23 97.6301 154.59 95.2465 155.053C92.8629 155.516 91.6868 157.606 92.0712 159.776C92.4556 161.946 94.2545 163.376 96.6386 162.913Z" fill="#8ADCD3"/>
<path fill-rule="evenodd" clip-rule="evenodd" d="M106.815 155.834C105.734 156.919 105.31 158.203 105.054 157.973C104.798 157.743 105.466 156.678 106.547 155.593C107.628 154.508 108.711 153.815 108.968 154.044C109.223 154.274 107.896 154.748 106.815 155.834Z" fill="#3EBEB1"/>
<path fill-rule="evenodd" clip-rule="evenodd" d="M106.452 156.39C105.072 156.6 104.065 157.177 104.002 156.947C103.939 156.716 105.006 156.359 106.385 156.148C107.764 155.937 108.934 155.954 108.997 156.184C109.06 156.414 107.831 156.179 106.452 156.39Z" fill="#3EBEB1"/>
<path fill-rule="evenodd" clip-rule="evenodd" d="M104.397 160.052C104.165 158.949 104.309 157.935 104.12 158.003C103.932 158.071 103.968 159.02 104.199 160.123C104.431 161.226 104.771 162.064 104.959 161.996C105.147 161.928 104.628 161.154 104.397 160.052Z" fill="#3EBEB1"/>
<path fill-rule="evenodd" clip-rule="evenodd" d="M105.852 159.655C104.763 158.849 104.234 157.811 104.033 158.03C103.832 158.249 104.551 159.078 105.641 159.884C106.73 160.689 107.776 161.165 107.978 160.947C108.179 160.728 106.941 160.461 105.852 159.655Z" fill="#3EBEB1"/>
<path fill-rule="evenodd" clip-rule="evenodd" d="M98.2056 154.436C98.6687 155.814 98.3815 157.081 98.7581 156.996C99.134 156.911 99.0632 155.724 98.6 154.346C98.1368 152.968 97.4565 151.92 97.0799 152.005C96.704 152.09 97.7424 153.057 98.2056 154.436Z" fill="#3EBEB1"/>
<path fill-rule="evenodd" clip-rule="evenodd" d="M98.147 154.793C99.2366 155.868 99.7647 157.252 99.9658 156.961C100.167 156.669 99.4472 155.562 98.3581 154.488C97.2685 153.414 96.2224 152.779 96.0213 153.071C95.8196 153.362 97.0574 153.719 98.147 154.793Z" fill="#3EBEB1"/>
<path fill-rule="evenodd" clip-rule="evenodd" d="M97.6375 157.625C98.4483 156.811 98.7665 155.848 98.9584 156.02C99.1508 156.192 98.6497 156.992 97.8389 157.805C97.0287 158.619 96.2156 159.139 96.0237 158.967C95.8312 158.795 96.8272 158.439 97.6375 157.625Z" fill="#3EBEB1"/>
<path fill-rule="evenodd" clip-rule="evenodd" d="M97.5472 157.61C98.927 157.4 99.9333 156.823 99.9969 157.053C100.06 157.284 98.9933 157.641 97.6135 157.852C96.2344 158.063 95.0648 158.047 95.0019 157.816C94.9383 157.586 96.1681 157.821 97.5472 157.61Z" fill="#3EBEB1"/>
<path fill-rule="evenodd" clip-rule="evenodd" d="M101.974 160.915L100.186 160.47C98.6471 160.087 97.7017 158.514 98.0846 156.975L98.53 155.187C98.9128 153.648 100.486 152.702 102.025 153.085L103.813 153.53C105.352 153.914 106.298 155.486 105.914 157.025L105.469 158.813C105.086 160.352 103.513 161.298 101.974 160.915Z" fill="#63D4C8"/>
<path fill-rule="evenodd" clip-rule="evenodd" d="M102 160.991C102 160.991 101.319 161.089 100.108 160.637C98.8968 160.185 97.7836 157.856 98.0354 156.34C98.0381 156.323 98.0412 156.305 98.0438 156.288C98.1122 155.88 98.5038 155.915 98.5448 156.332C98.611 157.007 98.7155 157.722 98.8787 158.256C99.3647 159.849 102 160.991 102 160.991Z" fill="#3EBEB1"/>
<g filter="url(#filter4_d)">
<path fill-rule="evenodd" clip-rule="evenodd" d="M170.668 118L166 115.293L194.331 66L199 68.7071L170.668 118Z" fill="#0A1167"/>
</g>
<path fill-rule="evenodd" clip-rule="evenodd" d="M169.519 118L166 115.983L169.48 110L173 112.016L169.519 118Z" fill="#4148B9"/>
<path fill-rule="evenodd" clip-rule="evenodd" d="M193.393 76.3506L190.348 74.4553L194.04 67.8743L197.437 69.8262L193.393 76.3506Z" fill="#30368F"/>
<path fill-rule="evenodd" clip-rule="evenodd" d="M161 115.17C161 115.17 164.312 109.787 167.044 111.253C169.777 112.72 165.777 117 165.777 117" fill="#D9DDFC"/>
<path fill-rule="evenodd" clip-rule="evenodd" d="M165.763 118C165.509 118 165.253 117.907 165.053 117.719C164.634 117.327 164.613 116.669 165.005 116.251C165.86 115.335 167.058 113.565 166.91 112.675C166.886 112.529 166.823 112.373 166.526 112.214C165.15 111.477 162.788 114.302 161.923 115.704C161.621 116.192 160.981 116.344 160.493 116.042C160.005 115.741 159.853 115.101 160.154 114.613C160.542 113.985 164.043 108.528 167.507 110.382C168.319 110.817 168.822 111.493 168.961 112.338C169.325 114.55 166.993 117.169 166.522 117.672C166.317 117.89 166.041 118 165.763 118Z" fill="#C8CFFB"/>
<path fill-rule="evenodd" clip-rule="evenodd" d="M204.393 44L204.26 45.7405L203 46.5957L204.328 47.2858L204.611 49L205.564 47.686L207 47.8899L206.261 46.3879L206.865 44.7998L205.455 45.1857L204.393 44Z" fill="#8DE2D2"/>
<path fill-rule="evenodd" clip-rule="evenodd" d="M222.044 48L221.945 49.3929L221 50.0766L221.996 50.6284L222.208 52L222.923 50.9486L224 51.1122L223.445 49.9103L223.898 48.6398L222.841 48.9483L222.044 48Z" fill="#8DE2D2"/>
<path fill-rule="evenodd" clip-rule="evenodd" d="M217.044 62L216.945 63.3929L216 64.0766L216.996 64.6284L217.208 66L217.923 64.9486L219 65.1122L218.445 63.9103L218.898 62.6398L217.841 62.9483L217.044 62Z" fill="#8DE2D2"/>
<path fill-rule="evenodd" clip-rule="evenodd" d="M191.044 52L190.945 53.3922L190 54.0766L190.996 54.6284L191.208 56L191.923 54.9486L193 55.1122L192.445 53.9103L192.898 52.6398L191.841 52.9483L191.044 52Z" fill="#8DE2D2"/>
<path fill-rule="evenodd" clip-rule="evenodd" d="M242.377 31.1904L241.282 33.1873L239.016 33.4176L240.576 35.0762L240.095 37.3023L242.155 36.3303L244.123 37.4759L243.836 35.2167L245.534 33.6986L243.296 33.2744L242.377 31.1904Z" fill="#8DE2D2"/>
<path fill-rule="evenodd" clip-rule="evenodd" d="M238.08 56.0392L236.525 56.8702L234.99 56L235.264 57.8061L234 59.0664L235.724 59.3509L236.478 61L237.269 59.3705L239 59.1295L237.764 57.8374L238.08 56.0392Z" fill="#8DE2D2"/>
<path fill-rule="evenodd" clip-rule="evenodd" d="M197.103 34L195.456 35.3466L193.394 34.7762L194.188 36.7326L193 38.4848L195.137 38.3466L196.463 40L196.991 37.9585L199 37.2286L197.188 36.1042L197.103 34Z" fill="#8DE2D2"/>
<path fill-rule="evenodd" clip-rule="evenodd" d="M199.089 61.3325C208.299 48.9319 221.559 39.9219 236.427 36.017C237.001 35.8664 237.247 36.763 236.672 36.9142C222.051 40.7534 208.948 49.5991 199.885 61.802C199.533 62.2752 198.733 61.8124 199.089 61.3325Z" fill="#8DE2D2"/>
<path fill-rule="evenodd" clip-rule="evenodd" d="M203.132 63.4592C212.154 57.7676 223.021 55.1863 233.716 56.2251C234.129 56.2652 234.074 56.8929 233.661 56.8523C223.144 55.8305 212.42 58.3445 203.542 63.9452C203.197 64.1623 202.783 63.6794 203.132 63.4592Z" fill="#8DE2D2"/>
<path fill-rule="evenodd" clip-rule="evenodd" d="M195.579 62.8387C200.33 53.0214 201.031 50.9453 198.731 40.2518C198.642 39.8388 198.009 39.97 198.098 40.3835C200.361 50.899 199.711 52.8227 195.036 62.4832C194.855 62.8576 195.395 63.2181 195.579 62.8387Z" fill="#8DE2D2"/>
</g>
<defs>
<filter id="filter0_d" x="-0.000488281" y="31.1904" width="245.534" height="328.81" filterUnits="userSpaceOnUse" color-interpolation-filters="sRGB">
<feFlood flood-opacity="0" result="BackgroundImageFix"/>
<feColorMatrix in="SourceAlpha" type="matrix" values="0 0 0 0 0 0 0 0 0 0 0 0 0 0 0 0 0 0 127 0"/>
<feOffset dx="-7" dy="6"/>
<feGaussianBlur stdDeviation="2.5"/>
<feColorMatrix type="matrix" values="0 0 0 0 0.274404 0 0 0 0 0.450087 0 0 0 0 0.478795 0 0 0 0.0923913 0"/>
<feBlend mode="normal" in2="BackgroundImageFix" result="effect1_dropShadow"/>
<feBlend mode="normal" in="SourceGraphic" in2="effect1_dropShadow" result="shape"/>
</filter>
<filter id="filter1_d" x="56.9995" y="147" width="62" height="102" filterUnits="userSpaceOnUse" color-interpolation-filters="sRGB">
<feFlood flood-opacity="0" result="BackgroundImageFix"/>
<feColorMatrix in="SourceAlpha" type="matrix" values="0 0 0 0 0 0 0 0 0 0 0 0 0 0 0 0 0 0 127 0"/>
<feOffset dy="4"/>
<feGaussianBlur stdDeviation="4"/>
<feColorMatrix type="matrix" values="0 0 0 0 0.0816918 0 0 0 0 0.102788 0 0 0 0 0.183406 0 0 0 0.3 0"/>
<feBlend mode="normal" in2="BackgroundImageFix" result="effect1_dropShadow"/>
<feBlend mode="normal" in="SourceGraphic" in2="effect1_dropShadow" result="shape"/>
</filter>
<filter id="filter2_d" x="17.9995" y="32" width="200" height="145" filterUnits="userSpaceOnUse" color-interpolation-filters="sRGB">
<feFlood flood-opacity="0" result="BackgroundImageFix"/>
<feColorMatrix in="SourceAlpha" type="matrix" values="0 0 0 0 0 0 0 0 0 0 0 0 0 0 0 0 0 0 127 0"/>
<feOffset dy="20"/>
<feGaussianBlur stdDeviation="30"/>
<feColorMatrix type="matrix" values="0 0 0 0 0.392157 0 0 0 0 0.501961 0 0 0 0 0.921569 0 0 0 0.2 0"/>
<feBlend mode="normal" in2="BackgroundImageFix" result="effect1_dropShadow"/>
<feBlend mode="normal" in="SourceGraphic" in2="effect1_dropShadow" result="shape"/>
</filter>
<filter id="filter3_d" x="31.9995" y="0" width="180" height="169" filterUnits="userSpaceOnUse" color-interpolation-filters="sRGB">
<feFlood flood-opacity="0" result="BackgroundImageFix"/>
<feColorMatrix in="SourceAlpha" type="matrix" values="0 0 0 0 0 0 0 0 0 0 0 0 0 0 0 0 0 0 127 0"/>
<feOffset dy="20"/>
<feGaussianBlur stdDeviation="30"/>
<feColorMatrix type="matrix" values="0 0 0 0 0.392157 0 0 0 0 0.501961 0 0 0 0 0.921569 0 0 0 0.2 0"/>
<feBlend mode="normal" in2="BackgroundImageFix" result="effect1_dropShadow"/>
<feBlend mode="normal" in="SourceGraphic" in2="effect1_dropShadow" result="shape"/>
</filter>
<filter id="filter4_d" x="106" y="26" width="153" height="172" filterUnits="userSpaceOnUse" color-interpolation-filters="sRGB">
<feFlood flood-opacity="0" result="BackgroundImageFix"/>
<feColorMatrix in="SourceAlpha" type="matrix" values="0 0 0 0 0 0 0 0 0 0 0 0 0 0 0 0 0 0 127 0"/>
<feOffset dy="20"/>
<feGaussianBlur stdDeviation="30"/>
<feColorMatrix type="matrix" values="0 0 0 0 0.392157 0 0 0 0 0.501961 0 0 0 0 0.921569 0 0 0 0.2 0"/>
<feBlend mode="normal" in2="BackgroundImageFix" result="effect1_dropShadow"/>
<feBlend mode="normal" in="SourceGraphic" in2="effect1_dropShadow" result="shape"/>
</filter>
</defs>
</svg>
