<svg width="650" height="389" viewBox="0 0 650 389" fill="none" xmlns="http://www.w3.org/2000/svg">
<path fill-rule="evenodd" clip-rule="evenodd" d="M631.947 333.57C632.219 328.225 632.356 322.844 632.356 317.43C632.356 144.34 491.837 4.02344 318.499 4.02344C145.16 4.02344 4.6416 144.34 4.6416 317.43C4.6416 322.844 4.77904 328.225 5.05061 333.57H631.947Z" fill="#F8F8FE"/>
<path fill-rule="evenodd" clip-rule="evenodd" d="M504.595 335.427C503.016 329.548 496.768 305.139 496.768 288.005C496.768 267.119 532.933 236.133 538.552 231.318C538.944 230.982 539.187 230.774 539.259 230.705C539.259 230.705 539.266 230.705 539.27 230.701C539.274 230.699 539.276 230.695 539.276 230.688C569.523 212.865 570.38 179.956 570.38 142.294C570.38 85.683 543.928 55.9999 487.33 55.9999C430.731 55.9999 412.895 85.6662 412.895 142.294C412.895 147.225 412.814 152.074 412.735 156.818C412.172 190.432 411.697 218.793 440.808 233.661C442.51 236.072 444.944 239.073 447.74 242.52L447.74 242.52C458.607 255.915 474.935 276.044 474.935 294.388C474.935 315.42 466.185 330.942 463.33 335.427H504.595ZM495.208 244.53C500.129 244.161 504.949 243.438 509.635 242.397L494.62 263.177L495.208 244.53ZM461.704 241.607L474.518 264.89L479.036 244.496C473.108 244.026 467.297 243.052 461.704 241.607Z" fill="#D6DBFA"/>
<path d="M554.746 152.071C554.746 199.846 545.408 211.958 539.681 211.958C533.954 211.958 538.287 177.739 538.287 152.071C538.287 126.403 533.954 89.3286 539.681 89.3286C545.408 89.3286 554.746 104.296 554.746 152.071Z" fill="#BAC4F4"/>
<path fill-rule="evenodd" clip-rule="evenodd" d="M448.565 335.428C447.557 331.672 443.566 316.08 443.566 305.135C443.566 291.793 466.667 272 470.256 268.924L470.257 268.924L470.257 268.924C470.507 268.71 470.662 268.577 470.708 268.533C470.708 268.533 470.719 268.533 470.719 268.522C490.041 257.137 490.588 236.115 490.588 212.057C490.588 175.895 473.691 156.934 437.536 156.934C401.382 156.934 389.989 175.884 389.989 212.057C389.989 215.207 389.937 218.304 389.886 221.335C389.527 242.807 389.223 260.924 407.819 270.421C408.906 271.961 410.461 273.878 412.247 276.08C419.189 284.637 429.619 297.495 429.619 309.213C429.619 322.647 424.03 332.563 422.206 335.428H448.565ZM442.569 277.364C445.713 277.128 448.792 276.667 451.785 276.001L442.194 289.275L442.569 277.364ZM421.167 275.497L429.352 290.37L432.238 277.343C428.451 277.043 424.739 276.42 421.167 275.497Z" fill="#C5CCEF"/>
<path fill-rule="evenodd" clip-rule="evenodd" d="M442.275 335.428C441.267 331.672 437.276 316.08 437.276 305.135C437.276 291.793 460.377 272 463.966 268.924L463.966 268.924L463.967 268.924C464.217 268.71 464.372 268.577 464.418 268.533C464.418 268.533 464.429 268.533 464.429 268.522C483.751 257.137 484.298 236.115 484.298 212.057C484.298 175.895 467.401 156.934 431.246 156.934C395.092 156.934 383.699 175.884 383.699 212.057C383.699 215.207 383.647 218.304 383.596 221.335C383.237 242.807 382.933 260.924 401.529 270.421C402.616 271.961 404.171 273.878 405.957 276.08C412.899 284.637 423.329 297.495 423.329 309.213C423.329 322.647 417.74 332.563 415.916 335.428H442.275ZM436.278 277.363C439.421 277.127 442.5 276.666 445.493 276L435.902 289.274L436.278 277.363ZM414.875 275.496L423.061 290.369L425.947 277.341C422.16 277.041 418.448 276.419 414.875 275.496Z" fill="#E1E5FA"/>
<path d="M474.31 218.301C474.31 248.819 468.345 256.556 464.687 256.556C461.029 256.556 463.797 234.698 463.797 218.301C463.797 201.905 461.029 178.222 464.687 178.222C468.345 178.222 474.31 187.783 474.31 218.301Z" fill="#BAC4F4"/>
<path d="M24.2393 333.724L56.1318 246.02V333.724H24.2393Z" fill="#F1F2FE"/>
<path d="M335.034 166.766H54.7871V335.148H335.034V166.766Z" fill="#E1E5FA"/>
<path d="M335.611 159.651H55.2686V220.843H335.611V159.651Z" fill="#C5CCEF"/>
<g filter="url(#filter0_d)">
<path d="M290.648 144.719L272.315 84.7852H323.547L353.977 144.719H290.648Z" fill="white"/>
<path d="M227.319 144.719L222.319 84.7852H272.316L290.649 144.719H227.319Z" fill="#CCF7EF"/>
<path d="M100.661 144.719L118.993 84.7852H67.762L37.3312 144.719H100.661Z" fill="white"/>
<path d="M163.989 144.719L168.988 84.7852H118.991L100.659 144.719H163.989Z" fill="#CCF7EF"/>
<path d="M163.99 144.719L169.019 84.7852H222.32L227.32 144.719H163.99Z" fill="white"/>
<path fill-rule="evenodd" clip-rule="evenodd" d="M290.647 144.72H353.968H353.977V168.859C353.977 186.525 339.722 200.977 322.317 200.977C304.894 200.977 290.647 186.516 290.647 168.859V144.72Z" fill="white"/>
<path fill-rule="evenodd" clip-rule="evenodd" d="M227.32 144.72H290.641H290.65V168.859C290.65 186.525 276.395 200.977 258.99 200.977C241.567 200.977 227.32 186.516 227.32 168.859V144.72Z" fill="#CCF7EF"/>
<path fill-rule="evenodd" clip-rule="evenodd" d="M163.99 144.72H227.311H227.32V168.859C227.32 186.525 213.065 200.977 195.66 200.977C178.236 200.977 163.99 186.516 163.99 168.859V144.72Z" fill="white"/>
<path fill-rule="evenodd" clip-rule="evenodd" d="M100.659 144.72H163.98H163.989V168.859C163.989 186.525 149.733 200.977 132.329 200.977C114.905 200.977 100.659 186.516 100.659 168.859V144.72Z" fill="#CCF7EF"/>
<path fill-rule="evenodd" clip-rule="evenodd" d="M37.3301 144.72H100.651H100.66V168.859C100.66 186.525 86.4044 200.977 68.9995 200.977C51.5763 200.977 37.3301 186.516 37.3301 168.859V144.72Z" fill="white"/>
</g>
<path d="M289.262 239.342H237.205C233.891 239.342 231.205 242.029 231.205 245.342V329.427C231.205 332.741 233.891 335.427 237.205 335.427H289.262C292.575 335.427 295.262 332.741 295.262 329.427V245.342C295.262 242.029 292.575 239.342 289.262 239.342Z" fill="#D6DBFA"/>
<rect x="273.907" y="276.954" width="8.00705" height="16.0141" rx="4.00353" fill="#BAC4F4"/>
<line x1="1.5" y1="333.927" x2="648.5" y2="333.927" stroke="#E2E6FB" stroke-width="3" stroke-linecap="round"/>
<path d="M307.302 123.089C307.302 146.053 291.859 162.851 268.896 162.851C262.786 162.851 246.294 181.868 241.067 184.858C228.187 192.221 228.002 178.042 227.649 163.371C227.314 149.331 227.314 125.336 227.314 123.544C227.314 100.581 244.577 82 270.409 82C293.382 81.9907 307.302 100.126 307.302 123.089Z" fill="#2025B9"/>
<path d="M268.357 388.419C312.461 388.419 348.214 382.183 348.214 374.491C348.214 366.798 312.461 360.562 268.357 360.562C224.253 360.562 188.5 366.798 188.5 374.491C188.5 382.183 224.253 388.419 268.357 388.419Z" fill="#E2E6FB"/>
<path d="M263.103 283.555H248.422L250.92 366.338H263.103V283.555Z" fill="#D9DDFC"/>
<path d="M283.652 283.1H269.185V365.437H280.327L283.652 283.1Z" fill="#D9DDFC"/>
<path d="M286.678 295.916H245.774C245.774 295.916 240.101 260.361 243.276 245.541C244.706 238.864 246.053 236.078 246.053 236.078H286.213C286.213 236.078 289.306 242.393 290.048 247.5C292.249 262.617 286.678 295.916 286.678 295.916Z" fill="#3232C8"/>
<path d="M256.008 160.501C246.536 160.455 233.536 163.241 231.679 161.384C229.822 159.526 220.295 133.805 220.295 133.805L207.536 138.169C207.536 138.169 221.465 170.669 224.25 172.526C227.036 174.384 246.685 179.955 246.685 179.955C246.685 179.955 249.257 208.378 249.192 215.501C249.136 221.833 241.875 239.541 241.875 239.541C241.875 239.541 247.44 241.855 251.179 241.807C255.067 241.757 260.762 239.105 260.762 239.105L265.73 236.059L270.893 239.012C270.893 239.012 276.258 241.834 279.965 241.807C283.828 241.779 289.334 238.631 289.334 238.631C289.334 238.631 283.586 221.063 282.908 214.813C282.156 207.868 285.081 192.454 285.081 192.454C285.081 192.454 287.969 199.641 289.483 204.163C291.154 209.177 311.295 226.551 311.295 226.551L321.63 219.521C321.63 219.521 300.05 200.764 298.666 197.041C297.199 193.085 297.218 179.788 292.733 171.644C289.436 165.674 286.177 161.616 276.278 161.616C276.269 161.644 256.026 160.501 256.008 160.501Z" fill="#F7C645"/>
<path d="M318.908 233.32C323.042 233.32 326.392 229.969 326.392 225.835C326.392 221.702 323.042 218.351 318.908 218.351C314.775 218.351 311.424 221.702 311.424 225.835C311.424 229.969 314.775 233.32 318.908 233.32Z" fill="#D9DDFC"/>
<path d="M276.323 157.771C276.323 157.771 277.224 166.416 275.534 170.502C274.039 174.124 269.851 176.259 267.409 176.259C264.772 176.259 261.104 174.969 259.191 170.92C257.315 166.964 258.346 157.623 258.346 157.623C259.395 158.124 264.224 158.561 267.316 158.561C270.622 158.561 276.323 157.771 276.323 157.771Z" fill="#D9DDFC"/>
<path d="M276.323 147.242C276.323 147.242 277.224 155.887 275.534 159.973C274.039 163.594 269.851 165.73 267.409 165.73C264.772 165.73 261.104 164.439 259.191 160.39C257.315 156.435 258.346 147.093 258.346 147.093C259.395 147.595 264.224 148.031 267.316 148.031C270.622 148.031 276.323 147.242 276.323 147.242Z" fill="#C9D0FB"/>
<path d="M263.103 358.482V375.948H257.002V369.458L244.838 375.391H234.735C234.735 375.391 246.24 361.203 250.131 358.482C254.022 355.761 263.103 358.482 263.103 358.482Z" fill="#EC5C8C"/>
<path d="M269.185 358.482V375.948H275.285V369.458L287.45 375.391H297.552C297.552 375.391 286.047 361.203 282.157 358.482C278.275 355.761 269.185 358.482 269.185 358.482Z" fill="#EC5C8C"/>
<path d="M213.693 141.735C217.827 141.735 221.178 138.385 221.178 134.251C221.178 130.118 217.827 126.767 213.693 126.767C209.56 126.767 206.209 130.118 206.209 134.251C206.209 138.385 209.56 141.735 213.693 141.735Z" fill="#D9DDFC"/>
<path d="M266.612 190.866L253.287 174.616L254.271 169.536L250.566 169.249L244.688 161.384C244.688 161.384 248.839 159.48 252.117 159.526C254.68 159.564 257.688 160.455 257.688 160.455C257.688 160.455 257.28 162.684 258.543 166.156C259.508 168.821 265.999 184.969 267.643 190.29C267.819 190.912 267.039 191.358 266.612 190.866Z" fill="#FFD975"/>
<path d="M267.874 190.856L282.23 174.319L281.245 169.239L284.95 168.951L287.179 163.761C287.179 163.761 286.018 161.931 283.743 160.501C281.57 159.136 276.955 159.257 276.955 159.257C276.955 159.257 277.81 163.046 276.556 166.528C275.609 169.156 268.44 184.802 266.76 190.234C266.555 190.903 267.41 191.376 267.874 190.856Z" fill="#FFD975"/>
<path d="M267.109 192.156V236.05" stroke="#A07D1F" stroke-width="3" stroke-miterlimit="10"/>
<path d="M267.11 202.138C267.694 202.138 268.168 201.664 268.168 201.079C268.168 200.495 267.694 200.021 267.11 200.021C266.525 200.021 266.051 200.495 266.051 201.079C266.051 201.664 266.525 202.138 267.11 202.138Z" fill="white" stroke="#A07D1F" stroke-width="3" stroke-miterlimit="10"/>
<path d="M267.11 215.119C267.694 215.119 268.168 214.645 268.168 214.061C268.168 213.476 267.694 213.002 267.11 213.002C266.525 213.002 266.051 213.476 266.051 214.061C266.051 214.645 266.525 215.119 267.11 215.119Z" fill="white" stroke="#A07D1F" stroke-width="3" stroke-miterlimit="10"/>
<path d="M267.11 231.797C267.694 231.797 268.168 231.323 268.168 230.739C268.168 230.154 267.694 229.68 267.11 229.68C266.525 229.68 266.051 230.154 266.051 230.739C266.051 231.323 266.525 231.797 267.11 231.797Z" fill="white" stroke="#A07D1F" stroke-width="3" stroke-miterlimit="10"/>
<path d="M282.203 193.465L279.835 195.313C279.39 195.666 278.758 195.666 278.303 195.313L275.935 193.465C275.638 193.233 275.462 192.871 275.462 192.481V186.845C275.462 186.157 276.019 185.6 276.706 185.6H281.433C282.12 185.6 282.677 186.157 282.677 186.845V192.481C282.677 192.871 282.5 193.233 282.203 193.465Z" fill="#FFF1CB"/>
<g filter="url(#filter1_d)">
<path d="M322.809 229.811H316.764V237.425H322.809V229.811Z" fill="#BAC4F4"/>
<path d="M326.596 287.995H310.978C307.83 287.995 305.425 285.172 305.926 282.07L312.445 241.724C312.844 239.245 314.98 237.425 317.496 237.425H321.898C324.488 237.425 326.68 239.365 326.977 241.947L331.685 282.293C332.028 285.33 329.651 287.995 326.596 287.995Z" fill="white"/>
<path d="M329.651 263.09L333.167 262.555L332.036 255.119L328.52 255.654L329.651 263.09Z" fill="#BAC4F4"/>
</g>
<path d="M252.284 88.4258C259.88 84.7487 270.716 84.9437 270.716 84.9437C270.716 84.9437 257.772 90.283 253.835 95.5665C250.297 100.312 254.104 106.672 252.293 106.672C247.465 106.672 243.825 104.314 242.998 103.97C242.172 103.627 239.748 102.856 239.748 102.856C239.748 102.856 235.588 107.434 234.242 111.009C233.573 112.801 231.985 117.434 231.985 117.434H230.249C230.249 117.434 231.308 112.457 232.821 108.139C233.889 105.084 237.483 99.9215 238.792 98.4637C241.958 94.963 244.688 92.103 252.284 88.4258Z" fill="#4F54E5"/>
<path d="M308.779 129.274C308.779 132.282 306.346 134.715 303.338 134.715C301.508 134.715 300.747 134.631 300.747 134.631C300.747 134.631 300.45 135.402 299.939 136.832C295.259 150.074 282.631 159.564 267.783 159.564C253.018 159.564 240.446 150.176 235.71 137.055C235.32 135.978 234.865 134.576 234.865 134.576C234.865 134.576 232.729 134.706 230.928 134.706C227.919 134.706 225.486 132.273 225.486 129.264C225.486 126.256 227.919 123.823 230.928 123.823C232.348 123.823 233.695 123.823 233.695 123.823C233.695 123.823 233.704 123.034 233.723 122.634C233.806 120.647 234.057 120.099 234.466 118.205C236.026 111.009 240.529 106.115 240.529 106.115C240.529 106.115 267.681 115.949 281.117 117.453C294.897 119.004 300.914 117.806 300.914 117.806C300.914 117.806 301.722 120.796 301.824 122.56C301.861 123.21 301.861 123.823 301.861 123.823C301.861 123.823 301.898 123.823 303.338 123.823C306.346 123.823 308.779 126.265 308.779 129.274Z" fill="#D9DDFC"/>
<path d="M252.786 132.765H252.211C251.134 132.765 250.242 131.883 250.242 130.797V125.782C250.242 124.705 251.124 123.814 252.211 123.814H252.786C253.864 123.814 254.755 124.696 254.755 125.782V130.797C254.746 131.883 253.864 132.765 252.786 132.765Z" fill="#2025B9"/>
<path d="M283.661 132.765H283.086C282.009 132.765 281.117 131.883 281.117 130.797V125.782C281.117 124.705 281.999 123.814 283.086 123.814H283.661C284.739 123.814 285.63 124.696 285.63 125.782V130.797C285.63 131.883 284.748 132.765 283.661 132.765Z" fill="#2025B9"/>
<path d="M250.493 125.104V127.723C250.493 127.723 249.62 127.026 249.137 126.544C248.663 126.07 248.487 125.494 248.134 124.872C247.79 124.25 247.586 123.117 248.088 123.693C248.413 124.064 248.821 124.529 249.332 125.03C249.778 125.466 250.493 125.104 250.493 125.104Z" fill="#2025B9"/>
<path d="M285.054 125.104V127.723C285.054 127.723 285.927 127.026 286.409 126.544C286.883 126.07 287.059 125.494 287.412 124.872C287.765 124.25 287.96 123.117 287.459 123.693C287.134 124.064 286.725 124.529 286.214 125.03C285.759 125.466 285.054 125.104 285.054 125.104Z" fill="#2025B9"/>
<path d="M261.107 144.289C261.868 145.505 263.215 148.867 269.26 148.867C275.305 148.867 276.029 145.153 277.459 144.428C278.778 143.75 279.298 144.948 277.264 147.344C275.908 148.95 272.779 150.399 269.26 150.399C262.815 150.399 259.491 146.23 259.491 144.911C259.491 143.593 260.485 143.277 261.107 144.289Z" fill="#2025B9"/>
<g filter="url(#filter2_d)">
<path d="M227.528 150.668L225.931 150.946C224.872 151.132 223.87 150.417 223.684 149.359L218.642 120.053C218.456 118.994 219.171 117.991 220.23 117.806L221.827 117.527C222.885 117.341 223.888 118.056 224.074 119.115L229.116 148.421C229.302 149.479 228.587 150.482 227.528 150.668Z" fill="white"/>
</g>
<path d="M222.867 127.454C222.616 127.5 222.375 127.324 222.328 127.073L221.845 124.26C221.799 124.009 221.975 123.767 222.226 123.721C222.477 123.675 222.718 123.851 222.765 124.102L223.247 126.915C223.285 127.166 223.117 127.407 222.867 127.454Z" fill="#D6DBFA"/>
<path d="M223.794 133.025C223.544 133.072 223.302 132.895 223.256 132.645L222.773 129.831C222.727 129.58 222.903 129.339 223.154 129.292C223.404 129.246 223.646 129.422 223.692 129.673L224.175 132.487C224.212 132.737 224.045 132.979 223.794 133.025Z" fill="#D6DBFA"/>
<rect x="147.018" y="347.029" width="83.3879" height="1.89317" rx="0.946585" fill="#E2E6FB"/>
<path d="M111.667 348.811C109.631 344.757 108.474 340.112 108.474 335.168C108.474 319.412 120.226 306.641 134.726 306.641C142.355 306.641 149.222 310.176 154.018 315.818C157.742 313.22 162.179 311.713 166.932 311.713C168.239 311.713 169.525 311.824 170.777 312.045C173.807 310.061 177.364 308.924 181.166 308.924C188.838 308.924 195.512 313.574 198.928 320.425C206.578 323.236 212.086 331.105 212.086 340.367C212.086 343.369 210.149 348.922 210.149 348.922L111.667 348.811Z" fill="#E1E5FA"/>
<path d="M141.793 336.424C141.793 340.844 140.871 345.004 139.247 348.628H60.4857C59.6542 346.316 59.1913 343.761 59.1913 341.074C59.1913 332.787 63.5802 325.744 69.6836 323.232C72.4053 317.104 77.7287 312.944 83.8406 312.944C86.8709 312.944 89.704 313.961 92.1214 315.737C93.12 315.537 94.1444 315.439 95.1859 315.439C98.9748 315.439 102.511 316.789 105.481 319.114C109.304 314.064 114.778 310.9 120.86 310.9C132.419 310.895 141.793 322.325 141.793 336.424Z" fill="#C5CCEF"/>
<path d="M156.17 318.216C156.17 323.602 162.471 327.299 180.734 327.78C198.993 328.261 207.398 346.768 207.398 346.768C207.398 346.768 210.715 337.131 205.619 329.615C203.527 326.532 200.154 325.476 196.408 322.069C191.921 317.986 192.846 312.94 183.644 311.632C175.728 310.508 175.694 313.595 171.039 314.362C167.254 314.988 166.204 313.915 163.122 314.042C159.891 314.174 156.17 316.491 156.17 318.216Z" fill="#BAC4F4"/>
<path d="M137.387 336.424C137.387 340.844 136.465 345.004 134.841 348.628H56.0794C55.2479 346.316 54.785 343.761 54.785 341.074C54.785 332.787 59.174 325.744 65.2774 323.232C67.9991 317.104 73.3224 312.944 79.4344 312.944C82.4646 312.944 85.2977 313.961 87.7151 315.737C88.7138 315.537 89.7382 315.439 90.7797 315.439C94.5686 315.439 98.1046 316.789 101.075 319.114C104.898 314.064 110.371 310.9 116.453 310.9C128.013 310.895 137.387 322.325 137.387 336.424Z" fill="#D6DBFA"/>
<path d="M102.732 325.659C102.732 325.659 113.126 324.727 117.772 324.94C122.418 325.153 132.782 327.035 132.782 327.035C132.782 327.035 128.878 318.186 120.52 316.176C111.407 313.983 102.732 325.659 102.732 325.659Z" fill="#BAC4F4"/>
<ellipse cx="347.848" cy="50.9781" rx="12.6345" ry="12.6211" stroke="#D1F7F4" stroke-width="8"/>
<ellipse cx="459.277" cy="16.6211" rx="12.6345" ry="12.6211" stroke="#FDF0C6" stroke-width="8"/>
<ellipse cx="17.2761" cy="225.55" rx="12.6345" ry="12.6211" stroke="#F8D4E1" stroke-width="8"/>
<defs>
<filter id="filter0_d" x="22.3301" y="75.7852" width="346.647" height="146.192" filterUnits="userSpaceOnUse" color-interpolation-filters="sRGB">
<feFlood flood-opacity="0" result="BackgroundImageFix"/>
<feColorMatrix in="SourceAlpha" type="matrix" values="0 0 0 0 0 0 0 0 0 0 0 0 0 0 0 0 0 0 127 0"/>
<feOffset dy="6"/>
<feGaussianBlur stdDeviation="7.5"/>
<feColorMatrix type="matrix" values="0 0 0 0 0 0 0 0 0 0.138341 0 0 0 0 0.864629 0 0 0 0.2 0"/>
<feBlend mode="normal" in2="BackgroundImageFix" result="effect1_dropShadow"/>
<feBlend mode="normal" in="SourceGraphic" in2="effect1_dropShadow" result="shape"/>
</filter>
<filter id="filter1_d" x="290.86" y="220.811" width="57.3065" height="88.184" filterUnits="userSpaceOnUse" color-interpolation-filters="sRGB">
<feFlood flood-opacity="0" result="BackgroundImageFix"/>
<feColorMatrix in="SourceAlpha" type="matrix" values="0 0 0 0 0 0 0 0 0 0 0 0 0 0 0 0 0 0 127 0"/>
<feOffset dy="6"/>
<feGaussianBlur stdDeviation="7.5"/>
<feColorMatrix type="matrix" values="0 0 0 0 0 0 0 0 0 0.138341 0 0 0 0 0.864629 0 0 0 0.2 0"/>
<feBlend mode="normal" in2="BackgroundImageFix" result="effect1_dropShadow"/>
<feBlend mode="normal" in="SourceGraphic" in2="effect1_dropShadow" result="shape"/>
</filter>
<filter id="filter2_d" x="203.612" y="108.498" width="40.533" height="63.478" filterUnits="userSpaceOnUse" color-interpolation-filters="sRGB">
<feFlood flood-opacity="0" result="BackgroundImageFix"/>
<feColorMatrix in="SourceAlpha" type="matrix" values="0 0 0 0 0 0 0 0 0 0 0 0 0 0 0 0 0 0 127 0"/>
<feOffset dy="6"/>
<feGaussianBlur stdDeviation="7.5"/>
<feColorMatrix type="matrix" values="0 0 0 0 0 0 0 0 0 0.138341 0 0 0 0 0.864629 0 0 0 0.2 0"/>
<feBlend mode="normal" in2="BackgroundImageFix" result="effect1_dropShadow"/>
<feBlend mode="normal" in="SourceGraphic" in2="effect1_dropShadow" result="shape"/>
</filter>
</defs>
</svg>
