<svg xmlns="http://www.w3.org/2000/svg" width="50" height="50" viewBox="0 0 50 50">
    <g fill="#99BBC1" fill-rule="evenodd">
        <path d="M36.066 28.689a4.103 4.103 0 0 1 4.098-4.099 4.103 4.103 0 0 1 4.098 4.099 4.103 4.103 0 0 1-4.098 4.098 4.103 4.103 0 0 1-4.098-4.098zM47.54 46.72a.82.82 0 0 1-.82.82h-6.773a5.701 5.701 0 0 0 1.036-3.279v-9.901c2.775-.4 4.918-2.788 4.918-5.672a5.745 5.745 0 0 0-5.738-5.738 5.745 5.745 0 0 0-5.738 5.738c0 2.884 2.143 5.272 4.918 5.672v9.901c0 1.345-.66 2.531-1.664 3.279h-6.507a4.084 4.084 0 0 1-1.665-3.279 5.745 5.745 0 0 0-5.738-5.737 5.745 5.745 0 0 0-5.737 5.737V8.197a.82.82 0 0 1 .82-.82h2.458v1.64c0 .452.367.82.82.82h21.312a.82.82 0 0 0 .82-.82v-2.46h2.458a.82.82 0 0 1 .82.82v39.344zM22.951 2.46a.82.82 0 0 1 .82-.82h18.032a.82.82 0 0 1 .82.82v5.738H22.951V2.459zm-6.558 15.574a5.745 5.745 0 0 1-5.737 5.737H7.377a5.745 5.745 0 0 1-5.738-5.737v-2.48c1.496 1.998 3.875 3.3 6.558 3.3h1.64c2.682 0 5.06-1.302 6.556-3.3v2.48zm0 29.487a4.056 4.056 0 0 1-2.459.84 4.103 4.103 0 0 1-4.098-4.098V25.41h.82a7.363 7.363 0 0 0 5.737-2.751v24.86zM46.721 4.918h-2.459V2.459A2.462 2.462 0 0 0 41.803 0H23.77a2.462 2.462 0 0 0-2.459 2.459v3.279h-2.459c-.288 0-.562.059-.82.15v-2.61a.82.82 0 0 0-.819-.819h-4.098V.819h-1.64v4.919h1.64v-1.64h3.278v6.558a6.565 6.565 0 0 1-6.557 6.557h-1.64a6.565 6.565 0 0 1-6.557-6.557V4.098h3.279v1.64h1.64V.82h-1.64v1.639H.82a.82.82 0 0 0-.82.82v14.754C0 22.1 3.309 25.41 7.377 25.41h.82v18.852A5.745 5.745 0 0 0 13.934 50a5.714 5.714 0 0 0 4.008-1.64h.09v-.09a5.717 5.717 0 0 0 1.64-4.008 4.103 4.103 0 0 1 4.098-4.098 4.103 4.103 0 0 1 4.099 4.098c0 1.22.385 2.349 1.036 3.279H21.31v1.64h9.355c.862.517 1.865.819 2.94.819h1.64a5.691 5.691 0 0 0 2.94-.82h8.535a2.462 2.462 0 0 0 2.46-2.459V7.377a2.462 2.462 0 0 0-2.46-2.459z"/>
        <path d="M40.164 27.05a1.64 1.64 0 1 1 0 3.278 1.64 1.64 0 0 1 0-3.279M29.508 5.738h6.558v-1.64h-6.558zM19.672 29.508h12.295v-1.64H19.672zM19.672 24.59h13.115v-1.64H19.672zM34.426 19.672h11.476v-1.64H34.426zM34.426 14.754h11.476v-1.64H34.426zM19.672 34.426h15.574v-1.64H19.672zM31.148 17.213a.82.82 0 0 1-.82.82H21.31v-2.46a.82.82 0 0 1 .82-.819h9.017v2.46zm.82-4.098H22.13a2.462 2.462 0 0 0-2.459 2.459v3.278c0 .453.367.82.82.82h9.836a2.462 2.462 0 0 0 2.459-2.459v-3.279a.82.82 0 0 0-.82-.82z"/>
    </g>
</svg>
