<svg xmlns="http://www.w3.org/2000/svg" width="49" height="50" viewBox="0 0 49 50">
    <defs>
        <linearGradient id="a" x1="0%" y1="9.057%" y2="100%">
            <stop offset="0%" stop-color="#00D7AF"/>
            <stop offset="100%" stop-color="#46737A"/>
        </linearGradient>
    </defs>
    <g fill="url(#a)" fill-rule="evenodd" transform="translate(-255 -1518)">
        <path d="M290.856 1546.689c0-2.26 1.828-4.099 4.075-4.099s4.075 1.839 4.075 4.099c0 2.26-1.828 4.098-4.075 4.098s-4.075-1.839-4.075-4.098zm11.41 18.032c0 .452-.366.82-.816.82h-6.734a5.724 5.724 0 0 0 1.03-3.279v-9.901a5.732 5.732 0 0 0 4.89-5.672c0-3.164-2.56-5.738-5.705-5.738s-5.704 2.574-5.704 5.738a5.732 5.732 0 0 0 4.89 5.672v9.901a4.091 4.091 0 0 1-1.656 3.279h-6.469a4.091 4.091 0 0 1-1.655-3.279c0-3.164-2.56-5.737-5.704-5.737-3.145 0-5.705 2.573-5.705 5.737v-36.065c0-.452.365-.82.815-.82h2.445v1.64c0 .452.364.82.815.82h21.188c.45 0 .815-.368.815-.82v-2.46h2.444c.45 0 .815.368.815.82v39.344zm-24.448-44.262c0-.452.365-.82.815-.82h17.928c.45 0 .815.368.815.82v5.738h-19.558v-5.738zm-6.52 15.574c0 3.164-2.56 5.737-5.704 5.737h-3.26c-3.144 0-5.704-2.573-5.704-5.737v-2.48c1.487 1.998 3.852 3.3 6.52 3.3h1.629c2.667 0 5.032-1.302 6.52-3.3v2.48zm0 29.487a4.017 4.017 0 0 1-2.444.84c-2.247 0-4.075-1.838-4.075-4.098v-18.852h.815a7.304 7.304 0 0 0 5.704-2.751v24.86zm30.152-42.602h-2.444v-2.459a2.455 2.455 0 0 0-2.445-2.459h-17.928a2.455 2.455 0 0 0-2.445 2.459v3.279h-2.445c-.287 0-.559.059-.815.15v-2.61a.817.817 0 0 0-.815-.819h-4.074v-1.64h-1.63v4.919h1.63v-1.64h3.26v6.558c0 3.615-2.925 6.557-6.52 6.557h-1.63c-3.594 0-6.52-2.942-6.52-6.557v-6.558h3.26v1.64h1.63v-4.918h-1.63v1.639h-4.074a.817.817 0 0 0-.815.82v14.754c0 4.067 3.29 7.377 7.334 7.377h.815v18.852c0 3.164 2.56 5.738 5.705 5.738 1.55 0 2.955-.627 3.984-1.64h.09v-.09a5.734 5.734 0 0 0 1.63-4.008c0-2.26 1.828-4.098 4.075-4.098 2.246 0 4.074 1.838 4.074 4.098 0 1.22.383 2.349 1.03 3.279h-7.55v1.64h9.302c.856.517 1.854.819 2.923.819h1.63c1.069 0 2.066-.302 2.923-.82h8.485a2.455 2.455 0 0 0 2.445-2.459v-39.344a2.455 2.455 0 0 0-2.445-2.459z"/>
        <path d="M294.931 1545.05c.9 0 1.63.733 1.63 1.639 0 .905-.73 1.639-1.63 1.639-.9 0-1.63-.734-1.63-1.64 0-.905.73-1.639 1.63-1.639M284.337 1523.738h6.52v-1.64h-6.52zM274.558 1547.508h12.224v-1.64h-12.224zM274.558 1542.59h13.039v-1.64h-13.039zM289.227 1537.672h11.409v-1.64h-11.41zM289.227 1532.754h11.409v-1.64h-11.41zM274.558 1552.426h15.484v-1.64h-15.484zM285.967 1535.213c0 .452-.365.82-.815.82h-8.964v-2.46c0-.45.365-.819.815-.819h8.964v2.46zm.815-4.098h-9.78a2.455 2.455 0 0 0-2.444 2.459v3.278c0 .453.364.82.815.82h9.78a2.455 2.455 0 0 0 2.444-2.459v-3.279a.817.817 0 0 0-.815-.82z"/>
    </g>
</svg>
