<svg width="80" height="80" viewBox="0 0 80 80" fill="none" xmlns="http://www.w3.org/2000/svg">
<circle cx="40" cy="40" r="38" stroke="#6480EB" stroke-width="4"/>
<path d="M47 34L47 32L47 34ZM23 34L23 32L23 34ZM33 34L33 36L33 34ZM35 24H45V20H35V24ZM36 33V23H32V33H36ZM23 36L33 36L33 32L23 32L23 36ZM24 45V35H20V45H24ZM33 44H23V48H33V44ZM36 57V47H32V57H36ZM45 56H35V60H45V56ZM44 47V57H48V47H44ZM57 44H47V48H57V44ZM56 35V45H60V35H56ZM47 36L57 36L57 32L47 32L47 36ZM44 23V33H48V23H44ZM47 32C47.5523 32 48 32.4477 48 33H44C44 34.6569 45.3431 36 47 36L47 32ZM60 35C60 33.3431 58.6569 32 57 32L57 36C56.4477 36 56 35.5523 56 35H60ZM57 48C58.6569 48 60 46.6569 60 45H56C56 44.4477 56.4477 44 57 44V48ZM48 47C48 47.5523 47.5523 48 47 48V44C45.3431 44 44 45.3431 44 47H48ZM45 60C46.6569 60 48 58.6569 48 57H44C44 56.4477 44.4477 56 45 56V60ZM32 57C32 58.6569 33.3431 60 35 60V56C35.5523 56 36 56.4477 36 57H32ZM33 48C32.4477 48 32 47.5523 32 47H36C36 45.3431 34.6569 44 33 44V48ZM20 45C20 46.6569 21.3431 48 23 48V44C23.5523 44 24 44.4477 24 45H20ZM23 32C21.3431 32 20 33.3431 20 35H24C24 35.5523 23.5523 36 23 36L23 32ZM32 33C32 32.4477 32.4477 32 33 32L33 36C34.6569 36 36 34.6569 36 33H32ZM45 24C44.4477 24 44 23.5523 44 23H48C48 21.3431 46.6569 20 45 20V24ZM35 20C33.3431 20 32 21.3431 32 23H36C36 23.5523 35.5523 24 35 24V20Z" fill="#00D7AF"/>
</svg>
