<svg width="28" height="29" viewBox="0 0 28 29" fill="none" xmlns="http://www.w3.org/2000/svg">
<path d="M22.6603 15.5681L22.1698 16.1355L22.17 16.1357L22.6603 15.5681ZM25.6398 18.1414L26.1303 17.574L26.13 17.5738L25.6398 18.1414ZM25.9112 21.2392L25.327 20.7689L25.3268 20.7691L25.9112 21.2392ZM22.9215 21.5204L23.4123 20.9532L23.4118 20.9529L22.9215 21.5204ZM19.942 18.9463L19.4515 19.5137L19.4516 19.5138L19.942 18.9463ZM19.6706 15.8493L20.2547 16.3196L20.2549 16.3194L19.6706 15.8493ZM1 22.1301H0.25C0.25 22.5444 0.585786 22.8801 1 22.8801L1 22.1301ZM10.5428 22.1301V22.8801C10.9571 22.8801 11.2928 22.5444 11.2928 22.1301H10.5428ZM10.5428 14.0976H11.2928C11.2928 13.6834 10.9571 13.3476 10.5428 13.3476V14.0976ZM1 14.0976V13.3476C0.585786 13.3476 0.25 13.6834 0.25 14.0976H1ZM22.17 16.1357L25.1496 18.709L26.13 17.5738L23.1505 15.0005L22.17 16.1357ZM25.1493 18.7088C25.7374 19.2172 25.8232 20.1525 25.327 20.7689L26.4954 21.7095C27.4936 20.4697 27.3353 18.6158 26.1303 17.574L25.1493 18.7088ZM25.3268 20.7691C24.8423 21.3715 23.9826 21.4467 23.4123 20.9532L22.4308 22.0876C23.6519 23.1442 25.4856 22.9649 26.4956 21.7093L25.3268 20.7691ZM23.4118 20.9529L20.4323 18.3787L19.4516 19.5138L22.4312 22.0879L23.4118 20.9529ZM20.4324 18.3789C19.8448 17.8709 19.7581 16.9364 20.2547 16.3196L19.0864 15.3789C18.087 16.62 18.2477 18.4731 19.4515 19.5137L20.4324 18.3789ZM20.2549 16.3194C20.74 15.7165 21.5983 15.6414 22.1698 16.1355L23.1508 15.0007C21.9292 13.9446 20.0972 14.1225 19.0862 15.3791L20.2549 16.3194ZM1 22.8801H10.5428V21.3801H1V22.8801ZM11.2928 22.1301V14.0976H9.79285V22.1301H11.2928ZM10.5428 13.3476H1V14.8476H10.5428V13.3476ZM0.25 14.0976V22.1301H1.75V14.0976H0.25ZM4.05671 1.75H13.3912V0.25H4.05671V1.75ZM13.3912 1.75C13.5606 1.75 13.7484 1.90496 13.7484 2.14808H15.2484C15.2484 1.12791 14.4394 0.25 13.3912 0.25V1.75ZM13.7484 2.14808V6.16356H15.2484V2.14808H13.7484ZM13.7484 6.16356C13.7484 6.40668 13.5606 6.56164 13.3912 6.56164V8.06164C14.4394 8.06164 15.2484 7.18373 15.2484 6.16356H13.7484ZM13.3912 6.56164H4.05671V8.06164H13.3912V6.56164ZM4.05671 6.56164C3.88734 6.56164 3.69949 6.40668 3.69949 6.16356H2.19949C2.19949 7.18373 3.00845 8.06164 4.05671 8.06164V6.56164ZM3.69949 6.16356V2.14808H2.19949V6.16356H3.69949ZM3.69949 2.14808C3.69949 1.90496 3.88734 1.75 4.05671 1.75V0.25C3.00845 0.25 2.19949 1.12791 2.19949 2.14808H3.69949Z" fill="#6480EB"/>
<path d="M24.2978 16.6704L21.2832 20.4176" stroke="#6480EB" stroke-width="1.5"/>
<path fill-rule="evenodd" clip-rule="evenodd" d="M19.9692 27.6246H16.0908C14.9229 27.6246 13.9673 26.6344 13.9673 25.4259C13.9673 24.2166 14.9237 23.2256 16.0908 23.2256H19.9692C21.1363 23.2256 22.0919 24.2158 22.0919 25.4259C22.0919 26.6352 21.1371 27.6246 19.9692 27.6246Z" stroke="#6480EB" stroke-width="1.5" stroke-linecap="round" stroke-linejoin="round"/>
<path d="M18.0298 27.865V22.9858" stroke="#6480EB" stroke-width="1.5"/>
<path d="M13.9431 25.8461H2.61341C1.72779 25.8461 1 25.1169 1 24.2234V18.5064V12.5509C1 10.6599 4.0962 10.5641 4.0962 8.35894V7.76758" stroke="#6480EB" stroke-width="1.5"/>
<path d="M13.3506 7.76758V8.35894C13.3506 10.5633 16.4483 10.664 16.4483 12.5509V22.7773" stroke="#6480EB" stroke-width="1.5"/>
</svg>
