<svg width="150" height="150" viewBox="0 0 150 150" fill="none" xmlns="http://www.w3.org/2000/svg">
<g filter="url(#filter0_d)">
<rect x="15" y="9" width="120" height="120" rx="20" fill="white"/>
</g>
<path d="M59.4893 100L57.083 92.1592H57.0215C57.1081 93.7542 57.1514 94.8184 57.1514 95.3516V100H55.2578V90.0059H58.1426L60.5078 97.6484H60.5488L63.0576 90.0059H65.9424V100H63.9668V95.2695C63.9668 95.0462 63.9691 94.7887 63.9736 94.4971C63.9827 94.2054 64.0146 93.4307 64.0693 92.1729H64.0078L61.4307 100H59.4893ZM69.9303 96.165C69.9303 96.9215 70.0533 97.4935 70.2994 97.8809C70.5501 98.2682 70.9557 98.4619 71.5162 98.4619C72.0722 98.4619 72.471 98.2705 72.7125 97.8877C72.9586 97.5003 73.0816 96.9261 73.0816 96.165C73.0816 95.4085 72.9586 94.8411 72.7125 94.4629C72.4664 94.0846 72.0631 93.8955 71.5025 93.8955C70.9465 93.8955 70.5455 94.0846 70.2994 94.4629C70.0533 94.8366 69.9303 95.404 69.9303 96.165ZM75.2144 96.165C75.2144 97.4092 74.8863 98.3822 74.2301 99.084C73.5738 99.7858 72.6601 100.137 71.4889 100.137C70.7551 100.137 70.108 99.9772 69.5475 99.6582C68.9869 99.3346 68.5562 98.8721 68.2555 98.2705C67.9547 97.6689 67.8043 96.9671 67.8043 96.165C67.8043 94.9163 68.1301 93.9456 68.7818 93.2529C69.4335 92.5602 70.3495 92.2139 71.5299 92.2139C72.2636 92.2139 72.9107 92.3734 73.4713 92.6924C74.0318 93.0114 74.4625 93.4694 74.7633 94.0664C75.0641 94.6634 75.2144 95.363 75.2144 96.165ZM80.1252 98.4756C80.4898 98.4756 80.9273 98.3958 81.4377 98.2363V99.7881C80.9181 100.021 80.2801 100.137 79.5236 100.137C78.6896 100.137 78.0812 99.9271 77.6984 99.5078C77.3202 99.084 77.131 98.4505 77.131 97.6074V93.9229H76.133V93.041L77.2814 92.3438L77.883 90.7305H79.216V92.3574H81.3556V93.9229H79.216V97.6074C79.216 97.9036 79.298 98.1224 79.4621 98.2637C79.6307 98.4049 79.8517 98.4756 80.1252 98.4756ZM84.6189 96.165C84.6189 96.9215 84.742 97.4935 84.9881 97.8809C85.2387 98.2682 85.6443 98.4619 86.2049 98.4619C86.7609 98.4619 87.1596 98.2705 87.4011 97.8877C87.6472 97.5003 87.7703 96.9261 87.7703 96.165C87.7703 95.4085 87.6472 94.8411 87.4011 94.4629C87.1551 94.0846 86.7517 93.8955 86.1912 93.8955C85.6352 93.8955 85.2342 94.0846 84.9881 94.4629C84.742 94.8366 84.6189 95.404 84.6189 96.165ZM89.9031 96.165C89.9031 97.4092 89.575 98.3822 88.9187 99.084C88.2625 99.7858 87.3487 100.137 86.1775 100.137C85.4438 100.137 84.7967 99.9772 84.2361 99.6582C83.6756 99.3346 83.2449 98.8721 82.9441 98.2705C82.6433 97.6689 82.4929 96.9671 82.4929 96.165C82.4929 94.9163 82.8188 93.9456 83.4705 93.2529C84.1222 92.5602 85.0382 92.2139 86.2185 92.2139C86.9523 92.2139 87.5994 92.3734 88.1599 92.6924C88.7205 93.0114 89.1511 93.4694 89.4519 94.0664C89.7527 94.6634 89.9031 95.363 89.9031 96.165ZM95.8597 92.2139C96.1423 92.2139 96.377 92.2344 96.5638 92.2754L96.4066 94.2305C96.238 94.1849 96.0329 94.1621 95.7914 94.1621C95.126 94.1621 94.6065 94.333 94.2328 94.6748C93.8636 95.0166 93.6791 95.4951 93.6791 96.1104V100H91.5941V92.3574H93.1732L93.4808 93.6426H93.5834C93.8203 93.2142 94.1394 92.8701 94.5404 92.6104C94.946 92.346 95.3858 92.2139 95.8597 92.2139Z" fill="#2C3652"/>
<path fill-rule="evenodd" clip-rule="evenodd" d="M70.012 59.2705H79.988V56.9095H70.012V59.2705ZM80.488 55.9095H69.512C69.236 55.9095 69.012 56.1335 69.012 56.4095V59.7705C69.012 60.0465 69.236 60.2705 69.512 60.2705H80.488C80.764 60.2705 80.988 60.0465 80.988 59.7705V56.4095C80.988 56.1335 80.764 55.9095 80.488 55.9095Z" fill="url(#paint0_linear)"/>
<path fill-rule="evenodd" clip-rule="evenodd" d="M62.8211 60.0161C61.7591 60.0161 60.8951 59.1521 60.8951 58.0901C60.8951 57.0281 61.7591 56.1641 62.8211 56.1641C63.8831 56.1641 64.7471 57.0281 64.7471 58.0901C64.7471 59.1521 63.8831 60.0161 62.8211 60.0161ZM62.8211 55.1641C61.2076 55.1641 59.8951 56.4766 59.8951 58.0901C59.8951 59.7036 61.2076 61.0161 62.8211 61.0161C64.4346 61.0161 65.7471 59.7036 65.7471 58.0901C65.7471 56.4766 64.4346 55.1641 62.8211 55.1641Z" fill="url(#paint1_linear)"/>
<path fill-rule="evenodd" clip-rule="evenodd" d="M87.1792 60.0161C86.1172 60.0161 85.2527 59.1521 85.2527 58.0901C85.2527 57.0281 86.1172 56.1641 87.1792 56.1641C88.2412 56.1641 89.1052 57.0281 89.1052 58.0901C89.1052 59.1521 88.2412 60.0161 87.1792 60.0161ZM87.1792 55.1641C85.5652 55.1641 84.2527 56.4766 84.2527 58.0901C84.2527 59.7036 85.5652 61.0161 87.1792 61.0161C88.7927 61.0161 90.1052 59.7036 90.1052 58.0901C90.1052 56.4766 88.7927 55.1641 87.1792 55.1641Z" fill="url(#paint2_linear)"/>
<path fill-rule="evenodd" clip-rule="evenodd" d="M56 67.412H94V65.5625H56V67.412ZM57.24 54.792C57.24 52.608 59.017 50.831 61.2005 50.831H88.799C90.983 50.831 92.7595 52.608 92.7595 54.792V64.5625H57.2395L57.24 54.792ZM72.129 49.8315H65.274C65.391 48.0405 66.8815 46.618 68.7015 46.618C70.5215 46.618 72.012 48.04 72.129 49.8315ZM63.378 38.6295C63.654 37.106 64.8495 36.0005 66.2205 36.0005H83.78C85.151 36.0005 86.346 37.106 86.6225 38.631L88.687 49.831H73.129C73.0105 47.488 71.073 45.6175 68.7015 45.6175C66.33 45.6175 64.3925 47.4885 64.274 49.831H61.313L63.378 38.6295ZM90.899 72.27C90.899 73.224 90.123 74 89.169 74C88.215 74 87.439 73.224 87.439 72.27V68.412H90.899V72.27ZM62.5615 72.27C62.5615 73.224 61.7855 74 60.8315 74C59.8775 74 59.1015 73.224 59.1015 72.27V68.412H62.5615V72.27ZM55.5 68.412H58.101V72.27C58.101 73.7755 59.3255 75 60.831 75C62.3365 75 63.561 73.775 63.561 72.27V68.412H86.4385V72.27C86.4385 73.7755 87.6635 75 89.1685 75C90.6735 75 91.8985 73.775 91.8985 72.27V68.412H94.4995C94.7755 68.412 94.9995 68.188 94.9995 67.912V65.0625C94.9995 64.7865 94.7755 64.5625 94.4995 64.5625H93.7595V54.792C93.7595 52.3715 92.016 50.3535 89.7195 49.92L87.6055 38.451C87.243 36.4515 85.634 35 83.7795 35H66.22C64.3655 35 62.756 36.4515 62.394 38.4495L60.28 49.92C57.9835 50.3535 56.24 52.3715 56.24 54.792V64.5625H55.5C55.224 64.5625 55 64.7865 55 65.0625V67.912C55 68.188 55.224 68.412 55.5 68.412Z" fill="url(#paint3_linear)"/>
<path fill-rule="evenodd" clip-rule="evenodd" d="M70.012 59.2705H79.988V56.9095H70.012V59.2705ZM80.488 55.9095H69.512C69.236 55.9095 69.012 56.1335 69.012 56.4095V59.7705C69.012 60.0465 69.236 60.2705 69.512 60.2705H80.488C80.764 60.2705 80.988 60.0465 80.988 59.7705V56.4095C80.988 56.1335 80.764 55.9095 80.488 55.9095Z" stroke="url(#paint4_linear)"/>
<path fill-rule="evenodd" clip-rule="evenodd" d="M62.8211 60.0161C61.7591 60.0161 60.8951 59.1521 60.8951 58.0901C60.8951 57.0281 61.7591 56.1641 62.8211 56.1641C63.8831 56.1641 64.7471 57.0281 64.7471 58.0901C64.7471 59.1521 63.8831 60.0161 62.8211 60.0161ZM62.8211 55.1641C61.2076 55.1641 59.8951 56.4766 59.8951 58.0901C59.8951 59.7036 61.2076 61.0161 62.8211 61.0161C64.4346 61.0161 65.7471 59.7036 65.7471 58.0901C65.7471 56.4766 64.4346 55.1641 62.8211 55.1641Z" stroke="url(#paint5_linear)"/>
<path fill-rule="evenodd" clip-rule="evenodd" d="M87.1792 60.0161C86.1172 60.0161 85.2527 59.1521 85.2527 58.0901C85.2527 57.0281 86.1172 56.1641 87.1792 56.1641C88.2412 56.1641 89.1052 57.0281 89.1052 58.0901C89.1052 59.1521 88.2412 60.0161 87.1792 60.0161ZM87.1792 55.1641C85.5652 55.1641 84.2527 56.4766 84.2527 58.0901C84.2527 59.7036 85.5652 61.0161 87.1792 61.0161C88.7927 61.0161 90.1052 59.7036 90.1052 58.0901C90.1052 56.4766 88.7927 55.1641 87.1792 55.1641Z" stroke="url(#paint6_linear)"/>
<path fill-rule="evenodd" clip-rule="evenodd" d="M56 67.412H94V65.5625H56V67.412ZM57.24 54.792C57.24 52.608 59.017 50.831 61.2005 50.831H88.799C90.983 50.831 92.7595 52.608 92.7595 54.792V64.5625H57.2395L57.24 54.792ZM72.129 49.8315H65.274C65.391 48.0405 66.8815 46.618 68.7015 46.618C70.5215 46.618 72.012 48.04 72.129 49.8315ZM63.378 38.6295C63.654 37.106 64.8495 36.0005 66.2205 36.0005H83.78C85.151 36.0005 86.346 37.106 86.6225 38.631L88.687 49.831H73.129C73.0105 47.488 71.073 45.6175 68.7015 45.6175C66.33 45.6175 64.3925 47.4885 64.274 49.831H61.313L63.378 38.6295ZM90.899 72.27C90.899 73.224 90.123 74 89.169 74C88.215 74 87.439 73.224 87.439 72.27V68.412H90.899V72.27ZM62.5615 72.27C62.5615 73.224 61.7855 74 60.8315 74C59.8775 74 59.1015 73.224 59.1015 72.27V68.412H62.5615V72.27ZM55.5 68.412H58.101V72.27C58.101 73.7755 59.3255 75 60.831 75C62.3365 75 63.561 73.775 63.561 72.27V68.412H86.4385V72.27C86.4385 73.7755 87.6635 75 89.1685 75C90.6735 75 91.8985 73.775 91.8985 72.27V68.412H94.4995C94.7755 68.412 94.9995 68.188 94.9995 67.912V65.0625C94.9995 64.7865 94.7755 64.5625 94.4995 64.5625H93.7595V54.792C93.7595 52.3715 92.016 50.3535 89.7195 49.92L87.6055 38.451C87.243 36.4515 85.634 35 83.7795 35H66.22C64.3655 35 62.756 36.4515 62.394 38.4495L60.28 49.92C57.9835 50.3535 56.24 52.3715 56.24 54.792V64.5625H55.5C55.224 64.5625 55 64.7865 55 65.0625V67.912C55 68.188 55.224 68.412 55.5 68.412Z" stroke="url(#paint7_linear)"/>
<defs>
<filter id="filter0_d" x="0" y="0" width="150" height="150" filterUnits="userSpaceOnUse" color-interpolation-filters="sRGB">
<feFlood flood-opacity="0" result="BackgroundImageFix"/>
<feColorMatrix in="SourceAlpha" type="matrix" values="0 0 0 0 0 0 0 0 0 0 0 0 0 0 0 0 0 0 127 0"/>
<feOffset dy="6"/>
<feGaussianBlur stdDeviation="7.5"/>
<feColorMatrix type="matrix" values="0 0 0 0 0 0 0 0 0 0 0 0 0 0 0 0 0 0 0.05 0"/>
<feBlend mode="normal" in2="BackgroundImageFix" result="effect1_dropShadow"/>
<feBlend mode="normal" in="SourceGraphic" in2="effect1_dropShadow" result="shape"/>
</filter>
<linearGradient id="paint0_linear" x1="55" y1="55" x2="95.0183" y2="55.1554" gradientUnits="userSpaceOnUse">
<stop stop-color="#00D7AF"/>
<stop offset="1" stop-color="#46737A"/>
</linearGradient>
<linearGradient id="paint1_linear" x1="55" y1="55" x2="95.0183" y2="55.1554" gradientUnits="userSpaceOnUse">
<stop stop-color="#00D7AF"/>
<stop offset="1" stop-color="#46737A"/>
</linearGradient>
<linearGradient id="paint2_linear" x1="55" y1="55" x2="95.0183" y2="55.1554" gradientUnits="userSpaceOnUse">
<stop stop-color="#00D7AF"/>
<stop offset="1" stop-color="#46737A"/>
</linearGradient>
<linearGradient id="paint3_linear" x1="55" y1="55" x2="95.0183" y2="55.1554" gradientUnits="userSpaceOnUse">
<stop stop-color="#00D7AF"/>
<stop offset="1" stop-color="#46737A"/>
</linearGradient>
<linearGradient id="paint4_linear" x1="55" y1="55" x2="95.0183" y2="55.1554" gradientUnits="userSpaceOnUse">
<stop stop-color="#00D7AF"/>
<stop offset="1" stop-color="#46737A"/>
</linearGradient>
<linearGradient id="paint5_linear" x1="55" y1="55" x2="95.0183" y2="55.1554" gradientUnits="userSpaceOnUse">
<stop stop-color="#00D7AF"/>
<stop offset="1" stop-color="#46737A"/>
</linearGradient>
<linearGradient id="paint6_linear" x1="55" y1="55" x2="95.0183" y2="55.1554" gradientUnits="userSpaceOnUse">
<stop stop-color="#00D7AF"/>
<stop offset="1" stop-color="#46737A"/>
</linearGradient>
<linearGradient id="paint7_linear" x1="55" y1="55" x2="95.0183" y2="55.1554" gradientUnits="userSpaceOnUse">
<stop stop-color="#00D7AF"/>
<stop offset="1" stop-color="#46737A"/>
</linearGradient>
</defs>
</svg>
