<svg width="94" height="90" viewBox="0 0 94 90" fill="none" xmlns="http://www.w3.org/2000/svg">
<g filter="url(#filter0_d)">
<ellipse cx="47" cy="39.1476" rx="32" ry="29.1857" fill="white"/>
</g>
<path fill-rule="evenodd" clip-rule="evenodd" d="M42.2615 42.8479H51.7387V40.8022H42.2615V42.8479ZM52.2137 39.9357H41.7865C41.5243 39.9357 41.3115 40.1298 41.3115 40.369V43.2811C41.3115 43.5202 41.5243 43.7143 41.7865 43.7143H52.2137C52.4759 43.7143 52.6887 43.5202 52.6887 43.2811V40.369C52.6887 40.1298 52.4759 39.9357 52.2137 39.9357Z" fill="#6E7F95" stroke="#6E7F95"/>
<path fill-rule="evenodd" clip-rule="evenodd" d="M35.4301 43.4938C34.4212 43.4938 33.6004 42.7452 33.6004 41.825C33.6004 40.9048 34.4212 40.1562 35.4301 40.1562C36.439 40.1562 37.2598 40.9048 37.2598 41.825C37.2598 42.7452 36.439 43.4938 35.4301 43.4938ZM35.4301 39.2898C33.8973 39.2898 32.6504 40.427 32.6504 41.825C32.6504 43.223 33.8973 44.3602 35.4301 44.3602C36.9629 44.3602 38.2098 43.223 38.2098 41.825C38.2098 40.427 36.9629 39.2898 35.4301 39.2898Z" fill="#6E7F95" stroke="#6E7F95"/>
<path fill-rule="evenodd" clip-rule="evenodd" d="M58.57 43.4938C57.5611 43.4938 56.7398 42.7452 56.7398 41.825C56.7398 40.9048 57.5611 40.1562 58.57 40.1562C59.5789 40.1562 60.3997 40.9048 60.3997 41.825C60.3997 42.7452 59.5789 43.4938 58.57 43.4938ZM58.57 39.2898C57.0367 39.2898 55.7898 40.427 55.7898 41.825C55.7898 43.223 57.0367 44.3602 58.57 44.3602C60.1028 44.3602 61.3497 43.223 61.3497 41.825C61.3497 40.427 60.1028 39.2898 58.57 39.2898Z" fill="#6E7F95" stroke="#6E7F95"/>
<path fill-rule="evenodd" clip-rule="evenodd" d="M28.95 49.902H65.05V48.2995H28.95V49.902ZM30.128 38.9674C30.128 37.0751 31.8162 35.5354 33.8905 35.5354H60.1091C62.1839 35.5354 63.8715 37.0751 63.8715 38.9674V47.4331H30.1275V38.9674H30.128ZM44.2726 34.6694H37.7603C37.8715 33.1176 39.2874 31.885 41.0164 31.885C42.7454 31.885 44.1614 33.1171 44.2726 34.6694ZM35.9591 24.9634C36.2213 23.6434 37.357 22.6855 38.6595 22.6855H55.341C56.6435 22.6855 57.7787 23.6434 58.0414 24.9647L60.0027 34.6689H45.2226C45.11 32.6388 43.2694 31.0182 41.0164 31.0182C38.7635 31.0182 36.9229 32.6393 36.8103 34.6689H33.9974L35.9591 24.9634ZM62.1041 54.1112C62.1041 54.9378 61.3669 55.6102 60.4606 55.6102C59.5543 55.6102 58.8171 54.9378 58.8171 54.1112V50.7685H62.1041V54.1112ZM35.1834 54.1112C35.1834 54.9378 34.4462 55.6102 33.5399 55.6102C32.6336 55.6102 31.8964 54.9378 31.8964 54.1112V50.7685H35.1834V54.1112ZM28.475 50.7685H30.946V54.1112C30.946 55.4157 32.1092 56.4767 33.5395 56.4767C34.9697 56.4767 36.133 55.4153 36.133 54.1112V50.7685H57.8666V54.1112C57.8666 55.4157 59.0303 56.4767 60.4601 56.4767C61.8898 56.4767 63.0536 55.4153 63.0536 54.1112V50.7685H65.5245C65.7867 50.7685 65.9995 50.5744 65.9995 50.3353V47.8663C65.9995 47.6272 65.7867 47.4331 65.5245 47.4331H64.8215V38.9674C64.8215 36.8702 63.1652 35.1217 60.9835 34.7461L58.9752 24.8087C58.6309 23.0763 57.1023 21.8186 55.3405 21.8186H38.659C36.8972 21.8186 35.3682 23.0763 35.0243 24.8074L33.016 34.7461C30.8343 35.1217 29.178 36.8702 29.178 38.9674V47.4331H28.475C28.2128 47.4331 28 47.6272 28 47.8663V50.3353C28 50.5744 28.2128 50.7685 28.475 50.7685Z" fill="#6E7F95" stroke="#6E7F95"/>
<defs>
<filter id="filter0_d" x="0" y="0.961914" width="94" height="88.3715" filterUnits="userSpaceOnUse" color-interpolation-filters="sRGB">
<feFlood flood-opacity="0" result="BackgroundImageFix"/>
<feColorMatrix in="SourceAlpha" type="matrix" values="0 0 0 0 0 0 0 0 0 0 0 0 0 0 0 0 0 0 127 0"/>
<feOffset dy="6"/>
<feGaussianBlur stdDeviation="7.5"/>
<feColorMatrix type="matrix" values="0 0 0 0 0 0 0 0 0 0 0 0 0 0 0 0 0 0 0.05 0"/>
<feBlend mode="normal" in2="BackgroundImageFix" result="effect1_dropShadow"/>
<feBlend mode="normal" in="SourceGraphic" in2="effect1_dropShadow" result="shape"/>
</filter>
</defs>
</svg>
