<svg width="126" height="126" viewBox="0 0 126 126" fill="none" xmlns="http://www.w3.org/2000/svg">
<g filter="url(#filter0_d)">
<rect x="15" y="9" width="96" height="96" rx="20" fill="white"/>
</g>
<path fill-rule="evenodd" clip-rule="evenodd" d="M57.0143 62.1246H68.9855V59.2914H57.0143V62.1246ZM69.5855 58.0914H56.4143C56.0831 58.0914 55.8143 58.3602 55.8143 58.6914V62.7246C55.8143 63.0558 56.0831 63.3246 56.4143 63.3246H69.5855C69.9167 63.3246 70.1855 63.0558 70.1855 62.7246V58.6914C70.1855 58.3602 69.9167 58.0914 69.5855 58.0914Z" fill="#6480EB" stroke="#6480EB"/>
<path fill-rule="evenodd" clip-rule="evenodd" d="M48.3851 63.0193C47.1107 63.0193 46.0739 61.9825 46.0739 60.7081C46.0739 59.4337 47.1107 58.3969 48.3851 58.3969C49.6595 58.3969 50.6963 59.4337 50.6963 60.7081C50.6963 61.9825 49.6595 63.0193 48.3851 63.0193ZM48.3851 57.1969C46.4489 57.1969 44.8739 58.7719 44.8739 60.7081C44.8739 62.6443 46.4489 64.2193 48.3851 64.2193C50.3213 64.2193 51.8963 62.6443 51.8963 60.7081C51.8963 58.7719 50.3213 57.1969 48.3851 57.1969Z" fill="#6480EB" stroke="#6480EB"/>
<path fill-rule="evenodd" clip-rule="evenodd" d="M77.6148 63.0193C76.3404 63.0193 75.303 61.9825 75.303 60.7081C75.303 59.4337 76.3404 58.3969 77.6148 58.3969C78.8892 58.3969 79.926 59.4337 79.926 60.7081C79.926 61.9825 78.8892 63.0193 77.6148 63.0193ZM77.6148 57.1969C75.678 57.1969 74.103 58.7719 74.103 60.7081C74.103 62.6443 75.678 64.2193 77.6148 64.2193C79.551 64.2193 81.126 62.6443 81.126 60.7081C81.126 58.7719 79.551 57.1969 77.6148 57.1969Z" fill="#6480EB" stroke="#6480EB"/>
<path fill-rule="evenodd" clip-rule="evenodd" d="M40.2 71.8944H85.8V69.675H40.2V71.8944ZM41.688 56.7504C41.688 54.1296 43.8204 51.9972 46.4406 51.9972H79.5588C82.1796 51.9972 84.3114 54.1296 84.3114 56.7504V68.475H41.6874V56.7504H41.688ZM59.5548 50.7978H51.3288C51.4692 48.6486 53.2578 46.9416 55.4418 46.9416C57.6258 46.9416 59.4144 48.648 59.5548 50.7978ZM49.0536 37.3554C49.3848 35.5272 50.8194 34.2006 52.4646 34.2006H73.536C75.1812 34.2006 76.6152 35.5272 76.947 37.3572L79.4244 50.7972H60.7548C60.6126 47.9856 58.2876 45.741 55.4418 45.741C52.596 45.741 50.271 47.9862 50.1288 50.7972H46.5756L49.0536 37.3554ZM82.0788 77.724C82.0788 78.8688 81.1476 79.8 80.0028 79.8C78.858 79.8 77.9268 78.8688 77.9268 77.724V73.0944H82.0788V77.724ZM48.0738 77.724C48.0738 78.8688 47.1426 79.8 45.9978 79.8C44.853 79.8 43.9218 78.8688 43.9218 77.724V73.0944H48.0738V77.724ZM39.6 73.0944H42.7212V77.724C42.7212 79.5306 44.1906 81 45.9972 81C47.8038 81 49.2732 79.53 49.2732 77.724V73.0944H76.7262V77.724C76.7262 79.5306 78.1962 81 80.0022 81C81.8082 81 83.2782 79.53 83.2782 77.724V73.0944H86.3994C86.7306 73.0944 86.9994 72.8256 86.9994 72.4944V69.075C86.9994 68.7438 86.7306 68.475 86.3994 68.475H85.5114V56.7504C85.5114 53.8458 83.4192 51.4242 80.6634 50.904L78.1266 37.1412C77.6916 34.7418 75.7608 33 73.5354 33H52.464C50.2386 33 48.3072 34.7418 47.8728 37.1394L45.336 50.904C42.5802 51.4242 40.488 53.8458 40.488 56.7504V68.475H39.6C39.2688 68.475 39 68.7438 39 69.075V72.4944C39 72.8256 39.2688 73.0944 39.6 73.0944Z" fill="#6480EB" stroke="#6480EB"/>
<defs>
<filter id="filter0_d" x="0" y="0" width="126" height="126" filterUnits="userSpaceOnUse" color-interpolation-filters="sRGB">
<feFlood flood-opacity="0" result="BackgroundImageFix"/>
<feColorMatrix in="SourceAlpha" type="matrix" values="0 0 0 0 0 0 0 0 0 0 0 0 0 0 0 0 0 0 127 0"/>
<feOffset dy="6"/>
<feGaussianBlur stdDeviation="7.5"/>
<feColorMatrix type="matrix" values="0 0 0 0 0 0 0 0 0 0 0 0 0 0 0 0 0 0 0.05 0"/>
<feBlend mode="normal" in2="BackgroundImageFix" result="effect1_dropShadow"/>
<feBlend mode="normal" in="SourceGraphic" in2="effect1_dropShadow" result="shape"/>
</filter>
</defs>
</svg>
