<svg width="150" height="150" viewBox="0 0 150 150" fill="none" xmlns="http://www.w3.org/2000/svg">
<g filter="url(#filter0_d)">
<rect x="15" y="9" width="120" height="120" rx="20" fill="white"/>
</g>
<path d="M59.4893 100L57.083 92.1592H57.0215C57.1081 93.7542 57.1514 94.8184 57.1514 95.3516V100H55.2578V90.0059H58.1426L60.5078 97.6484H60.5488L63.0576 90.0059H65.9424V100H63.9668V95.2695C63.9668 95.0462 63.9691 94.7887 63.9736 94.4971C63.9827 94.2054 64.0146 93.4307 64.0693 92.1729H64.0078L61.4307 100H59.4893ZM69.9303 96.165C69.9303 96.9215 70.0533 97.4935 70.2994 97.8809C70.5501 98.2682 70.9557 98.4619 71.5162 98.4619C72.0722 98.4619 72.471 98.2705 72.7125 97.8877C72.9586 97.5003 73.0816 96.9261 73.0816 96.165C73.0816 95.4085 72.9586 94.8411 72.7125 94.4629C72.4664 94.0846 72.0631 93.8955 71.5025 93.8955C70.9465 93.8955 70.5455 94.0846 70.2994 94.4629C70.0533 94.8366 69.9303 95.404 69.9303 96.165ZM75.2144 96.165C75.2144 97.4092 74.8863 98.3822 74.2301 99.084C73.5738 99.7858 72.6601 100.137 71.4889 100.137C70.7551 100.137 70.108 99.9772 69.5475 99.6582C68.9869 99.3346 68.5562 98.8721 68.2555 98.2705C67.9547 97.6689 67.8043 96.9671 67.8043 96.165C67.8043 94.9163 68.1301 93.9456 68.7818 93.2529C69.4335 92.5602 70.3495 92.2139 71.5299 92.2139C72.2636 92.2139 72.9107 92.3734 73.4713 92.6924C74.0318 93.0114 74.4625 93.4694 74.7633 94.0664C75.0641 94.6634 75.2144 95.363 75.2144 96.165ZM80.1252 98.4756C80.4898 98.4756 80.9273 98.3958 81.4377 98.2363V99.7881C80.9181 100.021 80.2801 100.137 79.5236 100.137C78.6896 100.137 78.0812 99.9271 77.6984 99.5078C77.3202 99.084 77.131 98.4505 77.131 97.6074V93.9229H76.133V93.041L77.2814 92.3438L77.883 90.7305H79.216V92.3574H81.3556V93.9229H79.216V97.6074C79.216 97.9036 79.298 98.1224 79.4621 98.2637C79.6307 98.4049 79.8517 98.4756 80.1252 98.4756ZM84.6189 96.165C84.6189 96.9215 84.742 97.4935 84.9881 97.8809C85.2387 98.2682 85.6443 98.4619 86.2049 98.4619C86.7609 98.4619 87.1596 98.2705 87.4011 97.8877C87.6472 97.5003 87.7703 96.9261 87.7703 96.165C87.7703 95.4085 87.6472 94.8411 87.4011 94.4629C87.1551 94.0846 86.7517 93.8955 86.1912 93.8955C85.6352 93.8955 85.2342 94.0846 84.9881 94.4629C84.742 94.8366 84.6189 95.404 84.6189 96.165ZM89.9031 96.165C89.9031 97.4092 89.575 98.3822 88.9187 99.084C88.2625 99.7858 87.3487 100.137 86.1775 100.137C85.4438 100.137 84.7967 99.9772 84.2361 99.6582C83.6756 99.3346 83.2449 98.8721 82.9441 98.2705C82.6433 97.6689 82.4929 96.9671 82.4929 96.165C82.4929 94.9163 82.8188 93.9456 83.4705 93.2529C84.1222 92.5602 85.0382 92.2139 86.2185 92.2139C86.9523 92.2139 87.5994 92.3734 88.1599 92.6924C88.7205 93.0114 89.1511 93.4694 89.4519 94.0664C89.7527 94.6634 89.9031 95.363 89.9031 96.165ZM95.8597 92.2139C96.1423 92.2139 96.377 92.2344 96.5638 92.2754L96.4066 94.2305C96.238 94.1849 96.0329 94.1621 95.7914 94.1621C95.126 94.1621 94.6065 94.333 94.2328 94.6748C93.8636 95.0166 93.6791 95.4951 93.6791 96.1104V100H91.5941V92.3574H93.1732L93.4808 93.6426H93.5834C93.8203 93.2142 94.1394 92.8701 94.5404 92.6104C94.946 92.346 95.3858 92.2139 95.8597 92.2139Z" fill="#2C3652"/>
<path fill-rule="evenodd" clip-rule="evenodd" d="M70.012 59.2704H79.988V56.9094H70.012V59.2704ZM80.488 55.9094H69.512C69.236 55.9094 69.012 56.1334 69.012 56.4094V59.7704C69.012 60.0464 69.236 60.2704 69.512 60.2704H80.488C80.764 60.2704 80.988 60.0464 80.988 59.7704V56.4094C80.988 56.1334 80.764 55.9094 80.488 55.9094Z" fill="#6480EB"/>
<path d="M70.012 59.2704H69.512V59.7704H70.012V59.2704ZM79.988 59.2704V59.7704H80.488V59.2704H79.988ZM79.988 56.9094H80.488V56.4094H79.988V56.9094ZM70.012 56.9094V56.4094H69.512V56.9094H70.012ZM70.012 59.7704H79.988V58.7704H70.012V59.7704ZM80.488 59.2704V56.9094H79.488V59.2704H80.488ZM79.988 56.4094H70.012V57.4094H79.988V56.4094ZM69.512 56.9094V59.2704H70.512V56.9094H69.512ZM80.488 55.4094H69.512V56.4094H80.488V55.4094ZM69.512 55.4094C68.9599 55.4094 68.512 55.8573 68.512 56.4094H69.512V55.4094ZM68.512 56.4094V59.7704H69.512V56.4094H68.512ZM68.512 59.7704C68.512 60.3226 68.9599 60.7704 69.512 60.7704V59.7704H68.512ZM69.512 60.7704H80.488V59.7704H69.512V60.7704ZM80.488 60.7704C81.0401 60.7704 81.488 60.3226 81.488 59.7704H80.488V60.7704ZM81.488 59.7704V56.4094H80.488V59.7704H81.488ZM81.488 56.4094C81.488 55.8573 81.0401 55.4094 80.488 55.4094V56.4094H81.488Z" fill="#6480EB"/>
<path fill-rule="evenodd" clip-rule="evenodd" d="M62.8211 60.0161C61.7591 60.0161 60.8951 59.1521 60.8951 58.0901C60.8951 57.0281 61.7591 56.1641 62.8211 56.1641C63.883 56.1641 64.7471 57.0281 64.7471 58.0901C64.7471 59.1521 63.883 60.0161 62.8211 60.0161ZM62.8211 55.1641C61.2076 55.1641 59.8951 56.4766 59.8951 58.0901C59.8951 59.7036 61.2076 61.0161 62.8211 61.0161C64.4346 61.0161 65.7471 59.7036 65.7471 58.0901C65.7471 56.4766 64.4346 55.1641 62.8211 55.1641Z" fill="#6480EB"/>
<path d="M62.8211 59.5161C62.0352 59.5161 61.3951 58.8759 61.3951 58.0901H60.3951C60.3951 59.4282 61.4829 60.5161 62.8211 60.5161V59.5161ZM61.3951 58.0901C61.3951 57.3042 62.0352 56.6641 62.8211 56.6641V55.6641C61.4829 55.6641 60.3951 56.7519 60.3951 58.0901H61.3951ZM62.8211 56.6641C63.6069 56.6641 64.2471 57.3042 64.2471 58.0901H65.2471C65.2471 56.7519 64.1592 55.6641 62.8211 55.6641V56.6641ZM64.2471 58.0901C64.2471 58.8759 63.6069 59.5161 62.8211 59.5161V60.5161C64.1592 60.5161 65.2471 59.4282 65.2471 58.0901H64.2471ZM62.8211 54.6641C60.9314 54.6641 59.3951 56.2004 59.3951 58.0901H60.3951C60.3951 56.7527 61.4837 55.6641 62.8211 55.6641V54.6641ZM59.3951 58.0901C59.3951 59.9797 60.9314 61.5161 62.8211 61.5161V60.5161C61.4837 60.5161 60.3951 59.4274 60.3951 58.0901H59.3951ZM62.8211 61.5161C64.7107 61.5161 66.2471 59.9797 66.2471 58.0901H65.2471C65.2471 59.4274 64.1584 60.5161 62.8211 60.5161V61.5161ZM66.2471 58.0901C66.2471 56.2004 64.7107 54.6641 62.8211 54.6641V55.6641C64.1584 55.6641 65.2471 56.7527 65.2471 58.0901H66.2471Z" fill="#6480EB"/>
<path fill-rule="evenodd" clip-rule="evenodd" d="M87.1792 60.0161C86.1172 60.0161 85.2527 59.1521 85.2527 58.0901C85.2527 57.0281 86.1172 56.1641 87.1792 56.1641C88.2412 56.1641 89.1052 57.0281 89.1052 58.0901C89.1052 59.1521 88.2412 60.0161 87.1792 60.0161ZM87.1792 55.1641C85.5652 55.1641 84.2527 56.4766 84.2527 58.0901C84.2527 59.7036 85.5652 61.0161 87.1792 61.0161C88.7927 61.0161 90.1052 59.7036 90.1052 58.0901C90.1052 56.4766 88.7927 55.1641 87.1792 55.1641Z" fill="#6480EB"/>
<path d="M87.1792 59.5161C86.3932 59.5161 85.7527 58.8758 85.7527 58.0901H84.7527C84.7527 59.4284 85.8412 60.5161 87.1792 60.5161V59.5161ZM85.7527 58.0901C85.7527 57.3044 86.3932 56.6641 87.1792 56.6641V55.6641C85.8412 55.6641 84.7527 56.7518 84.7527 58.0901H85.7527ZM87.1792 56.6641C87.965 56.6641 88.6052 57.3042 88.6052 58.0901H89.6052C89.6052 56.7519 88.5173 55.6641 87.1792 55.6641V56.6641ZM88.6052 58.0901C88.6052 58.8759 87.965 59.5161 87.1792 59.5161V60.5161C88.5173 60.5161 89.6052 59.4282 89.6052 58.0901H88.6052ZM87.1792 54.6641C85.2891 54.6641 83.7527 56.2004 83.7527 58.0901H84.7527C84.7527 56.7528 85.8413 55.6641 87.1792 55.6641V54.6641ZM83.7527 58.0901C83.7527 59.9798 85.2891 61.5161 87.1792 61.5161V60.5161C85.8413 60.5161 84.7527 59.4274 84.7527 58.0901H83.7527ZM87.1792 61.5161C89.0688 61.5161 90.6052 59.9797 90.6052 58.0901H89.6052C89.6052 59.4274 88.5165 60.5161 87.1792 60.5161V61.5161ZM90.6052 58.0901C90.6052 56.2004 89.0688 54.6641 87.1792 54.6641V55.6641C88.5165 55.6641 89.6052 56.7527 89.6052 58.0901H90.6052Z" fill="#6480EB"/>
<path fill-rule="evenodd" clip-rule="evenodd" d="M56 67.412H94V65.5625H56V67.412ZM57.24 54.792C57.24 52.608 59.017 50.831 61.2005 50.831H88.799C90.983 50.831 92.7595 52.608 92.7595 54.792V64.5625H57.2395V54.792H57.24ZM72.129 49.8315H65.274C65.391 48.0405 66.8815 46.618 68.7015 46.618C70.5215 46.618 72.012 48.04 72.129 49.8315ZM63.378 38.6295C63.654 37.106 64.8495 36.0005 66.2205 36.0005H83.78C85.151 36.0005 86.346 37.106 86.6225 38.631L88.687 49.831H73.129C73.0105 47.488 71.073 45.6175 68.7015 45.6175C66.33 45.6175 64.3925 47.4885 64.274 49.831H61.313L63.378 38.6295ZM90.899 72.27C90.899 73.224 90.123 74 89.169 74C88.215 74 87.439 73.224 87.439 72.27V68.412H90.899V72.27ZM62.5615 72.27C62.5615 73.224 61.7855 74 60.8315 74C59.8775 74 59.1015 73.224 59.1015 72.27V68.412H62.5615V72.27ZM55.5 68.412H58.101V72.27C58.101 73.7755 59.3255 75 60.831 75C62.3365 75 63.561 73.775 63.561 72.27V68.412H86.4385V72.27C86.4385 73.7755 87.6635 75 89.1685 75C90.6735 75 91.8985 73.775 91.8985 72.27V68.412H94.4995C94.7755 68.412 94.9995 68.188 94.9995 67.912V65.0625C94.9995 64.7865 94.7755 64.5625 94.4995 64.5625H93.7595V54.792C93.7595 52.3715 92.016 50.3535 89.7195 49.92L87.6055 38.451C87.243 36.4515 85.634 35 83.7795 35H66.22C64.3655 35 62.756 36.4515 62.394 38.4495L60.28 49.92C57.9835 50.3535 56.24 52.3715 56.24 54.792V64.5625H55.5C55.224 64.5625 55 64.7865 55 65.0625V67.912C55 68.188 55.224 68.412 55.5 68.412Z" fill="#6480EB"/>
<path d="M56 67.412H55.5V67.912H56V67.412ZM94 67.412V67.912H94.5V67.412H94ZM94 65.5625H94.5V65.0625H94V65.5625ZM56 65.5625V65.0625H55.5V65.5625H56ZM57.24 54.792V55.292H57.74V54.792H57.24ZM92.7595 64.5625V65.0625H93.2595V64.5625H92.7595ZM57.2395 64.5625H56.7395V65.0625H57.2395V64.5625ZM57.2395 54.792V54.292H56.7395V54.792H57.2395ZM65.274 49.8315L64.7751 49.7989L64.7403 50.3315H65.274V49.8315ZM63.378 38.6295L63.8697 38.7201L63.87 38.7186L63.378 38.6295ZM86.6225 38.631L86.1305 38.7202L86.1308 38.7216L86.6225 38.631ZM88.687 49.831V50.331H89.2876L89.1787 49.7404L88.687 49.831ZM73.129 49.831L72.6296 49.8563L72.6536 50.331H73.129V49.831ZM64.274 49.831V50.331H64.7493L64.7734 49.8563L64.274 49.831ZM61.313 49.831L60.8213 49.7404L60.7124 50.331H61.313V49.831ZM87.439 68.412V67.912H86.939V68.412H87.439ZM90.899 68.412H91.399V67.912H90.899V68.412ZM59.1015 68.412V67.912H58.6015V68.412H59.1015ZM62.5615 68.412H63.0615V67.912H62.5615V68.412ZM58.101 68.412H58.601V67.912H58.101V68.412ZM63.561 68.412V67.912H63.061V68.412H63.561ZM86.4385 68.412H86.9385V67.912H86.4385V68.412ZM91.8985 68.412V67.912H91.3985V68.412H91.8985ZM93.7595 64.5625H93.2595V65.0625H93.7595V64.5625ZM89.7195 49.92L89.2278 50.0106L89.2899 50.3477L89.6268 50.4113L89.7195 49.92ZM87.6055 38.451L87.1135 38.5402L87.1138 38.5416L87.6055 38.451ZM62.394 38.4495L62.8857 38.5401L62.886 38.5386L62.394 38.4495ZM60.28 49.92L60.3727 50.4113L60.7096 50.3477L60.7717 50.0106L60.28 49.92ZM56.24 64.5625V65.0625H56.74V64.5625H56.24ZM56 67.912H94V66.912H56V67.912ZM94.5 67.412V65.5625H93.5V67.412H94.5ZM94 65.0625H56V66.0625H94V65.0625ZM55.5 65.5625V67.412H56.5V65.5625H55.5ZM57.74 54.792C57.74 52.8841 59.2932 51.331 61.2005 51.331V50.331C58.7408 50.331 56.74 52.3319 56.74 54.792H57.74ZM61.2005 51.331H88.799V50.331H61.2005V51.331ZM88.799 51.331C90.7068 51.331 92.2595 52.8841 92.2595 54.792H93.2595C93.2595 52.3319 91.2592 50.331 88.799 50.331V51.331ZM92.2595 54.792V64.5625H93.2595V54.792H92.2595ZM92.7595 64.0625H57.2395V65.0625H92.7595V64.0625ZM57.7395 64.5625V54.792H56.7395V64.5625H57.7395ZM57.2395 55.292H57.24V54.292H57.2395V55.292ZM72.129 49.3315H65.274V50.3315H72.129V49.3315ZM65.7729 49.8641C65.8729 48.3332 67.1478 47.118 68.7015 47.118V46.118C66.6152 46.118 64.9091 47.7478 64.7751 49.7989L65.7729 49.8641ZM68.7015 47.118C70.2552 47.118 71.5301 48.3327 71.6301 49.8641L72.6279 49.7989C72.4939 47.7473 70.7878 46.118 68.7015 46.118V47.118ZM63.87 38.7186C64.111 37.3885 65.1338 36.5005 66.2205 36.5005V35.5005C64.5652 35.5005 63.197 36.8235 62.886 38.5404L63.87 38.7186ZM66.2205 36.5005H83.78V35.5005H66.2205V36.5005ZM83.78 36.5005C84.8664 36.5005 85.889 37.3882 86.1305 38.7202L87.1145 38.5418C86.803 36.8238 85.4356 35.5005 83.78 35.5005V36.5005ZM86.1308 38.7216L88.1953 49.9216L89.1787 49.7404L87.1142 38.5404L86.1308 38.7216ZM88.687 49.331H73.129V50.331H88.687V49.331ZM73.6284 49.8057C73.4965 47.1992 71.3418 45.1175 68.7015 45.1175V46.1175C70.8042 46.1175 72.5245 47.7768 72.6296 49.8563L73.6284 49.8057ZM68.7015 45.1175C66.0612 45.1175 63.9065 47.1998 63.7746 49.8057L64.7734 49.8563C64.8785 47.7772 66.5988 46.1175 68.7015 46.1175V45.1175ZM64.274 49.331H61.313V50.331H64.274V49.331ZM61.8047 49.9216L63.8697 38.7201L62.8863 38.5389L60.8213 49.7404L61.8047 49.9216ZM90.399 72.27C90.399 72.9479 89.8469 73.5 89.169 73.5V74.5C90.3991 74.5 91.399 73.5001 91.399 72.27H90.399ZM89.169 73.5C88.4911 73.5 87.939 72.9479 87.939 72.27H86.939C86.939 73.5001 87.9389 74.5 89.169 74.5V73.5ZM87.939 72.27V68.412H86.939V72.27H87.939ZM87.439 68.912H90.899V67.912H87.439V68.912ZM90.399 68.412V72.27H91.399V68.412H90.399ZM62.0615 72.27C62.0615 72.9479 61.5094 73.5 60.8315 73.5V74.5C62.0616 74.5 63.0615 73.5001 63.0615 72.27H62.0615ZM60.8315 73.5C60.1536 73.5 59.6015 72.9479 59.6015 72.27H58.6015C58.6015 73.5001 59.6014 74.5 60.8315 74.5V73.5ZM59.6015 72.27V68.412H58.6015V72.27H59.6015ZM59.1015 68.912H62.5615V67.912H59.1015V68.912ZM62.0615 68.412V72.27H63.0615V68.412H62.0615ZM55.5 68.912H58.101V67.912H55.5V68.912ZM57.601 68.412V72.27H58.601V68.412H57.601ZM57.601 72.27C57.601 74.0516 59.0494 75.5 60.831 75.5V74.5C59.6016 74.5 58.601 73.4994 58.601 72.27H57.601ZM60.831 75.5C62.6127 75.5 64.061 74.0511 64.061 72.27H63.061C63.061 73.4989 62.0603 74.5 60.831 74.5V75.5ZM64.061 72.27V68.412H63.061V72.27H64.061ZM63.561 68.912H86.4385V67.912H63.561V68.912ZM85.9385 68.412V72.27H86.9385V68.412H85.9385ZM85.9385 72.27C85.9385 74.0517 87.3874 75.5 89.1685 75.5V74.5C87.9396 74.5 86.9385 73.4993 86.9385 72.27H85.9385ZM89.1685 75.5C90.9496 75.5 92.3985 74.0511 92.3985 72.27H91.3985C91.3985 73.4989 90.3974 74.5 89.1685 74.5V75.5ZM92.3985 72.27V68.412H91.3985V72.27H92.3985ZM91.8985 68.912H94.4995V67.912H91.8985V68.912ZM94.4995 68.912C95.0516 68.912 95.4995 68.4641 95.4995 67.912H94.4995V68.912ZM95.4995 67.912V65.0625H94.4995V67.912H95.4995ZM95.4995 65.0625C95.4995 64.5104 95.0516 64.0625 94.4995 64.0625V65.0625H95.4995ZM94.4995 64.0625H93.7595V65.0625H94.4995V64.0625ZM94.2595 64.5625V54.792H93.2595V64.5625H94.2595ZM94.2595 54.792C94.2595 52.1258 92.3397 49.9058 89.8122 49.4287L89.6268 50.4113C91.6923 50.8012 93.2595 52.6172 93.2595 54.792H94.2595ZM90.2112 49.8294L88.0972 38.3604L87.1138 38.5416L89.2278 50.0106L90.2112 49.8294ZM88.0975 38.3618C87.6979 36.1578 85.9082 34.5 83.7795 34.5V35.5C85.3598 35.5 86.7881 36.7452 87.1135 38.5402L88.0975 38.3618ZM83.7795 34.5H66.22V35.5H83.7795V34.5ZM66.22 34.5C64.0915 34.5 62.3011 36.1576 61.902 38.3604L62.886 38.5386C63.2109 36.7454 64.6395 35.5 66.22 35.5V34.5ZM61.9023 38.3589L59.7883 49.8294L60.7717 50.0106L62.8857 38.5401L61.9023 38.3589ZM60.1873 49.4287C57.6598 49.9058 55.74 52.1258 55.74 54.792H56.74C56.74 52.6172 58.3072 50.8012 60.3727 50.4113L60.1873 49.4287ZM55.74 54.792V64.5625H56.74V54.792H55.74ZM56.24 64.0625H55.5V65.0625H56.24V64.0625ZM55.5 64.0625C54.9479 64.0625 54.5 64.5104 54.5 65.0625H55.5V64.0625ZM54.5 65.0625V67.912H55.5V65.0625H54.5ZM54.5 67.912C54.5 68.4641 54.9479 68.912 55.5 68.912V67.912H54.5Z" fill="#6480EB"/>
<defs>
<filter id="filter0_d" x="0" y="0" width="150" height="150" filterUnits="userSpaceOnUse" color-interpolation-filters="sRGB">
<feFlood flood-opacity="0" result="BackgroundImageFix"/>
<feColorMatrix in="SourceAlpha" type="matrix" values="0 0 0 0 0 0 0 0 0 0 0 0 0 0 0 0 0 0 127 0"/>
<feOffset dy="6"/>
<feGaussianBlur stdDeviation="7.5"/>
<feColorMatrix type="matrix" values="0 0 0 0 0 0 0 0 0 0 0 0 0 0 0 0 0 0 0.05 0"/>
<feBlend mode="normal" in2="BackgroundImageFix" result="effect1_dropShadow"/>
<feBlend mode="normal" in="SourceGraphic" in2="effect1_dropShadow" result="shape"/>
</filter>
</defs>
</svg>
