<svg xmlns="http://www.w3.org/2000/svg" width="31" height="31" viewBox="0 0 31 31">
    <g fill="none" fill-rule="evenodd" stroke="#FFD600" stroke-width="1.5">
        <path d="M15.896 13.354c-2.19-1.265-4.978-1.375-7.848-.309-2.58.958-4.823 2.747-6 4.787-.573.99-.705 1.92-.395 2.762.305.832.988 1.447 1.856 1.948.924.534 2.059.938 3.173 1.335.974.347 1.894.675 2.536 1.045.553.32 1.25.915 1.987 1.545 1.724 1.473 3.677 3.142 5.548 2.821.89-.153 1.626-.725 2.19-1.702 1.177-2.039 1.606-4.876 1.145-7.59-.512-3.018-2-5.377-4.192-6.642zM25.787 5.655c-.927-.535-2.115-.524-3.26.032-1.053.51-2.001 1.43-2.671 2.59-.67 1.16-.993 2.442-.908 3.608.092 1.27.676 2.305 1.602 2.84.926.534 2.115.522 3.26-.033 1.053-.51 2.001-1.43 2.671-2.59.67-1.16.993-2.442.908-3.608-.092-1.27-.676-2.305-1.602-2.84zM18.244 1.3c-.926-.535-2.115-.523-3.26.032-1.053.51-2.001 1.43-2.671 2.59-.67 1.16-.993 2.442-.908 3.609.092 1.27.676 2.304 1.602 2.839.927.535 2.115.523 3.26-.032 1.053-.51 2.001-1.43 2.672-2.59.67-1.161.992-2.443.907-3.609-.092-1.27-.676-2.304-1.602-2.84zM29.204 16.754c-.455-.553-1.131-.894-1.905-.961-1.067-.092-2.222.323-3.17 1.14-.773.666-1.319 1.527-1.537 2.426-.24.992-.061 1.918.504 2.605.195.238.432.437.7.591.354.205.764.332 1.205.37 1.067.092 2.222-.323 3.169-1.139.774-.666 1.32-1.528 1.537-2.426.24-.993.062-1.918-.503-2.606zM8.55 4.968c-.445-.637-1.08-1.052-1.785-1.17-.878-.145-1.77.163-2.509.868-.669.637-1.142 1.541-1.332 2.544-.233 1.229-.015 2.436.598 3.314.253.363.568.654.923.86.268.154.558.26.862.31.878.145 1.769-.163 2.508-.867.669-.638 1.142-1.541 1.333-2.545.233-1.228.015-2.436-.598-3.314z"/>
    </g>
</svg>
