<svg xmlns="http://www.w3.org/2000/svg" width="26" height="30" viewBox="0 0 26 30">
    <g fill="#FFF" fill-rule="evenodd">
        <path d="M24.538 21.824L12.87 28.645 1.205 21.824V8.18L12.87 1.358 24.538 8.18v13.644zm.903-14.525L13.172.125a.595.595 0 0 0-.602 0L.301 7.3A.611.611 0 0 0 0 7.828v14.348c0 .218.115.419.301.528l12.269 7.174a.596.596 0 0 0 .602 0l12.27-7.174a.611.611 0 0 0 .3-.528V7.828a.612.612 0 0 0-.3-.529z"/>
        <path d="M16.42 8.745a4.36 4.36 0 0 1 3.123 1.31 4.473 4.473 0 0 1 1.294 3.164c0 1.194-.46 2.318-1.294 3.163l-6.673 6.756-6.67-6.756a4.473 4.473 0 0 1-1.294-3.163c0-1.195.46-2.319 1.293-3.164a4.36 4.36 0 0 1 3.123-1.31 4.36 4.36 0 0 1 3.123 1.31.597.597 0 0 0 .852 0 4.36 4.36 0 0 1 3.123-1.31m-7.098-1.22a5.548 5.548 0 0 0-3.974 1.668A5.692 5.692 0 0 0 3.7 13.219c0 1.52.585 2.95 1.647 4.026l7.096 7.187a.597.597 0 0 0 .852 0l7.099-7.187a5.692 5.692 0 0 0 1.646-4.026c0-1.521-.584-2.951-1.646-4.026a5.548 5.548 0 0 0-3.975-1.668c-1.309 0-2.549.45-3.549 1.278a5.535 5.535 0 0 0-3.549-1.278"/>
        <path d="M17.839 15.519a.597.597 0 0 0 .852 0 3.254 3.254 0 0 0 .941-2.3c0-.87-.334-1.687-.941-2.301a.598.598 0 0 0-.852 0 .616.616 0 0 0 0 .863c.38.384.588.894.588 1.438a2.03 2.03 0 0 1-.588 1.437.616.616 0 0 0 0 .863"/>
    </g>
</svg>
