<svg xmlns="http://www.w3.org/2000/svg" width="32" height="32" viewBox="0 0 32 32">
    <g fill="#FFF" fill-rule="nonzero">
        <path d="M11.938 19.524v-2.413h8.124v2.413h-8.124zm7.482-.643v-1.127h-6.84v1.127h6.84zm.696-2.52c.385 0 .696.312.696.696v2.52a.697.697 0 0 1-.696.697h-8.232a.697.697 0 0 1-.696-.696v-2.52c0-.385.311-.697.696-.697h8.232zm0 .643h-8.232a.054.054 0 0 0-.054.053v2.52c0 .03.025.054.054.054h8.232c.03 0 .054-.024.054-.053v-2.52a.054.054 0 0 0-.054-.054zM6.866 19.762v.322A1.768 1.768 0 0 1 5.1 18.318c0-.974.792-1.766 1.766-1.766s1.766.792 1.766 1.766-.792 1.766-1.766 1.766v-.322zm0 0v-.321c.619 0 1.123-.504 1.123-1.123 0-.62-.504-1.123-1.123-1.123-.62 0-1.123.504-1.123 1.123s.504 1.123 1.123 1.123v.321zm0-3.639v.322c-1.033 0-1.873.84-1.873 1.873 0 1.032.84 1.873 1.873 1.873 1.032 0 1.873-.84 1.873-1.873s-.84-1.873-1.873-1.873v-.322zm0 0v-.321a2.518 2.518 0 0 1 2.516 2.516 2.518 2.518 0 0 1-2.516 2.516 2.518 2.518 0 0 1-2.516-2.516 2.518 2.518 0 0 1 2.516-2.516v.321zM25.134 19.762v.322a1.768 1.768 0 0 1-1.766-1.766c0-.974.792-1.766 1.766-1.766s1.766.792 1.766 1.766-.792 1.766-1.766 1.766v-.322zm0 0v-.321c.62 0 1.123-.504 1.123-1.123 0-.62-.504-1.123-1.123-1.123s-1.123.504-1.123 1.123c0 .618.504 1.123 1.123 1.123v.321zm0-3.639v.322c-1.033 0-1.873.84-1.873 1.873 0 1.032.84 1.873 1.873 1.873s1.873-.84 1.873-1.873-.84-1.873-1.873-1.873v-.322zm0 0v-.321a2.518 2.518 0 0 1 2.516 2.516 2.518 2.518 0 0 1-2.516 2.516 2.518 2.518 0 0 1-2.516-2.516 2.518 2.518 0 0 1 2.516-2.516v.321z"/>
        <path d="M1.429 25.63V23.6H30.57v2.03H1.43zm.642-.642H29.93v-.745H2.07v.745zm26.927-9.144c0-1.46-1.188-2.65-2.649-2.65H5.65a2.653 2.653 0 0 0-2.649 2.65V22.85h25.997v-7.006zM5.65 12.552h20.7a3.295 3.295 0 0 1 3.291 3.292v7.65H2.358v-7.971c.178-1.666 1.586-2.971 3.292-2.971zm5.626-2.517a2.26 2.26 0 0 0-2.2 1.767h4.401a2.26 2.26 0 0 0-2.2-1.767zm-2.914 2.41l.023-.342a2.902 2.902 0 0 1 2.891-2.71 2.902 2.902 0 0 1 2.891 2.71l.023.342H8.362zm17.517-.643L24.401 3.78c-.181-.997-.95-1.71-1.816-1.71H9.415c-.865 0-1.635.713-1.815 1.708l-1.48 8.023h1.543a3.652 3.652 0 0 1 3.613-3.16 3.652 3.652 0 0 1 3.614 3.16h10.99zM6.967 3.664C7.201 2.375 8.225 1.43 9.415 1.43h13.17c1.191 0 2.214.947 2.448 2.236l1.618 8.78h-12.36l-.015-.306a3.009 3.009 0 0 0-3-2.854 3.01 3.01 0 0 0-3 2.854l-.015.306H5.35l1.618-8.78zm18.684 25.288c0 .538.438.977.976.977a.977.977 0 0 0 .976-.976V26.38H25.65v2.573zm2.595 0a1.62 1.62 0 0 1-1.62 1.62 1.62 1.62 0 0 1-1.618-1.62v-3.214h3.238v3.215zm-23.848 0c0 .538.438.977.976.977a.977.977 0 0 0 .976-.976V26.38H4.398v2.573zm2.595 0a1.62 1.62 0 0 1-1.62 1.62 1.62 1.62 0 0 1-1.618-1.62v-3.214h3.238v3.215zM3.004 26.38H1.375a.697.697 0 0 1-.696-.696v-2.137c0-.385.311-.697.696-.697h.234v-7.006a4.047 4.047 0 0 1 3.074-3.923L6.229 3.53C6.528 1.883 7.863.679 9.415.679h13.17c1.551 0 2.887 1.204 3.185 2.851l1.547 8.391a4.047 4.047 0 0 1 3.074 3.923v7.006h.234c.384 0 .696.312.696.697v2.137a.697.697 0 0 1-.696.696h-1.63v2.573a2.372 2.372 0 0 1-2.369 2.368 2.371 2.371 0 0 1-2.369-2.369V26.38H7.742v2.573a2.371 2.371 0 0 1-2.369 2.368 2.371 2.371 0 0 1-2.369-2.369V26.38zm.643-.642v3.215c0 .951.775 1.726 1.726 1.726.952 0 1.726-.775 1.726-1.726v-3.215H24.9v3.215c0 .951.775 1.726 1.726 1.726.952 0 1.726-.775 1.726-1.726v-3.215h2.273c.02 0 .037-.73.053-2.191 0-.02-.31-.038-.93-.054v-7.649a3.404 3.404 0 0 0-2.768-3.338l-.217-.041-.04-.217-1.585-8.602c-.245-1.352-1.323-2.325-2.553-2.325H9.415c-1.23 0-2.309.973-2.553 2.324l-1.626 8.82-.216.04a3.404 3.404 0 0 0-2.769 3.339v7.65h-.876c-.02 0-.038.73-.054 2.19 0 .02.776.038 2.326.054z"/>
    </g>
</svg>
