<svg xmlns="http://www.w3.org/2000/svg" width="31" height="31" viewBox="0 0 31 31">
    <g fill="#06E1DB" fill-rule="evenodd" stroke="#06E1DB" stroke-width=".5">
        <path d="M27.187 8.87c-.305 1.861-.595 3.62-1.37 4.395-1.671 1.671-4.588 1.671-6.26 0a4.399 4.399 0 0 1-1.297-3.13c0-1.184.46-2.295 1.297-3.13 1.997-1.998 5.356-3.27 9.152-3.501-.89 1.525-1.22 3.54-1.522 5.365m3.355-6.255a.617.617 0 0 0-.57-.381c-4.625 0-8.845 1.458-11.286 3.9a5.621 5.621 0 0 0-1.659 4.001c0 1.512.59 2.933 1.659 4.002a5.623 5.623 0 0 0 4.002 1.659c1.511 0 2.933-.59 4.003-1.657 1.055-1.056 1.375-3.005 1.715-5.068.365-2.224.743-4.524 2.003-5.784a.615.615 0 0 0 .133-.672M12.772 6.606a1.907 1.907 0 0 1-2.696 0c-.318-.317-.46-1.187-.599-2.03-.123-.751-.257-1.568-.548-2.278 1.6.186 2.988.76 3.843 1.613a1.907 1.907 0 0 1 0 2.695m.87-3.566C12.346 1.743 10.21 1 7.78 1a.615.615 0 0 0-.437 1.052c.561.56.741 1.66.916 2.724.18 1.083.347 2.104.945 2.702a3.129 3.129 0 0 0 2.219.917c.803 0 1.606-.306 2.218-.916a3.14 3.14 0 0 0 0-4.439"/>
        <path d="M24.245 7.346a.617.617 0 0 0-.872 0c-3.267 3.266-4.93 6.942-5.716 9.22-.88-3.113-2.562-8.508-4.014-9.96a.617.617 0 0 0-.871.872c1.454 1.456 3.58 8.832 4.275 11.552.07.273.316.463.597.463h.02a.615.615 0 0 0 .586-.5c.011-.06 1.177-5.958 5.995-10.776a.617.617 0 0 0 0-.871M4.865 26.89H2.233v-9.818c1.981.156 4.12.497 4.896.874-.327 2.7-1.805 7.497-2.264 8.944m3.34-9.694c-1.057-1-5.282-1.325-6.552-1.4a.639.639 0 0 0-.46.166.617.617 0 0 0-.193.449v11.096c0 .34.276.616.616.616h3.7a.617.617 0 0 0 .585-.425c.09-.276 2.214-6.796 2.494-10.001a.614.614 0 0 0-.19-.5"/>
        <path d="M30.525 24.764a4.029 4.029 0 0 0-4.609-2.12l-4.723 1.182a.616.616 0 1 0 .299 1.195l4.723-1.178a2.804 2.804 0 0 1 2.854.932l-6.111 2.779c-5.183 2.124-5.362 2.056-7.585 1.218L6.126 25.69a.615.615 0 1 0-.39 1.168l9.224 3.074c1.037.39 1.752.618 2.556.618 1.25 0 2.714-.547 5.932-1.867L30.23 25.6a.616.616 0 0 0 .296-.837"/>
        <path d="M19.013 20.74L7.914 18.276a.624.624 0 0 0-.736.469.618.618 0 0 0 .469.736l11.083 2.462c1.366.341 1.915.879 1.99 2.004l-1.184.296c-.439.11-.905.122-1.351.032l-5.35-1.07a.61.61 0 0 0-.725.483.615.615 0 0 0 .483.725l5.351 1.07a4.326 4.326 0 0 0 1.892-.045l1.66-.414a.617.617 0 0 0 .467-.598v-.195c0-1.904-.904-2.979-2.95-3.49"/>
    </g>
</svg>
