<svg xmlns="http://www.w3.org/2000/svg" width="31" height="29" viewBox="0 0 31 29">
    <g fill="none" fill-rule="evenodd" stroke="#FFF" stroke-width="1.2">
        <path d="M8.566 7.76C8.076 5.301 6.38 3.222 4.35 3.222 2.323 3.222 1 5.902 1 8.41s2.188 4.431 4.216 4.431c2.03 0 3.89-2.379 3.35-5.08M11.806 10.582c1.953.542 4.384-1.248 4.59-3.996.184-2.5-.887-4.959-2.845-5.503-1.955-.545-3.947 1.684-4.617 4.099-.672 2.415.918 4.854 2.872 5.4M24.909 11.049c1.184-2.209 1.205-4.891-.362-6.182-1.562-1.294-4.29-.066-5.886 1.869-1.598 1.93-1.136 4.806.432 6.1 1.565 1.29 4.512.642 5.816-1.787M29.953 14.568c-.81-1.656-3.53-1.667-5.576-.667-2.045.998-2.747 3.552-1.938 5.209.811 1.658 3.497 2.229 5.488.712 1.813-1.383 2.835-3.596 2.026-5.254M14.137 12.128c-4.856-.3-10.915 3.384-10.915 7.893 0 4.506 5.185 8.032 10.05 8.106 7.511.107 9.157-3.839 8.324-8.27-.866-4.592-4-7.51-7.46-7.729"/>
    </g>
</svg>
