<svg xmlns="http://www.w3.org/2000/svg" width="28" height="32" viewBox="0 0 28 32">
    <g fill="#FF6690" fill-rule="evenodd" stroke="#FF6690" stroke-width=".5">
        <path d="M25.673 22.824l-11.731 6.821-11.73-6.821V9.18l11.73-6.822 11.73 6.822v13.644zm.908-14.525L14.245 1.125a.601.601 0 0 0-.606 0L1.303 8.3A.61.61 0 0 0 1 8.828v14.348c0 .218.115.419.303.528l12.336 7.174a.601.601 0 0 0 .606 0l12.336-7.174a.61.61 0 0 0 .303-.528V8.828a.611.611 0 0 0-.303-.529z"/>
        <path d="M17.51 9.745c1.186 0 2.302.466 3.14 1.31a4.46 4.46 0 0 1 1.301 3.164 4.46 4.46 0 0 1-1.3 3.163l-6.71 6.756-6.708-6.756a4.46 4.46 0 0 1-1.3-3.163 4.46 4.46 0 0 1 1.3-3.164 4.396 4.396 0 0 1 3.14-1.31c1.187 0 2.302.466 3.14 1.31.237.239.62.239.857 0a4.396 4.396 0 0 1 3.14-1.31m-7.136-1.22c-1.51 0-2.93.592-3.997 1.668a5.676 5.676 0 0 0-1.656 4.026c0 1.52.588 2.95 1.656 4.026l7.136 7.187a.601.601 0 0 0 .856 0l7.138-7.187a5.676 5.676 0 0 0 1.655-4.026c0-1.521-.588-2.951-1.655-4.026a5.594 5.594 0 0 0-3.997-1.668c-1.316 0-2.563.45-3.568 1.278a5.584 5.584 0 0 0-3.568-1.278"/>
        <path d="M18.937 16.519a.602.602 0 0 0 .857 0c.61-.614.946-1.431.946-2.3 0-.87-.336-1.687-.946-2.301a.603.603 0 0 0-.857 0 .614.614 0 0 0 0 .863c.382.384.592.894.592 1.438 0 .543-.21 1.053-.592 1.437a.614.614 0 0 0 0 .863"/>
    </g>
</svg>
