<svg xmlns="http://www.w3.org/2000/svg" width="31" height="32" viewBox="0 0 31 32">
    <g fill="#FFF" fill-rule="evenodd" stroke="#FFF">
        <path d="M13.123 9.678a.398.398 0 0 0-.347-.35L1.454 7.86a.4.4 0 0 0-.45.341.397.397 0 0 0 .345.444l11.008 1.427.866 8.01-1.607.792a.394.394 0 0 0-.217.417l.88 5.382-1.963.967a.394.394 0 0 0-.207.46l1.3 4.571a.4.4 0 0 0 .494.275.395.395 0 0 0 .279-.488l-1.21-4.257 1.93-.95a.394.394 0 0 0 .218-.418l-.881-5.381 1.592-.784a.394.394 0 0 0 .22-.396l-.928-8.594zM25.485 13.59a2.317 2.317 0 0 1-1.22 1.305c-1.177.538-2.579.033-3.125-1.127l-.944-2.003a2.272 2.272 0 0 1-.075-1.773 2.317 2.317 0 0 1 1.22-1.306 2.37 2.37 0 0 1 .987-.216c.888 0 1.74.498 2.138 1.343l.944 2.003c.265.562.291 1.192.075 1.773zm-6.913-7.625a2.33 2.33 0 0 1 .33-1.788 2.42 2.42 0 0 1 2.03-1.088c.447 0 .899.122 1.302.378.54.343.914.874 1.05 1.494a2.33 2.33 0 0 1-.33 1.788c-.72 1.1-2.214 1.419-3.331.71a2.36 2.36 0 0 1-1.05-1.494zm11.358 7.848a.399.399 0 0 0-.38-.377l-3.155-.162a3.046 3.046 0 0 0-.256-1.79l-.944-2.004a3.102 3.102 0 0 0-.294-.496l2.02-3.808a.39.39 0 0 0 .043-.229l-.416-3.531a.4.4 0 0 0-.445-.347.397.397 0 0 0-.352.438l.401 3.41-1.833 3.456a3.196 3.196 0 0 0-1.2-.594 3.17 3.17 0 0 0 .51-.602c.465-.71.622-1.557.44-2.383a3.145 3.145 0 0 0-1.4-1.992c-1.49-.946-3.482-.521-4.442.946a3.106 3.106 0 0 0-.44 2.384 3.145 3.145 0 0 0 1.4 1.992c.306.194.633.33.968.411a3.092 3.092 0 0 0-.98 2.183l-3.161 1.897a.394.394 0 0 0-.192.367l.337 4.484a.4.4 0 0 0 .43.365.398.398 0 0 0 .37-.424l-.318-4.242 2.638-1.583c.048.175.11.348.19.516l.943 2.003a3.119 3.119 0 0 0 1.778 1.611 3.166 3.166 0 0 0 1.824.103l2.105 2.94-1.97 4.087a.393.393 0 0 0 .19.528.405.405 0 0 0 .535-.188l2.071-4.296a.39.39 0 0 0-.035-.397l-2.124-2.967a3.1 3.1 0 0 0 1.374-1.468l2.985.153.222 4.704a.399.399 0 0 0 .42.377.398.398 0 0 0 .382-.414l-.24-5.061z"/>
    </g>
</svg>
