<svg xmlns="http://www.w3.org/2000/svg" width="31" height="30" viewBox="0 0 31 30">
    <g fill="#FFF" fill-rule="nonzero">
        <path d="M14.585 13.5a.69.69 0 0 1-.63.74l-5.245.423a.683.683 0 0 1-.714-.495l-.534-1.826H7.24v5.968h.232l.566-1.827a.68.68 0 0 1 .709-.484l5.209.422a.69.69 0 0 1 .629.739l-.476 6.889h.42l1.763-7.013a.69.69 0 0 1 .687-.522l2.516.084a.547.547 0 0 1 .13-.004c1.587.112 3.379-.016 3.707-.305a.573.573 0 0 1 .067-.05c.306-.208.645-.575.666-.9-.021-.353-.36-.718-.667-.926a.772.772 0 0 1-.071-.055c-.324-.284-2.118-.413-3.713-.299l-2.62.087a.682.682 0 0 1-.7-.52l-1.765-7.023h-.42l.476 6.897zm.518 10.892l-.03.055c-.078.147-.27.237-.472.237h-.636a.566.566 0 0 1-.428-.175l-.085-.099.01-.13.493-7.164a.057.057 0 0 0-.05-.062l-5.213-.422c-.021-.002-.043.013-.052.04l-.618 1.995a.42.42 0 0 1-.393.278h-.602a.42.42 0 0 1-.418-.421v-6.396a.42.42 0 0 1 .418-.421h.595c.173 0 .338.108.396.286l.583 1.996c.008.027.03.043.056.04l5.248-.422a.057.057 0 0 0 .05-.062l-.503-7.303.085-.099a.566.566 0 0 1 .428-.175h.636a.6.6 0 0 1 .41.147l.083.08.013.116 1.798 7.159c.006.025.03.044.054.042l2.622-.087c1.786-.127 3.65.006 4.158.453.127.088.29.22.456.398.29.312.477.652.5 1.062-.023.377-.21.722-.499 1.036-.166.18-.329.313-.455.398-.51.448-2.37.581-4.17.455a.737.737 0 0 1-.066.006l-2.55-.085c-.019 0-.046.02-.051.043l-1.795 7.136-.006.065zm-6.378-5.49a1.165 1.165 0 0 1-1.096.794h-.601c-.64 0-1.158-.526-1.158-1.173v-6.395c0-.646.518-1.172 1.158-1.172h.594c.499 0 .94.322 1.098.8l.433 1.481 4.018-.324-.451-6.546c-.002-.66.553-1.15 1.245-1.15h.636c.618 0 1.148.402 1.229.936l1.656 6.59 2.057-.067c.62-.045 1.383-.065 2.133-.027 1.18.06 2.055.249 2.503.625.202.14.438.345.658.609.346.414.566.877.596 1.373.002.076.002.076.001.105-.03.516-.25.986-.596 1.404-.22.266-.457.473-.636.596-.456.381-1.291.57-2.42.637-.725.042-1.473.028-2.141-.014a.36.36 0 0 1-.086.002l-2.07-.069-1.649 6.553c-.086.564-.617.965-1.234.965h-.636c-.687 0-1.247-.485-1.246-1.145l.45-6.543-3.987-.323-.458 1.478zm-1.103-7.31h-.594c-.29 0-.528.24-.528.536v6.395c0 .297.237.538.528.538h.601a.53.53 0 0 0 .497-.359l.605-1.951 5.112.413-.022.313-.471 6.835c0 .265.258.488.616.488h.636c.322 0 .575-.192.617-.457L17 17.266l.253.008 2.347.079c1.858.113 3.614.01 4.222-.498.158-.11.354-.28.533-.496.266-.322.43-.671.45-1.017-.022-.392-.184-.733-.45-1.05a2.907 2.907 0 0 0-.555-.512c-.33-.276-1.108-.444-2.155-.497-.72-.037-1.459-.017-2.068.027L17 13.395l-.062-.248-1.724-6.867c-.037-.236-.29-.428-.612-.428h-.636c-.36 0-.615.226-.615.492l.493 7.152-5.15.415-.573-1.959a.527.527 0 0 0-.498-.36zm17.182 3.715v-.004.004z"/>
        <path d="M30.584 10.765l-.617 1.247a.7.7 0 0 1-.916.313l-1.283-.6a.662.662 0 0 1-.32-.896.692.692 0 0 1 .741-.366c-1.82-5.428-7.01-9.124-12.948-9.124-6.295 0-11.737 4.15-13.235 10.091a.688.688 0 0 1-.83.492.668.668 0 0 1-.504-.81C2.322 4.569 8.313 0 15.242 0c6.516 0 12.219 4.048 14.237 10a.7.7 0 0 1 .782-.13c.342.16.488.56.323.895zm-.594-.338a.06.06 0 0 0-.078.026l-.597 1.206-.222-.787C27.375 4.804 21.73.617 15.24.617 8.601.617 2.863 4.994 1.283 11.26c-.006.027.011.054.041.062.033.007.064-.011.071-.039C2.963 5.065 8.657.722 15.241.722c6.447 0 12.055 4.17 13.75 10.207l.182.652-.621-.291-.46-.215c-.03-.014-.065-.002-.079.025-.012.025-.001.055.026.068l1.283.6c.061-.003.073-.012.079-.025l.617-1.247c.012-.025 0-.055-.027-.068l.135-.28-.136.279zM29.328 18.356C27.71 25.211 21.85 30 15.078 30 8.674 30 3.074 25.715 1.121 19.43a.663.663 0 0 1-.79.079.71.71 0 0 1-.241-.951l.704-1.254a.677.677 0 0 1 .412-.325.656.656 0 0 1 .515.075l1.201.734a.71.71 0 0 1 .238.952.666.666 0 0 1-.734.328c1.793 5.675 6.86 9.537 12.65 9.537 6.149 0 11.47-4.35 12.941-10.58a.67.67 0 0 1 .819-.511c.361.093.58.47.491.842zm-.646-.225c-.025-.007-.052.01-.06.044-1.538 6.515-7.108 11.067-13.545 11.067-6.317 0-11.81-4.39-13.458-10.737l-.197-.756.656.4.475.292c.025.015.056.007.071-.02.017-.03.008-.07-.019-.086L1.404 17.6c-.051-.001-.063.008-.071.022l-.704 1.254c-.016.03-.007.068.02.085.043.007.06-.003.07-.021l.614-1.093.195.742c1.679 6.375 7.203 10.774 13.55 10.774 6.484 0 12.096-4.586 13.647-11.157.008-.035-.011-.067-.04-.074l.075-.31-.078.309z"/>
    </g>
</svg>
