<svg xmlns="http://www.w3.org/2000/svg" width="28" height="30" viewBox="0 0 28 30">
    <path fill="#FFF" fill-rule="evenodd" d="M26.502 23.933c-.9 1.414-2.574 2.613-4.84 3.47-2.234.842-4.879 1.288-7.648 1.288-2.768 0-5.412-.446-7.646-1.289-2.267-.856-3.94-2.055-4.841-3.469a.828.828 0 0 1 .237-1.131.8.8 0 0 1 1.112.241c.7 1.1 2.139 2.103 4.05 2.825 2.057.776 4.508 1.187 7.088 1.187s5.032-.41 7.089-1.187c1.911-.722 3.35-1.725 4.05-2.825a.796.796 0 0 1 1.112-.242.828.828 0 0 1 .237 1.132zM9.22 19.528a5.61 5.61 0 0 0 1.345.042l.057-.005-2.45 5.35a14.58 14.58 0 0 1-1.216-.441l2.264-4.946zm-3.333-4.236L1.333 2.404a.823.823 0 0 1 .485-1.047.8.8 0 0 1 1.028.493l4.552 12.888c.435 1.231 1.635 2.012 2.914 1.898l8.634-.77a6.058 6.058 0 0 1 4.505 1.447l.595.508a.83.83 0 0 1 .1 1.153.79.79 0 0 1-1.132.1l-.596-.508a4.481 4.481 0 0 0-3.332-1.07l-8.634.77c-2.007.178-3.885-1.044-4.566-2.974zm6.901-6.278a6.249 6.249 0 0 1 4.723 1.243l.791.607a.659.659 0 0 1 .126.917.636.636 0 0 1-.423.253.63.63 0 0 1-.477-.125l-.79-.607a4.99 4.99 0 0 0-3.771-.992l-5.488.785-.445-1.258 5.754-.823zm5.632 16.28a20.877 20.877 0 0 1-4.405.452c-1.609 0-3.159-.169-4.58-.492l2.666-5.821 3.493-.311 2.826 6.171zm2.493-.753a12.84 12.84 0 0 1-1.224.425l-2.732-5.965 1.363-.122 2.593 5.662zm6.052-2.838a2.07 2.07 0 0 0-2.89.628c-.37.582-1.07 1.16-1.994 1.663l-2.38-5.2c.692.046 1.35.312 1.891.775l.595.508a2.051 2.051 0 0 0 1.526.49 2.064 2.064 0 0 0 1.418-.752 2.156 2.156 0 0 0-.257-2.997l-.596-.508a7.322 7.322 0 0 0-5.443-1.747l-8.634.769a1.548 1.548 0 0 1-1.592-1.037l-.686-1.942 5.223-.747a3.727 3.727 0 0 1 2.817.742l.791.606a1.892 1.892 0 0 0 1.43.376 1.91 1.91 0 0 0 1.271-.762c.31-.419.442-.936.37-1.455a1.957 1.957 0 0 0-.75-1.295l-.79-.606a7.51 7.51 0 0 0-5.676-1.495l-6.02.861-2.532-7.17C3.666.303 2.466-.273 1.382.125.298.522-.266 1.743.123 2.847l4.553 12.888a5.785 5.785 0 0 0 3.283 3.447l-2.164 4.726c-.848-.483-1.49-1.028-1.84-1.577a2.07 2.07 0 0 0-2.89-.628c-.967.638-1.244 1.958-.617 2.942 1.052 1.652 2.944 3.03 5.472 3.984C8.296 29.526 11.095 30 14.014 30c2.92 0 5.719-.474 8.094-1.37 2.528-.955 4.42-2.333 5.473-3.985a2.153 2.153 0 0 0-.617-2.942z"/>
</svg>
