<svg xmlns="http://www.w3.org/2000/svg" width="50" height="37" viewBox="0 0 50 37">
    <g fill="#99BBC1" fill-rule="evenodd">
        <path d="M48.333 33.454a1.857 1.857 0 0 1-1.847 1.864H3.514a1.857 1.857 0 0 1-1.847-1.864V3.546c0-1.028.828-1.864 1.847-1.864h42.972c1.019 0 1.847.836 1.847 1.864v29.908zM46.486 0H3.514C1.577 0 0 1.591 0 3.546v29.908C0 35.41 1.577 37 3.514 37h42.972C48.423 37 50 35.41 50 33.454V3.546C50 1.591 48.423 0 46.486 0z"/>
        <path d="M19.167 27.829c-.52.32-2.635.763-6.667.763s-6.147-.444-6.667-.763v-.924c0-.701.38-1.347.96-1.665l3.215-1.597c.501-.247.825-.77.825-1.334v-1.516l-.504-.219c-1.264-.55-2.086-1.597-2.512-3.205l-.12-.448-.438-.138a.847.847 0 0 1-.592-.796v-.84a.84.84 0 0 1 .45-.737l.391-.21.046-.445a7.945 7.945 0 0 1 .518-2.16c.111-.272.206-.477.282-.644.283-.612.385-.928.314-1.575.98.564 2.158.805 3.435.706.13-.01.262-.016.398-.016 3.12 0 4.643 1.14 4.94 3.696l.052.439.388.207c.278.15.452.432.452.738v.84c0 .36-.244.687-.593.796l-.438.138-.12.448c-.426 1.608-1.248 2.656-2.512 3.205l-.503.22v1.522c0 .562.308 1.068.803 1.324l3.146 1.62c.648.326 1.05.983 1.05 1.714v.856zm-.302-4.072l-3.032-1.562v-.325c1.357-.746 2.311-1.977 2.844-3.667A2.504 2.504 0 0 0 20 15.987v-.84c0-.779-.36-1.5-.96-1.975-.52-3.176-2.717-4.786-6.54-4.786-.18 0-.357.006-.53.02-.72.06-1.774-.004-2.687-.622-.34-.232-.598-.457-.762-.666a.999.999 0 0 0-1.78.734c.035.314.087.68.166 1.08.161.82.161.82-.064 1.31-.085.186-.19.412-.314.717a9.448 9.448 0 0 0-.584 2.224A2.516 2.516 0 0 0 5 15.146v.84c0 .944.516 1.785 1.323 2.217.533 1.691 1.487 2.92 2.844 3.667v.316l-3.141 1.562a3.598 3.598 0 0 0-1.86 3.157v1.115c0 .674 0 2.253 8.334 2.253 8.333 0 8.333-1.58 8.333-2.253v-1.047c0-1.37-.754-2.602-1.968-3.216zM25 12.614h8.333c.461 0 .834-.376.834-.841a.836.836 0 0 0-.834-.841H25a.836.836 0 0 0-.833.84c0 .466.372.842.833.842M36.667 12.614h.833c.46 0 .833-.376.833-.841a.836.836 0 0 0-.833-.841h-.833a.836.836 0 0 0-.834.84c0 .466.373.842.834.842M25.833 25.227H25a.836.836 0 0 0-.833.841c0 .465.372.841.833.841h.833c.461 0 .834-.376.834-.84a.836.836 0 0 0-.834-.842M30.833 25.227h-1.666a.836.836 0 0 0-.834.841c0 .465.373.841.834.841h1.666c.461 0 .834-.376.834-.84a.836.836 0 0 0-.834-.842M35 25.227h-.833a.836.836 0 0 0-.834.841c0 .465.373.841.834.841H35c.46 0 .833-.376.833-.84a.836.836 0 0 0-.833-.842M40 25.227h-1.667a.836.836 0 0 0-.833.841c0 .465.373.841.833.841H40c.46 0 .833-.376.833-.84a.836.836 0 0 0-.833-.842M42.742 25.462a.89.89 0 0 0-.242.6c0 .22.09.44.242.602a.866.866 0 0 0 .591.245.87.87 0 0 0 .592-.245.899.899 0 0 0 .242-.601.894.894 0 0 0-.242-.6c-.317-.314-.875-.314-1.183 0M43.333 15.977H25a.836.836 0 0 0-.833.841c0 .465.372.841.833.841h18.333c.461 0 .834-.376.834-.84a.836.836 0 0 0-.834-.842M43.333 21.023H25a.836.836 0 0 0-.833.84c0 .466.372.842.833.842h18.333c.461 0 .834-.376.834-.841a.836.836 0 0 0-.834-.841"/>
    </g>
</svg>
