<svg width="130" height="130" viewBox="0 0 130 130" fill="none" xmlns="http://www.w3.org/2000/svg">
<g filter="url(#filter0_d)">
<circle cx="65" cy="59" r="50" fill="white"/>
</g>
<path d="M82 48.5V44C82 38.4772 77.5228 34 72 34H52C46.4772 34 42 38.4772 42 44V74C42 79.5228 46.4772 84 52 84H72C77.5228 84 82 79.5228 82 74V73.5" stroke="#6480EB" stroke-width="2" stroke-linecap="round" stroke-linejoin="round"/>
<rect x="50" y="42" width="24" height="2" rx="1" fill="#6480EB"/>
<rect x="50" y="50" width="18" height="2" rx="1" fill="#6480EB"/>
<rect x="50" y="58" width="12" height="2" rx="1" fill="#6480EB"/>
<rect x="50" y="66" width="12" height="2" rx="1" fill="#6480EB"/>
<rect x="50" y="74" width="22" height="2" rx="1" fill="#6480EB"/>
<rect x="73.7568" y="63.8284" width="10" height="2" rx="1" transform="rotate(-45 73.7568 63.8284)" fill="#00D7AF"/>
<rect x="80.8281" y="65.2424" width="10" height="2" rx="1" transform="rotate(-135 80.8281 65.2424)" fill="#00D7AF"/>
<circle cx="78" cy="61" r="9" stroke="#00D7AF" stroke-width="2"/>
<defs>
<filter id="filter0_d" x="0" y="0" width="130" height="130" filterUnits="userSpaceOnUse" color-interpolation-filters="sRGB">
<feFlood flood-opacity="0" result="BackgroundImageFix"/>
<feColorMatrix in="SourceAlpha" type="matrix" values="0 0 0 0 0 0 0 0 0 0 0 0 0 0 0 0 0 0 127 0"/>
<feOffset dy="6"/>
<feGaussianBlur stdDeviation="7.5"/>
<feColorMatrix type="matrix" values="0 0 0 0 0 0 0 0 0 0 0 0 0 0 0 0 0 0 0.05 0"/>
<feBlend mode="normal" in2="BackgroundImageFix" result="effect1_dropShadow"/>
<feBlend mode="normal" in="SourceGraphic" in2="effect1_dropShadow" result="shape"/>
</filter>
</defs>
</svg>
