<svg xmlns="http://www.w3.org/2000/svg" width="37" height="52" viewBox="0 0 37 52">
    <g fill="#99BBC1" fill-rule="evenodd" stroke="#99BBC1" stroke-width=".5">
        <path d="M35.5 1H23.66a.733.733 0 1 0 0 1.465h11.598v45.02l-3.55 2.014-3.68-2.088a1.229 1.229 0 0 0-1.207 0L23.143 49.5l-3.68-2.088a1.228 1.228 0 0 0-1.206 0L14.578 49.5 10.9 47.41a1.229 1.229 0 0 0-1.207 0L6.015 49.5l-3.55-2.014v-3.203a.733.733 0 1 0-1.465 0v3.344c0 .439.237.846.619 1.063l3.792 2.152c.373.212.835.212 1.207 0l3.678-2.087 3.679 2.087a1.224 1.224 0 0 0 1.207 0l3.679-2.087 3.679 2.088c.372.21.834.21 1.206 0l3.68-2.088 3.679 2.088c.372.21.834.21 1.206 0l3.794-2.153c.381-.217.619-.624.619-1.063V2.222c0-.674-.55-1.222-1.223-1.222M19.155 1H2.222C1.548 1 1 1.548 1 2.222v37.49a.733.733 0 1 0 1.465 0V2.464h16.69a.733.733 0 1 0 0-1.465"/>
        <path d="M11.32 21.929H8.905a.733.733 0 1 0 0 1.465h2.415a.733.733 0 1 0 0-1.465M28.818 21.929H14.846a.733.733 0 1 0 0 1.465h13.972a.733.733 0 1 0 0-1.465M11.32 26.057H8.905a.733.733 0 1 0 0 1.465h2.415a.733.733 0 1 0 0-1.465M28.818 26.057H14.846a.733.733 0 1 0 0 1.465h13.972a.733.733 0 1 0 0-1.465M11.32 30.185H8.905a.733.733 0 1 0 0 1.465h2.415a.733.733 0 1 0 0-1.465M28.818 30.185H14.846a.733.733 0 1 0 0 1.465h13.972a.733.733 0 1 0 0-1.465M11.32 34.313H8.905a.733.733 0 1 0 0 1.466h2.415a.733.733 0 1 0 0-1.466M28.818 34.313H14.846a.733.733 0 1 0 0 1.466h13.972a.733.733 0 1 0 0-1.466M11.32 38.441H8.905a.733.733 0 1 0 0 1.466h2.415a.733.733 0 1 0 0-1.466M28.818 38.441H14.846a.733.733 0 1 0 0 1.466h13.972a.733.733 0 1 0 0-1.466M27.847 10.986H17.94a.733.733 0 1 0 0 1.466h9.908a.733.733 0 1 0 0-1.466M25.317 14.222h-7.378a.733.733 0 1 0 0 1.465h7.378a.733.733 0 1 0 0-1.465M25.317 7.946h-7.378a.733.733 0 1 0 0 1.466h7.378a.733.733 0 1 0 0-1.466M13.242 14.57v-1.494c.159.181.239.419.239.77 0 .33-.075.567-.239.725zm-1.372-3.805c-.286-.166-.394-.358-.394-.691 0-.157 0-.441.394-.6v1.29zm1.383.538V9.457c.152.048.268.108.365.158.137.07.267.137.434.137.451 0 .728-.46.728-.79 0-.612-.808-.925-1.542-1.03a.703.703 0 0 0-.682-.539.7.7 0 0 0-.697.565C10.686 8.176 10 8.963 10 10.126c0 1.488.994 1.972 1.85 2.272v2.378c-.403-.099-.587-.31-.73-.477-.124-.144-.293-.34-.579-.34-.416 0-.727.412-.727.78 0 .358.276.757.74 1.067.273.182.703.393 1.299.47a.696.696 0 0 0 .704.613c.377 0 .696-.309.696-.675v-.012c1.095-.291 1.714-1.145 1.714-2.398 0-1.626-1.009-2.217-1.714-2.501z"/>
    </g>
</svg>
