<svg width="94" height="90" viewBox="0 0 94 90" fill="none" xmlns="http://www.w3.org/2000/svg">
<g filter="url(#filter0_d)">
<ellipse cx="47" cy="39.1476" rx="32" ry="29.1857" fill="white"/>
</g>
<path fill-rule="evenodd" clip-rule="evenodd" d="M43.4095 31.8032C43.3846 31.5926 43.2022 31.4246 42.9684 31.397L28.5771 29.6957C28.2978 29.6627 28.0412 29.8394 28.0044 30.0906C27.9677 30.3417 28.1644 30.5721 28.4439 30.6051L42.4368 32.2594L43.5365 41.5471L41.4939 42.4647C41.2944 42.5543 41.1827 42.75 41.2183 42.9479L42.3383 49.1869L39.8424 50.3081C39.6236 50.4064 39.5132 50.6304 39.5791 50.8419L41.2306 56.1415C41.2938 56.3441 41.4987 56.4767 41.7219 56.4767C41.7675 56.4767 41.8138 56.4712 41.8598 56.4595C42.1313 56.3912 42.2898 56.1381 42.2137 55.8942L40.6758 50.9591L43.1301 49.8565C43.3297 49.7669 43.4413 49.5711 43.4057 49.3733L42.2858 43.1344L44.3098 42.2251C44.5003 42.1395 44.6116 41.9567 44.5891 41.7664L43.4095 31.8032Z" fill="#6E7F95" stroke="#6E7F95"/>
<path fill-rule="evenodd" clip-rule="evenodd" d="M59.1243 36.3374C58.8496 37.0116 58.2991 37.5494 57.5742 37.8517C56.0775 38.4756 54.2953 37.8893 53.6009 36.5448L52.4013 34.2225C52.065 33.5712 52.031 32.8412 52.3058 32.1669C52.5805 31.4927 53.131 30.9549 53.8558 30.6527C54.2622 30.4832 54.6896 30.403 55.1107 30.403C56.24 30.403 57.3234 30.9801 57.8291 31.9594L59.0287 34.2817C59.3651 34.9331 59.399 35.6631 59.1243 36.3374ZM50.3372 27.498C50.1641 26.7793 50.313 26.0432 50.7563 25.4251C51.3413 24.6091 52.3289 24.1641 53.3365 24.1641C53.9047 24.1641 54.4792 24.3057 54.9911 24.6021C55.6791 25.0004 56.1532 25.6155 56.3262 26.3342C56.4992 27.0529 56.3503 27.789 55.9071 28.4071C54.992 29.6831 53.0921 30.0521 51.6722 29.2301C50.9843 28.8318 50.5101 28.2167 50.3372 27.498ZM64.774 36.5964C64.7618 36.3608 64.5528 36.172 64.2907 36.1597L60.2801 35.9715C60.4039 35.271 60.2944 34.5533 59.9547 33.8956L58.7552 31.5733C58.649 31.3678 58.523 31.1761 58.3816 30.9979L60.9493 26.5834C60.9968 26.5019 61.0157 26.4095 61.004 26.3181L60.4757 22.2245C60.4432 21.9728 60.1898 21.7924 59.9099 21.8217C59.6299 21.8509 59.4292 22.0785 59.4616 22.3301L59.9717 26.2836L57.6412 30.2906C57.1915 29.9642 56.6699 29.7299 56.1154 29.6011C56.3582 29.398 56.5776 29.1657 56.7654 28.9039C57.3564 28.0798 57.5548 27.0983 57.324 26.1402C57.0934 25.1821 56.4613 24.3619 55.5441 23.831C53.6508 22.7348 51.1181 23.2272 49.898 24.9282C49.3071 25.7522 49.1086 26.7337 49.3394 27.6919C49.57 28.65 50.2022 29.4701 51.1193 30.0011C51.5078 30.226 51.9233 30.3838 52.3488 30.4783C51.9064 30.8557 51.563 31.3219 51.3472 31.8515C51.1936 32.2286 51.113 32.6188 51.1027 33.0088L47.0848 35.2075C46.9212 35.297 46.8271 35.4614 46.8412 35.6331L47.269 40.8315C47.2888 41.0726 47.5128 41.2564 47.7776 41.2564C47.7902 41.2564 47.803 41.2559 47.8158 41.255C48.0969 41.2364 48.3081 41.0164 48.2873 40.7639L47.8826 35.8451L51.2356 34.0102C51.2957 34.2136 51.375 34.4138 51.4757 34.6086L52.6752 36.9309C53.1264 37.8045 53.9292 38.4678 54.9356 38.799C55.3856 38.947 55.852 39.0206 56.3173 39.0206C56.632 39.0206 56.9459 38.9856 57.2539 38.9185L59.9295 42.3272L57.4246 47.0651C57.3037 47.2938 57.4122 47.5675 57.6668 47.6762C57.7375 47.7063 57.812 47.7206 57.8854 47.7206C58.0764 47.7206 58.2595 47.6239 58.3469 47.4587L60.9797 42.4787C61.0588 42.3291 61.0419 42.1529 60.9358 42.0176L58.2359 38.5779C59.015 38.1974 59.6232 37.6044 59.9818 36.876L63.7759 37.0542L64.0582 42.5068C64.0709 42.7526 64.2967 42.9443 64.5677 42.9442C64.5757 42.9442 64.5836 42.944 64.5917 42.9437C64.8734 42.932 65.0911 42.7173 65.0779 42.4643L64.774 36.5964Z" fill="#6E7F95" stroke="#6E7F95"/>
<defs>
<filter id="filter0_d" x="0" y="0.961914" width="94" height="88.3715" filterUnits="userSpaceOnUse" color-interpolation-filters="sRGB">
<feFlood flood-opacity="0" result="BackgroundImageFix"/>
<feColorMatrix in="SourceAlpha" type="matrix" values="0 0 0 0 0 0 0 0 0 0 0 0 0 0 0 0 0 0 127 0"/>
<feOffset dy="6"/>
<feGaussianBlur stdDeviation="7.5"/>
<feColorMatrix type="matrix" values="0 0 0 0 0 0 0 0 0 0 0 0 0 0 0 0 0 0 0.05 0"/>
<feBlend mode="normal" in2="BackgroundImageFix" result="effect1_dropShadow"/>
<feBlend mode="normal" in="SourceGraphic" in2="effect1_dropShadow" result="shape"/>
</filter>
</defs>
</svg>
