<svg width="150" height="150" viewBox="0 0 150 150" fill="none" xmlns="http://www.w3.org/2000/svg">
<g filter="url(#filter0_d)">
<rect x="15" y="9" width="120" height="120" rx="20" fill="white"/>
</g>
<path d="M24.3829 91.4648H24.9806C25.5392 91.4648 25.9571 91.3555 26.2345 91.1367C26.5118 90.9141 26.6505 90.5918 26.6505 90.1699C26.6505 89.7441 26.5333 89.4297 26.2989 89.2266C26.0685 89.0234 25.7052 88.9219 25.2091 88.9219H24.3829V91.4648ZM28.4845 90.1055C28.4845 91.0273 28.1954 91.7324 27.6173 92.2207C27.0431 92.709 26.2247 92.9531 25.1622 92.9531H24.3829V96H22.5665V87.4336H25.3028C26.3419 87.4336 27.131 87.6582 27.67 88.1074C28.213 88.5527 28.4845 89.2188 28.4845 90.1055ZM32.6468 90.5977C32.2679 90.5977 31.971 90.7188 31.7562 90.9609C31.5413 91.1992 31.4183 91.5391 31.387 91.9805H33.8949C33.887 91.5391 33.7718 91.1992 33.5492 90.9609C33.3265 90.7188 33.0257 90.5977 32.6468 90.5977ZM32.8988 96.1172C31.8441 96.1172 31.0199 95.8262 30.4261 95.2441C29.8324 94.6621 29.5355 93.8379 29.5355 92.7715C29.5355 91.6738 29.8089 90.8262 30.3558 90.2285C30.9066 89.627 31.6663 89.3262 32.6351 89.3262C33.5609 89.3262 34.2816 89.5898 34.7972 90.1172C35.3128 90.6445 35.5706 91.373 35.5706 92.3027V93.1699H31.346C31.3656 93.6777 31.5159 94.0742 31.7972 94.3594C32.0784 94.6445 32.473 94.7871 32.9808 94.7871C33.3753 94.7871 33.7484 94.7461 34.0999 94.6641C34.4515 94.582 34.8187 94.4512 35.2015 94.2715V95.6543C34.889 95.8105 34.555 95.9258 34.1995 96C33.8441 96.0781 33.4105 96.1172 32.8988 96.1172ZM40.6529 89.3262C40.8951 89.3262 41.0962 89.3438 41.2564 89.3789L41.1216 91.0547C40.9771 91.0156 40.8013 90.9961 40.5943 90.9961C40.024 90.9961 39.5787 91.1426 39.2584 91.4355C38.9419 91.7285 38.7837 92.1387 38.7837 92.666V96H36.9966V89.4492H38.3502L38.6138 90.5508H38.7017C38.9048 90.1836 39.1783 89.8887 39.522 89.666C39.8697 89.4395 40.2466 89.3262 40.6529 89.3262ZM46.989 94.0547C46.989 94.7266 46.7547 95.2383 46.2859 95.5898C45.8211 95.9414 45.1238 96.1172 44.1941 96.1172C43.7176 96.1172 43.3113 96.084 42.9754 96.0176C42.6394 95.9551 42.325 95.8613 42.032 95.7363V94.2598C42.364 94.416 42.7371 94.5469 43.1511 94.6523C43.5691 94.7578 43.9363 94.8105 44.2527 94.8105C44.9011 94.8105 45.2254 94.623 45.2254 94.248C45.2254 94.1074 45.1824 93.9941 45.0965 93.9082C45.0105 93.8184 44.8621 93.7188 44.6511 93.6094C44.4402 93.4961 44.159 93.3652 43.8074 93.2168C43.3035 93.0059 42.9324 92.8105 42.6941 92.6309C42.4597 92.4512 42.2879 92.2461 42.1785 92.0156C42.073 91.7812 42.0203 91.4941 42.0203 91.1543C42.0203 90.5723 42.2449 90.123 42.6941 89.8066C43.1472 89.4863 43.7879 89.3262 44.616 89.3262C45.4051 89.3262 46.1726 89.498 46.9187 89.8418L46.3797 91.1309C46.0515 90.9902 45.7449 90.875 45.4597 90.7852C45.1746 90.6953 44.8836 90.6504 44.5867 90.6504C44.0594 90.6504 43.7957 90.793 43.7957 91.0781C43.7957 91.2383 43.8797 91.377 44.0476 91.4941C44.2195 91.6113 44.5926 91.7852 45.1668 92.0156C45.6785 92.2227 46.0535 92.416 46.2918 92.5957C46.5301 92.7754 46.7058 92.9824 46.8191 93.2168C46.9324 93.4512 46.989 93.7305 46.989 94.0547ZM49.7803 92.7129C49.7803 93.3613 49.8857 93.8516 50.0967 94.1836C50.3115 94.5156 50.6592 94.6816 51.1396 94.6816C51.6162 94.6816 51.958 94.5176 52.165 94.1895C52.376 93.8574 52.4814 93.3652 52.4814 92.7129C52.4814 92.0645 52.376 91.5781 52.165 91.2539C51.9541 90.9297 51.6084 90.7676 51.1279 90.7676C50.6514 90.7676 50.3076 90.9297 50.0967 91.2539C49.8857 91.5742 49.7803 92.0605 49.7803 92.7129ZM54.3096 92.7129C54.3096 93.7793 54.0283 94.6133 53.4658 95.2148C52.9033 95.8164 52.1201 96.1172 51.1162 96.1172C50.4873 96.1172 49.9326 95.9805 49.4521 95.707C48.9717 95.4297 48.6025 95.0332 48.3447 94.5176C48.0869 94.002 47.958 93.4004 47.958 92.7129C47.958 91.6426 48.2373 90.8105 48.7959 90.2168C49.3545 89.623 50.1396 89.3262 51.1514 89.3262C51.7803 89.3262 52.335 89.4629 52.8154 89.7363C53.2959 90.0098 53.665 90.4023 53.9228 90.9141C54.1807 91.4258 54.3096 92.0254 54.3096 92.7129ZM61.8059 96H60.0188V92.1738C60.0188 91.7012 59.9348 91.3477 59.7668 91.1133C59.5988 90.875 59.3313 90.7559 58.9641 90.7559C58.4641 90.7559 58.1028 90.9238 57.8801 91.2598C57.6574 91.5918 57.5461 92.1445 57.5461 92.918V96H55.759V89.4492H57.1242L57.3645 90.2871H57.4641C57.6633 89.9707 57.9367 89.7324 58.2844 89.5723C58.636 89.4082 59.0344 89.3262 59.4797 89.3262C60.2414 89.3262 60.8195 89.5332 61.2141 89.9473C61.6086 90.3574 61.8059 90.9512 61.8059 91.7285V96ZM67.7788 96L67.433 95.1094H67.3862C67.0854 95.4883 66.7748 95.752 66.4545 95.9004C66.1381 96.0449 65.7241 96.1172 65.2123 96.1172C64.5834 96.1172 64.0873 95.9375 63.7241 95.5781C63.3647 95.2188 63.185 94.707 63.185 94.043C63.185 93.3477 63.4272 92.8359 63.9116 92.5078C64.3998 92.1758 65.1342 91.9922 66.1147 91.957L67.2514 91.9219V91.6348C67.2514 90.9707 66.9116 90.6387 66.2319 90.6387C65.7084 90.6387 65.0932 90.7969 64.3862 91.1133L63.7944 89.9062C64.5483 89.5117 65.3842 89.3145 66.3022 89.3145C67.1811 89.3145 67.8549 89.5059 68.3237 89.8887C68.7924 90.2715 69.0268 90.8535 69.0268 91.6348V96H67.7788ZM67.2514 92.9648L66.56 92.9883C66.0405 93.0039 65.6538 93.0977 65.3998 93.2695C65.1459 93.4414 65.019 93.7031 65.019 94.0547C65.019 94.5586 65.308 94.8105 65.8862 94.8105C66.3002 94.8105 66.6303 94.6914 66.8764 94.4531C67.1264 94.2148 67.2514 93.8984 67.2514 93.5039V92.9648ZM72.6325 96H70.8454V86.8828H72.6325V96ZM82.961 96L82.34 93.9609H79.2169L78.5958 96H76.6388L79.6622 87.3984H81.8829L84.9181 96H82.961ZM81.9064 92.4375C81.3321 90.5898 81.0079 89.5449 80.9337 89.3027C80.8634 89.0605 80.8126 88.8691 80.7814 88.7285C80.6525 89.2285 80.2833 90.4648 79.6739 92.4375H81.9064ZM88.4945 96.1172C86.4554 96.1172 85.4359 94.998 85.4359 92.7598C85.4359 91.6465 85.7132 90.7969 86.2679 90.2109C86.8226 89.6211 87.6175 89.3262 88.6527 89.3262C89.4105 89.3262 90.0902 89.4746 90.6917 89.7715L90.1644 91.1543C89.8831 91.041 89.6214 90.9492 89.3792 90.8789C89.137 90.8047 88.8949 90.7676 88.6527 90.7676C87.723 90.7676 87.2581 91.4277 87.2581 92.748C87.2581 94.0293 87.723 94.6699 88.6527 94.6699C88.9964 94.6699 89.3148 94.625 89.6077 94.5352C89.9007 94.4414 90.1937 94.2969 90.4867 94.1016V95.6309C90.1976 95.8145 89.9046 95.9414 89.6077 96.0117C89.3148 96.082 88.9437 96.1172 88.4945 96.1172ZM94.6431 96.1172C92.6041 96.1172 91.5845 94.998 91.5845 92.7598C91.5845 91.6465 91.8619 90.7969 92.4166 90.2109C92.9712 89.6211 93.7662 89.3262 94.8013 89.3262C95.5591 89.3262 96.2388 89.4746 96.8404 89.7715L96.313 91.1543C96.0318 91.041 95.7701 90.9492 95.5279 90.8789C95.2857 90.8047 95.0435 90.7676 94.8013 90.7676C93.8716 90.7676 93.4068 91.4277 93.4068 92.748C93.4068 94.0293 93.8716 94.6699 94.8013 94.6699C95.1451 94.6699 95.4634 94.625 95.7564 94.5352C96.0494 94.4414 96.3423 94.2969 96.6353 94.1016V95.6309C96.3462 95.8145 96.0533 95.9414 95.7564 96.0117C95.4634 96.082 95.0923 96.1172 94.6431 96.1172ZM98.0554 87.7559C98.0554 87.1738 98.3797 86.8828 99.0281 86.8828C99.6765 86.8828 100.001 87.1738 100.001 87.7559C100.001 88.0332 99.9187 88.25 99.7547 88.4062C99.5945 88.5586 99.3523 88.6348 99.0281 88.6348C98.3797 88.6348 98.0554 88.3418 98.0554 87.7559ZM99.9187 96H98.1316V89.4492H99.9187V96ZM103.847 96.1172C103.077 96.1172 102.472 95.8184 102.03 95.2207C101.593 94.623 101.374 93.7949 101.374 92.7363C101.374 91.6621 101.597 90.8262 102.042 90.2285C102.491 89.627 103.108 89.3262 103.894 89.3262C104.718 89.3262 105.347 89.6465 105.78 90.2871H105.839C105.749 89.7988 105.704 89.3633 105.704 88.9805V86.8828H107.497V96H106.126L105.78 95.1504H105.704C105.298 95.7949 104.679 96.1172 103.847 96.1172ZM104.474 94.6934C104.931 94.6934 105.265 94.5605 105.476 94.2949C105.69 94.0293 105.808 93.5781 105.827 92.9414V92.748C105.827 92.0449 105.718 91.541 105.499 91.2363C105.284 90.9316 104.933 90.7793 104.444 90.7793C104.046 90.7793 103.735 90.9492 103.513 91.2891C103.294 91.625 103.185 92.1152 103.185 92.7598C103.185 93.4043 103.296 93.8887 103.519 94.2129C103.741 94.5332 104.06 94.6934 104.474 94.6934ZM112.052 90.5977C111.673 90.5977 111.376 90.7188 111.161 90.9609C110.947 91.1992 110.823 91.5391 110.792 91.9805H113.3C113.292 91.5391 113.177 91.1992 112.954 90.9609C112.732 90.7188 112.431 90.5977 112.052 90.5977ZM112.304 96.1172C111.249 96.1172 110.425 95.8262 109.831 95.2441C109.238 94.6621 108.941 93.8379 108.941 92.7715C108.941 91.6738 109.214 90.8262 109.761 90.2285C110.312 89.627 111.072 89.3262 112.04 89.3262C112.966 89.3262 113.687 89.5898 114.202 90.1172C114.718 90.6445 114.976 91.373 114.976 92.3027V93.1699H110.751C110.771 93.6777 110.921 94.0742 111.202 94.3594C111.484 94.6445 111.878 94.7871 112.386 94.7871C112.78 94.7871 113.154 94.7461 113.505 94.6641C113.857 94.582 114.224 94.4512 114.607 94.2715V95.6543C114.294 95.8105 113.96 95.9258 113.605 96C113.249 96.0781 112.816 96.1172 112.304 96.1172ZM122.449 96H120.662V92.1738C120.662 91.7012 120.578 91.3477 120.41 91.1133C120.242 90.875 119.974 90.7559 119.607 90.7559C119.107 90.7559 118.746 90.9238 118.523 91.2598C118.3 91.5918 118.189 92.1445 118.189 92.918V96H116.402V89.4492H117.767L118.007 90.2871H118.107C118.306 89.9707 118.58 89.7324 118.927 89.5723C119.279 89.4082 119.677 89.3262 120.123 89.3262C120.884 89.3262 121.462 89.5332 121.857 89.9473C122.251 90.3574 122.449 90.9512 122.449 91.7285V96ZM127.021 94.6934C127.334 94.6934 127.709 94.625 128.146 94.4883V95.8184C127.701 96.0176 127.154 96.1172 126.506 96.1172C125.791 96.1172 125.269 95.9375 124.941 95.5781C124.617 95.2148 124.455 94.6719 124.455 93.9492V90.791H123.599V90.0352L124.584 89.4375L125.099 88.0547H126.242V89.4492H128.076V90.791H126.242V93.9492C126.242 94.2031 126.312 94.3906 126.453 94.5117C126.597 94.6328 126.787 94.6934 127.021 94.6934Z" fill="#2C3652"/>
<path fill-rule="evenodd" clip-rule="evenodd" d="M72.1635 44.571C72.1373 44.3287 71.9461 44.1355 71.7008 44.1038L56.6053 42.1471C56.3123 42.1092 56.0432 42.3124 56.0046 42.6013C55.9661 42.8901 56.1724 43.1551 56.4657 43.193L71.1432 45.0955L72.2967 55.7771L70.1542 56.8324C69.9449 56.9355 69.8278 57.1606 69.8651 57.3882L71.0398 64.5634L68.4219 65.8529C68.1923 65.966 68.0765 66.2235 68.1457 66.4668L69.878 72.5618C69.9442 72.7948 70.1592 72.9472 70.3933 72.9472C70.4411 72.9472 70.4897 72.9409 70.5379 72.9275C70.8227 72.849 70.989 72.5579 70.9092 72.2773L69.296 66.6017L71.8704 65.3336C72.0798 65.2305 72.1968 65.0053 72.1595 64.7778L70.9848 57.6026L73.1078 56.5569C73.3076 56.4584 73.4244 56.2482 73.4008 56.0293L72.1635 44.571Z" fill="url(#paint0_linear)"/>
<path fill-rule="evenodd" clip-rule="evenodd" d="M88.6471 49.7856C88.3589 50.5609 87.7815 51.1795 87.0211 51.5271C85.4512 52.2446 83.5818 51.5704 82.8534 50.0242L81.5952 47.3533C81.2424 46.6043 81.2067 45.7647 81.4949 44.9892C81.7831 44.2139 82.3605 43.5953 83.1208 43.2477C83.5471 43.0528 83.9954 42.9606 84.4371 42.9606C85.6216 42.9606 86.758 43.6242 87.2885 44.7506L88.5467 47.4214C88.8996 48.1705 88.9352 49.0101 88.6471 49.7856ZM79.43 39.6196C79.2485 38.793 79.4046 37.9464 79.8696 37.2356C80.4833 36.2972 81.5192 35.7854 82.5761 35.7854C83.172 35.7854 83.7747 35.9482 84.3116 36.2891C85.0332 36.7471 85.5306 37.4546 85.712 38.2811C85.8935 39.1077 85.7374 39.9543 85.2724 40.6651C84.3126 42.1326 82.3197 42.5571 80.8304 41.6117C80.1088 41.1536 79.6114 40.4461 79.43 39.6196ZM94.5732 50.0835C94.5604 49.8125 94.3411 49.5954 94.0663 49.5812L89.8595 49.3647C89.9893 48.5591 89.8745 47.7338 89.5181 46.9774L88.2599 44.3065C88.1486 44.0701 88.0164 43.8497 87.8681 43.6447L90.5614 38.5677C90.6112 38.474 90.6311 38.3677 90.6187 38.2627L90.0646 33.5547C90.0306 33.2652 89.7647 33.0577 89.4711 33.0915C89.1774 33.1251 88.9669 33.3868 89.0009 33.6762L89.536 38.2229L87.0914 42.8313C86.6197 42.456 86.0725 42.1865 85.491 42.0384C85.7457 41.8048 85.9758 41.5376 86.1728 41.2365C86.7926 40.2888 87.0007 39.16 86.7587 38.058C86.5168 36.9561 85.8537 36.0129 84.8917 35.4023C82.9057 34.1416 80.2491 34.7078 78.9693 36.6641C78.3495 37.6118 78.1414 38.7406 78.3834 39.8426C78.6253 40.9445 79.2884 41.8877 80.2504 42.4983C80.6579 42.7571 81.0937 42.9385 81.54 43.0472C81.076 43.4812 80.7158 44.0174 80.4895 44.6265C80.3283 45.0602 80.2438 45.5089 80.233 45.9574L76.0185 48.4861C75.8469 48.5891 75.7482 48.7781 75.763 48.9755L76.2117 54.9541C76.2325 55.2314 76.4674 55.4428 76.7452 55.4428C76.7584 55.4428 76.7718 55.4423 76.7853 55.4412C77.0801 55.4198 77.3016 55.1668 77.2798 54.8764L76.8553 49.2194L80.3724 47.1092C80.4355 47.343 80.5186 47.5732 80.6242 47.7973L81.8824 50.4682C82.3557 51.4729 83.1977 52.2358 84.2535 52.6166C84.7255 52.7868 85.2147 52.8714 85.7027 52.8714C86.0328 52.8714 86.3621 52.8313 86.6852 52.754L89.4917 56.6743L86.8642 62.1232C86.7374 62.3863 86.8512 62.701 87.1183 62.826C87.1924 62.8607 87.2706 62.8772 87.3475 62.8772C87.5479 62.8772 87.7399 62.766 87.8317 62.5759L90.5933 56.8485C90.6762 56.6765 90.6585 56.4738 90.5472 56.3182L87.7152 52.3623C88.5325 51.9247 89.1704 51.2428 89.5465 50.4051L93.5263 50.6099L93.8224 56.8809C93.8357 57.1636 94.0725 57.384 94.3568 57.3839C94.3652 57.3839 94.3735 57.3837 94.382 57.3834C94.6775 57.3698 94.9058 57.123 94.892 56.832L94.5732 50.0835Z" fill="url(#paint1_linear)"/>
<path d="M72.1635 44.571L71.6664 44.6246L71.6664 44.6247L72.1635 44.571ZM71.7008 44.1038L71.6366 44.5997L71.6367 44.5997L71.7008 44.1038ZM56.6053 42.1471L56.541 42.643L56.541 42.643L56.6053 42.1471ZM56.0046 42.6013L56.5002 42.6675L56.5002 42.6674L56.0046 42.6013ZM56.4657 43.193L56.5299 42.6972L56.5299 42.6972L56.4657 43.193ZM71.1432 45.0955L71.6403 45.0419L71.598 44.6503L71.2075 44.5997L71.1432 45.0955ZM72.2967 55.7771L72.5176 56.2257L72.8314 56.0711L72.7938 55.7234L72.2967 55.7771ZM70.1542 56.8324L70.375 57.281L70.3751 57.281L70.1542 56.8324ZM69.8651 57.3882L70.3585 57.3074L70.3585 57.3073L69.8651 57.3882ZM71.0398 64.5634L71.2608 65.012L71.5931 64.8482L71.5333 64.4826L71.0398 64.5634ZM68.4219 65.8529L68.2009 65.4044L68.2009 65.4044L68.4219 65.8529ZM68.1457 66.4668L68.6266 66.3301L68.6266 66.3301L68.1457 66.4668ZM69.878 72.5618L69.3971 72.6985L69.3971 72.6985L69.878 72.5618ZM70.5379 72.9275L70.4049 72.4456L70.4046 72.4457L70.5379 72.9275ZM70.9092 72.2773L70.4282 72.414L70.4283 72.4141L70.9092 72.2773ZM69.296 66.6017L69.0751 66.1531L68.701 66.3373L68.815 66.7384L69.296 66.6017ZM71.8704 65.3336L72.0913 65.7822L72.0913 65.7822L71.8704 65.3336ZM72.1595 64.7778L71.6661 64.8586L71.6661 64.8587L72.1595 64.7778ZM70.9848 57.6026L70.7638 57.1541L70.4315 57.3178L70.4913 57.6834L70.9848 57.6026ZM73.1078 56.5569L73.3287 57.0054L73.3288 57.0054L73.1078 56.5569ZM73.4008 56.0293L72.9037 56.083L72.9037 56.0831L73.4008 56.0293ZM88.6471 49.7856L89.1157 49.9597L89.1157 49.9597L88.6471 49.7856ZM87.0211 51.5271L87.2289 51.9818L87.229 51.9818L87.0211 51.5271ZM82.8534 50.0242L83.3058 49.8111L83.3058 49.8111L82.8534 50.0242ZM81.5952 47.3533L81.1428 47.5663L81.1428 47.5664L81.5952 47.3533ZM81.4949 44.9892L81.9636 45.1635L81.9636 45.1634L81.4949 44.9892ZM83.1208 43.2477L83.3287 43.7024L83.3287 43.7024L83.1208 43.2477ZM87.2885 44.7506L86.8362 44.9636L86.8362 44.9637L87.2885 44.7506ZM88.5467 47.4214L88.9991 47.2084L88.9991 47.2083L88.5467 47.4214ZM79.43 39.6196L79.9184 39.5124L79.9184 39.5123L79.43 39.6196ZM79.8696 37.2356L80.288 37.5093L80.288 37.5093L79.8696 37.2356ZM84.3116 36.2891L84.0436 36.7112L84.0437 36.7113L84.3116 36.2891ZM85.712 38.2811L85.2236 38.3883L85.2236 38.3884L85.712 38.2811ZM85.2724 40.6651L84.854 40.3914L84.854 40.3914L85.2724 40.6651ZM80.8304 41.6117L80.5624 42.0338L80.5624 42.0338L80.8304 41.6117ZM94.5732 50.0835L94.0737 50.107L94.0737 50.1071L94.5732 50.0835ZM94.0663 49.5812L94.092 49.0819L94.092 49.0819L94.0663 49.5812ZM89.8595 49.3647L89.3658 49.2852L89.2772 49.8354L89.8338 49.8641L89.8595 49.3647ZM89.5181 46.9774L89.0658 47.1905L89.0658 47.1905L89.5181 46.9774ZM88.2599 44.3065L88.7122 44.0934L88.7122 44.0934L88.2599 44.3065ZM87.8681 43.6447L87.4264 43.4104L87.2804 43.6855L87.463 43.9378L87.8681 43.6447ZM90.5614 38.5677L90.1198 38.3331L90.1197 38.3334L90.5614 38.5677ZM90.6187 38.2627L91.1153 38.2044L91.1153 38.2042L90.6187 38.2627ZM90.0646 33.5547L90.5612 33.4963L90.5612 33.4962L90.0646 33.5547ZM89.4711 33.0915L89.5279 33.5883L89.5282 33.5882L89.4711 33.0915ZM89.0009 33.6762L88.5043 33.7345L88.5043 33.7346L89.0009 33.6762ZM89.536 38.2229L89.9777 38.4572L90.0508 38.3194L90.0326 38.1645L89.536 38.2229ZM87.0914 42.8313L86.7801 43.2225L87.2511 43.5972L87.5331 43.0656L87.0914 42.8313ZM85.491 42.0384L85.153 41.6699L84.4717 42.2947L85.3675 42.5229L85.491 42.0384ZM86.1728 41.2365L86.5912 41.5102L86.5912 41.5102L86.1728 41.2365ZM86.7587 38.058L86.2703 38.1652L86.2704 38.1653L86.7587 38.058ZM84.8917 35.4023L84.6237 35.8244L84.6238 35.8244L84.8917 35.4023ZM78.9693 36.6641L78.5509 36.3904L78.5509 36.3905L78.9693 36.6641ZM78.3834 39.8426L78.8717 39.7354L78.8717 39.7354L78.3834 39.8426ZM80.2504 42.4983L80.5184 42.0762L80.5183 42.0762L80.2504 42.4983ZM81.54 43.0472L81.8816 43.4123L82.5573 42.7802L81.6583 42.5614L81.54 43.0472ZM80.4895 44.6265L80.9581 44.8007L80.9582 44.8007L80.4895 44.6265ZM80.233 45.9574L80.4902 46.3862L80.7262 46.2446L80.7328 45.9695L80.233 45.9574ZM76.0185 48.4861L76.2757 48.9149L76.2757 48.9149L76.0185 48.4861ZM75.763 48.9755L75.2644 49.0129L75.2644 49.013L75.763 48.9755ZM76.2117 54.9541L76.7103 54.9167L76.7103 54.9167L76.2117 54.9541ZM76.7853 55.4412L76.749 54.9425L76.7462 54.9427L76.7853 55.4412ZM77.2798 54.8764L77.7784 54.839L77.7784 54.839L77.2798 54.8764ZM76.8553 49.2194L76.5981 48.7907L76.3336 48.9493L76.3567 49.2568L76.8553 49.2194ZM80.3724 47.1092L80.8551 46.9789L80.6827 46.3399L80.1151 46.6804L80.3724 47.1092ZM80.6242 47.7973L81.0765 47.5843L81.0765 47.5842L80.6242 47.7973ZM81.8824 50.4682L82.3347 50.2551L82.3347 50.2551L81.8824 50.4682ZM84.2535 52.6166L84.0838 53.0869L84.0839 53.0869L84.2535 52.6166ZM86.6852 52.754L87.0917 52.4629L86.896 52.1895L86.5689 52.2677L86.6852 52.754ZM89.4917 56.6743L89.9421 56.8914L90.0709 56.6243L89.8983 56.3832L89.4917 56.6743ZM86.8642 62.1232L86.4138 61.9061L86.4138 61.9061L86.8642 62.1232ZM87.1183 62.826L87.3303 62.3732L87.3302 62.3731L87.1183 62.826ZM87.8317 62.5759L88.2819 62.7932L88.282 62.793L87.8317 62.5759ZM90.5933 56.8485L91.0437 57.0657L91.0437 57.0656L90.5933 56.8485ZM90.5472 56.3182L90.9538 56.0272L90.9537 56.0272L90.5472 56.3182ZM87.7152 52.3623L87.4792 51.9216L86.9772 52.1904L87.3086 52.6534L87.7152 52.3623ZM89.5465 50.4051L89.5722 49.9057L89.2305 49.8881L89.0904 50.2003L89.5465 50.4051ZM93.5263 50.6099L94.0257 50.5863L94.0044 50.1339L93.552 50.1106L93.5263 50.6099ZM93.8224 56.8809L94.3218 56.8574L94.3218 56.8573L93.8224 56.8809ZM94.3568 57.3839L94.3568 56.8839L94.3566 56.8839L94.3568 57.3839ZM94.382 57.3834L94.4027 57.8829L94.4049 57.8828L94.382 57.3834ZM94.892 56.832L95.3915 56.8084L95.3915 56.8084L94.892 56.832ZM72.6606 44.5173C72.6091 44.0405 72.2346 43.6687 71.765 43.6079L71.6367 44.5997C71.6576 44.6024 71.6655 44.6169 71.6664 44.6246L72.6606 44.5173ZM71.7651 43.608L56.6696 41.6513L56.541 42.643L71.6366 44.5997L71.7651 43.608ZM56.6696 41.6513C56.1104 41.5788 55.5849 41.9664 55.509 42.5352L56.5002 42.6674C56.5009 42.6622 56.5033 42.6564 56.511 42.6505C56.5189 42.6446 56.529 42.6414 56.541 42.643L56.6696 41.6513ZM55.509 42.5351C55.4329 43.1051 55.8403 43.6162 56.4014 43.6889L56.5299 42.6972C56.5178 42.6956 56.5101 42.6903 56.5052 42.684C56.5026 42.6807 56.5013 42.6777 56.5006 42.6754C56.5001 42.6734 56.4997 42.6711 56.5002 42.6675L55.509 42.5351ZM56.4014 43.6889L71.0789 45.5914L71.2075 44.5997L56.5299 42.6972L56.4014 43.6889ZM70.6461 45.1492L71.7996 55.8308L72.7938 55.7234L71.6403 45.0419L70.6461 45.1492ZM72.0758 55.3286L69.9333 56.3839L70.3751 57.281L72.5176 56.2257L72.0758 55.3286ZM69.9334 56.3838C69.5296 56.5825 69.2982 57.0208 69.3717 57.4691L70.3585 57.3073C70.3574 57.3004 70.3601 57.2884 70.375 57.281L69.9334 56.3838ZM69.3716 57.469L70.5464 64.6442L71.5333 64.4826L70.3585 57.3074L69.3716 57.469ZM70.8189 64.1149L68.2009 65.4044L68.6428 66.3014L71.2608 65.012L70.8189 64.1149ZM68.2009 65.4044C67.7584 65.6223 67.5284 66.1241 67.6647 66.6035L68.6266 66.3301C68.6246 66.323 68.6263 66.3096 68.6428 66.3014L68.2009 65.4044ZM67.6647 66.6035L69.3971 72.6985L70.359 72.4251L68.6266 66.3301L67.6647 66.6035ZM69.3971 72.6985C69.5271 73.1561 69.9459 73.4472 70.3933 73.4472V72.4472C70.3848 72.4472 70.3761 72.4443 70.3692 72.4393C70.3632 72.4349 70.3604 72.4303 70.359 72.4251L69.3971 72.6985ZM70.3933 73.4472C70.4854 73.4472 70.5789 73.435 70.6713 73.4094L70.4046 72.4457C70.4005 72.4468 70.3968 72.4472 70.3933 72.4472V73.4472ZM70.671 73.4095C71.2173 73.2587 71.5476 72.6942 71.3901 72.1406L70.4283 72.4141C70.4293 72.4178 70.4293 72.4201 70.429 72.4219C70.4288 72.4241 70.4279 72.427 70.4261 72.4302C70.4225 72.4365 70.4163 72.4424 70.4049 72.4456L70.671 73.4095ZM71.3901 72.1406L69.7769 66.465L68.815 66.7384L70.4282 72.414L71.3901 72.1406ZM69.5169 67.0502L72.0913 65.7822L71.6495 64.8851L69.0751 66.1531L69.5169 67.0502ZM72.0913 65.7822C72.4949 65.5834 72.7265 65.1452 72.653 64.6969L71.6661 64.8587C71.6672 64.8655 71.6646 64.8776 71.6495 64.8851L72.0913 65.7822ZM72.653 64.697L71.4782 57.5218L70.4913 57.6834L71.6661 64.8586L72.653 64.697ZM71.2057 58.0512L73.3287 57.0054L72.8869 56.1084L70.7638 57.1541L71.2057 58.0512ZM73.3288 57.0054C73.7138 56.8157 73.9445 56.4067 73.8979 55.9756L72.9037 56.0831C72.9044 56.0896 72.9014 56.1012 72.8868 56.1084L73.3288 57.0054ZM73.8979 55.9757L72.6606 44.5173L71.6664 44.6247L72.9037 56.083L73.8979 55.9757ZM88.1784 49.6114C87.937 50.2609 87.4543 50.7793 86.8132 51.0724L87.229 51.9818C88.1087 51.5797 88.7808 50.861 89.1157 49.9597L88.1784 49.6114ZM86.8132 51.0723C85.4883 51.6779 83.9155 51.1055 83.3058 49.8111L82.4011 50.2372C83.2481 52.0354 85.414 52.8114 87.2289 51.9818L86.8132 51.0723ZM83.3058 49.8111L82.0475 47.1402L81.1428 47.5664L82.4011 50.2372L83.3058 49.8111ZM82.0475 47.1402C81.7519 46.5127 81.7223 45.8127 81.9636 45.1635L81.0263 44.815C80.6911 45.7167 80.7328 46.6959 81.1428 47.5663L82.0475 47.1402ZM81.9636 45.1634C82.205 44.5139 82.6877 43.9955 83.3287 43.7024L82.9129 42.793C82.0333 43.1951 81.3612 43.9138 81.0263 44.8151L81.9636 45.1634ZM83.3287 43.7024C83.6881 43.5381 84.0653 43.4606 84.4371 43.4606V42.4606C83.9255 42.4606 83.4061 42.5675 82.9129 42.793L83.3287 43.7024ZM84.4371 43.4606C85.4389 43.4606 86.3927 44.0221 86.8362 44.9636L87.7409 44.5375C87.1233 43.2263 85.8043 42.4606 84.4371 42.4606V43.4606ZM86.8362 44.9637L88.0944 47.6345L88.9991 47.2083L87.7409 44.5375L86.8362 44.9637ZM88.0944 47.6345C88.39 48.2621 88.4196 48.9621 88.1784 49.6114L89.1157 49.9597C89.4508 49.0581 89.4092 48.079 88.9991 47.2084L88.0944 47.6345ZM79.9184 39.5123C79.7658 38.8176 79.8963 38.1082 80.288 37.5093L79.4511 36.9619C78.913 37.7847 78.7312 38.7685 78.9416 39.7268L79.9184 39.5123ZM80.288 37.5093C80.8041 36.7202 81.678 36.2854 82.5761 36.2854V35.2854C81.3604 35.2854 80.1625 35.8742 79.4511 36.9619L80.288 37.5093ZM82.5761 36.2854C83.0807 36.2854 83.5898 36.4231 84.0436 36.7112L84.5796 35.867C83.9596 35.4733 83.2634 35.2854 82.5761 35.2854V36.2854ZM84.0437 36.7113C84.6541 37.0987 85.0711 37.6934 85.2236 38.3883L86.2004 38.1739C85.9901 37.2157 85.4124 36.3956 84.5796 35.867L84.0437 36.7113ZM85.2236 38.3884C85.3762 39.0831 85.2457 39.7925 84.854 40.3914L85.6909 40.9388C86.229 40.116 86.4108 39.1322 86.2004 38.1739L85.2236 38.3884ZM84.854 40.3914C84.0454 41.6277 82.3592 41.9899 81.0983 41.1895L80.5624 42.0338C82.2802 43.1242 84.5798 42.6376 85.6909 40.9388L84.854 40.3914ZM81.0983 41.1895C80.4879 40.802 80.0709 40.2073 79.9184 39.5124L78.9416 39.7268C79.1519 40.685 79.7296 41.5051 80.5624 42.0338L81.0983 41.1895ZM95.0726 50.06C95.0475 49.5261 94.6174 49.109 94.092 49.0819L94.0406 50.0806C94.0649 50.0818 94.0734 50.099 94.0737 50.107L95.0726 50.06ZM94.092 49.0819L89.8852 48.8654L89.8338 49.8641L94.0406 50.0806L94.092 49.0819ZM90.3531 49.4443C90.4991 48.5386 90.3695 47.6113 89.9705 46.7643L89.0658 47.1905C89.3795 47.8562 89.4796 48.5796 89.3658 49.2852L90.3531 49.4443ZM89.9705 46.7643L88.7122 44.0934L87.8076 44.5196L89.0658 47.1905L89.9705 46.7643ZM88.7122 44.0934C88.5869 43.8274 88.4386 43.5803 88.2732 43.3516L87.463 43.9378C87.5942 44.1192 87.7102 44.3129 87.8076 44.5196L88.7122 44.0934ZM88.3098 43.879L91.0031 38.802L90.1197 38.3334L87.4264 43.4104L88.3098 43.879ZM91.0029 38.8023C91.1004 38.6188 91.1395 38.4103 91.1153 38.2044L90.1221 38.3209C90.1226 38.3251 90.1219 38.3292 90.1198 38.3331L91.0029 38.8023ZM91.1153 38.2042L90.5612 33.4963L89.5681 33.6131L90.1222 38.3211L91.1153 38.2042ZM90.5612 33.4962C90.4941 32.9266 89.9749 32.5303 89.414 32.5948L89.5282 33.5882C89.5402 33.5868 89.5499 33.5901 89.5576 33.596C89.5651 33.6019 89.5674 33.6077 89.5681 33.6132L90.5612 33.4962ZM89.4143 32.5947C88.8525 32.659 88.4372 33.1634 88.5043 33.7345L89.4975 33.6179C89.497 33.6142 89.4974 33.6118 89.498 33.6099C89.4987 33.6076 89.5001 33.6045 89.5027 33.6013C89.5079 33.5949 89.5157 33.5896 89.5279 33.5883L89.4143 32.5947ZM88.5043 33.7346L89.0394 38.2814L90.0326 38.1645L89.4975 33.6178L88.5043 33.7346ZM89.0943 37.9886L86.6497 42.597L87.5331 43.0656L89.9777 38.4572L89.0943 37.9886ZM87.4027 42.44C86.8749 42.0201 86.2636 41.7192 85.6144 41.5539L85.3675 42.5229C85.8815 42.6538 86.3644 42.8918 86.7801 43.2225L87.4027 42.44ZM85.8289 42.4069C86.1131 42.1462 86.3706 41.8473 86.5912 41.5102L85.7543 40.9628C85.581 41.2278 85.3782 41.4634 85.153 41.6699L85.8289 42.4069ZM86.5912 41.5102C87.2843 40.4505 87.518 39.1845 87.2471 37.9507L86.2704 38.1653C86.4834 39.1355 86.301 40.127 85.7543 40.9628L86.5912 41.5102ZM87.2471 37.9508C86.9763 36.7173 86.2329 35.6614 85.1597 34.9801L84.6238 35.8244C85.4745 36.3644 86.0573 37.1949 86.2703 38.1652L87.2471 37.9508ZM85.1597 34.9801C82.9452 33.5744 79.982 34.2029 78.5509 36.3904L79.3877 36.9379C80.5163 35.2128 82.8663 34.7088 84.6237 35.8244L85.1597 34.9801ZM78.5509 36.3905C77.8578 37.4501 77.6241 38.7161 77.895 39.9499L78.8717 39.7354C78.6587 38.7652 78.8411 37.7736 79.3878 36.9378L78.5509 36.3905ZM77.895 39.9498C78.1658 41.1833 78.9092 42.2392 79.9824 42.9205L80.5183 42.0762C79.6676 41.5362 79.0848 40.7057 78.8717 39.7354L77.895 39.9498ZM79.9824 42.9205C80.4371 43.2091 80.9236 43.4117 81.4217 43.533L81.6583 42.5614C81.2638 42.4653 80.8788 42.305 80.5184 42.0762L79.9824 42.9205ZM81.1984 42.682C80.6783 43.1686 80.2743 43.77 80.0208 44.4524L80.9582 44.8007C81.1573 44.2648 81.4738 43.7938 81.8816 43.4123L81.1984 42.682ZM80.0208 44.4523C79.8402 44.9384 79.7452 45.4419 79.7331 45.9454L80.7328 45.9695C80.7423 45.5759 80.8164 45.182 80.9581 44.8007L80.0208 44.4523ZM79.9757 45.5287L75.7612 48.0574L76.2757 48.9149L80.4902 46.3862L79.9757 45.5287ZM75.7613 48.0574C75.4298 48.2562 75.2352 48.6243 75.2644 49.0129L76.2616 48.9381C76.2611 48.9318 76.2639 48.9219 76.2757 48.9149L75.7613 48.0574ZM75.2644 49.013L75.7131 54.9915L76.7103 54.9167L76.2616 48.9381L75.2644 49.013ZM75.7131 54.9915C75.7541 55.5379 76.214 55.9428 76.7452 55.9428V54.9428C76.7345 54.9428 76.7255 54.939 76.7188 54.9328C76.7125 54.9271 76.7107 54.9219 76.7103 54.9167L75.7131 54.9915ZM76.7452 55.9428C76.7717 55.9428 76.7981 55.9417 76.8243 55.9397L76.7462 54.9427C76.7455 54.9428 76.7451 54.9428 76.7452 54.9428V55.9428ZM76.8215 55.9399C77.3851 55.8989 77.8214 55.4123 77.7784 54.839L76.7812 54.9137C76.7815 54.9173 76.781 54.9196 76.7804 54.9216C76.7796 54.9239 76.778 54.927 76.7751 54.9303C76.7695 54.9367 76.7612 54.9416 76.749 54.9425L76.8215 55.9399ZM77.7784 54.839L77.3539 49.182L76.3567 49.2568L76.7812 54.9138L77.7784 54.839ZM77.1126 49.6481L80.6296 47.5379L80.1151 46.6804L76.5981 48.7907L77.1126 49.6481ZM79.8896 47.2394C79.96 47.5003 80.0532 47.7584 80.1719 48.0104L81.0765 47.5842C80.9841 47.3881 80.9109 47.1857 80.8551 46.9789L79.8896 47.2394ZM80.1719 48.0104L81.4301 50.6813L82.3347 50.2551L81.0765 47.5843L80.1719 48.0104ZM81.4301 50.6813C81.9605 51.8072 82.905 52.6617 84.0838 53.0869L84.4231 52.1463C83.4905 51.8098 82.7509 51.1385 82.3347 50.2551L81.4301 50.6813ZM84.0839 53.0869C84.61 53.2767 85.1566 53.3714 85.7027 53.3714V52.3714C85.2727 52.3714 84.8409 52.2969 84.4231 52.1462L84.0839 53.0869ZM85.7027 53.3714C86.0735 53.3714 86.4418 53.3263 86.8015 53.2403L86.5689 52.2677C86.2825 52.3362 85.9922 52.3714 85.7027 52.3714V53.3714ZM86.2786 53.0451L89.0852 56.9653L89.8983 56.3832L87.0917 52.4629L86.2786 53.0451ZM89.0413 56.4571L86.4138 61.9061L87.3146 62.3404L89.9421 56.8914L89.0413 56.4571ZM86.4138 61.9061C86.164 62.4241 86.3914 63.0378 86.9063 63.2789L87.3302 62.3731C87.3245 62.3705 87.3212 62.3677 87.3191 62.3653C87.3167 62.3626 87.3149 62.3596 87.3137 62.3564C87.3126 62.3532 87.3123 62.3504 87.3124 62.3483C87.3124 62.3465 87.3128 62.3441 87.3146 62.3404L86.4138 61.9061ZM86.9062 63.2788C87.0483 63.3453 87.199 63.3772 87.3475 63.3772V62.3772C87.3422 62.3772 87.3365 62.3761 87.3303 62.3732L86.9062 63.2788ZM87.3475 63.3772C87.7296 63.3772 88.1025 63.1651 88.2819 62.7932L87.3814 62.3585C87.3789 62.3637 87.3755 62.3676 87.3699 62.371C87.3636 62.3748 87.3556 62.3772 87.3475 62.3772V63.3772ZM88.282 62.793L91.0437 57.0657L90.1429 56.6313L87.3813 62.3587L88.282 62.793ZM91.0437 57.0656C91.2062 56.7283 91.1712 56.331 90.9538 56.0272L90.1406 56.6092C90.1435 56.6133 90.1447 56.6171 90.145 56.6206C90.1453 56.624 90.1447 56.6276 90.1429 56.6314L91.0437 57.0656ZM90.9537 56.0272L88.1218 52.0713L87.3086 52.6534L90.1406 56.6093L90.9537 56.0272ZM87.9512 52.8031C88.865 52.3138 89.5808 51.5494 90.0026 50.6099L89.0904 50.2003C88.7599 50.9362 88.2 51.5356 87.4792 51.9216L87.9512 52.8031ZM89.5208 50.9044L93.5006 51.1092L93.552 50.1106L89.5722 49.9057L89.5208 50.9044ZM93.0269 50.6335L93.323 56.9044L94.3218 56.8573L94.0257 50.5863L93.0269 50.6335ZM93.3229 56.9043C93.3491 57.4615 93.8133 57.8841 94.3569 57.8839L94.3566 56.8839C94.3456 56.8839 94.3366 56.8799 94.3301 56.8738C94.3238 56.8679 94.3221 56.8626 94.3218 56.8574L93.3229 56.9043ZM94.3568 57.8839C94.3722 57.8839 94.3875 57.8836 94.4027 57.8829L94.3613 56.8838C94.3596 56.8839 94.3581 56.8839 94.3568 56.8839V57.8839ZM94.4049 57.8828C94.9694 57.857 95.4186 57.3825 95.3915 56.8084L94.3926 56.8556C94.3928 56.8592 94.3922 56.8615 94.3915 56.8635C94.3906 56.8659 94.3889 56.869 94.3859 56.8722C94.3801 56.8785 94.3715 56.8833 94.3591 56.8839L94.4049 57.8828ZM95.3915 56.8084L95.0726 50.0599L94.0737 50.1071L94.3926 56.8556L95.3915 56.8084Z" fill="url(#paint2_linear)"/>
<defs>
<filter id="filter0_d" x="0" y="0" width="150" height="150" filterUnits="userSpaceOnUse" color-interpolation-filters="sRGB">
<feFlood flood-opacity="0" result="BackgroundImageFix"/>
<feColorMatrix in="SourceAlpha" type="matrix" values="0 0 0 0 0 0 0 0 0 0 0 0 0 0 0 0 0 0 127 0"/>
<feOffset dy="6"/>
<feGaussianBlur stdDeviation="7.5"/>
<feColorMatrix type="matrix" values="0 0 0 0 0 0 0 0 0 0 0 0 0 0 0 0 0 0 0.05 0"/>
<feBlend mode="normal" in2="BackgroundImageFix" result="effect1_dropShadow"/>
<feBlend mode="normal" in="SourceGraphic" in2="effect1_dropShadow" result="shape"/>
</filter>
<linearGradient id="paint0_linear" x1="56" y1="53.0176" x2="94.9109" y2="53.165" gradientUnits="userSpaceOnUse">
<stop stop-color="#00D7AF"/>
<stop offset="1" stop-color="#46737A"/>
</linearGradient>
<linearGradient id="paint1_linear" x1="56" y1="53.0176" x2="94.9109" y2="53.165" gradientUnits="userSpaceOnUse">
<stop stop-color="#00D7AF"/>
<stop offset="1" stop-color="#46737A"/>
</linearGradient>
<linearGradient id="paint2_linear" x1="56" y1="53.0176" x2="94.9109" y2="53.165" gradientUnits="userSpaceOnUse">
<stop stop-color="#00D7AF"/>
<stop offset="1" stop-color="#46737A"/>
</linearGradient>
</defs>
</svg>
