<?xml version="1.0" encoding="utf-8"?>
<!-- Generator: Adobe Illustrator 22.1.0, SVG Export Plug-In . SVG Version: 6.00 Build 0)  -->
<svg version="1.1" id="Layer_1" xmlns="http://www.w3.org/2000/svg" xmlns:xlink="http://www.w3.org/1999/xlink" x="0px" y="0px"
	 viewBox="0 0 300 150" style="enable-background:new 0 0 300 150;" xml:space="preserve">
<style type="text/css">
	.st0{fill:#D4F9F2;}
	.st1{fill:#8DE2D2;}
	.st2{fill:#FFFFFF;stroke:#6D6E71;stroke-width:3;stroke-miterlimit:10;}
	.st3{fill:#6D6E71;}
	.st4{fill:none;stroke:#6D6E71;stroke-miterlimit:10;}
</style>
<path class="st0" d="M178.3,72.1l-0.4-0.6c-0.4-0.5-1.9-1.7-2.4-1.4s0.1,2.2,0.5,2.7l0.4,0.6c0.4,0.5,1.1,0.7,1.6,0.3
	C178.5,73.4,178.6,72.6,178.3,72.1z M176.5,72.9c-0.2-0.3-0.1-0.7,0.2-1c0.3-0.2,0.8-0.1,1,0.2c0.2,0.3,0.1,0.8-0.2,1
	C177.2,73.3,176.8,73.2,176.5,72.9z"/>
<path class="st0" d="M178.9,71.9l0.1-0.7c0.1-0.6-0.2-2.5-0.7-2.6c-0.6-0.1-1.5,1.6-1.6,2.2l-0.1,0.7c-0.1,0.6,0.3,1.2,0.9,1.4
	C178.2,72.9,178.8,72.5,178.9,71.9z M177.2,71.2c0.1-0.4,0.4-0.6,0.8-0.6c0.4,0.1,0.6,0.4,0.6,0.8c-0.1,0.4-0.4,0.6-0.8,0.6
	C177.3,72,177.1,71.6,177.2,71.2z"/>
<path class="st1" d="M164.3,129.3h-31.6c-6.6,0-12-5.4-12-12V70.9c0-6.6,5.4-12,12-12h31.6c6.6,0,12,5.4,12,12v46.4
	C176.3,123.9,170.9,129.3,164.3,129.3z"/>
<g>
	<g>
		<path class="st2" d="M134,143.3l-0.2-37.3l-0.5,0l0,5.8l-13.3,0c0,0-2.3-31.3,20.3-31.3l17.7,0c27.3,0,23.6,31.3,23.6,31.3h-13.6
			l0-5.9h-0.4l-0.8,37.4H134z"/>
		<path class="st1" d="M168.6,144.1h3.2c0,0-5.3-27.1-5.3-33.9c0-6.8,2.1-31.4,2.1-31.4h-3.2c0,0-2.1,24.3-2.1,31.5
			S168.6,144.1,168.6,144.1z"/>
		<path class="st1" d="M132.3,144.1h-3.2c0,0,5.3-27.1,5.3-33.9c0-6.8-2.1-31.4-2.1-31.4h3.2c0,0,2.1,24.3,2.1,31.5
			S132.3,144.1,132.3,144.1z"/>
		<rect x="168.8" y="111.9" class="st2" width="10.7" height="31.4"/>
		<polygon class="st2" points="157.2,90.4 144,90.4 150.2,100 		"/>
		<path class="st2" d="M158.3,76.7c0,0,0.5,7.7-1,11.2c-1.3,3.1-5,4.9-7.2,4.9c-2.3,0-5.5-1.1-7.2-4.6c-1.6-3.4-0.3-11.2-0.3-11.2
			s5.3,1,7.3,1C151.7,78,158.3,76.7,158.3,76.7z"/>
		<path class="st2" d="M119,44.5"/>
		<path class="st2" d="M143.5,92.5l-5.5,4.4c0,0-2.5-10.2-1.7-14.9s6.1-4.7,6.1-4.7s1.4,8.8,2.6,11
			C146.2,90.6,143.5,92.5,143.5,92.5z"/>
		<path class="st2" d="M157.2,92.5l5.5,4.4c0,0,2.5-10.2,1.7-14.9s-6.1-4.7-6.1-4.7s-1.4,8.8-2.6,11
			C154.4,90.6,157.2,92.5,157.2,92.5z"/>
		<g>
			<path class="st2" d="M185.3,46l-34.9-0.4L115.6,46c-1.5-6.2,0.9-16.9,3.6-21.8c3.1-5.7,7.9-9.9,13.6-13
				c4.4-2.4,10.2-3.9,16.4-4.3c0.4,0,0.8,0,1.2,0h0.2c0.4,0,0.8,0,1.2,0c6.2,0.3,12.1,1.8,16.4,4.3c5.7,3.1,10.5,7.4,13.6,13
				C184.4,29.1,186.8,39.8,185.3,46z"/>
			<path class="st1" d="M137.2,12.2c6.9-3.3,16.8-2.7,16.8-2.7s-11.8,4.4-15.4,9.2c-3.2,4.3,0.2,10.1-1.4,10.1
				c-4.4,0-9.6-2.2-10.3-2.6c-0.7-0.3-2.2-0.4-2.2-0.4s-1.3,1-3.1,3.9c-0.4,0.7-2.7,6.6-2.7,6.6h-1c0,0,0.9-4,2.3-7.9
				c1-2.8,2.9-5.6,4.1-6.9C127.1,18.4,130.2,15.5,137.2,12.2z"/>
			<path class="st2" d="M188.1,50.3c0,2.7-2.2,5-5,5c-1.7,0-2.4-0.1-2.4-0.1s-0.3,0.7-0.7,2c-4.3,12.1-15.8,20.7-29.3,20.7
				c-13.4,0-24.9-8.5-29.2-20.5c-0.4-1-0.8-2.3-0.8-2.3s-1.9,0.1-3.6,0.1c-2.7,0-5-2.2-5-5c0-2.7,2.2-5,5-5c1.3,0,2.5,0,2.5,0
				s0-0.7,0-1.1c0.1-1.8,0.3-2.3,0.7-4c1.4-6.6,5.5-11,5.5-11s14.5,4.3,24.2,4.3c9.2,0.1,23.8-5,23.8-5s4.5,4.5,6.7,10.9
				c0.3,1,0.7,2.3,0.9,3.4c0.1,0.6,0.3,2.6,0.3,2.6s0,0,1.3,0C185.9,45.3,188.1,47.6,188.1,50.3z"/>
			<path class="st3" d="M135.5,52.1L135.5,52.1c-1.2,0-2.1-0.9-2.1-2.1v-4.1c0-1.2,0.9-2.1,2.1-2.1h0c1.2,0,2.1,0.9,2.1,2.1V50
				C137.6,51.1,136.6,52.1,135.5,52.1z"/>
			<path class="st3" d="M164.2,52.1L164.2,52.1c-1.2,0-2.1-0.9-2.1-2.1v-4.1c0-1.2,0.9-2.1,2.1-2.1l0,0c1.2,0,2.1,0.9,2.1,2.1V50
				C166.3,51.1,165.4,52.1,164.2,52.1z"/>
			<path class="st3" d="M144.1,63.8c0.6,1,1.7,3.7,6.6,3.7c4.9,0,5.5-3,6.7-3.6c1.1-0.6,1.5,0.4-0.2,2.4c-1.1,1.3-3.7,2.5-6.5,2.5
				c-5.2,0-7.9-3.4-7.9-4.5C142.8,63.3,143.6,63,144.1,63.8z"/>
		</g>
		<polygon class="st2" points="132.7,143.3 121.9,143.3 121.9,111.9 133.4,111.9 		"/>
	</g>
	<line class="st4" x1="150.2" y1="100" x2="150.2" y2="143.3"/>
	<circle class="st1" cx="150.4" cy="109.3" r="2.1"/>
	<circle class="st1" cx="150.4" cy="120.1" r="2.1"/>
	<circle class="st1" cx="150.4" cy="130.8" r="2.1"/>
	<path class="st1" d="M163.7,107.4l-1.7,1.9c-0.7,0.8-2,0.8-2.7,0l-1.7-1.9c-0.3-0.3-0.4-0.7-0.4-1.2v-2.6c0-1,0.8-1.8,1.8-1.8h3.4
		c1,0,1.8,0.8,1.8,1.8v2.6C164.2,106.6,164,107,163.7,107.4z"/>
</g>
</svg>
