<?xml version="1.0" encoding="utf-8"?>
<!-- Generator: Adobe Illustrator 22.1.0, SVG Export Plug-In . SVG Version: 6.00 Build 0)  -->
<svg version="1.1" id="Layer_1" xmlns="http://www.w3.org/2000/svg" xmlns:xlink="http://www.w3.org/1999/xlink" x="0px" y="0px"
	 viewBox="0 0 300 150" style="enable-background:new 0 0 300 150;" xml:space="preserve">
<style type="text/css">
	.st0{fill:#FFFFFF;stroke:#6D6E71;stroke-width:3;stroke-miterlimit:10;}
	.st1{fill:#8DE2D2;}
	.st2{fill:#6D6E71;}
	.st3{fill:none;stroke:#6D6E71;stroke-width:3;stroke-miterlimit:10;}
</style>
<g>
	<path class="st0" d="M134.7,75.4c-6.9,0-14.3,4.7-19.3,9.4c-0.6,20.4-0.9,60.6-0.9,60.6h9.7l0-44l0,44h35.4l-0.6-45.3l0.6,45.3
		l9.2-0.1c0,0,0-48.9-0.4-61.1c-4.9-3.7-12.8-8.4-18.7-8.4L134.7,75.4z"/>
	<path class="st0" d="M150.7,69.5c0,0,0.5,8.9-1.1,12.6c-1.4,3.3-4.5,5.2-6.8,5.2c-2.5,0-6.6-1.2-8.4-4.8
		c-1.7-3.6-0.8-13.2-0.8-13.2s4.7,2.3,8.1,2.3C145.2,71.6,150.7,69.5,150.7,69.5z"/>
	<g>
		<path class="st0" d="M174.5,43.8c0,0,0.6-4.7-0.4-12.9c-0.7-5.7-2.2-7.2-3.1-8.4c0,0,0.7-1.4,0.4-5.3c-0.6-6.4-3.6-12.6-3.6-12.6
			c-3.2,2.5-7.2,4.8-11.2,6.2c-4-1.8-10.8-2.1-15.4-2.1c-5.6,0-10.8,1.4-15.3,4c-5.2,2.9-9.6,6.7-12.4,11.9
			c-2.5,4.5-4.7,14.3-3.3,20L174.5,43.8z"/>
		<path class="st1" d="M129.8,13.6c6.3-3.1,15.4-1.7,15.4-1.7s-10.8,3.3-14.1,7.7c-3,4,0.2,9.3-1.3,9.3c-4,0-8.8-2.1-9.5-2.3
			c-0.7-0.3-2-0.4-2-0.4s-1.2,0.9-2.9,3.6c-0.4,0.6-2.5,6.1-2.5,6.1h-0.9c0,0,0.8-3.6,2.1-7.2c0.9-2.6,2.7-5.1,3.8-6.3
			C120.5,19.3,123.5,16.6,129.8,13.6z"/>
		<path class="st0" d="M176.5,48.5c0,2.5-2,4.5-4.5,4.5c-1.5,0-2.2-0.1-2.2-0.1s-0.3,0.6-0.7,1.8c-3.9,11-14.4,19-26.8,19
			c-12.3,0-22.8-7.8-26.8-18.8c-0.3-0.9-0.7-2.1-0.7-2.1s-1.8,0.1-3.3,0.1c-2.5,0-4.5-2-4.5-4.5c0-2.5,2-4.5,4.5-4.5
			c1.2,0,2.3,0,2.3,0s0-0.7,0-1c0.1-1.7,0.3-2.1,0.6-3.7c1.3-6,5.1-10.1,5.1-10.1s13.3,3.9,22.2,3.9c8.4,0.1,21.8-4.6,21.8-4.6
			s4.1,4.1,6.1,10c0.3,0.9,0.6,2.1,0.8,3.1c0.1,0.5,0.2,2.3,0.2,2.3s0,0,1.2,0C174.5,43.9,176.5,46,176.5,48.5z"/>
		<path class="st2" d="M129.4,49.7L129.4,49.7c-1.1,0-1.9-0.9-1.9-1.9V44c0-1.1,0.9-1.9,1.9-1.9h0c1.1,0,1.9,0.9,1.9,1.9v3.8
			C131.3,48.8,130.4,49.7,129.4,49.7z"/>
		<path class="st2" d="M155.8,49.7L155.8,49.7c-1.1,0-1.9-0.9-1.9-1.9V44c0-1.1,0.9-1.9,1.9-1.9l0,0c1.1,0,1.9,0.9,1.9,1.9v3.8
			C157.7,48.8,156.8,49.7,155.8,49.7z"/>
		<g>
			<path class="st2" d="M114.2,44.7c0,0,2-0.3,3.4-0.3c1.2,0,2.4,0.6,2.4,0.6l1.6-4.5l-7.4,0.2L114.2,44.7z"/>
			<path class="st2" d="M170.6,44.6c0,0-1.1-0.4-2.6-0.4c-1.5,0-2.3,1.1-2.3,1.1s0.3-1.2-0.9-2.8c-1.2-1.6-3-2.6-3-2.6l8.3,0.6
				L170.6,44.6z"/>
			<path class="st2" d="M146.4,46.1c0,0-1.9-2.3-3.3-2.3c-1.4,0-3.2,2-3.2,2s0.5-1,0.1-2.7c-0.3-1.7-1.2-2.6-1.2-2.6h8.6
				c0,0-0.7,0.8-1.3,2.4C145.7,44.5,146.4,46.1,146.4,46.1z"/>
			<path class="st3" d="M146.6,46.5c1.4,4.7,2.6,8.8,10.9,8.8c5.4,0,8-4,8-8.8s-0.4-7.3-9.7-7.3C146.4,39.2,145,41.4,146.6,46.5z"/>
			<path class="st3" d="M139.4,46.5c-1.9,4.5-2.5,8.8-11.1,8.8c-5.5,0-8.2-4-8.2-8.8s0.4-7.3,10-7.3
				C139.5,39.2,141.4,41.9,139.4,46.5z"/>
		</g>
		<path class="st2" d="M136.9,61.5c0.6,1,1.7,3.6,6.5,3.6s5.4-2.9,6.5-3.5c1-0.5,1.5,0.4-0.2,2.3c-1.1,1.3-3.6,2.4-6.3,2.4
			c-5.1,0-7.7-3.3-7.7-4.3C135.6,61,136.4,60.7,136.9,61.5z"/>
	</g>
	<polygon class="st0" points="140.7,85.4 137.4,88 126.1,77.7 130.8,73.8 	"/>
	<line class="st3" x1="141.5" y1="85" x2="141.5" y2="145.4"/>
	<polygon class="st1" points="145.2,89.4 143.9,92 144.7,106.4 141.5,110.4 138,106.4 139,92.1 137.8,89.7 141.5,86 	"/>
	<path class="st0" d="M129.2,98.6l2.3-8l-7.3-6.2l2.6-7.4l0.8-0.6c0,0,9.1,11.6,10.6,18.7c1.1,5.3,3,21.9,3,21.9h-0.4L129.2,98.6z"
		/>
	<polygon class="st0" points="142.7,85.4 145.6,87.8 157.3,77.7 152.6,73.8 	"/>
	<circle class="st1" cx="141.4" cy="122.4" r="2.3"/>
	<circle class="st1" cx="141.4" cy="133.9" r="2.3"/>
	<path class="st0" d="M152.9,98.6l-1.7-7.5l6.7-6.6l-0.6-6.8l-1.4-1c0,0-10.6,11.5-12,18.5c-1.1,5.3-2.2,21.9-2.2,21.9h0.5
		L152.9,98.6z"/>
</g>
</svg>
