<?xml version="1.0" encoding="utf-8"?>
<!-- Generator: Adobe Illustrator 22.1.0, SVG Export Plug-In . SVG Version: 6.00 Build 0)  -->
<svg version="1.1" id="Layer_1" xmlns="http://www.w3.org/2000/svg" xmlns:xlink="http://www.w3.org/1999/xlink" x="0px" y="0px"
	 viewBox="0 0 300 150" style="enable-background:new 0 0 300 150;" xml:space="preserve">
<style type="text/css">
	.st0{fill:#FFFFFF;stroke:#6D6E71;stroke-width:3;stroke-miterlimit:10;}
	.st1{fill:#8DE2D2;}
	.st2{fill:#6D6E71;}
	.st3{fill:none;stroke:#6D6E71;stroke-miterlimit:10;}
</style>
<g>
	<path class="st0" d="M178.7,118.4c0,6.8-0.5,27.3-0.5,27.3h-10.8l-0.6-40.5l-0.4,0l1,40.5h-35.4l1.3-40.5h-0.4l-0.9,40.5l-10.4-0.1
		l-0.2-28.5c0-20.5,0-37.1,20.4-37.1h16.9C178.7,80,178.7,97,178.7,118.4z"/>
	<path class="st1" d="M176.5,144.3l-7.7,0l-0.3-35.1c0,0,0.3-11.9-4.4-17.2c-3.9-4.4-5.3-4.4-5.3-4.4s0.2-1.8,0.3-3.4
		c0.1-0.6,0.1-2.9,0.1-2.9s5.7-0.4,10.3,2.7c2.3,1.5,3.8,3.9,5.5,7.3c2.5,4.9,2.4,20,2.4,30C177.4,128,176.5,144.3,176.5,144.3z"/>
	<path class="st0" d="M183.5,46.7c0,0,0.7-4.9-0.4-13.3c-0.8-5.9-2.3-7.4-3.2-8.7c0,0,0.8-1.4,0.4-5.5c-0.6-6.7-3.8-13.1-3.8-13.1
		c-3.3,2.6-7.4,5-11.7,6.5c-4.1-1.9-11.2-2.2-16-2.2c-5.8,0-11.2,1.5-15.9,4.1c-5.4,3-10,7-12.9,12.4c-2.6,4.7-4.9,14.8-3.4,20.7
		L183.5,46.7z"/>
	<path class="st0" d="M158.8,76l-4.7,9.1h-7.8l-5.3-9.3c0,0,4.6,2,8.4,2C153.4,77.8,158.8,76,158.8,76z"/>
	<path class="st1" d="M137.1,15.3c6.6-3.2,16-1.8,16-1.8s-11.2,3.4-14.6,8c-3.1,4.1,0.2,9.6-1.3,9.6c-4.2,0-9.1-2.1-9.8-2.4
		s-2.1-0.4-2.1-0.4s-1.2,0.9-3,3.7c-0.4,0.7-2.6,6.3-2.6,6.3h-1c0,0,0.8-3.8,2.2-7.5c0.9-2.6,2.8-5.3,3.9-6.5
		C127.5,21.2,130.6,18.5,137.1,15.3z"/>
	<path class="st0" d="M185.6,51.5c0,2.6-2.1,4.7-4.7,4.7c-1.6,0-2.2-0.1-2.2-0.1s-0.3,0.7-0.7,1.9c-4,11.5-15,19.7-27.8,19.7
		c-12.8,0-23.7-8.1-27.8-19.5c-0.3-0.9-0.7-2.1-0.7-2.1s-1.8,0.1-3.4,0.1c-2.6,0-4.7-2.1-4.7-4.7s2.1-4.7,4.7-4.7c1.2,0,2.4,0,2.4,0
		s0-0.7,0-1c0.1-1.7,0.3-2.2,0.6-3.8c1.4-6.2,5.3-10.5,5.3-10.5s13.8,4,23,4.1c8.7,0.1,22.6-4.8,22.6-4.8s4.3,4.2,6.3,10.4
		c0.3,1,0.7,2.2,0.9,3.2c0.1,0.6,0.3,2.4,0.3,2.4s0,0,1.3,0C183.5,46.8,185.6,48.9,185.6,51.5z"/>
	<path class="st2" d="M135.5,53.2L135.5,53.2c-1.1,0-2-0.9-2-2v-3.9c0-1.1,0.9-2,2-2l0,0c1.1,0,2,0.9,2,2v3.9
		C137.5,52.3,136.6,53.2,135.5,53.2z"/>
	<path class="st2" d="M162.9,53.2L162.9,53.2c-1.1,0-2-0.9-2-2v-3.9c0-1.1,0.9-2,2-2h0c1.1,0,2,0.9,2,2v3.9
		C164.9,52.3,164,53.2,162.9,53.2z"/>
	<path class="st2" d="M143.7,64.4c0.6,0.9,1.6,3.5,6.3,3.5c4.7,0,5.2-2.9,6.3-3.4c1-0.5,1.4,0.4-0.1,2.3c-1.1,1.2-3.5,2.4-6.2,2.4
		c-5,0-7.6-3.2-7.6-4.2S143.2,63.6,143.7,64.4z"/>
	<polygon class="st0" points="143.5,93.4 133.7,81.4 139,76.2 148.9,85.2 	"/>
	<polygon class="st0" points="156.7,93.4 166.5,81.4 161.2,76.2 151.3,85.2 	"/>
	<line class="st3" x1="150" y1="85.5" x2="150" y2="146.7"/>
	<circle class="st1" cx="150" cy="108.2" r="1.7"/>
	<circle class="st1" cx="150" cy="95.1" r="1.7"/>
	<circle class="st1" cx="150" cy="120.2" r="1.7"/>
	<circle class="st1" cx="150" cy="132.8" r="1.7"/>
</g>
</svg>
