<svg xmlns="http://www.w3.org/2000/svg" width="60" height="52" viewBox="0 0 60 52">
    <g fill="#00D7AF" fill-rule="evenodd" opacity=".25">
        <path d="M44.268 29.707c-4.028-4.844-9.119-7.511-14.336-7.511-5.217 0-10.308 2.667-14.335 7.511-3.62 4.354-5.782 9.84-5.782 14.678 0 2.35.721 4.14 2.143 5.32 1.404 1.164 3.257 1.558 5.325 1.558 2.2 0 4.643-.446 7.044-.884 2.097-.384 4.078-.746 5.605-.746 1.318 0 3.177.344 5.143.708 4.597.85 9.808 1.813 12.818-.68 1.43-1.185 2.156-2.96 2.156-5.276 0-4.837-2.16-10.324-5.781-14.678M44.679 3.405C43.205 1.241 41.095 0 38.889 0c-2.205 0-4.315 1.241-5.789 3.405-1.354 1.988-2.1 4.599-2.1 7.351 0 2.753.746 5.363 2.1 7.351 1.474 2.164 3.584 3.405 5.79 3.405 2.205 0 4.315-1.24 5.789-3.405 1.354-1.988 2.1-4.598 2.1-7.35 0-2.753-.746-5.364-2.1-7.352M26.764 3.405C25.29 1.241 23.18 0 20.974 0c-2.205 0-4.316 1.241-5.79 3.405-1.353 1.988-2.099 4.599-2.099 7.352 0 2.752.746 5.363 2.1 7.351 1.473 2.164 3.584 3.405 5.79 3.405 2.205 0 4.315-1.24 5.79-3.405 1.353-1.988 2.098-4.599 2.098-7.351 0-2.753-.745-5.364-2.099-7.352M59.516 20.29c-.594-2.013-1.868-3.475-3.586-4.118-1.382-.517-2.943-.43-4.394.247-2 .932-3.635 2.857-4.485 5.28-.694 1.981-.78 4.075-.243 5.896.594 2.013 1.867 3.475 3.585 4.118a5.292 5.292 0 0 0 1.86.333c.844 0 1.707-.194 2.535-.58 2-.932 3.634-2.857 4.484-5.28.695-1.981.781-4.075.244-5.896M12.813 21.7c-.85-2.424-2.485-4.349-4.485-5.281-1.45-.677-3.012-.764-4.394-.247-1.718.643-2.991 2.105-3.586 4.118-.537 1.821-.45 3.915.244 5.895.85 2.424 2.485 4.349 4.485 5.281.827.386 1.69.58 2.535.58.638 0 1.265-.11 1.86-.333 1.718-.643 2.99-2.105 3.585-4.118.537-1.821.45-3.915-.244-5.896"/>
    </g>
</svg>
