<svg width="16" height="21" viewBox="0 0 16 21" fill="none" xmlns="http://www.w3.org/2000/svg">
<path d="M15 13H1V1.05036C1 1.03108 1.00077 1.01436 1.00197 1H11.0543L14.9997 4.98304C14.9999 4.99344 15 5.00497 15 5.01774V13ZM10.9564 0.901152L10.9564 0.901182L10.9564 0.901152Z" stroke="#6480EB" stroke-width="2"/>
<path fill-rule="evenodd" clip-rule="evenodd" d="M12.0003 15.3704H10.526V16.3148H11.8652V16.6486H10.526V18H9.99561V15H12.0003V15.3704Z" fill="#6480EB" stroke="#6480EB" stroke-width="0.5" stroke-linecap="round" stroke-linejoin="round"/>
<path fill-rule="evenodd" clip-rule="evenodd" d="M9.1544 17.0496C9.0978 17.225 9.02593 17.3712 8.93912 17.4894C8.85198 17.6076 8.75435 17.7005 8.64528 17.7684C8.53652 17.8362 8.43158 17.8869 8.33045 17.9211C8.22901 17.955 8.13615 17.9768 8.05188 17.9863C7.96825 17.9952 7.9056 18 7.86521 18H6.65234V15H7.61749C7.88684 15 8.12407 15.0402 8.32791 15.12C8.53239 15.1998 8.7022 15.3067 8.83704 15.4395C8.97187 15.5723 9.07236 15.7238 9.13914 15.8932C9.2056 16.0626 9.23868 16.2371 9.23868 16.4163C9.23899 16.6635 9.21069 16.8746 9.1544 17.0496ZM8.45867 15.7021C8.36741 15.603 8.24338 15.5226 8.08724 15.4616C7.93047 15.4005 7.72758 15.3701 7.47827 15.3701H7.17394V17.6416H7.69133C8.04495 17.6416 8.29999 17.5359 8.45645 17.3242C8.61291 17.1122 8.69114 16.8058 8.69114 16.4039C8.69114 16.2791 8.67555 16.1556 8.64343 16.0338C8.61132 15.9117 8.54994 15.8013 8.45867 15.7021Z" fill="#6480EB" stroke="#6480EB" stroke-width="0.5" stroke-linecap="round" stroke-linejoin="round"/>
<path fill-rule="evenodd" clip-rule="evenodd" d="M5.72613 16.6527C5.62723 16.7367 5.5083 16.8019 5.36933 16.8481C5.23036 16.8942 5.07676 16.9171 4.90886 16.9171H4.52153V18H4V15H4.92158C5.05737 15 5.19252 15.0202 5.32576 15.061C5.45901 15.1018 5.57858 15.1629 5.68447 15.2441C5.79037 15.3254 5.87591 15.424 5.9411 15.5392C6.00597 15.6544 6.03873 15.7839 6.03873 15.928C6.03905 16.0802 6.01138 16.2177 5.95668 16.3413C5.90167 16.4649 5.82471 16.5688 5.72613 16.6527ZM5.42428 15.5759C5.37912 15.5176 5.31616 15.4688 5.23507 15.4295C5.15398 15.3902 5.04649 15.3705 4.91325 15.3705H4.5221V16.5591H5.00038C5.06398 16.5591 5.12695 16.5489 5.18959 16.5281C5.25192 16.5082 5.30916 16.4748 5.36131 16.4284C5.41347 16.3825 5.45544 16.3179 5.48724 16.2354C5.51904 16.1527 5.53495 16.0502 5.53495 15.9282C5.53495 15.8793 5.52763 15.8225 5.51332 15.7591C5.49869 15.6953 5.46912 15.6343 5.42428 15.5759Z" fill="#6480EB" stroke="#6480EB" stroke-width="0.5" stroke-linecap="round" stroke-linejoin="round"/>
<path d="M1 19.9412V13H15V19.9412C15 19.9411 15 19.9411 15 19.9412C14.9999 19.9423 14.9992 19.9541 14.9914 19.9745C14.988 19.9833 14.984 19.9919 14.9796 20H1.02034C1.01596 19.9919 1.01198 19.9833 1.00863 19.9746C1.00015 19.9524 1 19.9404 1 19.9412Z" stroke="#6480EB" stroke-width="2"/>
<path d="M4.50621 9.36091L4.50622 9.36076C4.54755 8.99103 4.78407 8.69559 5.05239 8.4684C5.29236 8.26522 5.60726 8.07422 5.98152 7.89217C6.25965 7.25691 6.52092 6.51484 6.69492 5.86683C6.59912 5.64256 6.50673 5.39032 6.44769 5.13994C6.37828 4.84563 6.33103 4.45883 6.47664 4.11839L6.47674 4.11815C6.55342 3.93912 6.70183 3.67596 7.03579 3.56472L4.50621 9.36091ZM4.50621 9.36091C4.4737 9.65244 4.56372 10.0309 4.95663 10.3258L4.95749 10.3265M4.50621 9.36091L4.95749 10.3265M7.01817 8.94275C6.84953 9.28505 6.68143 9.57847 6.5157 9.8113L7.01817 8.94275ZM7.01817 8.94275C7.48407 8.75128 8.02152 8.5778 8.51317 8.45938M7.01817 8.94275L8.51317 8.45938M8.51317 8.45938C8.8469 8.73636 9.21771 8.93402 9.61089 8.93402C9.98836 8.93402 10.3091 8.75178 10.5218 8.45434L10.5223 8.45372C10.7096 8.19093 10.8413 7.81937 10.6483 7.44421L10.6483 7.44416C10.42 7.00072 9.92665 6.91926 9.54458 6.91926C9.37175 6.91926 9.18008 6.93487 8.9736 6.96348C8.68292 6.61689 8.38768 6.17173 8.15394 5.72007C8.2769 5.16799 8.31734 4.80127 8.30731 4.54382C8.30159 4.397 8.27903 4.26912 8.23516 4.15561C8.1897 4.038 8.13096 3.96334 8.10687 3.93271C8.10601 3.93162 8.1052 3.93059 8.10443 3.92961L8.10435 3.92951C8.10189 3.92637 8.09831 3.92169 8.09378 3.91574C8.06619 3.87956 8.00296 3.79664 7.93697 3.73088C7.87002 3.66416 7.69184 3.5 7.42466 3.5C7.35518 3.5 7.27449 3.51211 7.22764 3.52C7.17832 3.5283 7.10073 3.54311 7.03604 3.56464L8.51317 8.45938ZM4.95749 10.3265C5.10608 10.4375 5.28635 10.5 5.47644 10.5C5.9438 10.5 6.27628 10.1478 6.51562 9.81142L4.95749 10.3265Z" fill="#6480EB" stroke="#6480EB"/>
<path fill-rule="evenodd" clip-rule="evenodd" d="M9.80367 7.94094C9.83728 7.89347 9.85068 7.86304 9.85568 7.84668C9.82775 7.83192 9.79073 7.80194 9.58904 7.80194C9.47435 7.80194 9.33036 7.80694 9.17773 7.82647C9.36284 7.96887 9.40803 8.04087 9.52909 8.04087C9.58178 8.0411 9.73349 8.03883 9.80367 7.94094Z" fill="white"/>
<path fill-rule="evenodd" clip-rule="evenodd" d="M5.48101 9.61592C5.51485 9.60524 5.71244 9.5153 6.0806 8.83554C5.59502 9.10854 5.39743 9.33247 5.38335 9.45898C5.38085 9.47965 5.37472 9.53484 5.48101 9.61592Z" fill="white"/>
<path fill-rule="evenodd" clip-rule="evenodd" d="M7.48036 6.33179C7.31774 6.89368 7.10357 7.50031 6.87305 8.04971C7.34772 7.86551 7.86374 7.70472 8.3484 7.59093C8.04202 7.23481 7.73541 6.79011 7.48036 6.33179Z" fill="white"/>
<path fill-rule="evenodd" clip-rule="evenodd" d="M7.34292 4.40994C7.32066 4.41744 7.04086 4.80899 7.36473 5.14035C7.58026 4.66 7.35269 4.40676 7.34292 4.40994Z" fill="white"/>
</svg>
