<svg width="17" height="16" viewBox="0 0 17 16" fill="none" xmlns="http://www.w3.org/2000/svg">
<circle cx="11.715" cy="3.42855" r="1.82143" stroke="#6480EB" stroke-width="1.5"/>
<path d="M9.03613 8.73331C9.76985 7.76001 10.7012 7.07143 11.7147 7.07143C14.0816 7.07143 16.0004 10.8269 16.0004 13.1939H11.7147H11.4468" stroke="#6480EB" stroke-width="1.5" stroke-linecap="round" stroke-linejoin="round"/>
<circle cx="6.35686" cy="3.21429" r="2.46429" stroke="#6480EB" stroke-width="1.5"/>
<path d="M11.7143 15.1531V15.9031C12.1285 15.9031 12.4643 15.5673 12.4643 15.1531H11.7143ZM1 15.1531H0.25C0.25 15.5673 0.585786 15.9031 1 15.9031L1 15.1531ZM1.75 15.1531C1.75 13.8409 2.29462 12.064 3.20418 10.616C4.13509 9.13387 5.27849 8.25 6.35714 8.25V6.75C4.47713 6.75 2.94195 8.21333 1.93396 9.81811C0.904616 11.4569 0.25 13.5065 0.25 15.1531H1.75ZM6.35714 8.25C7.4358 8.25 8.57919 9.13387 9.51011 10.616C10.4197 12.064 10.9643 13.8409 10.9643 15.1531H12.4643C12.4643 13.5065 11.8097 11.4569 10.7803 9.81811C9.77233 8.21333 8.23715 6.75 6.35714 6.75V8.25ZM1 15.9031H6.35714V14.4031H1V15.9031ZM6.35714 15.9031H11.7143V14.4031H6.35714V15.9031Z" fill="#6480EB"/>
</svg>
