<svg xmlns="http://www.w3.org/2000/svg" width="50" height="52" viewBox="0 0 50 52">
    <defs>
        <linearGradient id="a" x1="0%" y1="9.057%" y2="100%">
            <stop offset="0%" stop-color="#00D7AF"/>
            <stop offset="100%" stop-color="#46737A"/>
        </linearGradient>
    </defs>
    <g fill="url(#a)" fill-rule="evenodd" stroke="url(#a)" transform="translate(-255 -1613)">
        <path d="M276.08 1628.464a.662.662 0 0 0-.576-.584l-18.752-2.446a.664.664 0 0 0-.746.568.66.66 0 0 0 .572.74l18.234 2.377 1.433 13.352-2.662 1.32a.658.658 0 0 0-.36.694l1.46 8.97-3.252 1.611a.657.657 0 0 0-.343.768l2.152 7.618a.665.665 0 0 0 .82.457.659.659 0 0 0 .461-.812l-2.004-7.095 3.198-1.585a.658.658 0 0 0 .36-.695l-1.46-8.969 2.637-1.307a.658.658 0 0 0 .364-.66l-1.537-14.322zM296.556 1634.982a3.852 3.852 0 0 1-2.02 2.177c-1.95.897-4.272.054-5.177-1.879l-1.563-3.338a3.808 3.808 0 0 1-.125-2.955 3.852 3.852 0 0 1 2.02-2.177 3.904 3.904 0 0 1 1.635-.36c1.472 0 2.883.83 3.542 2.238l1.563 3.339c.439.936.483 1.986.125 2.955zm-11.45-12.707a3.903 3.903 0 0 1 .546-2.98 4.001 4.001 0 0 1 3.362-1.813c.74 0 1.49.203 2.156.63a3.931 3.931 0 0 1 1.74 2.49 3.903 3.903 0 0 1-.546 2.98c-1.193 1.834-3.668 2.364-5.518 1.183a3.932 3.932 0 0 1-1.74-2.49zm18.812 13.08a.662.662 0 0 0-.63-.628l-5.226-.271a5.106 5.106 0 0 0-.424-2.984l-1.563-3.339a5.176 5.176 0 0 0-.487-.827l3.346-6.346a.654.654 0 0 0 .071-.382l-.688-5.885a.664.664 0 0 0-.737-.579.66.66 0 0 0-.585.731l.665 5.684-3.037 5.76a5.281 5.281 0 0 0-1.988-.991c.317-.292.603-.626.847-1.002a5.203 5.203 0 0 0 .728-3.973 5.242 5.242 0 0 0-2.32-3.32c-2.466-1.576-5.766-.868-7.356 1.577a5.203 5.203 0 0 0-.728 3.973 5.242 5.242 0 0 0 2.32 3.32c.505.323 1.047.55 1.601.686a5.156 5.156 0 0 0-1.305 1.974 5.15 5.15 0 0 0-.318 1.664l-5.236 3.16a.658.658 0 0 0-.317.612l.557 7.474a.663.663 0 0 0 .713.609.661.661 0 0 0 .614-.707l-.527-7.07 4.369-2.639c.078.293.181.58.313.86l1.563 3.34a5.178 5.178 0 0 0 2.945 2.685 5.214 5.214 0 0 0 3.02.172l3.487 4.9-3.264 6.811a.657.657 0 0 0 .316.879.667.667 0 0 0 .886-.313l3.43-7.16a.655.655 0 0 0-.057-.662l-3.518-4.945a5.154 5.154 0 0 0 2.275-2.447l4.944.256.368 7.84a.662.662 0 0 0 .695.627.662.662 0 0 0 .634-.689l-.396-8.436z"/>
    </g>
</svg>
