<svg width="94" height="90" viewBox="0 0 94 90" fill="none" xmlns="http://www.w3.org/2000/svg">
<g filter="url(#filter0_d)">
<ellipse cx="47" cy="38.9785" rx="32" ry="29.1857" fill="white"/>
</g>
<path fill-rule="evenodd" clip-rule="evenodd" d="M47.9679 37.2144C45.291 35.8048 41.8853 35.6826 38.3781 36.8703C35.2256 37.9377 32.4845 39.9318 31.0459 42.2045C30.347 43.3085 30.1847 44.3443 30.5635 45.2831C30.9373 46.2098 31.771 46.8957 32.832 47.4543C33.9609 48.0488 35.3471 48.4992 36.7093 48.9417C37.8995 49.3283 39.0237 49.6936 39.8072 50.1061C40.4835 50.4622 41.3348 51.1257 42.2359 51.8281C44.3418 53.4696 46.7289 55.3301 49.0148 54.9722C50.1014 54.802 51.0017 54.1638 51.6906 53.0755C53.1293 50.8029 53.6524 47.6408 53.0896 44.617C52.4636 41.2529 50.6448 38.6239 47.9679 37.2144Z" stroke="#6E7F95" stroke-width="2"/>
<path fill-rule="evenodd" clip-rule="evenodd" d="M60.0532 28.634C58.9213 28.038 57.4695 28.0511 56.0698 28.6697C54.7839 29.238 53.6248 30.2631 52.8062 31.5564C51.9875 32.8497 51.5935 34.2777 51.6969 35.5776C51.8094 36.9925 52.523 38.1458 53.6548 38.7417C54.7866 39.3377 56.2384 39.3247 57.6382 38.7061C58.924 38.1378 60.0831 37.1126 60.9018 35.8193C61.7204 34.5261 62.1144 33.098 62.011 31.7982C61.8985 30.3832 61.1849 29.23 60.0532 28.634Z" stroke="#6E7F95" stroke-width="2"/>
<path fill-rule="evenodd" clip-rule="evenodd" d="M50.8365 23.781C49.7047 23.185 48.2527 23.198 46.853 23.8166C45.567 24.3849 44.408 25.4101 43.5893 26.7035C42.7706 27.9968 42.3766 29.4249 42.4799 30.7248C42.5924 32.1398 43.306 33.2931 44.4378 33.8891C45.5697 34.4851 47.0216 34.4721 48.4214 33.8534C49.7074 33.2851 50.8664 32.2599 51.6851 30.9666C52.5038 29.6732 52.8978 28.245 52.7945 26.9452C52.682 25.5302 51.9684 24.377 50.8365 23.781Z" stroke="#6E7F95" stroke-width="2"/>
<path fill-rule="evenodd" clip-rule="evenodd" d="M64.2283 41.004C63.6728 40.3875 62.8459 40.007 61.9001 39.9328C60.5966 39.8303 59.1853 40.293 58.0282 41.2022C57.0827 41.9452 56.4156 42.9054 56.1497 43.9064C55.8559 45.0126 56.0743 46.0438 56.7647 46.81C57.0036 47.0752 57.2926 47.2966 57.6197 47.4688C58.0532 47.6971 58.5538 47.8389 59.093 47.8813C60.3965 47.9837 61.8076 47.521 62.9647 46.6119C63.9102 45.8689 64.5774 44.9086 64.8431 43.9077C65.1371 42.8014 64.9186 41.7701 64.2283 41.004Z" stroke="#6E7F95" stroke-width="2"/>
<path fill-rule="evenodd" clip-rule="evenodd" d="M38.9911 27.8694C38.4476 27.1594 37.6728 26.6966 36.8097 26.566C35.737 26.4039 34.6485 26.747 33.7451 27.5322C32.9276 28.2426 32.3494 29.2497 32.1167 30.368C31.832 31.7366 32.0983 33.0826 32.8472 34.0609C33.157 34.4656 33.5419 34.7901 33.9755 35.0184C34.3026 35.1906 34.6574 35.3082 35.0286 35.3643C36.1015 35.5265 37.1898 35.1834 38.0933 34.3982C38.9106 33.6878 39.4888 32.6806 39.7216 31.5623C40.0063 30.1937 39.74 28.8477 38.9911 27.8694Z" stroke="#6E7F95" stroke-width="2"/>
<defs>
<filter id="filter0_d" x="0" y="0.792725" width="94" height="88.3715" filterUnits="userSpaceOnUse" color-interpolation-filters="sRGB">
<feFlood flood-opacity="0" result="BackgroundImageFix"/>
<feColorMatrix in="SourceAlpha" type="matrix" values="0 0 0 0 0 0 0 0 0 0 0 0 0 0 0 0 0 0 127 0"/>
<feOffset dy="6"/>
<feGaussianBlur stdDeviation="7.5"/>
<feColorMatrix type="matrix" values="0 0 0 0 0 0 0 0 0 0 0 0 0 0 0 0 0 0 0.05 0"/>
<feBlend mode="normal" in2="BackgroundImageFix" result="effect1_dropShadow"/>
<feBlend mode="normal" in="SourceGraphic" in2="effect1_dropShadow" result="shape"/>
</filter>
</defs>
</svg>
