<svg width="150" height="150" viewBox="0 0 150 150" fill="none" xmlns="http://www.w3.org/2000/svg">
<g filter="url(#filter0_d)">
<rect x="15" y="9" width="120" height="120" rx="20" fill="white"/>
</g>
<path d="M66.377 93.709H67.0742C67.7259 93.709 68.2135 93.5814 68.5371 93.3262C68.8607 93.0664 69.0225 92.6904 69.0225 92.1982C69.0225 91.7015 68.8857 91.3346 68.6123 91.0977C68.3434 90.8607 67.9196 90.7422 67.3408 90.7422H66.377V93.709ZM71.1621 92.123C71.1621 93.1986 70.8249 94.0212 70.1504 94.5908C69.4805 95.1605 68.5257 95.4453 67.2861 95.4453H66.377V99H64.2578V89.0059H67.4502C68.6624 89.0059 69.583 89.2679 70.2119 89.792C70.8454 90.3115 71.1621 91.0885 71.1621 92.123ZM76.0182 92.6973C75.5761 92.6973 75.2297 92.8385 74.9791 93.1211C74.7284 93.3991 74.5849 93.7956 74.5484 94.3105H77.4742C77.4651 93.7956 77.3307 93.3991 77.0709 93.1211C76.8111 92.8385 76.4602 92.6973 76.0182 92.6973ZM76.3121 99.1367C75.0816 99.1367 74.12 98.7972 73.4273 98.1182C72.7346 97.4391 72.3883 96.4775 72.3883 95.2334C72.3883 93.9528 72.7073 92.9639 73.3453 92.2666C73.9879 91.5648 74.8743 91.2139 76.0045 91.2139C77.0846 91.2139 77.9254 91.5215 78.5269 92.1367C79.1285 92.752 79.4293 93.6019 79.4293 94.6865V95.6982H74.5006C74.5234 96.2907 74.6988 96.7533 75.0269 97.0859C75.3551 97.4186 75.8154 97.585 76.4078 97.585C76.8681 97.585 77.3033 97.5371 77.7135 97.4414C78.1236 97.3457 78.552 97.193 78.9986 96.9834V98.5967C78.634 98.779 78.2444 98.9134 77.8297 99C77.415 99.0911 76.9091 99.1367 76.3121 99.1367ZM84.3127 97.4756C84.6773 97.4756 85.1148 97.3958 85.6252 97.2363V98.7881C85.1056 99.0205 84.4676 99.1367 83.7111 99.1367C82.8771 99.1367 82.2687 98.9271 81.8859 98.5078C81.5077 98.084 81.3185 97.4505 81.3185 96.6074V92.9229H80.3205V92.041L81.4689 91.3438L82.0705 89.7305H83.4035V91.3574H85.5431V92.9229H83.4035V96.6074C83.4035 96.9036 83.4855 97.1224 83.6496 97.2637C83.8182 97.4049 84.0392 97.4756 84.3127 97.4756Z" fill="#2C3652"/>
<path d="M74.9665 52.9644L74.4665 53.8304L74.9665 52.9644ZM64.872 52.5672L65.22 53.5047L65.22 53.5046L64.872 52.5672ZM57.1538 58.7236L56.2878 58.2236L57.1538 58.7236ZM56.646 62.2767L55.7075 62.622L55.7075 62.622L56.646 62.2767ZM59.0339 64.7826L59.5339 63.9166L59.5339 63.9166L59.0339 64.7826ZM63.1153 66.4992L62.7798 67.4412L62.7798 67.4412L63.1153 66.4992ZM66.3763 67.8431L66.8763 66.9771L66.3763 67.8431ZM68.9328 69.8305L69.5825 69.0703L69.5825 69.0703L68.9328 69.8305ZM76.0685 73.4592L76.2377 74.4448L76.2377 74.4448L76.0685 73.4592ZM78.8851 71.2702L78.0191 70.7702L78.0191 70.7702L78.8851 71.2702ZM80.3578 61.5079L79.3719 61.6753L79.3719 61.6753L80.3578 61.5079ZM87.6878 43.0614L88.1878 42.1953L88.1878 42.1953L87.6878 43.0614ZM83.4948 43.1025L83.0587 42.2026L83.0587 42.2026L83.4948 43.1025ZM80.0594 46.4342L79.1934 45.9342L79.1934 45.9342L80.0594 46.4342ZM78.8918 51.0751L77.8944 51.1475L77.8944 51.1475L78.8918 51.0751ZM80.9527 54.727L81.4527 53.861L80.9527 54.727ZM85.1457 54.6859L85.5818 55.5858L85.5818 55.5858L85.1457 54.6859ZM88.5811 51.3542L87.7151 50.8542L87.7151 50.8542L88.5811 51.3542ZM89.7487 46.7132L88.7514 46.7855L88.7514 46.7856L89.7487 46.7132ZM77.9858 37.46L78.4858 36.594L78.4858 36.594L77.9858 37.46ZM73.7926 37.5012L73.3566 36.6013L73.3565 36.6013L73.7926 37.5012ZM69.1894 45.4741L70.1868 45.4018L70.1868 45.4018L69.1894 45.4741ZM71.2504 49.1262L71.7504 48.2602L71.7504 48.2602L71.2504 49.1262ZM75.4436 49.085L75.8797 49.9849L75.8797 49.9849L75.4436 49.085ZM78.8791 45.7532L79.7452 46.2532L79.7452 46.2531L78.8791 45.7532ZM80.0468 41.112L79.0494 41.1844L79.0494 41.1844L80.0468 41.112ZM92.0825 57.3381L91.3099 57.973L91.3099 57.973L92.0825 57.3381ZM89.6318 56.1017L89.546 57.098L89.5461 57.0981L89.6318 56.1017ZM85.5562 57.5668L86.2089 58.3245L86.2089 58.3245L85.5562 57.5668ZM83.5788 60.6878L82.6069 60.4523L82.6069 60.4524L83.5788 60.6878ZM84.2261 64.039L84.9988 63.4042L84.9987 63.4041L84.2261 64.039ZM85.1261 64.7994L84.6261 65.6654L85.1261 64.7994ZM86.677 65.2754L86.5911 66.2717L86.5911 66.2717L86.677 65.2754ZM90.7524 63.8103L91.4051 64.5679L91.4052 64.5679L90.7524 63.8103ZM92.7298 60.6893L91.7579 60.4538L91.7578 60.454L92.7298 60.6893ZM65.5172 42.1783L64.6973 42.7508L64.6973 42.7508L65.5172 42.1783ZM63.221 40.674L63.3847 39.6875L63.3846 39.6875L63.221 40.674ZM59.9951 41.7891L59.3053 41.0651L59.3052 41.0651L59.9951 41.7891ZM58.281 45.062L57.2986 44.8756L57.2986 44.8756L58.281 45.062ZM59.05 49.3241L58.2301 49.8966L58.2301 49.8966L59.05 49.3241ZM60.2377 50.4292L60.7377 49.5631L60.2377 50.4292ZM61.3462 50.8284L61.1825 51.8149L61.1826 51.8149L61.3462 50.8284ZM64.5721 49.7134L65.262 50.4374L65.2621 50.4373L64.5721 49.7134ZM66.2862 46.4404L67.2686 46.6269L67.2687 46.6268L66.2862 46.4404ZM75.4665 52.0983C72.3365 50.2912 68.4302 50.1793 64.5239 51.6297L65.22 53.5046C68.6973 52.2136 71.961 52.3838 74.4665 53.8304L75.4665 52.0983ZM64.5239 51.6297C61.0258 52.9284 57.9377 55.3659 56.2878 58.2236L58.0198 59.2236C59.3987 56.8354 62.0812 54.67 65.22 53.5047L64.5239 51.6297ZM56.2878 58.2236C55.4478 59.6786 55.1795 61.1867 55.7075 62.622L57.5845 61.9314C57.3153 61.1997 57.3886 60.3169 58.0198 59.2236L56.2878 58.2236ZM55.7075 62.622C56.2169 64.0063 57.3245 64.9505 58.534 65.6487L59.5339 63.9166C58.5097 63.3253 57.8622 62.6862 57.5845 61.9314L55.7075 62.622ZM58.5339 65.6486C59.8163 66.389 61.3678 66.9383 62.7798 67.4412L63.4508 65.5572C61.9951 65.0387 60.6282 64.5484 59.5339 63.9166L58.5339 65.6486ZM62.7798 67.4412C64.0655 67.8992 65.1483 68.2889 65.8763 68.7092L66.8763 66.9771C65.9548 66.4451 64.6709 65.9917 63.4508 65.5572L62.7798 67.4412ZM65.8763 68.7092C66.4892 69.063 67.3039 69.7539 68.2832 70.5907L69.5825 69.0703C68.6647 68.2859 67.6871 67.4452 66.8763 66.9771L65.8763 68.7092ZM68.2831 70.5907C69.3769 71.5254 70.6244 72.595 71.916 73.3682C73.2011 74.1375 74.6863 74.7111 76.2377 74.4448L75.8992 72.4736C75.0445 72.6204 74.0702 72.3269 72.9433 71.6522C71.8228 70.9814 70.7055 70.0301 69.5825 69.0703L68.2831 70.5907ZM76.2377 74.4448C77.7456 74.1858 78.9178 73.2136 79.7512 71.7702L78.0191 70.7702C77.4021 71.8389 76.6788 72.3398 75.8992 72.4736L76.2377 74.4448ZM79.7512 71.7702C81.4011 68.9125 81.9681 65.0195 81.3437 61.3406L79.3719 61.6753C79.9322 64.9762 79.398 68.382 78.0191 70.7702L79.7512 71.7702ZM81.3437 61.3406C80.6464 57.2324 78.5965 53.9054 75.4665 52.0983L74.4665 53.8304C76.972 55.2769 78.7512 58.0182 79.3719 61.6753L81.3437 61.3406ZM88.1878 42.1953C86.6518 41.3085 84.7653 41.3757 83.0587 42.2026L83.9308 44.0024C85.1711 43.4015 86.3411 43.4385 87.1878 43.9274L88.1878 42.1953ZM83.0587 42.2026C81.4998 42.958 80.1402 44.2943 79.1934 45.9342L80.9254 46.9342C81.7022 45.5888 82.7827 44.5588 83.9309 44.0024L83.0587 42.2026ZM79.1934 45.9342C78.2466 47.574 77.7691 49.4196 77.8944 51.1475L79.8891 51.0028C79.7969 49.7303 80.1487 48.2795 80.9254 46.9342L79.1934 45.9342ZM77.8944 51.1475C78.0316 53.0389 78.9167 54.7062 80.4527 55.593L81.4527 53.861C80.606 53.3721 79.9889 52.3774 79.8891 51.0028L77.8944 51.1475ZM80.4527 55.593C81.9887 56.4798 83.8752 56.4127 85.5818 55.5858L84.7097 53.7859C83.4694 54.3869 82.2994 54.3498 81.4527 53.861L80.4527 55.593ZM85.5818 55.5858C87.1407 54.8303 88.5003 53.494 89.4471 51.8542L87.7151 50.8542C86.9383 52.1995 85.8578 53.2296 84.7097 53.7859L85.5818 55.5858ZM89.4471 51.8542C90.3939 50.2143 90.8715 48.3687 90.7461 46.6408L88.7514 46.7856C88.8437 48.058 88.4918 49.5088 87.7151 50.8542L89.4471 51.8542ZM90.7461 46.6409C90.609 44.7494 89.7237 43.0821 88.1878 42.1953L87.1878 43.9274C88.0346 44.4162 88.6517 45.4109 88.7514 46.7855L90.7461 46.6409ZM78.4858 36.594C76.9498 35.7072 75.0632 35.7743 73.3566 36.6013L74.2287 38.4011C75.4689 37.8001 76.639 37.8372 77.4858 38.3261L78.4858 36.594ZM73.3565 36.6013C71.7976 37.3567 70.4379 38.6931 69.4911 40.333L71.2232 41.333C71.9999 39.9876 73.0805 38.9575 74.2287 38.4011L73.3565 36.6013ZM69.4911 40.333C68.5443 41.9729 68.0667 43.8185 68.1921 45.5465L70.1868 45.4018C70.0945 44.1292 70.4464 42.6784 71.2232 41.333L69.4911 40.333ZM68.1921 45.5465C68.3292 47.438 69.2143 49.1054 70.7504 49.9922L71.7504 48.2602C70.9036 47.7713 70.2865 46.7765 70.1868 45.4018L68.1921 45.5465ZM70.7504 49.9922C72.2864 50.8791 74.173 50.8119 75.8797 49.9849L75.0076 48.1851C73.7672 48.7861 72.5972 48.7491 71.7504 48.2602L70.7504 49.9922ZM75.8797 49.9849C77.4387 49.2295 78.7983 47.8932 79.7452 46.2532L78.0131 45.2532C77.2363 46.5986 76.1558 47.6287 75.0076 48.1851L75.8797 49.9849ZM79.7452 46.2531C80.6919 44.6132 81.1695 42.7676 81.0442 41.0397L79.0494 41.1844C79.1417 42.4568 78.7898 43.9077 78.0131 45.2532L79.7452 46.2531ZM81.0442 41.0397C80.9071 39.1482 80.0219 37.4808 78.4858 36.594L77.4858 38.3261C78.3327 38.815 78.9498 39.8097 79.0494 41.1844L81.0442 41.0397ZM92.8551 56.7032C92.084 55.7648 90.9562 55.212 89.7175 55.1054L89.5461 57.0981C90.2986 57.1628 90.9116 57.4882 91.3099 57.973L92.8551 56.7032ZM89.7177 55.1054C88.0322 54.9602 86.2885 55.616 84.9035 56.8092L86.2089 58.3245C87.2598 57.419 88.4871 57.0068 89.546 57.098L89.7177 55.1054ZM84.9035 56.8092C83.7673 57.7881 82.9412 59.0727 82.6069 60.4523L84.5507 60.9233C84.7762 59.9925 85.3544 59.0606 86.2089 58.3245L84.9035 56.8092ZM82.6069 60.4524C82.2361 61.983 82.4959 63.5088 83.4536 64.674L84.9987 63.4041C84.5027 62.8006 84.3029 61.9461 84.5507 60.9232L82.6069 60.4524ZM83.4535 64.6739C83.7833 65.0753 84.1808 65.4083 84.6261 65.6654L85.6261 63.9334C85.3829 63.7929 85.1718 63.6147 84.9988 63.4042L83.4535 64.6739ZM84.6261 65.6654C85.2164 66.0062 85.886 66.211 86.5911 66.2717L86.7628 64.2791C86.3327 64.2421 85.9485 64.1195 85.6261 63.9334L84.6261 65.6654ZM86.5911 66.2717C88.2765 66.4169 90.0202 65.7611 91.4051 64.5679L90.0997 63.0527C89.0488 63.9581 87.8215 64.3703 86.7628 64.2791L86.5911 66.2717ZM91.4052 64.5679C92.5412 63.5891 93.3676 62.3045 93.7017 60.9247L91.7578 60.454C91.5325 61.3846 90.9542 62.3165 90.0997 63.0527L91.4052 64.5679ZM93.7016 60.9248C94.0726 59.3941 93.8126 57.8682 92.8551 56.7032L91.3099 57.973C91.8058 58.5764 92.0057 59.4311 91.7579 60.4538L93.7016 60.9248ZM66.3372 41.6058C65.6254 40.5864 64.5827 39.8862 63.3847 39.6875L63.0574 41.6605C63.6764 41.7632 64.2648 42.1313 64.6973 42.7508L66.3372 41.6058ZM63.3846 39.6875C61.8968 39.4409 60.4454 39.9787 59.3053 41.0651L60.6849 42.513C61.4468 41.7871 62.2869 41.5328 63.0575 41.6605L63.3846 39.6875ZM59.3052 41.0651C58.2776 42.0444 57.5781 43.4023 57.2986 44.8756L59.2635 45.2484C59.4738 44.1404 59.9917 43.1736 60.6849 42.513L59.3052 41.0651ZM57.2986 44.8756C56.9578 46.6717 57.2617 48.5096 58.2301 49.8966L59.8699 48.7516C59.2616 47.8804 59.0049 46.6114 59.2635 45.2484L57.2986 44.8756ZM58.2301 49.8966C58.6352 50.4769 59.1473 50.9543 59.7377 51.2952L60.7377 49.5631C60.4152 49.377 60.117 49.1055 59.8699 48.7516L58.2301 49.8966ZM59.7377 51.2952C60.1831 51.5524 60.6702 51.7299 61.1825 51.8149L61.5098 49.8419C61.2408 49.7972 60.9808 49.7035 60.7377 49.5631L59.7377 51.2952ZM61.1826 51.8149C62.6706 52.0616 64.1218 51.5238 65.262 50.4374L63.8823 48.9895C63.1205 49.7154 62.2805 49.9696 61.5097 49.8419L61.1826 51.8149ZM65.2621 50.4373C66.2896 49.458 66.9889 48.1002 67.2686 46.6269L65.3037 46.2538C65.0934 47.362 64.5754 48.3289 63.8822 48.9895L65.2621 50.4373ZM67.2687 46.6268C67.6094 44.8307 67.3055 42.9927 66.3371 41.6058L64.6973 42.7508C65.3056 43.6221 65.5623 44.891 65.3037 46.254L67.2687 46.6268Z" fill="url(#paint0_linear)"/>
<defs>
<filter id="filter0_d" x="0" y="0" width="150" height="150" filterUnits="userSpaceOnUse" color-interpolation-filters="sRGB">
<feFlood flood-opacity="0" result="BackgroundImageFix"/>
<feColorMatrix in="SourceAlpha" type="matrix" values="0 0 0 0 0 0 0 0 0 0 0 0 0 0 0 0 0 0 127 0"/>
<feOffset dy="6"/>
<feGaussianBlur stdDeviation="7.5"/>
<feColorMatrix type="matrix" values="0 0 0 0 0 0 0 0 0 0 0 0 0 0 0 0 0 0 0.05 0"/>
<feBlend mode="normal" in2="BackgroundImageFix" result="effect1_dropShadow"/>
<feBlend mode="normal" in="SourceGraphic" in2="effect1_dropShadow" result="shape"/>
</filter>
<linearGradient id="paint0_linear" x1="56.4365" y1="55.2327" x2="92.881" y2="55.3738" gradientUnits="userSpaceOnUse">
<stop stop-color="#00D7AF"/>
<stop offset="1" stop-color="#46737A"/>
</linearGradient>
</defs>
</svg>
