<svg width="126" height="126" viewBox="0 0 126 126" fill="none" xmlns="http://www.w3.org/2000/svg">
<g filter="url(#filter0_d)">
<rect x="15" y="9" width="96" height="96" rx="20" fill="white"/>
</g>
<path fill-rule="evenodd" clip-rule="evenodd" d="M62.9596 54.5568C59.5783 52.6046 55.2763 52.4354 50.8462 54.0802C46.864 55.5586 43.4016 58.3204 41.5844 61.4679C40.7016 62.9969 40.4966 64.4314 40.975 65.7317C41.4472 67.0151 42.5003 67.9651 43.8405 68.7387C45.2665 69.562 47.0176 70.1858 48.7382 70.7987C50.2416 71.3342 51.6617 71.84 52.6514 72.4114C53.5056 72.9046 54.5809 73.8235 55.7192 74.7962C58.3793 77.0696 61.3946 79.6464 64.2819 79.1506C65.6545 78.915 66.7917 78.0311 67.662 76.5238C69.4793 73.3763 70.14 68.997 69.4292 64.8091C68.6384 60.15 66.3409 56.509 62.9596 54.5568Z" stroke="#6480EB" stroke-width="2.5"/>
<path fill-rule="evenodd" clip-rule="evenodd" d="M78.2252 42.6734C76.7955 41.848 74.9616 41.8661 73.1935 42.7228C71.5693 43.5099 70.1052 44.9297 69.0711 46.7208C68.037 48.5119 67.5393 50.4897 67.6699 52.2899C67.812 54.2495 68.7134 55.8468 70.143 56.6722C71.5727 57.4976 73.4065 57.4795 75.1747 56.6228C76.7989 55.8357 78.263 54.4159 79.2971 52.6248C80.3312 50.8337 80.8289 48.8558 80.6983 47.0557C80.5562 45.096 79.6548 43.4988 78.2252 42.6734Z" stroke="#6480EB" stroke-width="2.5"/>
<path fill-rule="evenodd" clip-rule="evenodd" d="M66.5832 35.9521C65.1535 35.1267 63.3194 35.1447 61.5513 36.0015C59.927 36.7886 58.4629 38.2085 57.4287 39.9996C56.3946 41.7908 55.8969 43.7687 56.0275 45.569C56.1696 47.5287 57.0709 49.126 58.5006 49.9515C59.9303 50.7769 61.7643 50.7588 63.5325 49.902C65.1568 49.1149 66.6209 47.6951 67.6551 45.9039C68.6892 44.1126 69.1869 42.1347 69.0563 40.3345C68.9142 38.3748 68.0129 36.7775 66.5832 35.9521Z" stroke="#6480EB" stroke-width="2.5"/>
<path fill-rule="evenodd" clip-rule="evenodd" d="M83.4991 59.8052C82.7974 58.9514 81.7529 58.4244 80.5582 58.3216C78.9117 58.1798 77.129 58.8206 75.6674 60.0798C74.4731 61.1087 73.6304 62.4387 73.2946 63.8249C72.9235 65.357 73.1992 66.7852 74.0714 67.8464C74.3731 68.2136 74.7382 68.5203 75.1514 68.7588C75.699 69.075 76.3313 69.2714 77.0124 69.3301C78.6588 69.4719 80.4414 68.8311 81.903 67.5719C83.0973 66.5429 83.9401 65.213 84.2757 63.8267C84.647 62.2947 84.3711 60.8663 83.4991 59.8052Z" stroke="#6480EB" stroke-width="2.5"/>
<path fill-rule="evenodd" clip-rule="evenodd" d="M51.6205 41.6144C50.9339 40.6311 49.9553 39.9901 48.865 39.8093C47.51 39.5847 46.1351 40.0599 44.9939 41.1474C43.9614 42.1312 43.2309 43.5261 42.937 45.0749C42.5775 46.9704 42.9138 48.8345 43.8598 50.1894C44.2511 50.7499 44.7373 51.1992 45.285 51.5155C45.6982 51.754 46.1464 51.9168 46.6152 51.9946C47.9704 52.2192 49.3452 51.7439 50.4864 50.6566C51.5187 49.6726 52.2492 48.2778 52.5432 46.7289C52.9028 44.8335 52.5664 42.9693 51.6205 41.6144Z" stroke="#6480EB" stroke-width="2.5"/>
<defs>
<filter id="filter0_d" x="0" y="0" width="126" height="126" filterUnits="userSpaceOnUse" color-interpolation-filters="sRGB">
<feFlood flood-opacity="0" result="BackgroundImageFix"/>
<feColorMatrix in="SourceAlpha" type="matrix" values="0 0 0 0 0 0 0 0 0 0 0 0 0 0 0 0 0 0 127 0"/>
<feOffset dy="6"/>
<feGaussianBlur stdDeviation="7.5"/>
<feColorMatrix type="matrix" values="0 0 0 0 0 0 0 0 0 0 0 0 0 0 0 0 0 0 0.05 0"/>
<feBlend mode="normal" in2="BackgroundImageFix" result="effect1_dropShadow"/>
<feBlend mode="normal" in="SourceGraphic" in2="effect1_dropShadow" result="shape"/>
</filter>
</defs>
</svg>
