<svg width="150" height="150" viewBox="0 0 150 150" fill="none" xmlns="http://www.w3.org/2000/svg">
<g filter="url(#filter0_d)">
<rect x="15" y="9" width="120" height="120" rx="20" fill="white"/>
</g>
<path d="M66.377 93.709H67.0742C67.7259 93.709 68.2135 93.5814 68.5371 93.3262C68.8607 93.0664 69.0225 92.6904 69.0225 92.1982C69.0225 91.7015 68.8857 91.3346 68.6123 91.0977C68.3434 90.8607 67.9196 90.7422 67.3408 90.7422H66.377V93.709ZM71.1621 92.123C71.1621 93.1986 70.8249 94.0212 70.1504 94.5908C69.4805 95.1605 68.5257 95.4453 67.2861 95.4453H66.377V99H64.2578V89.0059H67.4502C68.6624 89.0059 69.583 89.2679 70.2119 89.792C70.8454 90.3115 71.1621 91.0885 71.1621 92.123ZM76.0182 92.6973C75.5761 92.6973 75.2297 92.8385 74.9791 93.1211C74.7284 93.3991 74.5849 93.7956 74.5484 94.3105H77.4742C77.4651 93.7956 77.3307 93.3991 77.0709 93.1211C76.8111 92.8385 76.4602 92.6973 76.0182 92.6973ZM76.3121 99.1367C75.0816 99.1367 74.12 98.7972 73.4273 98.1182C72.7346 97.4391 72.3883 96.4775 72.3883 95.2334C72.3883 93.9528 72.7073 92.9639 73.3453 92.2666C73.9879 91.5648 74.8743 91.2139 76.0045 91.2139C77.0846 91.2139 77.9254 91.5215 78.5269 92.1367C79.1285 92.752 79.4293 93.6019 79.4293 94.6865V95.6982H74.5006C74.5234 96.2907 74.6988 96.7533 75.0269 97.0859C75.3551 97.4186 75.8154 97.585 76.4078 97.585C76.8681 97.585 77.3033 97.5371 77.7135 97.4414C78.1236 97.3457 78.552 97.193 78.9986 96.9834V98.5967C78.634 98.779 78.2444 98.9134 77.8297 99C77.415 99.0911 76.9091 99.1367 76.3121 99.1367ZM84.3127 97.4756C84.6773 97.4756 85.1148 97.3958 85.6252 97.2363V98.7881C85.1056 99.0205 84.4676 99.1367 83.7111 99.1367C82.8771 99.1367 82.2687 98.9271 81.8859 98.5078C81.5077 98.084 81.3185 97.4505 81.3185 96.6074V92.9229H80.3205V92.041L81.4689 91.3438L82.0705 89.7305H83.4035V91.3574H85.5431V92.9229H83.4035V96.6074C83.4035 96.9036 83.4855 97.1224 83.6496 97.2637C83.8182 97.4049 84.0392 97.4756 84.3127 97.4756Z" fill="#2C3652"/>
<path fill-rule="evenodd" clip-rule="evenodd" d="M74.9663 52.9645C72.1485 51.3376 68.5635 51.1966 64.8718 52.5673C61.5533 53.7993 58.668 56.1008 57.1536 58.7237C56.418 59.9979 56.2472 61.1933 56.6458 62.2768C57.0393 63.3464 57.9169 64.138 59.0337 64.7827C60.2221 65.4688 61.6813 65.9886 63.1151 66.4993C64.368 66.9456 65.5513 67.3671 66.3761 67.8433C67.088 68.2543 67.9841 69.02 68.9326 69.8306C71.1493 71.7251 73.6621 73.8724 76.0682 73.4593C77.212 73.2629 78.1597 72.5264 78.8849 71.2703C80.3994 68.6474 80.9499 64.998 80.3576 61.5081C79.6986 57.6254 77.784 54.5913 74.9663 52.9645Z" stroke="#6480EB" stroke-width="2"/>
<path fill-rule="evenodd" clip-rule="evenodd" d="M87.6876 43.0613C86.4962 42.3735 84.968 42.3885 83.4946 43.1024C82.141 43.7583 80.921 44.9415 80.0592 46.4341C79.1974 47.9267 78.7827 49.5749 78.8915 51.0751C79.01 52.7081 79.7611 54.0391 80.9525 54.7269C82.1438 55.4148 83.6721 55.3997 85.1455 54.6858C86.4991 54.0299 87.7191 52.8467 88.5809 51.3541C89.4426 49.8615 89.8574 48.2133 89.7485 46.7132C89.6301 45.0801 88.8789 43.7491 87.6876 43.0613Z" stroke="#6480EB" stroke-width="2"/>
<path fill-rule="evenodd" clip-rule="evenodd" d="M77.9856 37.4601C76.7942 36.7722 75.2658 36.7872 73.7924 37.5012C72.4388 38.1571 71.2187 39.3404 70.3569 40.833C69.4951 42.3257 69.0804 43.9739 69.1892 45.4742C69.3076 47.1073 70.0587 48.4384 71.2502 49.1262C72.4416 49.8141 73.9699 49.799 75.4434 49.085C76.797 48.4291 78.0171 47.2459 78.8789 45.7532C79.7406 44.2605 80.1554 42.6122 80.0466 41.1121C79.9282 39.479 79.177 38.148 77.9856 37.4601Z" stroke="#6480EB" stroke-width="2"/>
<path fill-rule="evenodd" clip-rule="evenodd" d="M92.0823 57.3381C91.4976 56.6266 90.6272 56.1874 89.6316 56.1018C88.2595 55.9835 86.7739 56.5176 85.5559 57.5669C84.5606 58.4244 83.8584 59.5327 83.5786 60.6878C83.2693 61.9646 83.4991 63.1547 84.2259 64.0391C84.4773 64.3451 84.7816 64.6006 85.1259 64.7994C85.5822 65.0629 86.1092 65.2266 86.6767 65.2755C88.0488 65.3937 89.5342 64.8597 90.7522 63.8104C91.7475 62.9528 92.4498 61.8446 92.7295 60.6894C93.0389 59.4126 92.809 58.2224 92.0823 57.3381Z" stroke="#6480EB" stroke-width="2"/>
<path fill-rule="evenodd" clip-rule="evenodd" d="M65.517 42.1784C64.9449 41.359 64.1294 40.8248 63.2208 40.6741C62.0916 40.487 60.9459 40.883 59.9949 41.7892C59.1344 42.6091 58.5257 43.7715 58.2808 45.0621C57.9812 46.6417 58.2614 48.1951 59.0498 49.3242C59.3759 49.7913 59.7811 50.1658 60.2375 50.4293C60.5818 50.6281 60.9553 50.7637 61.3459 50.8285C62.4753 51.0158 63.6209 50.6197 64.5719 49.7135C65.4322 48.8936 66.0409 47.7312 66.286 46.4405C66.5857 44.861 66.3053 43.3075 65.517 42.1784Z" stroke="#6480EB" stroke-width="2"/>
<defs>
<filter id="filter0_d" x="0" y="0" width="150" height="150" filterUnits="userSpaceOnUse" color-interpolation-filters="sRGB">
<feFlood flood-opacity="0" result="BackgroundImageFix"/>
<feColorMatrix in="SourceAlpha" type="matrix" values="0 0 0 0 0 0 0 0 0 0 0 0 0 0 0 0 0 0 127 0"/>
<feOffset dy="6"/>
<feGaussianBlur stdDeviation="7.5"/>
<feColorMatrix type="matrix" values="0 0 0 0 0 0 0 0 0 0 0 0 0 0 0 0 0 0 0.05 0"/>
<feBlend mode="normal" in2="BackgroundImageFix" result="effect1_dropShadow"/>
<feBlend mode="normal" in="SourceGraphic" in2="effect1_dropShadow" result="shape"/>
</filter>
</defs>
</svg>
