<svg xmlns="http://www.w3.org/2000/svg" width="42" height="42" viewBox="0 0 42 42">
    <g fill="#FFF" fill-rule="evenodd" stroke="#FFF" stroke-width="2">
        <path d="M8.291 2.344c-1.609 0-3.06 1.524-4.341 2.878-.263.27-.513.538-.762.782-1.23 1.228-1.103 4.474.32 8.251 1.762 4.677 5.263 9.782 9.86 14.375 4.6 4.598 9.696 8.1 14.366 9.86 3.783 1.427 7.022 1.551 8.258.317.242-.244.505-.493.775-.75 1.386-1.314 2.948-2.806 2.883-4.454-.046-1.137-.873-2.36-2.457-3.626-4.736-3.804-6.056-2.457-8.25-.237l-.434.434c-1.044 1.051-2.744.82-5.063-.683-1.603-1.046-3.587-2.746-5.892-5.052-5.69-5.69-7.515-9.173-5.728-10.96l.426-.42c2.234-2.201 3.573-3.521-.23-8.257-1.274-1.585-2.496-2.412-3.626-2.458H8.29zM33.147 41c-1.668 0-3.678-.42-5.886-1.255-4.848-1.826-10.114-5.439-14.845-10.163-4.728-4.73-8.335-10.005-10.168-14.854C.586 10.326.586 6.708 2.234 5.05c.244-.235.486-.492.737-.755C4.48 2.706 6.228.905 8.449 1.004c1.563.059 3.074 1.03 4.625 2.957 4.565 5.683 2.509 7.706.124 10.057l-.427.42c-.387.389-1.123 2.195 5.734 9.054 2.24 2.24 4.145 3.877 5.676 4.869.958.624 2.673 1.57 3.376.86l.427-.428c2.345-2.378 4.374-4.433 10.056.138 1.926 1.544 2.891 3.056 2.957 4.62.092 2.259-1.714 3.974-3.305 5.485-.255.25-.51.486-.748.723-.827.827-2.14 1.241-3.797 1.241zM33.188 16.556a.77.77 0 0 1-.26-.044c-.344-.139-.515-.511-.37-.839.862-2.022.365-4.326-1.253-5.876-1.67-1.582-4.234-2.022-6.387-1.103-.338.145-.743 0-.896-.32a.635.635 0 0 1 .34-.857c2.663-1.146 5.837-.592 7.898 1.372 2.014 1.91 2.624 4.762 1.55 7.27a.678.678 0 0 1-.622.397"/>
        <path d="M39.46 19.519a.638.638 0 0 1-.243-.045.657.657 0 0 1-.35-.852c1.752-4.43.75-9.467-2.542-12.843-3.38-3.471-8.58-4.44-12.937-2.418a.645.645 0 0 1-.85-.335.665.665 0 0 1 .318-.866C27.7-.086 33.478.992 37.234 4.85c3.66 3.747 4.762 9.349 2.821 14.264a.643.643 0 0 1-.594.405"/>
    </g>
</svg>
