<svg xmlns="http://www.w3.org/2000/svg" width="57" height="50" viewBox="0 0 57 50">
    <g fill="#99BBC1" fill-rule="evenodd">
        <path d="M28.743 26.513a3.033 3.033 0 1 1 0-6.066 3.033 3.033 0 0 1 0 6.066m0-8.823a5.79 5.79 0 1 0 0 11.58 5.79 5.79 0 0 0 0-11.58"/>
        <path d="M53.973 10.219l-.003.027-3.24 27.984a2.343 2.343 0 0 1-.896 1.86c-.275.276-.896.414-.896.552v-24.33a5.927 5.927 0 0 0-5.79-5.72H10.204l.62-5.377a3.17 3.17 0 0 1 1.034-1.792 3.17 3.17 0 0 1 2.068-.552l37.564 4.343a2.757 2.757 0 0 1 2.484 3.005zM46.18 27.89l-15.025 8.753a3.515 3.515 0 0 1-4.067-.344l-7.581-6.686a6.134 6.134 0 0 0-7.651-.276l-9.098 6.617V16.312c0-1.517 1.034-2.964 2.55-2.964h37.84a3.17 3.17 0 0 1 3.032 2.964v11.58zm0 16.61c0 1.517-1.516 2.62-3.032 2.62H5.309a2.481 2.481 0 0 1-2.55-2.62v-5.1l10.683-7.857a3.308 3.308 0 0 1 4.274.207l7.512 6.617a6.48 6.48 0 0 0 4.067 1.516 6.272 6.272 0 0 0 3.308-.896l13.578-7.857V44.5zm5.652-40.044L14.2.183a5.169 5.169 0 0 0-4.066 1.172A5.238 5.238 0 0 0 8.135 4.94l-.689 5.652H5.309c-3.033 0-5.307 2.688-5.307 5.72v28.19a5.238 5.238 0 0 0 5.307 5.377h37.84c3.032 0 5.79-2.343 5.79-5.376v-1.103a6.89 6.89 0 0 0 2.618-1.103 5.72 5.72 0 0 0 2-3.722l3.17-27.983a5.583 5.583 0 0 0-4.894-6.134z"/>
    </g>
</svg>
