<svg xmlns="http://www.w3.org/2000/svg" xmlns:xlink="http://www.w3.org/1999/xlink" width="99" height="100" viewBox="0 0 99 100">
    <defs>
        <path id="a" d="M0 .166h98.693V100H0z"/>
    </defs>
    <g fill="none" fill-rule="evenodd">
        <g>
            <mask id="b" fill="#fff">
                <use xlink:href="#a"/>
            </mask>
            <path fill="#6D6E71" d="M18.804 87.76c-.467 1.857-.924 3.608-1.341 5.367-.158.667.164 1.196.812 1.363 2.764.7 5.537 1.37 8.314 2.016.751.172 1.275-.168 1.467-.937.142-.566.247-1.147.445-1.691.249-.682.082-.995-.62-1.316-2.229-1.018-4.42-2.123-6.599-3.246-.836-.432-1.598-.999-2.478-1.555zm46.693 5.254c.21.848.409 1.664.611 2.48.213.848.772 1.2 1.618 1a673.787 673.787 0 0 0 8.127-1.979c.656-.164 1.037-.653.886-1.319-.407-1.796-.88-3.577-1.325-5.364-1.676.97-3.227 1.945-4.847 2.791-1.62.846-3.308 1.567-5.07 2.39zm-32.982-75.73C32.503 24.83 38.689 30.95 46.36 30.98c7.695.03 13.994-6.122 14-13.673.006-7.525-6.179-13.626-13.88-13.687-7.7-.062-13.952 6.055-13.966 13.665zm5.174 14.926c-1.133-.882-2.147-1.702-3.202-2.467-.212-.154-.613-.204-.874-.126-10.086 2.977-18.31 8.426-23.49 17.712-2.8 5.023-3.909 10.47-3.143 16.183 1.099 8.214 5.327 14.707 11.742 19.84 7.003 5.6 15.146 8.468 24.061 9.26 6.932.618 13.735-.11 20.28-2.486 10.916-3.964 19.226-10.67 23.135-21.896.417-1.198.906-1.515 2.203-1.529 1.281-.014 2.564.01 3.847-.008 1.84-.024 2.901-1.018 2.923-2.818.032-2.762.03-5.525.002-8.286-.02-1.824-1.038-2.81-2.895-2.85a96.239 96.239 0 0 0-4.142 0c-1.164.027-1.92-.42-2.325-1.538-1.385-3.803-3.488-7.19-6.239-10.177-.78-.848-.886-1.688-.497-2.761 1.143-3.144 2.197-6.319 3.282-9.482.09-.262.144-.537.272-1.014-1.144 0-2.16-.088-3.157.015-3.242.335-5.91 1.849-8.2 4.077-1.305 1.274-1.62 1.254-3.291.592-2.769-1.097-5.584-2.074-8.386-3.08-.247-.089-.644-.139-.816-.008-1.159.876-2.276 1.805-3.436 2.74 1.598.3 3.15.574 4.69.889 1.368.281 2.052 1.076 1.851 2.08-.218 1.093-1.16 1.559-2.558 1.285-1.385-.269-2.766-.554-4.162-.772-6.63-1.03-13.225-.894-19.779.616-.763.176-1.535.366-2.315.43-.866.069-1.457-.44-1.658-1.242-.21-.848.118-1.543.948-1.926a5.071 5.071 0 0 1 1.029-.319c1.397-.312 2.8-.61 4.3-.934zM26.04 100c-2.602-.655-5.224-1.246-7.798-1.998-1.067-.311-2.177-.803-3.005-1.512-1.325-1.137-1.514-2.745-1.107-4.397.465-1.894.92-3.787 1.444-5.663.198-.71.04-1.133-.48-1.682-2.038-2.153-4.248-4.211-5.92-6.624-6.83-9.842-7.764-20.289-2.766-31.201.122-.266.248-.529.41-.874-.635-.223-1.254-.402-1.84-.651-2.54-1.086-4.244-2.89-4.87-5.6a4.347 4.347 0 0 1-.105-.77c-.057-1.223.517-2.001 1.545-2.118.955-.109 1.815.523 1.879 1.682.12 2.173 2.25 3.866 4.589 4.062.395.032.986-.202 1.208-.507 5.46-7.505 12.83-12.348 21.6-15.274.216-.073.435-.142.651-.222.058-.021.104-.073.245-.172-2.747-4.6-3.52-9.48-1.788-14.628 1.222-3.639 3.494-6.517 6.673-8.69 6.22-4.254 14.579-3.965 20.693.795 3.406 2.652 5.51 6.14 6.251 10.389.734 4.197-.088 8.123-2.215 11.756 2.5.982 4.924 1.959 7.373 2.864.259.095.742-.13.999-.349 2.544-2.169 5.41-3.662 8.759-4.163 2.145-.321 4.26-.18 6.32.525 1.777.606 2.113 1.281 1.516 3.016-1.17 3.41-2.327 6.822-3.534 10.22-.223.63-.155 1.057.282 1.56 2.28 2.635 4.104 5.554 5.415 8.773.255.624.604.806 1.251.77a30.715 30.715 0 0 1 2.96.003c3.353.148 5.895 2.642 5.967 5.95.066 2.955.066 5.915.002 8.87-.072 3.452-2.7 5.899-6.34 6.002-1.017.027-2.034.004-2.8.004-1.365 2.527-2.547 4.954-3.949 7.251-1.67 2.74-3.83 5.119-6.289 7.203-.657.558-.86 1.045-.613 1.901.57 1.997 1.087 4.015 1.473 6.051.484 2.554-.922 4.641-3.474 5.295-2.7.693-5.419 1.321-8.127 1.98-.156.039-.303.114-.455.173h-1.776c-2.9-.895-3.695-3.292-4.096-5.952-10.146 2.904-20.12 2.888-30.24-.002-.35 2.747-1.193 5.106-4.143 5.954H26.04z" mask="url(#b)"/>
        </g>
        <path fill="#FFF" d="M70.608 48.193c.02 1.294 1.192 2.409 2.483 2.36 1.251-.043 2.333-1.174 2.32-2.426-.017-1.291-1.186-2.404-2.481-2.359-1.26.046-2.342 1.175-2.322 2.425m.76 31.331c-.384-.544-.639-1.115-1.072-1.466-.587-.477-1.323-.388-1.894.099-1.962 1.673-4.194 2.802-6.659 3.535-1.018.305-1.454 1.26-1.16 2.147.295.884 1.21 1.353 2.215 1.083 2.833-.763 5.405-2.041 7.591-4.02.36-.326.581-.81.979-1.378M36.83 32.044c-1.488.325-2.878.623-4.265.937-.348.078-.7.171-1.02.32-.824.384-1.15 1.081-.941 1.932.199.805.783 1.316 1.645 1.244.772-.061 1.54-.252 2.298-.43 6.503-1.515 13.048-1.65 19.627-.617 1.382.218 2.755.505 4.13.775 1.384.274 2.321-.193 2.538-1.29.2-1.008-.48-1.804-1.836-2.087-1.53-.316-3.07-.59-4.655-.892 1.152-.938 2.26-1.87 3.41-2.749.17-.13.565-.081.81.008 2.78 1.01 5.574 1.99 8.32 3.09 1.66.665 1.97.684 3.267-.593 2.272-2.236 4.92-3.755 8.137-4.09.989-.104 1.997-.016 3.133-.016-.127.479-.183.753-.272 1.017-1.075 3.174-2.121 6.36-3.255 9.514-.386 1.077-.282 1.92.493 2.77 2.73 2.997 4.817 6.396 6.19 10.211.403 1.121 1.153 1.57 2.31 1.543a94.453 94.453 0 0 1 4.11 0c1.84.04 2.852 1.03 2.87 2.86.03 2.77.032 5.542 0 8.313-.022 1.806-1.074 2.804-2.9 2.828-1.274.018-2.547-.006-3.818.008-1.287.014-1.773.332-2.187 1.534-3.879 11.263-12.125 17.992-22.957 21.969-6.495 2.385-13.245 3.114-20.127 2.494-8.844-.795-16.925-3.673-23.874-9.291-6.366-5.15-10.562-11.664-11.654-19.906C5.6 57.72 6.7 52.251 9.478 47.213 14.62 37.896 22.78 32.43 32.788 29.44c.259-.076.656-.026.867.129 1.047.767 2.053 1.59 3.175 2.474"/>
        <path fill="#FFF" d="M45.089 21.87c-1.11-.257-1.25-1.01-1.42-1.747-.261-1.113-.948-1.632-1.981-1.51-.978.114-1.543.852-1.506 1.973.072 2.184 1.625 4.035 4.028 4.725.558.16.914.33 1.076.953.193.728.842 1.085 1.627 1.077.784-.006 1.418-.369 1.603-1.107.165-.662.556-.824 1.159-.981 3.207-.848 4.762-3.93 3.588-6.957-.667-1.72-2.082-2.567-3.726-3.205-.32-.124-.788-.415-.805-.655-.084-1.16-.039-2.33-.039-3.568 1.008.224 1.263.886 1.42 1.656.22 1.077 1.004 1.687 1.954 1.571.994-.121 1.576-.863 1.537-1.96-.072-2.146-1.518-3.933-3.843-4.647-.64-.198-1.023-.433-1.323-1.093-.216-.475-1.002-.94-1.553-.964-.506-.024-1.321.445-1.498.886-.296.74-.782.93-1.44 1.129-3.16.957-4.675 4.342-3.232 7.186.744 1.47 2.147 2.084 3.619 2.635.302.111.705.456.722.712.074 1.268.033 2.54.033 3.891m-12.43-5.048C32.675 9.159 39.092 3 46.995 3.062c7.902.062 14.25 6.205 14.243 13.782-.006 7.603-6.47 13.798-14.367 13.768-7.873-.03-14.225-6.193-14.21-13.79M65.32 92.608c1.754-.772 3.435-1.447 5.048-2.241 1.613-.792 3.158-1.703 4.826-2.612.444 1.673.915 3.341 1.32 5.022.15.625-.23 1.081-.882 1.235a669.237 669.237 0 0 1-8.093 1.855c-.842.188-1.399-.144-1.61-.938-.202-.763-.402-1.527-.61-2.321M18.736 87.755c.884.517 1.648 1.043 2.487 1.444 2.187 1.043 4.386 2.07 6.624 3.016.704.298.87.588.621 1.221-.199.506-.304 1.045-.446 1.571-.194.714-.719 1.03-1.473.87-2.787-.6-5.57-1.22-8.344-1.872-.65-.155-.973-.646-.815-1.266.419-1.634.878-3.26 1.346-4.984"/>
        <path fill="#6D6E71" d="M73.485 79.305c-.41.561-.64 1.035-1.01 1.358-2.258 1.946-4.914 3.204-7.838 3.955-1.037.268-1.982-.196-2.286-1.066-.304-.87.146-1.813 1.197-2.11 2.545-.725 4.85-1.836 6.874-3.483.59-.48 1.35-.567 1.956-.098.447.347.71.91 1.107 1.444M71.444 48.503c-.022-1.332 1.128-2.534 2.466-2.583 1.376-.049 2.62 1.137 2.636 2.513.015 1.334-1.135 2.54-2.464 2.586-1.372.05-2.617-1.137-2.638-2.516"/>
        <path fill="#8DE2D2" d="M44.6 10.524c-.973.455-1.43 1.111-1.2 1.98.121.46.63.817.963 1.222l.237-.2v-3.002zm3.63 8.04v3.33c.875-.095 1.258-.62 1.31-1.399.063-.917-.265-1.614-1.31-1.93zm-3.583 3.382c0-1.383.04-2.689-.033-3.987-.016-.263-.413-.615-.71-.731-1.447-.562-2.828-1.191-3.56-2.697a5.278 5.278 0 0 1 3.18-7.362c.647-.205 1.125-.399 1.416-1.157.174-.451.976-.932 1.474-.91.542.027 1.315.503 1.528.99.295.674.672.917 1.301 1.117 2.287.734 3.71 2.565 3.78 4.763.04 1.124-.535 1.884-1.511 2.01-.935.118-1.706-.508-1.923-1.611-.154-.789-.405-1.467-1.396-1.696 0 1.269-.045 2.466.038 3.656.016.245.478.541.791.67 1.618.654 3.01 1.522 3.666 3.283 1.156 3.1-.375 6.26-3.53 7.128-.593.16-.978.326-1.14 1.005-.182.756-.805 1.126-1.576 1.134-.773.008-1.41-.358-1.601-1.104-.16-.637-.512-.813-1.059-.976-2.364-.707-3.892-2.603-3.963-4.84-.036-1.15.52-1.907 1.482-2.022 1.016-.124 1.692.407 1.95 1.545.167.758.305 1.528 1.396 1.792z"/>
        <path fill="#FFF" d="M47.97 18.367c1.619.388 2.126 1.242 2.029 2.367-.082.954-.674 1.597-2.03 1.715v-4.082zM44.907 11.224v3.827l-.384.255c-.541-.516-1.365-.971-1.562-1.558-.374-1.107.368-1.943 1.946-2.524"/>
    </g>
</svg>
