<svg width="28" height="28" viewBox="0 0 28 28" fill="none" xmlns="http://www.w3.org/2000/svg">
<path fill-rule="evenodd" clip-rule="evenodd" d="M5.27394 24.5673C5.14293 25.0879 5.01474 25.579 4.89779 26.0723C4.85337 26.2595 4.94389 26.4078 5.1255 26.4545C5.90086 26.6511 6.67847 26.8389 7.4572 27.02C7.66804 27.0684 7.81479 26.9728 7.86877 26.7573C7.90869 26.5984 7.93793 26.4356 7.99359 26.2828C8.06331 26.0917 8.01665 26.0039 7.81985 25.9139C7.19462 25.6284 6.58007 25.3184 5.96889 25.0034C5.73443 24.8823 5.52077 24.7234 5.27394 24.5673ZM18.3696 26.0406C18.4286 26.2784 18.4843 26.5073 18.541 26.7361C18.6006 26.9739 18.7575 27.0728 18.9948 27.0167C19.7555 26.8361 20.5157 26.6517 21.2742 26.4617C21.458 26.4156 21.5649 26.2784 21.5227 26.0917C21.4086 25.5878 21.2759 25.0884 21.1511 24.5873C20.681 24.8595 20.2458 25.1329 19.7915 25.3701C19.3372 25.6073 18.8638 25.8095 18.3696 26.0406ZM9.11924 4.80115C9.11586 6.91721 10.851 8.63383 13.0028 8.64216C15.1607 8.6505 16.9274 6.92498 16.929 4.80726C16.9307 2.69676 15.1962 0.98569 13.0365 0.968468C10.8769 0.951247 9.12317 2.66676 9.11924 4.80115ZM10.5704 8.98715C10.2528 8.73994 9.96825 8.50994 9.6725 8.2955C9.6129 8.25217 9.50045 8.23828 9.42736 8.25995C6.59862 9.09493 4.29223 10.6232 2.83935 13.2276C2.05387 14.6365 1.74294 16.1642 1.95772 17.7664C2.26584 20.0702 3.45165 21.8913 5.25089 23.3307C7.21486 24.9012 9.49876 25.7056 11.9991 25.9278C13.9434 26.1012 15.8512 25.8973 17.687 25.2306C20.7485 24.119 23.079 22.2379 24.1755 19.0897C24.2924 18.7536 24.4296 18.6647 24.7934 18.6608C25.1527 18.6569 25.5125 18.6636 25.8724 18.6586C26.3885 18.6519 26.6859 18.373 26.6921 17.868C26.7011 17.0936 26.7006 16.3186 26.6927 15.5442C26.6871 15.0326 26.4014 14.7559 25.8808 14.7448C25.494 14.737 25.106 14.7359 24.7192 14.7448C24.3925 14.7526 24.1805 14.627 24.0669 14.3137C23.6784 13.247 23.0886 12.2971 22.3172 11.4593C22.0985 11.2215 22.0687 10.986 22.1777 10.6849C22.4982 9.80324 22.794 8.91271 23.0982 8.02551C23.1235 7.95218 23.1386 7.87496 23.1746 7.74107C22.8536 7.74107 22.5685 7.71663 22.2891 7.74552C21.3799 7.8394 20.6315 8.26384 19.9894 8.88882C19.6234 9.24604 19.5351 9.24048 19.0662 9.05493C18.2897 8.74716 17.5003 8.47328 16.7143 8.19106C16.6451 8.16606 16.5338 8.15217 16.4854 8.18884C16.1604 8.43439 15.8472 8.69494 15.5217 8.95715C15.9698 9.0416 16.405 9.11826 16.8374 9.20659C17.2209 9.28548 17.4126 9.50825 17.3564 9.78991C17.2951 10.0966 17.0308 10.2271 16.6389 10.1505C16.2504 10.0749 15.863 9.99491 15.4717 9.93379C13.6123 9.64491 11.7624 9.68325 9.9244 10.1066C9.71017 10.156 9.4937 10.2093 9.27498 10.2271C9.03209 10.2466 8.86622 10.1038 8.81 9.8788C8.75096 9.64103 8.84317 9.44603 9.07594 9.33881C9.16647 9.29714 9.26599 9.27104 9.36438 9.24937C9.75628 9.16159 10.1499 9.07826 10.5704 8.98715ZM7.3037 28C6.57388 27.8161 5.83845 27.6506 5.11651 27.4395C4.81738 27.3522 4.50589 27.2145 4.27368 27.0156C3.90202 26.6967 3.84917 26.2456 3.96331 25.7823C4.09375 25.2512 4.22139 24.7201 4.36814 24.194C4.4238 23.9951 4.37938 23.8762 4.23376 23.7223C3.66194 23.1185 3.04233 22.5413 2.5734 21.8646C0.657778 19.1041 0.395764 16.1742 1.79748 13.1137C1.83178 13.0393 1.8672 12.9654 1.91274 12.8687C1.73451 12.8059 1.56077 12.7559 1.39659 12.6859C0.684204 12.3815 0.206282 11.8754 0.0308571 11.1154C0.0145515 11.0449 0.00443084 10.9715 0.00105727 10.8993C-0.014686 10.5566 0.146121 10.3382 0.43456 10.3055C0.702196 10.2749 0.943406 10.4521 0.961398 10.7771C0.995134 11.3865 1.59225 11.8615 2.24841 11.9165C2.35918 11.9254 2.52505 11.8599 2.58746 11.7743C4.11849 9.66936 6.18592 8.31106 8.64525 7.49052C8.70598 7.46997 8.76726 7.45053 8.82799 7.4283C8.84429 7.42219 8.85723 7.40775 8.89658 7.37997C8.12629 6.09 7.90925 4.72115 8.39505 3.2773C8.73803 2.25677 9.37507 1.44957 10.2668 0.840138C12.0109 -0.353164 14.3556 -0.272055 16.0705 1.06291C17.0257 1.80678 17.6156 2.78509 17.8236 3.97673C18.0294 5.15392 17.7989 6.255 17.2023 7.27386C17.9034 7.54941 18.5832 7.82329 19.2703 8.07718C19.3428 8.10384 19.4783 8.04051 19.5503 7.9794C20.2638 7.37108 21.0678 6.95221 22.0068 6.81165C22.6084 6.72166 23.2016 6.7611 23.7796 6.95887C24.2778 7.12887 24.3722 7.31831 24.2047 7.80496C23.8763 8.76105 23.5519 9.71825 23.2134 10.671C23.151 10.8477 23.1701 10.9677 23.2927 11.1088C23.932 11.8476 24.4437 12.6665 24.8114 13.5693C24.8828 13.7443 24.9806 13.7954 25.1622 13.7854C25.4383 13.7709 25.7155 13.7737 25.9921 13.7859C26.9328 13.8276 27.6457 14.527 27.666 15.4548C27.6845 16.2836 27.6845 17.1136 27.6665 17.9425C27.6463 18.9108 26.9092 19.5969 25.8881 19.6258C25.603 19.6335 25.318 19.6269 25.1032 19.6269C24.7203 20.3358 24.3885 21.0163 23.9955 21.6607C23.5272 22.429 22.9211 23.0962 22.2317 23.6807C22.0473 23.8373 21.9905 23.974 22.0597 24.214C22.2193 24.774 22.3644 25.3401 22.4729 25.9112C22.6084 26.6273 22.2143 27.2128 21.4985 27.3961C20.7412 27.5906 19.9787 27.7667 19.2191 27.9517C19.1753 27.9622 19.1342 27.9833 19.0915 28H18.5933C17.7803 27.7489 17.5571 27.0767 17.4446 26.3306C14.599 27.145 11.8018 27.1406 8.96349 26.33C8.8651 27.1006 8.62895 27.7622 7.8013 28H7.3037Z" fill="#6480EB"/>
<path fill-rule="evenodd" clip-rule="evenodd" d="M20.6097 22.1957C20.495 22.3532 20.4305 22.486 20.3263 22.5765C19.6932 23.1224 18.9484 23.4752 18.1282 23.6859C17.8373 23.761 17.5723 23.631 17.4871 23.3869C17.4018 23.1427 17.528 22.8783 17.8229 22.7949C18.5366 22.5919 19.1829 22.2802 19.7508 21.8183C19.9161 21.6838 20.1293 21.6592 20.2992 21.7908C20.4248 21.8879 20.4985 22.046 20.6097 22.1957Z" fill="#6480EB"/>
<path fill-rule="evenodd" clip-rule="evenodd" d="M20.0391 13.5569C20.0332 13.1834 20.3557 12.8461 20.731 12.8324C21.1169 12.8187 21.4655 13.1513 21.4703 13.5373C21.4744 13.9115 21.1519 14.2494 20.779 14.2625C20.3943 14.2767 20.0451 13.9436 20.0391 13.5569Z" fill="#6480EB"/>
<path fill-rule="evenodd" clip-rule="evenodd" d="M12.5092 2.90506C12.2361 3.03286 12.1078 3.21682 12.1725 3.46038C12.2066 3.58932 12.3491 3.68961 12.4427 3.80308C12.4649 3.78417 12.487 3.76583 12.5092 3.74692V2.90506ZM13.527 5.16014V6.09427C13.7728 6.06733 13.88 5.92005 13.8948 5.7017C13.9124 5.44439 13.8204 5.24897 13.527 5.16014ZM12.5222 6.10859C12.5222 5.72062 12.5336 5.35442 12.5131 4.99051C12.5086 4.91658 12.3973 4.81801 12.3139 4.78535C11.908 4.62775 11.5209 4.45124 11.3154 4.02888C10.9174 3.21166 11.3352 2.23914 12.2072 1.96406C12.3888 1.90675 12.5228 1.85231 12.6045 1.6397C12.6533 1.51304 12.8781 1.37837 13.0178 1.38467C13.1699 1.39212 13.3867 1.52565 13.4464 1.66205C13.5292 1.85116 13.6348 1.91936 13.8114 1.97552C14.4528 2.18126 14.8519 2.69474 14.8717 3.31138C14.8825 3.62657 14.7213 3.83976 14.4477 3.87472C14.1854 3.90796 13.9692 3.73259 13.9084 3.42313C13.8653 3.20192 13.7949 3.01165 13.5167 2.94747C13.5167 3.30335 13.5043 3.63918 13.5275 3.97271C13.5321 4.04148 13.6615 4.12458 13.7495 4.16069C14.203 4.34407 14.5936 4.58763 14.7775 5.08163C15.1016 5.951 14.6725 6.83698 13.7875 7.08054C13.6212 7.12581 13.5133 7.17223 13.4679 7.3625C13.4168 7.57454 13.242 7.67827 13.0257 7.68056C12.8089 7.68285 12.6301 7.58027 12.5767 7.37109C12.5319 7.19229 12.4331 7.14301 12.2798 7.09716C11.6168 6.89887 11.1882 6.36705 11.1684 5.73953C11.1581 5.41746 11.3142 5.20484 11.5839 5.17275C11.8688 5.13779 12.0584 5.28679 12.1305 5.606C12.1776 5.81861 12.2162 6.03467 12.5222 6.10859Z" fill="#00D7AF"/>
</svg>
