
<svg width="81" height="82" viewBox="0 0 81 82" fill="none" xmlns="http://www.w3.org/2000/svg">
<path fill-rule="evenodd" clip-rule="evenodd" d="M16.0684 71.1923C15.6941 72.6796 15.3278 74.0827 14.9937 75.4922C14.8668 76.0271 15.1254 76.4509 15.6443 76.5842C17.8596 77.1461 20.0813 77.6826 22.3063 78.2001C22.9087 78.3382 23.328 78.0652 23.4822 77.4493C23.5963 76.9953 23.6798 76.5303 23.8388 76.0938C24.038 75.5478 23.9047 75.297 23.3424 75.0398C21.5561 74.224 19.8002 73.3383 18.054 72.4383C17.3841 72.0923 16.7736 71.6383 16.0684 71.1923ZM53.4844 75.4017C53.6531 76.0811 53.8122 76.735 53.9744 77.389C54.1447 78.0683 54.5929 78.3509 55.2708 78.1905C57.4444 77.6747 59.6163 77.1477 61.7834 76.6049C62.3087 76.4731 62.6139 76.0811 62.4935 75.5478C62.1673 74.1081 61.7882 72.6812 61.4316 71.2495C60.0886 72.0272 58.8452 72.8081 57.5472 73.4859C56.2491 74.1637 54.8965 74.7414 53.4844 75.4017ZM27.055 14.7176C27.0453 20.7634 32.0029 25.6681 38.1508 25.6919C44.3164 25.7157 49.3639 20.7857 49.3687 14.735C49.3735 8.70502 44.4176 3.81626 38.2472 3.76705C32.0768 3.71785 27.0662 8.61931 27.055 14.7176ZM31.2012 26.6776C30.2936 25.9712 29.4807 25.3141 28.6357 24.7014C28.4654 24.5776 28.1441 24.538 27.9353 24.5999C19.8532 26.9855 13.2635 31.3521 9.11243 38.7931C6.8682 42.8184 5.97983 47.1834 6.5935 51.7611C7.47384 58.3434 10.8619 63.5465 16.0025 67.6591C21.6139 72.1463 28.1393 74.4446 35.2833 75.0795C40.8384 75.5747 46.2891 74.9922 51.5342 73.0875C60.2814 69.9114 66.9401 64.5369 70.0727 55.5419C70.4069 54.5816 70.7988 54.3277 71.8382 54.3166C72.8648 54.3054 73.8929 54.3245 74.921 54.3102C76.3958 54.2912 77.2456 53.4944 77.2632 52.0515C77.2889 49.8389 77.2873 47.6247 77.2648 45.412C77.2488 43.9502 76.4327 43.1597 74.9451 43.128C73.8399 43.1057 72.7314 43.1026 71.6262 43.128C70.6928 43.1502 70.0872 42.7915 69.7627 41.8962C68.6526 38.8487 66.9674 36.1345 64.7634 33.7409C64.1385 33.0615 64.0533 32.3885 64.365 31.5282C65.2807 29.0093 66.1257 26.4649 66.9948 23.93C67.067 23.7205 67.1104 23.4999 67.2132 23.1174C66.2959 23.1174 65.4815 23.0475 64.6831 23.1301C62.0854 23.3983 59.9472 24.611 58.1126 26.3966C57.0668 27.4172 56.8146 27.4014 55.4748 26.8712C53.2563 25.9919 51.0008 25.2094 48.755 24.403C48.5574 24.3316 48.2393 24.2919 48.1012 24.3967C47.1727 25.0983 46.2779 25.8427 45.3477 26.5919C46.6281 26.8331 47.8715 27.0522 49.1068 27.3045C50.2024 27.5299 50.7502 28.1664 50.5896 28.9712C50.4145 29.8473 49.6595 30.2203 48.5397 30.0013C47.4297 29.7854 46.3228 29.5569 45.2047 29.3823C39.8922 28.5569 34.6069 28.6664 29.3554 29.8759C28.7434 30.0172 28.1249 30.1696 27.5 30.2203C26.806 30.2759 26.3321 29.868 26.1714 29.2251C26.0027 28.5458 26.2662 27.9887 26.9313 27.6823C27.1899 27.5633 27.4743 27.4887 27.7554 27.4268C28.8751 27.176 29.9996 26.9379 31.2012 26.6776ZM21.8677 81C19.7825 80.4746 17.6813 80.0016 15.6186 79.3985C14.764 79.1493 13.874 78.7556 13.2105 78.1874C12.1486 77.2763 11.9976 75.9874 12.3237 74.6636C12.6964 73.1462 13.0611 71.6288 13.4804 70.1257C13.6394 69.5574 13.5125 69.2178 13.0964 68.7781C11.4627 67.0527 9.69236 65.4036 8.35257 63.4703C2.87937 55.5832 2.13076 47.212 6.13566 38.4678C6.23365 38.2551 6.33486 38.044 6.46498 37.7678C5.95573 37.5884 5.45934 37.4456 4.99025 37.2456C2.95487 36.3757 1.58938 34.9297 1.08816 32.7584C1.04158 32.5568 1.01266 32.3473 1.00302 32.1409C0.95804 31.1616 1.41749 30.5378 2.2416 30.4441C3.00628 30.3568 3.69545 30.8632 3.74685 31.7917C3.84324 33.533 5.5493 34.8901 7.42404 35.0472C7.74051 35.0726 8.21442 34.8853 8.39273 34.6409C12.7671 28.6267 18.6741 24.7459 25.7007 22.4015C25.8742 22.3428 26.0493 22.2872 26.2228 22.2237C26.2694 22.2063 26.3064 22.165 26.4188 22.0856C24.218 18.4 23.5979 14.489 24.9858 10.3637C25.9658 7.44791 27.7859 5.14162 30.3338 3.4004C35.317 -0.00904128 42.0159 0.222699 46.9156 4.03689C49.645 6.16223 51.3302 8.9574 51.9246 12.3621C52.5125 15.7255 51.8539 18.8714 50.1494 21.7825C52.1527 22.5697 54.0949 23.3523 56.058 24.0776C56.2652 24.1538 56.6524 23.9729 56.858 23.7983C58.8966 22.0602 61.1938 20.8634 63.8766 20.4619C65.5955 20.2047 67.2903 20.3174 68.9418 20.8825C70.3651 21.3682 70.635 21.9094 70.1563 23.2999C69.2181 26.0316 68.2912 28.7664 67.3241 31.4886C67.1458 31.9933 67.2004 32.3362 67.5506 32.7393C69.3771 34.8504 70.839 37.19 71.8896 39.7693C72.0937 40.2693 72.3732 40.4153 72.8921 40.3868C73.6808 40.3455 74.4728 40.3534 75.2632 40.3883C77.9508 40.5074 79.9878 42.5057 80.0456 45.1565C80.0986 47.5247 80.0986 49.896 80.0472 52.2642C79.9894 55.0308 77.8833 56.9911 74.966 57.0736C74.1515 57.0958 73.3371 57.0768 72.7234 57.0768C71.6294 59.1021 70.6816 61.0465 69.5587 62.8878C68.2205 65.0829 66.4887 66.9892 64.5192 68.659C63.9923 69.1067 63.83 69.4971 64.0276 70.1828C64.4839 71.7828 64.8983 73.4002 65.2084 75.0319C65.5955 77.0779 64.4694 78.7508 62.4244 79.2746C60.2605 79.8302 58.0821 80.3333 55.9118 80.8619C55.7865 80.8921 55.6692 80.9524 55.5471 81H54.1238C51.8009 80.2826 51.1631 78.362 50.8418 76.2303C42.7115 78.5572 34.7194 78.5445 26.61 76.2287C26.3288 78.4302 25.6541 80.3207 23.2894 81H21.8677Z" fill="#6480EB" stroke="#6480EB"/>
<path d="M52.6707 68.1896L52.67 68.1898C52.0468 68.3508 51.5791 68.0662 51.4354 67.6547C51.2916 67.2427 51.4792 66.7732 52.0589 66.6092L52.0596 66.609C54.1531 66.0136 56.0632 65.095 57.7466 63.7258C58.0773 63.4569 58.4266 63.4493 58.6917 63.6547L58.6921 63.655C58.8079 63.7446 58.9147 63.874 59.0439 64.0633C59.0814 64.1182 59.1246 64.1844 59.1716 64.2565C59.205 64.3076 59.2402 64.3616 59.2766 64.4165C59.2379 64.4746 59.2012 64.5306 59.1668 64.583C59.126 64.6451 59.0886 64.7021 59.0551 64.7515C58.9369 64.926 58.846 65.041 58.7481 65.1261C57.008 66.6265 54.9535 67.6032 52.6707 68.1896Z" fill="#6480EB" stroke="#6480EB"/>
<path d="M58.7541 39.7264L58.7541 39.7261C58.7415 38.934 59.4456 38.193 60.2488 38.1636C61.0706 38.1347 61.8328 38.8617 61.8431 39.684C61.8517 40.482 61.1439 41.2224 60.3505 41.2502L60.3495 41.2503C59.5328 41.2805 58.7668 40.5531 58.7541 39.7264Z" fill="#6480EB" stroke="#6480EB"/>
<path fill-rule="evenodd" clip-rule="evenodd" d="M36.7396 9.30014C35.9595 9.66528 35.5929 10.1909 35.7778 10.8868C35.8751 11.2552 36.2822 11.5417 36.5498 11.8659C36.6131 11.8119 36.6763 11.7595 36.7396 11.7055V9.30014ZM39.6476 15.7432V18.4122C40.3499 18.3352 40.6564 17.9144 40.6986 17.2905C40.7489 16.5554 40.4861 15.997 39.6476 15.7432ZM36.7769 18.4531C36.7769 17.3446 36.8093 16.2983 36.751 15.2586C36.738 15.0473 36.4201 14.7657 36.1817 14.6724C35.022 14.2221 33.9159 13.7178 33.3288 12.511C32.1919 10.1761 33.3856 7.39751 35.8768 6.61157C36.3958 6.44783 36.7785 6.29228 37.0121 5.68481C37.1516 5.32295 37.7938 4.93816 38.1928 4.95618C38.6275 4.97746 39.247 5.35897 39.4173 5.74867C39.6541 6.289 39.9558 6.48385 40.4602 6.64431C42.2929 7.23213 43.4331 8.69922 43.4898 10.461C43.5206 11.3616 43.06 11.9707 42.2783 12.0706C41.529 12.1656 40.9111 11.6645 40.7375 10.7803C40.6142 10.1483 40.4131 9.60469 39.6184 9.42131C39.6184 10.4381 39.5827 11.3976 39.6492 12.3506C39.6622 12.5471 40.032 12.7845 40.2834 12.8876C41.5793 13.4116 42.6951 14.1075 43.2206 15.5189C44.1467 18.0028 42.9206 20.5342 40.3921 21.2301C39.9168 21.3594 39.6087 21.4921 39.4789 22.0357C39.333 22.6415 38.8334 22.9379 38.2155 22.9444C37.5959 22.951 37.0851 22.6579 36.9326 22.0602C36.8045 21.5494 36.5223 21.4086 36.0844 21.2776C34.19 20.711 32.9655 19.1915 32.9087 17.3986C32.8795 16.4784 33.3256 15.8709 34.096 15.7792C34.9101 15.6794 35.4518 16.1051 35.6578 17.0171C35.7924 17.6246 35.9027 18.2419 36.7769 18.4531Z" fill="#00D7AF"/>
</svg>
