<svg width="17" height="17" viewBox="0 0 17 17" fill="none" xmlns="http://www.w3.org/2000/svg">
<path fill-rule="evenodd" clip-rule="evenodd" d="M7.82194 4.05398C7.83132 4.04312 7.86348 4.02249 7.91603 4.02249H8.23212C8.29074 4.02249 8.32382 4.04827 8.32731 4.05159C8.32823 4.06006 8.3297 4.06853 8.33191 4.07682L9.22467 7.58458C9.24599 7.66837 9.32537 7.72969 9.40862 7.72306L10.7173 7.67997C11.3854 7.63283 12.4329 7.65916 12.6698 7.86522C12.6759 7.87038 12.6829 7.87572 12.6895 7.88014C12.6933 7.88271 13.0704 8.13518 13.0901 8.45375C13.0704 8.77931 12.6932 9.03178 12.6899 9.03399C12.6827 9.0384 12.6761 9.04374 12.6696 9.04908C12.4331 9.25459 11.3854 9.28074 10.7169 9.23433C10.702 9.23286 10.6877 9.23415 10.6735 9.23691L9.40789 9.1953C9.32501 9.19198 9.24525 9.24999 9.22393 9.33377L8.33191 12.8371C8.3297 12.8454 8.32952 12.8485 8.3286 12.8572C8.32382 12.866 8.29074 12.8916 8.23212 12.8916H7.91603C7.86329 12.8916 7.83132 12.871 7.82194 12.8601L8.06746 9.34574C8.07445 9.24483 7.99928 9.15736 7.89876 9.14926L5.31108 8.94247C5.22508 8.93436 5.14679 8.98887 5.12106 9.07081L4.81619 10.0427C4.80884 10.0628 4.78954 10.0766 4.76804 10.0766H4.46923C4.44111 10.0766 4.41814 10.0538 4.41814 10.0256V6.88852C4.41814 6.86034 4.44111 6.83751 4.46923 6.83751H4.76473C4.78678 6.83751 4.80626 6.8515 4.81104 6.86605L5.10066 7.84515C5.12529 7.92857 5.20431 7.98418 5.29142 7.97644L7.89876 7.76891C7.99928 7.76081 8.07463 7.67316 8.06746 7.57243L7.82194 4.05398ZM5.16168 6.7552C5.10434 6.58413 4.94483 6.46922 4.76491 6.46922H4.46941C4.2386 6.46922 4.05078 6.65723 4.05078 6.88852V10.0254C4.05078 10.2567 4.2386 10.4447 4.46941 10.4447H4.76822C4.94483 10.4447 5.10324 10.3328 5.1648 10.1595L5.42796 9.32107L7.68834 9.50153L7.45367 12.8651C7.45367 13.0863 7.65673 13.2599 7.91622 13.2599H8.23231C8.46625 13.2599 8.66031 13.1141 8.69081 12.9183L9.54369 9.56819L10.6983 9.60612C10.7088 9.60723 10.7196 9.60594 10.7298 9.60428C11.0936 9.62767 12.4704 9.69138 12.9014 9.33543C12.9789 9.28221 13.4281 8.95296 13.4575 8.46479C13.4575 8.46093 13.4575 8.44178 13.4571 8.43809C13.4279 7.96042 12.9789 7.63191 12.9014 7.57869C12.4535 7.20893 10.9835 7.29198 10.6983 7.31223L9.54425 7.35017L8.69063 3.99579C8.66012 3.80005 8.46606 3.6542 8.23212 3.6542H7.91603C7.65673 3.6542 7.45348 3.82767 7.45403 4.06209L7.68834 7.41646L5.41105 7.59766L5.16168 6.7552Z" stroke="#6480EB"/>
<path fill-rule="evenodd" clip-rule="evenodd" d="M15.894 5.96463C15.8019 5.92076 15.6909 5.95935 15.6468 6.05001L15.5306 6.28794C14.6584 3.16447 11.7917 1 8.48559 1C5.10906 1 2.18977 3.25658 1.38626 6.48782C1.3618 6.58539 1.42276 6.68388 1.52225 6.70791C1.62155 6.73157 1.72197 6.67204 1.74605 6.57429C2.50899 3.50671 5.28043 1.36426 8.48559 1.36426C11.6292 1.36426 14.3546 3.42625 15.1779 6.39989L14.9491 6.2914C14.857 6.24771 14.7462 6.28557 14.7017 6.37623C14.6575 6.4667 14.6958 6.57556 14.7879 6.61925L15.4263 6.92217C15.4515 6.93418 15.4793 6.94037 15.5069 6.94037C15.5273 6.94037 15.5482 6.93692 15.5681 6.93C15.6148 6.91398 15.6527 6.88066 15.674 6.83697L15.9812 6.20748C16.0253 6.11682 15.9862 6.00796 15.894 5.96463Z" stroke="#6480EB"/>
<path fill-rule="evenodd" clip-rule="evenodd" d="M15.3517 9.73587C15.2527 9.71013 15.1537 9.77216 15.1296 9.87142C14.3706 12.9877 11.6237 15.1642 8.44927 15.1642C5.32906 15.1642 2.62343 13.0609 1.81119 10.0298L2.05126 10.1722C2.13888 10.224 2.25111 10.1946 2.30272 10.1064C2.35415 10.0183 2.32495 9.90476 2.2377 9.85291L1.63191 9.49365C1.58985 9.46865 1.53952 9.4618 1.49232 9.4742C1.44511 9.48661 1.4047 9.51754 1.38009 9.56013L1.02503 10.1733C0.973965 10.2616 1.00354 10.3749 1.09097 10.4264C1.12018 10.4436 1.15195 10.4518 1.18336 10.4518C1.24655 10.4518 1.30808 10.4188 1.34225 10.3599L1.46311 10.1512C2.3266 13.3309 5.17073 15.5349 8.44909 15.5349C11.7932 15.5349 14.6867 13.2425 15.4859 9.96013C15.5104 9.8605 15.4501 9.76013 15.3517 9.73587Z" stroke="#6480EB"/>
</svg>
