<svg width="25" height="26" viewBox="0 0 25 26" fill="none" xmlns="http://www.w3.org/2000/svg">
<path fill-rule="evenodd" clip-rule="evenodd" d="M10.4223 1.99885C10.4457 1.97171 10.5261 1.92018 10.6574 1.92018H11.4471C11.5936 1.92018 11.6763 1.98459 11.685 1.99287C11.6873 2.01403 11.6909 2.0352 11.6965 2.0559L13.927 10.8201C13.9803 11.0294 14.1786 11.1827 14.3866 11.1661L17.6563 11.0584C19.3258 10.9406 21.9429 11.0064 22.5348 11.5213C22.5499 11.5342 22.5674 11.5475 22.5839 11.5585C22.5936 11.565 23.5357 12.1958 23.5849 12.9917C23.5357 13.8052 22.5931 14.4359 22.5848 14.4415C22.5669 14.4525 22.5504 14.4658 22.5343 14.4792C21.9434 14.9926 19.3258 15.058 17.6554 14.942C17.6182 14.9383 17.5824 14.9416 17.547 14.9485L14.3848 14.8445C14.1777 14.8362 13.9785 14.9811 13.9252 15.1905L11.6965 23.9436C11.6909 23.9643 11.6905 23.9722 11.6882 23.9938C11.6763 24.0159 11.5936 24.0798 11.4471 24.0798H10.6574C10.5256 24.0798 10.4457 24.0283 10.4223 24.0012L11.0357 15.2204C11.0532 14.9683 10.8654 14.7497 10.6142 14.7295L4.14888 14.2128C3.93399 14.1925 3.7384 14.3287 3.67411 14.5335L2.91238 16.9618C2.89401 17.012 2.8458 17.0465 2.79208 17.0465H2.04549C1.97524 17.0465 1.91785 16.9894 1.91785 16.919V9.08098C1.91785 9.01058 1.97524 8.95353 2.04549 8.95353H2.78381C2.83891 8.95353 2.88758 8.9885 2.89952 9.02485L3.62315 11.4711C3.68467 11.6796 3.88211 11.8185 4.09975 11.7992L10.6142 11.2807C10.8654 11.2604 11.0536 11.0414 11.0357 10.7897L10.4223 1.99885ZM3.77559 8.74787C3.63233 8.32045 3.23378 8.03336 2.78427 8.03336H2.04595C1.46926 8.03336 1 8.50311 1 9.08098V16.9186C1 17.4964 1.46926 17.9662 2.04595 17.9662H2.79254C3.23378 17.9662 3.62958 17.6865 3.78339 17.2535L4.4409 15.1587L10.0885 15.6096L9.50216 24.0136C9.50216 24.5661 10.0095 25 10.6578 25H11.4476C12.0321 25 12.517 24.6356 12.5932 24.1465L14.7241 15.7762L17.609 15.8709C17.6352 15.8737 17.6622 15.8705 17.6875 15.8663C18.5966 15.9248 22.0366 16.084 23.1133 15.1946C23.3071 15.0617 24.4293 14.239 24.5027 13.0193C24.5027 13.0097 24.5027 12.9618 24.5018 12.9526C24.4288 11.7591 23.3071 10.9383 23.1133 10.8054C21.9944 9.88153 18.3216 10.089 17.609 10.1396L14.7255 10.2344L12.5927 1.85346C12.5165 1.36439 12.0316 1 11.4471 1H10.6574C10.0095 1 9.5017 1.4334 9.50308 2.01909L10.0885 10.4L4.39866 10.8528L3.77559 8.74787Z" fill="#6480EB" stroke="#6480EB" stroke-width="0.6"/>
</svg>
