<svg width="60" height="52" viewBox="0 0 60 52" fill="none" xmlns="http://www.w3.org/2000/svg">
<path d="M46.8558 19.3454C48.2299 18.4788 51.1871 18.8152 51.1871 18.8152L48.0366 24.1471H43.0752C43.0778 24.1471 45.4818 20.2153 46.8558 19.3454Z" fill="#D6DBFA"/>
<path d="M33.8108 17.2554C33.9643 16.5519 33.3369 15.648 31.2242 14.8766C29.363 14.1969 26.5911 15.2946 25.1456 16.1509C23.663 17.0277 16.1918 22.1251 16.1759 22.8149C16.16 23.5048 18.1747 24.3543 20.0385 25.0238C21.9024 25.6966 23.4168 25.9583 24.1951 25.6219C24.9735 25.2821 33.6572 17.9588 33.8108 17.2554Z" fill="#D6DBFA"/>
<path d="M60 14.0034C60 14.0034 57.0083 24.6909 53.8499 28.1062C50.6914 31.5215 42.5557 33.3667 29.1621 33.3667C13.0574 33.3667 0 34.2877 0 27.6712C0 23.1142 5.24731 24.5244 7.76772 21.7039C10.7991 18.3124 14.0211 16.3278 21.7279 17.0381C28.7993 17.6939 42.7781 21.5543 47.8454 21.432C50.1619 21.3742 53.0344 14 53.0344 14H60V14.0034Z" fill="#E2E6FC"/>
<path d="M9.89926 21.1568C9.15532 21.8399 9.1659 21.9418 8.5358 22.5161C7.90569 23.0938 6.50781 23.7089 6.50781 23.7089C6.50781 23.7089 8.94882 24.5517 11.2945 24.8406C13.3595 25.0954 15.3451 24.8202 15.6205 24.5755C16.0811 24.1677 16.0176 21.9316 14.813 21.3607C13.5819 20.7762 10.6432 20.4738 9.89926 21.1568Z" fill="#BAC4F4"/>
<path d="M54.0192 33.0949C54.0192 33.4789 53.5399 33.8221 52.2162 33.8289C51.0487 33.8323 49.5793 32.7721 48.8486 32.072C48.0994 31.355 44.4088 27.4096 44.4856 27.0562C44.5623 26.7028 45.841 26.6416 47.0086 26.6416C48.1761 26.6416 49.0895 26.7843 49.4972 27.097C49.9076 27.413 54.0192 32.7109 54.0192 33.0949Z" fill="#D6DBFA"/>
<path d="M20.8884 27.2941C19.9247 27.2941 19.1357 26.2814 19.1357 25.0444V23.6749C19.1357 22.438 19.9247 21.4253 20.8884 21.4253C21.8521 21.4253 22.641 22.438 22.641 23.6749V25.0444C22.6384 26.2814 21.8494 27.2941 20.8884 27.2941Z" fill="#BAC4F4"/>
<path d="M26.1019 26.8422C25.4983 26.8422 25.0059 26.2101 25.0059 25.4353V23.9367C25.0059 23.1619 25.4983 22.5298 26.1019 22.5298C26.7055 22.5298 27.198 23.1619 27.198 23.9367V25.4353C27.198 26.2067 26.7055 26.8422 26.1019 26.8422Z" fill="#BAC4F4"/>
<path d="M30.7399 26.8826C30.1945 26.8826 29.7471 26.3083 29.7471 25.6083V24.2524C29.7471 23.5523 30.1945 22.978 30.7399 22.978C31.2853 22.978 31.7327 23.5523 31.7327 24.2524V25.6083C31.7327 26.3083 31.2853 26.8826 30.7399 26.8826Z" fill="#BAC4F4"/>
<path d="M35.1372 26.8691C34.6394 26.8691 34.2344 26.3457 34.2344 25.7103V24.4767C34.2344 23.8378 34.6421 23.3179 35.1372 23.3179C35.6349 23.3179 36.04 23.8412 36.04 24.4767V25.7103C36.04 26.3457 35.6323 26.8691 35.1372 26.8691Z" fill="#BAC4F4"/>
<path d="M38.8813 27.1137C38.3836 27.1137 37.9785 26.5904 37.9785 25.9549V24.7213C37.9785 24.0824 38.3862 23.5625 38.8813 23.5625C39.379 23.5625 39.7841 24.0858 39.7841 24.7213V25.9549C39.7868 26.5904 39.379 27.1137 38.8813 27.1137Z" fill="#BAC4F4"/>
<path d="M43.0776 27.4364C42.5799 27.4364 42.1748 26.9131 42.1748 26.2776V25.0441C42.1748 24.4052 42.5825 23.8853 43.0776 23.8853C43.5753 23.8853 43.9804 24.4086 43.9804 25.0441V26.2776C43.9804 26.9165 43.5727 27.4364 43.0776 27.4364Z" fill="#BAC4F4"/>
<path d="M34.629 41.3118C34.629 42.158 33.7104 42.9124 31.1688 42.9226C28.929 42.9328 26.1094 40.5982 24.7089 39.0656C23.2713 37.4922 16.1919 28.8198 16.3402 28.0416C16.4911 27.2668 18.94 27.1309 21.1825 27.1309C23.4249 27.1309 25.1748 27.4469 25.9585 28.1333C26.7395 28.8232 34.629 40.4657 34.629 41.3118Z" fill="#D6DBFA"/>
<path fill-rule="evenodd" clip-rule="evenodd" d="M17.9333 4.5C17.4667 1.95 15.4667 0 13 0C11.0667 0 9.4 1.2 8.6 3C6.53333 3.3 5 5.175 5 7.5C5 9.975 6.8 12 9 12H17.6667C19.5333 12 21 10.35 21 8.25C21 6.3 19.6 4.65 17.9333 4.5Z" fill="#E2E6FC"/>
<path fill-rule="evenodd" clip-rule="evenodd" d="M56.55 43.25C56.025 40.275 53.775 38 51 38C48.825 38 46.95 39.4 46.05 41.5C43.725 41.85 42 44.0375 42 46.75C42 49.6375 44.025 52 46.5 52H56.25C58.35 52 60 50.075 60 47.625C60 45.35 58.425 43.425 56.55 43.25Z" fill="#E2E6FC"/>
</svg>
