<svg width="84" height="68" viewBox="0 0 84 68" fill="none" xmlns="http://www.w3.org/2000/svg">
<path fill-rule="evenodd" clip-rule="evenodd" d="M14.7983 25.4129H71.9227C77.3024 25.4129 81.7336 29.6381 81.9894 35.0117C82.2301 40.0665 78.3275 44.3593 73.2727 44.6C73.1276 44.6069 72.9823 44.6104 72.8369 44.6104H10.0447C5.60171 44.6104 2 41.0087 2 36.5658L2 16.8433C2 15.0662 3.44069 13.6255 5.21786 13.6255C6.29376 13.6255 7.29848 14.1632 7.89528 15.0584L14.7983 25.4129Z" stroke="#6480EB" stroke-width="4"/>
<path fill-rule="evenodd" clip-rule="evenodd" d="M37.6526 25.413H57.7643L33.6296 2.65744C32.6598 1.74307 31.1324 1.78799 30.218 2.75778C29.5765 3.43817 29.3858 4.42792 29.7286 5.29797L37.6526 25.413Z" fill="white" stroke="#6480EB" stroke-width="4" stroke-linecap="round" stroke-linejoin="round"/>
<path fill-rule="evenodd" clip-rule="evenodd" d="M37.4546 38.2113H59.8647L32.0686 64.5819C31.1017 65.4993 29.5741 65.4591 28.6568 64.4922C28.0126 63.8131 27.8191 62.8228 28.1603 61.9513L37.4546 38.2113Z" fill="white" stroke="#6480EB" stroke-width="4" stroke-linecap="round" stroke-linejoin="round"/>
<path d="M14.6893 36.3829H6.02299C5.13441 36.3829 4.41406 37.1033 4.41406 37.9919C4.41406 38.8805 5.13441 39.6008 6.02299 39.6008H14.6893C15.5779 39.6008 16.2982 38.8805 16.2982 37.9919C16.2982 37.1033 15.5779 36.3829 14.6893 36.3829Z" fill="#00D7AF"/>
<path d="M78.3145 31.812H67.8199C66.9313 31.812 66.2109 32.5324 66.2109 33.4209C66.2109 34.3095 66.9313 35.0299 67.8199 35.0299H78.3145C79.2031 35.0299 79.9234 34.3095 79.9234 33.4209C79.9234 32.5324 79.2031 31.812 78.3145 31.812Z" fill="#00D7AF"/>
</svg>
