<svg xmlns="http://www.w3.org/2000/svg" xmlns:xlink="http://www.w3.org/1999/xlink" width="302" height="242" viewBox="0 0 302 242">
    <defs>
        <path id="a" d="M0 239.573h148.28V0H0z"/>
    </defs>
    <g fill="none" fill-rule="evenodd">
        <g transform="translate(0 1)">
            <path fill="#FFF" d="M141.128 143.877a5.077 5.077 0 0 1-5.08 5.074 5.077 5.077 0 0 1-5.08-5.074 5.077 5.077 0 0 1 5.08-5.075 5.077 5.077 0 0 1 5.08 5.075"/>
            <path stroke="#6D6E71" stroke-width="3" d="M141.128 143.877a5.077 5.077 0 0 1-5.08 5.074 5.077 5.077 0 0 1-5.08-5.074 5.077 5.077 0 0 1 5.08-5.075 5.077 5.077 0 0 1 5.08 5.075z"/>
            <path fill="#FFF" d="M144.986 38.721s.589-4.416-.391-11.983c-.685-5.297-2.037-6.683-2.851-7.814 0 0 .689-1.263.362-4.976-.528-6.009-3.394-11.785-3.394-11.785-2.94 2.324-6.672 4.448-10.485 5.816-3.7-1.679-10.06-1.987-14.388-1.987a29.24 29.24 0 0 0-14.27 3.693c-4.837 2.688-8.945 6.286-11.603 11.135-2.299 4.179-4.369 13.318-3.09 18.608l60.11-.707z"/>
            <path stroke="#6D6E71" stroke-width="3" d="M144.986 38.721s.589-4.416-.391-11.983c-.685-5.297-2.037-6.683-2.851-7.814 0 0 .689-1.263.362-4.976-.528-6.009-3.394-11.785-3.394-11.785-2.94 2.324-6.672 4.448-10.485 5.816-3.7-1.679-10.06-1.987-14.388-1.987a29.24 29.24 0 0 0-14.27 3.693c-4.837 2.688-8.945 6.286-11.603 11.135-2.299 4.179-4.369 13.318-3.09 18.608l60.11-.707z"/>
            <path fill="#FFF" d="M106.713 68.325c-8.699 0-11.742 2.698-14.265 7.238-2.944 5.3-7.678 18.692-11.474 21.16-8.238 5.358-28.782 5.885-28.782 5.885l.716 10.953s26.945-5.027 31.243-6.523c4.3-1.496 12.54-17.544 12.54-17.544l-.288 38.21 36.415.1.014-30.386.105 45.846 8.375-.123s.568-21.652.568-34.172c0-20.189-.004-40.291-16.525-40.291l-18.642-.353z"/>
            <path stroke="#6D6E71" stroke-width="3" d="M106.713 68.325c-8.699 0-11.742 2.698-14.265 7.238-2.944 5.3-7.678 18.692-11.474 21.16-8.238 5.358-28.782 5.885-28.782 5.885l.716 10.953s26.945-5.027 31.243-6.523c4.3-1.496 12.54-17.544 12.54-17.544l-.288 38.21 36.415.1.014-30.386.105 45.846 8.375-.123s.568-21.652.568-34.172c0-20.189-.004-40.291-16.525-40.291l-18.642-.353z"/>
            <path fill="#FFF" d="M122.828 65.067s.482 8.339-.983 11.78c-1.297 3.048-4.939 4.85-7.064 4.85-2.29 0-5.476-1.085-7.145-4.497-1.629-3.326-.731-12.27-.731-12.27s4.389 1.677 7.563 1.677c3.175 0 8.36-1.54 8.36-1.54"/>
            <path stroke="#6D6E71" stroke-width="3" d="M122.828 65.067s.482 8.339-.983 11.78c-1.297 3.048-4.939 4.85-7.064 4.85-2.29 0-5.476-1.085-7.145-4.497-1.629-3.326-.731-12.27-.731-12.27s4.389 1.677 7.563 1.677c3.175 0 8.36-1.54 8.36-1.54z"/>
            <path fill="#A2EDDE" d="M139.761 141.538l-5.295-.037V95.773s-.079-10.697-3.276-16.221c-3.196-5.526-6.878-4.276-6.878-4.276s.406-.442.406-1.962-.04-2.597-.04-2.597 8.03-1.33 11.643 6.934c2.749 6.286 3.916 18.064 3.916 27.172 0 6-.476 36.715-.476 36.715"/>
            <path fill="#FFF" d="M56.23 108.435A6.228 6.228 0 0 1 50 114.66a6.228 6.228 0 0 1-6.231-6.225 6.228 6.228 0 0 1 6.23-6.225 6.228 6.228 0 0 1 6.233 6.225"/>
            <path stroke="#6D6E71" stroke-width="3" d="M56.23 108.435A6.228 6.228 0 0 1 50 114.66a6.228 6.228 0 0 1-6.231-6.225 6.228 6.228 0 0 1 6.23-6.225 6.228 6.228 0 0 1 6.233 6.225z"/>
            <path fill="#A2EDDE" d="M103.334 10.549c5.914-2.856 14.343-1.58 14.343-1.58s-10.073 3.03-13.142 7.138c-2.756 3.689.212 8.636-1.2 8.636-3.756 0-8.186-1.917-8.826-2.182-.64-.264-1.854-.33-1.854-.33s-1.093.844-2.692 3.35c-.376.59-2.295 5.642-2.295 5.642h-.882s.764-3.387 1.942-6.745c.834-2.377 2.48-4.741 3.5-5.877 2.46-2.74 5.193-5.196 11.106-8.052"/>
            <path fill="#FFF" d="M146.883 43.084a4.233 4.233 0 0 1-4.237 4.231c-1.422 0-2.013-.063-2.013-.063s-.235.603-.627 1.714c-3.64 10.295-13.47 17.671-25.028 17.671-11.49 0-21.273-7.296-24.961-17.501a76.13 76.13 0 0 1-.657-1.925s-1.661.104-3.066.104a4.233 4.233 0 0 1-4.237-4.231 4.233 4.233 0 0 1 4.237-4.232h2.154s.009-.612.021-.925c.063-1.548.259-1.972.58-3.44 1.214-5.594 4.719-9.402 4.719-9.402s12.376 3.628 20.703 3.679c7.845.047 20.328-4.285 20.328-4.285s3.83 3.812 5.7 9.308c.293.867.59 1.934.77 2.879.094.494.228 2.186.228 2.186h1.15a4.233 4.233 0 0 1 4.236 4.232"/>
            <path stroke="#6D6E71" stroke-width="3" d="M146.883 43.084a4.233 4.233 0 0 1-4.237 4.231c-1.422 0-2.013-.063-2.013-.063s-.235.603-.627 1.714c-3.64 10.295-13.47 17.671-25.028 17.671-11.49 0-21.273-7.296-24.961-17.501a76.13 76.13 0 0 1-.657-1.925s-1.661.104-3.066.104a4.233 4.233 0 0 1-4.237-4.231 4.233 4.233 0 0 1 4.237-4.232h2.154s.009-.612.021-.925c.063-1.548.259-1.972.58-3.44 1.214-5.594 4.719-9.402 4.719-9.402s12.376 3.628 20.703 3.679c7.845.047 20.328-4.285 20.328-4.285s3.83 3.812 5.7 9.308c.293.867.59 1.934.77 2.879.094.494.228 2.186.228 2.186h1.15a4.233 4.233 0 0 1 4.236 4.232z"/>
            <path fill="#6D6E71" d="M102.231 44.45a1.799 1.799 0 0 1-1.794-1.792v-3.527c0-.986.807-1.792 1.794-1.792s1.795.806 1.795 1.792v3.527c0 .986-.808 1.793-1.795 1.793M127.18 44.58a1.799 1.799 0 0 1-1.795-1.793v-3.526c0-.986.807-1.793 1.794-1.793s1.795.807 1.795 1.793v3.526c0 .986-.808 1.793-1.795 1.793"/>
            <path fill="#FFF" d="M131.529 228.973l-11.817-.05-.089-84.101h-10.39l-.024 84.151H98.09V127.321h33.44z"/>
            <path stroke="#6D6E71" stroke-width="3" d="M131.529 228.973l-11.817-.05-.089-84.101h-10.39l-.024 84.151H98.09V127.321h33.44z"/>
            <mask id="b" fill="#fff">
                <use xlink:href="#a"/>
            </mask>
            <path fill="#A2EDDE" d="M123.803 227.078h6.597V128.71h-6.597z" mask="url(#b)"/>
            <path fill="#6D6E71" d="M88.83 39.637s.145-1.973 1.411-2.299c.531-.135 3.404 2.09 3.404 2.09s.342-2.517 1.296-3.763c.956-1.247 3.068-1.931 3.068-1.931l-8.65 1.59-.53 4.313zM140.803 39.284s-1.147-1.565-1.996-1.664c-.544-.063-2.766 1.717-2.766 1.717s-.529-2.01-1.506-2.986c-.977-.976-2.532-2.385-2.532-2.385l7.753.806 1.047 4.512zM117.39 40.311s-1.189-2.104-2.433-2.104c-1.251 0-2.58 1.86-2.58 1.86l-1.59-4.925h8.233l-1.63 5.17z" mask="url(#b)"/>
            <path stroke="#6D6E71" stroke-width="3" d="M118.137 40.69c1.308 4.313 2.422 8.136 10.02 8.136 4.944 0 7.407-3.709 7.407-8.137 0-4.428-.38-6.723-8.954-6.723s-9.899 2.018-8.473 6.723zM111.52 40.69c-1.794 4.14-2.305 8.136-10.277 8.136-5.073 0-7.598-3.709-7.598-8.137 0-4.428.39-6.723 9.184-6.723 8.795 0 10.544 2.44 8.69 6.723z" mask="url(#b)"/>
            <path fill="#FFF" d="M109.75 227.168l-6.943-.054s-6.68-3.62-9.71-.592c-2.194 2.192-1.647 7.347-1.647 7.347h18.3v-6.7z" mask="url(#b)"/>
            <path stroke="#6D6E71" stroke-width="3" d="M109.75 227.168l-6.943-.054s-6.68-3.62-9.71-.592c-2.194 2.192-1.647 7.347-1.647 7.347h18.3v-6.7z" mask="url(#b)"/>
            <path fill="#FFF" d="M119.191 227.168l6.943-.054s6.679-3.62 9.709-.592c2.195 2.192 1.647 7.347 1.647 7.347h-18.299v-6.7z" mask="url(#b)"/>
            <path stroke="#6D6E71" stroke-width="3" d="M119.191 227.168l6.943-.054s6.679-3.62 9.709-.592c2.195 2.192 1.647 7.347 1.647 7.347h-18.299v-6.7z" mask="url(#b)"/>
            <path fill="#A2EDDE" d="M108.614 232.75h-16.09s-.507-1.78.427-2.47c.933-.688 15.663 0 15.663 0v2.47zM120.257 232.75h16.09s.508-1.78-.426-2.47c-.933-.688-15.664 0-15.664 0v2.47z" mask="url(#b)"/>
            <path fill="#6D6E71" d="M107.376 54.143c.766 1.22 2.12 4.596 8.187 4.596 6.068 0 6.802-3.723 8.233-4.454 1.33-.679 1.846.526-.192 2.925-1.366 1.607-4.506 3.07-8.04 3.07-6.474 0-9.81-4.183-9.81-5.505s.991-1.64 1.622-.632" mask="url(#b)"/>
            <path fill="#FFF" d="M74.315 38.22c0 17.85-12.016 30.912-29.888 30.912-4.758 0-17.59 14.783-21.659 17.107-10.023 5.724-10.17-5.302-10.441-16.708-.258-10.912-.258-29.57-.258-30.96 0-17.851 13.437-32.3 33.54-32.3 17.872 0 28.706 14.096 28.706 31.948" mask="url(#b)"/>
            <path stroke="#6D6E71" stroke-width="3" d="M74.315 38.22c0 17.85-12.016 30.912-29.888 30.912-4.758 0-17.59 14.783-21.659 17.107-10.023 5.724-10.17-5.302-10.441-16.708-.258-10.912-.258-29.57-.258-30.96 0-17.851 13.437-32.3 33.54-32.3 17.872 0 28.706 14.096 28.706 31.948z" mask="url(#b)"/>
            <path fill="#A2EDDE" d="M31.5 11.274c5.913-2.855 14.342-2.703 14.342-2.703S35.769 12.724 32.7 16.833c-2.755 3.688.212 8.636-1.2 8.636-3.756 0-6.59-1.835-7.23-2.099-.641-.264-2.529-.862-2.529-.862s-3.237 3.559-4.284 6.34c-.523 1.39-1.754 4.997-1.754 4.997H14.35s.823-3.872 2.001-7.23c.834-2.378 3.628-6.387 4.648-7.523 2.46-2.74 4.587-4.962 10.5-7.818" mask="url(#b)"/>
            <path fill="#FFF" d="M35.489 66.581c-9.605 0-11.656 3.7-14.459 6.746C18.226 76.374.383 92.676 1.442 98.377c1.06 5.7 14.781 15.78 14.781 15.78l5.051-7.803s-8.305-7.86-8.305-11.033c0-3.174 15.416-10.87 15.416-10.87s1.463 22.58 1.41 28.123c-.046 4.927-2.736 15.625-2.736 15.625l32.077.101s-2.333-10.397-2.333-15.285c0-5.516 1.502-28.745 1.502-28.745s15.092 7.347 15.092 10.051c0 2.234-5.825 12.402-5.825 12.402l5.414 5.66c5.114-4.645 8.238-11.949 9.708-18.062C84.165 88.21 67.23 73.203 63.1 69.811c-3.795-3.116-6.394-3.23-11.516-3.23H35.489z" mask="url(#b)"/>
            <path stroke="#6D6E71" stroke-width="3" d="M35.489 66.581c-9.605 0-11.656 3.7-14.459 6.746C18.226 76.374.383 92.676 1.442 98.377c1.06 5.7 14.781 15.78 14.781 15.78l5.051-7.803s-8.305-7.86-8.305-11.033c0-3.174 15.416-10.87 15.416-10.87s1.463 22.58 1.41 28.123c-.046 4.927-2.736 15.625-2.736 15.625l32.077.101s-2.333-10.397-2.333-15.285c0-5.516 1.502-28.745 1.502-28.745s15.092 7.347 15.092 10.051c0 2.234-5.825 12.402-5.825 12.402l5.414 5.66c5.114-4.645 8.238-11.949 9.708-18.062C84.165 88.21 67.23 73.203 63.1 69.811c-3.795-3.116-6.394-3.23-11.516-3.23H35.489z" mask="url(#b)"/>
            <path fill="#FFF" d="M75.468 43.027a4.233 4.233 0 0 1-4.236 4.232c-1.423 0-2.014-.063-2.014-.063s-.234.603-.626 1.713c-3.64 10.296-13.47 17.672-25.028 17.672-11.49 0-21.274-7.296-24.962-17.502a74.852 74.852 0 0 1-.655-1.924s-1.663.104-3.067.104a4.233 4.233 0 0 1 0-8.463h2.153s.01-.612.022-.926c.063-1.548.258-1.97.579-3.44 1.214-5.593 4.72-9.402 4.72-9.402s21.131 7.642 31.587 8.816c10.726 1.205 15.409.275 15.409.275s.628 2.32.707 3.693c.028.502.026.984.026.984h1.149a4.233 4.233 0 0 1 4.236 4.231" mask="url(#b)"/>
            <path stroke="#6D6E71" stroke-width="3" d="M75.468 43.027a4.233 4.233 0 0 1-4.236 4.232c-1.423 0-2.014-.063-2.014-.063s-.234.603-.626 1.713c-3.64 10.296-13.47 17.672-25.028 17.672-11.49 0-21.274-7.296-24.962-17.502a74.852 74.852 0 0 1-.655-1.924s-1.663.104-3.067.104a4.233 4.233 0 0 1 0-8.463h2.153s.01-.612.022-.926c.063-1.548.258-1.97.579-3.44 1.214-5.593 4.72-9.402 4.72-9.402s21.131 7.642 31.587 8.816c10.726 1.205 15.409.275 15.409.275s.628 2.32.707 3.693c.028.502.026.984.026.984h1.149a4.233 4.233 0 0 1 4.236 4.231z" mask="url(#b)"/>
            <path fill="#A2EDDE" d="M56.141 122.24l-7.085-.453 2.07-43.159s1.86-2.757 1.854-5.598c-.006-2.78.045-4.673.045-4.673s4.721-.4 7.545 1.764c2.825 2.162 17.875 14.923 20.477 22.525.822 2.403-4.063 11.462-4.063 11.462s-.439-.882-2.204-1.852c-1.765-.97-2.294-.706-2.294-.706s3.038-6.334 2.762-8.156c-.277-1.822-4.288-4.058-8.411-6.566-4.124-2.51-10.18-5.347-10.18-5.347s-2.519 34.584-1.853 36.938c.819 2.893 1.337 3.82 1.337 3.82" mask="url(#b)"/>
            <path fill="#FFF" d="M51.529 65.775s.481 7.416-.983 10.858c-1.297 3.047-4.939 4.85-7.064 4.85-2.29 0-5.477-1.086-7.145-4.498-1.63-3.326-.731-11.358-.731-11.358 1.39.256 1.412 1.22 7.563 1.22 6.132 0 8.36-1.072 8.36-1.072" mask="url(#b)"/>
            <path stroke="#6D6E71" stroke-width="3" d="M51.529 65.775s.481 7.416-.983 10.858c-1.297 3.047-4.939 4.85-7.064 4.85-2.29 0-5.477-1.086-7.145-4.498-1.63-3.326-.731-11.358-.731-11.358 1.39.256 1.412 1.22 7.563 1.22 6.132 0 8.36-1.072 8.36-1.072z" mask="url(#b)"/>
            <path fill="#6D6E71" d="M31.659 45.746a1.757 1.757 0 0 1-1.754-1.751v-3.447c0-.964.789-1.752 1.754-1.752.964 0 1.753.788 1.753 1.752v3.447c0 .963-.789 1.751-1.753 1.751M55.695 45.746a1.757 1.757 0 0 1-1.754-1.751v-3.447c0-.964.789-1.752 1.754-1.752.964 0 1.753.788 1.753 1.752v3.447c0 .963-.789 1.751-1.753 1.751" mask="url(#b)"/>
            <path fill="#FFF" d="M60.006 228.994l-11.817-.052-.088-84.1H37.71l-.024 84.152h-11.12V127.34h33.44z" mask="url(#b)"/>
            <path stroke="#6D6E71" stroke-width="3" d="M60.006 228.994l-11.817-.052-.088-84.1H37.71l-.024 84.152h-11.12V127.34h33.44z" mask="url(#b)"/>
            <path fill="#A2EDDE" d="M52.28 227.098h6.597v-98.369H52.28z" mask="url(#b)"/>
            <path fill="#FFF" d="M38.226 227.188l-6.942-.053s-6.68-3.62-9.71-.593c-2.194 2.193-1.647 7.347-1.647 7.347h18.3v-6.7z" mask="url(#b)"/>
            <path stroke="#6D6E71" stroke-width="3" d="M38.226 227.188l-6.942-.053s-6.68-3.62-9.71-.593c-2.194 2.193-1.647 7.347-1.647 7.347h18.3v-6.7z" mask="url(#b)"/>
            <path fill="#FFF" d="M47.668 227.188l6.943-.053s6.679-3.62 9.709-.593c2.195 2.193 1.647 7.347 1.647 7.347H47.668v-6.7z" mask="url(#b)"/>
            <path stroke="#6D6E71" stroke-width="3" d="M47.668 227.188l6.943-.053s6.679-3.62 9.709-.593c2.195 2.193 1.647 7.347 1.647 7.347H47.668v-6.7z" mask="url(#b)"/>
            <path fill="#A2EDDE" d="M37.092 232.77h-16.09s-.508-1.78.426-2.469c.934-.69 15.664 0 15.664 0v2.469zM48.734 232.77h16.09s.508-1.78-.425-2.469c-.934-.69-15.665 0-15.665 0v2.469z" mask="url(#b)"/>
            <path fill="#6D6E71" d="M57.154 39.789v2.387s.682-.544 1.053-.915c.37-.37.507-.818.776-1.302.27-.484.424-1.72.037-1.27-.25.29-.575.647-.965 1.037-.347.346-.9.063-.9.063M30.1 39.789v2.387s-.681-.544-1.052-.915c-.37-.37-.508-.818-.777-1.302-.27-.484-.423-1.72-.036-1.27.25.29.575.647.965 1.037.347.346.9.063.9.063" mask="url(#b)"/>
            <path stroke="#6D6E71" stroke-width="3" d="M14.012 130.25h60.962v-16.927H14.012z" mask="url(#b)"/>
            <path fill="#6D6E71" d="M22.17 229.206h45.156v-4.693H22.17z" mask="url(#b)"/>
            <path fill="#FFF" d="M56.141 116.527h18.833v-5.702H56.141z" mask="url(#b)"/>
            <path stroke="#6D6E71" stroke-width="3" d="M56.141 116.527h18.833v-5.702H56.141z" mask="url(#b)"/>
            <path fill="#FFF" d="M14.013 116.527h16.614v-5.702H14.013z" mask="url(#b)"/>
            <path stroke="#6D6E71" stroke-width="3" d="M14.013 116.527h16.614v-5.702H14.013z" mask="url(#b)"/>
            <path fill="#6D6E71" d="M20.052 239.573a4.246 4.246 0 0 1-4.237-4.232v-16.658a4.246 4.246 0 0 1 4.237-4.232 4.246 4.246 0 0 1 4.236 4.232v16.658a4.246 4.246 0 0 1-4.236 4.232M69.674 239.573a4.246 4.246 0 0 1-4.236-4.232v-16.658a4.246 4.246 0 0 1 4.236-4.232 4.246 4.246 0 0 1 4.237 4.232v16.658a4.246 4.246 0 0 1-4.237 4.232" mask="url(#b)"/>
            <path fill="#FFF" d="M75.815 217.356H13.68a4.246 4.246 0 0 1-4.236-4.232v-72.5c0-8.88 18.568-19.435 35.304-19.435 16.735 0 35.303 10.527 35.303 19.435v72.5a4.246 4.246 0 0 1-4.236 4.232" mask="url(#b)"/>
            <path stroke="#6D6E71" stroke-width="3" d="M75.815 217.356H13.68a4.246 4.246 0 0 1-4.236-4.232v-72.5c0-8.88 18.568-19.435 35.304-19.435 16.735 0 35.303 10.527 35.303 19.435v72.5a4.246 4.246 0 0 1-4.236 4.232z" mask="url(#b)"/>
            <path fill="#FFF" d="M69.322 200.136H20.173a4.246 4.246 0 0 1-4.236-4.232V149.53c0-8.939 9.258-17.402 28.385-17.402 19.127 0 29.236 9.149 29.236 17.402v46.375a4.246 4.246 0 0 1-4.236 4.232" mask="url(#b)"/>
            <path stroke="#6D6E71" stroke-width="3" d="M69.322 200.136H20.173a4.246 4.246 0 0 1-4.236-4.232V149.53c0-8.939 9.258-17.402 28.385-17.402 19.127 0 29.236 9.149 29.236 17.402v46.375a4.246 4.246 0 0 1-4.236 4.232z" mask="url(#b)"/>
            <path fill="#A2EDDE" d="M58.047 188.812H29.672c-3.575 0-12.606 5.736-10.743 7.597.92.918 12.283.84 24.317.922 12.359.084 26.025.694 27.246-.526 2.41-2.407-9.267-7.993-12.445-7.993" mask="url(#b)"/>
            <path fill="#FFF" d="M52.325 166.56l-16.413-.359-16.659-6.092-1.027 4.125 16 8.737s-.013 6.12-1.483 12.024c-1.47 5.903-3.713 6.84-2.22 7.844 1.492 1.003 23.274.877 24.848 0 1.257-.701-.614-2.715-1.597-8.065s-.781-10.63-.781-10.63l18.166-10.863-2.627-3.172-16.207 6.45z" mask="url(#b)"/>
            <path stroke="#6D6E71" stroke-width="3" d="M52.325 166.56l-16.413-.359-16.659-6.092-1.027 4.125 16 8.737s-.013 6.12-1.483 12.024c-1.47 5.903-3.713 6.84-2.22 7.844 1.492 1.003 23.274.877 24.848 0 1.257-.701-.614-2.715-1.597-8.065s-.781-10.63-.781-10.63l18.166-10.863-2.627-3.172-16.207 6.45z" mask="url(#b)"/>
            <path fill="#A2EDDE" d="M45.825 189.426a1.503 1.503 0 0 1-3.006 0c0-.83.672-1.501 1.503-1.501.83 0 1.503.671 1.503 1.501M54.485 194.25h-1.62s-1.643-5.848-2.155-9.721c-.511-3.875-.584-11.945-.584-11.945l8.125-3.705-6.826 4.293s-.021 6.843.706 10.964c.727 4.122 2.354 10.113 2.354 10.113M45.825 183.803a1.502 1.502 0 1 1-3.004-.001 1.502 1.502 0 0 1 3.004.001M45.825 178.18a1.502 1.502 0 1 1-3.004-.001 1.502 1.502 0 0 1 3.004.001" mask="url(#b)"/>
            <path fill="#FFF" d="M18.738 161.064c0 1.657-1.344 3-3.003 3a3.001 3.001 0 1 1 0-6 3.002 3.002 0 0 1 3.003 3" mask="url(#b)"/>
            <path stroke="#6D6E71" stroke-width="3" d="M18.738 161.064c0 1.657-1.344 3-3.003 3a3.001 3.001 0 1 1 0-6 3.002 3.002 0 0 1 3.003 3z" mask="url(#b)"/>
            <path fill="#FFF" d="M53.996 201.208l-2.383 8.291c1.391 1.509 2.768 3.48 1.476 4.771-1.54 1.542-5.207.307-6.75-1.234-1.543-1.542-2.91-3-1.368-4.54.346-.346.854-.75.854-.75l1.379-6.65-2.157-2.202h-4.092l-1.87 1.806.75 7.014s.318.621.668.966c1.542 1.542.448 2.814-1.091 4.356-1.542 1.541-5.21 2.776-6.754 1.234-1.472-1.47.523-3.826 2.048-5.378L31.67 200.7l.247-7.568h22.524l-.445 8.076z" mask="url(#b)"/>
            <path stroke="#6D6E71" stroke-width="3" d="M53.996 201.208l-2.383 8.291c1.391 1.509 2.768 3.48 1.476 4.771-1.54 1.542-5.207.307-6.75-1.234-1.543-1.542-2.91-3-1.368-4.54.346-.346.854-.75.854-.75l1.379-6.65-2.157-2.202h-4.092l-1.87 1.806.75 7.014s.318.621.668.966c1.542 1.542.448 2.814-1.091 4.356-1.542 1.541-5.21 2.776-6.754 1.234-1.472-1.47.523-3.826 2.048-5.378L31.67 200.7l.247-7.568h22.524l-.445 8.076z" mask="url(#b)"/>
            <path fill="#A2EDDE" d="M46.192 210.097c0 .83 2.118 2.457 2.913 2.821.754.346 2.617.859 2.617.03 0-.265-3.236-.911-4-2.351-.674-1.268-1.53-1.329-1.53-.5M39.425 210.097c0 .83-2.118 2.457-2.913 2.821-.754.346-2.617.859-2.617.03 0-.265 3.236-.911 4-2.351.674-1.268 1.53-1.329 1.53-.5" mask="url(#b)"/>
            <path fill="#FFF" d="M75.68 160.11c0 1.656-1.344 3-3.003 3a3.002 3.002 0 0 1-3.002-3c0-1.657 1.344-3 3.002-3a3.002 3.002 0 0 1 3.003 3" mask="url(#b)"/>
            <path stroke="#6D6E71" stroke-width="3" d="M75.68 160.11c0 1.656-1.344 3-3.003 3a3.002 3.002 0 0 1-3.002-3c0-1.657 1.344-3 3.002-3a3.002 3.002 0 0 1 3.003 3z" mask="url(#b)"/>
            <path fill="#FFF" d="M62.588 156.134a3.437 3.437 0 0 1-4.176 3.352c-2.052 5.754-7.555 9.874-14.02 9.874a14.875 14.875 0 0 1-14.035-9.91 3.235 3.235 0 0 1-.86.117 3.437 3.437 0 0 1-3.441-3.433 3.436 3.436 0 0 1 3.44-3.431c.04 0 .076 0 .116.004.876-7.376 7.159-13.09 14.78-13.09 7.617 0 13.894 5.714 14.775 13.086a3.434 3.434 0 0 1 3.42 3.431" mask="url(#b)"/>
            <path stroke="#6D6E71" stroke-width="3" d="M62.588 156.134a3.437 3.437 0 0 1-4.176 3.352c-2.052 5.754-7.555 9.874-14.02 9.874a14.875 14.875 0 0 1-14.035-9.91 3.235 3.235 0 0 1-.86.117 3.437 3.437 0 0 1-3.441-3.433 3.436 3.436 0 0 1 3.44-3.431c.04 0 .076 0 .116.004.876-7.376 7.159-13.09 14.78-13.09 7.617 0 13.894 5.714 14.775 13.086a3.434 3.434 0 0 1 3.42 3.431z" mask="url(#b)"/>
            <path fill="#FFF" d="M77.153 157.754a2.237 2.237 0 0 1-2.239 2.237 2.237 2.237 0 1 1 0-4.473c1.237 0 2.239 1 2.239 2.236" mask="url(#b)"/>
            <path stroke="#6D6E71" stroke-width="3" d="M77.153 157.754a2.237 2.237 0 0 1-2.239 2.237 2.237 2.237 0 1 1 0-4.473c1.237 0 2.239 1 2.239 2.236z" mask="url(#b)"/>
            <path fill="#FFF" d="M83.549 144.869c-.557 1.846-1.645 3.06-3.471 3.138l-2.38 7.885-3.932-.84 2.38-7.885c-1.479-1.074-1.618-3.001-1.062-4.847a4.42 4.42 0 0 1 5.508-2.952 4.413 4.413 0 0 1 2.957 5.501" mask="url(#b)"/>
            <path stroke="#6D6E71" stroke-width="3" d="M83.549 144.869c-.557 1.846-1.645 3.06-3.471 3.138l-2.38 7.885-3.932-.84 2.38-7.885c-1.479-1.074-1.618-3.001-1.062-4.847a4.42 4.42 0 0 1 5.508-2.952 4.413 4.413 0 0 1 2.957 5.501z" mask="url(#b)"/>
            <path fill="#A2EDDE" d="M82.11 144.86s-.687-1.261-2.82-1.634c-2.063-.361-3.033.376-3.033.376l.311-1.262s1.496-.933 3.196-.537c1.805.42 2.56 1.895 2.56 1.895l-.214 1.161z" mask="url(#b)"/>
            <path fill="#6D6E71" d="M48.408 151.803a1.216 1.216 0 1 1-2.432-.001 1.216 1.216 0 0 1 2.432 0M53.724 160.493c-.141.14-.564-.04-1.016-.417-.911 1.045-4.18 4.457-8.18 4.457-4.12 0-7.888-3.818-8.778-4.783-.323.396-.645.622-.796.522-.195-.12-.04-.718.348-1.337.382-.618.855-1.02 1.051-.894.166.1.08.543-.18 1.05.864.84 4.738 4.407 8.214 4.407 3.28 0 6.792-3.105 7.737-4.01-.347-.432-.508-.83-.367-.964.171-.171.75.13 1.298.672.543.544.845 1.121.669 1.297M42.965 151.803a1.216 1.216 0 1 1-2.433-.001 1.216 1.216 0 0 1 2.433 0" mask="url(#b)"/>
            <path fill="#A2EDDE" d="M48.134 208.598h-.825l1.649-8.118-2.943-3.049 4.07 1.806z" mask="url(#b)"/>
            <path fill="#FFF" d="M75.451 184.301H14.044v6.126h21.364L40.9 205.61h5.384l4.79-15.183h24.376z" mask="url(#b)"/>
            <path stroke="#6D6E71" stroke-width="3" d="M75.451 184.301H14.044v6.126h21.364L40.9 205.61h5.384l4.79-15.183h24.376z" mask="url(#b)"/>
            <path fill="#FFF" d="M76.984 109.229a6.228 6.228 0 0 1-6.232 6.225 6.228 6.228 0 0 1-6.23-6.225 6.228 6.228 0 0 1 6.23-6.225 6.228 6.228 0 0 1 6.232 6.225" mask="url(#b)"/>
            <path stroke="#6D6E71" stroke-width="3" d="M76.984 109.229a6.228 6.228 0 0 1-6.232 6.225 6.228 6.228 0 0 1-6.23-6.225 6.228 6.228 0 0 1 6.23-6.225 6.228 6.228 0 0 1 6.232 6.225zM24.97 109.229a6.228 6.228 0 0 1-6.232 6.225 6.228 6.228 0 0 1-6.231-6.225 6.228 6.228 0 0 1 6.231-6.225 6.228 6.228 0 0 1 6.232 6.225z" mask="url(#b)"/>
            <path fill="#6D6E71" d="M36.51 53.688c.766 1.22 2.119 4.596 8.187 4.596s6.802-3.724 8.233-4.454c1.329-.68 1.846.526-.192 2.925-1.366 1.608-4.506 3.07-8.041 3.07-6.473 0-9.81-4.183-9.81-5.506 0-1.322.992-1.639 1.623-.631" mask="url(#b)"/>
        </g>
        <path fill="#FFF" d="M279.79 221.325c-.568 2.101-1.283 5.396-1.436 9.153-.212 5.321-.255 6.773-.823 7.797-.571 1.027-6.994 1.692-8.028.38-1.038-1.31 2.488-5.624 3.195-13.39.178-1.97.136-4.102-.028-6.188.63-.296 1.238-.609 1.815-.938a19.633 19.633 0 0 0 5.305 3.186"/>
        <path stroke="#6D6E71" stroke-width="3" d="M279.79 221.325c-.568 2.101-1.283 5.396-1.436 9.153-.212 5.321-.255 6.773-.823 7.797-.571 1.027-6.994 1.692-8.028.38-1.038-1.31 2.488-5.624 3.195-13.39.178-1.97.136-4.102-.028-6.188.63-.296 1.238-.609 1.815-.938a19.633 19.633 0 0 0 5.305 3.186z"/>
        <path fill="#FFF" d="M246.022 238.625c-.571 1.026-6.99 1.691-8.029.38-1.034-1.31.912-.952 1.62-8.717.175-1.933-.205-9.116-.174-11.13.246.053.495.382.747.416 1.682.753 3.543 1.109 5.54 1.606-.394 2.504-.73 5.881-.388 8.932.591 5.292 1.256 7.49.684 8.513"/>
        <path stroke="#6D6E71" stroke-width="3" d="M246.022 238.625c-.571 1.026-6.99 1.691-8.029.38-1.034-1.31.912-.952 1.62-8.717.175-1.933-.205-9.116-.174-11.13.246.053.495.382.747.416 1.682.753 3.543 1.109 5.54 1.606-.394 2.504-.73 5.881-.388 8.932.591 5.292 1.256 7.49.684 8.513z"/>
        <path fill="#FFF" d="M292.06 197.15c1.842 2.418 2.978 5.741 2.978 9.829 0 3.263-.345 6.313-1.207 8.825 1.397 1.757 2.378 3.454 2.214 4.628-.506 3.625-1.007 5.308-2.041 10.046-1.036 4.733-1.65 8.526-2.925 9.08-1.274.552-7.098 1.46-8.136.15-1.038-1.31 4.98-8.74 5.687-16.507a26.6 26.6 0 0 0 .091-1.418c-1.035.415-2.223.64-3.58.64-1.748 0-3.572-.39-5.35-1.098a19.636 19.636 0 0 1-5.306-3.187c-.577.33-1.185.643-1.815.938-4.449 2.09-10.198 3.347-16.476 3.347-3.73 0-7.273-.444-10.469-1.243-1.996-.497-6.82-2.146-7.087-2.222-1.04 3.575-3.45 11.682-4.869 15.119-1.852 4.477-2.474 5.48-3.866 5.48s-3.583 0-4.618-1.31c-1.038-1.31 3.062-6.732 3.77-14.498.707-7.765-.306-16.79-.306-16.79a21.565 21.565 0 0 1-.514-4.719c0-9.472 6.012-17.15 13.43-17.15 3.845 0 5.887 3.616 9.258 5.97.3.208.645.404 1.032.588 4.559-.27 10.243-.113 16.232-.113 5.424 0 10.914.387 16.577 1.231 1.595.236 3.108.815 4.457 1.708 1.762-.946 6.31-3.78 6.31-7.788 0-2.49-.204-5.959.31-6.334.513-.372 4.014 4.355 4.014 8.57 0 4.919-5.957 7.409-7.794 8.227"/>
        <path stroke="#6D6E71" stroke-width="3" d="M292.06 197.15c1.842 2.418 2.978 5.741 2.978 9.829 0 3.263-.345 6.313-1.207 8.825 1.397 1.757 2.378 3.454 2.214 4.628-.506 3.625-1.007 5.308-2.041 10.046-1.036 4.733-1.65 8.526-2.925 9.08-1.274.552-7.098 1.46-8.136.15-1.038-1.31 4.98-8.74 5.687-16.507a26.6 26.6 0 0 0 .091-1.418c-1.035.415-2.223.64-3.58.64-1.748 0-3.572-.39-5.35-1.098a19.636 19.636 0 0 1-5.306-3.187c-.577.33-1.185.643-1.815.938-4.449 2.09-10.198 3.347-16.476 3.347-3.73 0-7.273-.444-10.469-1.243-1.996-.497-6.82-2.146-7.087-2.222-1.04 3.575-3.45 11.682-4.869 15.119-1.852 4.477-2.474 5.48-3.866 5.48s-3.583 0-4.618-1.31c-1.038-1.31 3.062-6.732 3.77-14.498.707-7.765-.306-16.79-.306-16.79a21.565 21.565 0 0 1-.514-4.719c0-9.472 6.012-17.15 13.43-17.15 3.845 0 5.887 3.616 9.258 5.97.3.208.645.404 1.032.588 4.559-.27 10.243-.113 16.232-.113 5.424 0 10.914.387 16.577 1.231 1.595.236 3.108.815 4.457 1.708 1.762-.946 6.31-3.78 6.31-7.788 0-2.49-.204-5.959.31-6.334.513-.372 4.014 4.355 4.014 8.57 0 4.919-5.957 7.409-7.794 8.227z"/>
        <path fill="#FFF" d="M253.007 185.45s.153-6.632-2.254-12.755c.43 1.762 1.395 5.196 1.395 6.919 0 3.507-1.677 6.617-4.268 8.57.08.398.122.804.122 1.219 0 4.213-4.327 7.627-9.663 7.627-5.337 0-9.66-3.414-9.66-7.627 0-.233.014-.463.04-.688a10.712 10.712 0 0 1-5.037-9.101c0-2.311 1.784-7.616 1.784-7.616l-.164-.063s-.398 1.166-.471 1.395c-2.033 6.307-2.47 12.614-2.47 12.614s-3.96-6.828-3.96-12.388 2.076-9.641 5.28-10.643c2.548-.792 7.322.242 7.322.242s2.53-1.751 7.008-1.751c4.476 0 6.363 1.419 6.363 1.419s4.765-1.2 7.312-.404c3.207 1 5.28 5.08 5.28 10.64 0 5.56-3.959 12.39-3.959 12.39"/>
        <path stroke="#6D6E71" stroke-width="3" d="M253.007 185.45s.153-6.632-2.254-12.755c.43 1.762 1.395 5.196 1.395 6.919 0 3.507-1.677 6.617-4.268 8.57.08.398.122.804.122 1.219 0 4.213-4.327 7.627-9.663 7.627-5.337 0-9.66-3.414-9.66-7.627 0-.233.014-.463.04-.688a10.712 10.712 0 0 1-5.037-9.101c0-2.311 1.784-7.616 1.784-7.616l-.164-.063s-.398 1.166-.471 1.395c-2.033 6.307-2.47 12.614-2.47 12.614s-3.96-6.828-3.96-12.388 2.076-9.641 5.28-10.643c2.548-.792 7.322.242 7.322.242s2.53-1.751 7.008-1.751c4.476 0 6.363 1.419 6.363 1.419s4.765-1.2 7.312-.404c3.207 1 5.28 5.08 5.28 10.64 0 5.56-3.959 12.39-3.959 12.39z"/>
        <path fill="#6D6E71" d="M246.47 177.82c0 .77-.622 1.397-1.39 1.397-.768 0-1.391-.626-1.391-1.398 0-.772.623-1.398 1.39-1.398.77 0 1.391.626 1.391 1.398M242.652 187.259c0 1.196-3.346 3.21-4.658 3.21-1.257 0-4.658-2.014-4.658-3.21 0-1.197 2.086-2.168 4.658-2.168 2.573 0 4.658.97 4.658 2.168M232.684 177.82c0 .77-.622 1.397-1.39 1.397-.768 0-1.391-.626-1.391-1.398 0-.772.623-1.398 1.39-1.398.769 0 1.391.626 1.391 1.398"/>
        <path fill="#A2EDDE" d="M252.055 163.698c.992.493 2.519 2.36 3.205 4.362 1.886 5.495-1.367 13.146-1.367 13.146s-1.956-9.883-3.676-12.46c-1.72-2.576-7.856-4.4-5.326-5.069 1.344-.355 4.932-1.087 7.164.021M249.133 191.558c0 3.485-3.33 6.683-8.72 7.485-5.366.798-9.945-4.24-9.945-4.24s3.771 3.743 9.642 2.843c2.665-.409 3.86-1.165 5.606-2.37.688-.474 1.562-1.506 1.932-2.131.59-.995 1.06-3.032 1.06-3.032s.425.703.425 1.445M266.882 210.546s2.047 2.526 3.464 4.202c1.558 1.842 3.935 2.431 3.935 2.431l-.706.521s-2.514-.716-4.093-2.795c-1.036-1.362-2.6-4.359-2.6-4.359M276.47 237.205c-1.202 1.184-4.772 1.703-5.808.614-.497-.522 1.444-4.146 2.46-7.84.867-3.142.613-9.924.613-9.924l.472-.237 3.999 2.132s-.946 4.15-.982 8.1c-.033 3.608-.18 6.589-.755 7.155M244.891 237.678c-1.202 1.185-4.43 1.516-5.467.427-.496-.522 1.066-3.99 1.461-7.912.43-4.272-.283-9.001-.283-9.001l3.77.9s-.293 4.008-.33 7.959c-.033 3.606 1.423 7.062.849 7.627"/>
    </g>
</svg>
