<svg xmlns="http://www.w3.org/2000/svg" width="39" height="50" viewBox="0 0 39 50">
    <g fill="#99BBC1" fill-rule="evenodd">
        <path d="M28.265 43.762a.975.975 0 1 0 0 1.95.975.975 0 0 0 0-1.95"/>
        <path d="M22.195 47.953l8.997-14.906 1.532.607a6.787 6.787 0 0 1 4.313 6.344v7.955H22.195zm-.753-2.526l-1.524 2.526h-.85l-1.524-2.525v-6.181c0-.21.069-.418.195-.585l1.754-2.34 1.755 2.34a.978.978 0 0 1 .194.585v6.18zM1.95 47.953v-7.956a6.786 6.786 0 0 1 4.312-6.343l1.533-.607 7.86 13.022 1.137 1.884H1.95zm12.546-17.558a9.629 9.629 0 0 0 2.074.93v1.424a2.905 2.905 0 0 0 1.33 2.45l-1.72 2.293a2.94 2.94 0 0 0-.585 1.755v2.951L9.632 32.32l4.863-1.924zm5.973 1.33v1.024a.976.976 0 0 1-1.95 0v-1.024a9.847 9.847 0 0 0 1.95 0zm-8.772-9.698c0-.834.13-1.645.384-2.422l1.498.496a18.817 18.817 0 0 0 11.772.012l1.556-.511c.255.778.384 1.59.384 2.425a7.793 7.793 0 0 1-3.462 6.482 7.708 7.708 0 0 1-2.601 1.123 7.913 7.913 0 0 1-3.468 0 7.714 7.714 0 0 1-2.618-1.134 7.792 7.792 0 0 1-3.445-6.47zm0-6.14H27.29v1.536l-2.548.838a16.825 16.825 0 0 1-10.552-.01l-1.883-.624a.97.97 0 0 0-.611-.33v-1.41zm-2.052-5.31a.974.974 0 0 0-.436-.435l-1.41-.705v-1.62l2.257-.752a.975.975 0 0 0 .28-.148l6.561-4.968h5.194l6.561 4.968c.085.065.18.114.28.148l2.258.753v1.619l-1.41.705a.975.975 0 0 0-.437.436l-1.68 3.36H11.324l-1.68-3.36zm19.71 21.743l-5.962 9.878v-2.951c0-.63-.208-1.253-.585-1.755l-1.72-2.294a2.923 2.923 0 0 0 1.33-2.45v-1.422a9.62 9.62 0 0 0 2.074-.93l4.863 1.924zm8.115 2.747a8.742 8.742 0 0 0-4.028-3.226l-7.15-2.83a9.734 9.734 0 0 0 2.949-6.984 9.688 9.688 0 0 0-.489-3.054.974.974 0 0 0 .489-.844v-2.987l1.7-3.402 1.66-.83a.974.974 0 0 0 .538-.87V7.114a.975.975 0 0 0-.666-.925L29.7 5.267 23.005.197A.975.975 0 0 0 22.417 0h-5.848a.975.975 0 0 0-.588.198L9.286 5.266l-2.772.924a.975.975 0 0 0-.666.925v2.924c0 .37.208.707.539.872l1.658.829 1.701 3.402v2.987c0 .353.191.672.489.844a9.679 9.679 0 0 0-.489 3.054 9.733 9.733 0 0 0 2.948 6.984l-7.15 2.83a8.739 8.739 0 0 0-4.027 3.226A8.737 8.737 0 0 0 0 39.997v8.93c0 .54.436.976.975.976h37.037a.975.975 0 0 0 .974-.975v-8.93c0-1.766-.525-3.47-1.517-4.931z"/>
        <path d="M19.493 10.039a1.952 1.952 0 0 1-1.95-1.95c0-1.074.875-1.949 1.95-1.949s1.95.875 1.95 1.95-.875 1.949-1.95 1.949m0-5.848a3.903 3.903 0 0 0-3.899 3.899 3.903 3.903 0 0 0 3.9 3.898 3.903 3.903 0 0 0 3.898-3.898 3.903 3.903 0 0 0-3.899-3.899M34.113 43.762h-1.95a.975.975 0 0 0 0 1.95h1.95a.975.975 0 0 0 0-1.95"/>
    </g>
</svg>
