<svg xmlns="http://www.w3.org/2000/svg" xmlns:xlink="http://www.w3.org/1999/xlink" width="782" height="280" viewBox="0 0 782 280">
    <defs>
        <path id="a" d="M.34.358h55.82v14.187H.34z"/>
        <path id="c" d="M0 .182h30.569v48.005H0z"/>
    </defs>
    <g fill="none" fill-rule="evenodd" opacity=".2">
        <path stroke="#6D6E71" stroke-width="3" d="M517.57 276.593s74.724 1.664 78.092-30.962c2.896-28.056-15.997-30.622-15.997-30.622H-10v63.11l527.57-1.526z"/>
        <path fill="#A2EDDE" d="M536.725 230.002c0 2.354-9.824 4.262-21.943 4.262-12.12 0-21.943-1.908-21.943-4.262 0-2.354 9.823-4.262 21.943-4.262 12.119 0 21.943 1.908 21.943 4.262M532.232 235.95c0 1.321-8.266 2.39-18.463 2.39-10.195 0-18.462-1.069-18.462-2.39 0-.436.898-.843 2.47-1.195 3.194.715 9.16 1.195 15.992 1.195 6.833 0 12.8-.48 15.993-1.195 1.573.352 2.47.76 2.47 1.195M546.04 237.378c.189 1.115-6.628 3.193-15.223 4.645-8.596 1.452-15.716 1.728-15.905.614-.062-.367.637-.839 1.912-1.36 2.795.149 7.893-.296 13.653-1.27 5.759-.972 10.72-2.226 13.31-3.285 1.377.074 2.191.29 2.253.656M572.975 218.528c2.301.495 14.649 9.589 12.096 21.436-2.552 11.847-9.245 21.949-11.547 21.454-2.3-.496 2.922-8.501 5.474-20.349 2.553-11.848-8.325-23.037-6.023-22.541"/>
        <path fill="#FFF" d="M531.86 219.834c0 5.776-8.101 10.459-18.091 10.459-9.991 0-18.09-4.683-18.09-10.46 0-.401.04-.798.117-1.188h35.947c.077.39.116.787.116 1.189"/>
        <path stroke="#6D6E71" stroke-width="3" d="M531.86 219.834c0 5.776-8.101 10.459-18.091 10.459-9.991 0-18.09-4.683-18.09-10.46 0-.401.04-.798.117-1.188h35.947c.077.39.116.787.116 1.189z"/>
        <path fill="#FFF" d="M523.123 218.645h1.677v-19.588h-1.677z"/>
        <path stroke="#6D6E71" stroke-width="3" d="M523.123 218.645h1.677v-19.588h-1.677z"/>
        <path fill="#FFF" d="M538.83 210.214h-13.942v-10.413z"/>
        <path stroke="#6D6E71" stroke-width="3" d="M538.83 210.214h-13.942v-10.413z"/>
        <path fill="#A2EDDE" d="M232.887 250.204c0 2.354-9.825 4.262-21.943 4.262-12.12 0-21.944-1.908-21.944-4.262 0-2.354 9.824-4.262 21.944-4.262 12.118 0 21.943 1.908 21.943 4.262M228.394 256.152c0 1.321-8.267 2.39-18.463 2.39-10.196 0-18.462-1.069-18.462-2.39 0-.436.897-.843 2.47-1.195 3.194.715 9.16 1.195 15.992 1.195 6.833 0 12.8-.48 15.993-1.195 1.572.352 2.47.76 2.47 1.195M242.202 257.58c.188 1.115-6.629 3.193-15.223 4.645-8.596 1.452-15.717 1.728-15.905.614-.062-.367.637-.839 1.912-1.36 2.794.149 7.892-.296 13.652-1.27 5.76-.972 10.721-2.226 13.311-3.285 1.376.074 2.19.29 2.253.656"/>
        <path fill="#FFF" d="M228.02 240.036c0 5.776-8.1 10.459-18.09 10.459s-18.089-4.683-18.089-10.459c0-.402.04-.8.117-1.189h35.946c.077.39.117.787.117 1.189"/>
        <path stroke="#6D6E71" stroke-width="3" d="M228.02 240.036c0 5.776-8.1 10.459-18.09 10.459s-18.089-4.683-18.089-10.459c0-.402.04-.8.117-1.189h35.946c.077.39.117.787.117 1.189z"/>
        <path fill="#FFF" d="M219.284 238.847h1.676V219.26h-1.676z"/>
        <path stroke="#6D6E71" stroke-width="3" d="M219.284 238.847h1.676V219.26h-1.676z"/>
        <path fill="#FFF" d="M234.992 230.416H221.05v-10.413z"/>
        <path stroke="#6D6E71" stroke-width="3" d="M234.992 230.416H221.05v-10.413z"/>
        <g>
            <path fill="#FFF" d="M683.6 144.5v11.834h-2.01v-9.162h-9.544v9.162h-2V144.5H660.5v18.33h3.434l.257 12.596v64.215h26.51v-72.42h-2.332v-4.392h4.775V144.5z"/>
            <path stroke="#6D6E71" stroke-width="3" d="M664.192 239.64v-64.215l-.258-12.597H660.5V144.5h9.545v11.835h2.001v-9.162h9.545v9.162h2.008V144.5h9.545v18.33h-4.774v4.391h2.332v72.42"/>
            <path fill="#FFF" d="M770.437 144.5v11.834h-2v-9.162h-9.546v9.162h-2.008V144.5h-9.545v18.33h4.774v4.391h-2.333v72.42h26.511v-64.215l.258-12.597h3.434V144.5z"/>
            <path stroke="#6D6E71" stroke-width="3" d="M776.29 239.64v-64.215l.258-12.597h3.434V144.5h-9.545v11.835h-2v-9.162h-9.546v9.162h-2.008V144.5h-9.545v18.33h4.774v4.391h-2.332v72.42"/>
            <path fill="#A2EDDE" d="M757.399 169.947v6.198h-10.061v-6.198c0-3.423 2.252-6.198 5.03-6.198 2.779 0 5.03 2.775 5.03 6.198M693.145 169.947v6.198h-10.061v-6.198c0-3.423 2.252-6.198 5.03-6.198 2.779 0 5.03 2.775 5.03 6.198"/>
            <path fill="#FFF" d="M671.362 239.85v-42.978h15.629V156.13h11.526v12.952h13.187V156.13h16.606v12.952h10.451V156.13h15.434v40.74h15.629v42.98"/>
            <path stroke="#6D6E71" stroke-width="3" d="M671.362 239.85v-42.978h15.629V156.13h11.526v12.952h13.187V156.13h16.606v12.952h10.451V156.13h15.434v40.74h15.629v42.98"/>
            <path fill="#A2EDDE" d="M709.75 192.46v6.199h-10.06v-6.198c0-3.423 2.251-6.198 5.03-6.198 2.778 0 5.03 2.775 5.03 6.198M676.393 169.947v6.198h-10.061v-6.198c0-3.423 2.252-6.198 5.03-6.198 2.779 0 5.03 2.775 5.03 6.198M772.461 169.947v6.198H762.4v-6.198c0-3.423 2.252-6.198 5.03-6.198 2.779 0 5.031 2.775 5.031 6.198M725.623 192.46v6.199h-10.06v-6.198c0-3.423 2.251-6.198 5.03-6.198 2.778 0 5.03 2.775 5.03 6.198M741.868 192.46v6.199h-10.061v-6.198c0-3.423 2.252-6.198 5.03-6.198 2.779 0 5.03 2.775 5.03 6.198M733.174 224.718v14.77h-23.979v-14.77c0-8.158 5.368-14.772 11.989-14.772 6.622 0 11.99 6.614 11.99 14.772"/>
        </g>
        <g>
            <path fill="#FFF" d="M315.914 28.852c9.312 10.227 8.571 26.067-1.657 35.38-10.227 9.312-26.067 8.57-35.38-1.657-9.312-10.227-8.57-26.067 1.657-35.38 10.227-9.312 26.068-8.57 35.38 1.657"/>
            <path stroke="#6D6E71" stroke-width="3" d="M315.914 28.852c9.312 10.227 8.571 26.067-1.657 35.38-10.227 9.312-26.067 8.57-35.38-1.657-9.312-10.227-8.57-26.067 1.657-35.38 10.227-9.312 26.068-8.57 35.38 1.657z"/>
            <path fill="#A2EDDE" d="M317.662 75.876c-.048.581-7.427 7.554-23.588 6.234-16.16-1.322-22.677-9.423-22.626-10.047.05-.625 6.606 7.006 22.766 8.327 16.162 1.322 23.495-5.095 23.448-4.514M272.391 85.622c-.545.206-10.008-3.472-15.74-18.64-5.734-15.168-1.208-24.527-.621-24.748.586-.222-3.5 8.97 2.233 24.139 5.733 15.167 14.674 19.043 14.128 19.25M315.313 86.22c.51.283 10.406-1.988 18.271-16.168 7.866-14.18 4.741-24.095 4.192-24.4-.547-.303 2.166 9.384-5.7 23.564-7.865 14.179-17.272 16.721-16.763 17.004"/>
            <g transform="translate(262.758 85.272)">
                <mask id="b" fill="#fff">
                    <use xlink:href="#a"/>
                </mask>
                <path fill="#A2EDDE" d="M.34.395c-.096.702 6.823 10.914 26.339 13.597 19.516 2.682 29.376-5.212 29.48-5.967.104-.754-9.678 6.573-29.195 3.891C7.448 9.233.437-.307.341.395" mask="url(#b)"/>
            </g>
            <path fill="#A2EDDE" d="M346.912 56.822c.666-.24 6.51-11.102-.154-29.64-6.664-18.539-18.229-23.618-18.945-23.36-.716.257 10.31 5.53 16.973 24.068 6.665 18.539 1.46 29.172 2.126 28.932"/>
            <g transform="translate(247 .424)">
                <mask id="d" fill="#fff">
                    <use xlink:href="#c"/>
                </mask>
                <path fill="#A2EDDE" d="M30.546.219c-.602-.372-12.74 1.823-23.09 18.586C-2.893 35.567.338 47.778.986 48.178c.648.4-2.096-11.51 8.253-28.273C19.588 3.143 31.15.591 30.546.22" mask="url(#d)"/>
            </g>
            <path fill="#A2EDDE" d="M327.202 14.023c.096-.575-5.352-9.142-21.345-11.816-15.993-2.673-24.294 3.587-24.397 4.205-.103.618 8.119-5.177 24.112-2.503 15.994 2.673 21.534 10.69 21.63 10.114M318.857 15.184c.572-.112 9.287 5.097 12.403 21.01 3.116 15.912-2.911 24.383-3.527 24.504-.615.12 4.95-8.26 1.834-24.173-3.115-15.913-11.282-21.229-10.71-21.341M261.68 49.843c-.49-.314-3.187-10.102 5.563-23.754 8.749-13.652 18.96-15.606 19.487-15.268.528.338-9.286 2.546-18.035 16.198-8.75 13.652-6.524 23.139-7.015 22.824"/>
        </g>
    </g>
</svg>
