<svg xmlns="http://www.w3.org/2000/svg" xmlns:xlink="http://www.w3.org/1999/xlink" width="300" height="251" viewBox="0 0 300 251">
    <defs>
        <path id="a" d="M.594.188h120.91V34H.594z"/>
    </defs>
    <g fill="none" fill-rule="evenodd">
        <path fill="#8DE2D2" d="M106 221.944c0 3.713-7.01 9.137-16.899 10.93-8.04 1.459-9.235 1.582-17.13-.114-4.238-.91-17.15-.223-19.562-.223-11.275 0-23.409-1.68-23.409-8.52 0-4.378 9.691-7.597 20.966-7.597 6.396 0 17.514-.342 35.124-.42 8.619-.037 20.91 2.068 20.91 5.944M278 220.632c0 2.27-3.095 5.584-7.461 6.68-3.551.892-4.078.966-7.565-.07-1.87-.556-7.572-.136-8.637-.136-4.979 0-10.337-1.027-10.337-5.208 0-2.674 4.28-4.642 9.258-4.642 2.824 0 7.733-.209 15.51-.256 3.805-.023 9.232 1.263 9.232 3.632"/>
        <g transform="translate(107 217)">
            <mask id="b" fill="#fff">
                <use xlink:href="#a"/>
            </mask>
            <path fill="#8DE2D2" d="M121.504 11.429c0 2.196-9.2 11.713-15.094 14.27-12.404 5.38-28.233 3.762-39.67 5.482C58.366 32.439 58.704 34 50.225 34 26.432 34 .594 23.515.594 10.95.594 2.91 8.718.452 27.664.96c6.384.17 17.487-.63 35.07-.771 8.605-.07 58.77 4.12 58.77 11.24" mask="url(#b)"/>
        </g>
        <path fill="#FFF" d="M114 229.755c0 7.836 24.28 25.197 58.453 15.25 16.661-4.848 26.908 2 38.12-6.054 11.168-8.024 15.618 7.554 24.19 5.184 6.627-1.833 3.666-6.254 3.017-16.504-.233-3.661-2.201-5.86-5.669-7.876-10.046-5.839-33.183-3.125-59.658-3.125-35.613 0-58.453 5.29-58.453 13.125"/>
        <path stroke="#6D6E71" stroke-width="3" d="M114 229.755c0 7.836 24.28 25.197 58.453 15.25 16.661-4.848 26.908 2 38.12-6.054 11.168-8.024 15.618 7.554 24.19 5.184 6.627-1.833 3.666-6.254 3.017-16.504-.233-3.661-2.201-5.86-5.669-7.876-10.046-5.839-33.183-3.125-59.658-3.125-35.613 0-58.453 5.29-58.453 13.125z"/>
        <path fill="#FFF" d="M107 222.419c0 3.832-11.999 11.444-29.469 7.458-17.149-3.912-31.492 3.301-32.508-6.939-.69-6.96 14.554-6.938 32.508-6.938S107 218.587 107 222.419"/>
        <path stroke="#6D6E71" stroke-width="3" d="M107 222.419c0 3.832-11.999 11.444-29.469 7.458-17.149-3.912-31.492 3.301-32.508-6.939-.69-6.96 14.554-6.938 32.508-6.938S107 218.587 107 222.419z"/>
        <path fill="#FFF" d="M281 221.424c0 2.044-6 6.103-14.735 3.977-8.574-2.086-15.745 1.76-16.254-3.7-.344-3.712 7.278-3.701 16.254-3.701 8.977 0 14.735 1.38 14.735 3.424"/>
        <path stroke="#6D6E71" stroke-width="3" d="M281 221.424c0 2.044-6 6.103-14.735 3.977-8.574-2.086-15.745 1.76-16.254-3.7-.344-3.712 7.278-3.701 16.254-3.701 8.977 0 14.735 1.38 14.735 3.424z"/>
        <path fill="#8DE2D2" d="M236.998 238.293c.083.946-1.952 2.382-4.544 2.67-2.591.286-4.37-1.126-4.451-2.07-.083-.946 1.71.644 4.302.358 2.591-.286 4.61-1.903 4.693-.958"/>
        <path fill="#FFF" d="M75.265 127.723c4.575-5.803 1.114-7.111 12.747-11.835 7.322-2.973 19.731-3.066 27.114-5.088 5.661-1.552 10.989-32.8 10.989-32.8L138 81.186c-.235.817-8.77 34.97-13.56 37.84-4.721 2.829-24.9 9.775-24.9 9.775s.241 7.337 11.663 13.32c6.911 3.621 21.922 8.756 21.922 8.756l-19.594 32.822s-9.489-3.634-18.74-8.954c-13.406-7.71-20.164-17.356-20.164-17.356s-1.306 7.634-.562 11.978c.745 4.343 13.242 27.686 13.242 27.686L79.232 206s-15.142-26.872-17.178-35.198c-2.5-10.217-2.49-15.257-1.186-24.946.662-4.926 2.402-8.397 5.854-11.503l8.543-6.63z"/>
        <path stroke="#6D6E71" stroke-width="3" d="M75.265 127.723c4.575-5.803 1.114-7.111 12.747-11.835 7.322-2.973 19.731-3.066 27.114-5.088 5.661-1.552 10.989-32.8 10.989-32.8L138 81.186c-.235.817-8.77 34.97-13.56 37.84-4.721 2.829-24.9 9.775-24.9 9.775s.241 7.337 11.663 13.32c6.911 3.621 21.922 8.756 21.922 8.756l-19.594 32.822s-9.489-3.634-18.74-8.954c-13.406-7.71-20.164-17.356-20.164-17.356s-1.306 7.634-.562 11.978c.745 4.343 13.242 27.686 13.242 27.686L79.232 206s-15.142-26.872-17.178-35.198c-2.5-10.217-2.49-15.257-1.186-24.946.662-4.926 2.402-8.397 5.854-11.503l8.543-6.63z"/>
        <path fill="#FFF" d="M142.744 167.039s19.852 5.96 20.452 10.93c.262 2.178-7.286 35.848-7.286 35.848l8.212 4.836s16.225-38.754 13.982-46.434c-2.244-7.68-45.518-20.97-45.518-20.97"/>
        <path stroke="#6D6E71" stroke-linecap="round" stroke-width="3" d="M142.744 167.039s19.852 5.96 20.452 10.93c.262 2.178-7.286 35.848-7.286 35.848l8.212 4.836s16.225-38.754 13.982-46.434c-2.244-7.68-45.518-20.97-45.518-20.97"/>
        <path fill="#FFF" d="M132.244 150.823l-19.495 32.778s3.736 4.366 14.746 5.55c8.818.948 30.618-7.318 41.691-10.993 11.696-3.882 41.986-21.313 41.986-21.313l-4.534-8.767s-35.149 17.127-40.524 18.994c-9.71 3.372-30.447 7.607-30.447 7.607l7.112-7.98"/>
        <path stroke="#6D6E71" stroke-linecap="round" stroke-width="3" d="M132.244 150.823l-19.495 32.778s3.736 4.366 14.746 5.55c8.818.948 30.618-7.318 41.691-10.993 11.696-3.882 41.986-21.313 41.986-21.313l-4.534-8.767s-35.149 17.127-40.524 18.994c-9.71 3.372-30.447 7.607-30.447 7.607l7.112-7.98"/>
        <path fill="#FFF" d="M210.465 158l-3.218-6.776s-6.576-4.881-5.004-9.238c1.137-3.158 6.414-4.986 6.414-4.986L217 154.925 210.465 158z"/>
        <path stroke="#6D6E71" stroke-width="3" d="M210.465 158l-3.218-6.776s-6.576-4.881-5.004-9.238c1.137-3.158 6.414-4.986 6.414-4.986L217 154.925 210.465 158z"/>
        <path fill="#8DE2D2" d="M216 153.86L208.323 138s-2.059.322-2.317 1.56c-.258 1.239 7.474 15.44 7.474 15.44l2.52-1.14z"/>
        <path fill="#FFF" d="M155.73 213l6.962 2.742s8.152-.895 9.949 3.322c1.3 3.055-1.348 7.936-1.348 7.936L153 219.633l2.73-6.633z"/>
        <path stroke="#6D6E71" stroke-width="3" d="M155.73 213l6.962 2.742s8.152-.895 9.949 3.322c1.3 3.055-1.348 7.936-1.348 7.936L153 219.633l2.73-6.633z"/>
        <path fill="#8DE2D2" d="M155 219.465L171.223 226s1.243-1.57.585-2.639c-.658-1.067-15.794-6.361-15.794-6.361L155 219.465z"/>
        <path fill="#FFF" d="M28.772 137s-4.047-2.585-9.602-8.653c-3.888-4.247-4.095-6.325-4.461-7.784 0 0-1.518-.31-4.351-3.16C5.774 112.79 3 106.412 3 106.412c3.952-.81 8.287-2.412 12.056-4.606 1.18-4.218 5.333-9.678 8.332-13.248a31.437 31.437 0 0 1 12.93-9.204c5.564-2.12 11.375-3.007 17.212-1.828C58.565 78.535 67.529 83.18 71 87.913L28.772 137z"/>
        <path stroke="#6D6E71" stroke-width="3" d="M28.772 137s-4.047-2.585-9.602-8.653c-3.888-4.247-4.095-6.325-4.461-7.784 0 0-1.518-.31-4.351-3.16C5.774 112.79 3 106.412 3 106.412c3.952-.81 8.287-2.412 12.056-4.606 1.18-4.218 5.333-9.678 8.332-13.248a31.437 31.437 0 0 1 12.93-9.204c5.564-2.12 11.375-3.007 17.212-1.828C58.565 78.535 67.529 83.18 71 87.913L28.772 137z"/>
        <path fill="#FFF" d="M62 134.277s6.448 6.218 10.247 7.406c3.363 1.052 7.317-.706 8.769-2.465 1.565-1.896 2.861-5.29 1.23-9.052-1.592-3.67-9.474-9.166-9.474-9.166s-1.655 4.997-3.724 7.502C66.98 131.007 62 134.277 62 134.277"/>
        <path stroke="#6D6E71" stroke-width="3" d="M62 134.277s6.448 6.218 10.247 7.406c3.363 1.052 7.317-.706 8.769-2.465 1.565-1.896 2.861-5.29 1.23-9.052-1.592-3.67-9.474-9.166-9.474-9.166s-1.655 4.997-3.724 7.502C66.98 131.007 62 134.277 62 134.277z"/>
        <path fill="#8DE2D2" d="M34.314 82.494C27.822 85.326 23 93 23 93s9.538-6.071 15.086-5.753c4.98.285 7.014 6.049 7.999 4.908 2.619-3.033 4.118-7.916 4.346-8.612.226-.698 1.018-1.723 1.018-1.723s1.463-.308 4.656.107c.75.097 6.28 1.987 6.28 1.987l.615-.713s-3.341-1.688-6.948-3.022c-2.553-.945-5.662-1.224-7.315-1.173-3.988.122-7.931.656-14.423 3.488"/>
        <path fill="#FFF" d="M30.934 140.933a4.546 4.546 0 0 0 6.4-.549c.984-1.165 1.34-1.692 1.34-1.692s.656.224 1.84.669c10.97 4.126 23.816 1.167 31.799-8.299 7.935-9.411 8.701-22.461 2.867-32.527a81.28 81.28 0 0 0-1.128-1.865s1.233-1.29 2.204-2.44a4.53 4.53 0 0 0-.55-6.392 4.547 4.547 0 0 0-6.4.55c-.765.905-1.488 1.764-1.488 1.764s-.509-.416-.775-.622c-1.315-1.016-1.798-1.149-3.225-1.901-5.433-2.866-10.982-2.624-10.982-2.624S47.27 97.647 41.56 104.501C36.179 110.96 24 118.192 24 118.192s.486 5.77 3.709 11.094a24.35 24.35 0 0 0 1.831 2.619c.341.419 1.638 1.696 1.638 1.696l-.794.94a4.531 4.531 0 0 0 .55 6.392"/>
        <path stroke="#6D6E71" stroke-width="3" d="M30.934 140.933a4.546 4.546 0 0 0 6.4-.549c.984-1.165 1.34-1.692 1.34-1.692s.656.224 1.84.669c10.97 4.126 23.816 1.167 31.799-8.299 7.935-9.411 8.701-22.461 2.867-32.527a81.28 81.28 0 0 0-1.128-1.865s1.233-1.29 2.204-2.44a4.53 4.53 0 0 0-.55-6.392 4.547 4.547 0 0 0-6.4.55c-.765.905-1.488 1.764-1.488 1.764s-.509-.416-.775-.622c-1.315-1.016-1.798-1.149-3.225-1.901-5.433-2.866-10.982-2.624-10.982-2.624S47.27 97.647 41.56 104.501C36.179 110.96 24 118.192 24 118.192s.486 5.77 3.709 11.094a24.35 24.35 0 0 0 1.831 2.619c.341.419 1.638 1.696 1.638 1.696l-.794.94a4.531 4.531 0 0 0 .55 6.392z"/>
        <path fill="#6D6E71" d="M63.326 104.432l.266-.29c.618-.673.523-1.688-.21-2.255l-3.252-2.512c-.733-.568-1.84-.48-2.457.193l-.266.29c-.617.674-.522 1.688.211 2.255l3.25 2.512c.735.568 1.84.48 2.458-.193M46.326 124.432l.266-.29c.618-.673.523-1.688-.21-2.255l-3.252-2.512c-.733-.568-1.84-.48-2.457.193l-.266.29c-.617.674-.522 1.688.212 2.255l3.25 2.512c.734.568 1.84.48 2.457-.193"/>
        <path fill="#FFF" d="M57.073 131.35c1.055.864 2.703.838 4.501.09 1.711-.701 3.555-2.048 5.148-3.89 1.594-1.842 2.647-3.841 3.067-5.601.447-1.848.195-3.436-.86-4.3-2.055-1.683-6.376.02-9.651 3.803-3.275 3.785-4.26 8.215-2.205 9.899"/>
        <path stroke="#6D6E71" stroke-width="3" d="M57.073 131.35c1.055.864 2.703.838 4.501.09 1.711-.701 3.555-2.048 5.148-3.89 1.594-1.842 2.647-3.841 3.067-5.601.447-1.848.195-3.436-.86-4.3-2.055-1.683-6.376.02-9.651 3.803-3.275 3.785-4.26 8.215-2.205 9.899z"/>
        <path fill="#8DE2D2" d="M61.2 131c1.655-.704 3.423-2.1 4.938-4.025 1.513-1.925 2.487-3.993 2.862-5.875-1.102-.515-3.4 1.001-5.421 3.57-2.018 2.565-3.04 5.255-2.378 6.33"/>
        <path fill="#FFF" d="M125.054 76.393a7.5 7.5 0 1 0 14.892-1.785 7.5 7.5 0 0 0-14.892 1.785"/>
        <path stroke="#6D6E71" stroke-width="3" d="M125.054 76.393a7.5 7.5 0 1 0 14.892-1.785 7.5 7.5 0 0 0-14.892 1.785z"/>
        <path fill="#FFF" d="M80.054 206.393a7.5 7.5 0 1 0 14.892-1.785 7.5 7.5 0 0 0-14.892 1.785"/>
        <path stroke="#6D6E71" stroke-width="3" d="M80.054 206.393a7.5 7.5 0 1 0 14.892-1.785 7.5 7.5 0 0 0-14.892 1.785z"/>
        <path fill="#FFF" d="M171 72.81L112.44 37 103 52.19 161.56 88z"/>
        <path stroke="#6D6E71" stroke-width="3" d="M171 72.81L112.44 37 103 52.19 161.56 88z"/>
        <path fill="#FFF" d="M106 64.342L159.23 87 174 52.657 120.77 30z"/>
        <path stroke="#6D6E71" stroke-width="3" d="M106 64.342L159.23 87 174 52.657 120.77 30z"/>
        <path fill="#8DE2D2" d="M158.376 79L164 73.226 119.214 35 112 54.243z"/>
        <path fill="#FFF" d="M109 46.858L160.257 80 182 47.141 130.743 14z"/>
        <path stroke="#6D6E71" stroke-width="3" d="M109 46.858L160.257 80 182 47.141 130.743 14z"/>
        <path fill="#FFF" d="M143 103.347L161.59 110l20.41-6.495L161.4 94z"/>
        <path stroke="#6D6E71" stroke-width="3" d="M143 103.347L161.59 110l20.41-6.495L161.4 94z"/>
        <path fill="#FFF" d="M204.462 188L188 193.063 198.091 204 214 188.571z"/>
        <path stroke="#6D6E71" stroke-width="3" d="M204.462 188L188 193.063 198.091 204 214 188.571z"/>
        <path fill="#FFF" d="M264.488 218L241 220.767s.157 6.633 5.016 9.385c9.978 5.651 11.847 4.803 11.847 4.803L291 225.586s-13.663-1.04-18.792-2.507c-5.13-1.468-7.72-5.079-7.72-5.079"/>
        <path stroke="#6D6E71" stroke-width="3" d="M264.488 218L241 220.767s.157 6.633 5.016 9.385c9.978 5.651 11.847 4.803 11.847 4.803L291 225.586s-13.663-1.04-18.792-2.507c-5.13-1.468-7.72-5.079-7.72-5.079z"/>
        <path fill="#8DE2D2" d="M161.43 75L173 56.243 124.287 23 114 41.45z"/>
        <path fill="#FFF" d="M192 39.009L134.021 3 112 38.991 169.98 75z"/>
        <path stroke="#6D6E71" stroke-width="3" d="M192 39.009L134.021 3 112 38.991 169.98 75z"/>
        <path fill="#FFF" d="M158 41.83L146.948 35 145 38.17 156.052 45z"/>
        <path stroke="#6D6E71" stroke-width="3" d="M158 41.83L146.948 35 145 38.17 156.052 45z"/>
        <path fill="#8DE2D2" d="M177 103.408L162 96l5.193 5.578-4.981 6.422zM269.907 225L283 227.445 260 234l9.475-6.276zM204.348 190l5.652.565L197 204l8.582-11.808z"/>
        <path fill="#FFF" d="M221.73 119.097c1.048-2.292 3.173-3.597 4.745-2.917 1.573.68 1.998 3.09.95 5.382-1.047 2.292-6.355 6.438-6.355 6.438s-.388-6.611.66-8.903"/>
        <path stroke="#6D6E71" stroke-width="3" d="M221.73 119.097c1.048-2.292 3.173-3.597 4.745-2.917 1.573.68 1.998 3.09.95 5.382-1.047 2.292-6.355 6.438-6.355 6.438s-.388-6.611.66-8.903z"/>
        <path fill="#FFF" d="M235.558 128.97c2.46-1.463 5.208-1.246 6.135.484.927 1.731-.316 4.32-2.776 5.783C236.455 136.7 229 137 229 137s4.097-6.568 6.558-8.03"/>
        <path stroke="#6D6E71" stroke-width="3" d="M235.558 128.97c2.46-1.463 5.208-1.246 6.135.484.927 1.731-.316 4.32-2.776 5.783C236.455 136.7 229 137 229 137s4.097-6.568 6.558-8.03z"/>
        <path fill="#FFF" d="M250.215 149.25c1.334.536 2.083 1.754 1.672 2.72-.41.966-1.827 1.314-3.163.778-1.334-.535-3.724-3.543-3.724-3.543s3.879-.49 5.215.046"/>
        <path stroke="#6D6E71" stroke-width="3" d="M250.215 149.25c1.334.536 2.083 1.754 1.672 2.72-.41.966-1.827 1.314-3.163.778-1.334-.535-3.724-3.543-3.724-3.543s3.879-.49 5.215.046z"/>
        <path fill="#FFF" d="M228.413 155.15c.83 1.301.773 2.894-.129 3.56-.902.664-2.307.15-3.137-1.151C224.317 156.258 224 152 224 152s3.583 1.85 4.413 3.15"/>
        <path stroke="#6D6E71" stroke-width="3" d="M228.413 155.15c.83 1.301.773 2.894-.129 3.56-.902.664-2.307.15-3.137-1.151C224.317 156.258 224 152 224 152s3.583 1.85 4.413 3.15z"/>
        <path fill="#FFF" d="M207.002 126.521c-.045-1.357.814-2.486 1.918-2.52 1.104-.036 2.035 1.036 2.08 2.393.045 1.357-1.85 4.606-1.85 4.606s-2.104-3.122-2.148-4.479"/>
        <path stroke="#6D6E71" stroke-width="3" d="M207.002 126.521c-.045-1.357.814-2.486 1.918-2.52 1.104-.036 2.035 1.036 2.08 2.393.045 1.357-1.85 4.606-1.85 4.606s-2.104-3.122-2.148-4.479z"/>
        <path fill="#8DE2D2" d="M209.795 126.62c-.057.82-.795 2.38-.795 2.38s.033-1.54.174-2.352c.141-.81-.259-1.685-.018-1.647.241.038.718.482.639 1.619M226.183 121.55A115.57 115.57 0 0 0 223 126s2.272-1.501 3.923-3.682c1.651-2.182 1.127-3.727.26-4.232-.865-.505.652 1.283-1 3.464M240.967 130.095c-.3-.59-2.1 1.742-3.53 2.339C236.007 133.029 231 135 231 135s5.615-.781 7.046-1.378c1.43-.595 3.22-2.938 2.92-3.527M250.997 152.47c.065.529-.968.627-1.615.447C248.622 152.704 247 151 247 151s1.796.79 2.536 1.063c.806.296 1.396-.122 1.461.407M227.157 156.779c.406.68 1.114 1.169.735 1.217-.378.048-.91-.298-1.383-.928-.384-.512-.509-2.068-.509-2.068s.727 1.058 1.157 1.779M180.978 239.792c-.57 1.048-11.022 4.208-24.042 4.208-13.02 0-27.728-6.404-31.139-8.855-10.833-7.785-3.646-11.69-1.052-11.084 1.252.293-4.634 2.427.751 7.375 3.823 3.513 18.163 7.319 23.671 8.989 12.832 3.889 32.575-2.036 31.811-.633M230.842 221.996c-1.375-.136-8.376-1.88-14.627-1.889-4.876-.006-19.214-.478-20.159-.944-1.125-.557 14.968-1.394 20.16-1.103 7.5.42 16.058 4.078 14.626 3.936M204 239.394c0 .886-3.582 1.606-8 1.606s-8-.72-8-1.606c0-.886 3.582 0 8 0s8-.886 8 0M102 224.067c0 .366-2.114 1.883-5.731 2.962-2.844.85-7.454.971-9.389.971-4.397 0-13.88-1.287-13.88-1.94 0-.654 9.483.755 13.88.755 1.775 0 6.04-.029 8.676-.72 3.893-1.021 6.444-2.418 6.444-2.028M51.024 222.474c0 .745.381 2.472 2.38 3.207 3.095 1.137 8.225 1.146 7.532 1.146-.834 0-5.296.522-8.144-.248-2.577-.698-3.595-2.614-3.767-3.973-.239-1.888 1.256-3.466 3.429-3.602 1.452-.092-1.43 1.57-1.43 3.47M89.276 219.095c5.098.471 12.045 2.334 11.713 1.814-.828-1.295-8.087-2.257-11.005-2.449-1.926-.126-11.226-.95-10.98-.031.15.557 3.63.052 10.272.666M277.122 221.229c-.16-1.283-7.64-1.805-7.093-2.162.546-.357 9.084.762 8.97 2.162-.114 1.4-5.654 3.194-5.906 2.681-.252-.513 4.189-1.398 4.029-2.681"/>
        <path fill="#FFF" d="M58 199s-28.005-7.548-33.973-14.169c-8.92-9.893-8-13.093-8-13.093L19.45 169s2.893 7.828 10.294 14.941C35.889 189.846 58 199 58 199"/>
        <path stroke="#6D6E71" stroke-width="3" d="M58 199s-28.005-7.548-33.973-14.169c-8.92-9.893-8-13.093-8-13.093L19.45 169s2.893 7.828 10.294 14.941C35.889 189.846 58 199 58 199z"/>
        <path fill="#FFF" d="M55 205s-12.876-.114-16.227-2.331c-5.007-3.313-5.773-4.08-5.773-4.08L34.132 197s2.953 2.359 6.976 4.628C44.447 203.513 55 205 55 205"/>
        <path stroke="#6D6E71" stroke-width="3" d="M55 205s-12.876-.114-16.227-2.331c-5.007-3.313-5.773-4.08-5.773-4.08L34.132 197s2.953 2.359 6.976 4.628C44.447 203.513 55 205 55 205z"/>
    </g>
</svg>
