<svg xmlns="http://www.w3.org/2000/svg" width="307" height="301" viewBox="0 0 307 301">
    <g fill="none" fill-rule="evenodd" opacity=".2">
        <path fill="#FFF" d="M157.645 197.73c5.93 1.52 12.06 2.557 18.336 3.055l-4.786 21.544-13.55-24.6zm34.835 22.778l.614-19.686a108.23 108.23 0 0 0 15.272-2.26l-15.886 21.946zm13.865 77.742h-2.946s-8.662-30.766-8.662-51.49c0-23.61 43.787-59.41 44.955-60.527.006-.007.012-.007.025-.02 32.007-18.824 32.915-53.598 32.915-93.382 0-59.812-27.983-91.161-87.876-91.161-59.884 0-78.755 31.349-78.755 91.161 0 42.112-5.614 78.61 29.526 96.522 8.794 12.433 36.1 39.792 36.1 64.15 0 26.523-13.21 44.763-13.21 44.763l-2.56-.032 50.488.016z"/>
        <path stroke="#6D6E71" stroke-width="3" d="M157.645 197.73c5.93 1.52 12.06 2.557 18.336 3.055l-4.786 21.544-13.55-24.6zm34.835 22.778l.614-19.686a108.23 108.23 0 0 0 15.272-2.26l-15.886 21.946zm13.865 77.742h-2.946s-8.662-30.766-8.662-51.49c0-23.61 43.787-59.41 44.955-60.527.006-.007.012-.007.025-.02 32.007-18.824 32.915-53.598 32.915-93.382 0-59.812-27.983-91.161-87.876-91.161-59.884 0-78.755 31.349-78.755 91.161 0 42.112-5.614 78.61 29.526 96.522 8.794 12.433 36.1 39.792 36.1 64.15 0 26.523-13.21 44.763-13.21 44.763l-2.56-.032 50.488.016z"/>
        <path fill="#A2EDDE" d="M265.931 103.552c0 58.187-16.985 72.936-27.415 72.936s-2.545-41.666-2.545-72.936c0-31.27-7.885-76.416 2.545-76.416s27.415 18.23 27.415 76.416"/>
        <g>
            <path fill="#FFF" d="M275.413 298.35h-2.2s4.747-14.067 6.09-17.928c1.726-4.96 11.926-9.964 11.926-9.964h2.198s-10.649 6.613-11.924 10.804c-1.254 4.116-6.09 17.088-6.09 17.088"/>
            <path stroke="#6D6E71" stroke-width="3" d="M275.413 298.35h-2.2s4.747-14.067 6.09-17.928c1.726-4.96 11.926-9.964 11.926-9.964h2.198s-10.649 6.613-11.924 10.804c-1.254 4.116-6.09 17.088-6.09 17.088z"/>
            <path fill="#FFF" d="M303.343 268.394c-.877 2.841-3.913 4.44-6.783 3.573-2.87-.868-4.486-3.873-3.61-6.713.877-2.841 3.913-4.443 6.783-3.575 2.87.868 4.487 3.874 3.61 6.715"/>
            <path stroke="#6D6E71" stroke-width="3" d="M303.343 268.394c-.877 2.841-3.913 4.44-6.783 3.573-2.87-.868-4.486-3.873-3.61-6.713.877-2.841 3.913-4.443 6.783-3.575 2.87.868 4.487 3.874 3.61 6.715z"/>
            <path fill="#FFF" d="M304.806 275.03c-.876 2.84-3.913 4.44-6.784 3.573-2.868-.868-4.485-3.875-3.61-6.715.878-2.84 3.914-4.441 6.784-3.573 2.87.866 4.487 3.873 3.61 6.714"/>
            <path stroke="#6D6E71" stroke-width="3" d="M304.806 275.03c-.876 2.84-3.913 4.44-6.784 3.573-2.868-.868-4.485-3.875-3.61-6.715.878-2.84 3.914-4.441 6.784-3.573 2.87.866 4.487 3.873 3.61 6.714z"/>
            <path fill="#FFF" d="M300.274 279.282c-.877 2.841-3.913 4.441-6.783 3.575-2.87-.868-4.486-3.875-3.61-6.715.877-2.841 3.913-4.441 6.783-3.573 2.87.866 4.487 3.873 3.61 6.713"/>
            <path stroke="#6D6E71" stroke-width="3" d="M300.274 279.282c-.877 2.841-3.913 4.441-6.783 3.575-2.87-.868-4.486-3.875-3.61-6.715.877-2.841 3.913-4.441 6.783-3.573 2.87.866 4.487 3.873 3.61 6.713z"/>
            <path fill="#FFF" d="M292.827 277.032c-.876 2.841-3.913 4.44-6.784 3.573-2.868-.868-4.485-3.873-3.61-6.713.878-2.841 3.914-4.443 6.784-3.575 2.87.867 4.487 3.874 3.61 6.715"/>
            <path stroke="#6D6E71" stroke-width="3" d="M292.827 277.032c-.876 2.841-3.913 4.44-6.784 3.573-2.868-.868-4.485-3.873-3.61-6.713.878-2.841 3.914-4.443 6.784-3.575 2.87.867 4.487 3.874 3.61 6.715z"/>
            <path fill="#FFF" d="M290.879 270.82c-.877 2.841-3.913 4.441-6.783 3.574-2.87-.869-4.486-3.874-3.61-6.714.877-2.842 3.913-4.442 6.783-3.574 2.87.867 4.485 3.872 3.61 6.714"/>
            <path stroke="#6D6E71" stroke-width="3" d="M290.879 270.82c-.877 2.841-3.913 4.441-6.783 3.574-2.87-.869-4.486-3.874-3.61-6.714.877-2.842 3.913-4.442 6.783-3.574 2.87.867 4.485 3.872 3.61 6.714z"/>
            <path fill="#FFF" d="M295.547 266.039c-.877 2.84-3.913 4.44-6.783 3.573-2.869-.868-4.485-3.875-3.61-6.715.877-2.84 3.913-4.441 6.783-3.573 2.87.867 4.487 3.873 3.61 6.715"/>
            <path stroke="#6D6E71" stroke-width="3" d="M295.547 266.039c-.877 2.84-3.913 4.44-6.783 3.573-2.869-.868-4.485-3.875-3.61-6.715.877-2.84 3.913-4.441 6.783-3.573 2.87.867 4.487 3.873 3.61 6.715z"/>
            <path fill="#FFF" d="M296.223 273.06c-.657 2.131-2.935 3.331-5.087 2.68-2.154-.651-3.366-2.906-2.709-5.037.658-2.13 2.935-3.33 5.089-2.68 2.152.651 3.365 2.906 2.707 5.036"/>
            <path stroke="#6D6E71" stroke-width="3" d="M296.223 273.06c-.657 2.131-2.935 3.331-5.087 2.68-2.154-.651-3.366-2.906-2.709-5.037.658-2.13 2.935-3.33 5.089-2.68 2.152.651 3.365 2.906 2.707 5.036z"/>
            <path fill="#8DE2D2" d="M287.621 273.317s-1.578.593-2.613.4c-1.487-.277-3.78-1.877-3.374-3.196.407-1.319 5.776 1.304 5.776 1.304s-.03.243.028.761c.046.426.183.731.183.731M296.916 269.804s1.464-.832 2.516-.804c1.513.043 4.033 1.263 3.842 2.628-.19 1.367-5.91-.383-5.91-.383s-.01-.245-.15-.748c-.113-.412-.298-.693-.298-.693M296.804 273.78s1.555.654 2.166 1.502c.878 1.22 1.129 3.839-.086 4.512-1.215.673-2.971-4.79-2.971-4.79s.19-.155.513-.57c.262-.339.378-.653.378-.653M292.06 276.778s-1.209 1.883-2.066 2.487c-1.232.872-3.878 1.118-4.558-.084-.68-1.204 4.646-2.979 4.646-2.979s.553.337 1.07.448c.57.123.907.128.907.128M293.91 267.363s1.101-1.594.867-3.136c-.225-1.482-1.05-3.462-2.402-3.131-.739.18.034 2.023.26 3.59.186 1.3-.22 2.386-.22 2.386s.246-.016.769.07c.424.069.726.22.726.22M299.344 267.373s-.805-.05-1.764.279c-.959.328-1.73 1.018-1.73 1.018l-.63-.528s.868-1.16 1.043-2.012c.152-.74.185-1.13.185-1.13s.338-.842 1.974.565c1.637 1.404.922 1.808.922 1.808"/>
            <path fill="#FFF" d="M287.632 250.204c0 3.61-2.957 6.536-6.603 6.536-3.648 0-6.604-2.927-6.604-6.536 0-3.61 2.956-6.537 6.604-6.537 3.646 0 6.603 2.926 6.603 6.537"/>
            <path stroke="#6D6E71" stroke-width="3" d="M287.632 250.204c0 3.61-2.957 6.536-6.603 6.536-3.648 0-6.604-2.927-6.604-6.536 0-3.61 2.956-6.537 6.604-6.537 3.646 0 6.603 2.926 6.603 6.537z"/>
            <path fill="#FFF" d="M273.043 298.35h-2.2v-22.96c0-4.084 4.742-16.064 4.742-16.064h2.198s-4.74 12.526-4.74 16.902v22.122z"/>
            <path stroke="#6D6E71" stroke-width="3" d="M273.043 298.35h-2.2v-22.96c0-4.084 4.742-16.064 4.742-16.064h2.198s-4.74 12.526-4.74 16.902v22.122z"/>
            <path fill="#FFF" d="M291.71 257.402c0 3.61-2.956 6.536-6.602 6.536-3.648 0-6.604-2.926-6.604-6.536 0-3.61 2.956-6.536 6.604-6.536 3.646 0 6.603 2.926 6.603 6.536"/>
            <path stroke="#6D6E71" stroke-width="3" d="M291.71 257.402c0 3.61-2.956 6.536-6.602 6.536-3.648 0-6.604-2.926-6.604-6.536 0-3.61 2.956-6.536 6.604-6.536 3.646 0 6.603 2.926 6.603 6.536z"/>
            <path fill="#FFF" d="M287.968 263.938c0 3.61-2.957 6.536-6.603 6.536-3.647 0-6.604-2.925-6.604-6.536 0-3.61 2.957-6.536 6.604-6.536 3.646 0 6.603 2.927 6.603 6.536"/>
            <path stroke="#6D6E71" stroke-width="3" d="M287.968 263.938c0 3.61-2.957 6.536-6.603 6.536-3.647 0-6.604-2.925-6.604-6.536 0-3.61 2.957-6.536 6.604-6.536 3.646 0 6.603 2.927 6.603 6.536z"/>
            <path fill="#FFF" d="M278.504 263.938c0 3.61-2.956 6.536-6.602 6.536-3.648 0-6.604-2.925-6.604-6.536 0-3.61 2.956-6.536 6.604-6.536 3.646 0 6.602 2.927 6.602 6.536"/>
            <path stroke="#6D6E71" stroke-width="3" d="M278.504 263.938c0 3.61-2.956 6.536-6.602 6.536-3.648 0-6.604-2.925-6.604-6.536 0-3.61 2.956-6.536 6.604-6.536 3.646 0 6.602 2.927 6.602 6.536z"/>
            <path fill="#FFF" d="M274.013 257.402c0 3.61-2.956 6.536-6.603 6.536s-6.604-2.926-6.604-6.536c0-3.61 2.957-6.536 6.604-6.536 3.647 0 6.603 2.926 6.603 6.536"/>
            <path stroke="#6D6E71" stroke-width="3" d="M274.013 257.402c0 3.61-2.956 6.536-6.603 6.536s-6.604-2.926-6.604-6.536c0-3.61 2.957-6.536 6.604-6.536 3.647 0 6.603 2.926 6.603 6.536z"/>
            <path fill="#FFF" d="M277.725 250.204c0 3.61-2.956 6.536-6.602 6.536-3.648 0-6.605-2.927-6.605-6.536 0-3.61 2.957-6.537 6.605-6.537 3.646 0 6.602 2.926 6.602 6.537"/>
            <path stroke="#6D6E71" stroke-width="3" d="M277.725 250.204c0 3.61-2.956 6.536-6.602 6.536-3.648 0-6.605-2.927-6.605-6.536 0-3.61 2.957-6.537 6.605-6.537 3.646 0 6.602 2.926 6.602 6.537z"/>
            <path fill="#FFF" d="M281.028 258.128c0 2.707-2.217 4.903-4.952 4.903-2.736 0-4.954-2.196-4.954-4.903 0-2.708 2.218-4.904 4.954-4.904 2.735 0 4.952 2.196 4.952 4.904"/>
            <path stroke="#6D6E71" stroke-width="3" d="M281.028 258.128c0 2.707-2.217 4.903-4.952 4.903-2.736 0-4.954-2.196-4.954-4.903 0-2.708 2.218-4.904 4.954-4.904 2.735 0 4.952 2.196 4.952 4.904z"/>
            <path fill="#8DE2D2" d="M271.122 261.45s-1.623 1.244-2.893 1.381c-1.83.2-5.069-.853-5.069-2.529 0-1.675 7.18-.513 7.18-.513s.053.292.306.876c.207.477.476.785.476.785M280.667 254.1s1.403-1.482 2.636-1.818c1.774-.484 5.141.05 5.408 1.704.268 1.655-7.007 1.634-7.007 1.634s-.1-.282-.442-.82a3.303 3.303 0 0 0-.595-.7M281.962 258.762s2.04.214 3.055.984c1.46 1.108 2.69 4.064 1.518 5.274s-5.17-4.523-5.17-4.523.166-.248.392-.843c.184-.485.205-.892.205-.892M277.521 263.913s-.73 2.612-1.508 3.616c-1.12 1.446-4.107 2.663-5.329 1.503-1.221-1.16 4.332-5.093 4.332-5.093s.765.196 1.405.144c.707-.058 1.1-.17 1.1-.17M276.296 252.317s.71-2.239-.115-3.948c-.794-1.643-2.461-3.656-3.915-2.797-.794.47.765 2.341 1.588 4.084.683 1.445.601 2.85.601 2.85s.28-.106.917-.19c.519-.07.924.001.924.001M282.617 250.421s-.954.224-1.95.943c-.996.72-1.647 1.793-1.647 1.793l-.922-.392s.594-1.653.493-2.705c-.09-.915-.192-1.38-.192-1.38s.092-1.096 2.499-.037c2.406 1.058 1.719 1.778 1.719 1.778"/>
            <path fill="#FFF" d="M270.304 298.35h2.2s-4.747-14.067-6.09-17.928c-1.725-4.96-11.926-9.964-11.926-9.964h-2.198s10.65 6.613 11.925 10.804c1.255 4.116 6.09 17.088 6.09 17.088"/>
            <path stroke="#6D6E71" stroke-width="3" d="M270.304 298.35h2.2s-4.747-14.067-6.09-17.928c-1.725-4.96-11.926-9.964-11.926-9.964h-2.198s10.65 6.613 11.925 10.804c1.255 4.116 6.09 17.088 6.09 17.088z"/>
            <path fill="#FFF" d="M242.375 268.394c.875 2.841 3.912 4.44 6.783 3.573 2.869-.868 4.485-3.873 3.61-6.713-.877-2.841-3.913-4.443-6.784-3.575-2.87.868-4.486 3.874-3.61 6.715"/>
            <path stroke="#6D6E71" stroke-width="3" d="M242.375 268.394c.875 2.841 3.912 4.44 6.783 3.573 2.869-.868 4.485-3.873 3.61-6.713-.877-2.841-3.913-4.443-6.784-3.575-2.87.868-4.486 3.874-3.61 6.715z"/>
            <path fill="#FFF" d="M240.912 275.03c.875 2.84 3.913 4.44 6.783 3.573 2.869-.868 4.485-3.875 3.61-6.715-.877-2.84-3.913-4.441-6.783-3.573-2.87.866-4.487 3.873-3.61 6.714"/>
            <path stroke="#6D6E71" stroke-width="3" d="M240.912 275.03c.875 2.84 3.913 4.44 6.783 3.573 2.869-.868 4.485-3.875 3.61-6.715-.877-2.84-3.913-4.441-6.783-3.573-2.87.866-4.487 3.873-3.61 6.714z"/>
            <path fill="#FFF" d="M245.444 279.282c.877 2.841 3.913 4.441 6.783 3.575 2.869-.868 4.485-3.875 3.61-6.715-.877-2.841-3.913-4.441-6.784-3.573-2.87.866-4.486 3.873-3.61 6.713"/>
            <path stroke="#6D6E71" stroke-width="3" d="M245.444 279.282c.877 2.841 3.913 4.441 6.783 3.575 2.869-.868 4.485-3.875 3.61-6.715-.877-2.841-3.913-4.441-6.784-3.573-2.87.866-4.486 3.873-3.61 6.713z"/>
            <path fill="#FFF" d="M252.89 277.032c.876 2.841 3.914 4.44 6.784 3.573 2.869-.868 4.485-3.873 3.61-6.713-.877-2.841-3.913-4.443-6.783-3.575-2.87.867-4.487 3.874-3.61 6.715"/>
            <path stroke="#6D6E71" stroke-width="3" d="M252.89 277.032c.876 2.841 3.914 4.44 6.784 3.573 2.869-.868 4.485-3.873 3.61-6.713-.877-2.841-3.913-4.443-6.783-3.575-2.87.867-4.487 3.874-3.61 6.715z"/>
            <path fill="#FFF" d="M254.839 270.82c.876 2.841 3.912 4.441 6.783 3.574 2.869-.869 4.485-3.874 3.61-6.714-.877-2.842-3.913-4.442-6.784-3.574-2.87.867-4.486 3.872-3.61 6.714"/>
            <path stroke="#6D6E71" stroke-width="3" d="M254.839 270.82c.876 2.841 3.912 4.441 6.783 3.574 2.869-.869 4.485-3.874 3.61-6.714-.877-2.842-3.913-4.442-6.784-3.574-2.87.867-4.486 3.872-3.61 6.714z"/>
            <path fill="#FFF" d="M250.17 266.039c.876 2.84 3.913 4.44 6.784 3.573 2.868-.868 4.485-3.875 3.61-6.715-.878-2.84-3.914-4.441-6.784-3.573-2.87.867-4.487 3.873-3.61 6.715"/>
            <path stroke="#6D6E71" stroke-width="3" d="M250.17 266.039c.876 2.84 3.913 4.44 6.784 3.573 2.868-.868 4.485-3.875 3.61-6.715-.878-2.84-3.914-4.441-6.784-3.573-2.87.867-4.487 3.873-3.61 6.715z"/>
            <path fill="#FFF" d="M249.494 273.06c.657 2.131 2.935 3.331 5.087 2.68 2.154-.651 3.366-2.906 2.71-5.037-.658-2.13-2.936-3.33-5.09-2.68-2.152.651-3.364 2.906-2.707 5.036"/>
            <path stroke="#6D6E71" stroke-width="3" d="M249.494 273.06c.657 2.131 2.935 3.331 5.087 2.68 2.154-.651 3.366-2.906 2.71-5.037-.658-2.13-2.936-3.33-5.09-2.68-2.152.651-3.364 2.906-2.707 5.036z"/>
            <path fill="#8DE2D2" d="M258.096 273.317s1.579.593 2.613.4c1.487-.277 3.781-1.877 3.374-3.196-.407-1.319-5.775 1.304-5.775 1.304s.03.243-.029.761c-.045.426-.183.731-.183.731M248.801 269.804s-1.464-.832-2.516-.804c-1.513.043-4.033 1.263-3.841 2.628.19 1.367 5.91-.383 5.91-.383s.01-.245.15-.748c.113-.412.297-.693.297-.693M248.913 273.78s-1.554.654-2.166 1.502c-.878 1.22-1.128 3.839.087 4.512 1.214.673 2.97-4.79 2.97-4.79s-.19-.155-.512-.57c-.263-.339-.379-.653-.379-.653M253.658 276.778s1.208 1.883 2.065 2.487c1.233.872 3.878 1.118 4.558-.084.68-1.204-4.645-2.979-4.645-2.979s-.554.337-1.071.448a5.18 5.18 0 0 1-.907.128M251.808 267.363s-1.102-1.594-.868-3.136c.225-1.482 1.05-3.462 2.402-3.131.74.18-.034 2.023-.259 3.59-.187 1.3.22 2.386.22 2.386s-.247-.016-.77.07c-.423.069-.725.22-.725.22M246.374 267.373s.804-.05 1.763.279c.959.328 1.73 1.018 1.73 1.018l.631-.528s-.869-1.16-1.044-2.012c-.152-.74-.184-1.13-.184-1.13s-.338-.842-1.975.565c-1.636 1.404-.921 1.808-.921 1.808"/>
            <path fill="#FFF" d="M257.485 294.413a9.81 9.81 0 0 0 .84 4.016h26.007a7.329 7.329 0 0 0 .427-2.486c0-2.726-1.45-5.043-3.464-5.87-.899-2.017-2.656-3.386-4.676-3.386-1 0-1.936.336-2.734.92a5.207 5.207 0 0 0-1.013-.099c-1.251 0-2.417.444-3.398 1.21-1.262-1.662-3.07-2.703-5.078-2.703-3.817 0-6.911 3.76-6.911 8.398"/>
            <path stroke="#6D6E71" stroke-width="3" d="M257.485 294.413a9.81 9.81 0 0 0 .84 4.016h26.007a7.329 7.329 0 0 0 .427-2.486c0-2.726-1.45-5.043-3.464-5.87-.899-2.017-2.656-3.386-4.676-3.386-1 0-1.936.336-2.734.92a5.207 5.207 0 0 0-1.013-.099c-1.251 0-2.417.444-3.398 1.21-1.262-1.662-3.07-2.703-5.078-2.703-3.817 0-6.911 3.76-6.911 8.398z"/>
        </g>
        <g>
            <path fill="#FFF" d="M162.942 274.954c0 8.711-1.81 16.902-5.002 24.046H3.212c-1.635-4.558-2.54-9.588-2.54-14.882 0-16.328 8.624-30.197 20.61-35.153 5.35-12.073 15.801-20.27 27.815-20.27 5.952 0 11.523 2.004 16.27 5.502a30.661 30.661 0 0 1 6.024-.586c7.444 0 14.388 2.66 20.225 7.237 7.508-9.947 18.263-16.178 30.21-16.178 22.71 0 41.116 22.513 41.116 50.284"/>
            <path stroke="#6D6E71" stroke-width="3" d="M162.942 274.954c0 8.711-1.81 16.902-5.002 24.046H3.212c-1.635-4.558-2.54-9.588-2.54-14.882 0-16.328 8.624-30.197 20.61-35.153 5.35-12.073 15.801-20.27 27.815-20.27 5.952 0 11.523 2.004 16.27 5.502a30.661 30.661 0 0 1 6.024-.586c7.444 0 14.388 2.66 20.225 7.237 7.508-9.947 18.263-16.178 30.21-16.178 22.71 0 41.116 22.513 41.116 50.284z"/>
        </g>
    </g>
</svg>
