<svg xmlns="http://www.w3.org/2000/svg" width="295" height="143" viewBox="0 0 295 143">
    <g fill="none" fill-rule="evenodd" opacity=".2">
        <path fill="#FFF" d="M-115 119.326c0 7.851 1.618 15.234 4.47 21.674H27.73c1.461-4.109 2.27-8.643 2.27-13.415 0-14.717-7.706-27.218-18.417-31.686-4.78-10.882-14.12-18.272-24.855-18.272-5.318 0-10.296 1.808-14.538 4.962a27.216 27.216 0 0 0-5.383-.53c-6.65 0-12.856 2.398-18.071 6.524C-57.974 79.618-67.584 74-78.26 74-98.552 74-115 94.292-115 119.326"/>
        <path stroke="#6D6E71" stroke-width="3" d="M-115 119.326c0 7.851 1.618 15.234 4.47 21.674H27.73c1.461-4.109 2.27-8.643 2.27-13.415 0-14.717-7.706-27.218-18.417-31.686-4.78-10.882-14.12-18.272-24.855-18.272-5.318 0-10.296 1.808-14.538 4.962a27.216 27.216 0 0 0-5.383-.53c-6.65 0-12.856 2.398-18.071 6.524C-57.974 79.618-67.584 74-78.26 74-98.552 74-115 94.292-115 119.326z"/>
        <path fill="#FFF" d="M-26 75.369v23.953C-26 106.324-20.37 112-13.426 112h293.852c6.945 0 12.574-5.676 12.574-12.678V75.369c0-7.003-48.15-14.196-54.922-17.99-5.262-2.947-32.592-35.063-40.289-42.824C190.092 6.795 179.47 2 167.733 2H49.612C37.325 2 22.757 25.484 6.352 43.724-8.586 60.332-26 71.65-26 75.37"/>
        <path stroke="#6D6E71" stroke-width="3" d="M-26 75.369v23.953C-26 106.324-20.37 112-13.426 112h293.852c6.945 0 12.574-5.676 12.574-12.678V75.369c0-7.003-48.15-14.196-54.922-17.99-5.262-2.947-32.592-35.063-40.289-42.824C190.092 6.795 179.47 2 167.733 2H49.612C37.325 2 22.757 25.484 6.352 43.724-8.586 60.332-26 71.65-26 75.37z"/>
        <path fill="#FFF" d="M61 111.5c0 16.292-13.432 29.5-30 29.5-16.568 0-30-13.208-30-29.5S14.432 82 31 82c16.568 0 30 13.208 30 29.5"/>
        <path stroke="#6D6E71" stroke-width="3" d="M61 111.5c0 16.292-13.432 29.5-30 29.5-16.568 0-30-13.208-30-29.5S14.432 82 31 82c16.568 0 30 13.208 30 29.5z"/>
        <path fill="#8DE2D2" d="M52 111.5c0 12.426-10.073 22.5-22.5 22.5S7 123.926 7 111.5 17.073 89 29.5 89 52 99.074 52 111.5"/>
        <path fill="#FFF" d="M246 111.5c0 16.292-13.432 29.5-30 29.5-16.568 0-30-13.208-30-29.5S199.432 82 216 82c16.568 0 30 13.208 30 29.5"/>
        <path stroke="#6D6E71" stroke-width="3" d="M246 111.5c0 16.292-13.432 29.5-30 29.5-16.568 0-30-13.208-30-29.5S199.432 82 216 82c16.568 0 30 13.208 30 29.5z"/>
        <path fill="#8DE2D2" d="M238 111.5c0 12.426-10.073 22.5-22.5 22.5S193 123.926 193 111.5 203.073 89 215.5 89 238 99.074 238 111.5"/>
        <path fill="#FFF" d="M217.98 64h-76.972c-2.766 0-5.008-2.255-5.008-5.038V18.05c0-2.721 2.144-4.947 4.847-5.035 11.553-.378 40.418-4.084 49.38 5.53 4.106 4.407 15.864 19.33 19.58 23.485 4.15 4.642 9.068 10.592 11.791 13.45 3.052 3.205.792 8.52-3.619 8.52"/>
        <path stroke="#6D6E71" stroke-width="3" d="M217.98 64h-76.972c-2.766 0-5.008-2.255-5.008-5.038V18.05c0-2.721 2.144-4.947 4.847-5.035 11.553-.378 40.418-4.084 49.38 5.53 4.106 4.407 15.864 19.33 19.58 23.485 4.15 4.642 9.068 10.592 11.791 13.45 3.052 3.205.792 8.52-3.619 8.52z"/>
        <path fill="#FFF" d="M113.877 12H50.014C44.996 12 12 54.957 12 54.957 12 59.93 16.105 64 21.123 64h92.754c5.018 0 9.123-4.07 9.123-9.043V21.043c0-4.974-4.105-9.043-9.123-9.043"/>
        <path stroke="#6D6E71" stroke-width="3" d="M113.877 12H50.014C44.996 12 12 54.957 12 54.957 12 59.93 16.105 64 21.123 64h92.754c5.018 0 9.123-4.07 9.123-9.043V21.043c0-4.974-4.105-9.043-9.123-9.043z"/>
        <path fill="#8DE2D2" d="M153.342 78H138.66c-1.463 0-2.659-1.303-2.659-2.894v-1.212c0-1.591 1.196-2.894 2.659-2.894h14.683c1.462 0 2.658 1.303 2.658 2.894v1.212c0 1.591-1.196 2.894-2.658 2.894M293 76.77c0 2.819-19.562 8.454-28.169 2.819-1.565-3.522-.85-11.05 1.565-10.567 7.042 1.41 26.604 6.34 26.604 7.749"/>
    </g>
</svg>
