<svg xmlns="http://www.w3.org/2000/svg" xmlns:xlink="http://www.w3.org/1999/xlink" width="255" height="249" viewBox="0 0 255 249">
    <defs>
        <path id="a" d="M0 248.227h252.738V.762H0z"/>
    </defs>
    <g fill="none" fill-rule="evenodd">
        <g transform="translate(1 .01)">
            <path fill="#FFF" d="M29.488 91.403c0 13.452.164 24.357-4.374 24.357-4.539 0-1.592-9.936-4.997-22.95-3.342-12.772-3.385-25.764 1.154-25.764 4.538 0 8.217 10.905 8.217 24.357"/>
            <path stroke="#6D6E71" stroke-width="3" d="M29.488 91.403c0 13.452.164 24.357-4.374 24.357-4.539 0-1.592-9.936-4.997-22.95-3.342-12.772-3.385-25.764 1.154-25.764 4.538 0 8.217 10.905 8.217 24.357z"/>
            <path fill="#FFF" d="M137.355 133.986v9.664a2.263 2.263 0 0 1-2.256 2.257h-.188a2.25 2.25 0 0 1-1.51-.583c-1.453 3.33-3.756 5.838-6.861 7.597l2.717 5.478a2.263 2.263 0 0 1-1.019 3.023l-2.138 1.059a2.26 2.26 0 0 1-3.023-1.02l-3.048-6.145c-2.636.573-5.599.85-8.878.85-3.785 0-7.213-.448-10.225-1.302l-3.272 6.598a2.261 2.261 0 0 1-3.023 1.019l-2.136-1.06a2.26 2.26 0 0 1-1.02-3.022l3.116-6.288c-5.046-3.187-7.885-8.126-7.885-14.368 0-11.37 8.867-20.795 23.89-20.795 6.16 0 11.375 1.549 15.38 4.165.204-.253.41-.509.62-.764 2.073-2.525 4.474-3.238 4.92-2.79.85.853-3.223 3.24-2.232 6.144.01.034.024.07.035.104 2.296 2.28 3.947 5.02 4.86 8.045.23-.078.477-.122.732-.122h.188a2.263 2.263 0 0 1 2.256 2.256"/>
            <path stroke="#6D6E71" stroke-width="3" d="M137.355 133.986v9.664a2.263 2.263 0 0 1-2.256 2.257h-.188a2.25 2.25 0 0 1-1.51-.583c-1.453 3.33-3.756 5.838-6.861 7.597l2.717 5.478a2.263 2.263 0 0 1-1.019 3.023l-2.138 1.059a2.26 2.26 0 0 1-3.023-1.02l-3.048-6.145c-2.636.573-5.599.85-8.878.85-3.785 0-7.213-.448-10.225-1.302l-3.272 6.598a2.261 2.261 0 0 1-3.023 1.019l-2.136-1.06a2.26 2.26 0 0 1-1.02-3.022l3.116-6.288c-5.046-3.187-7.885-8.126-7.885-14.368 0-11.37 8.867-20.795 23.89-20.795 6.16 0 11.375 1.549 15.38 4.165.204-.253.41-.509.62-.764 2.073-2.525 4.474-3.238 4.92-2.79.85.853-3.223 3.24-2.232 6.144.01.034.024.07.035.104 2.296 2.28 3.947 5.02 4.86 8.045.23-.078.477-.122.732-.122h.188a2.263 2.263 0 0 1 2.256 2.256z"/>
            <path fill="#8DE2D2" d="M123.811 121.32s-7.019-3.072-13.161-3.072c-6.142 0-13.161 3.071-13.161 3.071v1.441s6.58-3.07 13.161-3.07c6.58 0 13.161 3.07 13.161 3.07v-1.44z"/>
            <mask id="b" fill="#fff">
                <use xlink:href="#a"/>
            </mask>
            <path fill="#FFF" d="M69.142 187.054h79.533v-15.48H69.142z" mask="url(#b)"/>
            <path stroke="#6D6E71" stroke-width="3" d="M69.142 187.054h79.533v-15.48H69.142z" mask="url(#b)"/>
            <path fill="#FFF" d="M69.142 209.31h79.533v-15.478H69.142z" mask="url(#b)"/>
            <path stroke="#6D6E71" stroke-width="3" d="M69.142 209.31h79.533v-15.478H69.142z" mask="url(#b)"/>
            <path fill="#FFF" d="M69.142 239.746h79.533v-23.659H69.142z" mask="url(#b)"/>
            <path stroke="#6D6E71" stroke-width="3" d="M69.142 239.746h79.533v-23.659H69.142z" mask="url(#b)"/>
            <path fill="#FFF" d="M69.142 187.054h79.533v-15.48H69.142z" mask="url(#b)"/>
            <path stroke="#6D6E71" stroke-width="3" d="M69.142 187.054h79.533v-15.48H69.142z" mask="url(#b)"/>
            <path fill="#FFF" d="M69.142 209.31h79.533V193.83H69.142z" mask="url(#b)"/>
            <path stroke="#6D6E71" stroke-width="3" d="M69.142 209.31h79.533V193.83H69.142z" mask="url(#b)"/>
            <path fill="#FFF" d="M69.142 239.746h79.533v-23.659H69.142z" mask="url(#b)"/>
            <path stroke="#6D6E71" stroke-width="3" d="M69.142 239.746h79.533v-23.659H69.142z" mask="url(#b)"/>
            <path fill="#FFF" d="M111.462 176.762a2.553 2.553 0 1 1-5.105 0 2.553 2.553 0 0 1 5.105 0" mask="url(#b)"/>
            <path stroke="#6D6E71" stroke-width="3" d="M111.462 176.762a2.553 2.553 0 1 1-5.105 0 2.553 2.553 0 0 1 5.105 0z" mask="url(#b)"/>
            <path fill="#FFF" d="M111.462 198.745a2.553 2.553 0 1 1-5.105 0 2.553 2.553 0 0 1 5.105 0" mask="url(#b)"/>
            <path stroke="#6D6E71" stroke-width="3" d="M111.462 198.745a2.553 2.553 0 1 1-5.105 0 2.553 2.553 0 0 1 5.105 0z" mask="url(#b)"/>
            <path fill="#FFF" d="M111.462 220.728a2.553 2.553 0 1 1-5.106-.002 2.553 2.553 0 0 1 5.106.002" mask="url(#b)"/>
            <path stroke="#6D6E71" stroke-width="3" d="M111.462 220.728a2.553 2.553 0 1 1-5.106-.002 2.553 2.553 0 0 1 5.106.002z" mask="url(#b)"/>
            <path fill="#FFF" d="M193.077 169.78H180.85l2.078 68.94h10.148z" mask="url(#b)"/>
            <path stroke="#6D6E71" stroke-width="3" d="M193.077 169.78H180.85l2.078 68.94h10.148z" mask="url(#b)"/>
            <path fill="#FFF" d="M210.19 169.403h-12.047v68.562h9.277z" mask="url(#b)"/>
            <path stroke="#6D6E71" stroke-width="3" d="M210.19 169.403h-12.047v68.562h9.277z" mask="url(#b)"/>
            <path fill="#FFF" d="M229.11 36.143c0 19.123-12.857 33.113-31.98 33.113-5.091 0-18.821 15.837-23.176 18.326-10.724 6.13-10.883-5.68-11.171-17.898-.276-11.688-.276-31.674-.276-33.163 0-19.122 14.377-34.599 35.888-34.599 19.123 0 30.715 15.099 30.715 34.221" mask="url(#b)"/>
            <path stroke="#6D6E71" stroke-width="3" d="M229.11 36.143c0 19.123-12.857 33.113-31.98 33.113-5.091 0-18.821 15.837-23.176 18.326-10.724 6.13-10.883-5.68-11.171-17.898-.276-11.688-.276-31.674-.276-33.163 0-19.122 14.377-34.599 35.888-34.599 19.123 0 30.715 15.099 30.715 34.221z" mask="url(#b)"/>
            <path fill="#FFF" d="M212.708 180.075h-34.06s-4.722-29.611-2.079-41.95c1.192-5.56 2.314-7.878 2.314-7.878h33.447s2.578 5.261 3.196 9.511c1.825 12.584-2.818 40.317-2.818 40.317" mask="url(#b)"/>
            <path stroke="#6D6E71" stroke-width="3" d="M212.708 180.075h-34.06s-4.722-29.611-2.079-41.95c1.192-5.56 2.314-7.878 2.314-7.878h33.447s2.578 5.261 3.196 9.511c1.825 12.584-2.818 40.317-2.818 40.317z" mask="url(#b)"/>
            <path fill="#8DE2D2" d="M183.298 7.28c6.327-3.058 15.346-2.895 15.346-2.895s-10.778 4.449-14.062 8.85c-2.948 3.95.227 9.25-1.284 9.25-4.018 0-7.053-1.964-7.737-2.248-.684-.283-2.706-.923-2.706-.923s-3.463 3.812-4.582 6.792c-.56 1.49-1.878 5.351-1.878 5.351h-1.448s.88-4.147 2.141-7.744c.892-2.548 3.883-6.843 4.974-8.059 2.633-2.935 4.909-5.314 11.236-8.373" mask="url(#b)"/>
            <path fill="#FFF" d="M186.395 67.3c-8.842 0-10.774 7.002-13.481 10.174-4.802 5.627-6.926 7.997-11.546 8.533-6.086.707-26.368-8.46-26.368-8.46l-5.088 9.832s29.29 11.818 33.067 11.578c3.778-.238 15.654-7.797 15.654-7.797s2.144 16.012 2.088 21.95c-.05 5.277-6.093 20.021-6.093 20.021l15.727-.361 4.139-2.54 4.297 2.462 15.362-.317s-4.786-14.627-5.352-19.832c-.63-5.785 1.81-18.622 1.81-18.622s2.408 5.983 3.667 9.752c1.394 4.175 18.165 18.647 18.165 18.647l8.604-5.853s-17.971-15.619-19.12-18.72c-1.222-3.294-1.204-14.37-4.942-21.147-2.744-4.973-5.458-8.35-13.703-8.35-.012 0-16.868-.95-16.887-.95" mask="url(#b)"/>
            <path stroke="#6D6E71" stroke-width="3" d="M186.395 67.3c-8.842 0-10.774 7.002-13.481 10.174-4.802 5.627-6.926 7.997-11.546 8.533-6.086.707-26.368-8.46-26.368-8.46l-5.088 9.832s29.29 11.818 33.067 11.578c3.778-.238 15.654-7.797 15.654-7.797s2.144 16.012 2.088 21.95c-.05 5.277-6.093 20.021-6.093 20.021l15.727-.361 4.139-2.54 4.297 2.462 15.362-.317s-4.786-14.627-5.352-19.832c-.63-5.785 1.81-18.622 1.81-18.622s2.408 5.983 3.667 9.752c1.394 4.175 18.165 18.647 18.165 18.647l8.604-5.853s-17.971-15.619-19.12-18.72c-1.222-3.294-1.204-14.37-4.942-21.147-2.744-4.973-5.458-8.35-13.703-8.35-.012 0-16.868-.95-16.887-.95z" mask="url(#b)"/>
            <path fill="#FFF" d="M230.344 41.294a4.532 4.532 0 0 1-4.533 4.533c-1.522 0-2.154-.068-2.154-.068s-.25.645-.67 1.835c-3.895 11.029-14.413 18.93-26.78 18.93-12.295 0-22.764-7.815-26.71-18.748-.324-.896-.702-2.06-.702-2.06s-1.778.11-3.281.11a4.532 4.532 0 0 1-4.533-4.532 4.531 4.531 0 0 1 4.533-4.533h2.304s.01-.655.024-.992c.067-1.658.276-2.11.618-3.685 1.3-5.991 5.051-10.07 5.051-10.07s22.611 8.185 33.799 9.443c11.478 1.29 16.488.294 16.488.294s.673 2.486.756 3.956c.031.538.028 1.054.028 1.054h1.23a4.531 4.531 0 0 1 4.532 4.533" mask="url(#b)"/>
            <path stroke="#6D6E71" stroke-width="3" d="M230.344 41.294a4.532 4.532 0 0 1-4.533 4.533c-1.522 0-2.154-.068-2.154-.068s-.25.645-.67 1.835c-3.895 11.029-14.413 18.93-26.78 18.93-12.295 0-22.764-7.815-26.71-18.748-.324-.896-.702-2.06-.702-2.06s-1.778.11-3.281.11a4.532 4.532 0 0 1-4.533-4.532 4.531 4.531 0 0 1 4.533-4.533h2.304s.01-.655.024-.992c.067-1.658.276-2.11.618-3.685 1.3-5.991 5.051-10.07 5.051-10.07s22.611 8.185 33.799 9.443c11.478 1.29 16.488.294 16.488.294s.673 2.486.756 3.956c.031.538.028 1.054.028 1.054h1.23a4.531 4.531 0 0 1 4.532 4.533z" mask="url(#b)"/>
            <path fill="#FFF" d="M245.782 122.482a6.234 6.234 0 1 1-12.468-.001 6.234 6.234 0 0 1 12.468 0" mask="url(#b)"/>
            <path stroke="#6D6E71" stroke-width="3" d="M245.782 122.482a6.234 6.234 0 1 1-12.468-.001 6.234 6.234 0 0 1 12.468 0z" mask="url(#b)"/>
            <path fill="#FFF" d="M203.312 65.8s.75 7.197-.654 10.6c-1.243 3.015-4.733 4.797-6.77 4.797-2.194 0-5.247-1.074-6.847-4.448-1.56-3.29-.7-11.072-.7-11.072.874.419 4.899.782 7.467.782 2.759 0 7.504-.659 7.504-.659" mask="url(#b)"/>
            <path stroke="#6D6E71" stroke-width="3" d="M203.312 65.8s.75 7.197-.654 10.6c-1.243 3.015-4.733 4.797-6.77 4.797-2.194 0-5.247-1.074-6.847-4.448-1.56-3.29-.7-11.072-.7-11.072.874.419 4.899.782 7.467.782 2.759 0 7.504-.659 7.504-.659z" mask="url(#b)"/>
            <path fill="#6D6E71" d="M183.708 44.206h-.48a1.64 1.64 0 0 1-1.637-1.635v-4.174c0-.9.736-1.636 1.636-1.636h.481c.9 0 1.637.736 1.637 1.636v4.174c0 .9-.737 1.635-1.637 1.635" mask="url(#b)"/>
            <path fill="#FFF" d="M193.077 232.173v14.544h-5.08v-5.407l-10.13 4.945h-8.41s9.58-11.815 12.817-14.082c3.236-2.267 10.803 0 10.803 0" mask="url(#b)"/>
            <path stroke="#6D6E71" stroke-width="3" d="M193.077 232.173v14.544h-5.08v-5.407l-10.13 4.945h-8.41s9.58-11.815 12.817-14.082c3.236-2.267 10.803 0 10.803 0z" mask="url(#b)"/>
            <path fill="#FFF" d="M198.143 232.173v14.544h5.079v-5.407l10.13 4.945h8.412s-9.582-11.815-12.818-14.082c-3.237-2.267-10.803 0-10.803 0" mask="url(#b)"/>
            <path stroke="#6D6E71" stroke-width="3" d="M198.143 232.173v14.544h5.079v-5.407l10.13 4.945h8.412s-9.582-11.815-12.818-14.082c-3.237-2.267-10.803 0-10.803 0z" mask="url(#b)"/>
            <path fill="#6D6E71" d="M209.427 44.206h-.48a1.64 1.64 0 0 1-1.637-1.635v-4.174c0-.9.736-1.636 1.636-1.636h.481c.9 0 1.637.736 1.637 1.636v4.174c0 .9-.737 1.635-1.637 1.635M181.8 37.825v2.178s-.729-.583-1.126-.979c-.396-.396-.542-.877-.83-1.395-.29-.518-.454-1.464-.04-.982.268.31.615.692 1.033 1.11.371.371.963.068.963.068" mask="url(#b)"/>
            <path fill="#6D6E71" d="M210.582 37.825v2.178s.73-.583 1.126-.979c.397-.396.543-.877.832-1.395.289-.518.453-1.464.038-.982-.267.31-.614.692-1.032 1.11-.371.371-.964.068-.964.068" mask="url(#b)"/>
            <path fill="#FFF" d="M137.283 81.783a6.234 6.234 0 1 1-12.467 0 6.234 6.234 0 0 1 12.467 0" mask="url(#b)"/>
            <path stroke="#6D6E71" stroke-width="3" d="M137.283 81.783a6.234 6.234 0 1 1-12.467 0 6.234 6.234 0 0 1 12.467 0z" mask="url(#b)"/>
            <path fill="#FFF" d="M128.873 88.761a9.643 9.643 0 1 1-19.284 0 9.643 9.643 0 0 1 19.284 0" mask="url(#b)"/>
            <path stroke="#6D6E71" stroke-width="3" d="M128.873 88.761a9.643 9.643 0 1 1-19.284 0 9.643 9.643 0 0 1 19.284 0z" mask="url(#b)"/>
            <path fill="#8DE2D2" d="M126.432 88.761a7.201 7.201 0 1 1-14.402 0 7.201 7.201 0 1 1 14.402 0" mask="url(#b)"/>
        </g>
        <text fill="#808285" font-family="Lato-Medium, Lato" font-size="13" font-weight="400" transform="translate(1)">
            <tspan x="115.833" y="91.598">$</tspan>
        </text>
        <path fill="#FFF" d="M196.225 92.603l-11.1-13.536.82-4.231-3.086-.24-1.852-4.32s1.347-1.958 3.551-2.965c1.943-.888 4.536-.776 4.536-.776s-.645 2.595.4 5.49c.802 2.217 6.208 15.663 7.582 20.1.159.514-.495.88-.851.478"/>
        <path stroke="#6D6E71" stroke-width="3" d="M196.225 92.603l-11.1-13.536.82-4.231-3.086-.24-1.852-4.32s1.347-1.958 3.551-2.965c1.943-.888 4.536-.776 4.536-.776s-.645 2.595.4 5.49c.802 2.217 6.208 15.663 7.582 20.1.159.514-.495.88-.851.478z"/>
        <path fill="#FFF" d="M197.279 92.589l11.957-13.775-.818-4.232 3.086-.24 1.852-4.32s-.97-1.522-2.858-2.71c-1.809-1.138-5.656-1.033-5.656-1.033s.715 3.157-.33 6.052c-.79 2.187-6.758 15.22-8.157 19.74-.172.557.537.954.924.518"/>
        <path stroke="#6D6E71" stroke-width="3" d="M197.279 92.589l11.957-13.775-.818-4.232 3.086-.24 1.852-4.32s-.97-1.522-2.858-2.71c-1.809-1.138-5.656-1.033-5.656-1.033s.715 3.157-.33 6.052c-.79 2.187-6.758 15.22-8.157 19.74-.172.557.537.954.924.518zM196.646 93.674v36.552"/>
        <path fill="#FFF" d="M195.765 101.108a.882.882 0 1 1 1.763 0 .882.882 0 0 1-1.763 0"/>
        <path stroke="#6D6E71" stroke-width="3" d="M195.765 101.108a.882.882 0 1 1 1.763 0 .882.882 0 0 1-1.763 0z"/>
        <path fill="#FFF" d="M197.528 111.914a.881.881 0 1 1-1.762 0 .881.881 0 0 1 1.762 0"/>
        <path stroke="#6D6E71" stroke-width="3" d="M197.528 111.914a.881.881 0 1 1-1.762 0 .881.881 0 0 1 1.762 0z"/>
        <path fill="#FFF" d="M197.528 125.804a.881.881 0 1 1-1.762 0 .881.881 0 0 1 1.762 0"/>
        <path stroke="#6D6E71" stroke-width="3" d="M197.528 125.804a.881.881 0 1 1-1.762 0 .881.881 0 0 1 1.762 0z"/>
        <path fill="#FFF" d="M209.208 94.766l-1.968 1.537c-.375.292-.9.292-1.275 0l-1.968-1.537a1.037 1.037 0 0 1-.398-.817v-4.694c0-.573.463-1.037 1.035-1.037h3.937c.572 0 1.035.464 1.035 1.037v4.694c0 .319-.146.62-.398.817"/>
        <path stroke="#6D6E71" stroke-width="3" d="M209.208 94.766l-1.968 1.537c-.375.292-.9.292-1.275 0l-1.968-1.537a1.037 1.037 0 0 1-.398-.817v-4.694c0-.573.463-1.037 1.035-1.037h3.937c.572 0 1.035.464 1.035 1.037v4.694c0 .319-.146.62-.398.817zM238.766 132.143h5.037v-6.34h-5.037z"/>
        <path fill="#FFF" d="M246.953 174.261h-13.008a4.258 4.258 0 0 1-4.204-4.936l5.426-33.603a4.257 4.257 0 0 1 4.202-3.579h3.666a4.258 4.258 0 0 1 4.229 3.765l3.918 33.602a4.258 4.258 0 0 1-4.229 4.751"/>
        <path stroke="#6D6E71" stroke-width="3" d="M246.953 174.261h-13.008a4.258 4.258 0 0 1-4.204-4.936l5.426-33.603a4.257 4.257 0 0 1 4.202-3.579h3.666a4.258 4.258 0 0 1 4.229 3.765l3.918 33.602a4.258 4.258 0 0 1-4.229 4.751z"/>
        <path fill="#FFF" d="M249.492 153.5l2.925-.444-.941-6.194-2.926.444z"/>
        <path stroke="#6D6E71" stroke-width="3" d="M249.492 153.5l2.925-.444-.941-6.194-2.926.444z"/>
        <path fill="#6D6E71" d="M191.644 53.808c.634 1.013 1.756 3.814 6.786 3.814 5.03 0 5.639-3.09 6.826-3.697 1.101-.563 1.53.437-.16 2.428-1.132 1.335-3.735 2.548-6.666 2.548-5.366 0-8.132-3.471-8.132-4.568 0-1.098.822-1.361 1.346-.525"/>
        <path fill="#FFF" d="M33.327 235.23h8.491v-59.37h-8.491z"/>
        <path stroke="#6D6E71" stroke-width="3" d="M33.327 235.23h8.491v-59.37h-8.491z"/>
        <path fill="#FFF" d="M33.424 234.143h8.244v-5.877h-8.244z"/>
        <path stroke="#6D6E71" stroke-width="3" d="M33.424 234.143h8.244v-5.877h-8.244z"/>
        <path fill="#FFF" d="M21.813 236.68h8.492v-57.92h-8.492z"/>
        <path stroke="#6D6E71" stroke-width="3" d="M21.813 236.68h8.492v-57.92h-8.492z"/>
        <path fill="#FFF" d="M22.06 234.505h8.245v-5.877H22.06z"/>
        <path stroke="#6D6E71" stroke-width="3" d="M22.06 234.505h8.245v-5.877H22.06z"/>
        <path fill="#FFF" d="M59.76 68.757c0 16.167-15.257 22.53-27.016 22.53-29.294 0-29.294-20.952-29.294-22.21 0-16.168 12.156-29.253 30.342-29.253 16.167 0 25.969 12.766 25.969 28.933"/>
        <path stroke="#6D6E71" stroke-width="3" d="M59.76 68.757c0 16.167-15.257 22.53-27.016 22.53-29.294 0-29.294-20.952-29.294-22.21 0-16.168 12.156-29.253 30.342-29.253 16.167 0 25.969 12.766 25.969 28.933z"/>
        <path fill="#FFF" d="M30.461 234.456l-9.173-.057s-.036 1.995-2.309 3.656c-2.123 1.552-6.435.907-7.988 2.46-2.328 2.328-1.807 6.53-1.807 6.53l21.277-.361v-12.228z"/>
        <path stroke="#6D6E71" stroke-width="3" d="M30.461 234.456l-9.173-.057s-.036 1.995-2.309 3.656c-2.123 1.552-6.435.907-7.988 2.46-2.328 2.328-1.807 6.53-1.807 6.53l21.277-.361v-12.228z"/>
        <path fill="#FFF" d="M33.062 234.456l9.172-.057s.037 1.995 2.31 3.656c2.123 1.552 6.435.907 7.987 2.46 2.329 2.328 1.808 6.53 1.808 6.53l-21.277-.361v-12.228z"/>
        <path stroke="#6D6E71" stroke-width="3" d="M33.062 234.456l9.172-.057s.037 1.995 2.31 3.656c2.123 1.552 6.435.907 7.987 2.46 2.329 2.328 1.808 6.53 1.808 6.53l-21.277-.361v-12.228z"/>
        <path fill="#FFF" d="M45.827 148.761c.442 3.723 1.179 45.85 1.179 45.85h-31.36s.522-42.812.815-46.484c.301-3.76 1.694-8.952 1.722-12.054.037-3.8.471-13.466.273-17.954-.062-1.443-.105-2.349-.105-2.349l-10.5-7.885s.011-.939 4.195-6.388c.453-.587.953-1.131 1.512-1.628 2.457-2.19 5.978-3.43 11.024-3.43l13.677-.485c6.377 0 10.977 2.725 13.505 6.208 1.68 2.316 2.583 5.813 2.583 5.813l-8.636 9.103s-1.334 14.542-1.334 19.538c0 3.03.997 8.338 1.45 12.145"/>
        <path stroke="#6D6E71" stroke-width="3" d="M45.827 148.761c.442 3.723 1.179 45.85 1.179 45.85h-31.36s.522-42.812.815-46.484c.301-3.76 1.694-8.952 1.722-12.054.037-3.8.471-13.466.273-17.954-.062-1.443-.105-2.349-.105-2.349l-10.5-7.885s.011-.939 4.195-6.388c.453-.587.953-1.131 1.512-1.628 2.457-2.19 5.978-3.43 11.024-3.43l13.677-.485c6.377 0 10.977 2.725 13.505 6.208 1.68 2.316 2.583 5.813 2.583 5.813l-8.636 9.103s-1.334 14.542-1.334 19.538c0 3.03.997 8.338 1.45 12.145z"/>
        <path fill="#8DE2D2" d="M21.028 44.354c5.35-2.586 12.975-2.448 12.975-2.448s-9.112 3.76-11.89 7.483c-1.496 2.006-3.3 14.024-3.3 14.024l-4.457-.12s.337-9.704-.242-9.943c-.578-.24-1.915 1.178-1.915 1.178S9.272 57.75 8.325 60.27c-.474 1.26-1.587 4.525-1.587 4.525H5.513s.744-3.507 1.81-6.548c.755-2.152 3.283-5.785 4.205-6.813 2.226-2.48 4.15-4.493 9.5-7.08"/>
        <path fill="#FFF" d="M60.804 73.111a3.832 3.832 0 0 1-3.832 3.833c-1.288 0-1.822-.057-1.822-.057s-.211.545-.567 1.551c-3.293 9.325-12.185 16.005-22.641 16.005-10.395 0-19.246-6.608-22.582-15.85-.273-.76-.594-1.744-.594-1.744s-1.502.095-2.773.095A3.832 3.832 0 0 1 2.16 73.11a3.832 3.832 0 0 1 3.833-3.832H7.94s.008-.554.02-.838c.056-1.402.233-1.786.522-3.116 1.1-5.065 4.27-8.515 4.27-8.515l.032 7.985s13.313-.535 21.692-.535c8.378 0 17.034.535 17.034.535l-.106-8.209s3.495 2.961 4.402 10.09c.104.827.088 1.478.102 1.712.026.454.024.892.024.892l1.039-.001a3.832 3.832 0 0 1 3.832 3.832"/>
        <path stroke="#6D6E71" stroke-width="3" d="M60.804 73.111a3.832 3.832 0 0 1-3.832 3.833c-1.288 0-1.822-.057-1.822-.057s-.211.545-.567 1.551c-3.293 9.325-12.185 16.005-22.641 16.005-10.395 0-19.246-6.608-22.582-15.85-.273-.76-.594-1.744-.594-1.744s-1.502.095-2.773.095A3.832 3.832 0 0 1 2.16 73.11a3.832 3.832 0 0 1 3.833-3.832H7.94s.008-.554.02-.838c.056-1.402.233-1.786.522-3.116 1.1-5.065 4.27-8.515 4.27-8.515l.032 7.985s13.313-.535 21.692-.535c8.378 0 17.034.535 17.034.535l-.106-8.209s3.495 2.961 4.402 10.09c.104.827.088 1.478.102 1.712.026.454.024.892.024.892l1.039-.001a3.832 3.832 0 0 1 3.832 3.832z"/>
        <path fill="#FFF" d="M39.5 109.406l-14.237-.071-2.955-11.806s2.934-1.068 9.83-1.09c7.362-.021 9.801.932 9.801.932l-2.44 12.035z"/>
        <path stroke="#6D6E71" stroke-width="3" d="M39.5 109.406l-14.237-.071-2.955-11.806s2.934-1.068 9.83-1.09c7.362-.021 9.801.932 9.801.932l-2.44 12.035z"/>
        <path fill="#FFF" d="M38.381 93.508s.378 5.989-.77 8.688C36.594 104.587 33.74 106 32.075 106c-1.795 0-4.292-.85-5.6-3.527-1.275-2.61-.257-8.698-.257-8.698s4.128.745 5.612.745c1.485 0 6.551-1.012 6.551-1.012"/>
        <path stroke="#6D6E71" stroke-width="3" d="M38.381 93.508s.378 5.989-.77 8.688C36.594 104.587 33.74 106 32.075 106c-1.795 0-4.292-.85-5.6-3.527-1.275-2.61-.257-8.698-.257-8.698s4.128.745 5.612.745c1.485 0 6.551-1.012 6.551-1.012z"/>
        <path fill="#6D6E71" d="M21.317 75.574h-.29a1.446 1.446 0 0 1-1.442-1.44V70.72c0-.793.649-1.442 1.441-1.442h.291c.793 0 1.442.65 1.442 1.442v3.412c0 .792-.65 1.44-1.442 1.44M43.062 75.574h-.291a1.446 1.446 0 0 1-1.442-1.44V70.72c0-.793.65-1.442 1.442-1.442h.29c.793 0 1.442.65 1.442 1.442v3.412c0 .792-.649 1.44-1.441 1.44M25.506 83.38c.609.971 1.685 3.66 6.513 3.66 4.828 0 5.412-2.966 6.55-3.548 1.058-.54 1.469.42-.152 2.33-1.087 1.28-3.585 2.444-6.398 2.444-5.15 0-7.804-3.33-7.804-4.384 0-1.053.788-1.305 1.29-.503"/>
        <path fill="#FFF" d="M86.677 109.084a4.93 4.93 0 0 1-4.93 4.93c-.058 0-.113 0-.17-.004-3.604 2.285-19.737 12.225-21.829 12.225-2.31 0-14.073-9.284-14.011-11.746.06-2.461 5.705-9.988 5.705-9.988s8.403 11.826 10.166 12.255c1.997.49 11.656-5.852 15.248-8.274a4.924 4.924 0 0 1 4.89-4.329 4.93 4.93 0 0 1 4.931 4.93"/>
        <path stroke="#6D6E71" stroke-width="3" d="M86.677 109.084a4.93 4.93 0 0 1-4.93 4.93c-.058 0-.113 0-.17-.004-3.604 2.285-19.737 12.225-21.829 12.225-2.31 0-14.073-9.284-14.011-11.746.06-2.461 5.705-9.988 5.705-9.988s8.403 11.826 10.166 12.255c1.997.49 11.656-5.852 15.248-8.274a4.924 4.924 0 0 1 4.89-4.329 4.93 4.93 0 0 1 4.931 4.93z"/>
        <path fill="#FFF" d="M16.401 148.212a4.93 4.93 0 0 1-5.015-5.014c-2.345-3.564-8.798-18.705-8.835-20.797-.04-2.309 6.112-14.6 8.575-14.58 2.463.018 6.855 5.839 6.855 5.839s-7.388 8.833-7.178 10.634c.23 1.968 3.546 10.538 6.03 14.088a4.925 4.925 0 0 1 4.413 4.815 4.931 4.931 0 0 1-4.845 5.015"/>
        <path stroke="#6D6E71" stroke-width="3" d="M16.401 148.212a4.93 4.93 0 0 1-5.015-5.014c-2.345-3.564-8.798-18.705-8.835-20.797-.04-2.309 6.112-14.6 8.575-14.58 2.463.018 6.855 5.839 6.855 5.839s-7.388 8.833-7.178 10.634c.23 1.968 3.546 10.538 6.03 14.088a4.925 4.925 0 0 1 4.413 4.815 4.931 4.931 0 0 1-4.845 5.015z"/>
        <path fill="#FFF" d="M31.698 106.3c-.409.543-4.777-.59-4.777-.59l-4.242 3.374s-1.922-7.91-1.314-11.531c.608-3.62 4.684-3.637 4.684-3.637s1.081 6.776 2.023 8.532c.997 1.857 4.033 3.307 3.626 3.851"/>
        <path stroke="#6D6E71" stroke-width="3" d="M31.698 106.3c-.409.543-4.777-.59-4.777-.59l-4.242 3.374s-1.922-7.91-1.314-11.531c.608-3.62 4.684-3.637 4.684-3.637s1.081 6.776 2.023 8.532c.997 1.857 4.033 3.307 3.626 3.851z"/>
        <path fill="#FFF" d="M32.78 106.3c.408.543 4.777-.59 4.777-.59l4.242 3.374s1.922-7.91 1.315-11.531c-.609-3.62-4.685-3.637-4.685-3.637s-1.081 6.776-2.023 8.532c-.997 1.857-4.033 3.307-3.625 3.851"/>
        <path stroke="#6D6E71" stroke-width="3" d="M32.78 106.3c.408.543 4.777-.59 4.777-.59l4.242 3.374s1.922-7.91 1.315-11.531c-.609-3.62-4.685-3.637-4.685-3.637s-1.081 6.776-2.023 8.532c-.997 1.857-4.033 3.307-3.625 3.851z"/>
        <path fill="#FFF" d="M19.371 113.595c0 1.57-.558 2.175-.558 2.175l-10.5-7.885s.012-.94 4.195-6.388c.453-.587.954-1.13 1.512-1.628 3.216 2.875 5.351 7.947 5.351 13.726"/>
        <path stroke="#6D6E71" stroke-width="3" d="M19.371 113.595c0 1.57-.558 2.175-.558 2.175l-10.5-7.885s.012-.94 4.195-6.388c.453-.587.954-1.13 1.512-1.628 3.216 2.875 5.351 7.947 5.351 13.726z"/>
        <path fill="#FFF" d="M45.46 115.77c0 1.57.558 2.176.558 2.176l8.791-9.97s.337-1.207-3.847-6.656c-.453-.587-1.019-1.192-1.86-1.36-3.215 2.874-3.643 10.031-3.643 15.81"/>
        <path stroke="#6D6E71" stroke-width="3" d="M45.46 115.77c0 1.57.558 2.176.558 2.176l8.791-9.97s.337-1.207-3.847-6.656c-.453-.587-1.019-1.192-1.86-1.36-3.215 2.874-3.643 10.031-3.643 15.81z"/>
        <path fill="#FFF" d="M92.877 100.667a7.846 7.846 0 1 1-15.692 0 7.846 7.846 0 0 1 15.692 0"/>
        <path stroke="#6D6E71" stroke-width="3" d="M92.877 100.667a7.846 7.846 0 1 1-15.692 0 7.846 7.846 0 0 1 15.692 0z"/>
        <path fill="#8DE2D2" d="M90.89 100.667a5.86 5.86 0 1 1-11.718 0 5.86 5.86 0 0 1 11.718 0"/>
        <text fill="#808285" font-family="Lato-Medium, Lato" font-size="10" font-weight="400" transform="translate(1)">
            <tspan x="81.266" y="102.72">$</tspan>
        </text>
        <g>
            <path fill="#FFF" d="M70.142 187.065h79.533v-15.48H70.142v15.48zm0 22.255h79.533v-15.478H70.142v15.478zm0 30.437h79.533v-23.659H70.142v23.659zm-6.29 7.32h92.87v-84.353h-92.87v84.354z"/>
            <path stroke="#6D6E71" stroke-width="3" d="M70.142 187.065h79.533v-15.48H70.142v15.48zm0 22.255h79.533v-15.478H70.142v15.478zm0 30.437h79.533v-23.659H70.142v23.659zm-6.29 7.32h92.87v-84.353h-92.87v84.354z"/>
        </g>
        <text fill="#808285" font-family="Lato-Medium, Lato" font-size="12" font-weight="400" letter-spacing="-.084" transform="translate(1)">
            <tspan x="91.382" y="140.356">S</tspan> <tspan x="97.742" y="140.356" letter-spacing="-.066">avings</tspan>
        </text>
    </g>
</svg>
