<svg xmlns="http://www.w3.org/2000/svg" width="469" height="262" viewBox="0 0 469 262">
    <g fill="none" fill-rule="evenodd" opacity=".2">
        <path fill="#FFF" d="M209 185v4.88h22.007L213.409 261h5.47l17.595-71.12h84.333L338.403 261h5.468l-17.596-71.12H349V185H209zm9.878 76h119.525-119.525z"/>
        <path stroke="#6D6E71" stroke-width="2" d="M218.877 261l17.598-71.12h84.33L338.404 261H218.877zm124.994 0l-17.598-71.12H349V185H209v4.88h22.007L213.409 261h130.462z"/>
        <path fill="#FFF" d="M1 123h493V2H1z"/>
        <path stroke="#6D6E71" stroke-width="2" d="M1 122.519h492.588V1.769H1z"/>
        <path fill="#8DE2D2" d="M392.486 58.876c0 1.452-.28 2.841-.787 4.113h-37.274a9.065 9.065 0 0 1-2.368-6.125c0-5.024 4.07-9.098 9.091-9.098.88 0 1.736.127 2.543.361a12.082 12.082 0 0 1 8.431-3.41c3.117 0 5.96 1.176 8.11 3.108.379-.039.763-.059 1.153-.059 6.13 0 11.101 4.975 11.101 11.11M492.179 120.348v-19.28H427.89v-16.64h-81.619v35.795z"/>
        <path fill="#8DE2D2" d="M268.663 120.348V97.465h16.986v-19.75h81.619V120.2zM490.558 16.431v23.298h-49.375a14.515 14.515 0 0 1-3.798-9.814c0-8.057 6.522-14.583 14.573-14.583 1.41 0 2.778.2 4.075.577a19.37 19.37 0 0 1 13.512-5.465c4.997 0 9.553 1.885 13 4.98.605-.06 1.222-.092 1.847-.092 2.167 0 4.244.39 6.166 1.099M157.802 19.911c0 1.452-.28 2.84-.786 4.113h-37.274a9.06 9.06 0 0 1-2.37-6.125c0-5.024 4.07-9.098 9.092-9.098.882 0 1.735.127 2.542.361a12.083 12.083 0 0 1 8.433-3.41c3.117 0 5.959 1.175 8.109 3.108.378-.039.762-.059 1.152-.059 6.13 0 11.102 4.975 11.102 11.11M3.734 72.183v22.823H52.1a14.221 14.221 0 0 0 3.72-9.615c0-7.892-6.388-14.286-14.273-14.286-1.383 0-2.723.197-3.992.566a18.975 18.975 0 0 0-13.236-5.355 18.996 18.996 0 0 0-12.734 4.88c-.594-.06-1.2-.091-1.812-.091-2.121 0-4.157.382-6.039 1.078"/>
        <path fill="#FFF" d="M135.095 15.513c0 11.878-9.617 21.503-21.482 21.503-11.868 0-21.486-9.625-21.486-21.503a21.41 21.41 0 0 1 4.797-13.538h33.375a21.408 21.408 0 0 1 4.796 13.538"/>
        <path stroke="#6D6E71" stroke-width="2" d="M135.095 15.513c0 11.878-9.617 21.503-21.482 21.503-11.868 0-21.486-9.625-21.486-21.503a21.41 21.41 0 0 1 4.797-13.538h33.375a21.408 21.408 0 0 1 4.796 13.538z"/>
        <path fill="#8DE2D2" d="M119.355 32.678c0 1.607-.31 3.143-.871 4.552H77.23a10.037 10.037 0 0 1-2.622-6.777c0-5.564 4.505-10.072 10.063-10.072.975 0 1.92.14 2.813.4a13.377 13.377 0 0 1 9.332-3.774c3.451 0 6.598 1.3 8.976 3.44.42-.044.845-.066 1.275-.066 6.785 0 12.288 5.507 12.288 12.297M52.664 120.606h104.77v-12.905H52.664z"/>
        <path fill="#8DE2D2" d="M12.401 120.606h89.118V102.25H12.401z"/>
        <path fill="#FFF" d="M308.311 183.056h-29.375a3.768 3.768 0 0 1-3.756-3.76v-1.313c0-2.068 1.69-3.76 3.756-3.76h29.375c2.066 0-3.756 1.692-3.756 3.76v1.313c0 2.069 5.822 3.76 3.756 3.76"/>
        <path stroke="#6D6E71" stroke-width="2" d="M308.311 183.056h-29.375a3.768 3.768 0 0 1-3.756-3.76v-1.313c0-2.068 1.69-3.76 3.756-3.76h29.375c2.066 0-3.756 1.692-3.756 3.76v1.313c0 2.069 5.822 3.76 3.756 3.76z"/>
        <path fill="#FFF" d="M308.311 174.224h-29.375c-2.066 0-3.756-.846-3.756-1.88v-.656c0-1.035 1.69-1.881 3.756-1.881h29.375c2.066 0-.626.846-.626 1.88v.657c0 1.034 2.692 1.88.626 1.88"/>
        <path stroke="#6D6E71" stroke-width="2" d="M308.311 174.224h-29.375c-2.066 0-3.756-.846-3.756-1.88v-.656c0-1.035 1.69-1.881 3.756-1.881h29.375c2.066 0-.626.846-.626 1.88v.657c0 1.034 2.692 1.88.626 1.88z"/>
        <path fill="#8DE2D2" d="M301.15 181.184h-20.624a2.113 2.113 0 0 1-2.106-2.107v-.59c0-1.158.948-2.108 2.106-2.108h20.625c1.158 0 2.105.95 2.105 2.108v.59a2.113 2.113 0 0 1-2.105 2.107M301.047 172.83h-21.695a.62.62 0 0 1-.618-.618v-.174a.62.62 0 0 1 .618-.618h21.695c.34 0 .618.278.618.618v.174c0 .34-.278.618-.618.618"/>
        <path fill="#FFF" d="M308.311 170.84h-29.375a3.768 3.768 0 0 1-3.756-3.759v-1.313c0-2.068 1.69-3.76 3.756-3.76h29.375c2.066 0-3.756 1.692-3.756 3.76v1.313c0 2.068 5.822 3.76 3.756 3.76"/>
        <path stroke="#6D6E71" stroke-width="2" d="M308.311 170.84h-29.375a3.768 3.768 0 0 1-3.756-3.759v-1.313c0-2.068 1.69-3.76 3.756-3.76h29.375c2.066 0-3.756 1.692-3.756 3.76v1.313c0 2.068 5.822 3.76 3.756 3.76z"/>
        <path fill="#FFF" d="M308.311 162.009h-29.375c-2.066 0-3.756-.846-3.756-1.88v-.656c0-1.034 1.69-1.88 3.756-1.88h29.375c2.066 0-.626.846-.626 1.88v.656c0 1.034 2.692 1.88.626 1.88"/>
        <path stroke="#6D6E71" stroke-width="2" d="M308.311 162.009h-29.375c-2.066 0-3.756-.846-3.756-1.88v-.656c0-1.034 1.69-1.88 3.756-1.88h29.375c2.066 0-.626.846-.626 1.88v.656c0 1.034 2.692 1.88.626 1.88z"/>
        <path fill="#8DE2D2" d="M301.15 168.97h-20.624a2.112 2.112 0 0 1-2.106-2.108v-.59c0-1.158.948-2.106 2.106-2.106h20.625c1.158 0 2.105.948 2.105 2.107v.59c0 1.158-.947 2.106-2.105 2.106M301.047 160.615h-21.695a.62.62 0 0 1-.618-.618v-.173c0-.34.278-.62.618-.62h21.695a.62.62 0 0 1 .618.62v.173c0 .34-.278.618-.618.618"/>
        <path fill="#FFF" d="M110.262 208.523h68.758v-3.406h-68.758z"/>
        <path stroke="#6D6E71" stroke-width="2" d="M110.262 208.523h68.758v-3.406h-68.758z"/>
        <path fill="#FFF" d="M110.262 205.117h10.211V140.39h-10.21z"/>
        <path stroke="#6D6E71" stroke-width="2" d="M110.262 205.117h10.211V140.39h-10.21z"/>
        <path fill="#FFF" d="M110.262 259.621h4.765v-51.098h-4.765z"/>
        <path stroke="#6D6E71" stroke-width="2" d="M110.262 259.621h4.765v-51.098h-4.765z"/>
        <path fill="#FFF" d="M174.255 259.621h4.765v-51.098h-4.765z"/>
        <path stroke="#6D6E71" stroke-width="2" d="M174.255 259.621h4.765v-51.098h-4.765z"/>
        <path fill="#FFF" d="M120.133 204.845c0-1.725 1.074-3.135 2.386-3.135h54.457c1.311 0 2.385 1.41 2.385 3.135 0 1.725-59.228 1.725-59.228 0"/>
        <path stroke="#6D6E71" stroke-width="2" d="M120.133 204.845c0-1.725 1.074-3.135 2.386-3.135h54.457c1.311 0 2.385 1.41 2.385 3.135 0 1.725-59.228 1.725-59.228 0z"/>
        <path fill="#FFF" d="M364.918 212.328h63.638v-3.152h-63.638z"/>
        <path stroke="#6D6E71" stroke-width="2" d="M364.918 212.328h63.638v-3.152h-63.638z"/>
        <path fill="#FFF" d="M419.105 209.176h9.451v-59.905h-9.451z"/>
        <path stroke="#6D6E71" stroke-width="2" d="M419.105 209.176h9.451v-59.905h-9.451z"/>
        <path fill="#FFF" d="M424.145 259.621h4.411V212.33h-4.41z"/>
        <path stroke="#6D6E71" stroke-width="2" d="M424.145 259.621h4.411V212.33h-4.41z"/>
        <path fill="#FFF" d="M364.918 259.621h4.41V212.33h-4.41z"/>
        <path stroke="#6D6E71" stroke-width="2" d="M364.918 259.621h4.41V212.33h-4.41z"/>
        <path fill="#FFF" d="M364.603 208.924c0-1.595.993-2.901 2.208-2.901h50.402c1.213 0 2.207 1.306 2.207 2.901 0 1.596-54.817 1.596-54.817 0"/>
        <path stroke="#6D6E71" stroke-width="2" d="M364.603 208.924c0-1.595.993-2.901 2.208-2.901h50.402c1.213 0 2.207 1.306 2.207 2.901 0 1.596-54.817 1.596-54.817 0z"/>
    </g>
</svg>
