<svg xmlns="http://www.w3.org/2000/svg" width="205" height="143" viewBox="0 0 205 143">
    <g fill="none" fill-rule="evenodd" opacity=".2">
        <path fill="#FFF" d="M-231.593 141.1h324.49V2.406h-324.49z"/>
        <path stroke="#6D6E71" stroke-width="3" d="M-231.593 141.1h324.49V2.406h-324.49z"/>
        <path fill="#8DE2D2" d="M35.743 57.722c0 1.668.321 3.263.905 4.724h42.878a10.406 10.406 0 0 0 2.725-7.034c0-5.772-4.683-10.451-10.459-10.451-1.014 0-1.996.146-2.925.415a13.911 13.911 0 0 0-9.7-3.917c-3.585 0-6.855 1.35-9.327 3.57a13.195 13.195 0 0 0-1.326-.068c-7.052 0-12.77 5.715-12.77 12.761M90.657 139.778v-17.076H61.659v-14.737h-75.264v31.701z"/>
        <g>
            <path fill="#FFF" d="M202.918 79.21c0 21.377-17.33 38.708-38.709 38.708-21.379 0-38.709-17.33-38.709-38.709 0-21.378 17.33-38.709 38.71-38.709 21.377 0 38.708 17.331 38.708 38.71"/>
            <path stroke="#6D6E71" stroke-width="3" d="M202.918 79.21c0 21.377-17.33 38.708-38.709 38.708-21.379 0-38.709-17.33-38.709-38.709 0-21.378 17.33-38.709 38.71-38.709 21.377 0 38.708 17.331 38.708 38.71z"/>
            <path fill="#FFF" d="M198.298 79.21c0 18.826-15.262 34.088-34.089 34.088-18.826 0-34.088-15.262-34.088-34.089 0-18.827 15.262-34.089 34.088-34.089 18.827 0 34.089 15.262 34.089 34.09"/>
            <path stroke="#6D6E71" stroke-width="3" d="M198.298 79.21c0 18.826-15.262 34.088-34.089 34.088-18.826 0-34.088-15.262-34.088-34.089 0-18.827 15.262-34.089 34.088-34.089 18.827 0 34.089 15.262 34.089 34.09zM164.21 75.661V58.783"/>
            <path fill="#6D6E71" d="M168.697 60.096l-4.488-7.77-4.488 7.77z"/>
            <path stroke="#6D6E71" stroke-width="3" d="M164.21 79.21l-10.632-10.632"/>
            <path fill="#6D6E71" d="M156.313 67.082l-5.78-1.548 1.549 5.779z"/>
            <path fill="#FFF" d="M167.757 79.21a3.549 3.549 0 1 1-7.097-.002 3.549 3.549 0 0 1 7.097.001"/>
            <path stroke="#6D6E71" stroke-width="3" d="M167.757 79.21a3.549 3.549 0 1 1-7.097-.002 3.549 3.549 0 0 1 7.097.001z"/>
        </g>
    </g>
</svg>
