<svg xmlns="http://www.w3.org/2000/svg" xmlns:xlink="http://www.w3.org/1999/xlink" width="623" height="313" viewBox="0 0 623 313">
    <defs>
        <path id="a" d="M0 272.102h692.551V.315H0z"/>
    </defs>
    <g fill="none" fill-rule="evenodd" opacity=".2">
        <path fill="#FFF" d="M482.28 297.959l-.562-90.754H496.6l-25.66-24.239v-39.73l3.303.02v-13.8h-40.17v13.8l3.177-.02v7.905l-28.416-26.843-65.975 61.644-22.688 21.198 17.06.065v.11l.262 90.644"/>
        <path stroke="#6D6E71" stroke-width="3" d="M482.28 297.959l-.562-90.754H496.6l-25.66-24.239v-39.73l3.303.02v-13.8h-40.17v13.8l3.177-.02v7.905l-28.416-26.843-65.975 61.644-22.688 21.198 17.06.065v.11l.262 90.644"/>
        <path fill="#FFF" d="M399 184h22v-25h-22z"/>
        <path stroke="#6D6E71" stroke-width="3" d="M399 184h22v-25h-22z"/>
        <path fill="#A2EDDE" d="M458 169h10v-4h-10zM451 162h10v-4h-10zM458 154h10v-4h-10zM446 154h10v-4h-10zM411 171h7v-9h-7zM401 171h7v-9h-7zM411 182h7v-9h-7zM401 182h7v-9h-7zM340 211h139v-4H340zM436 143h37v-3h-37zM451 148h10v-4h-10zM464 175h4v-4h-4zM463 162h5v-4h-5zM468 181l-4-4h4zM463 175l-5-4h5zM456 169l-5-4h5zM450 162l-5-4h5zM439 154h5v-4h-5zM463 148h5v-4h-5zM479 297h-68l59.009-8.39L479 266zM439 148h10v-4h-10z"/>
        <path fill="#FFF" d="M421 268h42v-54h-42z"/>
        <path stroke="#6D6E71" stroke-width="3" d="M421 268h42v-54h-42z"/>
        <path fill="#FFF" d="M352 295h49v-84h-49z"/>
        <path stroke="#6D6E71" stroke-width="3" d="M352 295h49v-84h-49z"/>
        <g transform="translate(-70 40)">
            <path fill="#FFF" d="M468.124 214.548a2.644 2.644 0 1 1-5.287 0 2.644 2.644 0 1 1 5.287 0"/>
            <path stroke="#6D6E71" stroke-width="3" d="M468.124 214.548a2.644 2.644 0 1 1-5.287 0 2.644 2.644 0 1 1 5.287 0z"/>
            <mask id="b" fill="#fff">
                <use xlink:href="#a"/>
            </mask>
            <path fill="#A2EDDE" d="M425.177 252.501h17.234v-78.503h-17.234zM494.574 225.564h35.682V200.55h-35.682zM514.232 196.91h16.024v-18.991h-16.024zM494.574 196.91h16.024v-18.991h-16.024z" mask="url(#b)"/>
            <path fill="#FFF" d="M251.604 184.333a79.828 79.828 0 0 0 13.507 2.255l-3.526 15.904-9.98-18.16zm25.66 16.813l.452-14.531a79.348 79.348 0 0 0 11.248-1.668l-11.7 16.2zm10.212 57.387h-2.17s-6.381-22.71-6.381-38.008c0-17.428 32.254-43.855 33.114-44.68.005-.004.009-.004.018-.014 23.576-13.894 24.246-39.564 24.246-68.931 0-44.151-20.613-67.291-64.728-67.291-44.111 0-58.011 23.14-58.011 67.291 0 31.085-4.135 58.027 21.748 71.25 6.477 9.177 26.59 29.372 26.59 47.352 0 19.579-9.729 33.042-9.729 33.042l-1.886-.023 37.189.012z" mask="url(#b)"/>
            <path stroke="#6D6E71" stroke-width="3" d="M251.604 184.333a79.828 79.828 0 0 0 13.507 2.255l-3.526 15.904-9.98-18.16zm25.66 16.813l.452-14.531a79.348 79.348 0 0 0 11.248-1.668l-11.7 16.2zm10.212 57.387h-2.17s-6.381-22.71-6.381-38.008c0-17.428 32.254-43.855 33.114-44.68.005-.004.009-.004.018-.014 23.576-13.894 24.246-39.564 24.246-68.931 0-44.151-20.613-67.291-64.728-67.291-44.111 0-58.011 23.14-58.011 67.291 0 31.085-4.135 58.027 21.748 71.25 6.477 9.177 26.59 29.372 26.59 47.352 0 19.579-9.729 33.042-9.729 33.042l-1.886-.023 37.189.012z" mask="url(#b)"/>
            <path fill="#A2EDDE" d="M331.367 114.814c0 42.95-12.511 53.839-20.194 53.839s-1.875-30.756-1.875-53.839c0-23.082-5.808-56.407 1.875-56.407s20.194 13.457 20.194 56.407" mask="url(#b)"/>
            <path fill="#FFF" d="M30.34 202.015a60.72 60.72 0 0 0 10.288 1.718l-2.686 12.115-7.602-13.833zm19.545 12.808l.345-11.07a60.473 60.473 0 0 0 8.568-1.27l-8.913 12.34zm7.78 43.712H56.01s-4.86-17.298-4.86-28.95c0-13.277 24.568-33.407 25.224-34.035.003-.003.006-.003.013-.01 17.959-10.585 18.468-30.137 18.468-52.508 0-33.63-15.7-51.257-49.304-51.257-33.601 0-44.189 17.627-44.189 51.257 0 23.68-3.15 44.202 16.566 54.273 4.934 6.992 20.255 22.374 20.255 36.07 0 14.913-7.411 25.17-7.411 25.17l-1.437-.019 28.328.01z" mask="url(#b)"/>
            <path stroke="#6D6E71" stroke-width="3" d="M30.34 202.015a60.72 60.72 0 0 0 10.288 1.718l-2.686 12.115-7.602-13.833zm19.545 12.808l.345-11.07a60.473 60.473 0 0 0 8.568-1.27l-8.913 12.34zm7.78 43.712H56.01s-4.86-17.298-4.86-28.95c0-13.277 24.568-33.407 25.224-34.035.003-.003.006-.003.013-.01 17.959-10.585 18.468-30.137 18.468-52.508 0-33.63-15.7-51.257-49.304-51.257-33.601 0-44.189 17.627-44.189 51.257 0 23.68-3.15 44.202 16.566 54.273 4.934 6.992 20.255 22.374 20.255 36.07 0 14.913-7.411 25.17-7.411 25.17l-1.437-.019 28.328.01z" mask="url(#b)"/>
            <path fill="#A2EDDE" d="M91.097 149.061c0 32.717-9.53 41.01-15.382 41.01s-1.428-23.427-1.428-41.01c0-17.582-4.424-42.967 1.428-42.967s15.382 10.25 15.382 42.967" mask="url(#b)"/>
            <path fill="#FFF" d="M640.644 242.417c0 5.923-1.376 11.492-3.8 16.35h-117.53a27.17 27.17 0 0 1-1.93-10.12c0-11.1 6.55-20.532 15.656-23.901 4.063-8.21 12.002-13.783 21.127-13.783 4.521 0 8.753 1.363 12.36 3.742 1.489-.267 3.02-.4 4.575-.4 5.653 0 10.93 1.809 15.362 4.922 5.704-6.763 13.874-11.001 22.949-11.001 17.248 0 31.23 15.308 31.23 34.191" mask="url(#b)"/>
            <path stroke="#6D6E71" stroke-width="3" d="M640.644 242.417c0 5.923-1.376 11.492-3.8 16.35h-117.53a27.17 27.17 0 0 1-1.93-10.12c0-11.1 6.55-20.532 15.656-23.901 4.063-8.21 12.002-13.783 21.127-13.783 4.521 0 8.753 1.363 12.36 3.742 1.489-.267 3.02-.4 4.575-.4 5.653 0 10.93 1.809 15.362 4.922 5.704-6.763 13.874-11.001 22.949-11.001 17.248 0 31.23 15.308 31.23 34.191z" mask="url(#b)"/>
            <path fill="#FFF" d="M643.141 246.885c0 4.312-.892 8.367-2.464 11.903H564.43a21.918 21.918 0 0 1-1.251-7.367c0-8.083 4.25-14.95 10.156-17.403 2.636-5.977 7.786-10.035 13.706-10.035 2.934 0 5.678.993 8.018 2.725a15.108 15.108 0 0 1 2.968-.291c3.668 0 7.09 1.317 9.966 3.583 3.7-4.923 9-8.01 14.887-8.01 11.19 0 20.261 11.146 20.261 24.895" mask="url(#b)"/>
            <path stroke="#6D6E71" stroke-width="3" d="M643.141 246.885c0 4.312-.892 8.367-2.464 11.903H564.43a21.918 21.918 0 0 1-1.251-7.367c0-8.083 4.25-14.95 10.156-17.403 2.636-5.977 7.786-10.035 13.706-10.035 2.934 0 5.678.993 8.018 2.725a15.108 15.108 0 0 1 2.968-.291c3.668 0 7.09 1.317 9.966 3.583 3.7-4.923 9-8.01 14.887-8.01 11.19 0 20.261 11.146 20.261 24.895z" mask="url(#b)"/>
            <path fill="#FFF" d="M231.53 258.496c2.425-4.858 3.8-10.426 3.8-16.35 0-18.883-13.982-34.19-31.23-34.19-9.077 0-17.246 4.238-22.95 11-4.432-3.112-9.708-4.921-15.361-4.921-1.556 0-3.087.133-4.576.4-3.606-2.379-7.838-3.743-12.359-3.743-9.125 0-17.064 5.574-21.129 13.783-9.104 3.37-15.655 12.8-15.655 23.902 0 3.6 2.307 10.25 2.307 10.25l117.154-.131z" mask="url(#b)"/>
            <path stroke="#6D6E71" stroke-width="3" d="M231.53 258.496c2.425-4.858 3.8-10.426 3.8-16.35 0-18.883-13.982-34.19-31.23-34.19-9.077 0-17.246 4.238-22.95 11-4.432-3.112-9.708-4.921-15.361-4.921-1.556 0-3.087.133-4.576.4-3.606-2.379-7.838-3.743-12.359-3.743-9.125 0-17.064 5.574-21.129 13.783-9.104 3.37-15.655 12.8-15.655 23.902 0 3.6 2.307 10.25 2.307 10.25l117.154-.131z" mask="url(#b)"/>
            <path fill="#FFF" d="M265.096 258.537c1.67-3.347 2.618-7.184 2.618-11.265 0-13.011-9.635-23.559-21.52-23.559-6.252 0-11.882 2.92-15.811 7.58-3.055-2.145-6.69-3.391-10.585-3.391-1.072 0-2.127.092-3.153.275-2.485-1.638-5.4-2.578-8.515-2.578-6.288 0-11.758 3.84-14.559 9.497-6.273 2.321-10.787 8.82-10.787 16.468 0 2.48 1.59 7.063 1.59 7.063l80.722-.09z" mask="url(#b)"/>
            <path stroke="#6D6E71" stroke-width="3" d="M265.096 258.537c1.67-3.347 2.618-7.184 2.618-11.265 0-13.011-9.635-23.559-21.52-23.559-6.252 0-11.882 2.92-15.811 7.58-3.055-2.145-6.69-3.391-10.585-3.391-1.072 0-2.127.092-3.153.275-2.485-1.638-5.4-2.578-8.515-2.578-6.288 0-11.758 3.84-14.559 9.497-6.273 2.321-10.787 8.82-10.787 16.468 0 2.48 1.59 7.063 1.59 7.063l80.722-.09z" mask="url(#b)"/>
            <path fill="#A2EDDE" d="M178.584 221.827c0 6.459-7.497 10.888-29.22 11.465s-31.72 22.756-31.72 22.756-3.949-11.55 2.116-20.56c2.487-3.696 6.5-4.959 10.957-9.043 5.34-4.892 4.239-10.941 15.187-12.506 9.42-1.347 9.459 2.35 14.994 3.27 4.503.75 5.754-.536 9.42-.384 3.843.159 8.266 2.937 8.266 5.002M228.614 233.271c0 4.45-5.166 7.502-20.133 7.9-14.968.397-21.856 15.679-21.856 15.679s-2.721-7.959 1.458-14.166c1.714-2.546 4.48-3.417 7.55-6.23 3.679-3.372 2.92-7.54 10.463-8.618 6.491-.928 6.519 1.62 10.332 2.254 3.103.515 3.964-.37 6.49-.265 2.649.109 5.696 2.023 5.696 3.446M398.454 266.9c0 1.974-4.217 5.202-9.42 5.202s-9.42-3.228-9.42-5.202c0-1.973 4.217-3.574 9.42-3.574s9.42 1.6 9.42 3.574" mask="url(#b)"/>
            <path fill="#FFF" d="M392.815 265.925s-1.41 2.181-3.589 2.181c-2.178 0-3.588-2.18-3.588-2.18v-30.53h7.177v30.53z" mask="url(#b)"/>
            <path stroke="#6D6E71" stroke-width="3" d="M392.815 265.925s-1.41 2.181-3.589 2.181c-2.178 0-3.588-2.18-3.588-2.18v-30.53h7.177v30.53z" mask="url(#b)"/>
            <path fill="#FFF" d="M359.759 238.587h59.593v-31.03H359.76z" mask="url(#b)"/>
            <path stroke="#6D6E71" stroke-width="3" d="M359.759 238.587h59.593v-31.03H359.76z" mask="url(#b)"/>
            <path fill="#A2EDDE" d="M391.743 265.605s-1.217 1.154-1.858 1.154c-.979 0-.658-1.475-.658-1.475v-25.527h2.516v25.848zM362.826 210.299h38.96l-32.636 3.977-6.324 4.316zM417.036 236.166h-38.96l35.518-3.976 3.442-4.366z" mask="url(#b)"/>
        </g>
        <text fill="#58595B" font-family="Lato-Regular, Lato" font-size="7.829" transform="translate(-70)">
            <tspan x="367.207" y="261">Home Sweet </tspan> <tspan x="378.599" y="271">Home</tspan>
        </text>
        <g fill="#8DE2D2">
            <path d="M389.887 25.378c0 2.57-.493 5.028-1.387 7.28h-65.706a16.079 16.079 0 0 1-4.176-10.84c0-8.894 7.176-16.105 16.027-16.105 1.554 0 3.059.224 4.482.64A21.26 21.26 0 0 1 353.99.316a21.26 21.26 0 0 1 14.295 5.502 20.058 20.058 0 0 1 2.032-.105c10.806 0 19.569 8.806 19.569 19.665M60.923 107.22c0 2.57-.493 5.028-1.387 7.28H-6.17a16.079 16.079 0 0 1-4.176-10.84c0-8.894 7.176-16.105 16.027-16.105 1.553 0 3.059.225 4.482.64a21.26 21.26 0 0 1 14.864-6.036 21.26 21.26 0 0 1 14.295 5.501 20.058 20.058 0 0 1 2.032-.105c10.806 0 19.569 8.806 19.569 19.665M622.551 105.364c0 2.947-.564 5.764-1.59 8.346h-75.338a18.439 18.439 0 0 1-4.788-12.428c0-10.198 8.228-18.466 18.376-18.466 1.782 0 3.507.258 5.14.733 4.412-4.287 10.42-6.921 17.042-6.921 6.3 0 12.046 2.386 16.39 6.309.767-.079 1.542-.121 2.33-.121 12.39 0 22.438 10.097 22.438 22.548"/>
        </g>
    </g>
</svg>
