<svg xmlns="http://www.w3.org/2000/svg" width="294" height="244" viewBox="0 0 294 244">
    <g fill="none" fill-rule="evenodd">
        <path fill="#FFF" d="M43.137 80.474l4.096-12.298c1.151-3.455 4.914-5.338 8.363-4.185l25.69 8.588c3.448 1.153 5.329 4.923 4.178 8.378l-4.097 12.298c-1.15 3.456-4.914 5.339-8.362 4.186l-25.69-8.589c-3.449-1.152-5.329-4.923-4.178-8.378"/>
        <path fill="#6D6E71" fill-rule="nonzero" d="M44.56 80.948c-.89 2.67.568 5.592 3.23 6.482l25.69 8.588c2.662.89 5.575-.568 6.464-3.237l4.097-12.298c.889-2.67-.568-5.591-3.23-6.482l-25.69-8.588c-2.663-.89-5.576.568-6.465 3.237L44.56 80.948zm1.25-13.246c1.413-4.241 6.026-6.55 10.262-5.134l25.69 8.588c4.234 1.416 6.537 6.035 5.125 10.275L82.79 93.729c-1.413 4.241-6.027 6.55-10.262 5.134l-25.69-8.588C42.605 88.86 40.302 84.24 41.714 80l4.096-12.298z"/>
        <path fill="#FFF" d="M2.338 200.474l4.097-12.298c1.15-3.455 4.914-5.338 8.363-4.185l25.69 8.588c3.448 1.153 5.328 4.923 4.177 8.378l-4.096 12.298c-1.15 3.456-4.914 5.339-8.363 4.186l-25.69-8.589c-3.448-1.152-5.328-4.923-4.178-8.378"/>
        <path fill="#6D6E71" fill-rule="nonzero" d="M3.762 200.948c-.89 2.67.567 5.592 3.23 6.482l25.69 8.588c2.662.89 5.575-.568 6.464-3.237l4.096-12.298c.89-2.67-.567-5.591-3.23-6.482l-25.69-8.588c-2.662-.89-5.575.568-6.464 3.237l-4.096 12.298zm1.25-13.246c1.412-4.241 6.026-6.55 10.261-5.134l25.69 8.588c4.234 1.416 6.538 6.035 5.125 10.275l-4.096 12.298c-1.413 4.241-6.026 6.55-10.261 5.134l-25.69-8.588C1.807 208.86-.497 204.24.915 200l4.097-12.298z"/>
        <path fill="#8DE2D2" d="M32.593 215.578l-20.669-7.068 12.231-19.354 15.335 5.243zM79.186 73.84l-20.502-6.886-1.55 22.414 15.21 5.11z"/>
        <path fill="#FFF" d="M154.047 124.505l-31.041 93.02c-3.116 9.336-74.116 5.018-80.508 2.884l-5.852-1.952c-12.07-4.027-19.402-14.972-16.286-24.307L58.715 79.214c3.115-9.335 15.55-13.683 27.62-9.656l5.851 1.953c6.393 2.133 64.977 43.66 61.861 52.994"/>
        <path fill="#6D6E71" fill-rule="nonzero" d="M152.625 124.03c1.045-3.132-9.762-14.118-26.869-27.543-13.913-10.918-30.8-22.47-34.044-23.553l-5.852-1.953c-11.351-3.788-22.9.25-25.722 8.708L21.782 194.625c-2.822 8.458 3.987 18.621 15.339 22.409l5.852 1.952c3.353 1.12 23.748 2.619 41.022 2.782 21.536.204 36.555-1.622 37.588-4.718l31.042-93.02zM124.429 218c-1.735 5.2-16.503 6.995-40.463 6.768-17.626-.167-38.171-1.677-41.943-2.936l-5.852-1.952c-12.786-4.267-20.643-15.992-17.234-26.205L57.292 78.74C60.7 68.527 74.023 63.869 86.81 68.135l5.851 1.953c3.713 1.239 20.713 12.87 34.948 24.04 18.962 14.88 29.587 25.681 27.861 30.852L124.43 218z"/>
        <path fill="#FFF" d="M116.59 210.474c-6.456 3.226-44.445 4.834-48.225 3.573l-3.46-1.155c-7.136-2.382-4.188-8.441-1.606-16.18l31.788-95.274c2.582-7.738 3.864-14.354 11-11.973l3.46 1.155c3.78 1.262 34.565 27.36 36.79 31.813 1.142 2.287-6.663 24.252-13.817 45.857-6.772 20.45-12.79 40.615-15.93 42.184"/>
        <path fill="#6D6E71" fill-rule="nonzero" d="M118.087 205.473c1.027-2.245 2.234-5.37 3.691-9.509 1.21-3.437 2.52-7.35 4.412-13.142l2.404-7.377a1698.302 1698.302 0 0 1 3.964-12.023c.842-2.521 4.136-12.335 4.912-14.658 1.8-5.394 3.1-9.37 4.174-12.786 1.26-4.011 2.153-7.093 2.697-9.346.286-1.183.472-2.125.557-2.813.04-.318.055-.57.05-.746-2.054-3.97-32.209-29.806-35.876-31.03l-3.46-1.155c-4.002-1.336-5.56.275-7.779 6.962-.178.536-1.057 3.268-1.323 4.063l-31.788 95.274c-.087.26-.177.53-.275.816-2.286 6.712-2.447 7.25-2.503 9.142-.065 2.194.834 3.456 3.436 4.324l3.46 1.155c4.264 1.423 41.752-.83 47.08-3.492.324-.162 1.163-1.464 2.167-3.66zm-.826 6.342c-6.05 3.024-44.362 5.326-49.37 3.655l-3.46-1.155c-3.847-1.284-5.59-3.73-5.485-7.259.07-2.352.212-2.828 2.661-10.02.096-.282.185-.544.27-.799l31.788-95.273c.258-.776 1.137-3.505 1.32-4.058 1.262-3.801 2.235-5.897 3.715-7.428 1.967-2.033 4.57-2.534 7.862-1.436l3.46 1.155c4.426 1.478 35.377 28.002 37.656 32.565.779 1.558-.248 5.804-3.172 15.115-1.08 3.436-2.386 7.427-4.19 12.836-.777 2.327-4.071 12.141-4.912 14.66a2014.856 2014.856 0 0 0-1.46 4.389c-.75 2.266-1.512 4.59-2.498 7.613-.009.027-1.883 5.784-2.405 7.379-1.899 5.812-3.214 9.742-4.433 13.206-3.3 9.374-5.35 13.857-7.347 14.855z"/>
        <path fill="#8DE2D2" d="M77.208 87.463c-1.734 5.381-5.461 8.94-8.327 7.95-2.866-.992-3.783-6.156-2.05-11.537 1.733-5.38 5.46-8.94 8.326-7.95 2.865.991 3.784 6.157 2.05 11.537M40.82 198.656c-1.734 5.38-5.461 8.94-8.327 7.95-2.866-.992-3.783-6.157-2.05-11.537 1.733-5.381 5.46-8.94 8.326-7.95 2.866.991 3.784 6.156 2.05 11.537M64.51 85.558a6.616 6.616 0 0 1-8.368 4.174 6.6 6.6 0 0 1-4.18-8.354c1.156-3.46 4.902-5.329 8.367-4.174a6.601 6.601 0 0 1 4.18 8.354"/>
        <path fill="#6D6E71" fill-rule="nonzero" d="M63.087 85.083a5.101 5.101 0 0 0-3.232-6.456 5.116 5.116 0 0 0-6.47 3.226 5.1 5.1 0 0 0 3.231 6.456 5.116 5.116 0 0 0 6.471-3.226zm2.845.95c-1.419 4.246-6.014 6.538-10.264 5.122-4.252-1.416-6.548-6.007-5.129-10.253 1.418-4.245 6.014-6.538 10.264-5.121 4.251 1.415 6.549 6.007 5.13 10.253z"/>
        <path fill="#FFF" d="M88.008 67.92c0 3.032-2.511 5.488-5.61 5.488-.158 0-.314-.006-.467-.021-.916 2.661-3.49 4.576-6.52 4.576-1.97 0-3.75-.811-5.005-2.112a7.163 7.163 0 0 1-1.876.249c-3.86 0-6.986-3.059-6.986-6.834 0-3.657 2.934-6.64 6.624-6.825a7.399 7.399 0 0 1 4.434-4.86c3.85-1.518 8.229.306 9.78 4.071.109.26.198.521.271.787 2.982.13 5.355 2.534 5.355 5.481"/>
        <path fill="#6D6E71" fill-rule="nonzero" d="M86.508 67.92c0-2.127-1.724-3.886-3.92-3.983l-1.09-.047-.29-1.05a5.244 5.244 0 0 0-.212-.616c-1.238-3.004-4.752-4.467-7.844-3.248-1.76.694-3.046 2.13-3.54 3.874l-.294 1.035-1.075.054c-2.914.146-5.2 2.491-5.2 5.327 0 2.94 2.449 5.334 5.487 5.334.507 0 1.004-.067 1.484-.197l.856-.232.615.638a5.436 5.436 0 0 0 3.926 1.654c2.335 0 4.376-1.457 5.102-3.565l.385-1.116 1.175.112c.098.009.207.014.324.014 2.279 0 4.11-1.792 4.11-3.988zm3 0c0 3.694-2.91 6.705-6.586 6.969-1.391 2.758-4.277 4.574-7.511 4.574a8.446 8.446 0 0 1-5.453-1.98 8.687 8.687 0 0 1-1.428.117c-4.68 0-8.486-3.723-8.486-8.334 0-4.105 3.024-7.527 7.02-8.21a8.918 8.918 0 0 1 4.988-4.871c4.602-1.814 9.84.363 11.71 4.877 3.279.625 5.746 3.461 5.746 6.858z"/>
        <path fill="#FFF" d="M95.726 43.707c0-4.946 3.976-8.953 8.884-8.953.247 0 .496.01.737.034 1.451-4.342 5.527-7.467 10.324-7.467 3.12 0 5.937 1.324 7.924 3.446a11.034 11.034 0 0 1 2.97-.405c6.111 0 11.062 4.99 11.062 11.15 0 5.966-4.646 10.834-10.488 11.135-.956 3.474-3.446 6.477-7.02 7.93-6.097 2.476-13.03-.5-15.486-6.642a11.37 11.37 0 0 1-.429-1.284c-4.72-.213-8.478-4.136-8.478-8.944"/>
        <path fill="#6D6E71" fill-rule="nonzero" d="M97.226 43.707c0 3.993 3.114 7.268 7.046 7.445l1.094.05.286 1.057c.105.386.227.754.374 1.119 2.149 5.373 8.205 7.972 13.528 5.81 3.042-1.237 5.277-3.807 6.138-6.939l.287-1.044 1.082-.056c5.066-.26 9.066-4.49 9.066-9.638 0-5.333-4.282-9.65-9.562-9.65-.877 0-1.737.12-2.566.35l-.877.245-.621-.663a9.324 9.324 0 0 0-6.83-2.972c-4.06 0-7.624 2.622-8.902 6.442l-.378 1.133-1.19-.115a6.154 6.154 0 0 0-.591-.027c-4.077 0-7.384 3.333-7.384 7.453zm-3 0c0-5.678 4.495-10.3 10.105-10.45 1.952-4.454 6.362-7.436 11.34-7.436a12.31 12.31 0 0 1 8.388 3.293 12.56 12.56 0 0 1 2.506-.252c6.942 0 12.562 5.664 12.562 12.65 0 6.381-4.704 11.696-10.86 12.535a13.425 13.425 0 0 1-7.583 7.92c-6.869 2.79-14.678-.561-17.443-7.472-.06-.149-.116-.298-.17-.449-5.023-.75-8.845-5.109-8.845-10.339z"/>
        <path fill="#FFF" d="M205.992 23.748c0 6.063-4.812 10.975-10.753 10.975-.3 0-.6-.012-.893-.041-1.756 5.322-6.69 9.153-12.498 9.153-3.777 0-7.186-1.624-9.592-4.225a13.195 13.195 0 0 1-3.595.498c-7.397 0-13.391-6.118-13.391-13.668 0-7.314 5.624-13.282 12.697-13.65 1.156-4.258 4.171-7.94 8.497-9.72 7.38-3.036 15.772.612 18.747 8.142.207.522.377 1.043.52 1.574 5.713.26 10.261 5.069 10.261 10.962"/>
        <path fill="#6D6E71" fill-rule="nonzero" d="M204.492 23.748c0-5.08-3.906-9.24-8.83-9.464l-1.096-.05-.284-1.06c-.13-.486-.284-.952-.466-1.411-2.67-6.758-10.18-10.021-16.781-7.307-3.774 1.554-6.55 4.786-7.62 8.726l-.285 1.049-1.085.056c-6.297.329-11.275 5.66-11.275 12.153 0 6.729 5.329 12.168 11.89 12.168 1.088 0 2.156-.15 3.188-.441l.884-.25.625.674c2.198 2.376 5.238 3.744 8.491 3.744 5.047 0 9.483-3.304 11.074-8.123l.376-1.14 1.195.117c.234.023.484.034.746.034 5.105 0 9.253-4.233 9.253-9.475zm3 0c0 6.84-5.406 12.402-12.12 12.475-2.267 5.447-7.549 9.112-13.524 9.112-3.796 0-7.364-1.478-10.06-4.063a14.702 14.702 0 0 1-3.127.336c-8.233 0-14.891-6.796-14.891-15.168 0-7.714 5.668-14.132 13.059-15.055 1.49-4.367 4.744-7.924 9.064-9.703 8.158-3.355 17.432.674 20.713 8.977.095.24.183.481.266.725 6.02.813 10.62 6.062 10.62 12.364z"/>
        <path fill="#FFF" d="M274.182 46.428s.588-4.436-.39-12.037c-.685-5.32-2.036-6.713-2.851-7.849 0 0 .689-1.269.362-4.999-.527-6.035-3.392-11.837-3.392-11.837-2.94 2.335-6.668 4.467-10.48 5.842-3.697-1.686-10.055-1.995-14.381-1.995a29.118 29.118 0 0 0-14.262 3.708c-4.835 2.7-8.94 6.314-11.598 11.186-2.297 4.197-4.366 13.377-3.087 18.69l60.08-.71z"/>
        <path fill="#6D6E71" fill-rule="nonzero" d="M272.785 26.526c.297.428.555.854.8 1.341.773 1.538 1.335 3.54 1.694 6.333.595 4.622.688 8.452.487 11.366-.035.508-.07.863-.097 1.059l-.17 1.287-62.575.74-.28-1.163c-1.268-5.27.485-14.746 3.23-19.76 2.658-4.876 6.783-8.763 12.181-11.777a30.615 30.615 0 0 1 14.995-3.9c5.969 0 11.028.526 14.42 1.882 3.377-1.288 6.759-3.219 9.508-5.402l1.455-1.156.823 1.666c.12.244.322.68.578 1.28.422.988.843 2.083 1.237 3.256.888 2.647 1.505 5.296 1.727 7.834.178 2.04.094 3.607-.17 4.763.049.198.114.289.157.351zm-.481 8.057c-.319-2.477-.79-4.157-1.4-5.368a7.891 7.891 0 0 0-.584-.979c-.127-.183-.56-.767-.598-.82l-.548-.763.449-.826c-.01.019.026-.08.08-.319.191-.835.258-2.092.106-3.834-.199-2.276-.764-4.703-1.582-7.142-.297-.883-.61-1.719-.927-2.492-2.833 2.012-6.103 3.744-9.36 4.919l-.574.207-.556-.253c-2.863-1.305-7.858-1.86-13.76-1.86a27.617 27.617 0 0 0-13.531 3.518c-4.933 2.754-8.643 6.25-11.013 10.596-2.215 4.047-3.76 11.753-3.155 16.456l57.449-.679c.151-2.673.045-6.161-.496-10.361z"/>
        <path fill="#8DE2D2" d="M232.456 18.133c5.91-2.79 14.335-1.544 14.335-1.544s-10.067 2.96-13.135 6.975c-2.753 3.602.212 8.436-1.2 8.436-3.753 0-8.181-1.874-8.82-2.132-.64-.258-1.853-.323-1.853-.323s-1.093.825-2.69 3.273c-.377.576-2.295 5.512-2.295 5.512h-.882s.764-3.308 1.941-6.589c.834-2.323 2.48-4.632 3.5-5.742 2.458-2.675 5.19-5.076 11.1-7.866"/>
        <path fill="#FFF" d="M276.563 51.288c0 2.32-1.903 4.199-4.252 4.199-1.428 0-2.02-.063-2.02-.063s-.235.599-.629 1.7C266.01 67.34 256.144 74.66 244.544 74.66c-11.53 0-21.35-7.241-25.051-17.368-.303-.83-.658-1.91-.658-1.91s-1.668.104-3.077.104c-2.35 0-4.252-1.88-4.252-4.2 0-2.32 1.903-4.198 4.252-4.198h2.16s.01-.607.023-.919c.063-1.536.259-1.956.58-3.414 1.219-5.55 4.737-9.329 4.737-9.329s12.42 3.601 20.777 3.651c7.874.047 20.4-4.252 20.4-4.252s3.844 3.783 5.72 9.237c.296.86.593 1.918.774 2.857.094.49.229 2.169.229 2.169h1.153c2.35 0 4.252 1.879 4.252 4.199"/>
        <path fill="#6D6E71" fill-rule="nonzero" d="M223.648 35.315a21.315 21.315 0 0 0-1.652 2.542c-.911 1.644-1.61 3.396-2.01 5.222-.08.36-.329 1.397-.372 1.607a8.855 8.855 0 0 0-.175 1.546 63.598 63.598 0 0 0-.021.88l-.022 1.477h-3.638c-1.525 0-2.752 1.212-2.752 2.699 0 1.487 1.227 2.699 2.752 2.699a54.543 54.543 0 0 0 2.984-.1l1.156-.072.362 1.1a72.073 72.073 0 0 0 .475 1.397l.055.155c.039.11.076.214.112.31 3.562 9.748 12.964 16.384 23.642 16.384 10.746 0 20.19-6.711 23.706-16.542a88.66 88.66 0 0 1 .643-1.742l.417-1.065 1.137.12c.045.005.173.015.39.025.384.019.873.03 1.474.03 1.525 0 2.752-1.212 2.752-2.7 0-1.487-1.227-2.698-2.752-2.698h-2.538l-.11-1.38a59.01 59.01 0 0 0-.155-1.626 6.572 6.572 0 0 0-.052-.38 20.718 20.718 0 0 0-.719-2.652c-.542-1.577-1.297-3.111-2.212-4.578a26.55 26.55 0 0 0-2.534-3.42 117.574 117.574 0 0 1-6.36 1.852c-2.158.561-4.258 1.038-6.247 1.402-2.788.51-5.263.783-7.358.771-2.011-.012-4.323-.22-6.883-.593-2.183-.319-4.49-.75-6.862-1.267a133.727 133.727 0 0 1-6.492-1.586l-.14.183zm54.415 15.973c0 3.152-2.578 5.699-5.752 5.699-.369 0-.702-.004-1-.011-.075.203-.153.42-.236.653-3.94 11.02-14.513 18.532-26.53 18.532-11.944 0-22.468-7.428-26.461-18.354-.039-.106-.08-.218-.121-.336l-.058-.164-.128-.368a56.483 56.483 0 0 1-2.02.048c-3.172 0-5.751-2.547-5.751-5.7 0-3.152 2.579-5.698 5.752-5.698h.713c.04-.563.104-1.023.205-1.512.056-.267.31-1.329.38-1.643.467-2.128 1.272-4.148 2.317-6.032 1.03-1.858 2.066-3.223 2.787-3.997l.629-.676.887.257a107.863 107.863 0 0 0 2.06.56c1.62.423 3.37.846 5.183 1.241 2.308.503 4.55.922 6.657 1.23 2.433.355 4.612.55 6.467.561 1.882.011 4.182-.242 6.8-.722 1.911-.35 3.94-.81 6.033-1.355a114.599 114.599 0 0 0 6.544-1.918c.259-.085.438-.145.528-.176l.878-.301.662.65c.242.24.642.669 1.147 1.27a29.53 29.53 0 0 1 2.437 3.36c1.027 1.65 1.881 3.385 2.502 5.189.336.977.642 2.097.827 3.06.03.152.057.347.087.598l.04.36c3.073.112 5.535 2.614 5.535 5.695z"/>
        <path fill="#6D6E71" d="M230.802 51.541c-.91 0-1.654-.749-1.654-1.665V46.6c0-.915.745-1.664 1.654-1.664.91 0 1.654.749 1.654 1.664v3.276c0 .916-.744 1.665-1.654 1.665M255.06 51.541c-.909 0-1.653-.749-1.653-1.665V46.6c0-.915.744-1.664 1.654-1.664.91 0 1.654.749 1.654 1.664v3.276c0 .916-.745 1.665-1.654 1.665"/>
        <path fill="#FFF" d="M260.023 236.495l-11.69-.051-.087-83.796h-10.279l-.022 83.847h-11.002V135.211h33.08z"/>
        <path fill="#6D6E71" fill-rule="nonzero" d="M258.523 136.711h-30.08v98.284h8.002l.022-83.847h13.278l.087 83.802 8.69.039V136.71zm-19.079 101.284h-14.001V133.711h36.08v104.291l-14.688-.065-.087-83.79h-7.281l-.023 83.848z"/>
        <path fill="#FFF" d="M239.072 235.101l-7.088-.055s-6.82-3.727-9.913-.61c-2.241 2.257-1.682 7.564-1.682 7.564h18.683v-6.899z"/>
        <path fill="#6D6E71" fill-rule="nonzero" d="M240.572 233.613v9.887H219.04l-.142-1.343c-.01-.095-.023-.254-.036-.469-.082-1.34-.035-2.82.239-4.25.32-1.674.918-3.063 1.906-4.059 1.359-1.369 3.234-1.841 5.41-1.644 1.3.118 2.655.47 4.015.98.787.296 1.447.592 1.927.834l8.214.064zm-8.976 2.93l-.33-.18a11.002 11.002 0 0 0-.503-.252c-.421-.2-.889-.4-1.387-.588-1.127-.423-2.233-.71-3.23-.8-1.367-.124-2.376.13-3.01.77-.498.501-.872 1.368-1.09 2.508-.155.81-.22 1.671-.22 2.499h15.746v-3.91l-5.976-.047z"/>
        <path fill="#FFF" d="M235.585 74.135c-6.8 0-26.285.44-26.29-1-.004-1.443 7.111-22.509 7.111-22.509l-4.419-10.094S196.123 73.771 196.07 78.68c-.082 7.395 29.488 11.621 29.488 11.621l-.287 44.81 36.22.1.013-45.44s29.158-4.32 30.352-8.618c1.949-7.018-16.376-37-16.376-37l-3.994 7.957s7.177 20.776 6.634 22.025c-.702 1.617-24.323 0-26.509 0h-16.025z"/>
        <path fill="#6D6E71" fill-rule="nonzero" d="M210.222 72.058a.322.322 0 0 0-.012-.006l.012.006zm3.63.435c2.385.138 5.627.2 9.744.205 2.044.002 4.003-.008 6.955-.032 3.847-.03 3.992-.031 5.034-.031h16.025c.528 0 7.776.362 7.758.36 1.976.093 3.774.168 5.475.226 3.657.126 6.646.166 8.865.104 1.202-.034 2.152-.098 2.813-.19a40.31 40.31 0 0 0-.6-2.37c-.511-1.838-1.257-4.272-2.183-7.155l-.348-1.077a588.974 588.974 0 0 0-3.323-9.934l-.206-.597 5.49-10.935 1.408 2.304.189.312a287.914 287.914 0 0 1 2.41 4.078 288.468 288.468 0 0 1 5.709 10.301c.84 1.598 1.635 3.153 2.377 4.656 4.535 9.192 6.757 15.593 5.856 18.836-.944 2.783-6.474 4.723-16.28 6.883-3.349.738-6.932 1.424-10.514 2.041-1.254.216-2.418.408-3.463.573-.009.002-.027 15.223-.054 45.664l-39.229-.109.289-45.02a148.88 148.88 0 0 1-3.372-.584c-3.492-.644-6.985-1.406-10.253-2.281-10.045-2.692-15.903-5.736-15.855-10.058.025-2.315 2.599-9.001 7.158-19.36.303-.69.614-1.39.93-2.102a770.465 770.465 0 0 1 5.483-12.016 822.065 822.065 0 0 1 2.494-5.299l1.412-2.96 5.967 13.63-.186.55a702.387 702.387 0 0 0-1.11 3.308 1176.43 1176.43 0 0 0-2.44 7.386l-.19.584c-1.473 4.522-2.617 8.203-3.075 9.844.677.106 1.634.195 2.84.265zm60.095-17.81a591.895 591.895 0 0 1 2.647 8.01c2.504 7.793 3.38 10.938 2.901 12.039-.76 1.75-4.224 1.848-14.754 1.487a444.89 444.89 0 0 1-5.513-.226c-.18-.009-7.178-.358-7.618-.358h-16.025c-1.03 0-1.177 0-5.01.031-2.96.024-4.927.034-6.982.032-4.17-.005-7.46-.068-9.915-.21-1.454-.085-2.593-.197-3.417-.344-1.681-.301-2.462-.63-2.466-2.006-.002-.875 1.143-4.633 3.439-11.683l.19-.586a1179.341 1179.341 0 0 1 3.376-10.172l-2.865-6.544c-.341.727-.7 1.495-1.075 2.3a767.548 767.548 0 0 0-5.462 11.968c-.315.708-.623 1.405-.925 2.09-4.258 9.674-6.886 16.502-6.904 18.185-.024 2.157 5.185 4.863 13.632 7.127 3.183.853 6.601 1.598 10.02 2.23a145.876 145.876 0 0 0 4.23.716l.318.047 1.296.186-.286 44.613 33.21.092.014-45.23 1.28-.189.334-.05c.276-.043.596-.092.957-.15 1.032-.163 2.183-.353 3.423-.566 3.54-.61 7.08-1.288 10.378-2.014 3.981-.878 7.332-1.766 9.834-2.644 2.532-.888 4.066-1.77 4.204-2.125.595-2.195-1.545-8.354-5.66-16.693a198.416 198.416 0 0 0-2.341-4.587 285.521 285.521 0 0 0-5.65-10.193c-.408-.704-.799-1.372-1.168-1.998l-2.485 4.95c.31.907.564 1.654.838 2.465z"/>
        <path fill="#FFF" d="M252.227 73.701s.49 7.848-1.001 11.386c-1.32 3.134-5.029 4.986-7.192 4.986-2.332 0-5.575-1.115-7.275-4.623-1.657-3.42-.744-11.89-.744-11.89s5.065 1.104 7.701 1.104c2.637 0 8.511-.963 8.511-.963"/>
        <path fill="#6D6E71" fill-rule="nonzero" d="M249.16 75.669c-.567.076-1.116.145-1.642.206-1.585.185-2.876.289-3.802.289-.87 0-1.977-.103-3.283-.288a59.639 59.639 0 0 1-1.812-.286c-.422-.073-.84-.15-1.248-.227a45.705 45.705 0 0 0-.078 4.783c.088 2.088.365 3.723.814 4.65 1.217 2.511 3.537 3.777 5.925 3.777 1.952 0 4.865-1.827 5.81-4.068.405-.963.687-2.485.836-4.38.119-1.524.146-3.143.112-4.686-.534.079-1.082.156-1.633.23zm4.605-1.192c.07 1.895.057 3.942-.095 5.882-.171 2.189-.504 3.987-1.062 5.31-1.425 3.383-5.444 5.904-8.574 5.904-3.475 0-6.873-1.854-8.625-5.469-.673-1.39-1.007-3.365-1.111-5.832-.072-1.715-.026-3.537.095-5.312a51.8 51.8 0 0 1 .13-1.561l.18-1.66 1.632.355a76.383 76.383 0 0 0 2.798.54c.596.103 1.173.194 1.72.272 1.179.166 2.162.258 2.863.258.782 0 1.977-.097 3.455-.269.508-.059 1.04-.126 1.59-.2a127.118 127.118 0 0 0 3.223-.474l1.637-.268.103 1.654c.01.167.026.465.04.87z"/>
        <path fill="#FFF" d="M247.894 235.101l7.088-.055s6.82-3.727 9.913-.61c2.241 2.257 1.682 7.564 1.682 7.564h-18.683v-6.899z"/>
        <path fill="#6D6E71" fill-rule="nonzero" d="M249.394 240.5h15.747a13.567 13.567 0 0 0-.221-2.499c-.218-1.14-.592-2.007-1.09-2.509-.634-.639-1.643-.893-3.009-.77-.998.091-2.103.378-3.23.801a18.1 18.1 0 0 0-1.388.588 11 11 0 0 0-.502.251l-.33.18-5.977.048v3.91zm7.141-7.785c1.36-.51 2.715-.862 4.015-.98 2.176-.197 4.051.276 5.41 1.644.988.996 1.586 2.385 1.906 4.058.274 1.43.32 2.911.239 4.251-.013.215-.026.374-.036.47l-.142 1.342h-21.533v-9.887l8.215-.064c.48-.242 1.14-.538 1.926-.834z"/>
        <path fill="#8DE2D2" d="M237.97 240.9h-16.4s-.517-2.118.434-2.939c.953-.82 15.966 0 15.966 0v2.938zM248.996 240.9h16.4s.517-2.118-.435-2.939c-.952-.82-15.965 0-15.965 0v2.938z"/>
        <path fill="#FFF" d="M252.304 64.79v2.878a1.32 1.32 0 0 1-1.296 1.328l-13.918.16a1.32 1.32 0 0 1-1.326-1.33V64.79c0-3.06 3.7-5.542 8.27-5.542 4.567 0 8.27 2.481 8.27 5.542"/>
        <path fill="#6D6E71" fill-rule="nonzero" d="M250.804 64.79c0-2.076-2.934-4.042-6.77-4.042-3.837 0-6.77 1.965-6.77 4.042v2.864l13.54-.156V64.79zm3 0v2.878a2.82 2.82 0 0 1-2.778 2.828l-13.918.16c-1.57.019-2.844-1.258-2.844-2.83V64.79c0-4.046 4.47-7.042 9.77-7.042 5.298 0 9.77 2.996 9.77 7.042z"/>
        <path fill="#A2EDDE" d="M247.894 66.6v.958c0 .243-.27.44-.605.444l-6.496.053c-.34.002-.618-.197-.618-.443V66.6c0-1.02 1.726-1.848 3.859-1.848 2.131 0 3.86.828 3.86 1.848"/>
        <path fill="#FFF" d="M277.665 45.486c0 3.952-3.209 7.156-7.167 7.156-3.958 0-7.167-3.204-7.167-7.156 0-3.952 3.209-7.156 7.167-7.156 3.958 0 7.167 3.204 7.167 7.156"/>
        <path fill="#6D6E71" fill-rule="nonzero" d="M276.165 45.486a5.662 5.662 0 0 0-5.667-5.656 5.662 5.662 0 0 0-5.667 5.656 5.662 5.662 0 0 0 5.667 5.656 5.662 5.662 0 0 0 5.667-5.656zm3 0c0 4.781-3.88 8.656-8.667 8.656-4.786 0-8.667-3.875-8.667-8.656 0-4.78 3.881-8.656 8.667-8.656s8.667 3.875 8.667 8.656z"/>
        <path fill="#FFF" d="M223.635 45.486c0 3.952-3.208 7.156-7.167 7.156-3.958 0-7.168-3.204-7.168-7.156 0-3.952 3.21-7.156 7.168-7.156 3.959 0 7.167 3.204 7.167 7.156"/>
        <path fill="#6D6E71" fill-rule="nonzero" d="M222.135 45.486a5.662 5.662 0 0 0-5.667-5.656 5.662 5.662 0 0 0-5.668 5.656 5.662 5.662 0 0 0 5.668 5.656 5.662 5.662 0 0 0 5.667-5.656zm3 0c0 4.781-3.88 8.656-8.667 8.656-4.786 0-8.668-3.875-8.668-8.656 0-4.78 3.882-8.656 8.668-8.656s8.667 3.875 8.667 8.656z"/>
    </g>
</svg>
