<svg xmlns="http://www.w3.org/2000/svg" width="623" height="225" viewBox="0 0 623 225">
    <g fill="none" fill-rule="evenodd" opacity=".2">
        <path fill="#FFF" d="M134 99.96V223H14V96.327L38.56 72h69.828z"/>
        <path stroke="#6D6E71" stroke-width="3" d="M134 99.96V223H14V96.327L38.56 72h69.828z"/>
        <path fill="#FFF" d="M147.727 110.394L148 147l-10.748-10.77-62.866-64.256-61.778 60.63L2.003 143.23 2 106.894 12.608 96.27l24.247-24.296L74.025 36l.361.364.358-.364z"/>
        <path stroke="#6D6E71" stroke-width="3" d="M147.265 110.31l.273 36.544-10.75-10.751-62.883-64.147-61.794 60.526L1.503 143.09 1.5 106.816 12.111 96.21l24.253-24.254 37.18-35.913.361.363.358-.363z"/>
        <path fill="#FFF" d="M113.454 198.065V222.5H34.831v-24.435c0-27.18 17.69-49.418 39.311-49.418 21.622 0 39.312 22.238 39.312 49.418"/>
        <path stroke="#6D6E71" stroke-width="3" d="M113.454 198.065V222.5H34.831v-24.435c0-27.18 17.69-49.418 39.311-49.418 21.622 0 39.312 22.238 39.312 49.418z"/>
        <g>
            <path fill="#FFF" d="M511.17 147.557a80.553 80.553 0 0 0 13.643 2.276l-3.56 16.05-10.083-18.326zm25.92 16.969l.457-14.665a80.435 80.435 0 0 0 11.363-1.684l-11.82 16.349zm10.316 57.915h-2.192s-6.445-22.919-6.445-38.358c0-17.589 32.58-44.259 33.449-45.091.004-.005.009-.005.018-.014 23.815-14.024 24.49-39.929 24.49-69.567 0-44.558-20.82-67.912-65.383-67.912-44.557 0-58.598 23.354-58.598 67.912 0 31.372-4.177 58.562 21.969 71.906 6.543 9.262 26.86 29.643 26.86 47.789 0 19.759-9.83 33.347-9.83 33.347l-1.904-.024 37.566.012z"/>
            <path stroke="#6D6E71" stroke-width="3" d="M511.17 147.557a80.553 80.553 0 0 0 13.643 2.276l-3.56 16.05-10.083-18.326zm25.92 16.969l.457-14.665a80.435 80.435 0 0 0 11.363-1.684l-11.82 16.349zm10.316 57.915h-2.192s-6.445-22.919-6.445-38.358c0-17.589 32.58-44.259 33.449-45.091.004-.005.009-.005.018-.014 23.815-14.024 24.49-39.929 24.49-69.567 0-44.558-20.82-67.912-65.383-67.912-44.557 0-58.598 23.354-58.598 67.912 0 31.372-4.177 58.562 21.969 71.906 6.543 9.262 26.86 29.643 26.86 47.789 0 19.759-9.83 33.347-9.83 33.347l-1.904-.024 37.566.012z"/>
            <path fill="#A2EDDE" d="M591.74 77.398c0 43.347-12.637 54.335-20.397 54.335-7.761 0-1.894-31.04-1.894-54.335s-5.867-56.927 1.894-56.927c7.76 0 20.398 13.58 20.398 56.927"/>
            <g>
                <path fill="#FFF" d="M599.292 222.512h-1.633s3.524-10.55 4.52-13.446c1.282-3.72 8.855-7.473 8.855-7.473h1.632s-7.906 4.96-8.853 8.103c-.931 3.087-4.521 12.816-4.521 12.816"/>
                <path stroke="#6D6E71" stroke-width="3" d="M599.292 222.512h-1.633s3.524-10.55 4.52-13.446c1.282-3.72 8.855-7.473 8.855-7.473h1.632s-7.906 4.96-8.853 8.103c-.931 3.087-4.521 12.816-4.521 12.816z"/>
                <path fill="#FFF" d="M620.027 200.046a4.034 4.034 0 1 1-7.716-2.357 4.034 4.034 0 0 1 7.716 2.357"/>
                <path stroke="#6D6E71" stroke-width="3" d="M620.027 200.046a4.034 4.034 0 1 1-7.716-2.357 4.034 4.034 0 0 1 7.716 2.357z"/>
                <path fill="#FFF" d="M621.113 205.022a4.035 4.035 0 1 1-7.717-2.358 4.035 4.035 0 0 1 7.717 2.358"/>
                <path stroke="#6D6E71" stroke-width="3" d="M621.113 205.022a4.035 4.035 0 1 1-7.717-2.358 4.035 4.035 0 0 1 7.717 2.358z"/>
                <path fill="#FFF" d="M617.749 208.212a4.035 4.035 0 1 1-7.718-2.357 4.035 4.035 0 0 1 7.718 2.356"/>
                <path stroke="#6D6E71" stroke-width="3" d="M617.749 208.212a4.035 4.035 0 1 1-7.718-2.357 4.035 4.035 0 0 1 7.718 2.356z"/>
                <path fill="#FFF" d="M612.22 206.524a4.034 4.034 0 1 1-7.716-2.356 4.034 4.034 0 0 1 7.716 2.356"/>
                <path stroke="#6D6E71" stroke-width="3" d="M612.22 206.524a4.034 4.034 0 1 1-7.716-2.356 4.034 4.034 0 0 1 7.716 2.356z"/>
                <path fill="#FFF" d="M610.774 201.865a4.035 4.035 0 1 1-7.718-2.357 4.035 4.035 0 0 1 7.718 2.357"/>
                <path stroke="#6D6E71" stroke-width="3" d="M610.774 201.865a4.035 4.035 0 1 1-7.718-2.357 4.035 4.035 0 0 1 7.718 2.357z"/>
                <path fill="#FFF" d="M614.24 198.279a4.035 4.035 0 0 1-7.716-2.356 4.034 4.034 0 0 1 7.716 2.356"/>
                <path stroke="#6D6E71" stroke-width="3" d="M614.24 198.279a4.035 4.035 0 0 1-7.716-2.356 4.034 4.034 0 0 1 7.716 2.356z"/>
                <path fill="#FFF" d="M614.742 203.544a3.025 3.025 0 1 1-5.788-1.764 3.025 3.025 0 0 1 5.788 1.765"/>
                <path stroke="#6D6E71" stroke-width="3" d="M614.742 203.544a3.025 3.025 0 1 1-5.788-1.764 3.025 3.025 0 0 1 5.788 1.765z"/>
                <path fill="#8DE2D2" d="M608.355 203.738s-1.172.445-1.94.3c-1.104-.208-2.807-1.408-2.505-2.397.302-.99 4.288.978 4.288.978s-.022.182.021.57c.034.32.136.549.136.549M615.256 201.103s1.087-.624 1.868-.603c1.123.032 2.994.947 2.852 1.971-.141 1.025-4.388-.287-4.388-.287s-.007-.184-.111-.56c-.084-.31-.221-.52-.221-.52M615.173 204.085s1.154.49 1.608 1.126c.652.915.838 2.88-.064 3.384-.902.506-2.206-3.592-2.206-3.592s.142-.116.38-.427c.196-.254.282-.49.282-.49M611.65 206.334s-.897 1.412-1.533 1.865c-.915.654-2.879.839-3.384-.063-.505-.903 3.449-2.234 3.449-2.234s.411.253.795.336c.423.092.673.096.673.096M613.024 199.272s.818-1.195.644-2.352c-.167-1.111-.78-2.596-1.783-2.348-.55.135.025 1.517.192 2.693a4.04 4.04 0 0 1-.163 1.789s.183-.012.57.052c.316.052.54.166.54.166M617.058 199.28s-.597-.038-1.309.209c-.712.246-1.285.764-1.285.764l-.468-.396s.645-.87.775-1.51c.113-.554.137-.847.137-.847s.251-.631 1.466.424c1.215 1.053.684 1.356.684 1.356"/>
                <path fill="#FFF" d="M608.363 186.403a4.902 4.902 0 1 1-9.805 0 4.902 4.902 0 0 1 9.805 0"/>
                <path stroke="#6D6E71" stroke-width="3" d="M608.363 186.403a4.902 4.902 0 1 1-9.805 0 4.902 4.902 0 0 1 9.805 0z"/>
                <path fill="#FFF" d="M597.532 222.512h-1.633v-17.22c0-3.063 3.52-12.048 3.52-12.048h1.632s-3.519 9.395-3.519 12.677v16.591z"/>
                <path stroke="#6D6E71" stroke-width="3" d="M597.532 222.512h-1.633v-17.22c0-3.063 3.52-12.048 3.52-12.048h1.632s-3.519 9.395-3.519 12.677v16.591z"/>
                <path fill="#FFF" d="M611.391 191.801a4.902 4.902 0 1 1-9.806 0 4.902 4.902 0 0 1 9.806 0"/>
                <path stroke="#6D6E71" stroke-width="3" d="M611.391 191.801a4.902 4.902 0 1 1-9.806 0 4.902 4.902 0 0 1 9.806 0z"/>
                <path fill="#FFF" d="M608.612 196.704a4.902 4.902 0 1 1-9.806 0 4.902 4.902 0 0 1 9.806 0"/>
                <path stroke="#6D6E71" stroke-width="3" d="M608.612 196.704a4.902 4.902 0 1 1-9.806 0 4.902 4.902 0 0 1 9.806 0z"/>
                <path fill="#FFF" d="M601.587 196.704a4.902 4.902 0 1 1-9.806 0 4.902 4.902 0 0 1 9.806 0"/>
                <path stroke="#6D6E71" stroke-width="3" d="M601.587 196.704a4.902 4.902 0 1 1-9.806 0 4.902 4.902 0 0 1 9.806 0z"/>
                <path fill="#FFF" d="M598.252 191.801a4.902 4.902 0 1 1-9.806 0 4.902 4.902 0 0 1 9.806 0"/>
                <path stroke="#6D6E71" stroke-width="3" d="M598.252 191.801a4.902 4.902 0 1 1-9.806 0 4.902 4.902 0 0 1 9.806 0z"/>
                <path fill="#FFF" d="M601.008 186.403a4.902 4.902 0 1 1-9.805 0 4.902 4.902 0 0 1 9.805 0"/>
                <path stroke="#6D6E71" stroke-width="3" d="M601.008 186.403a4.902 4.902 0 1 1-9.805 0 4.902 4.902 0 0 1 9.805 0z"/>
                <path fill="#FFF" d="M603.46 192.346a3.677 3.677 0 1 1-7.354 0 3.677 3.677 0 0 1 7.355 0"/>
                <path stroke="#6D6E71" stroke-width="3" d="M603.46 192.346a3.677 3.677 0 1 1-7.354 0 3.677 3.677 0 0 1 7.355 0z"/>
                <path fill="#8DE2D2" d="M596.106 194.838s-1.205.933-2.148 1.036c-1.358.15-3.763-.64-3.763-1.897 0-1.256 5.33-.385 5.33-.385s.04.219.228.657c.153.358.353.589.353.589M603.192 189.326s1.042-1.112 1.957-1.364c1.317-.363 3.817.038 4.015 1.278.2 1.24-5.202 1.225-5.202 1.225s-.074-.211-.328-.615c-.208-.328-.442-.524-.442-.524M604.154 192.822s1.515.16 2.268.738c1.084.83 1.997 3.048 1.127 3.955-.87.908-3.84-3.392-3.84-3.392s.125-.186.293-.632c.136-.364.152-.67.152-.67M600.857 196.685s-.542 1.96-1.12 2.712c-.832 1.084-3.05 1.997-3.956 1.127-.907-.87 3.216-3.82 3.216-3.82s.568.147 1.043.108c.525-.043.817-.127.817-.127M599.947 187.988s.527-1.68-.086-2.961c-.589-1.232-1.827-2.742-2.906-2.098-.59.353.568 1.756 1.18 3.063.506 1.084.445 2.138.445 2.138s.208-.08.681-.143a2.47 2.47 0 0 1 .686 0M604.64 186.566s-.708.168-1.448.707c-.74.54-1.222 1.345-1.222 1.345l-.685-.294s.44-1.24.366-2.029c-.066-.686-.142-1.035-.142-1.035s.068-.822 1.855-.028c1.786.794 1.276 1.334 1.276 1.334"/>
                <path fill="#FFF" d="M595.499 222.512h1.633s-3.524-10.55-4.521-13.446c-1.281-3.72-8.854-7.473-8.854-7.473h-1.632s7.906 4.96 8.853 8.103c.932 3.087 4.52 12.816 4.52 12.816"/>
                <path stroke="#6D6E71" stroke-width="3" d="M595.499 222.512h1.633s-3.524-10.55-4.521-13.446c-1.281-3.72-8.854-7.473-8.854-7.473h-1.632s7.906 4.96 8.853 8.103c.932 3.087 4.52 12.816 4.52 12.816z"/>
                <path fill="#FFF" d="M574.763 200.046a4.034 4.034 0 1 0 7.716-2.356 4.034 4.034 0 0 0-7.716 2.356"/>
                <path stroke="#6D6E71" stroke-width="3" d="M574.763 200.046a4.034 4.034 0 1 0 7.716-2.356 4.034 4.034 0 0 0-7.716 2.356z"/>
                <path fill="#FFF" d="M573.677 205.022a4.035 4.035 0 1 0 7.717-2.358 4.035 4.035 0 0 0-7.717 2.358"/>
                <path stroke="#6D6E71" stroke-width="3" d="M573.677 205.022a4.035 4.035 0 1 0 7.717-2.358 4.035 4.035 0 0 0-7.717 2.358z"/>
                <path fill="#FFF" d="M577.042 208.212a4.035 4.035 0 1 0 7.717-2.357 4.035 4.035 0 0 0-7.717 2.356"/>
                <path stroke="#6D6E71" stroke-width="3" d="M577.042 208.212a4.035 4.035 0 1 0 7.717-2.357 4.035 4.035 0 0 0-7.717 2.356z"/>
                <path fill="#FFF" d="M582.57 206.524a4.034 4.034 0 1 0 7.716-2.356 4.034 4.034 0 0 0-7.716 2.356"/>
                <path stroke="#6D6E71" stroke-width="3" d="M582.57 206.524a4.034 4.034 0 1 0 7.716-2.356 4.034 4.034 0 0 0-7.716 2.356z"/>
                <path fill="#FFF" d="M584.016 201.865a4.035 4.035 0 1 0 7.718-2.357 4.035 4.035 0 0 0-7.718 2.357"/>
                <path stroke="#6D6E71" stroke-width="3" d="M584.016 201.865a4.035 4.035 0 1 0 7.718-2.357 4.035 4.035 0 0 0-7.718 2.357z"/>
                <path fill="#FFF" d="M580.55 198.279a4.035 4.035 0 1 0 7.718-2.358 4.035 4.035 0 0 0-7.717 2.358"/>
                <path stroke="#6D6E71" stroke-width="3" d="M580.55 198.279a4.035 4.035 0 1 0 7.718-2.358 4.035 4.035 0 0 0-7.717 2.358z"/>
                <path fill="#FFF" d="M580.049 203.544a3.025 3.025 0 1 0 5.787-1.764 3.025 3.025 0 0 0-5.787 1.765"/>
                <path stroke="#6D6E71" stroke-width="3" d="M580.049 203.544a3.025 3.025 0 1 0 5.787-1.764 3.025 3.025 0 0 0-5.787 1.765z"/>
                <path fill="#8DE2D2" d="M586.435 203.738s1.172.445 1.94.3c1.104-.208 2.807-1.408 2.505-2.397-.302-.99-4.288.978-4.288.978s.022.182-.021.57a2.004 2.004 0 0 1-.136.549M579.534 201.103s-1.087-.624-1.868-.603c-1.123.032-2.994.947-2.852 1.971.141 1.025 4.388-.287 4.388-.287s.007-.184.111-.56c.084-.31.221-.52.221-.52M579.617 204.085s-1.154.49-1.608 1.126c-.652.915-.838 2.88.064 3.384.902.506 2.206-3.592 2.206-3.592s-.142-.116-.38-.427c-.196-.254-.282-.49-.282-.49M583.14 206.334s.897 1.412 1.533 1.865c.915.654 2.88.839 3.384-.063.505-.903-3.449-2.234-3.449-2.234s-.41.253-.795.336a3.809 3.809 0 0 1-.673.096M581.766 199.272s-.818-1.195-.644-2.352c.167-1.111.78-2.596 1.783-2.348.55.135-.025 1.517-.192 2.693a4.04 4.04 0 0 0 .163 1.789s-.183-.012-.57.052c-.316.052-.54.166-.54.166M577.732 199.28s.597-.038 1.31.209c.711.246 1.284.764 1.284.764l.468-.396s-.645-.87-.775-1.51c-.113-.554-.137-.847-.137-.847s-.25-.631-1.466.424c-1.215 1.053-.684 1.356-.684 1.356"/>
                <path fill="#FFF" d="M585.981 219.56c0 1.091.226 2.116.624 3.012h19.308a5.547 5.547 0 0 0 .317-1.865c0-2.044-1.076-3.782-2.572-4.403-.667-1.512-1.972-2.539-3.47-2.539-.744 0-1.439.252-2.03.69a3.828 3.828 0 0 0-.753-.074c-.929 0-1.795.333-2.523.907-.937-1.246-2.279-2.027-3.77-2.027-2.834 0-5.13 2.82-5.13 6.3"/>
                <path stroke="#6D6E71" stroke-width="3" d="M585.981 219.56c0 1.091.226 2.116.624 3.012h19.308a5.547 5.547 0 0 0 .317-1.865c0-2.044-1.076-3.782-2.572-4.403-.667-1.512-1.972-2.539-3.47-2.539-.744 0-1.439.252-2.03.69a3.828 3.828 0 0 0-.753-.074c-.929 0-1.795.333-2.523.907-.937-1.246-2.279-2.027-3.77-2.027-2.834 0-5.13 2.82-5.13 6.3z"/>
            </g>
            <g>
                <path fill="#FFF" d="M515.213 205.046c0 6.504-1.347 12.62-3.72 17.954H396.388c-1.216-3.403-1.889-7.16-1.889-11.112 0-12.191 6.415-22.547 15.332-26.247 3.98-9.015 11.754-15.136 20.691-15.136 4.428 0 8.572 1.497 12.104 4.109a22.727 22.727 0 0 1 4.481-.438c5.537 0 10.703 1.986 15.045 5.404 5.585-7.427 13.586-12.08 22.474-12.08 16.893 0 30.586 16.81 30.586 37.546"/>
                <path stroke="#6D6E71" stroke-width="3" d="M515.213 205.046c0 6.504-1.347 12.62-3.72 17.954H396.388c-1.216-3.403-1.889-7.16-1.889-11.112 0-12.191 6.415-22.547 15.332-26.247 3.98-9.015 11.754-15.136 20.691-15.136 4.428 0 8.572 1.497 12.104 4.109a22.727 22.727 0 0 1 4.481-.438c5.537 0 10.703 1.986 15.045 5.404 5.585-7.427 13.586-12.08 22.474-12.08 16.893 0 30.586 16.81 30.586 37.546z"/>
            </g>
        </g>
    </g>
</svg>
