<svg xmlns="http://www.w3.org/2000/svg" xmlns:xlink="http://www.w3.org/1999/xlink" width="376" height="259" viewBox="0 0 376 259">
    <defs>
        <path id="a" d="M0 .821h211.368v17.846H0z"/>
        <path id="c" d="M0 159.752h211.368V0H0z"/>
    </defs>
    <g fill="none" fill-rule="evenodd" opacity=".2">
        <path fill="#FFF" d="M2.407 141.1h324.49V2.406H2.407z"/>
        <path stroke="#6D6E71" stroke-width="3" d="M2.407 141.1h324.49V2.406H2.407z"/>
        <path fill="#8DE2D2" d="M269.743 57.722c0 1.668.321 3.263.905 4.724h42.878a10.406 10.406 0 0 0 2.725-7.034c0-5.772-4.683-10.451-10.459-10.451-1.014 0-1.996.146-2.925.415a13.911 13.911 0 0 0-9.7-3.917c-3.585 0-6.855 1.35-9.327 3.57a13.195 13.195 0 0 0-1.326-.068c-7.052 0-12.77 5.715-12.77 12.761M123.299 28.083c0 1.668.32 3.262.905 4.724h42.877a10.408 10.408 0 0 0 2.725-7.034c0-5.772-4.683-10.451-10.459-10.451-1.014 0-1.996.145-2.925.416a13.912 13.912 0 0 0-9.699-3.918c-3.586 0-6.856 1.35-9.328 3.57a13.195 13.195 0 0 0-1.326-.068c-7.052 0-12.77 5.714-12.77 12.76M4.026 139.685v-22.146H93.43V87.63h127.347v51.91z"/>
        <path fill="#8DE2D2" d="M324.657 139.778v-17.076h-28.998v-14.737h-75.264v31.701zM5.891 58.831v26.76h56.797a16.658 16.658 0 0 0 4.369-11.273c0-9.253-7.502-16.75-16.762-16.75-1.625 0-3.197.23-4.688.664a22.301 22.301 0 0 0-15.544-6.28 22.319 22.319 0 0 0-14.953 5.722 21.547 21.547 0 0 0-2.128-.106c-2.491 0-4.881.447-7.091 1.263"/>
        <g transform="translate(164 99)">
            <g transform="translate(0 141.085)">
                <mask id="b" fill="#fff">
                    <use xlink:href="#a"/>
                </mask>
                <path fill="#8DE2D2" d="M211.368 9.744c0 4.928-47.317 8.923-105.684 8.923C47.316 18.667 0 14.672 0 9.744 0 4.817 47.316.82 105.684.82c58.367 0 105.684 3.996 105.684 8.923" mask="url(#b)"/>
            </g>
            <mask id="d" fill="#fff">
                <use xlink:href="#c"/>
            </mask>
            <path fill="#FFF" d="M94.39 42.616h110.014v-7.26H94.391z" mask="url(#d)"/>
            <path stroke="#6D6E71" stroke-width="3" d="M94.39 42.616h110.014v-7.26H94.391z" mask="url(#d)"/>
            <path fill="#FFF" d="M148.547 122.614h37.185c7.15 0 12.946-8.06 12.946-18.004V42.357h-63.077v62.253c0 9.944 5.796 18.004 12.946 18.004" mask="url(#d)"/>
            <path stroke="#6D6E71" stroke-width="3" d="M148.547 122.614h37.185c7.15 0 12.946-8.06 12.946-18.004V42.357h-63.077v62.253c0 9.944 5.796 18.004 12.946 18.004z" mask="url(#d)"/>
            <path fill="#FFF" d="M94.39 122.356h41.067v-79.74H94.391z" mask="url(#d)"/>
            <path stroke="#6D6E71" stroke-width="3" d="M94.39 122.356h41.067v-79.74H94.391z" mask="url(#d)"/>
            <path fill="#FFF" d="M19.438 132.842h116.163v-11.775H19.438z" mask="url(#d)"/>
            <path stroke="#6D6E71" stroke-width="3" d="M19.438 132.842h116.163v-11.775H19.438z" mask="url(#d)"/>
            <path fill="#FFF" d="M117.134 138.194c0 7.64 6.18 13.832 13.803 13.832 7.624 0 13.804-6.193 13.804-13.832 0-7.639-6.18-13.833-13.804-13.833-7.623 0-13.803 6.194-13.803 13.833" mask="url(#d)"/>
            <path stroke="#6D6E71" stroke-width="3" d="M117.134 138.194c0 7.64 6.18 13.832 13.803 13.832 7.624 0 13.804-6.193 13.804-13.832 0-7.639-6.18-13.833-13.804-13.833-7.623 0-13.803 6.194-13.803 13.833z" mask="url(#d)"/>
            <path fill="#FFF" d="M18.767 143c0 4.985 4.033 9.026 9.007 9.026 4.976 0 9.008-4.041 9.008-9.026 0-4.986-4.032-9.027-9.008-9.027-4.974 0-9.007 4.041-9.007 9.027" mask="url(#d)"/>
            <path stroke="#6D6E71" stroke-width="3" d="M18.767 143c0 4.985 4.033 9.026 9.007 9.026 4.976 0 9.008-4.041 9.008-9.026 0-4.986-4.032-9.027-9.008-9.027-4.974 0-9.007 4.041-9.007 9.027z" mask="url(#d)"/>
            <path fill="#FFF" d="M37.576 85.42l6.187 35.647h40.73l6.35-35.648v-7.233h-19.59v7.233z" mask="url(#d)"/>
            <path stroke="#6D6E71" stroke-width="3" d="M37.576 85.42l6.187 35.647h40.73l6.35-35.648v-7.233h-19.59v7.233zM67.303 85.42l20.35 17.904" mask="url(#d)"/>
            <path fill="#FFF" d="M42.887 85.42h6.81L30.677 1.575l-6.809 1.44z" mask="url(#d)"/>
            <path stroke="#6D6E71" stroke-width="3" d="M42.887 85.42h6.81L30.677 1.575l-6.809 1.44z" mask="url(#d)"/>
            <path fill="#FFF" d="M36.782 58.942h6.703l-4.967-21.958h-6.702z" mask="url(#d)"/>
            <path stroke="#6D6E71" stroke-width="3" d="M36.782 58.942h6.703l-4.967-21.958h-6.702z" mask="url(#d)"/>
            <path fill="#FFF" d="M164.594 61.104h5.091V43.137h-5.091z" mask="url(#d)"/>
            <path stroke="#6D6E71" stroke-width="3" d="M164.594 61.104h5.091V43.137h-5.091z" mask="url(#d)"/>
            <path fill="#FFF" d="M156.182 74.747h21.915l-4.206-17.967h-13.503z" mask="url(#d)"/>
            <path stroke="#6D6E71" stroke-width="3" d="M156.182 74.747h21.915l-4.206-17.967h-13.503z" mask="url(#d)"/>
            <path fill="#8DE2D2" d="M161.55 63.184h11.179l-.609-3.52h-9.961zM166.752 46.595c0 .78.186 1.414.415 1.414.23 0 .415-.634.415-1.414 0-.781-.186-1.414-.415-1.414-.23 0-.415.633-.415 1.414M139.357 80.394c0 20.376 2.734 36.896 10.528 36.896 19.8 0 .292-15.678.292-36.055s2.358-36.054-5.436-36.054c-7.795 0-5.384 14.836-5.384 35.213" mask="url(#d)"/>
            <path fill="#FFF" d="M94.39 78.187h41.21v-35.83H94.39z" mask="url(#d)"/>
            <path stroke="#6D6E71" stroke-width="3" d="M94.39 78.187h41.21v-35.83H94.39z" mask="url(#d)"/>
            <path fill="#FFF" d="M94.39 117.97h41.21V82.143H94.39z" mask="url(#d)"/>
            <path stroke="#6D6E71" stroke-width="3" d="M94.39 117.97h41.21V82.143H94.39z" mask="url(#d)"/>
            <path fill="#FFF" d="M113.927 105.357v12.613h15.176v-12.613c0-6.966-3.397-12.613-7.589-12.613-4.19 0-7.587 5.647-7.587 12.613" mask="url(#d)"/>
            <path stroke="#6D6E71" stroke-width="3" d="M113.927 105.357v12.613h15.176v-12.613c0-6.966-3.397-12.613-7.589-12.613-4.19 0-7.587 5.647-7.587 12.613z" mask="url(#d)"/>
            <path fill="#FFF" d="M117.224 90.593c0 1.583 2.113 2.867 4.72 2.867 2.607 0 4.72-1.284 4.72-2.867s-2.113-2.867-4.72-2.867c-2.607 0-4.72 1.284-4.72 2.867" mask="url(#d)"/>
            <path stroke="#6D6E71" stroke-width="3" d="M117.224 90.593c0 1.583 2.113 2.867 4.72 2.867 2.607 0 4.72-1.284 4.72-2.867s-2.113-2.867-4.72-2.867c-2.607 0-4.72 1.284-4.72 2.867z" mask="url(#d)"/>
            <path fill="#FFF" d="M118.547 77.779c0 .7 3.24 1.267 7.237 1.267s7.236-.568 7.236-1.267l.045-9.148c0-.7-3.24-1.267-7.237-1.267-3.876 0-7.04.535-7.228 1.204l-.053 9.21z" mask="url(#d)"/>
            <path stroke="#6D6E71" stroke-width="3" d="M118.547 77.779c0 .7 3.24 1.267 7.237 1.267s7.236-.568 7.236-1.267l.045-9.148c0-.7-3.24-1.267-7.237-1.267-3.876 0-7.04.535-7.228 1.204l-.053 9.21z" mask="url(#d)"/>
            <path fill="#A2EDDE" d="M123.05 68.527c0 .22 1.234.397 2.756.397 1.522 0 2.756-.177 2.756-.397 0-.22-1.234-.396-2.756-.396-1.522 0-2.756.177-2.756.396" mask="url(#d)"/>
            <path fill="#FFF" d="M107.737 77.779c0 .7 3.24 1.267 7.237 1.267s7.236-.568 7.236-1.267l.045-9.148c0-.7-3.24-1.267-7.237-1.267-3.876 0-7.04.535-7.228 1.204l-.053 9.21z" mask="url(#d)"/>
            <path stroke="#6D6E71" stroke-width="3" d="M107.737 77.779c0 .7 3.24 1.267 7.237 1.267s7.236-.568 7.236-1.267l.045-9.148c0-.7-3.24-1.267-7.237-1.267-3.876 0-7.04.535-7.228 1.204l-.053 9.21z" mask="url(#d)"/>
            <path fill="#A2EDDE" d="M112.24 68.527c0 .22 1.234.397 2.756.397 1.522 0 2.756-.177 2.756-.397 0-.22-1.234-.396-2.756-.396-1.522 0-2.756.177-2.756.396" mask="url(#d)"/>
            <path fill="#FFF" d="M113.963 67.758c0 .7 3.24 1.268 7.237 1.268s7.236-.568 7.236-1.268l.044-9.147c0-.7-3.239-1.268-7.236-1.268-3.876 0-7.04.535-7.228 1.204l-.053 9.211z" mask="url(#d)"/>
            <path stroke="#6D6E71" stroke-width="3" d="M113.963 67.758c0 .7 3.24 1.268 7.237 1.268s7.236-.568 7.236-1.268l.044-9.147c0-.7-3.239-1.268-7.236-1.268-3.876 0-7.04.535-7.228 1.204l-.053 9.211z" mask="url(#d)"/>
            <path fill="#A2EDDE" d="M118.466 58.506c0 .22 1.234.397 2.756.397 1.522 0 2.756-.177 2.756-.397 0-.22-1.234-.396-2.756-.396-1.522 0-2.756.177-2.756.396" mask="url(#d)"/>
            <path fill="#FFF" d="M121.945 34.466c1.367 1.302 11.342 1.067 12.406 0 .566-.565-1.454-4.376-2.379-8.236-.817-3.415-.523-6.963-.523-6.963h-6.638s.042 3.699-.833 7.25c-.914 3.707-2.731 7.285-2.033 7.95" mask="url(#d)"/>
            <path stroke="#6D6E71" stroke-width="3" d="M121.945 34.466c1.367 1.302 11.342 1.067 12.406 0 .566-.565-1.454-4.376-2.379-8.236-.817-3.415-.523-6.963-.523-6.963h-6.638s.042 3.699-.833 7.25c-.914 3.707-2.731 7.285-2.033 7.95z" mask="url(#d)"/>
            <path fill="#FFF" d="M121.694 19.268h10.66V14.5h-10.66z" mask="url(#d)"/>
            <path stroke="#6D6E71" stroke-width="3" d="M121.694 19.268h10.66V14.5h-10.66z" mask="url(#d)"/>
            <path fill="#FFF" d="M119.28 16.884h2.664V14.5h-2.664z" mask="url(#d)"/>
            <path stroke="#6D6E71" stroke-width="3" d="M119.28 16.884h2.664V14.5h-2.664z" mask="url(#d)"/>
            <path fill="#FFF" d="M120.724 23.734c.904 0 4.647-4.466 4.647-4.466h-3.674s-.02.717-.02 1.394c0 .678-1.857 3.072-.953 3.072" mask="url(#d)"/>
            <path stroke="#6D6E71" stroke-width="3" d="M120.724 23.734c.904 0 4.647-4.466 4.647-4.466h-3.674s-.02.717-.02 1.394c0 .678-1.857 3.072-.953 3.072z" mask="url(#d)"/>
            <path fill="#8DE2D2" d="M128.119 32.906h1.855V22.168h-1.855z" mask="url(#d)"/>
        </g>
    </g>
</svg>
