<svg xmlns="http://www.w3.org/2000/svg" width="303" height="260" viewBox="0 0 303 260">
    <g fill="none" fill-rule="evenodd" opacity=".2">
        <path fill="#FFF" d="M-80 258H55v-80H-80z"/>
        <path stroke="#6D6E71" stroke-width="2" d="M-80 258H55v-80H-80z"/>
        <path fill="#FFF" d="M-61 121h344V1H-61z"/>
        <path stroke="#6D6E71" stroke-width="2" d="M-61.279 121.58h343.997V1.375H-61.279z"/>
        <path fill="#8DE2D2" d="M212.114 58.224c0 1.445-.195 2.827-.55 4.094h-26.03c-1.027-1.61-1.654-3.749-1.654-6.096 0-5.003 2.842-9.058 6.349-9.058.616 0 1.211.126 1.776.359 1.524-2.103 3.6-3.395 5.888-3.395 2.177 0 4.163 1.17 5.664 3.094a5.73 5.73 0 0 1 .804-.058c4.281 0 7.753 4.952 7.753 11.06M281.734 119.419v-19.194H236.84V83.661h-57v35.633z"/>
        <path fill="#8DE2D2" d="M125.642 119.419v-22.78h11.862V76.978h56.999v42.293zM280.602 15.97v23.192h-34.48c-1.65-2.577-2.653-6.01-2.653-9.77 0-8.019 4.555-14.516 10.175-14.516.987 0 1.942.2 2.847.575 2.442-3.37 5.77-5.442 9.436-5.442 3.49 0 6.673 1.878 9.079 4.958.423-.06.853-.091 1.29-.091 1.513 0 2.964.387 4.306 1.094M-25.2 119.674h73.166v-12.847H-25.2z"/>
        <path fill="#8DE2D2" d="M-53.316 119.674H8.918v-18.273h-62.234z"/>
        <path fill="#FFF" d="M-38.197 201.605H37.09v-14.658h-75.287z"/>
        <path stroke="#6D6E71" stroke-width="2" d="M-38.197 201.605H37.09v-14.658h-75.287z"/>
        <path fill="#FFF" d="M-38.197 222.682H37.09v-14.658h-75.287z"/>
        <path stroke="#6D6E71" stroke-width="2" d="M-38.197 222.682H37.09v-14.658h-75.287z"/>
        <path fill="#FFF" d="M-38.197 251.508H37.09v-22.406h-75.287z"/>
        <path stroke="#6D6E71" stroke-width="2" d="M-38.197 251.508H37.09v-22.406h-75.287z"/>
        <path fill="#FFF" d="M-62.409 201.605h99.5v-14.658h-99.5z"/>
        <path stroke="#6D6E71" stroke-width="2" d="M-62.409 201.605h99.5v-14.658h-99.5z"/>
        <path fill="#FFF" d="M-62.409 222.683h99.5v-14.658h-99.5z"/>
        <path stroke="#6D6E71" stroke-width="2" d="M-62.409 222.683h99.5v-14.658h-99.5z"/>
        <path fill="#FFF" d="M-62.409 251.508h99.5v-22.406h-99.5z"/>
        <path stroke="#6D6E71" stroke-width="2" d="M-62.409 251.508h99.5v-22.406h-99.5z"/>
        <path fill="#FFF" d="M132.275 260v-12.054h14.531V260"/>
        <path stroke="#6D6E71" stroke-width="2" d="M132.275 260v-12.054h14.531V260"/>
        <path fill="#FFF" d="M267.374 259.66v-12.055h14.53v12.054"/>
        <path stroke="#6D6E71" stroke-width="2" d="M267.374 259.66v-12.055h14.53v12.054"/>
        <path fill="#FFF" d="M258.048 222.519H155.114c-17.052 0-31.002-13.957-31.002-31.015v-8.682c0-17.058 13.95-31.015 31.002-31.015h102.934c17.05 0 31 13.957 31 31.015v8.682c0 17.058-13.95 31.015-31 31.015"/>
        <path stroke="#6D6E71" stroke-width="2" d="M258.048 222.519H155.114c-17.052 0-31.002-13.957-31.002-31.015v-8.682c0-17.058 13.95-31.015 31.002-31.015h102.934c17.05 0 31 13.957 31 31.015v8.682c0 17.058-13.95 31.015-31 31.015z"/>
        <path fill="#FFF" d="M277.236 240.264h-141.14c-6.497 0-11.812-5.32-11.812-11.819v-3.308c0-6.5 5.315-11.819 11.813-11.819h141.14c6.497 0 11.812 5.32 11.812 11.819v3.308c0 6.5-5.315 11.819-11.813 11.819"/>
        <path stroke="#6D6E71" stroke-width="2" d="M277.236 240.264h-141.14c-6.497 0-11.812-5.32-11.812-11.819v-3.308c0-6.5 5.315-11.819 11.813-11.819h141.14c6.497 0 11.812 5.32 11.812 11.819v3.308c0 6.5-5.315 11.819-11.813 11.819z"/>
        <path fill="#FFF" d="M279.657 233.529h-145.98c-5.166 0-9.394-4.228-9.394-9.396v-2.631c0-5.167 4.228-9.396 9.394-9.396h145.98c5.166 0 9.392 4.229 9.392 9.396v2.63c0 5.169-4.226 9.397-9.392 9.397"/>
        <path stroke="#6D6E71" stroke-width="2" d="M279.657 233.529h-145.98c-5.166 0-9.394-4.228-9.394-9.396v-2.631c0-5.167 4.228-9.396 9.394-9.396h145.98c5.166 0 9.392 4.229 9.392 9.396v2.63c0 5.169-4.226 9.397-9.392 9.397z"/>
        <path fill="#A2EDDE" d="M285.464 248.442H127.869a3.597 3.597 0 0 1-3.586-3.587v-1.005a3.597 3.597 0 0 1 3.586-3.587h157.595a3.596 3.596 0 0 1 3.585 3.587v1.005a3.596 3.596 0 0 1-3.585 3.587"/>
        <path stroke="#6D6E71" stroke-width="2" d="M285.464 248.442H127.869a3.597 3.597 0 0 1-3.586-3.587v-1.005a3.597 3.597 0 0 1 3.586-3.587h157.595a3.596 3.596 0 0 1 3.585 3.587v1.005a3.596 3.596 0 0 1-3.585 3.587z"/>
        <path fill="#FFF" d="M129.267 248.627h-3.453c-6.783 0-12.333-5.552-12.333-12.338V206.39c0-6.788 5.55-12.34 12.333-12.34h3.453c6.783 0 12.333 5.552 12.333 12.34v29.898c0 6.786-5.55 12.338-12.333 12.338"/>
        <path stroke="#6D6E71" stroke-width="2" d="M129.267 248.627h-3.453c-6.783 0-12.333-5.552-12.333-12.338V206.39c0-6.788 5.55-12.34 12.333-12.34h3.453c6.783 0 12.333 5.552 12.333 12.34v29.898c0 6.786-5.55 12.338-12.333 12.338z"/>
        <path fill="#FFF" d="M286.001 248.469h3.453c6.784 0 12.333-5.552 12.333-12.339v-29.898c0-6.787-5.55-12.338-12.333-12.338h-3.453c-6.783 0-12.333 5.55-12.333 12.338v29.898c0 6.787 5.55 12.339 12.333 12.339"/>
        <path stroke="#6D6E71" stroke-width="2" d="M286.001 248.469h3.453c6.784 0 12.333-5.552 12.333-12.339v-29.898c0-6.787-5.55-12.338-12.333-12.338h-3.453c-6.783 0-12.333 5.55-12.333 12.338v29.898c0 6.787 5.55 12.339 12.333 12.339z"/>
        <path fill="#A2EDDE" d="M159.25 170.78a4.528 4.528 0 1 1-9.053 0 4.528 4.528 0 1 1 9.054 0M159.25 198.764a4.528 4.528 0 1 1-9.053 0 4.528 4.528 0 1 1 9.054 0M197.687 198.764a4.528 4.528 0 1 1-9.054 0 4.528 4.528 0 1 1 9.054 0M197.687 170.78a4.528 4.528 0 1 1-9.054 0 4.528 4.528 0 1 1 9.054 0M232.39 170.78a4.528 4.528 0 1 1-9.054 0 4.528 4.528 0 1 1 9.054 0M232.39 198.764a4.528 4.528 0 1 1-9.054 0 4.528 4.528 0 1 1 9.054 0M264.88 198.764a4.528 4.528 0 1 1-9.054 0 4.528 4.528 0 1 1 9.054 0M264.88 170.78a4.528 4.528 0 1 1-9.054 0 4.528 4.528 0 1 1 9.054 0M268.802 258.266h2.702v-8.422h-2.702zM142.439 258.266h2.702v-8.422h-2.702z"/>
    </g>
</svg>
