<svg xmlns="http://www.w3.org/2000/svg" width="129" height="30" viewBox="0 0 129 30">
    <g fill="none" fill-rule="evenodd">
        <g fill="#FFF">
            <path d="M101.747 7.093c.132 0 .219-.012.263-.036-.044.024-.131.036-.263.036m-.262.033c.131 0 .218-.012.262-.036-.044.024-.131.036-.262.036m-1.74 10.08c.174.044.339.072.492.083.153.01.317.027.492.05h.362a.224.224 0 0 0 .098-.017.227.227 0 0 1 .099-.017c.131 0 .257-.005.377-.016s.235-.028.345-.05c.11 0 .23-.022.361-.066.087 0 .142-.01.164-.033.088 0 .197-.022.329-.066l.328-.1c.11-.043.224-.082.345-.115.12-.033.235-.071.345-.116a.142.142 0 0 0 .065-.016.146.146 0 0 1 .066-.017.296.296 0 0 1 .164-.083.57.57 0 0 0 .164-.05c.175-.087.34-.175.493-.264.021 0 .038-.005.05-.016.01-.011.026-.017.048-.017.022 0 .033-.01.033-.033a1.693 1.693 0 0 1-.23.1 27.22 27.22 0 0 1-.197.066l-.853.264a5.44 5.44 0 0 1-.756.198l-.36.1-1.15.165a6.972 6.972 0 0 1-.427.05 4.216 4.216 0 0 1-.361.016c-.11.022-.213.033-.312.033h-.509c-.044 0-.066-.01-.066-.033m4.4-10.182c-.416.64-1.018 1.68-1.806 3.124-.788 1.444-1.674 3.29-2.66 5.537.044 0 .083.006.116.017a.35.35 0 0 0 .115.016h.46c.086 0 .169-.005.245-.016a1.75 1.75 0 0 1 .247-.017c.11-.021.23-.038.361-.05.131-.01.263-.038.394-.082l.525-.132.526-.132.788-.298a11.218 11.218 0 0 0 1.543-.793l.46-.33.46-.365.426-.363.394-.43c.088-.11.175-.215.263-.314.087-.1.175-.203.263-.314.021-.044.043-.083.065-.116.022-.033.044-.071.066-.115a1.52 1.52 0 0 0 .213-.364c.055-.132.115-.253.181-.364l.197-.529.131-.529v-.099a1.03 1.03 0 0 0 0-.363 1.903 1.903 0 0 0-.328-.893.839.839 0 0 0-.18-.28l-.28-.282a129.83 129.83 0 0 1-.262-.198 3.496 3.496 0 0 0-.296-.199 4.207 4.207 0 0 0-.558-.264l-.493-.198-.525-.133a.45.45 0 0 1-.197-.033c-.066 0-.131-.005-.197-.016a2.829 2.829 0 0 1-.23-.05h-.213a.66.66 0 0 1-.214-.033m-5.976 18.81c-.197.066-.416.1-.656.1-.22 0-.466-.045-.74-.133-.273-.088-.563-.264-.87-.529.132.265.307.463.526.595.175.132.405.215.69.248.284.033.634-.06 1.05-.281m-7.322-13.917c0-.154.005-.298.016-.43s.028-.275.05-.43a.375.375 0 0 0 .033-.165 9.38 9.38 0 0 1 .46-1.52l-.066.065c-.307.331-.493.661-.559.992-.065.33-.087.617-.065.86v.198c.021.044.032.1.032.165 0 .089.022.155.066.199.022.022.033.044.033.066m-.295-1.984c.152-.374.355-.721.607-1.041.251-.32.53-.622.837-.91a2.467 2.467 0 0 1 .394-.33c.24-.198.498-.38.772-.545.273-.166.552-.325.837-.48A10.71 10.71 0 0 1 95.344 6c.46-.176.909-.33 1.347-.462.372-.11.716-.21 1.034-.298.317-.088.618-.165.903-.231.087 0 .153-.011.197-.033l.69-.133c.24-.044.486-.077.738-.099.252-.022.52-.044.805-.066.415-.066.886-.1 1.412-.1a18.64 18.64 0 0 1 3.12.133c.13.022.262.039.393.05.131.011.263.038.394.082.525.11 1.007.243 1.445.397.11.044.224.088.345.132.12.045.235.089.344.132l.329.166.295.198c.284.177.558.386.821.628.35.33.624.684.821 1.058l.164.33a2.825 2.825 0 0 0 .132.331l.098.364v.066c0 .022.005.039.016.05.011.01.017.038.017.082 0 .022.005.039.016.05.011.011.017.028.017.05v.132c0 .044.005.071.016.082.01.012.017.039.017.083v.165c.021.11.032.232.032.364v.43c0 .088-.005.17-.016.247-.011.078-.016.16-.016.248a.86.86 0 0 0-.033.265l-.066.264c-.022.11-.038.21-.05.298a1.244 1.244 0 0 1-.081.297l-.066.265c-.11.353-.241.661-.394.925a8.675 8.675 0 0 1-.936 1.356c-.383.463-.87.904-1.461 1.322-.35.243-.8.507-1.346.794l-.526.231-.558.231c-.394.155-.8.287-1.215.397-.24.088-.46.144-.656.165a3.996 3.996 0 0 1-.723.166l-.262.066-.493.066-.624.099a4.679 4.679 0 0 1-.788.066.364.364 0 0 0-.115.017.353.353 0 0 1-.115.016h-.328c-.088 0-.176.006-.263.017a2.048 2.048 0 0 1-.262.016h-.197a4.03 4.03 0 0 1-.378-.016 4.198 4.198 0 0 0-.378-.017c-.044 0-.071-.005-.082-.016-.011-.011-.038-.017-.082-.017l-.328.926c-.066.198-.16.512-.28.942-.12.43-.23.904-.328 1.421a9.496 9.496 0 0 0-.164 1.587c-.011.54.06 1.02.214 1.438 0 .066.01.127.032.182.022.055.044.104.066.149.153.308.323.512.51.611.185.1.355.16.508.182a.907.907 0 0 0 .525-.099.569.569 0 0 1-.115.446c-.098.121-.202.237-.312.347-.13.11-.284.21-.46.298-.634.286-1.193.39-1.674.314-.482-.078-.876-.204-1.182-.38-.372-.199-.7-.574-.985-1.124-.285-.551-.361-1.4-.23-2.546 0-.132.011-.231.033-.297v-.033l.197-1.025a37.62 37.62 0 0 1 .51-2.066c.185-.672.377-1.328.574-1.967l-.263-.1a5.879 5.879 0 0 1-.476-.264 3.616 3.616 0 0 1-.378-.264 4.134 4.134 0 0 1-.771-.71 5.124 5.124 0 0 1-.378-.513c-.022 0-.033-.011-.033-.033-.022-.022-.033-.044-.033-.066v-.033c.022-.044.132-.21.329-.496.197-.287.437-.551.722-.794l.197-.132a.437.437 0 0 1 .148-.1.435.435 0 0 0 .148-.098l.065-.033v.033c0 .022.066.105.197.248.132.143.317.314.558.512l.362.298.492.264c.635-1.675 1.297-3.168 1.987-4.48a70.608 70.608 0 0 1 1.724-3.123l-.591.132a4.2 4.2 0 0 0-.559.165l-.36.1c-.308.11-.598.226-.87.346-.275.122-.543.238-.805.348-.833.396-1.571.837-2.217 1.322-.646.485-1.21.959-1.69 1.421-.483.463-.877.899-1.183 1.306-.307.408-.525.722-.657.942a1.151 1.151 0 0 1-.36-.198 1.697 1.697 0 0 1-.33-.265c-.109-.11-.218-.253-.327-.43l-.066-.065a1.885 1.885 0 0 1-.214-.678 3.654 3.654 0 0 1 .017-.91c0-.065.01-.12.033-.164 0-.044.01-.1.032-.166l.066-.198c.044-.176.087-.308.132-.397M115.687 23.303c0 .223.055.412.167.568.11.134.271.246.483.334.21.09.517.112.917.067a1.056 1.056 0 0 1-.567-.1 1.376 1.376 0 0 1-.533-.284 1.921 1.921 0 0 1-.467-.585zm-.2-5.016a5.1 5.1 0 0 0 .167-.652c.044-.235.071-.463.083-.686a1.784 1.784 0 0 0-.05-.568.513.513 0 0 0-.267-.335c-.245-.111-.511-.111-.8 0-.289.112-.589.318-.9.619-.311.3-.616.697-.917 1.187-.3.49-.561 1.048-.783 1.672a6.452 6.452 0 0 0-.3 1.27c-.045.313-.028.614.05.903.078.29.272.458.584.502.2.045.416.033.65-.033.233-.067.477-.218.733-.452.255-.234.517-.568.783-1.003.267-.435.522-1.008.767-1.722v-.034c0-.044.01-.077.033-.1l.167-.568zm-5.467-.134c.267-.535.555-.992.867-1.371.31-.379.617-.702.917-.97.3-.268.555-.468.766-.602.211-.134.35-.211.417-.234-.556.156-1.017.407-1.384.752a6.568 6.568 0 0 0-.916 1.054c-.267.424-.49.88-.667 1.37zm-.567 4.648c.022.246.1.468.234.669.11.178.288.34.533.485.244.145.589.24 1.034.284-.023 0-.106-.034-.25-.1a3.3 3.3 0 0 1-.484-.285 7.612 7.612 0 0 1-.567-.434 2.104 2.104 0 0 1-.5-.619zm12.867-5.518c.311.157.439.44.384.853-.056.413-.228.875-.517 1.388-.133.245-.372.68-.717 1.304a13.241 13.241 0 0 1-1.266 1.873 8.08 8.08 0 0 1-1.717 1.605c-.645.446-1.345.613-2.1.501a2.083 2.083 0 0 1-.667-.267 2.315 2.315 0 0 1-.55-.518c-.189-.235-.328-.54-.416-.92a4.202 4.202 0 0 1-1.3 1.32c-.556.369-1.256.52-2.1.452-.556-.045-1.012-.161-1.367-.35a2.541 2.541 0 0 1-.85-.703 2.606 2.606 0 0 1-.45-.953 5.983 5.983 0 0 1-.167-1.07c-.044-.847.1-1.783.433-2.81.334-1.024.728-1.866 1.184-2.524.455-.657.944-1.181 1.466-1.572a4.677 4.677 0 0 1 1.617-.802 6.34 6.34 0 0 1 1.6-.218c.578 0 1.017.073 1.317.218.3.145.528.307.683.485l.267-.602c.31-.112.655-.19 1.033-.234.311-.045.672-.039 1.084.016.41.056.838.184 1.283.385a79.84 79.84 0 0 0-1.433 3.41c-.178.447-.34.882-.484 1.305-.144.424-.261.808-.35 1.154-.089.346-.139.64-.15.886-.011.245.028.401.117.468.022.067.078.1.167.1a.532.532 0 0 0 .233-.067c.089-.044.2-.144.333-.3.134-.156.289-.368.467-.636.178-.267.361-.557.55-.87.189-.311.383-.623.583-.936l.534-.836c.088-.178.2-.311.333-.4.111-.09.244-.157.4-.201.155-.045.333-.022.533.066z"/>
            <path d="M125.463 7.861a12.46 12.46 0 0 0-.325.56 5.681 5.681 0 0 0-.309.578c-.097.21-.2.412-.309.61.022-.066.098-.186.228-.362s.281-.374.455-.594a3.78 3.78 0 0 1 .585-.594c.216-.176.433-.297.65-.363-.152.022-.293.045-.423.066a3.242 3.242 0 0 1-.325.05.729.729 0 0 0-.227.05m-4.29 15.006c0 .22.054.407.163.56.108.133.26.243.455.33.195.089.498.111.91.067a1.019 1.019 0 0 1-.553-.1 1.337 1.337 0 0 1-.52-.28 1.89 1.89 0 0 1-.455-.577m6.435-5.937c.324.154.46.435.406.841-.055.408-.223.864-.504 1.37-.109.197-.282.522-.52.972-.238.451-.531.93-.877 1.435-.347.506-.748.995-1.203 1.468-.455.473-.942.83-1.462 1.071-.26.11-.52.193-.78.248-.26.054-.542.06-.845.016a2.674 2.674 0 0 1-.682-.296 2.062 2.062 0 0 1-.52-.512c-.173-.23-.293-.555-.358-.973a4.066 4.066 0 0 1-.08-1.006 6.18 6.18 0 0 1 .21-1.335 23.82 23.82 0 0 1 .764-2.952c.206-.649.482-1.413.829-2.293.151-.395.33-.857.536-1.385.206-.528.362-.912.471-1.154.303-.747.585-1.43.845-2.045s.498-1.143.715-1.583c.238-.528.466-.99.682-1.386l.325-.164c.108-.044.265-.083.472-.116.205-.033.46-.05.763-.05a2.7 2.7 0 0 1 .78.1c.216.066.4.132.553.198.173.088.313.176.422.263-.239.418-.477.902-.715 1.452-.217.461-.471 1.011-.764 1.649-.292.638-.59 1.341-.893 2.11-.217.55-.471 1.188-.764 1.913a157.97 157.97 0 0 0-.796 2.012c-.304.77-.574 1.523-.813 2.26-.238.737-.346 1.28-.324 1.632.043.154.086.243.13.264.02.066.075.1.162.1.065 0 .14-.023.228-.067.086-.044.194-.143.324-.297.13-.153.282-.363.455-.626.174-.264.352-.55.536-.858.184-.308.374-.615.57-.923l.52-.825a.991.991 0 0 1 .324-.396c.108-.087.238-.153.39-.198a.655.655 0 0 1 .488.066M46.898 12.583c0 1.628-.556 2.881-1.669 3.758-1.112.877-2.704 1.316-4.775 1.316H38.56v6.328h-1.873V7.894h4.175c4.024 0 6.036 1.563 6.036 4.689zM38.56 16.05h1.685c1.66 0 2.86-.268 3.602-.804s1.112-1.394 1.112-2.575c0-1.064-.348-1.857-1.046-2.378-.698-.52-1.785-.781-3.26-.781H38.56v6.538zm21.255 1.893c0 1.966-.496 3.502-1.487 4.606-.991 1.104-2.36 1.657-4.109 1.657-1.08 0-2.037-.254-2.875-.76-.837-.506-1.483-1.233-1.938-2.18-.456-.946-.683-2.054-.683-3.323 0-1.967.492-3.499 1.476-4.596s2.35-1.645 4.097-1.645c1.69 0 3.031.561 4.026 1.684.995 1.123 1.493 2.642 1.493 4.557zm-9.198 0c0 1.54.309 2.715.926 3.522.617.807 1.523 1.21 2.72 1.21 1.197 0 2.106-.401 2.727-1.205.62-.803.93-1.979.93-3.527 0-1.534-.31-2.699-.93-3.495-.62-.796-1.537-1.194-2.749-1.194-1.197 0-2.1.392-2.71 1.178-.609.785-.914 1.955-.914 3.51zm13.633 6.042h-1.828V6.86h1.828v17.126zm5.108 0h-1.829V11.922h1.829v12.063zM67.375 8.653c0-.418.103-.724.308-.919.206-.194.463-.292.771-.292.294 0 .548.1.76.298.213.198.32.502.32.913 0 .411-.107.717-.32.92a1.067 1.067 0 0 1-.76.302c-.308 0-.565-.101-.77-.303-.206-.202-.309-.508-.309-.919zm10.086 15.553c-1.748 0-3.1-.538-4.059-1.613-.958-1.075-1.437-2.596-1.437-4.562 0-2.018.486-3.577 1.46-4.678.972-1.1 2.358-1.651 4.157-1.651.58 0 1.16.062 1.74.187.58.125 1.036.272 1.367.44l-.562 1.552a8.602 8.602 0 0 0-1.322-.401c-.477-.107-.9-.16-1.267-.16-2.452 0-3.679 1.563-3.679 4.689 0 1.482.3 2.62.898 3.412.598.792 1.485 1.189 2.66 1.189 1.006 0 2.038-.217 3.095-.65v1.618c-.808.418-1.825.628-3.05.628zm3.4-12.284h1.96l2.644 6.88c.58 1.57.94 2.703 1.08 3.4h.088c.095-.374.296-1.014.6-1.92.305-.907 1.302-3.693 2.99-8.36h1.962l-5.189 13.736c-.514 1.358-1.114 2.321-1.8 2.89-.687.568-1.53.853-2.528.853a7.361 7.361 0 0 1-1.653-.187V27.75c.404.088.856.132 1.355.132 1.256 0 2.152-.705 2.688-2.114l.672-1.717-4.869-12.129z"/>
        </g>
        <path fill="#FFF" d="M21.048 21.716c-.281-2.205-1.215-4.619-2.73-6.952a23.67 23.67 0 0 0-3.087-3.787 23.591 23.591 0 0 0-2.751-2.365c-1.49-1.095-3.032-1.949-4.548-2.544-.159-.06-.32-.12-.477-.175A2.158 2.158 0 0 1 6.43 4.766a2.166 2.166 0 0 1-.133-1.134 2.17 2.17 0 0 1 .891-1.462c.108-.066.216-.132.325-.193 5.747-3.283 13.164-2.475 18.05 2.408a14.969 14.969 0 0 1 3.08 4.46 14.994 14.994 0 0 1 .796 10.012 14.905 14.905 0 0 1-3.883 6.719 14.957 14.957 0 0 1-10.74 4.39c1.77-.102 3.317-.705 4.46-1.847 1.547-1.546 2.101-3.832 1.773-6.403z"/>
        <path fill="#E5E5E5" d="M6.437 4.776c1.24-.423 2.662-.758 4.213-.977a30.956 30.956 0 0 1 4.382-.303c5.767-.004 10.696 1.496 12.697 3.617.352.564.66 1.147.926 1.745.02.121.028.24.028.363 0 1.485-1.344 2.836-3.552 3.853-1.786.828-4.139 1.433-6.803 1.71a23.689 23.689 0 0 0-3.087-3.792 23.602 23.602 0 0 0-2.752-2.366C10.999 7.53 9.457 6.676 7.94 6.08a17.365 17.365 0 0 0-.492-.182 2.16 2.16 0 0 1-1.011-1.122z"/>
        <path fill="#BFBFBF" d="M4.387 25.618a14.927 14.927 0 0 1-4.332-11.86 2.19 2.19 0 0 1 3.353-1.52c2.434 1.651 6.74 2.737 11.648 2.735a31.9 31.9 0 0 0 3.3-.17c1.516 2.332 2.45 4.744 2.732 6.95.328 2.57-.226 4.855-1.773 6.4-1.152 1.15-2.711 1.751-4.495 1.847a14.936 14.936 0 0 1-10.433-4.382z"/>
    </g>
</svg>
