<svg xmlns="http://www.w3.org/2000/svg" xmlns:xlink="http://www.w3.org/1999/xlink" width="557" height="254" viewBox="0 0 557 254">
    <defs>
        <path id="a" d="M0 253h772V0H0z"/>
    </defs>
    <g fill="none" fill-rule="evenodd" opacity=".2" transform="translate(1)">
        <path fill="#FFF" d="M660.804 251.784c3.953-7.956 6.196-17.078 6.196-26.78C667 194.074 644.2 169 616.071 169c-14.8 0-28.121 6.94-37.422 18.019-7.23-5.1-15.832-8.062-25.051-8.062-2.537 0-5.033.218-7.46.655-5.882-3.897-12.782-6.13-20.155-6.13-14.881 0-27.827 9.13-34.454 22.576C476.682 201.578 466 217.025 466 235.21c0 5.896 3.762 16.791 3.762 16.791l191.042-.216z"/>
        <path stroke="#6D6E71" stroke-width="3" d="M660.804 251.784c3.953-7.956 6.196-17.078 6.196-26.78C667 194.074 644.2 169 616.071 169c-14.8 0-28.121 6.94-37.422 18.019-7.23-5.1-15.832-8.062-25.051-8.062-2.537 0-5.033.218-7.46.655-5.882-3.897-12.782-6.13-20.155-6.13-14.881 0-27.827 9.13-34.454 22.576C476.682 201.578 466 217.025 466 235.21c0 5.896 3.762 16.791 3.762 16.791l191.042-.216z"/>
        <path fill="#A2EDDE" d="M574 191.506c0 10.661-12.294 17.974-47.915 18.926-35.62.952-52.012 37.568-52.012 37.568s-6.477-19.068 3.467-33.941c4.08-6.103 10.66-8.188 17.969-14.93 8.754-8.076 6.95-18.062 24.903-20.647 15.445-2.223 15.51 3.882 24.587 5.4 7.384 1.236 9.435-.886 15.447-.635 6.302.263 13.554 4.848 13.554 8.259"/>
        <path fill="#FFF" d="M195.804 251.784c3.953-7.956 6.196-17.078 6.196-26.78C202 194.074 179.2 169 151.071 169c-14.8 0-28.121 6.94-37.422 18.019-7.23-5.1-15.832-8.062-25.05-8.062-2.538 0-5.034.218-7.462.655-5.881-3.897-12.781-6.13-20.154-6.13-14.881 0-27.827 9.13-34.454 22.576C11.682 201.578 1 217.025 1 235.21 1 241.105 4.762 252 4.762 252l191.042-.216z"/>
        <path stroke="#6D6E71" stroke-width="3" d="M195.804 251.784c3.953-7.956 6.196-17.078 6.196-26.78C202 194.074 179.2 169 151.071 169c-14.8 0-28.121 6.94-37.422 18.019-7.23-5.1-15.832-8.062-25.05-8.062-2.538 0-5.034.218-7.462.655-5.881-3.897-12.781-6.13-20.154-6.13-14.881 0-27.827 9.13-34.454 22.576C11.682 201.578 1 217.025 1 235.21 1 241.105 4.762 252 4.762 252l191.042-.216z"/>
        <path fill="#FFF" d="M146 228.062c0 8.671 1.786 16.826 4.932 23.938h152.564c1.611-4.538 2.504-9.546 2.504-14.817 0-16.254-8.503-30.062-20.322-34.996-5.274-12.02-15.58-20.18-27.426-20.18-5.868 0-11.361 1.996-16.043 5.479a30.005 30.005 0 0 0-5.94-.586c-7.337 0-14.186 2.65-19.94 7.207C208.926 184.205 198.32 178 186.54 178 164.15 178 146 200.413 146 228.062"/>
        <path stroke="#6D6E71" stroke-width="3" d="M146 228.062c0 8.671 1.786 16.826 4.932 23.938h152.564c1.611-4.538 2.504-9.546 2.504-14.817 0-16.254-8.503-30.062-20.322-34.996-5.274-12.02-15.58-20.18-27.426-20.18-5.868 0-11.361 1.996-16.043 5.479a30.005 30.005 0 0 0-5.94-.586c-7.337 0-14.186 2.65-19.94 7.207C208.926 184.205 198.32 178 186.54 178 164.15 178 146 200.413 146 228.062z"/>
        <path fill="#A2EDDE" d="M213 206.28s-20.062-1.843-29.03-1.423C175.005 205.277 155 209 155 209s7.532-17.483 23.666-21.458C196.264 183.208 213 206.28 213 206.28M110 191.506c0 10.661-12.294 17.974-47.915 18.926C26.465 211.384 10.073 248 10.073 248s-6.477-19.068 3.467-33.941c4.08-6.103 10.66-8.188 17.969-14.93 8.754-8.076 6.95-18.062 24.903-20.647 15.445-2.223 15.51 3.882 24.587 5.4 7.384 1.236 9.435-.886 15.446-.635 6.303.263 13.555 4.848 13.555 8.259"/>
        <path fill="#FFF" d="M321.62 244l8.351-2.442-17.221-41.343L332 168h-12.75S300 198.347 300 201.514C300 204.68 321.62 244 321.62 244"/>
        <path stroke="#6D6E71" stroke-width="3" d="M321.62 244l8.351-2.442-17.221-41.343L332 168h-12.75S300 198.347 300 201.514C300 204.68 321.62 244 321.62 244z"/>
        <path fill="#FFF" d="M329.018 239l-9.217 3.374s-6.37-2.855-9.236 1.623c-1.822 2.845 1.344 8.003 1.344 8.003l7.892-.03L332 245.554 329.018 239z"/>
        <path stroke="#6D6E71" stroke-width="3" d="M329.018 239l-9.217 3.374s-6.37-2.855-9.236 1.623c-1.822 2.845 1.344 8.003 1.344 8.003l7.892-.03L332 245.554 329.018 239z"/>
        <path fill="#8DE2D2" d="M330 243.343l-11.075 5.58-6.491.077s-.92-1.842-.08-2.808c.33-.379 2.94.294 6.006-.318 4.75-.948 10.3-4.874 10.3-4.874l1.34 2.343z"/>
        <path fill="#FFF" d="M300.945 131.121c-1.334.56-13.515 3.022-18.674 1.244-1.155.27-2.402.2-3.581-.27-3.023-1.207-4.482-4.602-3.255-7.574 1.226-2.972 4.679-4.406 7.702-3.2a5.865 5.865 0 0 1 3.226 3.133c4.11 1.515 8.477-.609 9.68-1.103 1.73-.719 7.182-10.412 7.227-10.52.843-2.151 3.246-3.318 5.526-2.637 2.272.678 3.608 2.969 3.094 5.214-.026.115-9.344 15.054-10.945 15.713"/>
        <path stroke="#6D6E71" stroke-width="3" d="M300.945 131.121c-1.334.56-13.515 3.022-18.674 1.244-1.155.27-2.402.2-3.581-.27-3.023-1.207-4.482-4.602-3.255-7.574 1.226-2.972 4.679-4.406 7.702-3.2a5.865 5.865 0 0 1 3.226 3.133c4.11 1.515 8.477-.609 9.68-1.103 1.73-.719 7.182-10.412 7.227-10.52.843-2.151 3.246-3.318 5.526-2.637 2.272.678 3.608 2.969 3.094 5.214-.026.115-9.344 15.054-10.945 15.713z"/>
        <path fill="#FFF" d="M236.869 197L234 195.342 241.132 182l2.868.962z"/>
        <path stroke="#6D6E71" stroke-width="3" d="M236.869 197L234 195.342 241.132 182l2.868.962z"/>
        <path fill="#FFF" d="M382 223.5c0 15.74-12.76 28.5-28.5 28.5S325 239.24 325 223.5s12.76-28.5 28.5-28.5 28.5 12.76 28.5 28.5"/>
        <path stroke="#6D6E71" stroke-width="3" d="M382 223.5c0 15.74-12.76 28.5-28.5 28.5S325 239.24 325 223.5s12.76-28.5 28.5-28.5 28.5 12.76 28.5 28.5z"/>
        <path fill="#8DE2D2" d="M350.423 218.423c-2.276 2.276-26.028-2.133-14.081-14.08 11.948-11.95 16.357 11.804 14.081 14.08M356.943 218.907c-2.99-1.28-7.412-24.406 8.288-17.684 15.7 6.721-5.297 18.964-8.288 17.684M348.779 224.495c1.77 2.678-7.373 24.945-16.662 10.886-9.29-14.06 14.892-13.564 16.662-10.886M355.5 228c3.305 0 17.351 19 0 19s-3.305-19 0-19M359.027 224.077c.75-3.202 22.437-11.836 18.494 4.978-3.942 16.813-19.245-1.776-18.494-4.978"/>
        <mask id="b" fill="#fff">
            <use xlink:href="#a"/>
        </mask>
        <path fill="#FFF" d="M374 162h8v-15h-8z" mask="url(#b)"/>
        <path stroke="#6D6E71" stroke-width="3" d="M374 162h8v-15h-8z" mask="url(#b)"/>
        <path fill="#FFF" d="M338 203.144L332.33 213 320 205.856l5.67-9.856z" mask="url(#b)"/>
        <path stroke="#6D6E71" stroke-width="3" d="M338 203.144L332.33 213 320 205.856l5.67-9.856z" mask="url(#b)"/>
        <path fill="#FFF" d="M317.228 214.349c0 7.632 40.067 0 40.067 0V231l-62.173-1.533-10.435-.259c-6.798-.168-12.581-5.02-13.953-11.71-1.451-7.076-3.193-15.16-3.936-17.025-.905-2.276-11.053-11.101-17.961-16.652-6.908-5.55-21.837-5.835-21.837-9.442 0-3.004 1.313-12.503 8.02-19.004 9.41-9.116 25.14-8.36 25.14-8.36l12.165 6.973s10.513 15.077 14.507 18.733c6.907 6.327 12.435 3.469 12.435 3.469L387 156.07l-4.835 15.263-50.43 25.67s-14.507 9.714-14.507 17.346" mask="url(#b)"/>
        <path stroke="#6D6E71" stroke-width="3" d="M317.228 214.349c0 7.632 40.067 0 40.067 0V231l-62.173-1.533-10.435-.259c-6.798-.168-12.581-5.02-13.953-11.71-1.451-7.076-3.193-15.16-3.936-17.025-.905-2.276-11.053-11.101-17.961-16.652-6.908-5.55-21.837-5.835-21.837-9.442 0-3.004 1.313-12.503 8.02-19.004 9.41-9.116 25.14-8.36 25.14-8.36l12.165 6.973s10.513 15.077 14.507 18.733c6.907 6.327 12.435 3.469 12.435 3.469L387 156.07l-4.835 15.263-50.43 25.67s-14.507 9.714-14.507 17.346z" mask="url(#b)"/>
        <path fill="#8DE2D2" d="M367.675 171.244L298.618 179s-4.614-5.695 1.742-10.207c4.356-3.092 31.62-8.077 51.253-11.864 9.018-1.74 16.646-5.859 19.313-4.739 8.47 3.555-3.251 19.054-3.251 19.054" mask="url(#b)"/>
        <path fill="#FFF" d="M251.212 230.127c-3.66 15.305-19.034 24.745-34.34 21.085-15.304-3.66-24.744-19.035-21.084-34.34 3.66-15.305 19.035-24.744 34.34-21.084 15.304 3.66 24.744 19.034 21.084 34.34" mask="url(#b)"/>
        <path stroke="#6D6E71" stroke-width="3" d="M251.212 230.127c-3.66 15.305-19.034 24.745-34.34 21.085-15.304-3.66-24.744-19.035-21.084-34.34 3.66-15.305 19.035-24.744 34.34-21.084 15.304 3.66 24.744 19.034 21.084 34.34z" mask="url(#b)"/>
        <path fill="#8DE2D2" d="M220.277 217.81c-2.747 1.676-24.853-8.085-10.434-16.879 14.419-8.795 13.18 15.205 10.434 16.88M226.102 219.679c-2.644-2-1.292-26.58 12.585-16.08 13.878 10.5-9.941 18.08-12.585 16.08M216.942 222.8c1.054 3.097-12.532 23.177-18.068 6.92-5.537-16.258 17.013-10.016 18.068-6.92" mask="url(#b)"/>
        <path fill="#8DE2D2" d="M221.772 228.024c3.212.717 12.11 22.297-4.753 18.536-16.863-3.762 1.54-19.252 4.753-18.536M227.13 224.333c1.462-2.888 25.01-5.84 17.337 9.32-7.675 15.16-18.798-6.433-17.336-9.32" mask="url(#b)"/>
        <path fill="#FFF" d="M251.092 225s.409-11.846-4.071-13.514c-4.48-1.67-5.782-.737-11.73-4.168-6.814-3.927-7.87-7.627-12.373-11.025-4.503-3.4-13.647 1.533-13.918 1.685.235-.365 7.854-11.919 13.48-11.977 10.478-.11 35.358 13.527 34.498 22.978-.907 9.963-5.886 16.021-5.886 16.021" mask="url(#b)"/>
        <path stroke="#6D6E71" stroke-width="3" d="M251.092 225s.409-11.846-4.071-13.514c-4.48-1.67-5.782-.737-11.73-4.168-6.814-3.927-7.87-7.627-12.373-11.025-4.503-3.4-13.647 1.533-13.918 1.685.235-.365 7.854-11.919 13.48-11.977 10.478-.11 35.358 13.527 34.498 22.978-.907 9.963-5.886 16.021-5.886 16.021z" mask="url(#b)"/>
        <path fill="#FFF" d="M240.843 200L238 198.292 244.767 183l3.233 2.15z" mask="url(#b)"/>
        <path stroke="#6D6E71" stroke-width="3" d="M240.843 200L238 198.292 244.767 183l3.233 2.15z" mask="url(#b)"/>
        <path fill="#FFF" d="M394.9 148h-24.8c-3.905 0-7.1-3.25-7.1-7.222v-19.556c0-3.972 3.195-7.222 7.1-7.222h15.192c9.19 0 16.708 7.647 16.708 16.994v9.784c0 3.972-3.195 7.222-7.1 7.222" mask="url(#b)"/>
        <path stroke="#6D6E71" stroke-width="3" d="M394.9 148h-24.8c-3.905 0-7.1-3.25-7.1-7.222v-19.556c0-3.972 3.195-7.222 7.1-7.222h15.192c9.19 0 16.708 7.647 16.708 16.994v9.784c0 3.972-3.195 7.222-7.1 7.222z" mask="url(#b)"/>
        <path fill="#8DE2D2" d="M364 132h36v-3h-36z" mask="url(#b)"/>
        <path fill="#FFF" d="M253 132h30v-5h-30z" mask="url(#b)"/>
        <path stroke="#6D6E71" stroke-width="3" d="M253 132h30v-5h-30z" mask="url(#b)"/>
        <path fill="#FFF" d="M271 133h10v-10h-10z" mask="url(#b)"/>
        <path stroke="#6D6E71" stroke-width="3" d="M271 133h10v-10h-10z" mask="url(#b)"/>
        <path fill="#FFF" d="M258 138h30v-5h-30z" mask="url(#b)"/>
        <path stroke="#6D6E71" stroke-width="3" d="M258 138h30v-5h-30z" mask="url(#b)"/>
        <path fill="#FFF" d="M259.182 144.857l8.818 7.87s-42.056 2.863-45.448 0c-3.392-2.862 9.438-19.84 22.385-25.041 4.457-1.792 14.61-4.23 16.958-3.578 8.907 2.475-2.713 20.75-2.713 20.75" mask="url(#b)"/>
        <path stroke="#6D6E71" stroke-width="3" d="M259.182 144.857l8.818 7.87s-42.056 2.863-45.448 0c-3.392-2.862 9.438-19.84 22.385-25.041 4.457-1.792 14.61-4.23 16.958-3.578 8.907 2.475-2.713 20.75-2.713 20.75z" mask="url(#b)"/>
        <path fill="#FFF" d="M279 116.5c0 3.59-4.03 6.5-9 6.5s-9-2.91-9-6.5 4.03-6.5 9-6.5 9 2.91 9 6.5" mask="url(#b)"/>
        <path stroke="#6D6E71" stroke-width="3" d="M279 116.5c0 3.59-4.03 6.5-9 6.5s-9-2.91-9-6.5 4.03-6.5 9-6.5 9 2.91 9 6.5z" mask="url(#b)"/>
        <path fill="#FFF" d="M267 119.25l-9.183 5.405V132H254v-8.82l13-8.18z" mask="url(#b)"/>
        <path stroke="#6D6E71" stroke-width="3" d="M267 119.25l-9.183 5.405V132H254v-8.82l13-8.18z" mask="url(#b)"/>
        <path fill="#FFF" d="M272 140h10v-10h-10z" mask="url(#b)"/>
        <path stroke="#6D6E71" stroke-width="3" d="M272 140h10v-10h-10z" mask="url(#b)"/>
        <path fill="#FFF" d="M298.583 205h8.83s-12.747-30.673-12.072-33.11c.675-2.435 34.553-.852 37.145-4.825 2.59-3.974 1.072-12.065 1.072-12.065l-18.03.443c-10.884 2.939-29.254 5.328-31.313 9.525C281.93 169.625 298.583 205 298.583 205" mask="url(#b)"/>
        <path stroke="#6D6E71" stroke-width="3" d="M298.583 205h8.83s-12.747-30.673-12.072-33.11c.675-2.435 34.553-.852 37.145-4.825 2.59-3.974 1.072-12.065 1.072-12.065l-18.03.443c-10.884 2.939-29.254 5.328-31.313 9.525C281.93 169.625 298.583 205 298.583 205z" mask="url(#b)"/>
        <path fill="#FFF" d="M315.686 155l18.314-.451s-1.79-21.54-7.39-31.987c-10.11-18.855-18.056-16.464-19.706-16.464-4.252 0-11.11 4.209-9.721 11.223 1.093 5.526 6.82 10.41 10.414 18.939 3.595 8.527 8.089 18.74 8.089 18.74" mask="url(#b)"/>
        <path stroke="#6D6E71" stroke-width="3" d="M315.686 155l18.314-.451s-1.79-21.54-7.39-31.987c-10.11-18.855-18.056-16.464-19.706-16.464-4.252 0-11.11 4.209-9.721 11.223 1.093 5.526 6.82 10.41 10.414 18.939 3.595 8.527 8.089 18.74 8.089 18.74z" mask="url(#b)"/>
        <path fill="#FFF" d="M296 106.72s3.43 5.473 5.774 7.144c2.075 1.478 4.905 1.335 6.09.583 1.278-.81 2.575-2.627 1.993-5.387-.568-2.69-5.035-8.06-5.035-8.06s-1.64 2.672-3.43 3.807c-1.79 1.135-5.392 1.914-5.392 1.914" mask="url(#b)"/>
        <path stroke="#6D6E71" stroke-width="3" d="M296 106.72s3.43 5.473 5.774 7.144c2.075 1.478 4.905 1.335 6.09.583 1.278-.81 2.575-2.627 1.993-5.387-.568-2.69-5.035-8.06-5.035-8.06s-1.64 2.672-3.43 3.807c-1.79 1.135-5.392 1.914-5.392 1.914z" mask="url(#b)"/>
        <path fill="#FFF" d="M267.088 89.999c.624 7.142 4.447 13.233 9.934 16.987a22.878 22.878 0 0 0 14.98 3.925c12.651-1.104 22.015-12.257 20.91-24.912-1.105-12.653-12.258-22.015-24.91-20.91-12.656 1.105-22.018 12.258-20.914 24.91" mask="url(#b)"/>
        <path stroke="#6D6E71" stroke-width="3" d="M267.088 89.999c.624 7.142 4.447 13.233 9.934 16.987a22.878 22.878 0 0 0 14.98 3.925c12.651-1.104 22.015-12.257 20.91-24.912-1.105-12.653-12.258-22.015-24.91-20.91-12.656 1.105-22.018 12.258-20.914 24.91z" mask="url(#b)"/>
        <path fill="#6D6E71" d="M276.247 94.995l.14-.01c.967-.07 1.69-.78 1.606-1.577l-.326-3.08c-.085-.797-.946-1.392-1.915-1.322l-.138.009c-.97.07-1.692.779-1.607 1.577l.327 3.079c.084.798.945 1.393 1.913 1.324M277.479 106l-1.479-.714s1.8-1.364 3.662-1.83c1.515-.377 3.07-.63 3.733-.31.87.42.74 1.427 0 1.427-.37 0-1.893-.127-2.958 0-1.885.224-2.958 1.427-2.958 1.427" mask="url(#b)"/>
        <g mask="url(#b)">
            <path fill="#FFF" d="M293.896 93.77c.38.129.787.177 1.206.136 1.79-.176 3.113-1.95 2.956-3.966-.156-2.015-1.732-3.505-3.522-3.33a2.939 2.939 0 0 0-1.166.37"/>
            <path stroke="#6D6E71" stroke-width="3" d="M293.896 93.77c.38.129.787.177 1.206.136 1.79-.176 3.113-1.95 2.956-3.966-.156-2.015-1.732-3.505-3.522-3.33a2.939 2.939 0 0 0-1.166.37"/>
        </g>
        <path fill="#FFF" d="M310.118 102c1.556 0 4.968-6.076 5.624-10.01.58-3.493 0-7.99 0-7.99L293 84.896s5.006 2.445 7.705 4.639c2.7 2.194 7.858 12.465 9.413 12.465" mask="url(#b)"/>
        <path stroke="#6D6E71" stroke-width="3" d="M310.118 102c1.556 0 4.968-6.076 5.624-10.01.58-3.493 0-7.99 0-7.99L293 84.896s5.006 2.445 7.705 4.639c2.7 2.194 7.858 12.465 9.413 12.465z" mask="url(#b)"/>
        <path fill="#FFF" d="M262.026 83.905c.014.368.038.733.068 1.095L316 82.709c.001-.363-.003-.728-.017-1.097-.532-13.765-10.978-21.673-25.387-22.522-21.543-1.27-29.103 11.05-28.57 24.815" mask="url(#b)"/>
        <path stroke="#6D6E71" stroke-width="3" d="M262.026 83.905c.014.368.038.733.068 1.095L316 82.709c.001-.363-.003-.728-.017-1.097-.532-13.765-10.978-21.673-25.387-22.522-21.543-1.27-29.103 11.05-28.57 24.815z" mask="url(#b)"/>
        <path fill="#FFF" d="M290.471 111l2.215-.074 3.214-11.58L310 84l-3.002.119-11.786 12.945-4.032-12.368-3.18.09 4.901 14.168z" mask="url(#b)"/>
        <path stroke="#6D6E71" stroke-width="3" d="M290.471 111l2.215-.074 3.214-11.58L310 84l-3.002.119-11.786 12.945-4.032-12.368-3.18.09 4.901 14.168z" mask="url(#b)"/>
        <path fill="#FFF" d="M271.79 87.996C276.3 86.416 286 85 286 85l-23 .879s.08 1.128.756 3.262c.575 1.81 3.524.435 8.034-1.145" mask="url(#b)"/>
        <path stroke="#6D6E71" stroke-width="3" d="M271.79 87.996C276.3 86.416 286 85 286 85l-23 .879s.08 1.128.756 3.262c.575 1.81 3.524.435 8.034-1.145z" mask="url(#b)"/>
        <path fill="#FFF" d="M287.184 62c6.893 0 12.437 1.47 12.738 2.228.302.756-.318 1.609-1.102 1.609-6.071-1.383-3.798-1.38-11.636-1.217-5.767.119-10.992 1.38-10.992 1.38-.786 0-1.409-.91-1.12-1.636.308-.775 5.219-2.364 12.112-2.364" mask="url(#b)"/>
        <path stroke="#6D6E71" stroke-width="3" d="M287.184 62c6.893 0 12.437 1.47 12.738 2.228.302.756-.318 1.609-1.102 1.609-6.071-1.383-3.798-1.38-11.636-1.217-5.767.119-10.992 1.38-10.992 1.38-.786 0-1.409-.91-1.12-1.636.308-.775 5.219-2.364 12.112-2.364z" mask="url(#b)"/>
        <path fill="#FFF" d="M305.56 201l-7.542 2.76s-5.21-2.336-7.556 1.328c-1.49 2.33 1.1 5.912 1.1 5.912l6.456-.024 9.982-4.613-2.44-5.363z" mask="url(#b)"/>
        <path stroke="#6D6E71" stroke-width="3" d="M305.56 201l-7.542 2.76s-5.21-2.336-7.556 1.328c-1.49 2.33 1.1 5.912 1.1 5.912l6.456-.024 9.982-4.613-2.44-5.363z" mask="url(#b)"/>
        <path fill="#8DE2D2" d="M308 205.757l-9.23 4.186-5.408.057s-.767-1.381-.067-2.106c.275-.283 2.45.222 5.005-.238 3.958-.711 8.583-3.656 8.583-3.656l1.117 1.757z" mask="url(#b)"/>
        <path stroke="#6D6E71" stroke-width="3" d="M307 156l3 13" mask="url(#b)"/>
        <path fill="#A2EDDE" d="M306.866 73.92c-2.638-3.81-7.628-5.873-5.234-7.446 2.395-1.575 6.446.967 9.084 4.777C313.355 75.061 314 81 314 81h-4.635s-1.047-4.985-2.499-7.08" mask="url(#b)"/>
        <path fill="#FFF" d="M318.776 138.432c-1.035 1.03-18.809 4.21-24.332 4.475A5.991 5.991 0 0 1 290.98 144c-3.3 0-5.981-2.652-5.981-5.916 0-3.264 2.682-5.916 5.981-5.916 1.654 0 3.153.669 4.237 1.74 4.44-.118 13.475-.82 14.41-1.74 1.344-1.33-3.06-15.465-3.06-15.583-.043-2.345 1.758-4.35 4.158-4.566 2.392-.216 4.532 1.44 4.918 3.752.022.118 4.378 21.436 3.132 22.661" mask="url(#b)"/>
        <path stroke="#6D6E71" stroke-width="3" d="M318.776 138.432c-1.035 1.03-18.809 4.21-24.332 4.475A5.991 5.991 0 0 1 290.98 144c-3.3 0-5.981-2.652-5.981-5.916 0-3.264 2.682-5.916 5.981-5.916 1.654 0 3.153.669 4.237 1.74 4.44-.118 13.475-.82 14.41-1.74 1.344-1.33-3.06-15.465-3.06-15.583-.043-2.345 1.758-4.35 4.158-4.566 2.392-.216 4.532 1.44 4.918 3.752.022.118 4.378 21.436 3.132 22.661z" mask="url(#b)"/>
        <path fill="#8DE2D2" d="M249 142.416c0-3.951-10.423-6.439-13.203-5.007-5.665 2.915-10.424 10.73-9.73 12.16.696 1.431 4.787 1.431 11.12 1.431 6.332 0 11.813-4.633 11.813-8.584" mask="url(#b)"/>
        <path fill="#FFF" d="M416 116h58V1h-58z" mask="url(#b)"/>
        <path stroke="#6D6E71" stroke-width="3" d="M416 116h58V1h-58z" mask="url(#b)"/>
        <path fill="#FFF" d="M435 250h18V116h-18z" mask="url(#b)"/>
        <path stroke="#6D6E71" stroke-width="3" d="M435 250h18V116h-18z" mask="url(#b)"/>
        <path fill="#8DE2D2" d="M460 59c0 8.284-6.716 15-15 15-8.284 0-15-6.716-15-15 0-8.284 6.716-15 15-15 8.284 0 15 6.716 15 15" mask="url(#b)"/>
        <path stroke="#6D6E71" stroke-width="3" d="M460 59c0 8.284-6.716 15-15 15-8.284 0-15-6.716-15-15 0-8.284 6.716-15 15-15 8.284 0 15 6.716 15 15z" mask="url(#b)"/>
        <path fill="#00D7AF" d="M460 21c0 8.284-6.716 15-15 15-8.284 0-15-6.716-15-15 0-8.284 6.716-15 15-15 8.284 0 15 6.716 15 15" mask="url(#b)"/>
        <path stroke="#6D6E71" stroke-width="3" d="M460 21c0 8.284-6.716 15-15 15-8.284 0-15-6.716-15-15 0-8.284 6.716-15 15-15 8.284 0 15 6.716 15 15z" mask="url(#b)"/>
        <path fill="#D4F9F2" d="M460 96c0 8.284-6.716 15-15 15-8.284 0-15-6.716-15-15 0-8.284 6.716-15 15-15 8.284 0 15 6.716 15 15" mask="url(#b)"/>
        <path stroke="#6D6E71" stroke-width="3" d="M460 96c0 8.284-6.716 15-15 15-8.284 0-15-6.716-15-15 0-8.284 6.716-15 15-15 8.284 0 15 6.716 15 15z" mask="url(#b)"/>
    </g>
</svg>
