<svg xmlns="http://www.w3.org/2000/svg" xmlns:xlink="http://www.w3.org/1999/xlink" width="546" height="223" viewBox="0 0 546 223">
    <defs>
        <path id="a" d="M.27.978h74.076V50H.27z"/>
        <path id="c" d="M0 222.569h565.984V0H0z"/>
    </defs>
    <g fill="none" fill-rule="evenodd" transform="translate(-20)">
        <path fill="#A2EDDE" d="M285.508 191.543c7.816-17.948 12.324-17.88-23.899-17.88-25.424 0-28.173-2.06-42.67 16.35-9.495 12.055-26.557 32.556 5.041 32.556s55.401-16.957 61.528-31.026"/>
        <g transform="translate(418 172.569)">
            <mask id="b" fill="#fff">
                <use xlink:href="#a"/>
            </mask>
            <path fill="#A2EDDE" d="M69.787 17.876C75.478 3.777 81.917 1.12 47.967 1.12c-23.828 0-23.906-2.609-37.494 14.645C1.575 27.064-10.6 50 19.014 50s45.39-18.788 50.773-32.124" mask="url(#b)"/>
        </g>
        <path fill="#FFF" d="M539.466 183.507H520.1a1.135 1.135 0 0 1-1.135-1.135v-2.412c0-.626.508-1.135 1.135-1.135h19.367c.627 0 1.135.509 1.135 1.135v2.412c0 .627-.508 1.135-1.135 1.135"/>
        <path stroke="#6D6E71" stroke-width="3" d="M539.466 183.507H520.1a1.135 1.135 0 0 1-1.135-1.135v-2.412c0-.626.508-1.135 1.135-1.135h19.367c.627 0 1.135.509 1.135 1.135v2.412c0 .627-.508 1.135-1.135 1.135z"/>
        <mask id="d" fill="#fff">
            <use xlink:href="#c"/>
        </mask>
        <path fill="#FFF" d="M528.533 178.825h2.499v-4.713h-2.499z" mask="url(#d)"/>
        <path stroke="#6D6E71" stroke-width="3" d="M528.533 178.825h2.499v-4.713h-2.499z" mask="url(#d)"/>
        <path fill="#FFF" d="M538.303 178.055s-5.264-3.487-9.615-3.487c-3.854 0-6.263 3.487-6.263 3.487h-2.475s2.54-6.156 8.738-6.156c8.323 0 10.928 6.156 10.928 6.156h-1.313z" mask="url(#d)"/>
        <path stroke="#6D6E71" stroke-width="3" d="M538.303 178.055s-5.264-3.487-9.615-3.487c-3.854 0-6.263 3.487-6.263 3.487h-2.475s2.54-6.156 8.738-6.156c8.323 0 10.928 6.156 10.928 6.156h-1.313z" mask="url(#d)"/>
        <path fill="#FFF" d="M563.35 183.507h-19.368a1.135 1.135 0 0 1-1.135-1.135v-2.412c0-.626.508-1.135 1.135-1.135h19.367c.627 0 1.135.509 1.135 1.135v2.412c0 .627-.508 1.135-1.135 1.135" mask="url(#d)"/>
        <path stroke="#6D6E71" stroke-width="3" d="M563.35 183.507h-19.368a1.135 1.135 0 0 1-1.135-1.135v-2.412c0-.626.508-1.135 1.135-1.135h19.367c.627 0 1.135.509 1.135 1.135v2.412c0 .627-.508 1.135-1.135 1.135z" mask="url(#d)"/>
        <path fill="#FFF" d="M552.416 178.825h2.499v-4.713h-2.499z" mask="url(#d)"/>
        <path stroke="#6D6E71" stroke-width="3" d="M552.416 178.825h2.499v-4.713h-2.499z" mask="url(#d)"/>
        <path fill="#FFF" d="M562.186 178.055s-5.264-3.487-9.615-3.487c-3.855 0-6.264 3.487-6.264 3.487h-2.475s2.54-6.156 8.739-6.156c8.322 0 10.928 6.156 10.928 6.156h-1.313z" mask="url(#d)"/>
        <path stroke="#6D6E71" stroke-width="3" d="M562.186 178.055s-5.264-3.487-9.615-3.487c-3.855 0-6.264 3.487-6.264 3.487h-2.475s2.54-6.156 8.739-6.156c8.322 0 10.928 6.156 10.928 6.156h-1.313z" mask="url(#d)"/>
        <path fill="#FFF" d="M338.946 181.934h-19.367a1.135 1.135 0 0 1-1.135-1.134v-2.412c0-.627.508-1.135 1.135-1.135h19.367c.627 0 1.135.508 1.135 1.135v2.412c0 .626-.508 1.134-1.135 1.134" mask="url(#d)"/>
        <path stroke="#6D6E71" stroke-width="3" d="M338.946 181.934h-19.367a1.135 1.135 0 0 1-1.135-1.134v-2.412c0-.627.508-1.135 1.135-1.135h19.367c.627 0 1.135.508 1.135 1.135v2.412c0 .626-.508 1.134-1.135 1.134z" mask="url(#d)"/>
        <path fill="#FFF" d="M328.012 177.253h2.499v-4.713h-2.499z" mask="url(#d)"/>
        <path stroke="#6D6E71" stroke-width="3" d="M328.012 177.253h2.499v-4.713h-2.499z" mask="url(#d)"/>
        <path fill="#FFF" d="M337.782 176.483s-5.264-3.488-9.615-3.488c-3.854 0-6.263 3.488-6.263 3.488h-2.475s2.54-6.158 8.738-6.158c8.323 0 10.928 6.158 10.928 6.158h-1.313z" mask="url(#d)"/>
        <path stroke="#6D6E71" stroke-width="3" d="M337.782 176.483s-5.264-3.488-9.615-3.488c-3.854 0-6.263 3.488-6.263 3.488h-2.475s2.54-6.158 8.738-6.158c8.323 0 10.928 6.158 10.928 6.158h-1.313z" mask="url(#d)"/>
        <path fill="#FFF" d="M362.828 181.934h-19.367a1.135 1.135 0 0 1-1.135-1.134v-2.412c0-.627.508-1.135 1.135-1.135h19.367c.627 0 1.135.508 1.135 1.135v2.412c0 .626-.508 1.134-1.135 1.134" mask="url(#d)"/>
        <path stroke="#6D6E71" stroke-width="3" d="M362.828 181.934h-19.367a1.135 1.135 0 0 1-1.135-1.134v-2.412c0-.627.508-1.135 1.135-1.135h19.367c.627 0 1.135.508 1.135 1.135v2.412c0 .626-.508 1.134-1.135 1.134z" mask="url(#d)"/>
        <path fill="#FFF" d="M351.895 177.253h2.499v-4.713h-2.499z" mask="url(#d)"/>
        <path stroke="#6D6E71" stroke-width="3" d="M351.895 177.253h2.499v-4.713h-2.499z" mask="url(#d)"/>
        <path fill="#FFF" d="M361.665 176.483s-5.264-3.488-9.615-3.488c-3.854 0-6.263 3.488-6.263 3.488h-2.475s2.54-6.158 8.738-6.158c8.323 0 10.928 6.158 10.928 6.158h-1.313z" mask="url(#d)"/>
        <path stroke="#6D6E71" stroke-width="3" d="M361.665 176.483s-5.264-3.488-9.615-3.488c-3.854 0-6.263 3.488-6.263 3.488h-2.475s2.54-6.158 8.738-6.158c8.323 0 10.928 6.158 10.928 6.158h-1.313z" mask="url(#d)"/>
        <path fill="#FFF" d="M498.812 46.348c0 19.779-1.618 37.335-15.488 37.203-5.267-.051-34.637-.422-39.762-.298-17.966.435-13.64-34.974-13.64-36.514 0-19.78 14.871-35.787 37.12-35.787 19.78 0 31.77 15.617 31.77 35.396" mask="url(#d)"/>
        <path stroke="#6D6E71" stroke-width="3" d="M498.812 46.348c0 19.779-1.618 37.335-15.488 37.203-5.267-.051-34.637-.422-39.762-.298-17.966.435-13.64-34.974-13.64-36.514 0-19.78 14.871-35.787 37.12-35.787 19.78 0 31.77 15.617 31.77 35.396z" mask="url(#d)"/>
        <path fill="#8DE2D2" d="M451.426 16.494c6.546-3.164 15.874-2.996 15.874-2.996s-11.148 4.602-14.546 9.155c-3.049 4.086.236 9.568-1.328 9.568-4.155 0-7.293-2.032-8.001-2.325-.71-.294-2.8-.956-2.8-.956s-3.58 3.943-4.74 7.025c-.578 1.54-1.94 5.535-1.94 5.535h-1.498s.91-4.289 2.214-8.009c.923-2.635 4.015-7.078 5.144-8.336 2.722-3.035 5.077-5.496 11.621-8.66" mask="url(#d)"/>
        <path fill="#FFF" d="M456.562 79.904c-20.462-1.287-21.525 24.086-22.99 33.269-.826 5.175 1.805 10.675 1.805 10.675l9.428 2.023c.047-3.051.402-3.674.402-9.964 0-3.766 1.698-10.743 1.698-10.743H448s1.82 17.112 1.762 23.254c-.052 5.459-3.268 11.21-3.268 11.21l35.501.113s-2.343-5.42-2.343-10.834c0-6.111 1.603-23.743 1.603-23.743l1.156-.01s.729 7.473.758 11.152c.028 3.679-1.199 5.12-1.199 5.12 1.078 1.68 8.447 1.943 8.447 1.943s3.228-.936 3.228-13.57c0-8.987-3.228-29.386-20.151-29.895h-16.932" mask="url(#d)"/>
        <path stroke="#6D6E71" stroke-width="3" d="M456.562 79.904c-20.462-1.287-21.525 24.086-22.99 33.269-.826 5.175 1.805 10.675 1.805 10.675l9.428 2.023c.047-3.051.402-3.674.402-9.964 0-3.766 1.698-10.743 1.698-10.743H448s1.82 17.112 1.762 23.254c-.052 5.459-3.268 11.21-3.268 11.21l35.501.113s-2.343-5.42-2.343-10.834c0-6.111 1.603-23.743 1.603-23.743l1.156-.01s.729 7.473.758 11.152c.028 3.679-1.199 5.12-1.199 5.12 1.078 1.68 8.447 1.943 8.447 1.943s3.228-.936 3.228-13.57c0-8.987-3.228-29.386-20.151-29.895h-16.932z" mask="url(#d)"/>
        <path fill="#FFF" d="M500.088 51.675a4.687 4.687 0 0 1-4.689 4.688c-1.574 0-2.228-.069-2.228-.069s-.259.667-.693 1.897c-4.029 11.408-14.907 19.58-27.699 19.58-12.717 0-23.546-8.084-27.627-19.39-.335-.929-.726-2.133-.726-2.133s-1.838.115-3.394.115a4.687 4.687 0 0 1-4.688-4.688 4.687 4.687 0 0 1 4.688-4.688h2.384s.01-.678.024-1.026c.07-1.715.286-2.184.64-3.812 1.344-6.197 5.224-10.416 5.224-10.416s14.809.926 24.268.946c9.459.02 25.953-.04 25.953-.04s2.465 9.687 2.574 13.257c.017.557.029 1.091.029 1.091h1.271a4.687 4.687 0 0 1 4.689 4.688" mask="url(#d)"/>
        <path stroke="#6D6E71" stroke-width="3" d="M500.088 51.675a4.687 4.687 0 0 1-4.689 4.688c-1.574 0-2.228-.069-2.228-.069s-.259.667-.693 1.897c-4.029 11.408-14.907 19.58-27.699 19.58-12.717 0-23.546-8.084-27.627-19.39-.335-.929-.726-2.133-.726-2.133s-1.838.115-3.394.115a4.687 4.687 0 0 1-4.688-4.688 4.687 4.687 0 0 1 4.688-4.688h2.384s.01-.678.024-1.026c.07-1.715.286-2.184.64-3.812 1.344-6.197 5.224-10.416 5.224-10.416s14.809.926 24.268.946c9.459.02 25.953-.04 25.953-.04s2.465 9.687 2.574 13.257c.017.557.029 1.091.029 1.091h1.271a4.687 4.687 0 0 1 4.689 4.688z" mask="url(#d)"/>
        <path fill="#FFF" d="M473.678 76.843s.449 8.252-1.172 12.065c-1.436 3.377-5.466 5.372-7.818 5.372-2.535 0-6.061-1.2-7.908-4.98-1.802-3.687-.882-12.273-.882-12.273s1.636 1.04 8.444 1.04c6.786 0 9.336-1.224 9.336-1.224" mask="url(#d)"/>
        <path stroke="#6D6E71" stroke-width="3" d="M473.678 76.843s.449 8.252-1.172 12.065c-1.436 3.377-5.466 5.372-7.818 5.372-2.535 0-6.061-1.2-7.908-4.98-1.802-3.687-.882-12.273-.882-12.273s1.636 1.04 8.444 1.04c6.786 0 9.336-1.224 9.336-1.224z" mask="url(#d)"/>
        <path fill="#6D6E71" d="M451.68 54.687h-.155a1.869 1.869 0 0 1-1.864-1.863V48.85c0-1.025.839-1.863 1.864-1.863h.155c1.025 0 1.864.838 1.864 1.863v3.974a1.869 1.869 0 0 1-1.864 1.863M478.282 54.687h-.155a1.869 1.869 0 0 1-1.864-1.863V48.85c0-1.025.839-1.863 1.864-1.863h.155c1.025 0 1.864.838 1.864 1.863v3.974a1.869 1.869 0 0 1-1.864 1.863M457.25 64.885c1.224.448 1.716 3.397 7.623 3.397 5.906 0 6.49-3.397 8.013-3.14 1.597.269 1.915 1.559-.187 2.91-1.536.988-4.385 2.164-7.826 2.164-6.301 0-9.548-2.948-9.548-3.881 0-.932.891-1.828 1.925-1.45" mask="url(#d)"/>
        <path fill="#FFF" d="M455.6 206.418l-13.105-.06 14.457-49.573 1.702-4.127h-3.28l-4.218 3.906-14.44 52.088h-10.68l11.49-53.968 8.4-14.066s43.884-14.257 39.445-.877c-4.439 13.38-15.777 19.694-15.777 19.694L455.6 206.418z" mask="url(#d)"/>
        <path stroke="#6D6E71" stroke-width="3" d="M455.6 206.418l-13.105-.06 14.457-49.573 1.702-4.127h-3.28l-4.218 3.906-14.44 52.088h-10.68l11.49-53.968 8.4-14.066s43.884-14.257 39.445-.877c-4.439 13.38-15.777 19.694-15.777 19.694L455.6 206.418z" mask="url(#d)"/>
        <path fill="#6D6E71" d="M449.878 48.087v2.254s-.754-.603-1.164-1.013c-.41-.41-.562-.907-.861-1.443-.298-.535-.468-1.515-.04-1.017.278.322.637.717 1.069 1.149.383.384.996.07.996.07M479.648 48.087v2.254s.754-.603 1.164-1.013c.41-.41.562-.907.86-1.443.299-.535.469-1.515.04-1.017-.277.322-.635.717-1.068 1.149-.383.384-.996.07-.996.07" mask="url(#d)"/>
        <path fill="#FFF" d="M509.13 30.064c0 1.14-1.434 2.744-12.659 2.744-9.065 0-19.983.566-31.746.566-11.73 0-22.619-.566-31.67-.566-9.549 0-11.382-1.6-11.382-2.744 0-1.14 2.865-2.735 11.288-2.735 1.062-17.305 14.895-25.83 31.801-25.83s30.74 8.525 31.802 25.83c10.51 0 12.565 1.595 12.565 2.735" mask="url(#d)"/>
        <path stroke="#6D6E71" stroke-width="3" d="M509.13 30.064c0 1.14-1.434 2.744-12.659 2.744-9.065 0-19.983.566-31.746.566-11.73 0-22.619-.566-31.67-.566-9.549 0-11.382-1.6-11.382-2.744 0-1.14 2.865-2.735 11.288-2.735 1.062-17.305 14.895-25.83 31.801-25.83s30.74 8.525 31.802 25.83c10.51 0 12.565 1.595 12.565 2.735z" mask="url(#d)"/>
        <path fill="#FFF" d="M496.48 26.245s-26.389.766-32.063.766c-5.674 0-31.351-.766-31.351-.766l1.599-5.604s23.711.766 29.485.766c5.775 0 31.76-.766 31.76-.766l.57 5.604z" mask="url(#d)"/>
        <path stroke="#6D6E71" stroke-width="3" d="M496.48 26.245s-26.389.766-32.063.766c-5.674 0-31.351-.766-31.351-.766l1.599-5.604s23.711.766 29.485.766c5.775 0 31.76-.766 31.76-.766l.57 5.604z" mask="url(#d)"/>
        <path fill="#FFF" d="M491.654 13.02c.581 1.188.27 2.535-.698 3.008-.967.474-2.222-.105-2.804-1.293-.58-1.187-.269-2.533.698-3.007.967-.473 2.223.106 2.804 1.293" mask="url(#d)"/>
        <path stroke="#6D6E71" stroke-width="3" d="M491.654 13.02c.581 1.188.27 2.535-.698 3.008-.967.474-2.222-.105-2.804-1.293-.58-1.187-.269-2.533.698-3.007.967-.473 2.223.106 2.804 1.293z" mask="url(#d)"/>
        <path fill="#FFF" d="M494.531 13.997c.581 1.187.27 2.534-.698 3.007-.967.473-2.222-.105-2.804-1.293-.58-1.187-.269-2.534.698-3.007.967-.474 2.223.106 2.804 1.293" mask="url(#d)"/>
        <path stroke="#6D6E71" stroke-width="3" d="M494.531 13.997c.581 1.187.27 2.534-.698 3.007-.967.473-2.222-.105-2.804-1.293-.58-1.187-.269-2.534.698-3.007.967-.474 2.223.106 2.804 1.293z" mask="url(#d)"/>
        <path fill="#FFF" d="M496.267 17.543c.581 1.187.27 2.534-.698 3.007-.967.474-2.222-.105-2.804-1.292-.58-1.188-.269-2.534.698-3.007.967-.474 2.223.105 2.804 1.292" mask="url(#d)"/>
        <path stroke="#6D6E71" stroke-width="3" d="M496.267 17.543c.581 1.187.27 2.534-.698 3.007-.967.474-2.222-.105-2.804-1.292-.58-1.188-.269-2.534.698-3.007.967-.474 2.223.105 2.804 1.292z" mask="url(#d)"/>
        <path fill="#FFF" d="M495.569 20.55c.581 1.187.269 2.534-.698 3.007-.967.474-2.222-.105-2.804-1.292-.581-1.188-.269-2.534.698-3.007.967-.474 2.223.105 2.804 1.292" mask="url(#d)"/>
        <path stroke="#6D6E71" stroke-width="3" d="M495.569 20.55c.581 1.187.269 2.534-.698 3.007-.967.474-2.222-.105-2.804-1.292-.581-1.188-.269-2.534.698-3.007.967-.474 2.223.105 2.804 1.292z" mask="url(#d)"/>
        <path fill="#FFF" d="M493.142 21.739c.581 1.187.27 2.534-.698 3.007-.967.473-2.222-.105-2.804-1.293-.58-1.187-.269-2.534.698-3.007.967-.474 2.223.106 2.804 1.293" mask="url(#d)"/>
        <path stroke="#6D6E71" stroke-width="3" d="M493.142 21.739c.581 1.187.27 2.534-.698 3.007-.967.473-2.222-.105-2.804-1.293-.58-1.187-.269-2.534.698-3.007.967-.474 2.223.106 2.804 1.293z" mask="url(#d)"/>
        <path fill="#FFF" d="M490.339 20.446c.58 1.187.269 2.534-.698 3.007-.967.473-2.222-.105-2.804-1.293-.581-1.187-.27-2.533.698-3.007.967-.474 2.223.106 2.804 1.293" mask="url(#d)"/>
        <path stroke="#6D6E71" stroke-width="3" d="M490.339 20.446c.58 1.187.269 2.534-.698 3.007-.967.473-2.222-.105-2.804-1.293-.581-1.187-.27-2.533.698-3.007.967-.474 2.223.106 2.804 1.293z" mask="url(#d)"/>
        <path fill="#FFF" d="M488.88 17.466c.58 1.187.269 2.534-.698 3.007-.967.473-2.222-.105-2.804-1.293-.581-1.187-.27-2.533.698-3.007.967-.474 2.223.106 2.804 1.293" mask="url(#d)"/>
        <path stroke="#6D6E71" stroke-width="3" d="M488.88 17.466c.58 1.187.269 2.534-.698 3.007-.967.473-2.222-.105-2.804-1.293-.581-1.187-.27-2.533.698-3.007.967-.474 2.223.106 2.804 1.293z" mask="url(#d)"/>
        <path fill="#FFF" d="M489.578 14.458c.581 1.187.269 2.534-.698 3.007-.967.473-2.222-.105-2.804-1.293-.581-1.187-.269-2.533.698-3.007.967-.474 2.223.106 2.804 1.293" mask="url(#d)"/>
        <path stroke="#6D6E71" stroke-width="3" d="M489.578 14.458c.581 1.187.269 2.534-.698 3.007-.967.473-2.222-.105-2.804-1.293-.581-1.187-.269-2.533.698-3.007.967-.474 2.223.106 2.804 1.293z" mask="url(#d)"/>
        <path fill="#FFF" d="M493.441 16.749c.826 1.687.382 3.6-.992 4.273-1.374.673-3.158-.15-3.984-1.836-.826-1.688-.382-3.602.992-4.274 1.374-.673 3.158.15 3.984 1.837" mask="url(#d)"/>
        <path stroke="#6D6E71" stroke-width="3" d="M493.441 16.749c.826 1.687.382 3.6-.992 4.273-1.374.673-3.158-.15-3.984-1.836-.826-1.688-.382-3.602.992-4.274 1.374-.673 3.158.15 3.984 1.837z" mask="url(#d)"/>
        <path fill="#FFF" d="M439.066 24.504l.783 9.909-2.658-2.02-2.308 2.413-.783-9.91z" mask="url(#d)"/>
        <path stroke="#6D6E71" stroke-width="3" d="M439.066 24.504l.783 9.909-2.658-2.02-2.308 2.413-.783-9.91z" mask="url(#d)"/>
        <path fill="#FFF" d="M438.036 26.03l-7.873 8.739-.451-3.31-3.338.075 7.873-8.737z" mask="url(#d)"/>
        <path stroke="#6D6E71" stroke-width="3" d="M438.036 26.03l-7.873 8.739-.451-3.31-3.338.075 7.873-8.737z" mask="url(#d)"/>
        <path fill="#FFF" d="M441.505 24.068a4.97 4.97 0 0 1-6.344 3.024 4.97 4.97 0 1 1 6.344-3.024" mask="url(#d)"/>
        <path stroke="#6D6E71" stroke-width="3" d="M441.505 24.068a4.97 4.97 0 0 1-6.344 3.024 4.97 4.97 0 1 1 6.344-3.024z" mask="url(#d)"/>
        <path fill="#A2EDDE" d="M439.313 23.29a2.644 2.644 0 1 1-4.985-1.766 2.644 2.644 0 0 1 4.985 1.766" mask="url(#d)"/>
        <path fill="#FFF" d="M487.143 140.073l-23.953 5.334-23.952-5.334v-38.524c0-6.936-7.717-19.83-7.717-19.83l32.007 5.27 34.054-6.576s-10.44 14.59-10.44 21.624v38.036z" mask="url(#d)"/>
        <path stroke="#6D6E71" stroke-width="3" d="M487.143 140.073l-23.953 5.334-23.952-5.334v-38.524c0-6.936-7.717-19.83-7.717-19.83l32.007 5.27 34.054-6.576s-10.44 14.59-10.44 21.624v38.036z" mask="url(#d)"/>
        <path fill="#FFF" d="M492.423 118.804a6.2 6.2 0 1 1-12.4 0 6.2 6.2 0 0 1 12.4 0" mask="url(#d)"/>
        <path stroke="#6D6E71" stroke-width="3" d="M492.423 118.804a6.2 6.2 0 1 1-12.4 0 6.2 6.2 0 0 1 12.4 0z" mask="url(#d)"/>
        <path fill="#FFF" d="M446.415 119.97a6.2 6.2 0 1 1-12.4 0 6.2 6.2 0 0 1 12.4 0" mask="url(#d)"/>
        <path stroke="#6D6E71" stroke-width="3" d="M446.415 119.97a6.2 6.2 0 1 1-12.4 0 6.2 6.2 0 0 1 12.4 0z" mask="url(#d)"/>
        <path fill="#A2EDDE" d="M462.811 143.648h1.433V88.947h-1.433z" mask="url(#d)"/>
        <path stroke="#6D6E71" d="M475.872 35.951s-4.382.831-9.755.831c-5.372 0-10.845-.831-10.845-.831M476.96 38.198s-5.079 1.27-10.452 1.27c-5.372 0-12.063-1.27-12.063-1.27" mask="url(#d)"/>
        <path fill="#FFF" d="M437.562 205.052c-.884 6.377-4.103 11.657-7 11.657-2.898 0-6.017-5.295-7-11.657-.978-6.316.298-12.112 6.986-12.373 6.688-.26 7.926 5.796 7.014 12.373" mask="url(#d)"/>
        <path stroke="#6D6E71" stroke-width="3" d="M437.562 205.052c-.884 6.377-4.103 11.657-7 11.657-2.898 0-6.017-5.295-7-11.657-.978-6.316.298-12.112 6.986-12.373 6.688-.26 7.926 5.796 7.014 12.373z" mask="url(#d)"/>
        <path fill="#FFF" d="M455.832 208.812c-2.878 5.76-7.617 9.731-10.362 8.803-2.746-.927-4.006-6.94-2.903-13.283 1.096-6.297 4.16-11.38 10.58-9.487 6.42 1.894 5.653 8.028 2.685 13.967" mask="url(#d)"/>
        <path stroke="#6D6E71" stroke-width="3" d="M455.832 208.812c-2.878 5.76-7.617 9.731-10.362 8.803-2.746-.927-4.006-6.94-2.903-13.283 1.096-6.297 4.16-11.38 10.58-9.487 6.42 1.894 5.653 8.028 2.685 13.967z" mask="url(#d)"/>
        <path fill="#FFF" d="M248.486 79.376V90.3s-37.075.661-38.072.661a6.12 6.12 0 0 1-6.118-6.123 6.11 6.11 0 0 1 2.023-4.548l23.9-26.174 8.069 7.365-16.345 17.895h26.542z" mask="url(#d)"/>
        <path stroke="#6D6E71" stroke-width="3" d="M248.486 79.376V90.3s-37.075.661-38.072.661a6.12 6.12 0 0 1-6.118-6.123 6.11 6.11 0 0 1 2.023-4.548l23.9-26.174 8.069 7.365-16.345 17.895h26.542z" mask="url(#d)"/>
        <path fill="#FFF" d="M267.534 79.376V90.3s37.075.661 38.072.661a6.12 6.12 0 0 0 6.118-6.123 6.11 6.11 0 0 0-2.023-4.548L285.8 54.116l-8.068 7.365 16.344 17.895h-26.542z" mask="url(#d)"/>
        <path stroke="#6D6E71" stroke-width="3" d="M267.534 79.376V90.3s37.075.661 38.072.661a6.12 6.12 0 0 0 6.118-6.123 6.11 6.11 0 0 0-2.023-4.548L285.8 54.116l-8.068 7.365 16.344 17.895h-26.542z" mask="url(#d)"/>
        <path fill="#FFF" d="M290.906 46.317s.65-4.894-.432-13.277c-.39-3.012-5.591-14.088-13.636-19.19-7.632-4.84-18.072-3.795-20.404-3.795a32.343 32.343 0 0 0-15.793 4.091c-5.353 2.977-9.9 6.964-12.841 12.337-2.544 4.63-4.835 14.756-3.42 20.617l66.526-.783z" mask="url(#d)"/>
        <path stroke="#6D6E71" stroke-width="3" d="M290.906 46.317s.65-4.894-.432-13.277c-.39-3.012-5.591-14.088-13.636-19.19-7.632-4.84-18.072-3.795-20.404-3.795a32.343 32.343 0 0 0-15.793 4.091c-5.353 2.977-9.9 6.964-12.841 12.337-2.544 4.63-4.835 14.756-3.42 20.617l66.526-.783z" mask="url(#d)"/>
        <path fill="#FFF" d="M249.748 77.798c-3.641 0-13.44 1.579-13.44 1.579l1.148 31.974-.035 22.15 41.63 3.89.089-27.727 1.684-30.287s-7.833-.791-14.546-.791l-16.53-.788z" mask="url(#d)"/>
        <path stroke="#6D6E71" stroke-width="3" d="M249.748 77.798c-3.641 0-13.44 1.579-13.44 1.579l1.148 31.974-.035 22.15 41.63 3.89.089-27.727 1.684-30.287s-7.833-.791-14.546-.791l-16.53-.788z" mask="url(#d)"/>
        <path fill="#FFF" d="M266.383 75.507s.533 9.24-1.088 13.052c-1.436 3.376-5.466 5.372-7.818 5.372-2.535 0-6.061-1.202-7.908-4.982-1.802-3.686-.81-13.594-.81-13.594s4.822 1.97 8.372 1.97 9.252-1.818 9.252-1.818" mask="url(#d)"/>
        <path stroke="#6D6E71" stroke-width="3" d="M266.383 75.507s.533 9.24-1.088 13.052c-1.436 3.376-5.466 5.372-7.818 5.372-2.535 0-6.061-1.202-7.908-4.982-1.802-3.686-.81-13.594-.81-13.594s4.822 1.97 8.372 1.97 9.252-1.818 9.252-1.818z" mask="url(#d)"/>
        <path fill="#8DE2D2" d="M244.808 15.103c6.545-3.164 9.924-3.034 19.738-2.737 4.69.141 8.107.288 16.277 8.276 7.786 7.61 8.583 16.872 8.583 16.872l-1.905 1.75-5.812-14.693s-6.789 3.761-23.556 4.211c-8.999.241-21.092-5.132-21.8-5.425-.709-.293-4.554 5.624-6.323 8.401-.417.653-2.54 6.251-2.54 6.251h-.977s.845-3.752 2.15-7.472c.922-2.635 2.745-5.254 3.874-6.513 2.723-3.035 5.746-5.756 12.291-8.92" mask="url(#d)"/>
        <path fill="#FFF" d="M293.005 51.15a4.687 4.687 0 0 1-4.69 4.69c-1.573 0-2.227-.07-2.227-.07s-.26.667-.693 1.897c-4.03 11.407-14.907 19.58-27.7 19.58-12.716 0-23.545-8.084-27.626-19.392-.335-.928-.726-2.132-.726-2.132s-1.838.116-3.394.116a4.687 4.687 0 0 1-4.688-4.689 4.687 4.687 0 0 1 4.688-4.688h2.384s.01-.678.024-1.025c.07-1.716.286-2.185.64-3.813 1.344-6.197 7.336-16.1 7.336-16.1s11.585 5.217 20.8 5.272c8.684.053 23.482-4.183 23.482-4.183s3.255 8.148 5.324 14.237c.326.96.653 2.142.853 3.19.105.547.253 2.422.253 2.422h1.27a4.687 4.687 0 0 1 4.69 4.688" mask="url(#d)"/>
        <path stroke="#6D6E71" stroke-width="3" d="M293.005 51.15a4.687 4.687 0 0 1-4.69 4.69c-1.573 0-2.227-.07-2.227-.07s-.26.667-.693 1.897c-4.03 11.407-14.907 19.58-27.7 19.58-12.716 0-23.545-8.084-27.626-19.392-.335-.928-.726-2.132-.726-2.132s-1.838.116-3.394.116a4.687 4.687 0 0 1-4.688-4.689 4.687 4.687 0 0 1 4.688-4.688h2.384s.01-.678.024-1.025c.07-1.716.286-2.185.64-3.813 1.344-6.197 7.336-16.1 7.336-16.1s11.585 5.217 20.8 5.272c8.684.053 23.482-4.183 23.482-4.183s3.255 8.148 5.324 14.237c.326.96.653 2.142.853 3.19.105.547.253 2.422.253 2.422h1.27a4.687 4.687 0 0 1 4.69 4.688z" mask="url(#d)"/>
        <path fill="#6D6E71" d="M243.276 52.808h-.16a1.913 1.913 0 0 1-1.906-1.907v-4.066c0-1.048.859-1.906 1.907-1.906h.159c1.049 0 1.907.858 1.907 1.906V50.9a1.912 1.912 0 0 1-1.907 1.907M270.496 52.808h-.159a1.913 1.913 0 0 1-1.907-1.907v-4.066c0-1.048.86-1.906 1.907-1.906h.16c1.048 0 1.906.858 1.906 1.906V50.9a1.912 1.912 0 0 1-1.907 1.907M248.976 63.128c1.251.468 1.756 3.55 7.8 3.55 6.042 0 6.64-3.55 8.2-3.282 1.634.281 1.959 1.628-.192 3.04-1.572 1.032-4.488 2.261-8.008 2.261-6.448 0-9.77-3.08-9.77-4.054 0-.974.911-1.91 1.97-1.515" mask="url(#d)"/>
        <path fill="#FFF" d="M253.576 156.357c.365-3.418 3.264-7.445 3.264-7.445h-5.044s-2.974 3.696-5.051 5.922c-2.077 2.225-14.757-1.127-14.638-4.118.123-3.115 5.157-18.057 5.157-18.057s12.17 1.366 23.418 1.354c9.846-.01 18.983-1.764 18.626 2.727-.88 11.071-7.637 18.557-11.343 22.065-2.265 2.144-14.743.867-14.39-2.448" mask="url(#d)"/>
        <path stroke="#6D6E71" stroke-width="3" d="M253.576 156.357c.365-3.418 3.264-7.445 3.264-7.445h-5.044s-2.974 3.696-5.051 5.922c-2.077 2.225-14.757-1.127-14.638-4.118.123-3.115 5.157-18.057 5.157-18.057s12.17 1.366 23.418 1.354c9.846-.01 18.983-1.764 18.626 2.727-.88 11.071-7.637 18.557-11.343 22.065-2.265 2.144-14.743.867-14.39-2.448z" mask="url(#d)"/>
        <path stroke="#6D6E71" d="M267.534 35.746s-4.382.83-9.755.83c-5.372 0-10.845-.83-10.845-.83M268.622 37.993s-5.08 1.27-10.452 1.27c-5.373 0-12.064-1.27-12.064-1.27" mask="url(#d)"/>
        <path fill="#FFF" d="M214.644 212.067l-10.415-3.434 27.608-57.068 16.424.963z" mask="url(#d)"/>
        <path stroke="#6D6E71" stroke-width="3" d="M214.644 212.067l-10.415-3.434 27.608-57.068 16.424.963z" mask="url(#d)"/>
        <path fill="#FFF" d="M235.095 214.038l-9.98-5.535 28.674-53.67 14.007 3.27z" mask="url(#d)"/>
        <path stroke="#6D6E71" stroke-width="3" d="M235.095 214.038l-9.98-5.535 28.674-53.67 14.007 3.27z" mask="url(#d)"/>
        <path fill="#FFF" d="M215.966 206.826c-.884 6.376-4.103 11.656-7 11.656-2.898 0-6.017-5.294-7.001-11.656-.977-6.317.299-12.112 6.987-12.374 6.688-.26 7.926 5.797 7.014 12.374" mask="url(#d)"/>
        <path stroke="#6D6E71" stroke-width="3" d="M215.966 206.826c-.884 6.376-4.103 11.656-7 11.656-2.898 0-6.017-5.294-7.001-11.656-.977-6.317.299-12.112 6.987-12.374 6.688-.26 7.926 5.797 7.014 12.374z" mask="url(#d)"/>
        <path fill="#FFF" d="M238.024 210.586c-2.878 5.759-7.617 9.73-10.362 8.804-2.746-.928-4.006-6.942-2.903-13.284 1.096-6.297 4.159-11.38 10.579-9.486 6.42 1.893 5.654 8.027 2.686 13.966" mask="url(#d)"/>
        <path stroke="#6D6E71" stroke-width="3" d="M238.024 210.586c-2.878 5.759-7.617 9.73-10.362 8.804-2.746-.928-4.006-6.942-2.903-13.284 1.096-6.297 4.159-11.38 10.579-9.486 6.42 1.893 5.654 8.027 2.686 13.966z" mask="url(#d)"/>
        <path fill="#BCBEC0" d="M251.767 57.075c2.278-.954 4.733.6 5.5.62.766.019 3.444-1.778 5.483-.62 2.038 1.155 2.038 1.155 2.038 1.811 0 .655-.467 1.191-1.036 1.191 0 0-.666-.62-1.121-.62-.23 0-4.817.62-5.474.62s-5.015-.62-5.239-.62c-.454 0-1.136.62-1.136.62-.57 0-1.036-.535-1.036-1.19 0-.657-.257-.86 2.021-1.813" mask="url(#d)"/>
        <path fill="#A2EDDE" d="M79.464 185.363c0 4.036-13.312 7.308-29.732 7.308S20 189.4 20 185.363s13.311-7.308 29.732-7.308c16.42 0 29.732 3.272 29.732 7.308" mask="url(#d)"/>
        <g mask="url(#d)">
            <path fill="#818181" d="M56.066 151.591c-.518-1.176-.738-2.354-.63-3.419a39.763 39.763 0 0 0-26.434-3.493c-3.25 4.423-4.965 9.664-4.965 15.181 0 3.57.711 7.001 2.112 10.22 8.445-8.339 18.734-14.699 29.917-18.489m4.868 5.12a10.7 10.7 0 0 1-2.674-1.963 10.994 10.994 0 0 1-1.022-1.179c-11.272 3.741-21.629 10.166-30.04 18.643a25.768 25.768 0 0 0 8.92 9.443 25.6 25.6 0 0 0 13.128 3.89 46.95 46.95 0 0 0 11.688-28.835m-4.326-11.118c.828-.83 1.981-1.235 3.295-1.194a46.663 46.663 0 0 0-3.062-9.237 25.726 25.726 0 0 0-7.11-.995c-4.089 0-7.997.931-11.617 2.77a25.927 25.927 0 0 0-6.839 5.055 42.025 42.025 0 0 1 24.942 4.057c.12-.162.247-.314.391-.456m9.352 9.07c.667-.873.487-2.517-.44-4.1a8.522 8.522 0 0 0-1.344-1.728c-.95-.953-2.08-1.658-3.175-1.988-1.206-.364-2.23-.242-2.805.334a1.754 1.754 0 0 0-.426.722c-.306.978.025 2.412.862 3.742a8.877 8.877 0 0 0 1.216 1.516c.806.805 1.724 1.428 2.66 1.804.015.005.03.012.044.02 1.375.542 2.626.476 3.276-.172a1.5 1.5 0 0 0 .132-.15m1.023-5.973c2.246-.554 4.295-.445 5.8-.19a25.724 25.724 0 0 0-13.066-12.32 48.94 48.94 0 0 1 2.59 8.745c1.231.485 2.416 1.278 3.457 2.32.453.453.86.937 1.218 1.445m5.755 22.634c.288-3.61-1.445-9.3-5.956-14.41-.7.454-1.549.685-2.48.685-.375 0-.763-.038-1.157-.113a49.208 49.208 0 0 1-10.855 27.941 25.642 25.642 0 0 0 20.448-14.103m1.789-4.7c.597-2.194.9-4.463.9-6.763 0-3.038-.52-5.99-1.547-8.8-.987-.299-3.208-.8-5.778-.315.63 1.611.678 3.181.138 4.43 2.724 3.044 5.251 7.24 6.286 11.448m3.148-6.763c0 3-.473 5.953-1.407 8.775-1.828 5.53-5.286 10.286-10.003 13.753a27.716 27.716 0 0 1-16.517 5.413 27.87 27.87 0 0 1-14.82-4.24 28.016 28.016 0 0 1-10.11-11.043 27.635 27.635 0 0 1-3.026-12.658c0-6.15 1.96-11.986 5.67-16.873a28.197 28.197 0 0 1 9.638-8.056 27.645 27.645 0 0 1 12.634-3.012c2.811 0 5.59.416 8.252 1.238a27.96 27.96 0 0 1 17.26 15.288 27.725 27.725 0 0 1 2.43 11.415"/>
            <path fill="#FFF" d="M75.426 159.86c0 2.3-.303 4.57-.9 6.763-1.036-4.209-3.563-8.404-6.287-11.448.54-1.249.491-2.819-.138-4.43 2.57-.486 4.791.016 5.778.315a25.537 25.537 0 0 1 1.547 8.8M72.171 170.795c.246-3.083-1.233-7.942-5.086-12.305-.599.388-1.324.585-2.119.585-.319 0-.649-.032-.988-.096a42.026 42.026 0 0 1-9.269 23.86 21.903 21.903 0 0 0 17.462-12.044m-5.389-13.882c4.51 5.11 6.243 10.8 5.955 14.41a25.642 25.642 0 0 1-20.448 14.103 49.207 49.207 0 0 0 10.854-27.942c.396.076.783.114 1.157.114.932 0 1.781-.23 2.482-.685"/>
            <path fill="#A2EDDE" d="M67.085 158.49c3.853 4.363 5.332 9.221 5.086 12.305a21.902 21.902 0 0 1-17.462 12.045 42.026 42.026 0 0 0 9.269-23.862c.339.064.669.097.988.097.796 0 1.52-.197 2.119-.584"/>
            <path fill="#FFF" d="M66.776 147.518c1.616-.398 3.09-.32 4.17-.138a18.483 18.483 0 0 0-9.393-8.857 35.095 35.095 0 0 1 1.862 6.288c.886.35 1.737.918 2.486 1.67.326.324.618.671.876 1.037m6.005.98c-1.503-.254-3.552-.363-5.8.191a11.113 11.113 0 0 0-1.218-1.445c-1.04-1.042-2.225-1.835-3.456-2.32a48.956 48.956 0 0 0-2.59-8.746 25.718 25.718 0 0 1 13.064 12.32"/>
            <path fill="#A2EDDE" d="M70.946 147.38a10.29 10.29 0 0 0-4.17.139 7.793 7.793 0 0 0-.875-1.038c-.75-.751-1.601-1.32-2.486-1.67a35.152 35.152 0 0 0-1.862-6.287 18.487 18.487 0 0 1 9.393 8.857"/>
            <path fill="#FFF" d="M65.253 153.725c.53-.693-.988-1.055-3.274-2.736-2.287-1.681-2.433-3.661-2.891-3.204a1.382 1.382 0 0 0-.34.573c-.24.776.022 1.914.686 2.97.266.425.592.829.966 1.205.64.639 1.37 1.134 2.112 1.432l.036.015c1.09.43 2.086.379 2.6-.135.04-.04.075-.08.105-.12m.267-3.164c.928 1.584 1.108 3.228.44 4.1a1.5 1.5 0 0 1-.131.15c-.65.649-1.901.715-3.276.172l-.045-.02c-.935-.375-1.853-.998-2.66-1.803a8.838 8.838 0 0 1-1.215-1.516c-.837-1.33-1.168-2.764-.862-3.742a1.76 1.76 0 0 1 .426-.722c.575-.576 1.599-.698 2.805-.334 1.095.33 2.224 1.035 3.175 1.988a8.577 8.577 0 0 1 1.343 1.727"/>
            <path fill="#A2EDDE" d="M61.978 150.99c2.287 1.68 3.805 2.041 3.274 2.735-.03.04-.065.08-.105.12-.514.514-1.509.566-2.6.135-.01-.006-.023-.01-.036-.015-.742-.298-1.472-.793-2.11-1.433a6.926 6.926 0 0 1-.967-1.203c-.665-1.057-.927-2.195-.685-2.97a1.39 1.39 0 0 1 .338-.575c.458-.457.604 1.524 2.891 3.205"/>
            <path fill="#FFF" d="M59.903 144.398c-1.314-.04-2.467.364-3.295 1.194a3.838 3.838 0 0 0-.39.455 42.037 42.037 0 0 0-24.943-4.056 25.894 25.894 0 0 1 6.84-5.056 25.418 25.418 0 0 1 11.617-2.769c2.42 0 4.81.334 7.11.995a46.663 46.663 0 0 1 3.061 9.237M58.26 154.748c.81.81 1.723 1.477 2.674 1.962a46.95 46.95 0 0 1-11.688 28.835 25.608 25.608 0 0 1-13.128-3.89 25.778 25.778 0 0 1-8.92-9.443c8.411-8.477 18.768-14.901 30.04-18.643.31.41.648.807 1.022 1.179"/>
            <path fill="#FFF" d="M55.1 151.4c-.462-.868-.657-1.738-.562-2.524-4.95-2.11-10.505-3.226-16.11-3.226-2.49 0-4.977.22-7.395.648-2.888 3.266-4.413 7.132-4.413 11.205 0 2.634.631 5.166 1.88 7.543 7.506-6.155 16.656-10.849 26.6-13.646m.336-3.228c-.108 1.065.112 2.243.63 3.42-11.183 3.79-21.472 10.15-29.917 18.488a25.434 25.434 0 0 1-2.112-10.22c0-5.517 1.715-10.758 4.965-15.18a39.759 39.759 0 0 1 26.434 3.493"/>
            <path fill="#A2EDDE" d="M54.538 148.876c-.094.786.1 1.656.562 2.524-9.945 2.797-19.093 7.492-26.602 13.646-1.247-2.377-1.878-4.91-1.878-7.543 0-4.073 1.525-7.94 4.413-11.204a42.528 42.528 0 0 1 7.395-.648c5.606 0 11.16 1.115 16.11 3.225"/>
        </g>
    </g>
</svg>
