<svg xmlns="http://www.w3.org/2000/svg" width="518" height="246" viewBox="0 0 518 246">
    <g fill="none" fill-rule="evenodd" opacity=".2">
        <path fill="#FFF" d="M619.894 243.603c2.563-5.131 4.018-11.013 4.018-17.27 0-19.946-14.786-36.114-33.026-36.114-9.598 0-18.236 4.476-24.267 11.62-4.688-3.289-10.267-5.2-16.246-5.2-1.645 0-3.263.141-4.838.423-3.813-2.512-8.288-3.953-13.07-3.953-9.65 0-18.045 5.887-22.342 14.559-9.628 3.56-16.555 13.52-16.555 25.246 0 3.802 2.44 10.827 2.44 10.827l123.886-.138z"/>
        <path stroke="#6D6E71" stroke-width="3" d="M619.894 243.603c2.563-5.131 4.018-11.013 4.018-17.27 0-19.946-14.786-36.114-33.026-36.114-9.598 0-18.236 4.476-24.267 11.62-4.688-3.289-10.267-5.2-16.246-5.2-1.645 0-3.263.141-4.838.423-3.813-2.512-8.288-3.953-13.07-3.953-9.65 0-18.045 5.887-22.342 14.559-9.628 3.56-16.555 13.52-16.555 25.246 0 3.802 2.44 10.827 2.44 10.827l123.886-.138z"/>
        <path fill="#FFF" d="M396.035 184.534a63.703 63.703 0 0 0 10.772 1.796L403.995 199l-7.96-14.466zm20.464 13.394l.362-11.576a63.367 63.367 0 0 0 8.97-1.329l-9.332 12.905zm8.145 45.716h-1.73s-5.09-18.09-5.09-30.278c0-13.884 25.725-34.937 26.41-35.594.004-.003.008-.003.015-.01 18.803-11.07 19.336-31.519 19.336-54.915 0-35.172-16.438-53.605-51.623-53.605-35.18 0-46.266 18.433-46.266 53.605 0 24.764-3.297 46.228 17.345 56.76 5.167 7.312 21.207 23.4 21.207 37.723 0 15.598-7.76 26.323-7.76 26.323l-1.504-.019 29.66.01z"/>
        <path stroke="#6D6E71" stroke-width="3" d="M396.035 184.534a63.703 63.703 0 0 0 10.772 1.796L403.995 199l-7.96-14.466zm20.464 13.394l.362-11.576a63.367 63.367 0 0 0 8.97-1.329l-9.332 12.905zm8.145 45.716h-1.73s-5.09-18.09-5.09-30.278c0-13.884 25.725-34.937 26.41-35.594.004-.003.008-.003.015-.01 18.803-11.07 19.336-31.519 19.336-54.915 0-35.172-16.438-53.605-51.623-53.605-35.18 0-46.266 18.433-46.266 53.605 0 24.764-3.297 46.228 17.345 56.76 5.167 7.312 21.207 23.4 21.207 37.723 0 15.598-7.76 26.323-7.76 26.323l-1.504-.019 29.66.01z"/>
        <path fill="#A2EDDE" d="M459.65 129.152c0 34.217-9.979 42.89-16.106 42.89-6.127 0-1.495-24.5-1.495-42.89 0-18.388-4.632-44.935 1.495-44.935s16.105 10.72 16.105 44.935"/>
        <path fill="#FFF" d="M37.518 175.685a73.25 73.25 0 0 0 12.384 2.065l-3.233 14.565-9.151-16.63zm23.527 15.4l.415-13.31a72.766 72.766 0 0 0 10.314-1.528l-10.729 14.837zm9.364 52.558h-1.99s-5.85-20.8-5.85-34.81c0-15.963 29.574-40.167 30.362-40.922.005-.004.009-.004.017-.012 21.617-12.726 22.231-36.237 22.231-63.134 0-40.437-18.9-61.63-59.35-61.63-40.446 0-53.19 21.193-53.19 61.63 0 28.47-3.793 53.146 19.94 65.257 5.94 8.405 24.382 26.901 24.382 43.368 0 17.932-8.922 30.263-8.922 30.263l-1.73-.021 34.1.011z"/>
        <path stroke="#6D6E71" stroke-width="3" d="M37.518 175.685a73.25 73.25 0 0 0 12.384 2.065l-3.233 14.565-9.151-16.63zm23.527 15.4l.415-13.31a72.766 72.766 0 0 0 10.314-1.528l-10.729 14.837zm9.364 52.558h-1.99s-5.85-20.8-5.85-34.81c0-15.963 29.574-40.167 30.362-40.922.005-.004.009-.004.017-.012 21.617-12.726 22.231-36.237 22.231-63.134 0-40.437-18.9-61.63-59.35-61.63-40.446 0-53.19 21.193-53.19 61.63 0 28.47-3.793 53.146 19.94 65.257 5.94 8.405 24.382 26.901 24.382 43.368 0 17.932-8.922 30.263-8.922 30.263l-1.73-.021 34.1.011z"/>
        <path fill="#A2EDDE" d="M110.653 112.014c0 39.337-11.471 49.31-18.515 49.31-7.045 0-1.72-28.17-1.72-49.31s-5.325-51.663 1.72-51.663c7.044 0 18.515 12.325 18.515 51.663M563.904 204.871c0 6.821-7.928 11.5-30.899 12.11-22.97.61-33.542 24.036-33.542 24.036s-4.177-12.2 2.237-21.716c2.631-3.905 6.874-5.239 11.587-9.552 5.646-5.168 4.482-11.557 16.059-13.21 9.961-1.423 10.003 2.482 15.856 3.454 4.762.791 6.085-.566 9.96-.406 4.065.168 8.742 3.102 8.742 5.284"/>
        <path fill="#FFF" d="M298.349 243.603c2.563-5.131 4.018-11.013 4.018-17.27 0-19.946-14.786-36.114-33.026-36.114-9.597 0-18.236 4.476-24.267 11.62-4.688-3.289-10.267-5.2-16.245-5.2-1.645 0-3.264.141-4.838.423-3.814-2.512-8.289-3.953-13.07-3.953-9.65 0-18.044 5.887-22.342 14.559-9.628 3.56-16.555 13.52-16.555 25.246 0 3.802 2.439 10.827 2.439 10.827l123.886-.138z"/>
        <path stroke="#6D6E71" stroke-width="3" d="M298.349 243.603c2.563-5.131 4.018-11.013 4.018-17.27 0-19.946-14.786-36.114-33.026-36.114-9.597 0-18.236 4.476-24.267 11.62-4.688-3.289-10.267-5.2-16.245-5.2-1.645 0-3.264.141-4.838.423-3.814-2.512-8.289-3.953-13.07-3.953-9.65 0-18.044 5.887-22.342 14.559-9.628 3.56-16.555 13.52-16.555 25.246 0 3.802 2.439 10.827 2.439 10.827l123.886-.138z"/>
        <path fill="#FFF" d="M333.843 243.646c1.766-3.536 2.768-7.588 2.768-11.899 0-13.743-10.187-24.884-22.756-24.884-6.613 0-12.565 3.084-16.72 8.006-3.23-2.265-7.074-3.582-11.193-3.582-1.134 0-2.25.097-3.334.29-2.628-1.73-5.711-2.722-9.005-2.722-6.65 0-12.434 4.056-15.395 10.031-6.634 2.452-11.407 9.316-11.407 17.395 0 2.62 1.681 7.46 1.681 7.46l85.36-.095z"/>
        <path stroke="#6D6E71" stroke-width="3" d="M333.843 243.646c1.766-3.536 2.768-7.588 2.768-11.899 0-13.743-10.187-24.884-22.756-24.884-6.613 0-12.565 3.084-16.72 8.006-3.23-2.265-7.074-3.582-11.193-3.582-1.134 0-2.25.097-3.334.29-2.628-1.73-5.711-2.722-9.005-2.722-6.65 0-12.434 4.056-15.395 10.031-6.634 2.452-11.407 9.316-11.407 17.395 0 2.62 1.681 7.46 1.681 7.46l85.36-.095z"/>
        <path fill="#A2EDDE" d="M242.36 204.871c0 6.821-7.928 11.5-30.9 12.11-22.97.61-33.541 24.036-33.541 24.036s-4.177-12.2 2.236-21.716c2.63-3.905 6.875-5.239 11.588-9.552 5.645-5.168 4.481-11.557 16.058-13.21 9.962-1.423 10.003 2.482 15.857 3.454 4.761.791 6.084-.566 9.96-.406 4.065.168 8.742 3.102 8.742 5.284M295.265 216.959c0 4.7-5.463 7.924-21.29 8.343-15.828.42-23.112 16.562-23.112 16.562s-2.877-8.406 1.541-14.963c1.813-2.69 4.737-3.61 7.984-6.581 3.89-3.561 3.089-7.963 11.066-9.103 6.863-.98 6.892 1.711 10.925 2.381 3.28.545 4.191-.39 6.863-.28 2.8.116 6.023 2.137 6.023 3.64"/>
        <path fill="#8DE2D2" d="M279.749 36.774c0 3.713-.715 7.261-2.014 10.514h-95.387a23.16 23.16 0 0 1-6.064-15.655c0-12.847 10.419-23.262 23.268-23.262 2.255 0 4.44.325 6.506.924A30.944 30.944 0 0 1 227.637.576a30.951 30.951 0 0 1 20.752 7.947c.97-.098 1.952-.152 2.95-.152 15.687 0 28.41 12.72 28.41 28.403"/>
    </g>
</svg>
