<svg xmlns="http://www.w3.org/2000/svg" width="302" height="243" viewBox="0 0 302 243">
    <g fill="none" fill-rule="evenodd" opacity=".2">
        <path fill="#FFF" d="M92.228 240.845H77.662l2.173-11.45h9.979z"/>
        <path stroke="#6D6E71" stroke-width="3" d="M92.228 240.845H77.662l2.173-11.45h9.979z"/>
        <path fill="#FFF" d="M92.228 232.556H77.662l2.173-11.45h9.979z"/>
        <path stroke="#6D6E71" stroke-width="3" d="M92.228 232.556H77.662l2.173-11.45h9.979z"/>
        <path fill="#FFF" d="M92.228 224.087H77.662l2.173-11.45h9.979z"/>
        <path stroke="#6D6E71" stroke-width="3" d="M92.228 224.087H77.662l2.173-11.45h9.979z"/>
        <path fill="#FFF" d="M92.228 215.022H77.662l2.173-11.45h9.979z"/>
        <path stroke="#6D6E71" stroke-width="3" d="M92.228 215.022H77.662l2.173-11.45h9.979z"/>
        <path fill="#FFF" d="M92.228 206.442H77.662l2.173-11.45h9.979z"/>
        <path stroke="#6D6E71" stroke-width="3" d="M92.228 206.442H77.662l2.173-11.45h9.979z"/>
        <path fill="#FFF" d="M92.228 196.9H77.662l2.173-11.451h9.979z"/>
        <path stroke="#6D6E71" stroke-width="3" d="M92.228 196.9H77.662l2.173-11.451h9.979z"/>
        <path fill="#FFF" d="M92.228 187.916H77.662l2.173-11.45h9.979z"/>
        <path stroke="#6D6E71" stroke-width="3" d="M92.228 187.916H77.662l2.173-11.45h9.979z"/>
        <path fill="#FFF" d="M92.228 178.777H77.662l2.173-11.45h9.979z"/>
        <path stroke="#6D6E71" stroke-width="3" d="M92.228 178.777H77.662l2.173-11.45h9.979z"/>
        <path fill="#FFF" d="M92.228 169.689H77.662l2.173-11.45h9.979z"/>
        <path stroke="#6D6E71" stroke-width="3" d="M92.228 169.689H77.662l2.173-11.45h9.979z"/>
        <path fill="#FFF" d="M92.228 161.22H77.662l2.173-11.45h9.979z"/>
        <path stroke="#6D6E71" stroke-width="3" d="M92.228 161.22H77.662l2.173-11.45h9.979z"/>
        <path fill="#FFF" d="M92.228 152.274H77.662l2.173-11.45h9.979z"/>
        <path stroke="#6D6E71" stroke-width="3" d="M92.228 152.274H77.662l2.173-11.45h9.979z"/>
        <path fill="#FFF" d="M92.228 145.054H77.662l2.173-11.45h9.979z"/>
        <path stroke="#6D6E71" stroke-width="3" d="M92.228 145.054H77.662l2.173-11.45h9.979z"/>
        <path fill="#FFF" d="M92.228 135.915H77.662l2.173-11.45h9.979z"/>
        <path stroke="#6D6E71" stroke-width="3" d="M92.228 135.915H77.662l2.173-11.45h9.979z"/>
        <path fill="#FFF" d="M92.228 126.827H77.662l2.173-11.45h9.979z"/>
        <path stroke="#6D6E71" stroke-width="3" d="M92.228 126.827H77.662l2.173-11.45h9.979z"/>
        <path fill="#FFF" d="M92.228 118.358H77.662l2.173-11.45h9.979z"/>
        <path stroke="#6D6E71" stroke-width="3" d="M92.228 118.358H77.662l2.173-11.45h9.979z"/>
        <path fill="#FFF" d="M92.228 109.412H77.662l2.173-11.45h9.979z"/>
        <path stroke="#6D6E71" stroke-width="3" d="M92.228 109.412H77.662l2.173-11.45h9.979z"/>
        <path fill="#FFF" d="M91.447 102.259s-6.746-7.76-19.902-9.55c-.594-.08-1.807-2.616-1.807-2.616s-2.385 1.98-3.615 1.757c-1.787-.325-3.623-.7-5.494-1.132-.669-.155-.91-2.534-.91-2.534s-2.243 1.76-2.815 1.607c-2.042-.545-5.086-1.16-7.178-1.855-.97-.323-.146-2.645-.146-2.645s-2.74 1.091-3.459.808c-.594-.232-1.69-.472-2.284-.72-7.66-3.18-14.47-7.163-20.244-11.173-.522-.362.103-2.483.103-2.483s-2.681.646-3.186.27a125.57 125.57 0 0 1-5.47-4.291c-.413-.345.546-2.539.546-2.539s-2.615.783-3.025.424a122.126 122.126 0 0 1-3.329-3.02c-.273-.257.986-2.294.986-2.294s-2.691.659-3.107.247c-3.021-2.993-5.838-2.752-5.838-2.752s13.283-3.325 29.149-.496c.542.097.312 1.808.312 1.808s2.531-1.267 3.14-1.14c6.023 1.26 12.478 3.107 18.951 5.795a103.302 103.302 0 0 1 12.972 6.52c.58.345.363 2.423.363 2.423s2.69-.552 3.34-.132a118.661 118.661 0 0 1 5.419 3.713c.615.446.187 2.62.187 2.62s2.566-.564 3.025-.207c10.185 7.914 13.316 23.587 13.316 23.587"/>
        <path stroke="#6D6E71" stroke-width="3" d="M91.447 102.259s-6.746-7.76-19.902-9.55c-.594-.08-1.807-2.616-1.807-2.616s-2.385 1.98-3.615 1.757c-1.787-.325-3.623-.7-5.494-1.132-.669-.155-.91-2.534-.91-2.534s-2.243 1.76-2.815 1.607c-2.042-.545-5.086-1.16-7.178-1.855-.97-.323-.146-2.645-.146-2.645s-2.74 1.091-3.459.808c-.594-.232-1.69-.472-2.284-.72-7.66-3.18-14.47-7.163-20.244-11.173-.522-.362.103-2.483.103-2.483s-2.681.646-3.186.27a125.57 125.57 0 0 1-5.47-4.291c-.413-.345.546-2.539.546-2.539s-2.615.783-3.025.424a122.126 122.126 0 0 1-3.329-3.02c-.273-.257.986-2.294.986-2.294s-2.691.659-3.107.247c-3.021-2.993-5.838-2.752-5.838-2.752s13.283-3.325 29.149-.496c.542.097.312 1.808.312 1.808s2.531-1.267 3.14-1.14c6.023 1.26 12.478 3.107 18.951 5.795a103.302 103.302 0 0 1 12.972 6.52c.58.345.363 2.423.363 2.423s2.69-.552 3.34-.132a118.661 118.661 0 0 1 5.419 3.713c.615.446.187 2.62.187 2.62s2.566-.564 3.025-.207c10.185 7.914 13.316 23.587 13.316 23.587z"/>
        <path fill="#8DE2D2" d="M87.809 95.58S56.006 77 49.405 74.1c-6.49-2.85-36.682-15.736-36.682-15.736s28.328 9.662 37.692 14.194c9.363 4.533 37.394 23.021 37.394 23.021"/>
        <path fill="#FFF" d="M86.311 100.156S84.103 90.112 73.41 82.243c-.483-.355-.333-3.162-.333-3.162s-3.042.597-4.016-.188a118.856 118.856 0 0 1-4.28-3.624c-.514-.455.413-2.66.413-2.66s-2.812.47-3.24.063c-1.533-1.455-3.911-3.453-5.415-5.065-.697-.748 1.14-2.392 1.14-2.392s-2.929-.354-3.425-.946c-.41-.489-1.257-1.224-1.66-1.726-5.202-6.458-9.275-13.216-12.425-19.501-.285-.568 1.28-2.13 1.28-2.13s-2.664-.718-2.928-1.288a125.706 125.706 0 0 1-2.746-6.387c-.2-.501 1.694-1.968 1.694-1.968s-2.67-.564-2.86-1.076a124.523 124.523 0 0 1-1.476-4.245c-.116-.356 1.964-1.542 1.964-1.542s-2.678-.71-2.845-1.271c-1.22-4.074-3.81-5.211-3.81-5.211s13.254 3.44 25.83 13.52c.429.345-.592 1.737-.592 1.737s2.829.1 3.303.502c4.685 3.99 9.468 8.702 13.864 14.161 3.16 3.923 5.899 7.96 8.267 11.935.344.58-.842 2.3-.842 2.3s2.626.804 2.996 1.483a118.92 118.92 0 0 1 2.98 5.854c.327.687-1.091 2.39-1.091 2.39s2.523.733 2.756 1.266c5.153 11.824.398 27.084.398 27.084"/>
        <path stroke="#6D6E71" stroke-width="3" d="M86.311 100.156S84.103 90.112 73.41 82.243c-.483-.355-.333-3.162-.333-3.162s-3.042.597-4.016-.188a118.856 118.856 0 0 1-4.28-3.624c-.514-.455.413-2.66.413-2.66s-2.812.47-3.24.063c-1.533-1.455-3.911-3.453-5.415-5.065-.697-.748 1.14-2.392 1.14-2.392s-2.929-.354-3.425-.946c-.41-.489-1.257-1.224-1.66-1.726-5.202-6.458-9.275-13.216-12.425-19.501-.285-.568 1.28-2.13 1.28-2.13s-2.664-.718-2.928-1.288a125.706 125.706 0 0 1-2.746-6.387c-.2-.501 1.694-1.968 1.694-1.968s-2.67-.564-2.86-1.076a124.523 124.523 0 0 1-1.476-4.245c-.116-.356 1.964-1.542 1.964-1.542s-2.678-.71-2.845-1.271c-1.22-4.074-3.81-5.211-3.81-5.211s13.254 3.44 25.83 13.52c.429.345-.592 1.737-.592 1.737s2.829.1 3.303.502c4.685 3.99 9.468 8.702 13.864 14.161 3.16 3.923 5.899 7.96 8.267 11.935.344.58-.842 2.3-.842 2.3s2.626.804 2.996 1.483a118.92 118.92 0 0 1 2.98 5.854c.327.687-1.091 2.39-1.091 2.39s2.523.733 2.756 1.266c5.153 11.824.398 27.084.398 27.084z"/>
        <path fill="#8DE2D2" d="M86.315 92.55S67.288 61.014 62.881 55.307c-4.332-5.61-24.67-31.377-24.67-31.377s20.245 22.045 26.296 30.506c6.05 8.463 21.808 38.114 21.808 38.114"/>
        <path fill="#FFF" d="M81.423 102.259s3.691-9.598-.898-22.056c-.207-.563 1.465-2.823 1.465-2.823s-2.868-1.178-3.247-2.37a118.236 118.236 0 0 1-1.577-5.382c-.178-.664 1.811-1.993 1.811-1.993s-2.606-1.155-2.74-1.732c-.475-2.059-1.36-5.037-1.727-7.21-.17-1.009 2.268-1.37 2.268-1.37s-2.248-1.908-2.336-2.676c-.073-.633-.375-1.713-.435-2.355-.782-8.255-.458-16.139.376-23.119.075-.631 2.241-1.073 2.241-1.073s-1.827-2.066-1.733-2.687c.366-2.424.785-4.713 1.227-6.844.11-.527 2.497-.709 2.497-.709s-1.917-1.942-1.792-2.472c.368-1.568.742-3.025 1.107-4.357.098-.361 2.488-.205 2.488-.205s-1.843-2.069-1.675-2.629c1.226-4.07-.307-6.447-.307-6.447s9.166 10.174 14.106 25.514c.17.524-1.45 1.124-1.45 1.124s2.305 1.641 2.479 2.238c1.711 5.911 3.107 12.479 3.768 19.456.476 5.015.538 9.893.323 14.515-.031.674-1.97 1.457-1.97 1.457s1.75 2.116 1.684 2.888a118.6 118.6 0 0 1-.738 6.527c-.106.753-2.228 1.394-2.228 1.394s1.702 2.001 1.602 2.575c-2.215 12.706-14.59 22.82-14.59 22.82"/>
        <path stroke="#6D6E71" stroke-width="3" d="M81.423 102.259s3.691-9.598-.898-22.056c-.207-.563 1.465-2.823 1.465-2.823s-2.868-1.178-3.247-2.37a118.236 118.236 0 0 1-1.577-5.382c-.178-.664 1.811-1.993 1.811-1.993s-2.606-1.155-2.74-1.732c-.475-2.059-1.36-5.037-1.727-7.21-.17-1.009 2.268-1.37 2.268-1.37s-2.248-1.908-2.336-2.676c-.073-.633-.375-1.713-.435-2.355-.782-8.255-.458-16.139.376-23.119.075-.631 2.241-1.073 2.241-1.073s-1.827-2.066-1.733-2.687c.366-2.424.785-4.713 1.227-6.844.11-.527 2.497-.709 2.497-.709s-1.917-1.942-1.792-2.472c.368-1.568.742-3.025 1.107-4.357.098-.361 2.488-.205 2.488-.205s-1.843-2.069-1.675-2.629c1.226-4.07-.307-6.447-.307-6.447s9.166 10.174 14.106 25.514c.17.524-1.45 1.124-1.45 1.124s2.305 1.641 2.479 2.238c1.711 5.911 3.107 12.479 3.768 19.456.476 5.015.538 9.893.323 14.515-.031.674-1.97 1.457-1.97 1.457s1.75 2.116 1.684 2.888a118.6 118.6 0 0 1-.738 6.527c-.106.753-2.228 1.394-2.228 1.394s1.702 2.001 1.602 2.575c-2.215 12.706-14.59 22.82-14.59 22.82z"/>
        <path fill="#8DE2D2" d="M85.617 95.913s1.496-36.8.963-43.992c-.525-7.068-3.301-39.777-3.301-39.777s4.75 29.551 5.136 39.947c.388 10.396-2.798 43.822-2.798 43.822"/>
        <path fill="#FFF" d="M88.476 100.518s.783-9.262 9.429-17.584c.39-.375-.078-2.873-.078-2.873s2.797.173 3.575-.646c1.131-1.19 2.27-2.443 3.406-3.757.405-.468-.688-2.334-.688-2.334s2.576.088 2.911-.328c1.2-1.486 3.093-3.56 4.248-5.183.537-.753-1.304-2.007-1.304-2.007s2.581-.666 2.955-1.255c.31-.487.981-1.246 1.283-1.744 3.893-6.405 6.738-12.944 8.813-18.95.188-.543-1.4-1.757-1.4-1.757s2.301-.96 2.47-1.502c.658-2.115 1.22-4.142 1.7-6.05.119-.47-1.75-1.56-1.75-1.56s2.324-.823 2.432-1.304c.32-1.42.59-2.753.819-3.98.062-.333-1.944-1.148-1.944-1.148s2.315-.955 2.399-1.477c.609-3.795 2.793-5.122 2.793-5.122s-11.466 4.658-21.535 15.186c-.344.36.737 1.485.737 1.485s-2.522.426-2.899.844c-3.723 4.131-7.449 8.921-10.738 14.336a93.319 93.319 0 0 0-5.987 11.676c-.24.561 1.027 1.961 1.027 1.961s-2.257 1.033-2.508 1.686a107.57 107.57 0 0 0-1.974 5.599c-.211.654 1.263 2.013 1.263 2.013s-2.175.955-2.32 1.461c-3.21 11.207 2.865 24.314 2.865 24.314"/>
        <path stroke="#6D6E71" stroke-width="3" d="M88.476 100.518s.783-9.262 9.429-17.584c.39-.375-.078-2.873-.078-2.873s2.797.173 3.575-.646c1.131-1.19 2.27-2.443 3.406-3.757.405-.468-.688-2.334-.688-2.334s2.576.088 2.911-.328c1.2-1.486 3.093-3.56 4.248-5.183.537-.753-1.304-2.007-1.304-2.007s2.581-.666 2.955-1.255c.31-.487.981-1.246 1.283-1.744 3.893-6.405 6.738-12.944 8.813-18.95.188-.543-1.4-1.757-1.4-1.757s2.301-.96 2.47-1.502c.658-2.115 1.22-4.142 1.7-6.05.119-.47-1.75-1.56-1.75-1.56s2.324-.823 2.432-1.304c.32-1.42.59-2.753.819-3.98.062-.333-1.944-1.148-1.944-1.148s2.315-.955 2.399-1.477c.609-3.795 2.793-5.122 2.793-5.122s-11.466 4.658-21.535 15.186c-.344.36.737 1.485.737 1.485s-2.522.426-2.899.844c-3.723 4.131-7.449 8.921-10.738 14.336a93.319 93.319 0 0 0-5.987 11.676c-.24.561 1.027 1.961 1.027 1.961s-2.257 1.033-2.508 1.686a107.57 107.57 0 0 0-1.974 5.599c-.211.654 1.263 2.013 1.263 2.013s-2.175.955-2.32 1.461c-3.21 11.207 2.865 24.314 2.865 24.314z"/>
        <path fill="#8DE2D2" d="M87.568 93.703s13.297-30.518 16.567-36.156c3.214-5.542 18.372-31.048 18.372-31.048s-15.517 22.16-19.932 30.462c-4.415 8.301-15.007 36.742-15.007 36.742"/>
        <path fill="#FFF" d="M87.673 99.44s3.72-7.823 13.993-12.25c.463-.199.875-2.531.875-2.531s2.383 1.068 3.331.608a101.12 101.12 0 0 0 4.203-2.16c.508-.276.166-2.262.166-2.262s2.218.92 2.647.668c1.535-.904 3.867-2.092 5.407-3.129.714-.481-.48-2.18-.48-2.18s2.47.266 2.99-.126c.43-.323 1.265-.765 1.692-1.1 5.496-4.313 10.123-9.085 13.903-13.645.342-.412-.645-1.991-.645-1.991s2.322-.083 2.647-.501a106.278 106.278 0 0 0 3.469-4.72c.258-.374-1.017-1.937-1.017-1.937s2.299.044 2.551-.34a102.758 102.758 0 0 0 2.019-3.204c.163-.27-1.32-1.639-1.32-1.639s2.334-.074 2.579-.502c1.775-3.111 4.116-3.553 4.116-3.553s-11.532.304-23.77 6.187c-.417.201.155 1.538.155 1.538s-2.34-.456-2.806-.215c-4.603 2.384-9.425 5.342-14.07 8.988a87.01 87.01 0 0 0-9.053 8.225c-.394.41.252 2.047.252 2.047s-2.307.16-2.74.648a100.487 100.487 0 0 0-3.559 4.238c-.398.502.441 2.17.441 2.17s-2.21.121-2.502.515c-6.476 8.726-5.474 22.154-5.474 22.154"/>
        <path stroke="#6D6E71" stroke-width="3" d="M87.673 99.44s3.72-7.823 13.993-12.25c.463-.199.875-2.531.875-2.531s2.383 1.068 3.331.608a101.12 101.12 0 0 0 4.203-2.16c.508-.276.166-2.262.166-2.262s2.218.92 2.647.668c1.535-.904 3.867-2.092 5.407-3.129.714-.481-.48-2.18-.48-2.18s2.47.266 2.99-.126c.43-.323 1.265-.765 1.692-1.1 5.496-4.313 10.123-9.085 13.903-13.645.342-.412-.645-1.991-.645-1.991s2.322-.083 2.647-.501a106.278 106.278 0 0 0 3.469-4.72c.258-.374-1.017-1.937-1.017-1.937s2.299.044 2.551-.34a102.758 102.758 0 0 0 2.019-3.204c.163-.27-1.32-1.639-1.32-1.639s2.334-.074 2.579-.502c1.775-3.111 4.116-3.553 4.116-3.553s-11.532.304-23.77 6.187c-.417.201.155 1.538.155 1.538s-2.34-.456-2.806-.215c-4.603 2.384-9.425 5.342-14.07 8.988a87.01 87.01 0 0 0-9.053 8.225c-.394.41.252 2.047.252 2.047s-2.307.16-2.74.648a100.487 100.487 0 0 0-3.559 4.238c-.398.502.441 2.17.441 2.17s-2.21.121-2.502.515c-6.476 8.726-5.474 22.154-5.474 22.154z"/>
        <path fill="#8DE2D2" d="M89.115 93.197s21.61-22.268 26.313-26.114c4.622-3.781 26.213-21.065 26.213-21.065s-20.808 14.246-27.382 20.042c-6.574 5.795-25.144 27.137-25.144 27.137"/>
        <path fill="#FFF" d="M84.593 93.34c0 5.797-4.7 10.496-10.496 10.496-5.798 0-10.497-4.7-10.497-10.496 0-5.797 4.7-10.497 10.497-10.497 5.796 0 10.496 4.7 10.496 10.497"/>
        <path stroke="#6D6E71" stroke-width="3" d="M84.593 93.34c0 5.797-4.7 10.496-10.496 10.496-5.798 0-10.497-4.7-10.497-10.496 0-5.797 4.7-10.497 10.497-10.497 5.796 0 10.496 4.7 10.496 10.497z"/>
        <path fill="#FFF" d="M94.273 96.539c0 5.797-4.7 10.496-10.496 10.496-5.798 0-10.497-4.699-10.497-10.496 0-5.797 4.7-10.497 10.497-10.497 5.796 0 10.496 4.7 10.496 10.497"/>
        <path stroke="#6D6E71" stroke-width="3" d="M94.273 96.539c0 5.797-4.7 10.496-10.496 10.496-5.798 0-10.497-4.699-10.497-10.496 0-5.797 4.7-10.497 10.497-10.497 5.796 0 10.496 4.7 10.496 10.497z"/>
        <path fill="#FFF" d="M104.147 94.319c0 5.797-4.7 10.496-10.496 10.496-5.798 0-10.497-4.7-10.497-10.496 0-5.797 4.7-10.496 10.497-10.496 5.796 0 10.496 4.7 10.496 10.496"/>
        <path stroke="#6D6E71" stroke-width="3" d="M104.147 94.319c0 5.797-4.7 10.496-10.496 10.496-5.798 0-10.497-4.7-10.497-10.496 0-5.797 4.7-10.496 10.497-10.496 5.796 0 10.496 4.7 10.496 10.496z"/>
        <g>
            <path fill="#FFF" d="M242.228 240.845h-14.566l2.173-11.45h9.979z"/>
            <path stroke="#6D6E71" stroke-width="3" d="M242.228 240.845h-14.566l2.173-11.45h9.979z"/>
            <path fill="#FFF" d="M242.228 232.556h-14.566l2.173-11.45h9.979z"/>
            <path stroke="#6D6E71" stroke-width="3" d="M242.228 232.556h-14.566l2.173-11.45h9.979z"/>
            <path fill="#FFF" d="M242.228 224.087h-14.566l2.173-11.45h9.979z"/>
            <path stroke="#6D6E71" stroke-width="3" d="M242.228 224.087h-14.566l2.173-11.45h9.979z"/>
            <path fill="#FFF" d="M242.228 215.022h-14.566l2.173-11.45h9.979z"/>
            <path stroke="#6D6E71" stroke-width="3" d="M242.228 215.022h-14.566l2.173-11.45h9.979z"/>
            <path fill="#FFF" d="M242.228 206.442h-14.566l2.173-11.45h9.979z"/>
            <path stroke="#6D6E71" stroke-width="3" d="M242.228 206.442h-14.566l2.173-11.45h9.979z"/>
            <path fill="#FFF" d="M242.228 196.9h-14.566l2.173-11.451h9.979z"/>
            <path stroke="#6D6E71" stroke-width="3" d="M242.228 196.9h-14.566l2.173-11.451h9.979z"/>
            <path fill="#FFF" d="M242.228 187.916h-14.566l2.173-11.45h9.979z"/>
            <path stroke="#6D6E71" stroke-width="3" d="M242.228 187.916h-14.566l2.173-11.45h9.979z"/>
            <path fill="#FFF" d="M242.228 178.777h-14.566l2.173-11.45h9.979z"/>
            <path stroke="#6D6E71" stroke-width="3" d="M242.228 178.777h-14.566l2.173-11.45h9.979z"/>
            <path fill="#FFF" d="M242.228 169.689h-14.566l2.173-11.45h9.979z"/>
            <path stroke="#6D6E71" stroke-width="3" d="M242.228 169.689h-14.566l2.173-11.45h9.979z"/>
            <path fill="#FFF" d="M242.228 161.22h-14.566l2.173-11.45h9.979z"/>
            <path stroke="#6D6E71" stroke-width="3" d="M242.228 161.22h-14.566l2.173-11.45h9.979z"/>
            <path fill="#FFF" d="M242.228 152.274h-14.566l2.173-11.45h9.979z"/>
            <path stroke="#6D6E71" stroke-width="3" d="M242.228 152.274h-14.566l2.173-11.45h9.979z"/>
            <path fill="#FFF" d="M242.228 145.054h-14.566l2.173-11.45h9.979z"/>
            <path stroke="#6D6E71" stroke-width="3" d="M242.228 145.054h-14.566l2.173-11.45h9.979z"/>
            <path fill="#FFF" d="M242.228 135.915h-14.566l2.173-11.45h9.979z"/>
            <path stroke="#6D6E71" stroke-width="3" d="M242.228 135.915h-14.566l2.173-11.45h9.979z"/>
            <path fill="#FFF" d="M242.228 126.827h-14.566l2.173-11.45h9.979z"/>
            <path stroke="#6D6E71" stroke-width="3" d="M242.228 126.827h-14.566l2.173-11.45h9.979z"/>
            <path fill="#FFF" d="M242.228 118.358h-14.566l2.173-11.45h9.979z"/>
            <path stroke="#6D6E71" stroke-width="3" d="M242.228 118.358h-14.566l2.173-11.45h9.979z"/>
            <path fill="#FFF" d="M242.228 109.412h-14.566l2.173-11.45h9.979z"/>
            <path stroke="#6D6E71" stroke-width="3" d="M242.228 109.412h-14.566l2.173-11.45h9.979z"/>
            <path fill="#FFF" d="M241.447 102.259s-6.746-7.76-19.902-9.55c-.594-.08-1.807-2.616-1.807-2.616s-2.385 1.98-3.615 1.757c-1.787-.325-3.623-.7-5.494-1.132-.669-.155-.91-2.534-.91-2.534s-2.243 1.76-2.815 1.607c-2.042-.545-5.086-1.16-7.178-1.855-.97-.323-.146-2.645-.146-2.645s-2.74 1.091-3.459.808c-.594-.232-1.69-.472-2.284-.72-7.66-3.18-14.47-7.163-20.244-11.173-.522-.362.103-2.483.103-2.483s-2.681.646-3.186.27a125.57 125.57 0 0 1-5.47-4.291c-.413-.345.546-2.539.546-2.539s-2.615.783-3.025.424a122.126 122.126 0 0 1-3.329-3.02c-.273-.257.986-2.294.986-2.294s-2.691.659-3.107.247c-3.021-2.993-5.838-2.752-5.838-2.752s13.283-3.325 29.149-.496c.542.097.312 1.808.312 1.808s2.531-1.267 3.14-1.14c6.023 1.26 12.478 3.107 18.951 5.795a103.302 103.302 0 0 1 12.972 6.52c.58.345.363 2.423.363 2.423s2.69-.552 3.34-.132a118.661 118.661 0 0 1 5.419 3.713c.615.446.187 2.62.187 2.62s2.566-.564 3.025-.207c10.185 7.914 13.316 23.587 13.316 23.587"/>
            <path stroke="#6D6E71" stroke-width="3" d="M241.447 102.259s-6.746-7.76-19.902-9.55c-.594-.08-1.807-2.616-1.807-2.616s-2.385 1.98-3.615 1.757c-1.787-.325-3.623-.7-5.494-1.132-.669-.155-.91-2.534-.91-2.534s-2.243 1.76-2.815 1.607c-2.042-.545-5.086-1.16-7.178-1.855-.97-.323-.146-2.645-.146-2.645s-2.74 1.091-3.459.808c-.594-.232-1.69-.472-2.284-.72-7.66-3.18-14.47-7.163-20.244-11.173-.522-.362.103-2.483.103-2.483s-2.681.646-3.186.27a125.57 125.57 0 0 1-5.47-4.291c-.413-.345.546-2.539.546-2.539s-2.615.783-3.025.424a122.126 122.126 0 0 1-3.329-3.02c-.273-.257.986-2.294.986-2.294s-2.691.659-3.107.247c-3.021-2.993-5.838-2.752-5.838-2.752s13.283-3.325 29.149-.496c.542.097.312 1.808.312 1.808s2.531-1.267 3.14-1.14c6.023 1.26 12.478 3.107 18.951 5.795a103.302 103.302 0 0 1 12.972 6.52c.58.345.363 2.423.363 2.423s2.69-.552 3.34-.132a118.661 118.661 0 0 1 5.419 3.713c.615.446.187 2.62.187 2.62s2.566-.564 3.025-.207c10.185 7.914 13.316 23.587 13.316 23.587z"/>
            <path fill="#8DE2D2" d="M237.809 95.58S206.006 77 199.405 74.1c-6.49-2.85-36.682-15.736-36.682-15.736s28.328 9.662 37.692 14.194c9.363 4.533 37.394 23.021 37.394 23.021"/>
            <path fill="#FFF" d="M236.311 100.156s-2.208-10.044-12.901-17.913c-.483-.355-.333-3.162-.333-3.162s-3.042.597-4.016-.188a118.856 118.856 0 0 1-4.28-3.624c-.514-.455.413-2.66.413-2.66s-2.812.47-3.24.063c-1.533-1.455-3.911-3.453-5.415-5.065-.697-.748 1.14-2.392 1.14-2.392s-2.929-.354-3.425-.946c-.41-.489-1.257-1.224-1.66-1.726-5.202-6.458-9.275-13.216-12.425-19.501-.285-.568 1.28-2.13 1.28-2.13s-2.664-.718-2.928-1.288a125.706 125.706 0 0 1-2.746-6.387c-.2-.501 1.694-1.968 1.694-1.968s-2.67-.564-2.86-1.076a124.523 124.523 0 0 1-1.476-4.245c-.116-.356 1.964-1.542 1.964-1.542s-2.678-.71-2.845-1.271c-1.22-4.074-3.81-5.211-3.81-5.211s13.254 3.44 25.83 13.52c.429.345-.592 1.737-.592 1.737s2.829.1 3.303.502c4.685 3.99 9.468 8.702 13.864 14.161 3.16 3.923 5.899 7.96 8.267 11.935.344.58-.842 2.3-.842 2.3s2.626.804 2.996 1.483a118.92 118.92 0 0 1 2.98 5.854c.327.687-1.091 2.39-1.091 2.39s2.523.733 2.756 1.266c5.153 11.824.398 27.084.398 27.084"/>
            <path stroke="#6D6E71" stroke-width="3" d="M236.311 100.156s-2.208-10.044-12.901-17.913c-.483-.355-.333-3.162-.333-3.162s-3.042.597-4.016-.188a118.856 118.856 0 0 1-4.28-3.624c-.514-.455.413-2.66.413-2.66s-2.812.47-3.24.063c-1.533-1.455-3.911-3.453-5.415-5.065-.697-.748 1.14-2.392 1.14-2.392s-2.929-.354-3.425-.946c-.41-.489-1.257-1.224-1.66-1.726-5.202-6.458-9.275-13.216-12.425-19.501-.285-.568 1.28-2.13 1.28-2.13s-2.664-.718-2.928-1.288a125.706 125.706 0 0 1-2.746-6.387c-.2-.501 1.694-1.968 1.694-1.968s-2.67-.564-2.86-1.076a124.523 124.523 0 0 1-1.476-4.245c-.116-.356 1.964-1.542 1.964-1.542s-2.678-.71-2.845-1.271c-1.22-4.074-3.81-5.211-3.81-5.211s13.254 3.44 25.83 13.52c.429.345-.592 1.737-.592 1.737s2.829.1 3.303.502c4.685 3.99 9.468 8.702 13.864 14.161 3.16 3.923 5.899 7.96 8.267 11.935.344.58-.842 2.3-.842 2.3s2.626.804 2.996 1.483a118.92 118.92 0 0 1 2.98 5.854c.327.687-1.091 2.39-1.091 2.39s2.523.733 2.756 1.266c5.153 11.824.398 27.084.398 27.084z"/>
            <path fill="#8DE2D2" d="M236.315 92.55s-19.027-31.536-23.434-37.243c-4.332-5.61-24.67-31.377-24.67-31.377s20.245 22.045 26.296 30.506c6.05 8.463 21.808 38.114 21.808 38.114"/>
            <path fill="#FFF" d="M231.423 102.259s3.691-9.598-.898-22.056c-.207-.563 1.465-2.823 1.465-2.823s-2.868-1.178-3.247-2.37a118.236 118.236 0 0 1-1.577-5.382c-.178-.664 1.811-1.993 1.811-1.993s-2.606-1.155-2.74-1.732c-.475-2.059-1.36-5.037-1.727-7.21-.17-1.009 2.268-1.37 2.268-1.37s-2.248-1.908-2.336-2.676c-.073-.633-.375-1.713-.435-2.355-.782-8.255-.458-16.139.376-23.119.075-.631 2.241-1.073 2.241-1.073s-1.827-2.066-1.733-2.687c.366-2.424.785-4.713 1.227-6.844.11-.527 2.497-.709 2.497-.709s-1.917-1.942-1.792-2.472c.368-1.568.742-3.025 1.107-4.357.098-.361 2.488-.205 2.488-.205s-1.843-2.069-1.675-2.629c1.226-4.07-.307-6.447-.307-6.447s9.166 10.174 14.106 25.514c.17.524-1.45 1.124-1.45 1.124s2.305 1.641 2.479 2.238c1.711 5.911 3.107 12.479 3.768 19.456.476 5.015.538 9.893.323 14.515-.031.674-1.97 1.457-1.97 1.457s1.75 2.116 1.684 2.888a118.6 118.6 0 0 1-.738 6.527c-.106.753-2.228 1.394-2.228 1.394s1.702 2.001 1.602 2.575c-2.215 12.706-14.59 22.82-14.59 22.82"/>
            <path stroke="#6D6E71" stroke-width="3" d="M231.423 102.259s3.691-9.598-.898-22.056c-.207-.563 1.465-2.823 1.465-2.823s-2.868-1.178-3.247-2.37a118.236 118.236 0 0 1-1.577-5.382c-.178-.664 1.811-1.993 1.811-1.993s-2.606-1.155-2.74-1.732c-.475-2.059-1.36-5.037-1.727-7.21-.17-1.009 2.268-1.37 2.268-1.37s-2.248-1.908-2.336-2.676c-.073-.633-.375-1.713-.435-2.355-.782-8.255-.458-16.139.376-23.119.075-.631 2.241-1.073 2.241-1.073s-1.827-2.066-1.733-2.687c.366-2.424.785-4.713 1.227-6.844.11-.527 2.497-.709 2.497-.709s-1.917-1.942-1.792-2.472c.368-1.568.742-3.025 1.107-4.357.098-.361 2.488-.205 2.488-.205s-1.843-2.069-1.675-2.629c1.226-4.07-.307-6.447-.307-6.447s9.166 10.174 14.106 25.514c.17.524-1.45 1.124-1.45 1.124s2.305 1.641 2.479 2.238c1.711 5.911 3.107 12.479 3.768 19.456.476 5.015.538 9.893.323 14.515-.031.674-1.97 1.457-1.97 1.457s1.75 2.116 1.684 2.888a118.6 118.6 0 0 1-.738 6.527c-.106.753-2.228 1.394-2.228 1.394s1.702 2.001 1.602 2.575c-2.215 12.706-14.59 22.82-14.59 22.82z"/>
            <path fill="#8DE2D2" d="M235.617 95.913s1.496-36.8.963-43.992c-.525-7.068-3.301-39.777-3.301-39.777s4.75 29.551 5.136 39.947c.388 10.396-2.798 43.822-2.798 43.822"/>
            <path fill="#FFF" d="M238.476 100.518s.783-9.262 9.429-17.584c.39-.375-.078-2.873-.078-2.873s2.797.173 3.575-.646c1.131-1.19 2.27-2.443 3.406-3.757.405-.468-.688-2.334-.688-2.334s2.576.088 2.911-.328c1.2-1.486 3.093-3.56 4.248-5.183.537-.753-1.304-2.007-1.304-2.007s2.581-.666 2.955-1.255c.31-.487.981-1.246 1.283-1.744 3.893-6.405 6.738-12.944 8.813-18.95.188-.543-1.4-1.757-1.4-1.757s2.301-.96 2.47-1.502c.658-2.115 1.22-4.142 1.7-6.05.119-.47-1.75-1.56-1.75-1.56s2.324-.823 2.432-1.304c.32-1.42.59-2.753.819-3.98.062-.333-1.944-1.148-1.944-1.148s2.315-.955 2.399-1.477c.609-3.795 2.793-5.122 2.793-5.122s-11.466 4.658-21.535 15.186c-.344.36.737 1.485.737 1.485s-2.522.426-2.899.844c-3.723 4.131-7.449 8.921-10.738 14.336a93.319 93.319 0 0 0-5.987 11.676c-.24.561 1.027 1.961 1.027 1.961s-2.257 1.033-2.508 1.686a107.57 107.57 0 0 0-1.974 5.599c-.211.654 1.263 2.013 1.263 2.013s-2.175.955-2.32 1.461c-3.21 11.207 2.865 24.314 2.865 24.314"/>
            <path stroke="#6D6E71" stroke-width="3" d="M238.476 100.518s.783-9.262 9.429-17.584c.39-.375-.078-2.873-.078-2.873s2.797.173 3.575-.646c1.131-1.19 2.27-2.443 3.406-3.757.405-.468-.688-2.334-.688-2.334s2.576.088 2.911-.328c1.2-1.486 3.093-3.56 4.248-5.183.537-.753-1.304-2.007-1.304-2.007s2.581-.666 2.955-1.255c.31-.487.981-1.246 1.283-1.744 3.893-6.405 6.738-12.944 8.813-18.95.188-.543-1.4-1.757-1.4-1.757s2.301-.96 2.47-1.502c.658-2.115 1.22-4.142 1.7-6.05.119-.47-1.75-1.56-1.75-1.56s2.324-.823 2.432-1.304c.32-1.42.59-2.753.819-3.98.062-.333-1.944-1.148-1.944-1.148s2.315-.955 2.399-1.477c.609-3.795 2.793-5.122 2.793-5.122s-11.466 4.658-21.535 15.186c-.344.36.737 1.485.737 1.485s-2.522.426-2.899.844c-3.723 4.131-7.449 8.921-10.738 14.336a93.319 93.319 0 0 0-5.987 11.676c-.24.561 1.027 1.961 1.027 1.961s-2.257 1.033-2.508 1.686a107.57 107.57 0 0 0-1.974 5.599c-.211.654 1.263 2.013 1.263 2.013s-2.175.955-2.32 1.461c-3.21 11.207 2.865 24.314 2.865 24.314z"/>
            <path fill="#8DE2D2" d="M237.568 93.703s13.297-30.518 16.567-36.156c3.214-5.542 18.372-31.048 18.372-31.048s-15.517 22.16-19.932 30.462c-4.415 8.301-15.007 36.742-15.007 36.742"/>
            <path fill="#FFF" d="M237.673 99.44s3.72-7.823 13.993-12.25c.463-.199.875-2.531.875-2.531s2.383 1.068 3.331.608a101.12 101.12 0 0 0 4.203-2.16c.508-.276.166-2.262.166-2.262s2.218.92 2.647.668c1.535-.904 3.867-2.092 5.407-3.129.714-.481-.48-2.18-.48-2.18s2.47.266 2.99-.126c.43-.323 1.265-.765 1.692-1.1 5.496-4.313 10.123-9.085 13.903-13.645.342-.412-.645-1.991-.645-1.991s2.322-.083 2.647-.501a106.278 106.278 0 0 0 3.469-4.72c.258-.374-1.017-1.937-1.017-1.937s2.299.044 2.551-.34a102.758 102.758 0 0 0 2.019-3.204c.163-.27-1.32-1.639-1.32-1.639s2.334-.074 2.579-.502c1.775-3.111 4.116-3.553 4.116-3.553s-11.532.304-23.77 6.187c-.417.201.155 1.538.155 1.538s-2.34-.456-2.806-.215c-4.603 2.384-9.425 5.342-14.07 8.988a87.01 87.01 0 0 0-9.053 8.225c-.394.41.252 2.047.252 2.047s-2.307.16-2.74.648a100.487 100.487 0 0 0-3.559 4.238c-.398.502.441 2.17.441 2.17s-2.21.121-2.502.515c-6.476 8.726-5.474 22.154-5.474 22.154"/>
            <path stroke="#6D6E71" stroke-width="3" d="M237.673 99.44s3.72-7.823 13.993-12.25c.463-.199.875-2.531.875-2.531s2.383 1.068 3.331.608a101.12 101.12 0 0 0 4.203-2.16c.508-.276.166-2.262.166-2.262s2.218.92 2.647.668c1.535-.904 3.867-2.092 5.407-3.129.714-.481-.48-2.18-.48-2.18s2.47.266 2.99-.126c.43-.323 1.265-.765 1.692-1.1 5.496-4.313 10.123-9.085 13.903-13.645.342-.412-.645-1.991-.645-1.991s2.322-.083 2.647-.501a106.278 106.278 0 0 0 3.469-4.72c.258-.374-1.017-1.937-1.017-1.937s2.299.044 2.551-.34a102.758 102.758 0 0 0 2.019-3.204c.163-.27-1.32-1.639-1.32-1.639s2.334-.074 2.579-.502c1.775-3.111 4.116-3.553 4.116-3.553s-11.532.304-23.77 6.187c-.417.201.155 1.538.155 1.538s-2.34-.456-2.806-.215c-4.603 2.384-9.425 5.342-14.07 8.988a87.01 87.01 0 0 0-9.053 8.225c-.394.41.252 2.047.252 2.047s-2.307.16-2.74.648a100.487 100.487 0 0 0-3.559 4.238c-.398.502.441 2.17.441 2.17s-2.21.121-2.502.515c-6.476 8.726-5.474 22.154-5.474 22.154z"/>
            <path fill="#8DE2D2" d="M239.115 93.197s21.61-22.268 26.313-26.114c4.622-3.781 26.213-21.065 26.213-21.065s-20.808 14.246-27.382 20.042c-6.574 5.795-25.144 27.137-25.144 27.137"/>
            <path fill="#FFF" d="M234.593 93.34c0 5.797-4.7 10.496-10.496 10.496-5.798 0-10.497-4.7-10.497-10.496 0-5.797 4.7-10.497 10.497-10.497 5.796 0 10.496 4.7 10.496 10.497"/>
            <path stroke="#6D6E71" stroke-width="3" d="M234.593 93.34c0 5.797-4.7 10.496-10.496 10.496-5.798 0-10.497-4.7-10.497-10.496 0-5.797 4.7-10.497 10.497-10.497 5.796 0 10.496 4.7 10.496 10.497z"/>
            <path fill="#FFF" d="M244.273 96.539c0 5.797-4.7 10.496-10.496 10.496-5.798 0-10.497-4.699-10.497-10.496 0-5.797 4.7-10.497 10.497-10.497 5.796 0 10.496 4.7 10.496 10.497"/>
            <path stroke="#6D6E71" stroke-width="3" d="M244.273 96.539c0 5.797-4.7 10.496-10.496 10.496-5.798 0-10.497-4.699-10.497-10.496 0-5.797 4.7-10.497 10.497-10.497 5.796 0 10.496 4.7 10.496 10.497z"/>
            <path fill="#FFF" d="M254.147 94.319c0 5.797-4.7 10.496-10.496 10.496-5.798 0-10.497-4.7-10.497-10.496 0-5.797 4.7-10.496 10.497-10.496 5.796 0 10.496 4.7 10.496 10.496"/>
            <path stroke="#6D6E71" stroke-width="3" d="M254.147 94.319c0 5.797-4.7 10.496-10.496 10.496-5.798 0-10.497-4.7-10.497-10.496 0-5.797 4.7-10.496 10.497-10.496 5.796 0 10.496 4.7 10.496 10.496z"/>
        </g>
    </g>
</svg>
