<svg xmlns="http://www.w3.org/2000/svg" width="514" height="248" viewBox="0 0 514 248">
    <g fill="none" fill-rule="evenodd">
        <path fill="#FFF" d="M52.653 210.546l1.026 19.6.583 4.855h15.814s1.676-4.716-.775-6.834c-.91-.784-6.375.312-8 .345-.058-3.536-1.894-8.22 1.14-11.645 2.954-3.336 6.218-4.463 6.218-4.463a14.3 14.3 0 0 0 1.976.137c8.303 0 15.032-7.082 15.032-15.815 0-8.734-5.789-7.226-14.091-7.226-8.301 0-15.973-1.508-15.973 7.226 0 2.3.669 8.401.669 8.401l-3.619 5.42z"/>
        <path stroke="#6D6E71" stroke-width="3" d="M52.653 210.546l1.026 19.6.583 4.855h15.814s1.676-4.716-.775-6.834c-.91-.784-6.375.312-8 .345-.058-3.536-1.894-8.22 1.14-11.645 2.954-3.336 6.218-4.463 6.218-4.463a14.3 14.3 0 0 0 1.976.137c8.303 0 15.032-7.082 15.032-15.815 0-8.734-5.789-7.226-14.091-7.226-8.301 0-15.973-1.508-15.973 7.226 0 2.3.669 8.401.669 8.401l-3.619 5.42z"/>
        <path fill="#FFF" d="M106.56 211.455v24.073h.01s17.933 1.724 17.933-.98c0-2.702-1.313-6.785-3.687-7.371-4.765-1.173-5.383-.002-6.557.066-.923.052-.674-15.172-.525-21.7"/>
        <path stroke="#6D6E71" stroke-width="3" d="M106.56 211.455v24.073h.01s17.933 1.724 17.933-.98c0-2.702-1.313-6.785-3.687-7.371-4.765-1.173-5.383-.002-6.557.066-.923.052-.674-15.172-.525-21.7"/>
        <path fill="#FFF" d="M8.712 155.21c4.893.197 6.997 0 8.22 2.986 1.709 4.167 4.676 6.116 7.047 10.814 1.091 2.161.64 8.58 2.284 10.635 5.68 7.1 12.266 8.677 9.684 16.19-.989 2.878-1.398 5.976-1.398 8.081 0 2.3 1.484 7.172 1.484 7.172s-3.275 3.66-3.62 5.42c-.344 1.762 1.026 19.6 1.026 19.6l.583 4.855h15.813s1.678-4.715-.775-6.833c-.908-.784-5.51.526-7.136.56-.057-3.536.154-10.384 1.04-11.707 1.828-2.724 5.454-4.618 5.454-4.618.646.091 1.307.138 1.977.138 3.09 0 6.44-1.265 9.427-4.251 1.338-1.34 4.328-1.529 8.956.082 11.123 3.868 22.468 4.294 22.468 4.294v16.455c-1.053.83-1.696 1.952-1.696 3.182 0 1.279.865 3.277.865 3.277l12.724.054s.765-2.025.765-3.33c0-1.231-.644-2.353-1.696-3.183v-17.296c2.003-.67 8.142-2.525 11.514-8.554 1.809-3.231 1.69-23.196 3.245-24.221 1.856-1.224 6.689-1.211 9.542-2.13 4.099-1.321 11.824-8.834 7.227-17.15-2.03-3.67-1.447-6.804-4.577-9.564.174-.546.386-1.32.565-2.327.602-3.39-2.251-9.346-2.251-9.346s-2.029.976-4.817 3.863c-1.35 1.396-1.964 2.488-2.246 3.178-2.738-.825-5.748-1.279-8.908-1.279-1.471 0-2.912.098-4.308.29-1.376-1.656-4.636-3.776-6.194-4.633-4.796-2.643-11.86-3.328-11.86-3.328s.262 9.934 2.349 12.723c.425.568 1.628 1.515 1.628 1.515s-1.855 3.085-1.48 12.564c.173 4.349 2.219 8.737 2.219 8.737s.671 4.318-4.868 5.153c-9.622 1.448-26.45-2.365-36.335-2.365-9.884 0-15.415 4.087-21.432-4.017-2.564-3.454-.892-5.718-2.348-9.321-1.354-3.347-5.27-6.836-6.198-9.592-1.062-3.152-4.18-7.117-9.085-7.55-5.172-.458-11.042-.084-11.141 3.163-.067 2.202 1.37 1.42 6.263 1.615"/>
        <path stroke="#6D6E71" stroke-width="3" d="M8.712 155.21c4.893.197 6.997 0 8.22 2.986 1.709 4.167 4.676 6.116 7.047 10.814 1.091 2.161.64 8.58 2.284 10.635 5.68 7.1 12.266 8.677 9.684 16.19-.989 2.878-1.398 5.976-1.398 8.081 0 2.3 1.484 7.172 1.484 7.172s-3.275 3.66-3.62 5.42c-.344 1.762 1.026 19.6 1.026 19.6l.583 4.855h15.813s1.678-4.715-.775-6.833c-.908-.784-5.51.526-7.136.56-.057-3.536.154-10.384 1.04-11.707 1.828-2.724 5.454-4.618 5.454-4.618.646.091 1.307.138 1.977.138 3.09 0 6.44-1.265 9.427-4.251 1.338-1.34 4.328-1.529 8.956.082 11.123 3.868 22.468 4.294 22.468 4.294v16.455c-1.053.83-1.696 1.952-1.696 3.182 0 1.279.865 3.277.865 3.277l12.724.054s.765-2.025.765-3.33c0-1.231-.644-2.353-1.696-3.183v-17.296c2.003-.67 8.142-2.525 11.514-8.554 1.809-3.231 1.69-23.196 3.245-24.221 1.856-1.224 6.689-1.211 9.542-2.13 4.099-1.321 11.824-8.834 7.227-17.15-2.03-3.67-1.447-6.804-4.577-9.564.174-.546.386-1.32.565-2.327.602-3.39-2.251-9.346-2.251-9.346s-2.029.976-4.817 3.863c-1.35 1.396-1.964 2.488-2.246 3.178-2.738-.825-5.748-1.279-8.908-1.279-1.471 0-2.912.098-4.308.29-1.376-1.656-4.636-3.776-6.194-4.633-4.796-2.643-11.86-3.328-11.86-3.328s.262 9.934 2.349 12.723c.425.568 1.628 1.515 1.628 1.515s-1.855 3.085-1.48 12.564c.173 4.349 2.219 8.737 2.219 8.737s.671 4.318-4.868 5.153c-9.622 1.448-26.45-2.365-36.335-2.365-9.884 0-15.415 4.087-21.432-4.017-2.564-3.454-.892-5.718-2.348-9.321-1.354-3.347-5.27-6.836-6.198-9.592-1.062-3.152-4.18-7.117-9.085-7.55-5.172-.458-11.042-.084-11.141 3.163-.067 2.202 1.37 1.42 6.263 1.615z"/>
        <path fill="#6D6E71" d="M125.062 175.704c.305.17.519.266.519.266s.211-.097.517-.265c-.08-.254-.31-.34-.523-.303h-.002c-.21-.031-.43.055-.51.302"/>
        <path fill="#6D6E71" d="M126.097 175.705c.77-.428 2.126-1.333 2.126-2.378 0-1.46-1.15-1.566-2.79-1.566-1.644 0-2.494.106-2.494 1.566 0 1.045 1.354 1.948 2.123 2.377.08-.247.302-.333.51-.302h.003c.214-.038.442.049.522.303"/>
        <path fill="#6D6E71" d="M119.79 176.844c1.268 1.6 4.542 1.707 5.788.028 1.25 1.68 2.763 1.573 4.03-.028.388-.49-.3-1.186-.692-.692-.979 1.236-2.339 1.442-2.805-.407-.004-.014-.008-.028-.014-.04-.305.169-.516.265-.516.265s-.213-.096-.519-.266c-.006.013-.01.027-.014.041-.463 1.843-3.581 1.65-4.566.407-.391-.494-1.079.203-.693.692"/>
        <path fill="#6D6E71" d="M125.062 175.704c.305.17.519.266.519.266s.211-.097.517-.265c-.08-.254-.31-.34-.523-.303h-.002c-.21-.031-.43.055-.51.302M114.885 166.914a2.084 2.084 0 1 0 4.167-.001 2.084 2.084 0 0 0-4.167 0M127.843 167.456a1.932 1.932 0 1 0 3.864 0 1.932 1.932 0 0 0-3.864 0"/>
        <path fill="#8DE2D2" d="M94.612 156.895l7.17-3.69s-1.8-2.596-4.207-5.09c-2.79-2.886-7.634-4.501-7.634-4.501s.241 8.27 2.12 11.156c1.448 2.226 2.551 2.125 2.551 2.125M128.223 156.385l-1.624-.565s-.346-2.247-.056-4.572c.365-2.93.538-5.725.538-5.725s2.378 5.022 2.164 7.34c-.166 1.786-1.022 3.522-1.022 3.522"/>
        <path fill="#6D6E71" d="M131.145 172.684c6.728-.733 14.387.066 18.983 5.638.288.349-.21.853-.501.5-4.485-5.436-11.925-6.144-18.482-5.429-.453.05-.45-.66 0-.709M130.244 174.138a21.733 21.733 0 0 1 10.308 13.15c.12.44-.564.628-.684.187a21.011 21.011 0 0 0-9.982-12.726c-.399-.221-.041-.834.358-.611M120.167 172.748c-6.394-1.43-13.858-1.544-18.887 3.328-.328.318-.83-.183-.5-.5 5.22-5.06 12.923-4.998 19.575-3.512.445.1.256.783-.188.684M120.738 174.262c-5.098 2.139-9.227 6.349-11.271 11.483-.166.42-.852.237-.683-.188a21.766 21.766 0 0 1 11.766-11.98c.42-.175.603.51.188.685"/>
        <path fill="#8DE2D2" d="M85.667 217.185s1.052.083 3.108.293c1.498.153 3.107.043 3.107.043v-13.768l-3.915 10.667-2.3 2.765zM107.458 213.832s-1.867 1.264-2.973 1.828c-1.106.564-2.973 1.206-2.973 1.206v-10.471s1.048 4.306 2.292 5.742c1.244 1.435 3.654 1.695 3.654 1.695M107.458 216.242v8.797s3.427-2.814 3.867-4.038c.44-1.223 1.418-9.37 1.418-9.37s-.978 1.957-2.642 3.327c-1.292 1.064-2.643 1.284-2.643 1.284M93.35 235.436s1.578-.39 3.609-.39c2.03 0 3.609.354 3.609.354s-1.444-.71-3.61-.71c-2.164 0-3.608.746-3.608.746M98.83 240.805s.551-.99.551-1.834c0-.843-.55-1.833-.55-1.833s.244 1.22.244 1.833-.245 1.834-.245 1.834M116.487 235.002s1.49-1.257 1.196-2.57c-.293-1.315-1.392-1.883-1.392-1.883s.702 1.034.916 1.989c.212.955-.72 2.464-.72 2.464M120.548 235.002s.698-1.827.404-3.141c-.293-1.313-1.442-1.932-1.442-1.932s.752 1.085.965 2.04c.213.954.073 3.033.073 3.033M63.842 235.002s1.49-1.257 1.196-2.57c-.294-1.315-1.392-1.883-1.392-1.883s.702 1.034.915 1.989c.213.955-.72 2.464-.72 2.464M67.903 235.002s.697-1.827.404-3.141c-.293-1.313-1.442-1.932-1.442-1.932s.751 1.085.965 2.04c.212.954.073 3.033.073 3.033M43.64 240.51s1.49-1.257 1.197-2.572c-.294-1.314-1.392-1.88-1.392-1.88s.702 1.032.915 1.987c.213.955-.72 2.465-.72 2.465M47.702 240.51s.697-1.827.404-3.141c-.293-1.314-1.442-1.933-1.442-1.933s.751 1.085.965 2.04c.212.954.073 3.034.073 3.034M95.185 240.805s-.551-.99-.551-1.834c0-.843.55-1.833.55-1.833s-.244 1.22-.244 1.833.245 1.834.245 1.834"/>
        <path fill="#A2EDDE" d="M64.496 197.538s.783 4.632.652 7.894c-.13 3.227-3.706 6.199-3.706 6.199h1.62s3.868-2.654 3.795-6.199c-.058-2.805-2.361-7.894-2.361-7.894"/>
        <g>
            <path fill="#FFF" d="M482 41.97c0 22.333-15.058 38.674-37.452 38.674-5.963 0-22.042 18.496-27.142 21.403-12.559 7.161-12.745-6.632-13.083-20.903C404 67.49 404 44.15 404 42.41 404 20.076 420.838 2 446.03 2 468.424 2 482 19.635 482 41.97"/>
            <path stroke="#6D6E71" stroke-width="3" d="M482 41.97c0 22.333-15.058 38.674-37.452 38.674-5.963 0-22.042 18.496-27.142 21.403-12.559 7.161-12.745-6.632-13.083-20.903C404 67.49 404 44.15 404 42.41 404 20.076 420.838 2 446.03 2 468.424 2 482 19.635 482 41.97z"/>
            <path fill="#8DE2D2" d="M428.238 8.425C435.561 4.809 446 5.002 446 5.002s-12.474 5.257-16.276 10.461c-3.411 4.669.263 10.932-1.486 10.932-4.65 0-8.162-2.321-8.954-2.656-.793-.335-3.132-1.093-3.132-1.093s-4.007 4.506-5.304 8.028c-.648 1.76-2.173 6.326-2.173 6.326H407s1.018-4.902 2.477-9.154c1.034-3.01 4.494-8.087 5.756-9.525 3.048-3.468 5.682-6.281 13.005-9.896"/>
            <path fill="#FFF" d="M433.615 81c-8.678 0-14.101 2.665-17.49 7.227-5.648 7.605-9.693 14.116-9.693 14.116l-8.613-4.17L388 102.77l22.82 14.246 11.871-7.284h1.24s2.059 19.464 1.992 26.45c-.059 6.21-3.426 19.69-3.426 19.69l41.488.128s-4.254-13.102-4.254-19.262c0-6.951 1.813-27.006 1.813-27.006l1.308-.01s.825 8.499.857 12.683c.031 4.186 10.191 32.215 10.191 32.215 0 .14 10.1-.136 10.1-.136s-8.439-15.303-8.439-29.673c0-24.481-.006-43.811-22.794-43.811h-19.152z"/>
            <path stroke="#6D6E71" stroke-width="3" d="M433.615 81c-8.678 0-14.101 2.665-17.49 7.227-5.648 7.605-9.693 14.116-9.693 14.116l-8.613-4.17L388 102.77l22.82 14.246 11.871-7.284h1.24s2.059 19.464 1.992 26.45c-.059 6.21-3.426 19.69-3.426 19.69l41.488.128s-4.254-13.102-4.254-19.262c0-6.951 1.813-27.006 1.813-27.006l1.308-.01s.825 8.499.857 12.683c.031 4.186 10.191 32.215 10.191 32.215 0 .14 10.1-.136 10.1-.136s-8.439-15.303-8.439-29.673c0-24.481-.006-43.811-22.794-43.811h-19.152z"/>
            <path fill="#FFF" d="M483 48.525a5.293 5.293 0 0 1-5.294 5.296c-1.777 0-2.516-.079-2.516-.079s-.292.754-.782 2.142C469.86 68.77 457.578 78 443.135 78c-14.356 0-26.582-9.13-31.19-21.902a93.517 93.517 0 0 1-.819-2.408s-2.076.13-3.832.13A5.293 5.293 0 0 1 402 48.526a5.294 5.294 0 0 1 5.294-5.296h2.69s.012-.765.028-1.158c.078-1.936.323-2.467.723-4.306C412.253 30.766 416.633 26 416.633 26s26.405 9.563 39.468 11.033c13.403 1.507 19.254.343 19.254.343s.786 2.905.883 4.623c.036.627.034 1.23.034 1.23h1.434A5.294 5.294 0 0 1 483 48.525"/>
            <path stroke="#6D6E71" stroke-width="3" d="M483 48.525a5.293 5.293 0 0 1-5.294 5.296c-1.777 0-2.516-.079-2.516-.079s-.292.754-.782 2.142C469.86 68.77 457.578 78 443.135 78c-14.356 0-26.582-9.13-31.19-21.902a93.517 93.517 0 0 1-.819-2.408s-2.076.13-3.832.13A5.293 5.293 0 0 1 402 48.526a5.294 5.294 0 0 1 5.294-5.296h2.69s.012-.765.028-1.158c.078-1.936.323-2.467.723-4.306C412.253 30.766 416.633 26 416.633 26s26.405 9.563 39.468 11.033c13.403 1.507 19.254.343 19.254.343s.786 2.905.883 4.623c.036.627.034 1.23.034 1.23h1.434A5.294 5.294 0 0 1 483 48.525z"/>
            <path fill="#FFF" d="M452.937 77s.498 9.737-1.3 13.997C450.045 94.77 445.577 97 442.97 97c-2.811 0-6.72-1.342-8.77-5.567-1.997-4.117-.896-14.364-.896-14.364s5.718 1.485 9.142 1.485c3.425 0 10.492-1.554 10.492-1.554"/>
            <path stroke="#6D6E71" stroke-width="3" d="M452.937 77s.498 9.737-1.3 13.997C450.045 94.77 445.577 97 442.97 97c-2.811 0-6.72-1.342-8.77-5.567-1.997-4.117-.896-14.364-.896-14.364s5.718 1.485 9.142 1.485c3.425 0 10.492-1.554 10.492-1.554z"/>
            <path fill="#6D6E71" d="M428.1 52h-.2c-1.045 0-1.9-.97-1.9-2.154v-4.69c0-1.187.855-2.156 1.9-2.156h.2c1.045 0 1.9.97 1.9 2.155v4.69c0 1.186-.855 2.155-1.9 2.155M458.1 52h-.2c-1.045 0-1.9-.97-1.9-2.154v-4.69c0-1.187.855-2.156 1.9-2.156h.2c1.045 0 1.9.97 1.9 2.155v4.69c0 1.186-.855 2.155-1.9 2.155"/>
            <path fill="#FFF" d="M464.063 233l-14.764-.065 14.877-46.607-14.988-9.287h-12.983l-14.364 7.683L436.177 233H422.28L400 181.715 422.281 155h41.782L479 186.33z"/>
            <path stroke="#6D6E71" stroke-width="3" d="M464.063 233l-14.764-.065 14.877-46.607-14.988-9.287h-12.983l-14.364 7.683L436.177 233H422.28L400 181.715 422.281 155h41.782L479 186.33z"/>
            <path fill="#8DE2D2" d="M481 153h-5.82l-9.176-29.563s-.809-22.438-6.083-28.392C455.548 90.11 454 90.073 454 90.073s.213-2.008.37-3.822c.062-.708.083-3.25.083-3.25s5.826-.167 10.998 3.315c2.53 1.704 3.89 3.989 5.684 7.958 3.53 7.817 2.762 18.782 2.762 30.198C473.897 135.522 481 153 481 153"/>
            <path fill="#FFF" d="M437 231.383l-8.697-.069s-8.367-4.654-12.163-.761c-2.75 2.819-2.064 9.447-2.064 9.447H437v-8.617z"/>
            <path stroke="#6D6E71" stroke-width="3" d="M437 231.383l-8.697-.069s-8.367-4.654-12.163-.761c-2.75 2.819-2.064 9.447-2.064 9.447H437v-8.617z"/>
            <path fill="#FFF" d="M449 231.383l8.697-.069s8.367-4.654 12.163-.761c2.75 2.819 2.064 9.447 2.064 9.447H449v-8.617z"/>
            <path stroke="#6D6E71" stroke-width="3" d="M449 231.383l8.697-.069s8.367-4.654 12.163-.761c2.75 2.819 2.064 9.447 2.064 9.447H449v-8.617z"/>
            <path fill="#8DE2D2" d="M435 237h-19.83s-.626-1.923.525-2.669c1.151-.745 19.305 0 19.305 0V237zM450 237h19.83s.626-1.923-.525-2.669c-1.151-.745-19.305 0-19.305 0V237z"/>
            <path fill="#6D6E71" d="M427 44.503V47s-.974-.668-1.504-1.122c-.529-.454-.725-1.005-1.111-1.598-.386-.594-.605-1.68-.05-1.128.356.356.82.793 1.379 1.273.495.426 1.286.078 1.286.078M460 44.503V47s.974-.668 1.504-1.122c.529-.454.725-1.005 1.111-1.598.386-.594.605-1.68.05-1.128-.356.356-.82.793-1.379 1.273-.495.426-1.286.078-1.286.078M435.52 64.53c.718 1.088 1.985 4.096 7.67 4.096 5.686 0 6.373-3.319 7.715-3.97 1.244-.605 1.728.47-.18 2.607-1.28 1.433-4.223 2.737-7.534 2.737-6.065 0-9.191-3.729-9.191-4.907 0-1.18.93-1.462 1.52-.564"/>
            <path fill="#FFF" d="M475 206.85c-1.03 3.856-2.328 9.905-2.605 16.803-.384 9.768-.462 12.434-1.492 14.312-1.036 1.884-12.683 3.105-14.559.7-1.882-2.405 4.513-10.326 5.795-24.583.323-3.616.245-7.529-.052-11.36a45.045 45.045 0 0 0 3.292-1.722c2.924 2.48 6.22 4.484 9.621 5.85"/>
            <path stroke="#6D6E71" stroke-width="3" d="M475 206.85c-1.03 3.856-2.328 9.905-2.605 16.803-.384 9.768-.462 12.434-1.492 14.312-1.036 1.884-12.683 3.105-14.559.7-1.882-2.405 4.513-10.326 5.795-24.583.323-3.616.245-7.529-.052-11.36a45.045 45.045 0 0 0 3.292-1.722c2.924 2.48 6.22 4.484 9.621 5.85z"/>
            <path fill="#FFF" d="M412.591 238.953c-1.07 1.895-13.091 3.123-15.035.703-1.938-2.42 1.708-1.758 3.03-16.102.33-3.57-.382-16.837-.323-20.554.46.095.927.703 1.398.767 3.15 1.392 6.636 2.047 10.375 2.966-.736 4.625-1.367 10.863-.726 16.496 1.107 9.775 2.351 13.835 1.281 15.724"/>
            <path stroke="#6D6E71" stroke-width="3" d="M412.591 238.953c-1.07 1.895-13.091 3.123-15.035.703-1.938-2.42 1.708-1.758 3.03-16.102.33-3.57-.382-16.837-.323-20.554.46.095.927.703 1.398.767 3.15 1.392 6.636 2.047 10.375 2.966-.736 4.625-1.367 10.863-.726 16.496 1.107 9.775 2.351 13.835 1.281 15.724z"/>
            <path fill="#FFF" d="M497.609 162.086c3.4 4.471 5.498 10.614 5.498 18.17 0 6.031-.636 11.67-2.229 16.315 2.58 3.246 4.392 6.384 4.089 8.553-.935 6.7-1.86 9.81-3.77 18.569-1.912 8.749-3.049 15.761-5.4 16.782-2.354 1.023-13.106 2.701-15.023.28-1.916-2.423 9.195-16.159 10.501-30.513.079-.878.135-1.756.168-2.622-1.912.767-4.105 1.182-6.612 1.182-3.226 0-6.595-.72-9.879-2.028-3.462-1.376-6.82-3.395-9.796-5.89a46.023 46.023 0 0 1-3.352 1.733c-8.214 3.863-18.83 6.185-30.421 6.185-6.888 0-13.43-.82-19.332-2.296-3.686-.919-12.594-3.967-13.085-4.108-1.921 6.61-6.37 21.595-8.992 27.946-3.42 8.277-4.569 10.131-7.138 10.131s-6.616 0-8.527-2.422c-1.916-2.422 5.655-12.442 6.961-26.797 1.305-14.355-.564-31.037-.564-31.037-.621-2.775-.95-5.7-.95-8.722 0-17.508 11.1-31.7 24.798-31.7 7.101 0 10.87 6.683 17.095 11.034.553.384 1.19.747 1.906 1.087 8.417-.498 18.913-.209 29.973-.209 10.015 0 20.15.715 30.609 2.275a20.22 20.22 0 0 1 8.23 3.158c3.252-1.75 11.649-6.989 11.649-14.396 0-4.604-.376-11.015.574-11.708.945-.688 7.41 8.05 7.41 15.842 0 9.09-10.997 13.692-14.391 15.206"/>
            <path stroke="#6D6E71" stroke-width="3" d="M497.609 162.086c3.4 4.471 5.498 10.614 5.498 18.17 0 6.031-.636 11.67-2.229 16.315 2.58 3.246 4.392 6.384 4.089 8.553-.935 6.7-1.86 9.81-3.77 18.569-1.912 8.749-3.049 15.761-5.4 16.782-2.354 1.023-13.106 2.701-15.023.28-1.916-2.423 9.195-16.159 10.501-30.513.079-.878.135-1.756.168-2.622-1.912.767-4.105 1.182-6.612 1.182-3.226 0-6.595-.72-9.879-2.028-3.462-1.376-6.82-3.395-9.796-5.89a46.023 46.023 0 0 1-3.352 1.733c-8.214 3.863-18.83 6.185-30.421 6.185-6.888 0-13.43-.82-19.332-2.296-3.686-.919-12.594-3.967-13.085-4.108-1.921 6.61-6.37 21.595-8.992 27.946-3.42 8.277-4.569 10.131-7.138 10.131s-6.616 0-8.527-2.422c-1.916-2.422 5.655-12.442 6.961-26.797 1.305-14.355-.564-31.037-.564-31.037-.621-2.775-.95-5.7-.95-8.722 0-17.508 11.1-31.7 24.798-31.7 7.101 0 10.87 6.683 17.095 11.034.553.384 1.19.747 1.906 1.087 8.417-.498 18.913-.209 29.973-.209 10.015 0 20.15.715 30.609 2.275a20.22 20.22 0 0 1 8.23 3.158c3.252-1.75 11.649-6.989 11.649-14.396 0-4.604-.376-11.015.574-11.708.945-.688 7.41 8.05 7.41 15.842 0 9.09-10.997 13.692-14.391 15.206z"/>
            <path fill="#FFF" d="M425.71 140.546s.282-12.285-4.148-23.628c.791 3.264 2.566 9.626 2.566 12.817 0 6.498-3.087 12.26-7.856 15.878.146.737.223 1.49.223 2.26 0 7.803-7.965 14.127-17.79 14.127-9.824 0-17.785-6.324-17.785-14.128 0-.431.026-.859.073-1.275a19.872 19.872 0 0 1-9.273-16.862c0-4.28 3.287-14.109 3.287-14.109l-.303-.117s-.733 2.161-.868 2.586c-3.743 11.684-4.547 23.368-4.547 23.368S362 128.813 362 118.513c0-10.301 3.822-17.863 9.72-19.716 4.691-1.47 13.48.448 13.48.448S389.86 96 398.1 96c8.242 0 11.715 2.628 11.715 2.628s8.773-2.222 13.464-.747c5.904 1.852 9.72 9.41 9.72 19.71s-7.29 22.955-7.29 22.955"/>
            <path stroke="#6D6E71" stroke-width="3" d="M425.71 140.546s.282-12.285-4.148-23.628c.791 3.264 2.566 9.626 2.566 12.817 0 6.498-3.087 12.26-7.856 15.878.146.737.223 1.49.223 2.26 0 7.803-7.965 14.127-17.79 14.127-9.824 0-17.785-6.324-17.785-14.128 0-.431.026-.859.073-1.275a19.872 19.872 0 0 1-9.273-16.862c0-4.28 3.287-14.109 3.287-14.109l-.303-.117s-.733 2.161-.868 2.586c-3.743 11.684-4.547 23.368-4.547 23.368S362 128.813 362 118.513c0-10.301 3.822-17.863 9.72-19.716 4.691-1.47 13.48.448 13.48.448S389.86 96 398.1 96c8.242 0 11.715 2.628 11.715 2.628s8.773-2.222 13.464-.747c5.904 1.852 9.72 9.41 9.72 19.71s-7.29 22.955-7.29 22.955z"/>
            <path fill="#6D6E71" d="M414 126.5a2.5 2.5 0 1 1-5 0 2.5 2.5 0 0 1 5 0M406 144.031c0 2.226-6.106 5.969-8.5 5.969-2.294 0-8.5-3.743-8.5-5.969 0-2.225 3.806-4.031 8.5-4.031s8.5 1.806 8.5 4.031M388 126.5a2.5 2.5 0 1 1-5 0 2.5 2.5 0 0 1 5 0"/>
            <path fill="#A2EDDE" d="M424.11 101.073c1.802.9 4.576 4.304 5.822 7.953 3.425 10.022-2.483 23.974-2.483 23.974s-3.553-18.023-6.678-22.721-14.27-8.024-9.675-9.244c2.44-.648 8.96-1.982 13.014.038M419 151.724c0 6.573-6.242 12.603-16.35 14.114-10.065 1.506-18.65-7.994-18.65-7.994s7.07 7.056 18.08 5.36c4.998-.772 7.236-2.196 10.512-4.466 1.292-.896 2.93-2.841 3.624-4.021 1.105-1.876 1.988-5.717 1.988-5.717s.796 1.327.796 2.724M452 187s3.872 4.591 6.554 7.636c2.948 3.346 7.446 4.417 7.446 4.417l-1.337.947s-4.756-1.301-7.745-5.08C454.96 192.445 452 187 452 187M468.811 235.786c-2.206 2.166-8.76 3.115-10.665 1.122-.91-.953 2.652-7.576 4.52-14.33 1.59-5.746 1.125-18.145 1.125-18.145l.866-.433 7.343 3.898s-1.737 7.587-1.804 14.81c-.061 6.593-.332 12.045-1.385 13.078M410.741 237.017c-2.32 2.157-8.553 2.76-10.555.776-.958-.95 2.059-7.263 2.82-14.405.83-7.776-.545-16.388-.545-16.388l7.28 1.638s-.567 7.298-.638 14.491c-.063 6.567 2.745 12.858 1.638 13.888"/>
            <path fill="#FFF" d="M351 241.972c0 2.223-17.014 4.028-38.002 4.028-20.988 0-37.998-1.805-37.998-4.028l.068-.237 5.654-19.707c0-2.223 14.123-4.028 31.546-4.028 17.421 0 31.545 1.805 31.545 4.028l7.075 19.635.112.31z"/>
            <path stroke="#6D6E71" stroke-width="3" d="M351 241.972c0 2.223-17.014 4.028-38.002 4.028-20.988 0-37.998-1.805-37.998-4.028l.068-.237 5.654-19.707c0-2.223 14.123-4.028 31.546-4.028 17.421 0 31.545 1.805 31.545 4.028l7.075 19.635.112.31z"/>
            <path fill="#FFF" d="M344 222c0 2.209-14.103 4-31.5 4s-31.5-1.791-31.5-4 14.103-4 31.5-4 31.5 1.791 31.5 4"/>
            <path stroke="#6D6E71" stroke-width="3" d="M344 222c0 2.209-14.103 4-31.5 4s-31.5-1.791-31.5-4 14.103-4 31.5-4 31.5 1.791 31.5 4z"/>
            <path fill="#A2EDDE" d="M340 222c0 1.105-11.864 2-26.5 2s-26.5-.895-26.5-2 11.864-2 26.5-2 26.5.895 26.5 2M350 240.606s-1.96.998-8.45 1.814c-6.491.816-8.55.532-8.55.532l2.36-15.554s2.866-.388 5.213-.868c2.73-.558 3.76-1.53 3.76-1.53L350 240.606z"/>
            <path fill="#FFF" d="M488 153a7 7 0 1 1-14 0 7 7 0 1 1 14 0"/>
            <path stroke="#6D6E71" stroke-width="3" d="M488 153a7 7 0 1 1-14 0 7 7 0 1 1 14 0z"/>
            <path fill="#FFF" d="M402 95a7 7 0 0 1-14 0 7 7 0 1 1 14 0"/>
            <path stroke="#6D6E71" stroke-width="3" d="M402 95a7 7 0 0 1-14 0 7 7 0 1 1 14 0z"/>
        </g>
    </g>
</svg>
