<svg xmlns="http://www.w3.org/2000/svg" width="127" height="30" viewBox="0 0 127 30">
    <defs>
        <linearGradient id="a" x1="5.586%" x2="89.693%" y1="42.916%" y2="76.712%">
            <stop offset="0%" stop-color="#00D7AF"/>
            <stop offset="100%" stop-color="#46737A"/>
        </linearGradient>
        <linearGradient id="b" x1="100%" x2="4.443%" y1="86.229%" y2="0%">
            <stop offset="0%" stop-color="#00D7AF"/>
            <stop offset="100%" stop-color="#46737A"/>
        </linearGradient>
        <linearGradient id="c" x1="8.054%" x2="84.433%" y1="21.454%" y2="63.075%">
            <stop offset="0%" stop-color="#00D7AF"/>
            <stop offset="100%" stop-color="#46737A"/>
        </linearGradient>
    </defs>
    <g fill="none" fill-rule="evenodd">
        <g fill="#354F53">
            <path d="M100.068 6.864c.127 0 .212-.011.255-.035-.043.024-.128.035-.255.035m-.255.032c.128 0 .212-.011.255-.035-.043.024-.127.035-.255.035m-1.689 9.81c.17.043.33.07.478.08.149.012.308.028.478.049h.35a.216.216 0 0 0 .096-.016.22.22 0 0 1 .096-.016c.127 0 .25-.005.366-.017a3.11 3.11 0 0 0 .335-.048 1.1 1.1 0 0 0 .35-.064c.085 0 .138-.01.16-.032.085 0 .191-.021.318-.065l.32-.096c.105-.043.217-.08.334-.113.116-.032.228-.07.334-.112a.138.138 0 0 0 .064-.016.141.141 0 0 1 .064-.017.287.287 0 0 1 .16-.08.553.553 0 0 0 .159-.048c.17-.086.329-.172.477-.258.021 0 .037-.005.048-.016.01-.01.027-.016.048-.016.02 0 .032-.01.032-.032a1.64 1.64 0 0 1-.223.096l-.191.065-.829.257c-.255.086-.5.15-.733.193l-.35.097-1.116.16a6.748 6.748 0 0 1-.414.049 4.08 4.08 0 0 1-.35.016 1.52 1.52 0 0 1-.303.032h-.494c-.043 0-.064-.01-.064-.032m4.27-9.91c-.404.623-.988 1.636-1.752 3.041-.765 1.405-1.625 3.201-2.581 5.39.042 0 .08.005.111.015a.34.34 0 0 0 .112.016h.446c.084 0 .164-.005.239-.016.074-.01.154-.016.239-.016.106-.021.223-.037.35-.048.128-.01.255-.037.383-.08l.51-.13.51-.128.764-.29a10.876 10.876 0 0 0 1.498-.772l.446-.321.446-.354.414-.354.383-.419c.084-.107.17-.209.255-.305a7.85 7.85 0 0 0 .255-.306.99.99 0 0 1 .063-.112c.021-.033.043-.07.064-.113a1.48 1.48 0 0 0 .207-.354c.053-.129.112-.246.175-.354l.192-.515.127-.514V9.66c.02-.107.02-.225 0-.354a1.856 1.856 0 0 0-.319-.868.817.817 0 0 0-.175-.274 64.105 64.105 0 0 1-.27-.273l-.256-.193a3.392 3.392 0 0 0-.286-.194 4.078 4.078 0 0 0-.542-.257l-.478-.193-.51-.129a.435.435 0 0 1-.191-.032c-.064 0-.128-.005-.191-.016a2.738 2.738 0 0 1-.223-.048h-.208a.64.64 0 0 1-.207-.032m-5.8 18.306a1.988 1.988 0 0 1-.637.097c-.212 0-.451-.043-.717-.129-.265-.086-.547-.257-.844-.515.127.258.297.45.51.58.17.128.393.209.669.24.276.033.616-.059 1.02-.273m-7.106-13.545c0-.15.005-.29.016-.418a6.94 6.94 0 0 1 .047-.418.366.366 0 0 0 .032-.161 9.15 9.15 0 0 1 .446-1.48l-.063.064c-.298.322-.478.644-.542.966-.064.321-.085.6-.064.836v.193a.366.366 0 0 1 .032.16c0 .087.021.151.064.194.02.022.032.043.032.064m-.287-1.93a4.19 4.19 0 0 1 .59-1.014c.243-.31.514-.605.812-.884a2.394 2.394 0 0 1 .382-.322c.234-.193.483-.37.75-.53.265-.162.535-.317.812-.467.424-.236.86-.44 1.306-.612.446-.171.882-.321 1.307-.45.36-.107.695-.204 1.003-.29.308-.085.6-.16.877-.225.084 0 .148-.01.191-.032l.67-.129a7.81 7.81 0 0 1 .716-.096l.78-.065c.404-.064.861-.096 1.371-.096a18.038 18.038 0 0 1 3.027.129c.128.021.255.037.383.048.127.01.255.037.382.08.51.108.977.237 1.402.386.106.044.218.086.335.129.116.043.228.086.334.129l.32.16.286.194c.276.172.542.375.797.61.34.323.605.666.796 1.03l.16.322a2.754 2.754 0 0 0 .127.322l.096.354v.064c0 .022.005.038.015.048.01.011.016.038.016.08 0 .022.005.039.016.05.01.01.016.026.016.047v.129c0 .043.005.07.016.08.01.012.016.038.016.08v.162c.021.107.032.225.032.354v.418c0 .086-.005.166-.016.241-.01.076-.016.156-.016.242a.84.84 0 0 0-.032.257l-.063.257a3.983 3.983 0 0 0-.048.29c-.011.086-.038.182-.08.29l-.064.257a4.433 4.433 0 0 1-.382.9c-.234.43-.537.87-.908 1.32-.372.45-.845.88-1.418 1.287-.34.236-.776.493-1.307.772l-.51.225-.541.225c-.383.15-.776.28-1.18.386-.233.086-.445.14-.637.161-.276.086-.51.14-.7.161l-.256.064-.478.065-.605.096a4.528 4.528 0 0 1-.765.065.353.353 0 0 0-.111.016.342.342 0 0 1-.112.016h-.319c-.085 0-.17.005-.254.016-.086.011-.17.016-.255.016h-.192a3.9 3.9 0 0 1-.366-.016 4.062 4.062 0 0 0-.367-.016c-.042 0-.069-.005-.08-.016-.01-.01-.037-.016-.079-.016l-.319.9a22.38 22.38 0 0 0-.27.917c-.117.419-.223.88-.319 1.384a9.267 9.267 0 0 0-.16 1.544c-.01.526.059.993.208 1.4 0 .064.01.124.032.177.02.053.042.101.063.144.149.3.314.5.494.596.18.096.345.155.494.177.17.02.34-.011.51-.097a.555.555 0 0 1-.111.434c-.096.118-.197.23-.303.338a2.316 2.316 0 0 1-.446.29c-.617.278-1.158.38-1.625.306-.468-.076-.85-.199-1.148-.37-.361-.194-.68-.558-.956-1.094-.276-.537-.35-1.362-.223-2.478 0-.128.01-.225.032-.29v-.031l.191-.998a36.7 36.7 0 0 1 .494-2.01c.18-.655.367-1.293.558-1.915l-.255-.096a5.7 5.7 0 0 1-.462-.258 3.51 3.51 0 0 1-.367-.257 4.016 4.016 0 0 1-.748-.692 4.986 4.986 0 0 1-.367-.499c-.021 0-.032-.01-.032-.032-.021-.021-.031-.043-.031-.064v-.032c.02-.043.127-.204.318-.483a3.98 3.98 0 0 1 .701-.772l.191-.129a.424.424 0 0 1 .144-.096.422.422 0 0 0 .143-.097l.064-.032v.032c0 .022.064.102.191.241.128.14.308.306.542.5l.35.289.478.257c.616-1.63 1.259-3.083 1.928-4.36a68.778 68.778 0 0 1 1.673-3.04l-.573.129a4.067 4.067 0 0 0-.542.16l-.35.097c-.298.108-.58.22-.845.338-.266.118-.526.23-.78.338-.808.386-1.525.815-2.152 1.287-.627.472-1.174.933-1.64 1.383-.468.45-.85.874-1.148 1.271-.298.397-.51.703-.637.917a1.116 1.116 0 0 1-.35-.193 1.648 1.648 0 0 1-.32-.257 2.311 2.311 0 0 1-.318-.419l-.064-.064a1.838 1.838 0 0 1-.207-.66 3.566 3.566 0 0 1 .016-.884c0-.065.01-.118.032-.161a.53.53 0 0 1 .032-.161l.063-.193c.043-.171.085-.3.128-.386M113.596 22.64c0 .217.054.401.162.553.107.13.264.239.469.325.205.087.501.11.89.065a1.022 1.022 0 0 1-.55-.097 1.334 1.334 0 0 1-.518-.277 1.869 1.869 0 0 1-.453-.57zm-.194-4.882c.065-.196.118-.407.162-.635.043-.228.07-.45.08-.667a1.741 1.741 0 0 0-.048-.553.499.499 0 0 0-.259-.326c-.237-.108-.496-.108-.776 0-.28.109-.572.31-.874.602-.302.293-.598.679-.89 1.156a8.718 8.718 0 0 0-.76 1.627 6.295 6.295 0 0 0-.29 1.237c-.044.304-.028.597.048.878.075.283.264.445.566.489.194.043.404.032.63-.033.227-.065.464-.211.713-.44.247-.227.501-.553.76-.976.259-.423.506-.981.744-1.676v-.032c0-.044.01-.076.032-.098l.162-.553zm-5.305-.13c.258-.521.538-.966.84-1.335.302-.368.6-.683.89-.944.291-.26.54-.455.744-.585.205-.13.34-.206.405-.228-.54.152-.987.396-1.343.732a6.387 6.387 0 0 0-.89 1.025 6.94 6.94 0 0 0-.646 1.335zm-.55 4.523c.02.24.097.456.226.651.108.174.28.331.518.472.237.142.57.234 1.003.277-.022 0-.103-.033-.243-.098a3.2 3.2 0 0 1-.47-.276 7.39 7.39 0 0 1-.55-.423 2.046 2.046 0 0 1-.484-.603zm12.487-5.37c.302.152.425.43.372.83-.054.402-.222.852-.502 1.35-.13.24-.361.663-.695 1.27a12.89 12.89 0 0 1-1.23 1.823 7.851 7.851 0 0 1-1.666 1.562c-.625.434-1.305.596-2.038.488a2.018 2.018 0 0 1-.647-.26 2.25 2.25 0 0 1-.533-.505c-.184-.228-.319-.526-.405-.895-.302.5-.723.928-1.261 1.286-.54.358-1.219.504-2.038.44-.54-.045-.982-.158-1.327-.343a2.468 2.468 0 0 1-.825-.683 2.54 2.54 0 0 1-.436-.928 5.838 5.838 0 0 1-.162-1.04c-.043-.825.097-1.737.42-2.735.324-.998.707-1.817 1.149-2.457.442-.64.916-1.15 1.423-1.53.507-.379 1.03-.64 1.57-.78a6.136 6.136 0 0 1 1.552-.212c.56 0 .987.07 1.278.211.291.142.512.299.663.472l.259-.586a4.558 4.558 0 0 1 1.003-.227 3.857 3.857 0 0 1 1.051.016c.399.054.814.179 1.246.374a77.826 77.826 0 0 0-1.392 3.32c-.172.434-.329.857-.469 1.27-.14.411-.253.786-.34 1.122a4.326 4.326 0 0 0-.145.862c-.011.24.027.39.113.456.022.065.076.098.162.098.065 0 .14-.022.227-.066.086-.043.194-.14.323-.292.13-.152.28-.358.453-.619.172-.26.35-.542.534-.846.183-.304.372-.607.566-.911l.517-.814a.981.981 0 0 1 .324-.39c.108-.087.237-.152.388-.196.15-.043.324-.021.518.065z"/>
            <path d="M123.083 7.611c-.105.172-.21.354-.315.546a5.535 5.535 0 0 0-.3.562c-.094.203-.194.401-.3.594.021-.065.095-.182.222-.353.126-.171.273-.364.441-.578.168-.214.357-.406.568-.578.21-.171.42-.289.63-.353a20.9 20.9 0 0 0-.41.064c-.105.022-.21.038-.315.048a.706.706 0 0 0-.22.048m-4.164 14.606c0 .214.053.396.158.545.105.129.252.236.442.321.189.086.483.108.883.065a.986.986 0 0 1-.536-.097 1.296 1.296 0 0 1-.505-.273 1.839 1.839 0 0 1-.442-.561m6.245-5.778c.315.15.446.423.394.818-.053.397-.216.84-.489 1.332a78.4 78.4 0 0 0-.504.947 14.46 14.46 0 0 1-.852 1.397c-.336.492-.725.968-1.167 1.428-.441.46-.914.808-1.419 1.043a4.083 4.083 0 0 1-.757.241 2.336 2.336 0 0 1-.82.016 2.591 2.591 0 0 1-.662-.289 2.004 2.004 0 0 1-.505-.497c-.168-.225-.284-.54-.347-.947a3.968 3.968 0 0 1-.078-.98 6.03 6.03 0 0 1 .205-1.3 23.24 23.24 0 0 1 .74-2.872c.2-.631.468-1.375.805-2.231.147-.385.32-.835.52-1.348.2-.514.352-.888.457-1.124.295-.727.568-1.39.82-1.99.253-.599.484-1.112.694-1.54.231-.514.452-.964.663-1.349l.315-.16a2.2 2.2 0 0 1 .457-.113c.2-.032.447-.048.741-.048.295 0 .547.032.757.096.21.065.39.129.536.193.168.086.305.172.41.257-.231.407-.462.878-.693 1.412-.21.45-.458.985-.742 1.605-.283.621-.573 1.306-.867 2.054-.21.536-.457 1.156-.74 1.862-.285.707-.542 1.36-.774 1.958-.294.75-.557 1.483-.788 2.2-.232.716-.337 1.246-.315 1.588.041.15.083.236.126.257.02.064.073.096.157.096a.498.498 0 0 0 .221-.064c.084-.043.19-.139.316-.289.126-.15.273-.353.441-.61.168-.257.342-.534.52-.834.179-.3.363-.6.552-.9.19-.299.358-.566.505-.802.084-.17.19-.3.315-.385.105-.085.231-.15.379-.192a.634.634 0 0 1 .473.064M47.497 12.346c0 1.555-.539 2.751-1.617 3.588-1.079.837-2.621 1.256-4.629 1.256h-1.836v6.04H37.6V7.87h4.046c3.901 0 5.851 1.492 5.851 4.476zm-8.082 3.31h1.634c1.608 0 2.772-.256 3.49-.767.72-.512 1.08-1.331 1.08-2.459 0-1.015-.339-1.772-1.015-2.27-.676-.497-1.73-.745-3.16-.745h-2.029v6.24zm20.603 1.807c0 1.877-.48 3.343-1.442 4.397-.96 1.054-2.288 1.58-3.982 1.58-1.046 0-1.975-.24-2.787-.724-.811-.483-1.438-1.177-1.879-2.08-.441-.904-.662-1.961-.662-3.173 0-1.877.477-3.34 1.43-4.387.955-1.047 2.279-1.57 3.973-1.57 1.637 0 2.937.535 3.902 1.607.964 1.072 1.447 2.522 1.447 4.35zm-8.915 0c0 1.47.298 2.591.896 3.362.598.77 1.477 1.156 2.638 1.156 1.16 0 2.04-.384 2.642-1.15.602-.768.902-1.89.902-3.368 0-1.464-.3-2.576-.902-3.336-.601-.76-1.49-1.14-2.664-1.14-1.16 0-2.036.375-2.626 1.124-.591.75-.886 1.867-.886 3.352zm13.214 5.768h-1.773V6.883h1.773V23.23zm4.95 0h-1.772V11.716h1.772V23.23zM67.345 8.595c0-.399.1-.691.3-.877.199-.186.448-.278.747-.278.285 0 .53.094.736.283.207.19.31.48.31.872 0 .393-.103.685-.31.878a1.043 1.043 0 0 1-.736.289c-.3 0-.548-.097-.748-.29-.199-.192-.299-.484-.299-.877zm9.777 14.846c-1.694 0-3.006-.513-3.935-1.54-.928-1.025-1.393-2.477-1.393-4.354 0-1.926.472-3.415 1.415-4.465.943-1.051 2.286-1.576 4.03-1.576.563 0 1.125.06 1.687.178.563.12 1.004.26 1.324.42l-.544 1.482a8.434 8.434 0 0 0-1.282-.384 5.809 5.809 0 0 0-1.227-.152c-2.378 0-3.566 1.492-3.566 4.476 0 1.415.29 2.5.87 3.257.58.756 1.44 1.135 2.578 1.135.975 0 1.975-.207 3-.62v1.544c-.783.4-1.768.599-2.957.599zm3.295-11.725h1.9l2.563 6.566c.563 1.5.911 2.581 1.047 3.247h.085c.093-.357.287-.969.582-1.834.295-.865 1.262-3.525 2.899-7.98h1.9l-5.029 13.113c-.498 1.296-1.08 2.215-1.745 2.758-.666.543-1.483.814-2.45.814a7.24 7.24 0 0 1-1.602-.179v-1.397c.391.084.83.126 1.313.126 1.217 0 2.086-.672 2.605-2.017l.652-1.64-4.72-11.577z"/>
        </g>
        <path fill="url(#a)" d="M28.951 16.837c-1.687 1.306-3.959 2.31-6.569 2.866-1.463.308-3.03.477-4.663.477-1.196 0-2.36-.089-3.47-.262-1.754-.267-3.378-.733-4.81-1.357a16.65 16.65 0 0 1-.443-.205 2.07 2.07 0 0 0-1.46.069 2.08 2.08 0 0 0-.86.68 2.083 2.083 0 0 0-.388 1.596c.029.118.058.236.09.35 1.67 6.126 7.247 10.608 13.874 10.608a14.363 14.363 0 0 0 5.114-.938 14.396 14.396 0 0 0 7.334-6.254 14.305 14.305 0 0 0 1.926-7.192 14.34 14.34 0 0 0-4.303-10.262c1.13 1.269 1.77 2.727 1.77 4.278 0 2.097-1.175 4.025-3.142 5.546z" transform="scale(1 -1) rotate(-45 -20.995 7.828)"/>
        <path fill="url(#b)" d="M12.392 6.702a22.276 22.276 0 0 0 2.193 3.518 29.681 29.681 0 0 0 2.766 3.176c3.907 3.913 8.265 6.238 11.06 6.157.62-.144 1.225-.331 1.811-.555.095-.07.181-.144.265-.228 1.006-1.007 1.012-2.833.204-5.02-.65-1.772-1.834-3.777-3.453-5.77-1.463.307-3.03.477-4.663.477-1.196 0-2.36-.09-3.47-.262-1.754-.267-3.378-.733-4.81-1.358a16.65 16.65 0 0 1-.457-.21 2.07 2.07 0 0 0-1.446.075" opacity=".5" transform="scale(1 -1) rotate(-45 -4.416 7.828)"/>
        <path fill="url(#c)" d="M14.588 16.662A14.336 14.336 0 0 0 3.6 21.774a2.098 2.098 0 0 0 1.242 3.305c2.771.53 6.428 2.713 9.754 6.042.77.771 1.48 1.562 2.122 2.353 2.61-.555 4.881-1.56 6.57-2.865 1.966-1.522 3.141-3.45 3.141-5.546 0-1.563-.65-3.027-1.794-4.302a14.314 14.314 0 0 0-10.047-4.1z" transform="scale(1 -1) rotate(-45 -40.471 7.828)"/>
    </g>
</svg>
