<svg xmlns="http://www.w3.org/2000/svg" width="291" height="389" viewBox="0 0 291 389">
    <defs>
        <filter id="a" width="130.9%" height="122.6%" x="-22.6%" y="-8.9%" filterUnits="objectBoundingBox">
            <feOffset dx="-18" dy="8" in="SourceAlpha" result="shadowOffsetOuter1"/>
            <feGaussianBlur in="shadowOffsetOuter1" result="shadowBlurOuter1" stdDeviation="10"/>
            <feColorMatrix in="shadowBlurOuter1" result="shadowMatrixOuter1" values="0 0 0 0 0.274509804 0 0 0 0 0.450980392 0 0 0 0 0.478431373 0 0 0 0.2 0"/>
            <feMerge>
                <feMergeNode in="shadowMatrixOuter1"/>
                <feMergeNode in="SourceGraphic"/>
            </feMerge>
        </filter>
        <linearGradient id="b" x1="5.586%" x2="89.693%" y1="42.916%" y2="76.712%">
            <stop offset="0%" stop-color="#00D7AF"/>
            <stop offset="100%" stop-color="#46737A"/>
        </linearGradient>
        <linearGradient id="c" x1="100%" x2="4.443%" y1="86.229%" y2="0%">
            <stop offset="0%" stop-color="#00D7AF"/>
            <stop offset="100%" stop-color="#46737A"/>
        </linearGradient>
        <linearGradient id="d" x1="8.054%" x2="84.433%" y1="21.454%" y2="63.075%">
            <stop offset="0%" stop-color="#00D7AF"/>
            <stop offset="100%" stop-color="#46737A"/>
        </linearGradient>
    </defs>
    <g fill="none" fill-rule="evenodd" filter="url(#a)" transform="translate(38 12)">
        <g fill="#354F53">
            <path d="M173.892 294.43c.33 0 .548-.028.66-.083-.112.055-.33.082-.66.082m-.66.082c.33 0 .55-.027.66-.082-.11.055-.33.082-.66.082m-4.366 25.095c.439.111.85.18 1.236.206.383.028.795.07 1.236.124h.906c.11 0 .192-.013.247-.041a.574.574 0 0 1 .247-.042c.33 0 .645-.013.948-.04.301-.028.59-.07.865-.124.274 0 .577-.054.906-.165.22 0 .357-.027.412-.082.22 0 .495-.054.824-.165l.824-.246c.274-.11.563-.206.866-.289.3-.082.59-.177.865-.287a.36.36 0 0 0 .164-.042.368.368 0 0 1 .165-.04.744.744 0 0 1 .412-.206c.165-.027.302-.068.412-.124.44-.218.851-.438 1.236-.658.054 0 .095-.013.124-.041.027-.027.068-.041.123-.041.054 0 .083-.027.083-.083-.22.111-.412.193-.577.247l-.494.165-2.143.658c-.659.22-1.291.384-1.895.494l-.906.247-2.884.411c-.385.055-.742.096-1.071.123-.33.029-.632.041-.907.041a3.974 3.974 0 0 1-.782.083h-1.278c-.11 0-.164-.027-.164-.083m11.04-25.341c-1.043 1.591-2.553 4.183-4.53 7.775-1.979 3.593-4.203 8.187-6.675 13.782.11 0 .206.014.288.04a.886.886 0 0 0 .289.042h1.153c.22 0 .425-.013.618-.041.192-.027.398-.041.618-.041.275-.054.577-.095.907-.124.33-.027.659-.095.988-.205l1.319-.33c.439-.109.878-.218 1.318-.329l1.977-.74a28.237 28.237 0 0 0 3.873-1.975l1.154-.823 1.153-.905 1.071-.905.99-1.07c.218-.273.438-.534.658-.781.22-.247.44-.507.66-.782.054-.109.109-.205.164-.288.054-.082.11-.177.165-.288.219-.274.398-.576.536-.905.136-.329.288-.63.453-.905l.494-1.316.33-1.317v-.247a2.543 2.543 0 0 0 0-.905c-.11-.877-.385-1.617-.824-2.221a2.086 2.086 0 0 0-.453-.7c-.193-.191-.427-.424-.7-.699l-.66-.493a8.777 8.777 0 0 0-.741-.494 10.597 10.597 0 0 0-1.401-.659l-1.236-.493-1.318-.33c-.22 0-.385-.026-.495-.082a2.92 2.92 0 0 1-.494-.04 7.149 7.149 0 0 1-.577-.124h-.536a1.67 1.67 0 0 1-.535-.082M164.91 341.08a5.193 5.193 0 0 1-1.648.247c-.55 0-1.168-.11-1.854-.329-.688-.22-1.415-.658-2.184-1.317.33.659.769 1.152 1.319 1.482.439.329 1.016.534 1.73.617.713.082 1.593-.152 2.637-.7m-18.375-34.64c0-.382.013-.74.042-1.069.026-.329.068-.685.123-1.07a.927.927 0 0 0 .083-.41c.218-.988.453-1.838.7-2.551.247-.713.398-1.124.453-1.235l-.165.165c-.77.823-1.236 1.645-1.4 2.468-.165.823-.22 1.537-.165 2.14v.493c.054.11.082.247.082.412 0 .22.054.384.165.493.054.056.082.111.082.165m-.741-4.937c.383-.932.892-1.796 1.524-2.592.63-.794 1.331-1.549 2.101-2.262.165-.165.33-.315.495-.453.164-.136.329-.26.494-.37a16.193 16.193 0 0 1 1.936-1.358 51.894 51.894 0 0 1 2.101-1.193 26.976 26.976 0 0 1 3.378-1.563 49.329 49.329 0 0 1 3.379-1.152c.933-.274 1.798-.52 2.595-.74a56.414 56.414 0 0 1 2.266-.576c.22 0 .384-.028.495-.083l1.73-.329c.604-.11 1.222-.191 1.854-.247.63-.054 1.304-.109 2.019-.164 1.042-.165 2.224-.247 3.543-.247a47.158 47.158 0 0 1 3.913 0c1.346.055 2.65.165 3.914.33.33.054.66.095.99.122.329.029.658.097.988.206a29.13 29.13 0 0 1 3.625.987c.274.111.563.22.865.33.302.11.59.22.866.329l.824.411.741.494c.713.44 1.4.96 2.06 1.563.878.823 1.566 1.7 2.06 2.633l.412.823c.054.165.11.316.165.452.054.138.11.261.165.37l.247.906v.164c0 .056.013.097.04.124.028.028.042.096.042.205 0 .056.013.097.041.124.027.028.042.07.042.123v.33c0 .11.012.178.04.205.028.028.042.096.042.206v.411c.054.275.082.576.082.905V302c0 .22-.014.425-.041.617a4.265 4.265 0 0 0-.041.617 2.125 2.125 0 0 0-.082.658l-.165.658c-.056.275-.097.522-.124.741-.028.22-.096.467-.206.74l-.165.659c-.275.878-.605 1.645-.988 2.303-.605 1.098-1.388 2.222-2.349 3.374-.962 1.152-2.183 2.25-3.666 3.291-.88.604-2.006 1.263-3.379 1.975l-1.318.576-1.4.576c-.99.384-2.007.713-3.05.987-.604.22-1.153.357-1.647.411-.715.22-1.319.358-1.813.412l-.66.164-1.235.165-1.566.247a11.833 11.833 0 0 1-1.977.164.921.921 0 0 0-.289.041.894.894 0 0 1-.288.042h-.824c-.22 0-.44.014-.66.04a5.18 5.18 0 0 1-.658.042h-.495c-.33 0-.646-.013-.947-.041a10.62 10.62 0 0 0-.948-.041c-.11 0-.179-.013-.206-.042-.028-.027-.096-.04-.206-.04l-.824 2.303a56.76 56.76 0 0 0-.7 2.345 42.452 42.452 0 0 0-.824 3.538 23.448 23.448 0 0 0-.412 3.95c-.028 1.344.15 2.537.535 3.579 0 .164.028.316.083.452.054.136.11.26.165.37.383.768.81 1.276 1.277 1.523.466.246.892.397 1.277.452.439.054.878-.028 1.318-.247.054.439-.04.809-.288 1.11-.247.302-.509.59-.783.865-.33.274-.714.52-1.153.74-1.594.713-2.995.974-4.203.782-1.208-.193-2.197-.508-2.966-.946-.935-.494-1.759-1.427-2.472-2.798-.714-1.371-.906-3.482-.577-6.335 0-.33.028-.576.083-.74v-.083l.494-2.55c.384-1.755.81-3.469 1.277-5.143.466-1.673.948-3.304 1.442-4.896l-.659-.246c-.44-.219-.838-.439-1.195-.659a9.075 9.075 0 0 1-.947-.658c-.824-.603-1.47-1.193-1.937-1.769-.467-.576-.782-1-.947-1.275-.055 0-.083-.027-.083-.083-.055-.053-.082-.109-.082-.164v-.082c.054-.11.33-.52.824-1.234a10.22 10.22 0 0 1 1.813-1.975l.494-.33c.11-.109.233-.19.371-.246.136-.054.26-.136.37-.247l.166-.082v.082c0 .055.164.261.494.617.33.357.796.782 1.4 1.275l.907.741 1.236.658c1.593-4.168 3.255-7.884 4.985-11.149 1.73-3.262 3.172-5.854 4.326-7.775l-1.483.33c-.495.11-.962.246-1.401.41l-.906.247c-.77.276-1.498.564-2.184.864-.687.302-1.36.59-2.019.864-2.088.988-3.942 2.085-5.562 3.291-1.62 1.208-3.035 2.387-4.243 3.538-1.209 1.152-2.197 2.236-2.966 3.25-.77 1.016-1.318 1.798-1.648 2.345a2.896 2.896 0 0 1-.906-.493 4.254 4.254 0 0 1-.824-.659 5.918 5.918 0 0 1-.824-1.07l-.165-.164a4.664 4.664 0 0 1-.536-1.686c-.082-.63-.07-1.385.042-2.263 0-.165.027-.3.082-.411 0-.11.027-.247.082-.412l.165-.493c.11-.439.219-.768.33-.988M208.872 334.78c0 .556.138 1.028.418 1.416.278.332.682.61 1.213.832.53.222 1.297.278 2.3.166-.447.056-.92-.027-1.422-.25-.447-.11-.892-.345-1.338-.707-.447-.36-.837-.845-1.171-1.456zm-.502-12.484c.167-.5.306-1.04.418-1.623.111-.582.18-1.15.21-1.706.027-.554-.015-1.026-.126-1.415-.113-.387-.335-.666-.67-.832-.614-.277-1.283-.277-2.007 0-.725.278-1.478.79-2.258 1.54-.782.748-1.548 1.734-2.3 2.954-.754 1.221-1.41 2.609-1.967 4.161-.39 1.166-.641 2.22-.752 3.163a5.485 5.485 0 0 0 .125 2.248c.195.721.682 1.137 1.464 1.248.502.112 1.046.083 1.631-.083.586-.167 1.199-.541 1.84-1.124.64-.582 1.297-1.415 1.966-2.497.67-1.082 1.31-2.51 1.924-4.286v-.083c0-.11.028-.194.084-.25l.418-1.415zm-13.718-.333c.669-1.332 1.393-2.468 2.174-3.412a21.637 21.637 0 0 1 2.3-2.414c.754-.666 1.394-1.165 1.925-1.498.53-.333.878-.527 1.045-.583-1.394.39-2.55 1.013-3.471 1.873-.92.861-1.687 1.735-2.3 2.622a17.666 17.666 0 0 0-1.673 3.412zm-1.422 11.57c.054.61.25 1.165.585 1.664.278.444.724.846 1.339 1.207.612.361 1.476.596 2.593.707-.057 0-.266-.083-.628-.25a8.295 8.295 0 0 1-1.213-.707c-.447-.304-.92-.666-1.422-1.082a5.244 5.244 0 0 1-1.254-1.54zm32.288-13.734c.78.389 1.1 1.097.962 2.123-.14 1.027-.573 2.178-1.297 3.453a650.52 650.52 0 0 1-1.798 3.247c-.866 1.554-1.924 3.108-3.179 4.66a20.212 20.212 0 0 1-4.308 3.995c-1.618 1.111-3.375 1.526-5.27 1.249a5.253 5.253 0 0 1-1.673-.666c-.447-.277-.907-.707-1.38-1.29-.474-.583-.823-1.345-1.045-2.289-.782 1.277-1.87 2.372-3.263 3.288-1.394.915-3.15 1.29-5.27 1.123-1.394-.111-2.538-.401-3.43-.873-.892-.471-1.601-1.054-2.132-1.748a6.463 6.463 0 0 1-1.13-2.372 14.778 14.778 0 0 1-.417-2.664c-.112-2.108.25-4.438 1.087-6.991.836-2.552 1.826-4.647 2.97-6.284 1.142-1.636 2.37-2.94 3.68-3.912 1.31-.97 2.662-1.636 4.057-1.997 1.393-.36 2.732-.541 4.015-.541 1.45 0 2.551.18 3.304.54.753.362 1.324.764 1.715 1.207l.67-1.498c.78-.277 1.643-.47 2.592-.582.78-.11 1.686-.096 2.719.041 1.03.14 2.104.458 3.22.958a197.828 197.828 0 0 0-3.597 8.49 67.284 67.284 0 0 0-1.213 3.245 38.445 38.445 0 0 0-.878 2.872c-.224.86-.349 1.595-.376 2.205-.03.611.069.999.292 1.165.055.167.195.25.419.25.167 0 .362-.055.585-.167.222-.11.502-.36.837-.749.334-.387.724-.915 1.17-1.581.447-.666.907-1.386 1.38-2.164.474-.776.963-1.553 1.465-2.33.502-.777.947-1.47 1.338-2.081.222-.444.502-.776.837-.999a2.861 2.861 0 0 1 1.004-.5c.389-.11.836-.054 1.338.167z"/>
            <path d="M233.403 296.348a30.95 30.95 0 0 0-.815 1.396c-.273.438-.53.917-.775 1.436a26.55 26.55 0 0 1-.775 1.519c.054-.164.245-.464.571-.903.326-.438.706-.93 1.142-1.478a9.443 9.443 0 0 1 1.468-1.477c.543-.438 1.087-.74 1.63-.903-.38.055-.733.11-1.06.164a8.197 8.197 0 0 1-.815.123c-.273.028-.462.07-.57.123M222.638 333.7c0 .548.135 1.014.408 1.396.271.328.652.603 1.142.82.489.22 1.25.275 2.283.165-.436.055-.897-.027-1.386-.246-.436-.11-.87-.341-1.305-.698-.436-.355-.816-.834-1.142-1.437m16.146-14.776c.816.384 1.155 1.081 1.02 2.093-.137 1.014-.558 2.149-1.264 3.407-.273.493-.708 1.3-1.305 2.422a36.903 36.903 0 0 1-2.202 3.57 28.535 28.535 0 0 1-3.017 3.654c-1.142 1.177-2.365 2.066-3.67 2.668-.652.274-1.304.48-1.957.615-.652.136-1.36.15-2.12.041a6.738 6.738 0 0 1-1.712-.738c-.435-.274-.87-.698-1.305-1.273-.435-.574-.734-1.381-.897-2.422-.163-.71-.23-1.545-.204-2.503.028-.957.204-2.065.53-3.325.163-.875.408-1.97.734-3.284.272-1.094.666-2.448 1.182-4.063.516-1.614 1.21-3.516 2.08-5.705.38-.985.828-2.135 1.345-3.448.516-1.314.91-2.27 1.183-2.873.76-1.86 1.468-3.557 2.12-5.09a75.87 75.87 0 0 1 1.794-3.94 50.3 50.3 0 0 1 1.712-3.448l.816-.41c.271-.11.665-.206 1.182-.288.516-.082 1.155-.123 1.917-.123.76 0 1.413.082 1.957.246.543.165 1.005.329 1.386.493.435.22.788.439 1.06.657a36.884 36.884 0 0 0-1.794 3.611 518.286 518.286 0 0 0-1.916 4.105 104.467 104.467 0 0 0-2.243 5.254 684.16 684.16 0 0 1-1.916 4.761c-.734 1.806-1.4 3.476-1.998 5.008a94.572 94.572 0 0 0-2.039 5.623c-.598 1.834-.87 3.189-.815 4.063.108.384.217.603.326.657.054.164.19.246.408.246.163 0 .353-.053.57-.164.217-.109.49-.355.816-.739.326-.382.706-.903 1.142-1.56.434-.656.883-1.367 1.345-2.134.462-.766.938-1.531 1.427-2.298.49-.766.924-1.45 1.305-2.053.217-.437.49-.765.816-.985.271-.218.597-.382.978-.492.38-.11.787-.054 1.223.164M36.285 308.097c0 4.059-1.396 7.18-4.188 9.365-2.791 2.185-6.786 3.277-11.983 3.277H15.36v15.769h-4.7v-40.093h10.477c10.099 0 15.148 3.894 15.148 11.682zm-20.925 8.639h4.23c4.164 0 7.177-.668 9.038-2.002 1.862-1.335 2.792-3.474 2.792-6.417 0-2.651-.875-4.626-2.626-5.924-1.75-1.298-4.478-1.947-8.182-1.947H15.36v16.29zm53.34 4.716c0 4.9-1.243 8.726-3.731 11.477-2.488 2.752-5.925 4.127-10.31 4.127-2.71 0-5.115-.63-7.215-1.892-2.101-1.261-3.723-3.071-4.865-5.43-1.143-2.358-1.714-5.119-1.714-8.282 0-4.9 1.234-8.716 3.704-11.449 2.47-2.733 5.897-4.1 10.283-4.1 4.238 0 7.606 1.4 10.103 4.196 2.497 2.797 3.746 6.582 3.746 11.353zm-23.08 0c0 3.84.773 6.765 2.321 8.776 1.548 2.01 3.824 3.016 6.828 3.016 3.004 0 5.284-1 6.841-3.002 1.558-2.002 2.336-4.932 2.336-8.79 0-3.82-.778-6.723-2.336-8.706-1.557-1.984-3.856-2.976-6.896-2.976-3.004 0-5.27.978-6.8 2.934-1.53 1.957-2.295 4.873-2.295 8.748zm34.211 15.056h-4.588v-42.67h4.588v42.67zm12.817 0H88.06v-30.056h4.588v30.056zm-4.975-38.2c0-1.043.258-1.806.774-2.29.516-.485 1.16-.727 1.935-.727.737 0 1.373.247 1.907.74.534.494.802 1.252.802 2.276 0 1.024-.268 1.787-.802 2.29a2.688 2.688 0 0 1-1.907.754c-.774 0-1.42-.251-1.935-.754-.516-.503-.774-1.266-.774-2.29zm25.311 38.748c-4.386 0-7.781-1.339-10.186-4.017-2.405-2.679-3.608-6.468-3.608-11.367 0-5.028 1.221-8.913 3.663-11.655 2.442-2.742 5.92-4.114 10.435-4.114 1.456 0 2.912.156 4.368.467 1.455.31 2.598.676 3.427 1.097l-1.41 3.866a21.704 21.704 0 0 0-3.317-1c-1.197-.266-2.257-.398-3.178-.398-6.156 0-9.233 3.894-9.233 11.682 0 3.693.75 6.527 2.253 8.501 1.502 1.975 3.727 2.962 6.675 2.962 2.525 0 5.114-.54 7.768-1.618v4.031c-2.027 1.042-4.58 1.563-7.657 1.563zm8.532-30.604h4.92l6.635 17.14c1.456 3.912 2.359 6.736 2.709 8.473H136c.24-.932.742-2.527 1.507-4.785.764-2.258 3.266-9.2 7.504-20.828h4.92l-13.019 34.224c-1.29 3.382-2.796 5.782-4.52 7.199-1.722 1.417-3.837 2.125-6.343 2.125-1.4 0-2.783-.155-4.147-.466v-3.647c1.014.219 2.147.329 3.4.329 3.152 0 5.4-1.755 6.745-5.266l1.686-4.278-12.218-30.22z"/>
        </g>
        <path fill="url(#b)" d="M176.656 182.027c-2.36-18.483-10.191-38.708-22.894-58.257-7.144-10.935-15.782-21.656-25.876-31.739-7.393-7.385-15.14-14.025-23.067-19.812-12.494-9.176-25.414-16.33-38.123-21.316a145.656 145.656 0 0 0-4.001-1.47 18.344 18.344 0 0 1-4.566-3.322 18.082 18.082 0 0 1-4.036-6.123c-.872-2.111-1.296-4.386-1.33-6.623a15.31 15.31 0 0 1 .215-2.879 18.182 18.182 0 0 1 5.158-10.3 17.059 17.059 0 0 1 2.311-1.953c.909-.553 1.814-1.102 2.72-1.617C111.354-10.89 173.537-4.126 214.5 36.792a125.442 125.442 0 0 1 18.056 22.76 120.074 120.074 0 0 1 7.762 14.611c11.884 26.473 14.116 56.197 6.674 83.904-5.5 20.618-16.35 40.12-32.551 56.303-24.842 24.814-57.486 37.08-90.037 36.788 14.827-.857 27.808-5.907 37.393-15.481 12.964-12.95 17.608-32.11 14.86-53.65z"/>
        <path fill="url(#c)" d="M54.093 39.988c10.401-3.537 22.315-6.349 35.309-8.18 11.52-1.638 23.877-2.55 36.729-2.534 48.336-.034 89.648 12.523 106.424 30.279a120.074 120.074 0 0 1 7.762 14.61c.16 1.012.23 2.007.23 3.037-.004 12.43-11.261 23.746-29.77 32.258-14.97 6.934-34.687 11.998-57.015 14.312-7.144-10.935-15.782-21.656-25.876-31.739-7.393-7.385-15.14-14.025-23.067-19.812-12.494-9.176-25.414-16.33-38.123-21.316a145.656 145.656 0 0 0-4.001-1.47.192.192 0 0 1-.125-.054 18.462 18.462 0 0 1-4.441-3.268 18.082 18.082 0 0 1-4.036-6.123z" opacity=".5"/>
        <path fill="url(#d)" d="M36.916 214.677C10.4 188.191-1.764 152.804.38 118.14c.054-.977.11-1.92.216-2.879a18.182 18.182 0 0 1 5.157-10.299c6.242-6.235 15.844-7.057 22.952-2.44 20.403 13.844 56.506 22.942 97.642 22.928 9.53-.005 18.809-.503 27.664-1.432 12.703 19.55 20.534 39.775 22.894 58.258 2.748 21.54-1.896 40.7-14.86 53.65-9.656 9.645-22.726 14.677-37.677 15.48-31.697-.326-63.283-12.586-87.452-36.729z"/>
    </g>
</svg>
