<svg xmlns="http://www.w3.org/2000/svg" width="50" height="24" viewBox="0 0 50 24">
    <g fill="#99BBC1" fill-rule="evenodd">
        <rect width="11.321" height="1.92" x="18.938" y="12.48" rx=".96"/>
        <path d="M13.22 3.609a1.851 1.851 0 0 1-.185-.114l.321-.904c.301.343.458.783.444 1.247a3.622 3.622 0 0 1-.58-.23zm.218 6.096c-.056.912-.543 1.719-1.302 2.159a2.4 2.4 0 0 1-2.434 0c-.76-.44-1.246-1.247-1.303-2.159L8.21 6.62c1.794-.263 2.95-.911 3.663-1.51.138.105.294.205.465.299.305.166.747.33 1.336.499l-.235 3.797zM8.04 3.901a1.8 1.8 0 0 1 .448-1.318c.32-.36.752-.557 1.22-.557h1.797l-.35.98c-.125.19-.907 1.227-3.072 1.586l-.043-.69zm6.712-2.703A3.522 3.522 0 0 0 12.13 0H9.708c-.99 0-1.946.437-2.622 1.198a3.925 3.925 0 0 0-.964 2.835l.108 1.74.251 4.064c.1 1.605.957 3.026 2.295 3.802.67.389 1.407.583 2.143.583.736 0 1.472-.194 2.143-.583 1.337-.776 2.195-2.197 2.295-3.802l.287-4.644.072-1.16a3.925 3.925 0 0 0-.964-2.835zM19.636 21.74a.944.944 0 0 1-.727.331H2.929a.943.943 0 0 1-.727-.33.894.894 0 0 1-.205-.756c.362-1.945 1.944-3.496 3.937-3.862.302-.055.61-.083.916-.083h.835l2.533 2.466c.186.181.438.283.701.283.263 0 .515-.102.7-.283l2.534-2.466h.835c.307 0 .614.028.916.083 1.993.366 3.575 1.917 3.937 3.862a.894.894 0 0 1-.205.755m2.155-1.099c-.508-2.726-2.726-4.901-5.52-5.413a7.114 7.114 0 0 0-1.283-.117h-1.245c-.263 0-.515.102-.701.283l-2.123 2.066-2.123-2.066a1.005 1.005 0 0 0-.7-.283H6.848c-.429 0-.86.04-1.282.117-2.794.512-5.013 2.687-5.52 5.413a2.79 2.79 0 0 0 .634 2.336A2.954 2.954 0 0 0 2.93 24h15.98c.87 0 1.69-.373 2.248-1.023a2.79 2.79 0 0 0 .634-2.336"/>
        <g>
            <path d="M40.578 3.609a1.851 1.851 0 0 1-.185-.114l.322-.904c.3.343.457.783.444 1.247a3.622 3.622 0 0 1-.581-.23zm.219 6.096c-.057.912-.544 1.719-1.303 2.159a2.4 2.4 0 0 1-2.433 0c-.76-.44-1.247-1.247-1.303-2.159l-.191-3.085c1.794-.263 2.95-.911 3.664-1.51.138.105.293.205.465.299.305.166.746.33 1.336.499l-.235 3.797zm-5.398-5.804a1.8 1.8 0 0 1 .448-1.318c.319-.36.752-.557 1.219-.557h1.797l-.349.98c-.125.19-.908 1.227-3.073 1.586l-.042-.69zm6.712-2.703A3.522 3.522 0 0 0 39.489 0h-2.423c-.99 0-1.945.437-2.622 1.198a3.925 3.925 0 0 0-.963 2.835l.107 1.74.252 4.064c.099 1.605.957 3.026 2.294 3.802.671.389 1.407.583 2.143.583.736 0 1.473-.194 2.143-.583 1.338-.776 2.196-2.197 2.295-3.802l.287-4.644.072-1.16a3.925 3.925 0 0 0-.963-2.835zM46.994 21.74a.944.944 0 0 1-.727.331h-15.98a.943.943 0 0 1-.726-.33.894.894 0 0 1-.205-.756c.362-1.945 1.944-3.496 3.937-3.862.301-.055.609-.083.915-.083h.836l2.533 2.466a1.005 1.005 0 0 0 1.401 0l2.533-2.466h.836c.306 0 .614.028.916.083 1.992.366 3.574 1.917 3.936 3.862a.894.894 0 0 1-.205.755m2.155-1.099c-.507-2.726-2.726-4.901-5.52-5.413a7.114 7.114 0 0 0-1.282-.117H41.1c-.263 0-.515.102-.7.283l-2.124 2.066-2.122-2.066a1.005 1.005 0 0 0-.701-.283h-1.246c-.429 0-.86.04-1.282.117-2.795.512-5.013 2.687-5.52 5.413a2.79 2.79 0 0 0 .634 2.336A2.954 2.954 0 0 0 30.287 24h15.98c.87 0 1.69-.373 2.248-1.023a2.79 2.79 0 0 0 .634-2.336"/>
        </g>
    </g>
</svg>
