<svg xmlns="http://www.w3.org/2000/svg" width="152" height="152" viewBox="0 0 152 152">
    <defs>
        <linearGradient id="a" x1="0%" y1="9.057%" y2="100%">
            <stop offset="0%" stop-color="#00D7AF"/>
            <stop offset="100%" stop-color="#46737A"/>
        </linearGradient>
    </defs>
    <g fill="none" fill-rule="evenodd" stroke="url(#a)" transform="translate(1 1)">
        <circle cx="75" cy="75" r="75" fill="#FFF" stroke-width="2"/>
        <g fill="url(#a)" fill-rule="nonzero" transform="translate(33 47)">
            <path d="M57.212 10.831L35.744 3.427a8.314 8.314 0 0 0-6.257.382l-1.078.521a6.077 6.077 0 0 1-4.71.261l-1.843-.66c-.087-.053-.174-.105-.26-.14L10.608.055a1.062 1.062 0 0 0-.8.052c-.242.122-.434.33-.52.591L.058 27.623c-.192.539.104 1.13.642 1.32l11.004 3.773c.121.052.226.07.347.07a1.029 1.029 0 0 0 .973-.695l8.883-25.9 1.113.4a8.247 8.247 0 0 0 6.327-.366l1.077-.521a6.108 6.108 0 0 1 4.659-.296l20.668 7.127c-.157.904-.591 2.399-1.721 3.18-1.008.696-2.469.73-4.311.088l-9.022-3.077a1.073 1.073 0 0 0-.834.07c-.26.139-.435.382-.521.66-.018.052-1.356 4.989-5.528 7.214-2.642 1.425-5.91 1.477-9.717.174a1.042 1.042 0 0 0-1.32.643c-.192.539.103 1.13.642 1.32 2.034.696 3.963 1.044 5.754 1.044 2.051 0 3.928-.452 5.632-1.373 3.72-2 5.51-5.65 6.188-7.457l8.013 2.746c2.52.87 4.59.747 6.188-.348 2.573-1.773 2.695-5.423 2.712-5.58a1.034 1.034 0 0 0-.695-1.008zM11.409 30.404L2.37 27.31l8.552-24.944 8.796 3.007.208.105.035.017-8.552 24.909z"/>
            <path d="M84.773 26.25L72.223.75a1.029 1.029 0 0 0-.59-.522 1.062 1.062 0 0 0-.8.052L60.386 5.39c-.522.261-.73.87-.487 1.391l12.168 24.857-4.085 3.737a48.888 48.888 0 0 1-11.594 7.91L36.38 53.07a2.247 2.247 0 0 1-1.773.104 2.36 2.36 0 0 1-1.339-1.182 2.247 2.247 0 0 1-.104-1.773 2.36 2.36 0 0 1 1.182-1.338l11.177-5.476c.521-.26.73-.87.487-1.39a1.052 1.052 0 0 0-1.391-.487l-10.934 5.354-5.51 2.694c-1.147.556-2.555.087-3.111-1.06a2.34 2.34 0 0 1 1.06-3.112l16.061-7.857c.522-.26.73-.869.487-1.39a1.052 1.052 0 0 0-1.39-.487l-11.89 5.823-4.172 2.034-1.964.956c-1.147.556-2.555.087-3.111-1.06-.557-1.148-.087-2.556 1.06-3.112l1.981-.973 14.376-7.04c.521-.261.73-.87.486-1.39a1.052 1.052 0 0 0-1.39-.488l-9.23 4.52-5.145 2.52a2.247 2.247 0 0 1-1.773.105 2.36 2.36 0 0 1-1.339-1.182 2.247 2.247 0 0 1-.104-1.773 2.36 2.36 0 0 1 1.182-1.339l7.63-3.737c.522-.26.73-.87.487-1.39a1.052 1.052 0 0 0-1.39-.487l-7.631 3.737a4.42 4.42 0 0 0-2.242 2.538 4.372 4.372 0 0 0 .208 3.372 4.34 4.34 0 0 0 1.86 1.93 4.406 4.406 0 0 0-.869 5.075 4.4 4.4 0 0 0 3.963 2.468c.191 0 .383-.017.574-.035-.14.87-.035 1.79.382 2.66a4.4 4.4 0 0 0 5.893 2.016l1.895-.938a4.208 4.208 0 0 0 .434 2.381 4.42 4.42 0 0 0 2.538 2.242c.47.157.956.244 1.443.244.66 0 1.32-.157 1.93-.452L57.36 45.11a50.787 50.787 0 0 0 12.081-8.257l4.537-4.172 10.308-5.04c.521-.262.73-.87.486-1.391zm-10.95 4.24L62.227 6.8l8.587-4.19 11.577 23.693-8.57 4.189z"/>
        </g>
    </g>
</svg>
