<svg xmlns="http://www.w3.org/2000/svg" width="152" height="152" viewBox="0 0 152 152">
    <defs>
        <linearGradient id="a" x1="0%" y1="9.057%" y2="100%">
            <stop offset="0%" stop-color="#00D7AF"/>
            <stop offset="100%" stop-color="#46737A"/>
        </linearGradient>
    </defs>
    <g fill="none" fill-rule="evenodd" transform="translate(1 1)">
        <circle cx="75" cy="75" r="75" fill="#FFF" stroke="url(#a)" stroke-width="2"/>
        <g fill="url(#a)" transform="translate(38 40)">
            <path d="M52.789 66.615h-8.605v-6.301c0-.696-.55-1.26-1.23-1.26-.678 0-1.228.564-1.228 1.26v6.301h-9.834v-6.301c0-.696-.551-1.26-1.23-1.26-.678 0-1.229.564-1.229 1.26v6.301H20.83c-.679 0-1.23.565-1.23 1.26 0 .696.551 1.26 1.23 1.26h31.96c.678 0 1.23-.564 1.23-1.26 0-.695-.552-1.26-1.23-1.26M36.573 49.451h-.012c-.658 0-1.186.538-1.186 1.2 0 .663.54 1.2 1.198 1.2.659 0 1.192-.537 1.192-1.2 0-.662-.533-1.2-1.192-1.2M59.149 16.932a1.19 1.19 0 0 0 1.69 0 1.203 1.203 0 0 0 0-1.697l-2.39-2.4a1.19 1.19 0 0 0-1.69 0 1.202 1.202 0 0 0 0 1.697l2.39 2.4zM59.067 24.6a1.237 1.237 0 0 0 1.757 0 1.25 1.25 0 0 0 0-1.765l-9.942-9.986a1.238 1.238 0 0 0-1.758 0 1.25 1.25 0 0 0 0 1.765l9.943 9.986z"/>
            <path d="M71.025 50.454c0 1.794-1.888 3.69-3.674 3.69H6.123c-1.786 0-3.674-1.896-3.674-3.69V6.17c0-1.794 1.888-3.69 3.674-3.69H67.35c1.786 0 3.674 1.896 3.674 3.69v44.284zM67.35.02H6.123C2.976.02 0 3.01 0 6.17v44.285c0 3.162 2.976 6.15 6.123 6.15H67.35c3.147 0 6.123-2.988 6.123-6.15V6.17c0-3.161-2.976-6.15-6.123-6.15z"/>
            <path d="M7.226 44.594h58.688V7.738H7.226v36.856zM67.136 5.28H6.003c-.675 0-1.223.55-1.223 1.229v39.312c0 .678.548 1.229 1.223 1.229h61.134c.674 0 1.222-.55 1.222-1.229V6.51c0-.678-.548-1.229-1.223-1.229z"/>
        </g>
    </g>
</svg>
