<svg xmlns="http://www.w3.org/2000/svg" width="152" height="152" viewBox="0 0 152 152">
    <defs>
        <linearGradient id="a" x1="0%" y1="9.057%" y2="100%">
            <stop offset="0%" stop-color="#00D7AF"/>
            <stop offset="100%" stop-color="#46737A"/>
        </linearGradient>
        <linearGradient id="b" x1="-17.509%" x2="117.509%" y1="57.731%" y2="51.326%">
            <stop offset="0%" stop-color="#00D7AF"/>
            <stop offset="100%" stop-color="#46737A"/>
        </linearGradient>
    </defs>
    <g fill="none" fill-rule="evenodd" transform="translate(1 1)">
        <circle cx="75" cy="75" r="75" fill="#FFF" stroke="url(#a)" stroke-width="2"/>
        <g fill-rule="nonzero">
            <path fill="url(#a)" d="M6.78 29.35h38.39v2.26H6.78zM6.78 39.52h36.13v2.26H6.78zM6.78 49.675H35v2.26H6.78zM15.805 59.844h2.26v2.26h-2.26zM11.285 59.844h2.26v2.26h-2.26zM6.78 59.844h2.26v2.26H6.78zM6.78 5.65v18.065h15.805V5.65H6.78zm13.545 15.805H9.039V7.909h11.286v13.546z" transform="translate(50 40)"/>
            <path fill="url(#a)" d="M69.008 31.28l-3.197-3.197a3.393 3.393 0 0 0-4.795 0l-9.095 9.094v-20.71L35.47 0H0v70h51.935V53.148l17.073-17.073a3.393 3.393 0 0 0 0-4.795zM36.13 3.858l11.947 11.947H36.13V3.858zM49.675 67.74H2.26V2.26h31.61v15.805h15.805v21.372l-16.04 16.04-1.997 9.976 9.976-1.998 8.061-8.061V67.74zm-14.303-9.425l3.404 3.404-4.258.854.854-4.258zm5.691 2.508l-4.795-4.795 20.765-20.752 4.796 4.795-20.766 20.752zm22.364-22.35l-4.795-4.796 1.598-1.598 4.796 4.795-1.599 1.598zm3.982-3.997l-.799.8-4.795-4.796.8-.799c.44-.44 1.157-.44 1.598 0l3.196 3.197c.441.44.441 1.157 0 1.598z" transform="translate(50 40)"/>
            <path fill="url(#b)" d="M40.265 55.236l15.97-15.97 1.597 1.598-15.97 15.97z" transform="translate(50 40)"/>
        </g>
    </g>
</svg>
