<svg width="113" height="80" viewBox="0 0 113 80" fill="none" xmlns="http://www.w3.org/2000/svg">
<mask id="mask0" mask-type="alpha" maskUnits="userSpaceOnUse" x="0" y="0" width="113" height="80">
<rect width="112.5" height="80" fill="#C4C4C4"/>
</mask>
<g mask="url(#mask0)">
<circle cx="49.375" cy="85.625" r="45" fill="#5169C8"/>
<path d="M78.3715 27.0481C78.3715 38.4761 70.687 46.8394 59.2589 46.8394C56.2145 46.8394 48.0082 56.3071 45.4044 57.7913C38.9964 61.4538 38.9002 54.3973 38.728 47.0927C38.5608 40.1072 38.5608 28.1625 38.5608 27.2709C38.5608 15.8429 47.1571 6.58801 60.0137 6.58801C71.4417 6.59308 78.3715 15.62 78.3715 27.0481Z" fill="#2025B9"/>
<path d="M50.9898 9.7946C54.7738 7.96591 60.1636 8.06215 60.1636 8.06215C60.1636 8.06215 53.7201 10.7216 51.7597 13.3507C49.9969 15.7112 51.8965 18.8823 50.9898 18.8823C48.5887 18.8823 46.7752 17.7071 46.3649 17.5399C45.9545 17.3728 44.7489 16.9878 44.7489 16.9878C44.7489 16.9878 42.6771 19.2673 42.0084 21.0453C41.6741 21.9369 40.8889 24.2417 40.8889 24.2417H40.0227C40.0227 24.2417 40.5495 21.7647 41.3043 19.6118C41.8362 18.087 43.6244 15.5238 44.2778 14.7944C45.8431 13.0467 47.2058 11.6233 50.9898 9.7946Z" fill="#4F54E5"/>
<path d="M29.4325 47.7843C31.2958 47.7843 32.8062 46.2738 32.8062 44.4106C32.8062 42.5473 31.2958 41.0369 29.4325 41.0369C27.5693 41.0369 26.0588 42.5473 26.0588 44.4106C26.0588 46.2738 27.5693 47.7843 29.4325 47.7843Z" fill="#D9DDFC"/>
<path d="M90.5922 21.6942C92.4555 21.6942 93.9659 20.1837 93.9659 18.3205C93.9659 16.4572 92.4555 14.9468 90.5922 14.9468C88.729 14.9468 87.2185 16.4572 87.2185 18.3205C87.2185 20.1837 88.729 21.6942 90.5922 21.6942Z" fill="#D9DDFC"/>
<path d="M53.599 46.5557C47.0491 46.5557 42.3634 54.8228 41.4617 54.3568C40.6462 53.9363 33.0224 44.1546 33.0224 44.1546L27.9568 47.9741C27.9568 47.9741 38.164 62.791 40.9856 63.0392C43.7818 63.2874 48.8778 60.3392 48.8778 60.3392C48.8778 60.3392 49.9466 66.3724 49.7592 72.3346C49.5718 78.2918 47.6924 86.1283 47.6924 86.1283C47.6924 86.1283 54.2204 88.796 58.6038 88.7625C62.7986 88.7304 69.0339 86.1942 69.0339 86.1942C69.0339 86.1942 67.4737 77.917 67.5953 72.1472C67.7168 66.3775 68.8009 56.7325 68.8009 56.7325C68.8009 56.7325 82.9137 45.0208 85.0717 41.9814C87.2296 38.9421 93.354 20.564 93.354 20.564L87.2246 18.8417C87.2246 18.8417 80.7912 35.1428 78.2432 37.6199C75.6952 40.097 67.7371 44.1546 63.943 44.1546C63.9379 44.1546 53.6091 46.5557 53.599 46.5557Z" fill="#F7C645"/>
<path d="M92.0521 21.4404L87.8933 20.3057C87.8933 20.3057 80.8267 36.1965 80.0719 37.3515C79.3172 38.5014 75.7611 41.5306 71.7289 42.8831C68.3906 44.0026 65.1841 45.2133 65.1841 45.2133C65.1841 45.2133 65.3158 47.6499 64.9359 50.3853C64.5509 53.1258 68.3855 55.917 68.3855 55.917C68.3855 55.917 83.5216 42.5691 84.4385 41.019C85.3503 39.4638 92.0521 21.4404 92.0521 21.4404Z" fill="#FFD975"/>
<path d="M63.9438 43.648C63.9438 43.648 64.268 49.2455 63.2853 51.5554C62.414 53.602 59.9724 54.8076 58.5489 54.8076C57.014 54.8076 54.8764 54.0781 53.7568 51.7885C52.6677 49.5545 53.2655 43.5518 53.2655 43.5518C53.2655 43.5518 56.0212 44.7472 58.3362 44.7472C60.6562 44.7523 63.9438 43.648 63.9438 43.648Z" fill="#D9DDFC"/>
<path d="M63.9438 39.2156C63.9438 39.2156 64.268 44.8131 63.2853 47.1231C62.414 49.1696 59.9724 50.3752 58.5489 50.3752C57.014 50.3752 54.8764 49.6457 53.7568 47.3561C52.6677 45.1221 53.2655 39.1194 53.2655 39.1194C53.2655 39.1194 56.0212 40.3149 58.3362 40.3149C60.6562 40.3199 63.9438 39.2156 63.9438 39.2156Z" fill="#C9D0FB"/>
<path d="M79.1101 30.128C79.1101 31.6274 77.8994 32.8381 76.4 32.8381C75.4881 32.8381 75.1133 32.7976 75.1133 32.7976C75.1133 32.7976 74.9613 33.1826 74.7131 33.8968C72.3829 40.4872 66.0965 45.2134 58.7057 45.2134C51.3555 45.2134 45.0995 40.5429 42.7389 34.0083C42.5464 33.4713 42.3185 32.7773 42.3185 32.7773C42.3185 32.7773 41.2547 32.8432 40.3581 32.8432C38.8586 32.8432 37.6479 31.6325 37.6479 30.1331C37.6479 28.6336 38.8586 27.4229 40.3581 27.4229C41.0672 27.4229 41.7359 27.4229 41.7359 27.4229C41.7359 27.4229 41.741 27.0329 41.7511 26.8303C41.7916 25.8374 41.9183 25.5689 42.1209 24.6267C42.8959 21.0453 45.14 18.6088 45.14 18.6088C45.14 18.6088 58.6551 23.5022 65.3417 24.2519C72.2006 25.0218 75.1943 24.4292 75.1943 24.4292C75.1943 24.4292 75.5945 25.9134 75.6452 26.7948C75.6654 27.1139 75.6604 27.4229 75.6604 27.4229C75.6604 27.4229 75.6806 27.4229 76.3949 27.4229C77.8943 27.4179 79.1101 28.6286 79.1101 30.128Z" fill="#D9DDFC"/>
<path d="M54.7094 37.3312C55.064 37.8985 55.6921 39.4689 58.5086 39.4689C61.3251 39.4689 61.6645 37.7364 62.3331 37.397C62.9511 37.083 63.1892 37.6402 62.2419 38.7546C61.6087 39.5043 60.1498 40.1831 58.5086 40.1831C55.5047 40.1831 53.9546 38.2379 53.9546 37.625C53.9546 37.0121 54.4156 36.8601 54.7094 37.3312Z" fill="#2025B9"/>
<path d="M51.1245 30.9486C50.5318 30.9486 50.0505 30.4623 50.0505 29.8747V27.7573C50.0505 27.1646 50.5368 26.6833 51.1245 26.6833C51.7171 26.6833 52.1984 27.1696 52.1984 27.7573V29.8747C52.1984 30.4674 51.7121 30.9486 51.1245 30.9486Z" fill="#2025B9"/>
<path d="M65.8666 30.9486C65.274 30.9486 64.7927 30.4623 64.7927 29.8747V27.7573C64.7927 27.1646 65.279 26.6833 65.8666 26.6833C66.4593 26.6833 66.9405 27.1696 66.9405 27.7573V29.8747C66.9456 30.4674 66.4593 30.9486 65.8666 30.9486Z" fill="#2025B9"/>
<path d="M50.1662 27.2913V28.5425C50.1662 28.5425 49.7458 28.2081 49.5229 27.9802C49.2949 27.7522 49.2139 27.4787 49.0467 27.1798C48.8796 26.881 48.7884 26.3389 49.0265 26.6175C49.1784 26.7948 49.3811 27.0127 49.6191 27.2558C49.8268 27.4635 50.1662 27.2913 50.1662 27.2913Z" fill="#2025B9"/>
<path d="M66.6658 27.2913V28.5425C66.6658 28.5425 67.0862 28.2081 67.3091 27.9802C67.5371 27.7522 67.6181 27.4787 67.7853 27.1798C67.9524 26.881 68.0436 26.3389 67.8055 26.6175C67.6536 26.7948 67.4509 27.0127 67.2129 27.2558C67.0052 27.4635 66.6658 27.2913 66.6658 27.2913Z" fill="#2025B9"/>
</g>
<circle cx="12.5" cy="59.375" r="4.25" stroke="#FDF0C6" stroke-width="4"/>
<circle cx="106.25" cy="32.5" r="4.25" stroke="#F8D4E1" stroke-width="4"/>
<circle cx="85" cy="68.125" r="4.25" stroke="#D1F7F4" stroke-width="4"/>
</svg>
