<svg xmlns="http://www.w3.org/2000/svg" width="152" height="152" viewBox="0 0 152 152">
    <defs>
        <linearGradient id="a" x1="0%" y1="9.057%" y2="100%">
            <stop offset="0%" stop-color="#00D7AF"/>
            <stop offset="100%" stop-color="#46737A"/>
        </linearGradient>
    </defs>
    <g fill="none" fill-rule="evenodd" transform="translate(1 1)">
        <circle cx="75" cy="75" r="75" fill="#FFF" stroke="url(#a)" stroke-width="2"/>
        <g fill="url(#a)" fill-rule="nonzero" transform="translate(49 40)">
            <path d="M49.54 5.385h-9.35V4.039c0-.744-.597-1.347-1.335-1.347H30.84A6.684 6.684 0 0 0 25.5 0a6.684 6.684 0 0 0-5.34 2.692h-8.015c-.738 0-1.336.603-1.336 1.346v1.347H1.461c-.738 0-1.336.602-1.336 1.346v61.923C.125 69.397.723 70 1.461 70h48.078c.738 0 1.336-.603 1.336-1.346V6.73c0-.744-.598-1.346-1.336-1.346zm-36.06 0h7.394c.477 0 .918-.256 1.156-.672a4.016 4.016 0 0 1 3.47-2.02c1.425 0 2.754.774 3.47 2.02.238.416.679.672 1.155.672h7.395v5.384H13.48V5.385zm34.724 56.538h-6.678c-.737 0-1.335.603-1.335 1.346 0 .744.598 1.346 1.335 1.346h6.678v2.693H2.796V8.077h8.013v4.038c0 .744.598 1.346 1.336 1.346h26.71c.738 0 1.336-.602 1.336-1.346V8.077h8.013v53.846z"/>
            <path d="M18.332 17.804a1.328 1.328 0 0 0-1.88.19l-5.482 6.767-3.112-4.047a1.328 1.328 0 0 0-1.873-.24 1.353 1.353 0 0 0-.238 1.89l4.14 5.384c.25.324.632.516 1.039.521h.017c.4 0 .78-.181 1.034-.494l6.544-8.077a1.353 1.353 0 0 0-.19-1.894zM44.197 18.846H22.83c-.737 0-1.335.603-1.335 1.346 0 .744.598 1.346 1.335 1.346h21.368c.738 0 1.336-.602 1.336-1.346 0-.743-.598-1.346-1.336-1.346zM30.842 24.23H22.83c-.737 0-1.335.604-1.335 1.347s.598 1.346 1.335 1.346h8.013c.738 0 1.336-.603 1.336-1.346 0-.743-.598-1.346-1.336-1.346zM18.332 33.957a1.328 1.328 0 0 0-1.88.192l-5.482 6.766-3.112-4.047a1.328 1.328 0 0 0-1.873-.24 1.353 1.353 0 0 0-.238 1.89l4.14 5.384c.25.324.632.516 1.039.521h.017c.4 0 .78-.181 1.034-.495l6.544-8.077a1.353 1.353 0 0 0-.19-1.894zM44.197 35H22.83c-.737 0-1.335.603-1.335 1.346 0 .743.598 1.346 1.335 1.346h21.368c.738 0 1.336-.603 1.336-1.346 0-.743-.598-1.346-1.336-1.346zM30.842 40.385H22.83c-.737 0-1.335.602-1.335 1.346 0 .743.598 1.346 1.335 1.346h8.013c.738 0 1.336-.603 1.336-1.346 0-.744-.598-1.346-1.336-1.346zM18.332 50.111a1.328 1.328 0 0 0-1.88.191L10.97 57.07l-3.112-4.047a1.328 1.328 0 0 0-1.873-.24 1.353 1.353 0 0 0-.238 1.889l4.14 5.385c.25.324.632.516 1.039.52h.017c.4 0 .78-.18 1.034-.494l6.544-8.077a1.353 1.353 0 0 0-.19-1.894zM44.197 51.154H22.83c-.737 0-1.335.603-1.335 1.346 0 .743.598 1.346 1.335 1.346h21.368c.738 0 1.336-.603 1.336-1.346 0-.743-.598-1.346-1.336-1.346zM30.842 56.538H22.83c-.737 0-1.335.603-1.335 1.347 0 .743.598 1.346 1.335 1.346h8.013c.738 0 1.336-.603 1.336-1.346 0-.744-.598-1.347-1.336-1.347zM38.464 62.318a1.34 1.34 0 0 0-.944-.395 1.34 1.34 0 0 0-1.336 1.346 1.34 1.34 0 0 0 1.335 1.346 1.34 1.34 0 0 0 1.336-1.346c0-.354-.143-.701-.391-.951z"/>
        </g>
    </g>
</svg>
