<svg width="130" height="130" viewBox="0 0 130 130" fill="none" xmlns="http://www.w3.org/2000/svg">
<g filter="url(#filter0_d)">
<circle cx="65" cy="59" r="50" fill="white"/>
</g>
<path d="M84.7685 53.4727L84.8966 53.9865L85.3936 54.1693L89 55.4955V62.5128L85.5251 63.8346L85.0259 64.0245L84.9062 64.545C84.5081 66.2747 83.8426 67.7527 83.0135 69.2772L82.7821 69.7026L82.9724 70.1479L84.4082 73.5075L79.4099 78.4007L76.0484 76.9559L75.6009 76.7635L75.1736 76.9973C73.6709 77.8193 72.0457 78.4959 70.4386 78.899L69.9315 79.0262L69.7465 79.5152L68.4284 83H61.5716L60.2535 79.5152L60.0644 79.0153L59.5437 78.8947C57.8197 78.4955 56.3465 77.8286 54.8265 76.9973L54.3992 76.7635L53.9518 76.9559L50.5901 78.4007L45.5918 73.5075L47.0276 70.1479L47.2179 69.7026L46.9864 69.2771C46.1666 67.77 45.4916 66.1398 45.0896 64.5273L44.9632 64.0204L44.4749 63.8346L41 62.5128V55.4872L44.4749 54.1654L44.974 53.9755L45.0938 53.455C45.4919 51.7253 46.1574 50.2473 46.9865 48.7228L47.2179 48.2974L47.0276 47.8521L45.5883 44.4844L50.4561 39.6028L53.8098 41.0442L54.2574 41.2365L54.6847 41.0027C56.1872 40.1806 57.8124 39.504 59.4195 39.101L59.9266 38.9739L60.1116 38.4848L61.4297 35H68.4058L69.5942 38.4562L69.7745 38.9803L70.3144 39.1053C72.0384 39.5043 73.5115 40.1713 75.0316 41.0027L75.4589 41.2365L75.9063 41.0442L79.2681 39.5993L84.2663 44.4925L82.8305 47.8521L82.6402 48.2974L82.8716 48.7229C83.6915 50.23 84.3665 51.8603 84.7685 53.4727Z" stroke="#6480EB" stroke-width="2"/>
<path d="M57 58L62.7273 64L73 54" stroke="#00D7AF" stroke-width="2" stroke-linecap="round" stroke-linejoin="round"/>
<defs>
<filter id="filter0_d" x="0" y="0" width="130" height="130" filterUnits="userSpaceOnUse" color-interpolation-filters="sRGB">
<feFlood flood-opacity="0" result="BackgroundImageFix"/>
<feColorMatrix in="SourceAlpha" type="matrix" values="0 0 0 0 0 0 0 0 0 0 0 0 0 0 0 0 0 0 127 0"/>
<feOffset dy="6"/>
<feGaussianBlur stdDeviation="7.5"/>
<feColorMatrix type="matrix" values="0 0 0 0 0 0 0 0 0 0 0 0 0 0 0 0 0 0 0.05 0"/>
<feBlend mode="normal" in2="BackgroundImageFix" result="effect1_dropShadow"/>
<feBlend mode="normal" in="SourceGraphic" in2="effect1_dropShadow" result="shape"/>
</filter>
</defs>
</svg>
