<svg width="764" height="433" viewBox="0 0 764 433" fill="none" xmlns="http://www.w3.org/2000/svg">
<path d="M73.9181 413.455C291.238 414.375 511.297 412.535 728.617 413.455C742.989 405.561 761.642 392.356 763.805 373.572C765.869 355.655 751.034 349.124 744.432 322.631C735.773 287.892 755.724 276.847 746.013 253.525C734.334 225.472 703.694 237.169 681.174 205.349C661.9 178.113 675.979 157.721 651.521 127.161C647.591 122.252 637.146 109.478 619.497 101.098C589.564 86.8862 575.457 102.662 549.122 95.1749C503.623 82.2383 507.869 24.3792 459.374 10.6687C436.233 4.12537 414.67 11.4782 410.349 13.038C376.387 25.3112 377.806 51.9898 351.439 58.4502C320.755 65.9689 303.786 33.5288 269.599 41.47C248.744 46.3153 236.096 62.794 231.249 69.1122C194.832 116.57 225.943 183.417 203.573 193.897C189.688 200.405 176.827 175.053 145.85 177.707C128.173 179.219 109.041 189.474 98.4061 205.349C80.8638 231.534 99.9283 255.666 82.5915 271.295C64.5036 287.604 42.9483 271.161 22.1007 286.696C0.849886 302.531 -8.40165 343.201 9.44907 374.361C22.7373 397.561 45.9697 414.186 73.9181 413.455Z" fill="#F8F8FE"/>
<rect x="590.518" y="411.682" width="89.8023" height="2.0388" rx="1.0194" fill="#E2E6FB"/>
<path d="M562.142 413.741C565.374 407.272 567.21 399.857 567.21 391.967C567.21 366.822 548.556 346.441 525.541 346.441C513.431 346.441 502.532 352.081 494.92 361.086C489.008 356.94 481.966 354.535 474.422 354.535C472.347 354.535 470.306 354.711 468.319 355.065C463.509 351.898 457.863 350.083 451.828 350.083C439.65 350.083 429.058 357.504 423.636 368.439C411.492 372.925 402.75 385.484 402.75 400.265C402.75 405.056 405.825 413.918 405.825 413.918L562.142 413.741Z" fill="#E1E5FA"/>
<path d="M514.322 393.972C514.322 401.026 515.785 407.666 518.363 413.449H643.379C644.699 409.759 645.434 405.681 645.434 401.393C645.434 388.168 638.467 376.927 628.779 372.918C624.459 363.138 616.01 356.499 606.308 356.499C601.499 356.499 597.002 358.123 593.165 360.957C591.58 360.637 589.954 360.481 588.3 360.481C582.286 360.481 576.674 362.635 571.959 366.346C565.891 358.286 557.203 353.237 547.549 353.237C529.201 353.23 514.322 371.47 514.322 393.972Z" fill="#C5CCEF"/>
<path d="M491.498 364.912C491.498 373.509 481.497 379.408 452.508 380.176C423.527 380.944 410.186 410.479 410.186 410.479C410.186 410.479 404.92 395.1 413.009 383.105C416.329 378.185 421.683 376.499 427.629 371.062C434.752 364.545 433.283 356.492 447.889 354.405C460.455 352.611 460.509 357.538 467.897 358.762C473.904 359.761 475.571 358.048 480.463 358.252C485.592 358.463 491.498 362.16 491.498 364.912Z" fill="#BAC4F4"/>
<path d="M521.316 393.972C521.316 401.026 522.779 407.666 525.357 413.449H650.373C651.693 409.759 652.427 405.681 652.427 401.393C652.427 388.168 645.461 376.927 635.773 372.918C631.453 363.138 623.004 356.499 613.302 356.499C608.492 356.499 603.995 358.123 600.158 360.957C598.573 360.637 596.947 360.481 595.294 360.481C589.28 360.481 583.667 362.635 578.953 366.346C572.884 358.286 564.197 353.237 554.543 353.237C536.195 353.23 521.316 371.47 521.316 393.972Z" fill="#D6DBFA"/>
<path d="M576.32 376.791C576.32 376.791 559.822 375.303 552.448 375.643C545.073 375.983 528.623 378.987 528.623 378.987C528.623 378.987 534.82 364.864 548.087 361.657C562.55 358.157 576.32 376.791 576.32 376.791Z" fill="#BAC4F4"/>
<path d="M168.039 413.513L215.314 282.224V413.513H168.039Z" fill="#F1F2FE"/>
<path d="M217.753 413.721C212.229 413.721 207.752 409.242 207.753 403.718L207.786 283.721C207.787 278.199 212.264 273.723 217.786 273.723H346.467C351.998 273.723 356.479 278.213 356.467 283.744L356.216 403.742C356.204 409.257 351.73 413.721 346.216 413.721H217.753Z" fill="#E1E5FA"/>
<path d="M339.132 282.942H225.315C219.792 282.942 215.315 287.419 215.315 292.942V293.958C215.315 299.48 219.792 303.958 225.315 303.958H339.132C344.655 303.958 349.132 299.48 349.132 293.958V292.942C349.132 287.419 344.655 282.942 339.132 282.942Z" fill="#D6DBFA"/>
<path d="M289.931 286.493H274.903C273.847 286.493 272.99 287.35 272.99 288.406C272.99 289.462 273.847 290.319 274.903 290.319H289.931C290.987 290.319 291.844 289.462 291.844 288.406C291.844 287.35 290.987 286.493 289.931 286.493Z" fill="#BAC4F4"/>
<path d="M340.645 314.328H294.459C288.936 314.328 284.459 318.806 284.459 324.328V394.956C284.459 400.479 288.936 404.956 294.459 404.956H340.645C346.168 404.956 350.645 400.479 350.645 394.956V324.328C350.645 318.806 346.168 314.328 340.645 314.328Z" fill="#D6DBFA"/>
<path d="M270.554 314.328H224.369C218.846 314.328 214.369 318.806 214.369 324.328V394.956C214.369 400.479 218.846 404.956 224.369 404.956H270.554C276.077 404.956 280.554 400.479 280.554 394.956V324.328C280.554 318.806 276.077 314.328 270.554 314.328Z" fill="#D6DBFA"/>
<path d="M272.442 357.37C273.868 357.37 275.023 356.216 275.023 354.792C275.023 353.368 273.868 352.213 272.442 352.213C271.016 352.213 269.861 353.368 269.861 354.792C269.861 356.216 271.016 357.37 272.442 357.37Z" fill="#BAC4F4"/>
<path d="M292.241 357.37C293.666 357.37 294.822 356.216 294.822 354.792C294.822 353.368 293.666 352.213 292.241 352.213C290.815 352.213 289.66 353.368 289.66 354.792C289.66 356.216 290.815 357.37 292.241 357.37Z" fill="#BAC4F4"/>
<rect x="184.367" y="419.158" width="89.8023" height="2.0388" rx="1.0194" fill="#E2E6FB"/>
<path d="M146.296 421.077C144.104 416.712 142.858 411.708 142.858 406.384C142.858 389.416 155.514 375.663 171.129 375.663C179.345 375.663 186.74 379.47 191.905 385.546C195.916 382.749 200.694 381.125 205.812 381.125C207.22 381.125 208.605 381.244 209.953 381.483C213.216 379.346 217.047 378.121 221.141 378.121C229.404 378.121 236.591 383.129 240.269 390.508C248.509 393.534 254.44 402.009 254.44 411.983C254.44 415.217 252.354 421.196 252.354 421.196L146.296 421.077Z" fill="#E1E5FA"/>
<path d="M178.741 407.737C178.741 412.497 177.748 416.977 175.999 420.88H91.1791C90.2836 418.39 89.7851 415.638 89.7851 412.745C89.7851 403.821 94.5117 396.236 101.085 393.53C104.016 386.931 109.748 382.45 116.331 382.45C119.594 382.45 122.645 383.546 125.248 385.459C126.324 385.243 127.427 385.138 128.549 385.138C132.629 385.138 136.437 386.591 139.636 389.095C143.753 383.657 149.647 380.249 156.197 380.249C168.646 380.245 178.741 392.553 178.741 407.737Z" fill="#C5CCEF"/>
<path d="M194.227 388.128C194.227 393.929 201.012 397.909 220.68 398.428C240.343 398.946 249.395 418.876 249.395 418.876C249.395 418.876 252.967 408.498 247.479 400.404C245.227 397.084 241.594 395.947 237.56 392.278C232.727 387.88 233.724 382.446 223.814 381.038C215.289 379.827 215.252 383.152 210.239 383.978C206.163 384.652 205.032 383.496 201.714 383.634C198.233 383.776 194.227 386.27 194.227 388.128Z" fill="#BAC4F4"/>
<path d="M173.996 407.737C173.996 412.497 173.003 416.977 171.254 420.88H86.434C85.5386 418.39 85.0401 415.638 85.0401 412.745C85.0401 403.821 89.7666 396.236 96.3395 393.53C99.2706 386.931 105.003 382.45 111.586 382.45C114.849 382.45 117.9 383.546 120.503 385.459C121.579 385.243 122.682 385.138 123.804 385.138C127.884 385.138 131.692 386.591 134.891 389.095C139.008 383.657 144.902 380.249 151.452 380.249C163.901 380.245 173.996 392.553 173.996 407.737Z" fill="#D6DBFA"/>
<path d="M136.677 396.144C136.677 396.144 147.87 395.14 152.874 395.369C157.877 395.598 169.038 397.625 169.038 397.625C169.038 397.625 164.833 388.096 155.833 385.931C146.019 383.569 136.677 396.144 136.677 396.144Z" fill="#BAC4F4"/>
<path fill-rule="evenodd" clip-rule="evenodd" d="M285.596 394C285.591 393.998 285.589 393.997 285.586 393.993C285.437 393.78 279.198 384.918 273.33 386.848C269.176 388.214 266.536 394.853 266.358 395.313C266.352 395.329 266.36 395.344 266.375 395.351L290.202 407.325L294.583 398.655L285.596 394Z" fill="white"/>
<g filter="url(#filter0_d)">
<path d="M126.54 70.6208C126.54 54.0522 139.971 40.6208 156.54 40.6208H272.062C288.631 40.6208 302.062 54.0522 302.062 70.6208V109.306C302.062 117.538 295.389 124.212 287.157 124.212C283.003 124.212 280.683 129.005 283.26 132.263L284.69 134.07C289.034 139.56 282.19 146.837 276.444 142.838L252.253 126.003C250.576 124.837 248.583 124.212 246.541 124.212H156.54C139.971 124.212 126.54 110.78 126.54 94.2115V70.6208Z" fill="white"/>
</g>
<path d="M148.727 75.8498C147.03 75.7724 145.394 75.393 143.821 74.7116V70.8557C144.72 71.3125 145.696 71.6957 146.751 72.0055C147.805 72.3074 148.731 72.4584 149.529 72.4584C150.188 72.4584 150.669 72.381 150.971 72.2261C151.281 72.0635 151.436 71.7964 151.436 71.4247C151.436 71.1692 151.324 70.9524 151.099 70.7744C150.882 70.5963 150.514 70.395 149.994 70.1704C149.483 69.9459 148.789 69.6749 147.913 69.3574C146.929 68.9935 146.134 68.587 145.53 68.1379C144.925 67.6811 144.483 67.1739 144.204 66.6165C143.933 66.0512 143.797 65.3505 143.797 64.5143C143.797 63.2367 144.208 62.2379 145.03 61.5178C145.851 60.7977 147.084 60.3525 148.727 60.1822V58.591H151.134V60.1589C152.676 60.2441 154.23 60.6235 155.796 61.2971L154.412 64.6072C152.793 63.8794 151.331 63.5154 150.029 63.5154C149.409 63.5154 148.971 63.5929 148.715 63.7477C148.467 63.8948 148.343 64.1155 148.343 64.4097C148.343 64.6653 148.433 64.8782 148.611 65.0485C148.797 65.2111 149.115 65.397 149.564 65.606C150.014 65.8073 150.638 66.0435 151.436 66.3145C153.056 66.8874 154.219 67.5417 154.924 68.2773C155.629 69.0051 155.982 69.9459 155.982 71.0996C155.982 72.4003 155.567 73.4572 154.738 74.2702C153.916 75.0832 152.715 75.5865 151.134 75.7801V78.0216H148.727V75.8498Z" fill="#2C3652"/>
<path d="M164.539 65.5131C165.516 65.5131 166.396 65.7415 167.178 66.1983C167.969 66.6474 168.581 67.2862 169.015 68.1147C169.457 68.9432 169.678 69.8994 169.678 70.9834C169.678 72.8804 169.105 74.3361 167.957 75.3504C166.818 76.3647 165.09 76.8718 162.772 76.8718C160.788 76.8718 159.168 76.566 157.912 75.9543V72.1913C158.586 72.501 159.346 72.7565 160.191 72.9578C161.044 73.1591 161.776 73.2598 162.388 73.2598C163.241 73.2598 163.896 73.0817 164.353 72.7255C164.811 72.3616 165.039 71.8274 165.039 71.1228C165.039 70.4724 164.807 69.9652 164.342 69.6013C163.877 69.2374 163.171 69.0554 162.226 69.0554C161.505 69.0554 160.726 69.1909 159.889 69.4619L158.203 68.6257L158.842 59.6595H168.539V63.4806H162.749L162.539 65.7222C163.144 65.606 163.574 65.5441 163.83 65.5363C164.086 65.5208 164.322 65.5131 164.539 65.5131Z" fill="#2C3652"/>
<path d="M150.553 92.6101H147.683V102.464H145.174V92.6101H143.239V91.4421L145.174 90.6775V89.913C145.174 88.5255 145.5 87.499 146.152 86.8335C146.804 86.161 147.8 85.8248 149.139 85.8248C150.018 85.8248 150.882 85.9699 151.733 86.2601L151.074 88.1503C150.457 87.9521 149.869 87.8529 149.309 87.8529C148.742 87.8529 148.328 88.0299 148.065 88.3839C147.81 88.7308 147.683 89.2546 147.683 89.9555V90.72H150.553V92.6101Z" fill="#2C3652"/>
<path d="M162.99 96.5709C162.99 98.4894 162.497 99.9866 161.512 101.063C160.527 102.139 159.156 102.677 157.399 102.677C156.3 102.677 155.329 102.429 154.486 101.933C153.643 101.438 152.994 100.726 152.541 99.799C152.087 98.8717 151.86 97.7956 151.86 96.5709C151.86 94.6666 152.349 93.18 153.327 92.1111C154.305 91.0421 155.684 90.5076 157.462 90.5076C159.163 90.5076 160.51 91.0563 161.502 92.1535C162.494 93.2437 162.99 94.7162 162.99 96.5709ZM154.433 96.5709C154.433 99.2823 155.436 100.638 157.441 100.638C159.425 100.638 160.417 99.2823 160.417 96.5709C160.417 93.8879 159.418 92.5464 157.42 92.5464C156.371 92.5464 155.609 92.8933 155.134 93.5871C154.667 94.2808 154.433 95.2754 154.433 96.5709Z" fill="#2C3652"/>
<path d="M171.834 90.5076C172.337 90.5076 172.752 90.543 173.078 90.6138L172.833 92.9393C172.479 92.8544 172.11 92.8119 171.728 92.8119C170.729 92.8119 169.917 93.1375 169.294 93.7888C168.677 94.4401 168.369 95.2861 168.369 96.3267V102.464H165.871V90.72H167.827L168.156 92.7907H168.284C168.673 92.0898 169.18 91.5341 169.804 91.1235C170.434 90.7129 171.111 90.5076 171.834 90.5076Z" fill="#2C3652"/>
<path d="M190.83 102.464H188.321V95.2224C188.321 94.3233 188.151 93.6543 187.811 93.2154C187.471 92.7694 186.939 92.5464 186.217 92.5464C185.253 92.5464 184.544 92.8615 184.091 93.4915C183.644 94.1145 183.421 95.1551 183.421 96.6134V102.464H180.923V90.72H182.879L183.229 92.2597H183.357C183.683 91.7005 184.154 91.2686 184.771 90.9642C185.394 90.6598 186.078 90.5076 186.822 90.5076C188.63 90.5076 189.827 91.1235 190.415 92.3553H190.585C190.933 91.7748 191.422 91.3217 192.052 90.9961C192.683 90.6705 193.406 90.5076 194.221 90.5076C195.624 90.5076 196.645 90.8616 197.282 91.5695C197.927 92.2774 198.25 93.357 198.25 94.8082V102.464H195.752V95.2224C195.752 94.3233 195.578 93.6543 195.231 93.2154C194.891 92.7694 194.359 92.5464 193.636 92.5464C192.665 92.5464 191.953 92.8508 191.5 93.4596C191.053 94.0614 190.83 94.9887 190.83 96.2418V102.464Z" fill="#2C3652"/>
<path d="M206.871 102.677C205.042 102.677 203.611 102.146 202.576 101.084C201.549 100.015 201.035 98.546 201.035 96.6771C201.035 94.7587 201.513 93.2508 202.47 92.1535C203.426 91.0563 204.741 90.5076 206.414 90.5076C207.965 90.5076 209.191 90.9784 210.092 91.9199C210.992 92.8615 211.442 94.1569 211.442 95.8064V97.155H203.607C203.643 98.2947 203.951 99.1725 204.532 99.7884C205.113 100.397 205.932 100.702 206.988 100.702C207.682 100.702 208.327 100.638 208.922 100.51C209.525 100.376 210.169 100.157 210.857 99.8521V101.88C210.247 102.171 209.631 102.376 209.007 102.496C208.384 102.617 207.671 102.677 206.871 102.677ZM206.414 92.3978C205.62 92.3978 204.982 92.6491 204.5 93.1517C204.025 93.6543 203.742 94.387 203.65 95.3498H208.986C208.972 94.3799 208.738 93.6472 208.284 93.1517C207.831 92.6491 207.207 92.3978 206.414 92.3978Z" fill="#2C3652"/>
<path d="M216.438 97.7496H214.588L214.035 86.9397H216.98L216.438 97.7496ZM213.908 101.137C213.908 100.613 214.046 100.217 214.322 99.9477C214.599 99.6716 214.992 99.5336 215.502 99.5336C216.005 99.5336 216.392 99.6751 216.661 99.9583C216.93 100.241 217.065 100.634 217.065 101.137C217.065 101.64 216.927 102.04 216.65 102.337C216.381 102.627 215.998 102.772 215.502 102.772C214.999 102.772 214.606 102.631 214.322 102.348C214.046 102.064 213.908 101.661 213.908 101.137Z" fill="#2C3652"/>
<g filter="url(#filter1_d)">
<path d="M185.728 78.6783C191.739 78.6783 196.613 73.8101 196.613 67.8047C196.613 61.7994 191.739 56.9312 185.728 56.9312C179.716 56.9312 174.842 61.7994 174.842 67.8047C174.842 73.8101 179.716 78.6783 185.728 78.6783Z" fill="url(#paint0_linear)"/>
<path d="M185.728 78.6783C191.739 78.6783 196.613 73.8101 196.613 67.8047C196.613 61.7994 191.739 56.9312 185.728 56.9312C179.716 56.9312 174.842 61.7994 174.842 67.8047C174.842 73.8101 179.716 78.6783 185.728 78.6783Z" stroke="white" stroke-width="4"/>
</g>
<mask id="mask0" mask-type="alpha" maskUnits="userSpaceOnUse" x="174" y="56" width="23" height="23">
<path d="M185.728 78.6783C191.739 78.6783 196.613 73.8101 196.613 67.8047C196.613 61.7994 191.739 56.9312 185.728 56.9312C179.716 56.9312 174.842 61.7994 174.842 67.8047C174.842 73.8101 179.716 78.6783 185.728 78.6783Z" fill="white"/>
</mask>
<g mask="url(#mask0)">
<path d="M185.728 78.6783C191.739 78.6783 196.613 73.8101 196.613 67.8047C196.613 61.7994 191.739 56.9312 185.728 56.9312C179.716 56.9312 174.842 61.7994 174.842 67.8047C174.842 73.8101 179.716 78.6783 185.728 78.6783Z" fill="url(#paint1_linear)"/>
<g style="mix-blend-mode:overlay" opacity="0.3">
<g style="mix-blend-mode:overlay" opacity="0.3">
<path fill-rule="evenodd" clip-rule="evenodd" d="M191.171 75.2121C189.568 75.2121 188.742 75.8133 188.013 76.3447C187.362 76.8184 186.847 77.1924 185.728 77.1924C184.609 77.1924 184.094 76.8184 183.443 76.3441C182.714 75.8133 181.887 75.2116 180.285 75.2116C178.683 75.2116 177.856 75.8133 177.127 76.3441C176.476 76.8178 175.961 77.1924 174.842 77.1924V78.6778C176.444 78.6778 177.271 78.0761 178 77.5453C178.652 77.0716 179.166 76.6975 180.285 76.6975C181.404 76.6975 181.918 77.0716 182.57 77.5458C183.3 78.0761 184.126 78.6783 185.728 78.6783C187.33 78.6783 188.157 78.0761 188.885 77.5458C189.537 77.0721 190.051 76.6975 191.171 76.6975C192.289 76.6975 192.804 77.0716 193.455 77.5458C194.184 78.0761 195.011 78.6783 196.613 78.6783V77.1919C195.494 77.1919 194.979 76.8178 194.328 76.3436C193.599 75.8127 192.772 75.2111 191.171 75.2111V75.2121ZM194.328 71.649C193.599 71.1116 192.772 70.5029 191.171 70.5029C189.568 70.5029 188.742 71.1116 188.013 71.649C187.362 72.1282 186.847 72.5077 185.728 72.5077C184.609 72.5077 184.094 72.1287 183.443 71.649C182.714 71.1116 181.887 70.5029 180.285 70.5029C178.683 70.5029 177.856 71.1116 177.127 71.649C176.476 72.1282 175.961 72.5077 174.842 72.5077V74.011C176.444 74.011 177.271 73.4023 178 72.8649C178.652 72.3857 179.166 72.0062 180.285 72.0062C181.404 72.0062 181.918 72.3852 182.57 72.8649C183.3 73.4023 184.126 74.011 185.728 74.011C187.33 74.011 188.157 73.4023 188.885 72.8649C189.537 72.3857 190.051 72.0062 191.171 72.0062C192.289 72.0062 192.804 72.3852 193.455 72.8649C194.184 73.4023 195.011 74.011 196.613 74.011V72.5077C195.494 72.5077 194.979 72.1287 194.328 71.649ZM194.328 66.3512C193.599 65.8143 192.772 65.2051 191.171 65.2051C189.568 65.2051 188.742 65.8138 188.013 66.3512C187.362 66.8309 186.847 67.2099 185.728 67.2099C184.609 67.2099 184.094 66.8309 183.443 66.3512C182.714 65.8138 181.887 65.2051 180.285 65.2051C178.683 65.2051 177.856 65.8138 177.127 66.3512C176.476 66.8309 175.961 67.2099 174.842 67.2099V68.7132C176.444 68.7132 177.271 68.1044 178 67.567C178.652 67.0879 179.166 66.7089 180.285 66.7089C181.404 66.7089 181.918 67.0873 182.57 67.567C183.3 68.1044 184.126 68.7132 185.728 68.7132C187.33 68.7132 188.157 68.1044 188.885 67.567C189.537 67.0879 190.051 66.7089 191.171 66.7089C192.289 66.7089 192.804 67.0873 193.455 67.567C194.184 68.1044 195.011 68.7132 196.613 68.7132V67.2104C195.494 67.2104 194.979 66.8309 194.328 66.3512ZM194.328 61.6283C193.599 61.0975 192.772 60.4958 191.171 60.4958C189.568 60.4958 188.742 61.0975 188.013 61.6283C187.362 62.102 186.847 62.4766 185.728 62.4766C184.609 62.4766 184.094 62.1026 183.443 61.6283C182.714 61.0975 181.887 60.4958 180.285 60.4958C178.683 60.4958 177.856 61.0975 177.127 61.6283C176.476 62.102 175.961 62.4766 174.842 62.4766V63.962C176.444 63.962 177.271 63.3603 178 62.8295C178.652 62.3563 179.166 61.9823 180.285 61.9823C181.404 61.9823 181.918 62.3563 182.57 62.8306C183.3 63.3609 184.126 63.9631 185.728 63.9631C187.33 63.9631 188.157 63.3609 188.885 62.8306C189.537 62.3569 190.051 61.9823 191.171 61.9823C192.289 61.9823 192.804 62.3563 193.455 62.8306C194.184 63.3609 195.011 63.9631 196.613 63.9631V62.4772C195.494 62.4772 194.979 62.1031 194.328 61.6289V61.6283ZM191.171 55.7871C189.568 55.7871 188.742 56.3888 188.013 56.9196C187.362 57.3933 186.847 57.7674 185.728 57.7674C184.609 57.7674 184.094 57.3933 183.443 56.9191C182.714 56.3888 181.887 55.7866 180.285 55.7866C178.683 55.7866 177.856 56.3888 177.127 56.9191C176.476 57.3928 175.961 57.7674 174.842 57.7674V59.2533C176.444 59.2533 177.271 58.6516 178 58.1208C178.652 57.6471 179.166 57.2725 180.285 57.2725C181.404 57.2725 181.918 57.6471 182.57 58.1208C183.3 58.6516 184.126 59.2533 185.728 59.2533C187.33 59.2533 188.157 58.6516 188.885 58.1208C189.537 57.6471 190.052 57.2725 191.171 57.2725C192.289 57.2725 192.804 57.6471 193.455 58.1208C194.184 58.6516 195.011 59.2533 196.613 59.2533V57.7674C195.494 57.7674 194.979 57.3933 194.328 56.9191C193.599 56.3888 192.772 55.7866 191.171 55.7866V55.7871Z" fill="black"/>
</g>
</g>
<path fill-rule="evenodd" clip-rule="evenodd" d="M185.344 66.8473C185.344 67.7412 185.076 68.432 184.538 68.9186C184.001 69.4062 183.237 69.6498 182.248 69.6498H181.629V72.3041H179.426V64.3023H182.248C183.278 64.3023 184.052 64.5229 184.569 64.9646C185.086 65.4058 185.344 66.0337 185.344 66.8473ZM181.629 67.8874H182.031C182.362 67.8874 182.625 67.7961 182.82 67.6134C183.015 67.4312 183.113 67.1792 183.113 66.8583C183.113 66.3182 182.808 66.0482 182.198 66.0482H181.629V67.8874ZM188.549 71.9317C187.737 71.896 186.939 71.7143 186.195 71.3957V69.5784C186.626 69.7935 187.095 69.9732 187.601 70.1175C188.106 70.2617 188.55 70.3336 188.934 70.3336C189.25 70.3336 189.481 70.2961 189.628 70.2213C189.775 70.1464 189.849 70.0216 189.849 69.8469C189.849 69.7262 189.796 69.6238 189.689 69.54C189.584 69.4561 189.407 69.3613 189.159 69.2555C188.83 69.1179 188.496 68.9901 188.158 68.8722C187.686 68.701 187.305 68.5083 187.015 68.2947C186.725 68.0816 186.514 67.8425 186.381 67.578C186.249 67.3135 186.184 66.984 186.184 66.5897C186.184 65.9878 186.381 65.5171 186.775 65.1778C187.169 64.8384 187.76 64.6287 188.549 64.5489V63.7987H189.704V64.5374C190.443 64.5773 191.189 64.7565 191.94 65.0739L191.277 66.6337C190.499 66.2908 189.798 66.1196 189.174 66.1196C188.876 66.1196 188.667 66.1545 188.546 66.2259C188.489 66.2567 188.442 66.3024 188.41 66.3579C188.378 66.4135 188.362 66.4766 188.365 66.5403C188.365 66.6611 188.409 66.7604 188.496 66.8393C188.583 66.9177 188.735 67.005 188.95 67.1018C189.166 67.1987 189.466 67.3105 189.849 67.4382C190.626 67.7083 191.183 68.0157 191.522 68.3606C191.861 68.705 192.029 69.1497 192.029 69.6932C192.029 70.3061 191.832 70.8042 191.436 71.1876C191.04 71.5709 190.462 71.808 189.704 71.8993V72.9554H188.549V71.9322V71.9317Z" fill="white"/>
</g>
<path d="M209.42 63.1786C208.327 63.1786 207.475 63.6277 206.862 64.5259C206.25 65.4163 205.944 66.6474 205.944 68.2192C205.944 71.4867 207.188 73.1204 209.676 73.1204C210.428 73.1204 211.156 73.0159 211.862 72.8068C212.567 72.5978 213.276 72.3462 213.989 72.0519V75.9311C212.571 76.5583 210.966 76.8718 209.176 76.8718C206.61 76.8718 204.642 76.1285 203.27 74.6419C201.905 73.1553 201.223 71.0066 201.223 68.196C201.223 66.4384 201.553 64.8937 202.212 63.5619C202.878 62.2301 203.832 61.2081 205.072 60.4957C206.32 59.7757 207.785 59.4156 209.467 59.4156C211.304 59.4156 213.059 59.8144 214.733 60.6119L213.327 64.2239C212.699 63.9297 212.071 63.6819 211.443 63.4806C210.815 63.2793 210.141 63.1786 209.42 63.1786Z" fill="#2C3652"/>
<path d="M225 63.2483C225.395 63.2483 225.771 63.2793 226.128 63.3412L226.383 63.3877L225.976 67.6734C225.604 67.5804 225.089 67.534 224.43 67.534C223.438 67.534 222.717 67.7624 222.267 68.2192C221.818 68.6683 221.593 69.3187 221.593 70.1704V76.6396H217.047V63.4806H220.43L221.14 65.5828H221.361C221.74 64.8859 222.267 64.3246 222.942 63.8987C223.624 63.4651 224.31 63.2483 225 63.2483Z" fill="#2C3652"/>
<path d="M234.592 76.8718C232.398 76.8718 230.693 76.2911 229.476 75.1297C228.267 73.9605 227.662 72.2997 227.662 70.1472C227.662 67.925 228.224 66.2216 229.348 65.0369C230.472 63.8445 232.076 63.2483 234.161 63.2483C236.146 63.2483 237.677 63.7671 238.754 64.8046C239.839 65.8344 240.382 67.3211 240.382 69.2645V71.2854H232.255C232.286 72.021 232.553 72.5978 233.057 73.0159C233.569 73.434 234.262 73.6431 235.138 73.6431C235.936 73.6431 236.669 73.5695 237.336 73.4224C238.01 73.2675 238.738 73.0082 239.521 72.6442V75.9079C238.808 76.2718 238.072 76.5234 237.312 76.6628C236.553 76.8022 235.646 76.8718 234.592 76.8718ZM234.324 66.3377C233.789 66.3377 233.34 66.5081 232.976 66.8487C232.619 67.1817 232.41 67.7082 232.348 68.4283H236.254C236.239 67.7934 236.057 67.2862 235.708 66.9068C235.367 66.5274 234.906 66.3377 234.324 66.3377Z" fill="#2C3652"/>
<path d="M247.044 76.8718C246.106 76.8718 245.284 76.6047 244.579 76.0705C243.881 75.5362 243.339 74.7503 242.951 73.7128C242.571 72.6752 242.381 71.4635 242.381 70.0775C242.381 67.9405 242.812 66.268 243.672 65.0601C244.532 63.8523 245.714 63.2483 247.218 63.2483C247.954 63.2483 248.598 63.3954 249.148 63.6897C249.706 63.9839 250.214 64.4794 250.671 65.1763H250.764C250.617 64.1465 250.543 63.1167 250.543 62.0869V58.5678H255.124V76.6396H251.694L250.718 74.9787H250.543C249.76 76.2408 248.594 76.8718 247.044 76.8718ZM248.904 73.283C249.633 73.283 250.144 73.0546 250.439 72.5978C250.741 72.141 250.904 71.4364 250.927 70.484V70.124C250.927 68.9625 250.76 68.1379 250.427 67.6501C250.094 67.1546 249.571 66.9068 248.857 66.9068C248.261 66.9068 247.796 67.1894 247.462 67.7547C247.137 68.3121 246.974 69.1096 246.974 70.1472C246.974 71.1692 247.141 71.9474 247.474 72.4817C247.807 73.0159 248.284 73.283 248.904 73.283Z" fill="#2C3652"/>
<path d="M262.844 76.6396H258.298V63.4806H262.844V76.6396ZM258.182 60.2054C258.182 59.524 258.372 59.0169 258.752 58.6839C259.131 58.351 259.744 58.1845 260.589 58.1845C261.434 58.1845 262.05 58.3549 262.437 58.6955C262.825 59.0362 263.019 59.5395 263.019 60.2054C263.019 61.5372 262.209 62.203 260.589 62.203C258.984 62.203 258.182 61.5372 258.182 60.2054Z" fill="#2C3652"/>
<path d="M272.471 73.283C273.083 73.283 273.816 73.132 274.668 72.8301V76.1401C274.056 76.4034 273.471 76.5892 272.913 76.6976C272.363 76.8138 271.715 76.8718 270.971 76.8718C269.444 76.8718 268.344 76.5002 267.669 75.7569C266.995 75.0058 266.658 73.856 266.658 72.3074V66.8836H265.065V65.0369L267.088 63.6084L268.262 60.8442H271.239V63.4806H274.471V66.8836H271.239V72.0055C271.239 72.8572 271.649 73.283 272.471 73.283Z" fill="#2C3652"/>
<path d="M287.144 72.5978C287.144 74.007 286.663 75.0716 285.702 75.7917C284.741 76.5118 283.361 76.8718 281.563 76.8718C280.586 76.8718 279.738 76.8176 279.017 76.7092C278.296 76.6086 277.56 76.4189 276.808 76.1401V72.5049C277.513 72.8146 278.284 73.0701 279.121 73.2714C279.966 73.4727 280.718 73.5734 281.377 73.5734C282.361 73.5734 282.854 73.3488 282.854 72.8998C282.854 72.6675 282.714 72.4623 282.435 72.2842C282.164 72.0984 281.365 71.7422 280.04 71.2157C278.831 70.7202 277.986 70.1588 277.505 69.5316C277.025 68.8967 276.784 68.0953 276.784 67.1275C276.784 65.9041 277.257 64.9517 278.203 64.2704C279.149 63.589 280.486 63.2483 282.214 63.2483C283.082 63.2483 283.896 63.3451 284.656 63.5387C285.423 63.7245 286.218 63.9994 287.039 64.3633L285.807 67.2901C285.202 67.0191 284.563 66.7907 283.888 66.6048C283.214 66.4113 282.664 66.3145 282.237 66.3145C281.493 66.3145 281.121 66.4964 281.121 66.8604C281.121 67.0849 281.249 67.2785 281.505 67.4411C281.768 67.5959 282.52 67.9173 283.76 68.405C284.683 68.7844 285.369 69.1561 285.818 69.52C286.276 69.8839 286.609 70.3137 286.818 70.8092C287.035 71.297 287.144 71.8932 287.144 72.5978Z" fill="#2C3652"/>
<g filter="url(#filter2_d)">
<path d="M485.069 210.157C485.069 198.347 494.642 188.774 506.452 188.774C509.516 188.774 511.152 185.162 509.13 182.859L508.712 182.383C505.892 179.17 509.624 174.442 513.403 176.437L535.677 188.195C536.397 188.575 537.198 188.774 538.012 188.774H644.198C660.766 188.774 674.198 202.205 674.198 218.774V242.364C674.198 258.933 660.766 272.364 644.198 272.364H515.069C498.5 272.364 485.069 258.933 485.069 242.364V210.157Z" fill="white"/>
</g>
<path d="M507.256 224.002C505.559 223.925 503.923 223.546 502.35 222.864V219.008C503.249 219.465 504.225 219.848 505.28 220.158C506.334 220.46 507.26 220.611 508.058 220.611C508.717 220.611 509.198 220.534 509.5 220.379C509.81 220.216 509.965 219.949 509.965 219.577C509.965 219.322 509.853 219.105 509.628 218.927C509.411 218.749 509.043 218.548 508.523 218.323C508.012 218.099 507.318 217.828 506.442 217.51C505.458 217.146 504.663 216.74 504.059 216.291C503.454 215.834 503.012 215.327 502.733 214.769C502.462 214.204 502.326 213.503 502.326 212.667C502.326 211.389 502.737 210.391 503.559 209.671C504.38 208.95 505.613 208.505 507.256 208.335V206.744H509.663V208.312C511.205 208.397 512.759 208.776 514.325 209.45L512.941 212.76C511.322 212.032 509.86 211.668 508.558 211.668C507.938 211.668 507.5 211.746 507.244 211.9C506.996 212.048 506.872 212.268 506.872 212.562C506.872 212.818 506.962 213.031 507.14 213.201C507.326 213.364 507.644 213.55 508.093 213.759C508.543 213.96 509.167 214.196 509.965 214.467C511.585 215.04 512.748 215.694 513.453 216.43C514.158 217.158 514.511 218.099 514.511 219.252C514.511 220.553 514.096 221.61 513.267 222.423C512.445 223.236 511.244 223.739 509.663 223.933V226.174H507.256V224.002Z" fill="#2C3652"/>
<path d="M523.068 213.666C524.045 213.666 524.925 213.894 525.707 214.351C526.498 214.8 527.11 215.439 527.544 216.267C527.986 217.096 528.207 218.052 528.207 219.136C528.207 221.033 527.634 222.489 526.486 223.503C525.347 224.517 523.619 225.025 521.301 225.025C519.317 225.025 517.697 224.719 516.441 224.107V220.344C517.115 220.654 517.875 220.909 518.72 221.111C519.572 221.312 520.305 221.413 520.917 221.413C521.77 221.413 522.425 221.234 522.882 220.878C523.34 220.514 523.568 219.98 523.568 219.275C523.568 218.625 523.336 218.118 522.871 217.754C522.406 217.39 521.7 217.208 520.755 217.208C520.034 217.208 519.255 217.344 518.418 217.615L516.732 216.778L517.371 207.812H527.068V211.633H521.278L521.068 213.875C521.673 213.759 522.103 213.697 522.359 213.689C522.615 213.674 522.851 213.666 523.068 213.666Z" fill="#2C3652"/>
<path d="M553.228 216.279C553.228 219.136 552.526 221.308 551.123 222.795C549.72 224.281 547.666 225.025 544.961 225.025C542.295 225.025 540.248 224.277 538.822 222.783C537.404 221.289 536.695 219.113 536.695 216.256C536.695 213.43 537.4 211.273 538.811 209.787C540.229 208.292 542.287 207.545 544.984 207.545C547.689 207.545 549.74 208.285 551.135 209.763C552.53 211.242 553.228 213.414 553.228 216.279ZM541.531 216.279C541.531 219.562 542.674 221.203 544.961 221.203C546.124 221.203 546.984 220.805 547.542 220.007C548.108 219.21 548.391 217.967 548.391 216.279C548.391 214.583 548.104 213.333 547.531 212.528C546.965 211.715 546.116 211.308 544.984 211.308C542.682 211.308 541.531 212.965 541.531 216.279Z" fill="#2C3652"/>
<path d="M560.82 224.792H556.297V207.812H566.342V211.494H560.82V214.734H565.912V218.416H560.82V224.792Z" fill="#2C3652"/>
<path d="M573.655 224.792H569.133V207.812H579.178V211.494H573.655V214.734H578.748V218.416H573.655V224.792Z" fill="#2C3652"/>
<path d="M509.146 250.829C507.657 250.829 506.502 250.295 505.68 249.226H505.531C505.631 250.217 505.68 250.819 505.68 251.031V255.841H503.182V238.873H505.202C505.259 239.092 505.375 239.616 505.553 240.444H505.68C506.46 239.255 507.629 238.66 509.188 238.66C510.655 238.66 511.796 239.191 512.611 240.253C513.433 241.315 513.844 242.805 513.844 244.724C513.844 246.642 513.426 248.139 512.59 249.215C511.761 250.291 510.613 250.829 509.146 250.829ZM508.54 240.699C507.548 240.699 506.821 240.989 506.361 241.57C505.907 242.15 505.68 243.078 505.68 244.352V244.724C505.68 246.154 505.907 247.191 506.361 247.835C506.814 248.472 507.555 248.791 508.582 248.791C509.447 248.791 510.113 248.437 510.581 247.729C511.048 247.021 511.282 246.012 511.282 244.702C511.282 243.386 511.048 242.391 510.581 241.719C510.12 241.039 509.44 240.699 508.54 240.699Z" fill="#2C3652"/>
<path d="M527.174 244.724C527.174 246.642 526.682 248.139 525.696 249.215C524.711 250.291 523.34 250.829 521.583 250.829C520.484 250.829 519.513 250.582 518.67 250.086C517.827 249.591 517.178 248.879 516.725 247.952C516.271 247.024 516.044 245.948 516.044 244.724C516.044 242.819 516.533 241.333 517.511 240.264C518.489 239.195 519.868 238.66 521.646 238.66C523.347 238.66 524.694 239.209 525.686 240.306C526.678 241.396 527.174 242.869 527.174 244.724ZM518.617 244.724C518.617 247.435 519.62 248.791 521.625 248.791C523.609 248.791 524.602 247.435 524.602 244.724C524.602 242.041 523.602 240.699 521.604 240.699C520.555 240.699 519.793 241.046 519.318 241.74C518.851 242.434 518.617 243.428 518.617 244.724Z" fill="#2C3652"/>
<path d="M532.553 250.617H530.055V234.094H532.553V250.617Z" fill="#2C3652"/>
<path d="M538.633 250.617H536.135V238.873H538.633V250.617ZM535.986 235.761C535.986 235.315 536.107 234.972 536.348 234.731C536.596 234.491 536.947 234.37 537.4 234.37C537.84 234.37 538.18 234.491 538.421 234.731C538.669 234.972 538.793 235.315 538.793 235.761C538.793 236.186 538.669 236.522 538.421 236.77C538.18 237.011 537.84 237.131 537.4 237.131C536.947 237.131 536.596 237.011 536.348 236.77C536.107 236.522 535.986 236.186 535.986 235.761Z" fill="#2C3652"/>
<path d="M546.957 250.829C545.178 250.829 543.824 250.313 542.896 249.279C541.975 248.238 541.514 246.748 541.514 244.809C541.514 242.834 541.996 241.315 542.96 240.253C543.93 239.191 545.33 238.66 547.158 238.66C548.399 238.66 549.515 238.89 550.507 239.351L549.752 241.358C548.696 240.947 547.825 240.742 547.137 240.742C545.103 240.742 544.086 242.09 544.086 244.787C544.086 246.104 544.338 247.095 544.841 247.761C545.351 248.419 546.095 248.748 547.073 248.748C548.186 248.748 549.238 248.472 550.231 247.92V250.097C549.784 250.359 549.306 250.546 548.795 250.66C548.292 250.773 547.679 250.829 546.957 250.829Z" fill="#2C3652"/>
<path d="M555.492 250.617H552.994V238.873H555.492V250.617ZM552.846 235.761C552.846 235.315 552.966 234.972 553.207 234.731C553.455 234.491 553.806 234.37 554.259 234.37C554.699 234.37 555.039 234.491 555.28 234.731C555.528 234.972 555.652 235.315 555.652 235.761C555.652 236.186 555.528 236.522 555.28 236.77C555.039 237.011 554.699 237.131 554.259 237.131C553.806 237.131 553.455 237.011 553.207 236.77C552.966 236.522 552.846 236.186 552.846 235.761Z" fill="#2C3652"/>
<path d="M564.209 250.829C562.381 250.829 560.949 250.298 559.914 249.237C558.887 248.168 558.373 246.699 558.373 244.83C558.373 242.911 558.851 241.404 559.808 240.306C560.765 239.209 562.079 238.66 563.752 238.66C565.304 238.66 566.53 239.131 567.43 240.073C568.33 241.014 568.78 242.31 568.78 243.959V245.308H560.946C560.981 246.447 561.289 247.325 561.87 247.941C562.452 248.55 563.27 248.854 564.326 248.854C565.02 248.854 565.665 248.791 566.261 248.663C566.863 248.529 567.508 248.309 568.195 248.005V250.033C567.586 250.323 566.969 250.529 566.346 250.649C565.722 250.769 565.01 250.829 564.209 250.829ZM563.752 240.55C562.958 240.55 562.32 240.802 561.839 241.304C561.364 241.807 561.08 242.54 560.988 243.502H566.324C566.31 242.533 566.076 241.8 565.623 241.304C565.169 240.802 564.546 240.55 563.752 240.55Z" fill="#2C3652"/>
<path d="M579.516 247.272C579.516 248.419 579.098 249.3 578.262 249.916C577.426 250.525 576.228 250.829 574.669 250.829C573.103 250.829 571.845 250.592 570.895 250.118V247.962C572.277 248.599 573.563 248.918 574.754 248.918C576.292 248.918 577.061 248.454 577.061 247.527C577.061 247.23 576.976 246.982 576.806 246.784C576.635 246.585 576.356 246.38 575.966 246.168C575.576 245.955 575.034 245.715 574.339 245.446C572.986 244.922 572.068 244.398 571.586 243.874C571.111 243.35 570.874 242.671 570.874 241.835C570.874 240.83 571.278 240.051 572.086 239.499C572.901 238.94 574.006 238.66 575.402 238.66C576.784 238.66 578.092 238.94 579.325 239.499L578.517 241.379C577.248 240.855 576.182 240.593 575.317 240.593C573.999 240.593 573.34 240.968 573.34 241.719C573.34 242.087 573.51 242.398 573.85 242.653C574.198 242.908 574.949 243.258 576.104 243.704C577.075 244.079 577.78 244.423 578.219 244.734C578.659 245.046 578.985 245.407 579.197 245.817C579.41 246.221 579.516 246.706 579.516 247.272Z" fill="#2C3652"/>
<path d="M593.782 240.763H590.912V250.617H588.403V240.763H586.468V239.595L588.403 238.83V238.066C588.403 236.678 588.729 235.652 589.381 234.986C590.033 234.314 591.029 233.977 592.368 233.977C593.247 233.977 594.111 234.123 594.962 234.413L594.303 236.303C593.686 236.105 593.098 236.006 592.538 236.006C591.971 236.006 591.556 236.183 591.294 236.537C591.039 236.883 590.912 237.407 590.912 238.108V238.873H593.782V240.763Z" fill="#2C3652"/>
<path d="M606.219 244.724C606.219 246.642 605.726 248.139 604.741 249.215C603.756 250.291 602.385 250.829 600.627 250.829C599.529 250.829 598.558 250.582 597.715 250.086C596.871 249.591 596.223 248.879 595.77 247.952C595.316 247.024 595.089 245.948 595.089 244.724C595.089 242.819 595.578 241.333 596.556 240.264C597.534 239.195 598.912 238.66 600.691 238.66C602.392 238.66 603.738 239.209 604.731 240.306C605.723 241.396 606.219 242.869 606.219 244.724ZM597.662 244.724C597.662 247.435 598.664 248.791 600.67 248.791C602.654 248.791 603.646 247.435 603.646 244.724C603.646 242.041 602.647 240.699 600.649 240.699C599.6 240.699 598.838 241.046 598.363 241.74C597.896 242.434 597.662 243.428 597.662 244.724Z" fill="#2C3652"/>
<path d="M615.063 238.66C615.566 238.66 615.981 238.696 616.307 238.767L616.062 241.092C615.708 241.007 615.339 240.965 614.957 240.965C613.957 240.965 613.146 241.29 612.522 241.942C611.906 242.593 611.598 243.439 611.598 244.479V250.617H609.1V238.873H611.055L611.385 240.943H611.513C611.902 240.243 612.409 239.687 613.033 239.276C613.663 238.866 614.34 238.66 615.063 238.66Z" fill="#2C3652"/>
<path d="M634.059 250.617H631.55V243.375C631.55 242.476 631.38 241.807 631.04 241.368C630.7 240.922 630.168 240.699 629.445 240.699C628.482 240.699 627.773 241.014 627.319 241.644C626.873 242.267 626.65 243.308 626.65 244.766V250.617H624.152V238.873H626.108L626.458 240.412H626.586C626.912 239.853 627.383 239.421 628 239.117C628.623 238.813 629.307 238.66 630.051 238.66C631.858 238.66 633.056 239.276 633.644 240.508H633.814C634.162 239.928 634.651 239.474 635.281 239.149C635.912 238.823 636.635 238.66 637.45 238.66C638.853 238.66 639.873 239.014 640.511 239.722C641.156 240.43 641.479 241.51 641.479 242.961V250.617H638.98V243.375C638.98 242.476 638.807 241.807 638.46 241.368C638.119 240.922 637.588 240.699 636.865 240.699C635.894 240.699 635.182 241.004 634.728 241.612C634.282 242.214 634.059 243.141 634.059 244.394V250.617Z" fill="#2C3652"/>
<path d="M650.099 250.829C648.271 250.829 646.84 250.298 645.805 249.237C644.777 248.168 644.264 246.699 644.264 244.83C644.264 242.911 644.742 241.404 645.699 240.306C646.655 239.209 647.97 238.66 649.642 238.66C651.194 238.66 652.42 239.131 653.32 240.073C654.22 241.014 654.67 242.31 654.67 243.959V245.308H646.836C646.872 246.447 647.18 247.325 647.761 247.941C648.342 248.55 649.16 248.854 650.216 248.854C650.911 248.854 651.556 248.791 652.151 248.663C652.753 248.529 653.398 248.309 654.086 248.005V250.033C653.476 250.323 652.86 250.529 652.236 250.649C651.612 250.769 650.9 250.829 650.099 250.829ZM649.642 240.55C648.849 240.55 648.211 240.802 647.729 241.304C647.254 241.807 646.971 242.54 646.879 243.502H652.215C652.201 242.533 651.967 241.8 651.513 241.304C651.06 240.802 650.436 240.55 649.642 240.55Z" fill="#2C3652"/>
<path d="M659.666 245.902H657.817L657.264 235.092H660.209L659.666 245.902ZM657.137 249.29C657.137 248.766 657.275 248.369 657.551 248.1C657.827 247.824 658.221 247.686 658.731 247.686C659.234 247.686 659.62 247.828 659.89 248.111C660.159 248.394 660.294 248.787 660.294 249.29C660.294 249.792 660.155 250.192 659.879 250.49C659.61 250.78 659.227 250.925 658.731 250.925C658.228 250.925 657.835 250.783 657.551 250.5C657.275 250.217 657.137 249.814 657.137 249.29Z" fill="#2C3652"/>
<path fill-rule="evenodd" clip-rule="evenodd" d="M280.292 397.496L291.783 401.987L340.879 300.044L356.621 300.621L356.687 423.391L372.882 423.358V275.083L328.752 275.227L280.292 397.496Z" fill="#484FF5"/>
<path fill-rule="evenodd" clip-rule="evenodd" d="M366.61 423.144C366.616 423.144 366.618 423.144 366.623 423.142C366.851 423.018 376.418 417.914 380.787 422.279C383.879 425.367 383.242 432.483 383.193 432.973C383.192 432.99 383.178 433 383.161 433L356.488 432.967V423.255L366.61 423.144Z" fill="white"/>
<path fill-rule="evenodd" clip-rule="evenodd" d="M366.61 423.144C366.616 423.144 366.618 423.144 366.623 423.142C366.851 423.018 376.418 417.914 380.787 422.279C383.879 425.367 383.242 432.483 383.193 432.973C383.192 432.99 383.178 433 383.161 433L356.488 432.967V423.255L366.61 423.144Z" fill="#EC5C8C"/>
<path d="M285.586 393.993C285.589 393.997 285.591 393.998 285.596 394L294.583 398.655L290.202 407.325L266.358 395.313C266.536 394.853 269.176 388.214 273.33 386.848C279.198 384.918 285.437 393.78 285.586 393.993Z" fill="#EC5C8C"/>
<path fill-rule="evenodd" clip-rule="evenodd" d="M456.495 197.275C456.495 201.22 459.697 204.418 463.645 204.418C467.595 204.418 470.796 201.22 470.796 197.275C470.796 193.33 467.595 190.133 463.645 190.133C459.697 190.133 456.495 193.33 456.495 197.275Z" fill="#D9DDFC"/>
<path fill-rule="evenodd" clip-rule="evenodd" d="M404.339 144.403C404.339 170.455 386.805 189.514 360.727 189.514C353.783 189.514 335.213 206.79 329.275 210.181C314.649 218.534 314.278 206.742 313.884 190.096C313.507 174.173 313.507 146.947 313.507 144.918C313.507 118.868 333.116 97.783 362.451 97.783C388.53 97.783 404.339 118.352 404.339 144.403Z" fill="#02065A"/>
<path fill-rule="evenodd" clip-rule="evenodd" d="M261.588 190.115C261.588 194.819 265.405 198.633 270.115 198.633C274.825 198.633 278.642 194.819 278.642 190.115C278.642 185.411 274.825 181.597 270.115 181.597C265.405 181.597 261.588 185.411 261.588 190.115Z" fill="#D2D7FC"/>
<path fill-rule="evenodd" clip-rule="evenodd" d="M341.862 105.083C349.917 101.192 361.171 101.128 362.632 101.136C362.668 101.136 362.678 101.185 362.644 101.199C361.104 101.847 347.83 107.549 343.613 113.195C339.593 118.576 343.922 125.796 341.862 125.796C336.382 125.796 332.244 123.12 331.311 122.734C330.421 122.367 327.878 121.557 327.639 121.481C327.627 121.477 327.617 121.48 327.608 121.49C327.336 121.79 322.852 126.793 321.371 130.728C320.635 132.684 318.939 137.645 318.817 137.999C318.813 138.012 318.802 138.019 318.787 138.019H316.877C316.856 138.019 316.84 138.002 316.844 137.982C316.951 137.485 318.118 132.137 319.755 127.469C320.973 123.999 325.05 118.148 326.539 116.491C330.128 112.493 333.233 109.251 341.862 105.083Z" fill="#2B2F86"/>
<path fill-rule="evenodd" clip-rule="evenodd" d="M369.03 183.807C376.115 183.807 399.005 184.805 404.001 184.805C408.997 184.805 463.951 189.796 463.951 189.796L462.952 197.781C462.952 197.781 418.988 201.774 408.997 201.774C401.293 201.774 388.836 205.927 383.536 207.829C381.955 208.396 380.809 209.737 380.464 211.381C379.07 218.026 375.504 235.508 375.025 242.696C374.025 257.667 373.027 275.67 373.027 275.67C373.027 275.67 362.951 279.16 351.045 279.16C339.139 279.16 328.672 275.819 328.672 275.819C328.672 275.819 335.058 252.677 336.057 241.698C336.681 234.846 336.915 225.662 337.003 219.725C337.049 216.611 334.24 214.254 331.171 214.785C326.266 215.635 319.579 216.761 316.349 217.164C309.269 218.049 270.24 198.801 270.24 198.801L277.571 185.903C277.571 185.903 309.251 199.16 313.628 200.854C318.059 202.569 330.062 186.122 351.045 186.122C357.123 186.122 369.005 183.807 369.03 183.807Z" fill="#63D4C8"/>
<path fill-rule="evenodd" clip-rule="evenodd" d="M311.849 150.86C311.516 154.569 314.512 157.607 318.24 157.595C319.965 157.589 320.782 157.518 320.922 157.505C320.937 157.503 320.947 157.51 320.953 157.524C321.007 157.666 321.337 158.528 321.858 160.003C327.17 175.028 341.514 185.791 358.38 185.791C375.147 185.791 389.425 175.144 394.806 160.251C395.217 159.113 395.693 157.659 395.755 157.465C395.76 157.45 395.77 157.444 395.785 157.444C396.036 157.46 398.304 157.595 400.238 157.595C403.475 157.595 406.129 155.112 406.397 151.948C406.709 148.269 403.726 145.244 400.03 145.244C398.627 145.244 397.334 145.245 397.125 145.245C397.106 145.245 397.095 145.233 397.095 145.215C397.092 145.057 397.08 144.302 397.063 143.894C396.972 141.635 396.687 141.017 396.219 138.873C394.5 130.956 389.635 125.489 389.345 125.168C389.336 125.159 389.325 125.155 389.313 125.16C388.457 125.468 358.278 136.33 343.238 138.019C328.15 139.714 321.257 138.513 320.779 138.424C320.762 138.421 320.75 138.429 320.745 138.446C320.659 138.767 319.829 141.91 319.72 143.809C319.684 144.45 319.682 145.069 319.682 145.214C319.682 145.232 319.669 145.245 319.65 145.245C319.563 145.245 319.234 145.244 318.006 145.244C314.779 145.244 312.132 147.71 311.849 150.86Z" fill="#D9DDFC"/>
<path fill-rule="evenodd" clip-rule="evenodd" d="M346.683 183.968C346.663 183.964 346.646 183.978 346.644 183.998C346.61 184.72 345.6 191.67 347.881 195.629C350.316 199.859 353.305 202.632 358.189 202.705C363.001 202.778 366.068 200.222 368.616 196.144C371.13 192.12 370.073 184.803 369.997 184.078C369.995 184.057 369.979 184.045 369.959 184.05C369.434 184.184 363.025 185.792 359.122 185.792C355.207 185.792 347.289 184.099 346.683 183.968Z" fill="#D9DDFC"/>
<path d="M369.959 184.05C369.979 184.045 369.995 184.057 369.997 184.078C369.997 184.078 367.71 193.091 359.122 192.851C346.963 192.511 346.683 183.968 346.683 183.968C347.288 184.099 355.207 185.792 359.122 185.792C363.025 185.792 369.434 184.184 369.959 184.05Z" fill="#C9D0FB"/>
<path fill-rule="evenodd" clip-rule="evenodd" d="M375.753 155.387C377.16 155.387 378.312 154.237 378.312 152.831V147.802C378.312 146.396 377.16 145.245 375.753 145.245C374.345 145.245 373.194 146.396 373.194 147.802V152.831C373.194 154.237 374.345 155.387 375.753 155.387Z" fill="#02065A"/>
<path fill-rule="evenodd" clip-rule="evenodd" d="M340.678 155.387C342.086 155.387 343.238 154.237 343.238 152.831V147.802C343.238 146.396 342.086 145.245 340.678 145.245C339.271 145.245 338.119 146.396 338.119 147.802V152.831C338.119 154.237 339.271 155.387 340.678 155.387Z" fill="#02065A"/>
<path fill-rule="evenodd" clip-rule="evenodd" d="M378.027 146.746V149.593C378.027 149.621 378.057 149.638 378.079 149.62C378.29 149.45 379.095 148.794 379.562 148.328C380.103 147.788 380.302 147.134 380.696 146.428C381.09 145.722 381.314 144.433 380.749 145.088C380.383 145.511 379.91 146.032 379.34 146.602C378.906 147.035 378.252 146.793 378.073 146.715C378.051 146.706 378.027 146.722 378.027 146.746Z" fill="#02065A"/>
<path fill-rule="evenodd" clip-rule="evenodd" d="M338.775 146.746V149.593C338.775 149.621 338.745 149.638 338.723 149.62C338.511 149.45 337.707 148.794 337.24 148.328C336.699 147.788 336.499 147.134 336.105 146.428C335.711 145.722 335.487 144.433 336.053 145.088C336.418 145.511 336.891 146.032 337.461 146.602C337.895 147.035 338.55 146.793 338.728 146.715C338.75 146.706 338.775 146.722 338.775 146.746Z" fill="#02065A"/>
<path fill-rule="evenodd" clip-rule="evenodd" d="M367.255 170.206C366.417 171.544 364.932 175.248 358.277 175.248C351.621 175.248 350.816 171.163 349.246 170.361C347.788 169.617 347.222 170.939 349.457 173.57C350.956 175.333 354.399 176.937 358.277 176.937C365.376 176.937 369.036 172.35 369.036 170.899C369.036 169.448 367.949 169.101 367.255 170.206Z" fill="#02065A"/>
<path fill-rule="evenodd" clip-rule="evenodd" d="M478.724 152.447C478.724 152.447 479.566 146.13 478.165 135.307C477.184 127.732 475.252 125.749 474.086 124.131C474.086 124.131 475.071 122.325 474.605 117.013C473.849 108.42 469.751 100.158 469.751 100.158C465.545 103.482 460.208 106.519 454.755 108.476C449.463 106.076 440.366 105.636 434.176 105.636C426.769 105.636 419.811 107.552 413.767 110.916C406.85 114.76 400.974 119.907 397.172 126.843C393.885 132.82 390.924 145.891 392.754 153.457L478.724 152.447Z" fill="#2025B9"/>
<path fill-rule="evenodd" clip-rule="evenodd" d="M419.153 112.152C427.61 108.068 439.666 109.891 439.666 109.891C439.666 109.891 425.26 114.225 420.869 120.102C416.929 125.377 421.172 132.454 419.153 132.454C413.781 132.454 407.445 129.711 406.53 129.333C405.615 128.954 403.879 128.86 403.879 128.86C403.879 128.86 402.315 130.068 400.029 133.652C399.491 134.495 396.747 141.722 396.747 141.722H395.484C395.484 141.722 396.577 136.878 398.261 132.075C399.455 128.674 401.81 125.293 403.268 123.669C406.788 119.751 410.695 116.237 419.153 112.152Z" fill="#4F54E5"/>
<path fill-rule="evenodd" clip-rule="evenodd" d="M481.437 158.686C481.437 162.03 478.725 164.739 475.378 164.739C473.343 164.739 472.497 164.648 472.497 164.648C472.497 164.648 472.163 165.51 471.601 167.098C466.396 181.824 452.337 192.374 435.806 192.374C419.373 192.374 405.38 181.939 400.105 167.341C399.672 166.144 399.167 164.59 399.167 164.59C399.167 164.59 396.791 164.739 394.781 164.739C391.434 164.739 388.722 162.03 388.722 158.686C388.722 155.342 391.434 152.634 394.781 152.634C396.362 152.634 397.861 152.634 397.861 152.634C397.861 152.634 397.874 151.759 397.893 151.31C397.982 149.096 398.262 148.491 398.72 146.389C400.457 138.389 405.47 132.942 405.47 132.942C405.47 132.942 423.171 138.133 435.079 138.205C446.302 138.272 464.154 132.076 464.154 132.076C464.154 132.076 469.632 137.529 472.305 145.389C472.727 146.629 473.149 148.154 473.408 149.507C473.543 150.214 473.735 152.634 473.735 152.634C473.735 152.634 473.777 152.634 475.378 152.634C478.725 152.634 481.437 155.342 481.437 158.686Z" fill="#D9DDFC"/>
<path fill-rule="evenodd" clip-rule="evenodd" d="M417.07 160.826C415.658 160.826 414.503 159.672 414.503 158.262V153.218C414.503 151.807 415.658 150.654 417.07 150.654C418.482 150.654 419.636 151.807 419.636 153.218V158.262C419.636 159.672 418.482 160.826 417.07 160.826Z" fill="#2025B9"/>
<path fill-rule="evenodd" clip-rule="evenodd" d="M452.246 160.826C450.835 160.826 449.68 159.672 449.68 158.262V153.218C449.68 151.807 450.835 150.654 452.246 150.654C453.658 150.654 454.813 151.807 454.813 153.218V158.262C454.813 159.672 453.658 160.826 452.246 160.826Z" fill="#2025B9"/>
<path fill-rule="evenodd" clip-rule="evenodd" d="M460.157 424.558L443.257 424.485L443.131 304.199H428.268L428.236 424.558H412.33V279.168H458.116L460.157 424.558Z" fill="#3232C8"/>
<path fill-rule="evenodd" clip-rule="evenodd" d="M429.008 423.336L419.078 423.259C419.078 423.259 409.526 418.082 405.192 422.411C402.053 425.547 402.836 432.92 402.836 432.92H429.008V423.336Z" fill="#02065A"/>
<path fill-rule="evenodd" clip-rule="evenodd" d="M442.512 423.336L452.441 423.259C452.441 423.259 461.993 418.082 466.328 422.411C469.467 425.547 468.684 432.92 468.684 432.92H442.512V423.336Z" fill="#02065A"/>
<path fill-rule="evenodd" clip-rule="evenodd" d="M427.617 175.183C428.375 176.392 429.715 179.736 435.725 179.736C441.735 179.736 442.463 176.048 443.88 175.324C445.196 174.652 445.708 175.845 443.689 178.221C442.337 179.813 439.226 181.262 435.725 181.262C429.314 181.262 426.01 177.119 426.01 175.809C426.01 174.499 426.992 174.185 427.617 175.183Z" fill="#2025B9"/>
<g filter="url(#filter3_d)">
<path fill-rule="evenodd" clip-rule="evenodd" d="M255.471 213.255L239.001 209.423C235.539 208.617 233.386 205.161 234.193 201.703L242.605 165.622C243.411 162.163 246.871 160.013 250.333 160.818L266.803 164.65C270.265 165.456 272.418 168.912 271.612 172.37L263.199 208.451C262.393 211.91 258.932 214.06 255.471 213.255Z" fill="white"/>
</g>
<path fill-rule="evenodd" clip-rule="evenodd" d="M260.447 205.702L238.065 200.494L245.998 166.47L268.379 171.678L260.447 205.702Z" fill="#EAEDFC"/>
<rect x="363.971" y="283.917" width="6.12289" height="127.085" rx="3.06144" fill="#5E62F6"/>
<rect x="448.331" y="283.917" width="6.12289" height="127.085" rx="3.06144" fill="#514CE9"/>
<rect width="23.1259" height="3.19859" rx="1.5993" transform="matrix(0.892439 0.451169 -0.451931 0.892053 270.172 391.294)" fill="#ED86A8"/>
<rect x="358.529" y="427.993" width="23.1309" height="3.1979" rx="1.59895" fill="#ED86A8"/>
<rect x="404.11" y="427.313" width="23.1309" height="3.1979" rx="1.59895" fill="#242883"/>
<rect x="444.249" y="427.313" width="23.1309" height="3.1979" rx="1.59895" fill="#242883"/>
<path fill-rule="evenodd" clip-rule="evenodd" d="M410.614 299.059C410.614 302.542 407.788 305.366 404.301 305.366C400.814 305.366 397.988 302.542 397.988 299.059C397.988 295.576 400.814 292.752 404.301 292.752C407.788 292.752 410.614 295.576 410.614 299.059Z" fill="#D9DDFC"/>
<path d="M398.734 242.877C398.734 216.573 398.734 195.243 424.964 195.243H446.678C456.376 195.243 462.123 198.548 466.22 203.6C473.439 212.501 478.712 235.794 473.027 241.86C470.005 245.085 463.327 245.248 456.803 244.422L457.886 279.712C457.886 279.712 444.006 281.57 435.065 281.539C426.165 281.507 412.36 279.569 412.36 279.569L413.984 227.602H412.579C412.579 227.602 411.985 236.676 411.985 241.5C411.985 249.558 410.212 293.755 410.153 297.663L398.734 297.656V242.898V242.877Z" fill="#F7C645"/>
<path fill-rule="evenodd" clip-rule="evenodd" d="M448.076 240.75C448.076 240.75 450.287 239.644 450.287 237.431V233.006C450.287 233.006 462.448 233.006 462.448 230.794C462.448 228.581 459.572 223.073 453.604 216.413C448.656 210.893 446.971 210.882 446.971 210.882C446.971 210.882 450.287 205.351 450.287 203.139V197.608C450.287 197.608 460.236 197.608 465.765 207.564C470.431 215.969 473.503 222.449 473.503 235.218C473.503 239.484 469.304 242.362 464.659 242.962C457.257 243.917 448.076 240.75 448.076 240.75Z" fill="#FFD975"/>
<g filter="url(#filter4_d)">
<path fill-rule="evenodd" clip-rule="evenodd" d="M447.374 220.86C447.374 221.106 445.783 232.758 445.205 236.987C445.086 237.858 444.342 238.5 443.462 238.5H431.981C431.091 238.5 430.342 237.842 430.236 236.96C429.72 232.698 428.314 221.051 428.314 220.86C428.314 219.775 429.076 218.9 429.995 218.9H445.703C446.623 218.9 447.374 219.775 447.374 220.86Z" fill="white"/>
</g>
<rect width="4.08187" height="6.11647" rx="2.04094" transform="matrix(0.994401 -0.105675 0.105897 0.994377 430.643 221.146)" fill="#E9E8FD"/>
<path fill-rule="evenodd" clip-rule="evenodd" d="M451.053 235.666C451.053 239.795 447.702 243.141 443.569 243.141C439.436 243.141 436.085 239.795 436.085 235.666C436.085 231.537 439.436 228.19 443.569 228.19C447.702 228.19 451.053 231.537 451.053 235.666Z" fill="#D9DDFC"/>
<path fill-rule="evenodd" clip-rule="evenodd" d="M423.45 190.133C423.431 190.129 423.413 190.143 423.412 190.163C423.377 190.885 422.367 197.835 424.648 201.794C427.083 206.024 430.072 208.797 434.956 208.87C439.768 208.943 442.835 206.387 445.383 202.309C447.897 198.286 446.84 190.969 446.764 190.243C446.762 190.222 446.746 190.21 446.726 190.216C446.202 190.349 439.792 191.957 435.889 191.957C431.974 191.957 424.056 190.264 423.45 190.133Z" fill="#D9DDFC"/>
<path d="M446.726 190.216C446.746 190.21 446.762 190.222 446.764 190.243C446.764 190.243 444.477 199.256 435.889 199.016C423.731 198.676 423.45 190.133 423.45 190.133C424.056 190.264 431.974 191.957 435.889 191.957C439.792 191.957 446.201 190.349 446.726 190.216Z" fill="#C9D0FB"/>
<path d="M279.018 244.732C277.415 246.527 272.128 252.732 272.128 256.578C272.128 264.233 273.114 270.815 276.353 273.723H284.98C288.218 270.815 289.204 264.233 289.204 256.578C289.204 252.777 283.94 246.56 282.314 244.743C284.548 244.521 285.422 244.166 285.422 243.369C285.422 242.382 283.719 242.094 280.722 242.094C277.724 242.094 276.353 242.393 276.353 243.369C276.353 244.155 276.851 244.499 279.018 244.732Z" fill="#D3D8F4"/>
<path d="M280.666 243.823C282.486 243.823 283.962 243.625 283.962 243.38C283.962 243.135 282.486 242.936 280.666 242.936C278.846 242.936 277.37 243.135 277.37 243.38C277.37 243.625 278.846 243.823 280.666 243.823Z" fill="#4DA680"/>
<path d="M281.474 243.358C281.474 243.358 280.965 241.474 281.673 239.136C282.381 236.797 290.001 236.709 290.001 236.709V237.85C290.001 237.85 283.52 237.839 282.856 240.033C282.182 242.227 282.712 243.302 282.712 243.302" fill="#4DA680"/>
<path d="M293.418 237.662C295.11 237.662 296.482 236.287 296.482 234.592C296.482 232.897 295.11 231.523 293.418 231.523C291.726 231.523 290.355 232.897 290.355 234.592C290.355 236.287 291.726 237.662 293.418 237.662Z" fill="#EC5C8C"/>
<path d="M294.237 241.44C295.929 241.44 297.3 240.066 297.3 238.371C297.3 236.676 295.929 235.301 294.237 235.301C292.545 235.301 291.173 236.676 291.173 238.371C291.173 240.066 292.545 241.44 294.237 241.44Z" fill="#EC5C8C"/>
<path d="M291.682 243.867C293.374 243.867 294.745 242.493 294.745 240.798C294.745 239.102 293.374 237.728 291.682 237.728C289.99 237.728 288.618 239.102 288.618 240.798C288.618 242.493 289.99 243.867 291.682 243.867Z" fill="#EC5C8C"/>
<path d="M287.49 242.582C289.182 242.582 290.554 241.208 290.554 239.512C290.554 237.817 289.182 236.443 287.49 236.443C285.798 236.443 284.427 237.817 284.427 239.512C284.427 241.208 285.798 242.582 287.49 242.582Z" fill="#EC5C8C"/>
<path d="M286.395 239.047C288.087 239.047 289.459 237.673 289.459 235.977C289.459 234.282 288.087 232.908 286.395 232.908C284.703 232.908 283.332 234.282 283.332 235.977C283.332 237.673 284.703 239.047 286.395 239.047Z" fill="#EC5C8C"/>
<path d="M289.027 236.321C290.719 236.321 292.091 234.947 292.091 233.251C292.091 231.556 290.719 230.182 289.027 230.182C287.335 230.182 285.964 231.556 285.964 233.251C285.964 234.947 287.335 236.321 289.027 236.321Z" fill="#EC5C8C"/>
<path d="M290.133 239.767C291.398 239.767 292.423 238.74 292.423 237.473C292.423 236.206 291.398 235.18 290.133 235.18C288.869 235.18 287.844 236.206 287.844 237.473C287.844 238.74 288.869 239.767 290.133 239.767Z" fill="#E1E5FD"/>
<path d="M287.49 238.293C287.49 238.293 286.605 238.626 286.019 238.526C285.179 238.371 283.896 237.451 284.117 236.709C284.349 235.955 287.368 237.451 287.368 237.451C287.368 237.451 287.346 237.584 287.379 237.883C287.413 238.116 287.49 238.293 287.49 238.293Z" fill="#EE7BA3"/>
<path d="M292.721 236.288C292.721 236.288 293.551 235.811 294.137 235.833C294.989 235.855 296.404 236.554 296.305 237.329C296.194 238.105 292.976 237.108 292.976 237.108C292.976 237.108 292.976 236.964 292.887 236.676C292.821 236.454 292.721 236.288 292.721 236.288Z" fill="#EE7BA3"/>
<path d="M292.655 238.559C292.655 238.559 293.529 238.936 293.872 239.413C294.369 240.111 294.513 241.596 293.827 241.983C293.142 242.371 292.157 239.257 292.157 239.257C292.157 239.257 292.268 239.169 292.445 238.936C292.589 238.737 292.655 238.559 292.655 238.559Z" fill="#EE7BA3"/>
<path d="M289.99 240.266C289.99 240.266 289.304 241.341 288.828 241.684C288.132 242.183 286.65 242.327 286.262 241.64C285.875 240.953 288.873 239.944 288.873 239.944C288.873 239.944 289.182 240.133 289.481 240.199C289.802 240.266 289.99 240.266 289.99 240.266Z" fill="#EE7BA3"/>
<path d="M291.029 234.902C291.029 234.902 291.649 233.994 291.516 233.118C291.394 232.276 290.93 231.146 290.167 231.334C289.746 231.434 290.189 232.487 290.31 233.384C290.421 234.127 290.189 234.747 290.189 234.747C290.189 234.747 290.332 234.736 290.62 234.792C290.863 234.814 291.029 234.902 291.029 234.902Z" fill="#EE7BA3"/>
<path d="M294.093 234.902C294.093 234.902 293.639 234.869 293.097 235.058C292.555 235.246 292.124 235.634 292.124 235.634L291.77 235.335C291.77 235.335 292.257 234.67 292.356 234.193C292.445 233.772 292.456 233.551 292.456 233.551C292.456 233.551 292.644 233.074 293.573 233.872C294.502 234.67 294.093 234.902 294.093 234.902Z" fill="#EE7BA3"/>
<path d="M287.075 265.56C287.075 265.56 285.032 267.526 280.632 267.526C276.232 267.526 274.209 265.56 274.209 265.56C274.209 265.56 273.754 263.716 273.613 261.274C273.461 258.841 273.491 256.733 273.491 256.733C273.491 256.733 276.779 258.933 280.733 258.933C284.688 258.933 287.763 256.733 287.763 256.733C287.763 256.733 287.834 258.598 287.641 261.385C287.459 264.131 287.075 265.56 287.075 265.56Z" fill="#E5E9FD"/>
<path d="M279.826 243.38V230.426H281.507V243.38" fill="#4DA680"/>
<path d="M283.774 228.841C285.826 228.841 287.49 227.174 287.49 225.118C287.49 223.061 285.826 221.394 283.774 221.394C281.722 221.394 280.058 223.061 280.058 225.118C280.058 227.174 281.722 228.841 283.774 228.841Z" fill="#EC5C8C"/>
<path d="M286.074 232.941C288.127 232.941 289.791 231.274 289.791 229.218C289.791 227.161 288.127 225.494 286.074 225.494C284.022 225.494 282.358 227.161 282.358 229.218C282.358 231.274 284.022 232.941 286.074 232.941Z" fill="#EC5C8C"/>
<path d="M283.962 236.675C286.015 236.675 287.678 235.009 287.678 232.952C287.678 230.896 286.015 229.229 283.962 229.229C281.91 229.229 280.246 230.896 280.246 232.952C280.246 235.009 281.91 236.675 283.962 236.675Z" fill="#EC5C8C"/>
<path d="M278.631 236.675C280.684 236.675 282.347 235.009 282.347 232.952C282.347 230.896 280.684 229.229 278.631 229.229C276.579 229.229 274.915 230.896 274.915 232.952C274.915 235.009 276.579 236.675 278.631 236.675Z" fill="#EC5C8C"/>
<path d="M276.11 232.941C278.162 232.941 279.826 231.274 279.826 229.218C279.826 227.161 278.162 225.494 276.11 225.494C274.057 225.494 272.394 227.161 272.394 229.218C272.394 231.274 274.057 232.941 276.11 232.941Z" fill="#EC5C8C"/>
<path d="M278.2 228.841C280.252 228.841 281.916 227.174 281.916 225.118C281.916 223.061 280.252 221.394 278.2 221.394C276.148 221.394 274.484 223.061 274.484 225.118C274.484 227.174 276.148 228.841 278.2 228.841Z" fill="#EC5C8C"/>
<path d="M280.987 232.431C282.526 232.431 283.774 231.181 283.774 229.639C283.774 228.097 282.526 226.846 280.987 226.846C279.448 226.846 278.2 228.097 278.2 229.639C278.2 231.181 279.448 232.431 280.987 232.431Z" fill="#E1E5FD"/>
<path d="M278.2 231.534C278.2 231.534 277.282 232.243 276.574 232.321C275.546 232.431 273.721 231.833 273.721 230.88C273.721 229.927 277.769 230.592 277.769 230.592C277.769 230.592 277.802 230.758 277.946 231.09C278.045 231.356 278.2 231.534 278.2 231.534Z" fill="#EE7BA3"/>
<path d="M283.575 227.345C283.575 227.345 284.36 226.503 285.057 226.314C286.053 226.037 287.955 226.348 288.099 227.29C288.242 228.231 284.15 228.22 284.15 228.22C284.15 228.22 284.106 228.043 283.907 227.744C283.752 227.489 283.575 227.345 283.575 227.345Z" fill="#EE7BA3"/>
<path d="M284.305 229.993C284.305 229.993 285.455 230.115 286.03 230.559C286.849 231.19 287.545 232.875 286.882 233.562C286.218 234.249 283.973 230.98 283.973 230.98C283.973 230.98 284.062 230.836 284.194 230.503C284.294 230.226 284.305 229.993 284.305 229.993Z" fill="#EE7BA3"/>
<path d="M281.805 232.93C281.805 232.93 281.396 234.415 280.954 234.991C280.323 235.811 278.642 236.509 277.957 235.844C277.271 235.18 280.401 232.941 280.401 232.941C280.401 232.941 280.832 233.052 281.197 233.019C281.584 232.996 281.805 232.93 281.805 232.93Z" fill="#EE7BA3"/>
<path d="M281.109 226.326C281.109 226.326 281.507 225.051 281.042 224.076C280.6 223.134 279.66 221.993 278.842 222.48C278.399 222.746 279.273 223.81 279.737 224.807C280.124 225.627 280.08 226.436 280.08 226.436C280.08 226.436 280.235 226.381 280.6 226.326C280.888 226.281 281.109 226.326 281.109 226.326Z" fill="#EE7BA3"/>
<path d="M284.67 225.239C284.67 225.239 284.128 225.372 283.575 225.782C283.011 226.192 282.646 226.802 282.646 226.802L282.126 226.58C282.126 226.58 282.458 225.638 282.403 225.04C282.347 224.519 282.292 224.253 282.292 224.253C282.292 224.253 282.347 223.633 283.697 224.231C285.046 224.829 284.67 225.239 284.67 225.239Z" fill="#EE7BA3"/>
<path d="M549.461 92.5131C549.461 97.2534 545.613 101.105 540.855 101.105C536.097 101.105 532.248 97.2534 532.248 92.5131C532.248 87.7729 536.097 83.9211 540.855 83.9211C545.613 83.9211 549.461 87.7729 549.461 92.5131Z" stroke="#D1F7F4" stroke-width="10"/>
<path d="M386.184 46.0576C386.184 50.7978 382.336 54.6496 377.578 54.6496C372.82 54.6496 368.971 50.7978 368.971 46.0576C368.971 41.3173 372.82 37.4656 377.578 37.4656C382.336 37.4656 386.184 41.3173 386.184 46.0576Z" stroke="#FDF0C6" stroke-width="10"/>
<path d="M107.253 177.9C107.253 182.64 103.405 186.492 98.6465 186.492C93.8883 186.492 90.04 182.64 90.04 177.9C90.04 173.16 93.8883 169.308 98.6465 169.308C103.405 169.308 107.253 173.16 107.253 177.9Z" stroke="#F8D4E1" stroke-width="10"/>
<g filter="url(#filter5_d)">
<g filter="url(#filter6_d)">
<path d="M132 297C143.046 297 152 288.046 152 277C152 265.954 143.046 257 132 257C120.954 257 112 265.954 112 277C112 288.046 120.954 297 132 297Z" fill="url(#paint2_linear)"/>
<path d="M132 297C143.046 297 152 288.046 152 277C152 265.954 143.046 257 132 257C120.954 257 112 265.954 112 277C112 288.046 120.954 297 132 297Z" stroke="white" stroke-width="4"/>
</g>
<mask id="mask1" mask-type="alpha" maskUnits="userSpaceOnUse" x="112" y="257" width="40" height="40">
<path d="M132 297C143.046 297 152 288.046 152 277C152 265.954 143.046 257 132 257C120.954 257 112 265.954 112 277C112 288.046 120.954 297 132 297Z" fill="white"/>
</mask>
<g mask="url(#mask1)">
<path d="M132 297C143.046 297 152 288.046 152 277C152 265.954 143.046 257 132 257C120.954 257 112 265.954 112 277C112 288.046 120.954 297 132 297Z" fill="url(#paint3_linear)"/>
<g style="mix-blend-mode:overlay" opacity="0.3">
<g style="mix-blend-mode:overlay" opacity="0.3">
<path fill-rule="evenodd" clip-rule="evenodd" d="M142.001 290.625C139.057 290.625 137.538 291.73 136.199 292.708C135.003 293.579 134.057 294.267 132 294.267C129.945 294.267 128.999 293.579 127.802 292.707C126.463 291.73 124.944 290.624 122 290.624C119.057 290.624 117.538 291.73 116.198 292.707C115.001 293.578 114.055 294.267 112 294.267V296.999C114.943 296.999 116.463 295.892 117.802 294.916C118.999 294.045 119.944 293.357 122 293.357C124.057 293.357 125.001 294.045 126.199 294.917C127.539 295.892 129.057 297 132 297C134.944 297 136.463 295.892 137.802 294.917C138.999 294.046 139.944 293.357 142.001 293.357C144.056 293.357 145.002 294.045 146.198 294.917C147.538 295.892 149.056 297 152 297V294.266C149.944 294.266 148.999 293.578 147.803 292.706C146.462 291.729 144.943 290.623 142.001 290.623V290.625ZM147.803 284.071C146.462 283.082 144.943 281.963 142.001 281.963C139.057 281.963 137.538 283.082 136.199 284.071C135.003 284.952 134.057 285.65 132 285.65C129.945 285.65 128.999 284.953 127.802 284.071C126.463 283.082 124.944 281.963 122 281.963C119.057 281.963 117.538 283.082 116.198 284.071C115.001 284.952 114.055 285.65 112 285.65V288.415C114.943 288.415 116.463 287.296 117.802 286.307C118.999 285.426 119.944 284.728 122 284.728C124.057 284.728 125.001 285.425 126.199 286.307C127.539 287.296 129.057 288.415 132 288.415C134.944 288.415 136.463 287.296 137.802 286.307C138.999 285.426 139.944 284.728 142.001 284.728C144.056 284.728 145.002 285.425 146.198 286.307C147.538 287.296 149.056 288.415 152 288.415V285.65C149.944 285.65 148.999 284.953 147.803 284.071ZM147.803 274.327C146.462 273.339 144.943 272.218 142.001 272.218C139.057 272.218 137.538 273.338 136.199 274.327C135.003 275.209 134.057 275.906 132 275.906C129.945 275.906 128.999 275.209 127.802 274.327C126.463 273.338 124.944 272.218 122 272.218C119.057 272.218 117.538 273.338 116.198 274.327C115.001 275.209 114.055 275.906 112 275.906V278.671C114.943 278.671 116.463 277.551 117.802 276.563C118.999 275.682 119.944 274.984 122 274.984C124.057 274.984 125.001 275.681 126.199 276.563C127.539 277.551 129.057 278.671 132 278.671C134.944 278.671 136.463 277.551 137.802 276.563C138.999 275.682 139.944 274.984 142.001 274.984C144.056 274.984 145.002 275.681 146.198 276.563C147.538 277.551 149.056 278.671 152 278.671V275.907C149.944 275.907 148.999 275.209 147.803 274.327ZM147.803 265.64C146.462 264.663 144.943 263.557 142.001 263.557C139.057 263.557 137.538 264.663 136.199 265.64C135.003 266.511 134.057 267.2 132 267.2C129.945 267.2 128.999 266.512 127.802 265.64C126.463 264.663 124.944 263.557 122 263.557C119.057 263.557 117.538 264.663 116.198 265.64C115.001 266.511 114.055 267.2 112 267.2V269.932C114.943 269.932 116.463 268.825 117.802 267.849C118.999 266.979 119.945 266.291 122 266.291C124.056 266.291 125.001 266.979 126.199 267.851C127.539 268.826 129.057 269.934 132 269.934C134.944 269.934 136.463 268.826 137.802 267.851C138.999 266.98 139.944 266.291 142.001 266.291C144.056 266.291 145.002 266.979 146.198 267.851C147.538 268.826 149.056 269.934 152 269.934V267.201C149.944 267.201 148.999 266.513 147.803 265.641V265.64ZM142.001 254.896C139.057 254.896 137.538 256.002 136.199 256.979C135.003 257.85 134.057 258.538 132 258.538C129.945 258.538 128.999 257.85 127.802 256.978C126.463 256.002 124.944 254.895 122 254.895C119.057 254.895 117.538 256.002 116.198 256.978C115.001 257.849 114.055 258.538 112 258.538V261.271C114.943 261.271 116.463 260.165 117.802 259.188C118.999 258.317 119.945 257.628 122 257.628C124.056 257.628 125.001 258.317 126.199 259.188C127.539 260.165 129.057 261.271 132 261.271C134.944 261.271 136.463 260.165 137.802 259.188C139 258.317 139.945 257.628 142.001 257.628C144.056 257.628 145.002 258.317 146.198 259.188C147.538 260.165 149.056 261.271 152 261.271V258.538C149.944 258.538 148.999 257.85 147.803 256.978C146.462 256.002 144.943 254.895 142.001 254.895V254.896Z" fill="black"/>
</g>
</g>
<path fill-rule="evenodd" clip-rule="evenodd" d="M131.296 275.239C131.296 276.883 130.802 278.154 129.814 279.049C128.827 279.946 127.424 280.394 125.607 280.394H124.47V285.276H120.421V270.558H125.607C127.5 270.558 128.921 270.964 129.871 271.776C130.821 272.588 131.296 273.743 131.296 275.239ZM124.47 277.152H125.208C125.816 277.152 126.299 276.984 126.657 276.648C127.017 276.313 127.195 275.849 127.195 275.259C127.195 274.266 126.635 273.769 125.515 273.769H124.47V277.152ZM137.184 284.591C135.693 284.525 134.227 284.191 132.858 283.605V280.262C133.651 280.658 134.513 280.988 135.442 281.254C136.371 281.519 137.187 281.651 137.891 281.651C138.472 281.651 138.897 281.582 139.167 281.445C139.436 281.307 139.572 281.078 139.572 280.756C139.572 280.534 139.475 280.346 139.279 280.192C139.085 280.037 138.761 279.863 138.306 279.668C137.7 279.415 137.086 279.18 136.466 278.963C135.599 278.648 134.898 278.294 134.365 277.901C133.832 277.509 133.444 277.069 133.201 276.583C132.958 276.096 132.838 275.49 132.838 274.765C132.838 273.658 133.2 272.792 133.925 272.168C134.648 271.544 135.735 271.158 137.184 271.011V269.632H139.306V270.99C140.665 271.064 142.035 271.393 143.415 271.977L142.196 274.846C140.767 274.215 139.479 273.9 138.332 273.9C137.785 273.9 137.401 273.965 137.178 274.096C137.074 274.153 136.987 274.237 136.929 274.339C136.87 274.441 136.841 274.557 136.846 274.674C136.846 274.896 136.926 275.079 137.087 275.224C137.247 275.368 137.526 275.529 137.921 275.707C138.318 275.885 138.868 276.091 139.572 276.326C141 276.822 142.025 277.388 142.647 278.022C143.269 278.656 143.579 279.474 143.579 280.473C143.579 281.601 143.215 282.517 142.488 283.222C141.76 283.927 140.699 284.363 139.306 284.531V286.474H137.184V284.592V284.591Z" fill="white"/>
</g>
</g>
<g filter="url(#filter7_d)">
<g filter="url(#filter8_d)">
<path d="M603.5 156C616.479 156 627 145.479 627 132.5C627 119.521 616.479 109 603.5 109C590.521 109 580 119.521 580 132.5C580 145.479 590.521 156 603.5 156Z" fill="url(#paint4_linear)"/>
<path d="M603.5 156C616.479 156 627 145.479 627 132.5C627 119.521 616.479 109 603.5 109C590.521 109 580 119.521 580 132.5C580 145.479 590.521 156 603.5 156Z" stroke="white" stroke-width="4"/>
</g>
<mask id="mask2" mask-type="alpha" maskUnits="userSpaceOnUse" x="580" y="109" width="47" height="47">
<path d="M603.5 156C616.479 156 627 145.479 627 132.5C627 119.521 616.479 109 603.5 109C590.521 109 580 119.521 580 132.5C580 145.479 590.521 156 603.5 156Z" fill="white"/>
</mask>
<g mask="url(#mask2)">
<path d="M603.5 156C616.479 156 627 145.479 627 132.5C627 119.521 616.479 109 603.5 109C590.521 109 580 119.521 580 132.5C580 145.479 590.521 156 603.5 156Z" fill="url(#paint5_linear)"/>
<g style="mix-blend-mode:overlay" opacity="0.3">
<g style="mix-blend-mode:overlay" opacity="0.3">
<path fill-rule="evenodd" clip-rule="evenodd" d="M615.251 148.509C611.792 148.509 610.007 149.808 608.434 150.956C607.028 151.98 605.917 152.789 603.501 152.789C601.085 152.789 599.974 151.98 598.567 150.955C596.994 149.808 595.209 148.508 591.75 148.508C588.292 148.508 586.507 149.808 584.933 150.955C583.526 151.979 582.415 152.789 580 152.789V155.999C583.459 155.999 585.244 154.699 586.817 153.551C588.224 152.527 589.334 151.719 591.75 151.719C594.167 151.719 595.277 152.527 596.683 153.552C598.258 154.699 600.042 156 603.501 156C606.959 156 608.744 154.699 610.318 153.552C611.723 152.529 612.834 151.719 615.251 151.719C617.666 151.719 618.777 152.527 620.183 153.552C621.758 154.699 623.541 156 627 156V152.788C624.585 152.788 623.474 151.979 622.068 150.954C620.493 149.807 618.708 148.507 615.251 148.507V148.509ZM622.068 140.808C620.493 139.647 618.708 138.331 615.251 138.331C611.792 138.331 610.007 139.647 608.434 140.808C607.028 141.844 605.917 142.664 603.501 142.664C601.085 142.664 599.974 141.845 598.567 140.808C596.994 139.647 595.209 138.331 591.75 138.331C588.292 138.331 586.507 139.647 584.933 140.808C583.526 141.844 582.415 142.664 580 142.664V145.913C583.459 145.913 585.244 144.597 586.817 143.436C588.224 142.4 589.334 141.58 591.75 141.58C594.167 141.58 595.277 142.399 596.683 143.436C598.258 144.597 600.042 145.913 603.501 145.913C606.959 145.913 608.744 144.597 610.318 143.436C611.723 142.4 612.834 141.58 615.251 141.58C617.666 141.58 618.777 142.399 620.183 143.436C621.758 144.597 623.541 145.913 627 145.913V142.664C624.585 142.664 623.474 141.845 622.068 140.808ZM622.068 129.359C620.493 128.198 618.708 126.882 615.251 126.882C611.792 126.882 610.007 128.197 608.434 129.359C607.028 130.395 605.917 131.214 603.501 131.214C601.085 131.214 599.974 130.395 598.567 129.359C596.994 128.197 595.209 126.882 591.75 126.882C588.292 126.882 586.507 128.197 584.933 129.359C583.526 130.395 582.415 131.214 580 131.214V134.463C583.459 134.463 585.244 133.148 586.817 131.986C588.224 130.951 589.334 130.132 591.75 130.132C594.167 130.132 595.277 130.95 596.683 131.986C598.258 133.148 600.042 134.463 603.501 134.463C606.959 134.463 608.744 133.148 610.318 131.986C611.723 130.951 612.834 130.132 615.251 130.132C617.666 130.132 618.777 130.95 620.183 131.986C621.758 133.148 623.541 134.463 627 134.463V131.215C624.585 131.215 623.474 130.395 622.068 129.359ZM622.068 119.152C620.493 118.004 618.708 116.704 615.251 116.704C611.792 116.704 610.007 118.004 608.434 119.152C607.028 120.175 605.917 120.985 603.501 120.985C601.085 120.985 599.974 120.176 598.567 119.152C596.994 118.004 595.209 116.704 591.75 116.704C588.292 116.704 586.507 118.004 584.933 119.152C583.526 120.175 582.415 120.985 580 120.985V124.195C583.459 124.195 585.244 122.895 586.817 121.747C588.224 120.725 589.335 119.916 591.75 119.916C594.166 119.916 595.277 120.725 596.683 121.75C598.258 122.896 600.042 124.197 603.501 124.197C606.959 124.197 608.744 122.896 610.318 121.75C611.723 120.726 612.834 119.916 615.251 119.916C617.666 119.916 618.777 120.725 620.183 121.75C621.758 122.896 623.541 124.197 627 124.197V120.986C624.585 120.986 623.474 120.178 622.068 119.153V119.152ZM615.251 106.527C611.792 106.527 610.007 107.828 608.434 108.975C607.028 109.999 605.917 110.807 603.501 110.807C601.085 110.807 599.974 109.999 598.567 108.974C596.994 107.828 595.209 106.526 591.75 106.526C588.292 106.526 586.507 107.828 584.933 108.974C583.526 109.998 582.415 110.807 580 110.807V114.019C583.459 114.019 585.244 112.718 586.817 111.571C588.224 110.547 589.335 109.738 591.75 109.738C594.166 109.738 595.277 110.547 596.683 111.571C598.258 112.718 600.042 114.019 603.501 114.019C606.959 114.019 608.744 112.718 610.318 111.571C611.725 110.547 612.836 109.738 615.251 109.738C617.666 109.738 618.777 110.547 620.183 111.571C621.758 112.718 623.541 114.019 627 114.019V110.807C624.585 110.807 623.474 109.999 622.068 108.974C620.493 107.828 618.708 106.526 615.251 106.526V106.527Z" fill="black"/>
</g>
</g>
<path fill-rule="evenodd" clip-rule="evenodd" d="M602.672 130.431C602.672 132.363 602.093 133.856 600.932 134.907C599.772 135.961 598.124 136.488 595.989 136.488H594.652V142.224H589.895V124.931H595.989C598.213 124.931 599.882 125.407 600.999 126.362C602.114 127.316 602.672 128.672 602.672 130.431ZM594.652 132.679H595.52C596.234 132.679 596.801 132.481 597.222 132.087C597.645 131.693 597.854 131.148 597.854 130.454C597.854 129.287 597.197 128.704 595.88 128.704H594.652V132.679ZM609.591 141.419C607.839 141.342 606.116 140.949 604.509 140.261V136.333C605.44 136.798 606.452 137.187 607.544 137.498C608.636 137.81 609.594 137.965 610.421 137.965C611.104 137.965 611.604 137.884 611.922 137.723C612.238 137.561 612.397 137.291 612.397 136.914C612.397 136.653 612.283 136.431 612.053 136.25C611.825 136.069 611.444 135.864 610.909 135.635C610.197 135.338 609.476 135.062 608.748 134.807C607.729 134.437 606.905 134.021 606.279 133.559C605.653 133.098 605.197 132.582 604.912 132.01C604.626 131.438 604.484 130.726 604.484 129.874C604.484 128.573 604.911 127.556 605.762 126.823C606.612 126.089 607.889 125.636 609.591 125.463V123.842H612.084V125.439C613.681 125.525 615.291 125.912 616.913 126.598L615.48 129.969C613.802 129.228 612.288 128.858 610.94 128.858C610.297 128.858 609.846 128.934 609.585 129.088C609.462 129.154 609.36 129.253 609.291 129.373C609.222 129.493 609.188 129.63 609.194 129.767C609.194 130.028 609.288 130.243 609.477 130.413C609.665 130.583 609.993 130.772 610.458 130.981C610.923 131.19 611.57 131.432 612.397 131.708C614.075 132.291 615.279 132.956 616.01 133.701C616.741 134.446 617.105 135.407 617.105 136.581C617.105 137.906 616.678 138.983 615.824 139.811C614.968 140.639 613.722 141.152 612.084 141.349V143.632H609.591V141.42V141.419Z" fill="white"/>
</g>
</g>
<g filter="url(#filter9_d)">
<g filter="url(#filter10_d)">
<path d="M550.5 330C559.613 330 567 322.613 567 313.5C567 304.387 559.613 297 550.5 297C541.387 297 534 304.387 534 313.5C534 322.613 541.387 330 550.5 330Z" fill="url(#paint6_linear)"/>
<path d="M550.5 330C559.613 330 567 322.613 567 313.5C567 304.387 559.613 297 550.5 297C541.387 297 534 304.387 534 313.5C534 322.613 541.387 330 550.5 330Z" stroke="white" stroke-width="4"/>
</g>
<mask id="mask3" mask-type="alpha" maskUnits="userSpaceOnUse" x="534" y="297" width="33" height="33">
<path d="M550.5 330C559.613 330 567 322.613 567 313.5C567 304.387 559.613 297 550.5 297C541.387 297 534 304.387 534 313.5C534 322.613 541.387 330 550.5 330Z" fill="white"/>
</mask>
<g mask="url(#mask3)">
<path d="M550.5 330C559.613 330 567 322.613 567 313.5C567 304.387 559.613 297 550.5 297C541.387 297 534 304.387 534 313.5C534 322.613 541.387 330 550.5 330Z" fill="url(#paint7_linear)"/>
<g style="mix-blend-mode:overlay" opacity="0.3">
<g style="mix-blend-mode:overlay" opacity="0.3">
<path fill-rule="evenodd" clip-rule="evenodd" d="M558.751 324.74C556.322 324.74 555.069 325.652 553.964 326.459C552.977 327.178 552.197 327.745 550.5 327.745C548.805 327.745 548.024 327.178 547.037 326.458C545.932 325.652 544.679 324.739 542.25 324.739C539.822 324.739 538.569 325.652 537.464 326.458C536.476 327.177 535.696 327.745 534 327.745V329.999C536.428 329.999 537.682 329.086 538.786 328.281C539.774 327.562 540.554 326.994 542.25 326.994C543.947 326.994 544.726 327.562 545.714 328.281C546.82 329.086 548.072 330 550.5 330C552.929 330 554.182 329.086 555.287 328.281C556.274 327.563 557.054 326.994 558.751 326.994C560.446 326.994 561.227 327.562 562.213 328.281C563.319 329.086 564.572 330 567 330V327.744C565.304 327.744 564.524 327.177 563.537 326.457C562.431 325.652 561.178 324.739 558.751 324.739V324.74ZM563.537 319.333C562.431 318.518 561.178 317.594 558.751 317.594C556.322 317.594 555.069 318.518 553.964 319.333C552.977 320.061 552.197 320.636 550.5 320.636C548.805 320.636 548.024 320.061 547.037 319.333C545.932 318.518 544.679 317.594 542.25 317.594C539.822 317.594 538.569 318.518 537.464 319.333C536.476 320.061 535.696 320.636 534 320.636V322.918C536.428 322.918 537.682 321.994 538.786 321.178C539.774 320.451 540.554 319.875 542.25 319.875C543.947 319.875 544.726 320.45 545.714 321.178C546.82 321.994 548.072 322.918 550.5 322.918C552.929 322.918 554.182 321.994 555.287 321.178C556.274 320.451 557.054 319.875 558.751 319.875C560.446 319.875 561.227 320.45 562.213 321.178C563.319 321.994 564.572 322.918 567 322.918V320.636C565.304 320.636 564.524 320.061 563.537 319.333ZM563.537 311.294C562.431 310.48 561.178 309.555 558.751 309.555C556.322 309.555 555.069 310.479 553.964 311.294C552.977 312.022 552.197 312.597 550.5 312.597C548.805 312.597 548.024 312.022 547.037 311.294C545.932 310.479 544.679 309.555 542.25 309.555C539.822 309.555 538.569 310.479 537.464 311.294C536.476 312.022 535.696 312.597 534 312.597V314.878C536.428 314.878 537.682 313.955 538.786 313.139C539.774 312.412 540.554 311.837 542.25 311.837C543.947 311.837 544.726 312.411 545.714 313.139C546.82 313.955 548.072 314.878 550.5 314.878C552.929 314.878 554.182 313.955 555.287 313.139C556.274 312.412 557.054 311.837 558.751 311.837C560.446 311.837 561.227 312.411 562.213 313.139C563.319 313.955 564.572 314.878 567 314.878V312.598C565.304 312.598 564.524 312.022 563.537 311.294ZM563.537 304.128C562.431 303.322 561.178 302.409 558.751 302.409C556.322 302.409 555.069 303.322 553.964 304.128C552.977 304.846 552.197 305.415 550.5 305.415C548.805 305.415 548.024 304.847 547.037 304.128C545.932 303.322 544.679 302.409 542.25 302.409C539.822 302.409 538.569 303.322 537.464 304.128C536.476 304.846 535.696 305.415 534 305.415V307.669C536.428 307.669 537.682 306.756 538.786 305.95C539.774 305.232 540.554 304.665 542.25 304.665C543.946 304.665 544.726 305.232 545.714 305.952C546.82 306.757 548.072 307.67 550.5 307.67C552.929 307.67 554.182 306.757 555.287 305.952C556.274 305.233 557.054 304.665 558.751 304.665C560.446 304.665 561.227 305.232 562.213 305.952C563.319 306.757 564.572 307.67 567 307.67V305.416C565.304 305.416 564.524 304.848 563.537 304.128V304.128ZM558.751 295.264C556.322 295.264 555.069 296.177 553.964 296.982C552.977 297.701 552.197 298.269 550.5 298.269C548.805 298.269 548.024 297.701 547.037 296.982C545.932 296.177 544.679 295.263 542.25 295.263C539.822 295.263 538.569 296.177 537.464 296.982C536.476 297.7 535.696 298.269 534 298.269V300.524C536.428 300.524 537.682 299.611 538.786 298.805C539.774 298.086 540.554 297.518 542.25 297.518C543.946 297.518 544.726 298.086 545.714 298.805C546.82 299.611 548.072 300.524 550.5 300.524C552.929 300.524 554.182 299.611 555.287 298.805C556.275 298.086 557.055 297.518 558.751 297.518C560.446 297.518 561.227 298.086 562.213 298.805C563.319 299.611 564.572 300.524 567 300.524V298.269C565.304 298.269 564.524 297.701 563.537 296.982C562.431 296.177 561.178 295.263 558.751 295.263V295.264Z" fill="black"/>
</g>
</g>
<path fill-rule="evenodd" clip-rule="evenodd" d="M549.919 312.047C549.919 313.404 549.512 314.452 548.697 315.19C547.882 315.93 546.725 316.3 545.226 316.3H544.288V320.327H540.947V308.185H545.226C546.788 308.185 547.96 308.52 548.744 309.19C549.527 309.86 549.919 310.813 549.919 312.047ZM544.288 313.625H544.897C545.398 313.625 545.797 313.487 546.092 313.21C546.389 312.933 546.536 312.551 546.536 312.064C546.536 311.244 546.074 310.835 545.15 310.835H544.288V313.625ZM554.777 319.762C553.547 319.708 552.337 319.433 551.208 318.949V316.191C551.862 316.518 552.573 316.791 553.339 317.009C554.106 317.228 554.779 317.337 555.36 317.337C555.839 317.337 556.19 317.281 556.413 317.167C556.635 317.053 556.747 316.864 556.747 316.599C556.747 316.416 556.667 316.26 556.506 316.133C556.345 316.006 556.078 315.862 555.702 315.701C555.202 315.493 554.696 315.299 554.185 315.12C553.469 314.86 552.891 314.568 552.451 314.243C552.012 313.92 551.692 313.557 551.491 313.156C551.291 312.754 551.191 312.255 551.191 311.656C551.191 310.743 551.49 310.029 552.088 309.514C552.685 308.999 553.582 308.681 554.777 308.559V307.421H556.527V308.542C557.648 308.603 558.779 308.874 559.918 309.356L558.911 311.723C557.733 311.203 556.671 310.943 555.724 310.943C555.273 310.943 554.956 310.996 554.772 311.104C554.686 311.151 554.615 311.22 554.566 311.305C554.518 311.389 554.494 311.485 554.498 311.581C554.498 311.765 554.564 311.915 554.697 312.035C554.828 312.154 555.059 312.286 555.385 312.433C555.712 312.58 556.166 312.75 556.747 312.944C557.925 313.354 558.77 313.82 559.284 314.343C559.797 314.866 560.053 315.541 560.053 316.366C560.053 317.296 559.753 318.052 559.153 318.633C558.552 319.215 557.677 319.575 556.527 319.713V321.316H554.777V319.763V319.762Z" fill="white"/>
</g>
</g>
<defs>
<filter id="filter0_d" x="66.5396" y="0.620789" width="295.523" height="223.368" filterUnits="userSpaceOnUse" color-interpolation-filters="sRGB">
<feFlood flood-opacity="0" result="BackgroundImageFix"/>
<feColorMatrix in="SourceAlpha" type="matrix" values="0 0 0 0 0 0 0 0 0 0 0 0 0 0 0 0 0 0 127 0"/>
<feOffset dy="20"/>
<feGaussianBlur stdDeviation="30"/>
<feColorMatrix type="matrix" values="0 0 0 0 0.392157 0 0 0 0 0.501961 0 0 0 0 0.921569 0 0 0 0.2 0"/>
<feBlend mode="normal" in2="BackgroundImageFix" result="effect1_dropShadow"/>
<feBlend mode="normal" in="SourceGraphic" in2="effect1_dropShadow" result="shape"/>
</filter>
<filter id="filter1_d" x="168.842" y="52.9312" width="33.7703" height="33.7472" filterUnits="userSpaceOnUse" color-interpolation-filters="sRGB">
<feFlood flood-opacity="0" result="BackgroundImageFix"/>
<feColorMatrix in="SourceAlpha" type="matrix" values="0 0 0 0 0 0 0 0 0 0 0 0 0 0 0 0 0 0 127 0"/>
<feOffset dy="2"/>
<feGaussianBlur stdDeviation="2"/>
<feColorMatrix type="matrix" values="0 0 0 0 0.283843 0 0 0 0 1 0 0 0 0 0.828122 0 0 0 0.4 0"/>
<feBlend mode="normal" in2="BackgroundImageFix" result="effect1_dropShadow"/>
<feBlend mode="normal" in="SourceGraphic" in2="effect1_dropShadow" result="shape"/>
</filter>
<filter id="filter2_d" x="425.069" y="135.961" width="309.129" height="216.403" filterUnits="userSpaceOnUse" color-interpolation-filters="sRGB">
<feFlood flood-opacity="0" result="BackgroundImageFix"/>
<feColorMatrix in="SourceAlpha" type="matrix" values="0 0 0 0 0 0 0 0 0 0 0 0 0 0 0 0 0 0 127 0"/>
<feOffset dy="20"/>
<feGaussianBlur stdDeviation="30"/>
<feColorMatrix type="matrix" values="0 0 0 0 0.392157 0 0 0 0 0.501961 0 0 0 0 0.921569 0 0 0 0.2 0"/>
<feBlend mode="normal" in2="BackgroundImageFix" result="effect1_dropShadow"/>
<feBlend mode="normal" in="SourceGraphic" in2="effect1_dropShadow" result="shape"/>
</filter>
<filter id="filter3_d" x="219.023" y="151.649" width="67.7573" height="82.7745" filterUnits="userSpaceOnUse" color-interpolation-filters="sRGB">
<feFlood flood-opacity="0" result="BackgroundImageFix"/>
<feColorMatrix in="SourceAlpha" type="matrix" values="0 0 0 0 0 0 0 0 0 0 0 0 0 0 0 0 0 0 127 0"/>
<feOffset dy="6"/>
<feGaussianBlur stdDeviation="7.5"/>
<feColorMatrix type="matrix" values="0 0 0 0 0 0 0 0 0 0.138341 0 0 0 0 0.864629 0 0 0 0.2 0"/>
<feBlend mode="normal" in2="BackgroundImageFix" result="effect1_dropShadow"/>
<feBlend mode="normal" in="SourceGraphic" in2="effect1_dropShadow" result="shape"/>
</filter>
<filter id="filter4_d" x="428.314" y="218.9" width="19.0606" height="23.6003" filterUnits="userSpaceOnUse" color-interpolation-filters="sRGB">
<feFlood flood-opacity="0" result="BackgroundImageFix"/>
<feColorMatrix in="SourceAlpha" type="matrix" values="0 0 0 0 0 0 0 0 0 0 0 0 0 0 0 0 0 0 127 0"/>
<feOffset dy="4"/>
<feColorMatrix type="matrix" values="0 0 0 0 0.513491 0 0 0 0 0.553621 0 0 0 0 0.864629 0 0 0 0.21 0"/>
<feBlend mode="normal" in2="BackgroundImageFix" result="effect1_dropShadow"/>
<feBlend mode="normal" in="SourceGraphic" in2="effect1_dropShadow" result="shape"/>
</filter>
<filter id="filter5_d" x="95" y="246" width="74" height="74" filterUnits="userSpaceOnUse" color-interpolation-filters="sRGB">
<feFlood flood-opacity="0" result="BackgroundImageFix"/>
<feColorMatrix in="SourceAlpha" type="matrix" values="0 0 0 0 0 0 0 0 0 0 0 0 0 0 0 0 0 0 127 0"/>
<feOffset dy="6"/>
<feGaussianBlur stdDeviation="7.5"/>
<feColorMatrix type="matrix" values="0 0 0 0 0 0 0 0 0 0.138341 0 0 0 0 0.864629 0 0 0 0.2 0"/>
<feBlend mode="normal" in2="BackgroundImageFix" result="effect1_dropShadow"/>
<feBlend mode="normal" in="SourceGraphic" in2="effect1_dropShadow" result="shape"/>
</filter>
<filter id="filter6_d" x="106" y="253" width="52" height="52" filterUnits="userSpaceOnUse" color-interpolation-filters="sRGB">
<feFlood flood-opacity="0" result="BackgroundImageFix"/>
<feColorMatrix in="SourceAlpha" type="matrix" values="0 0 0 0 0 0 0 0 0 0 0 0 0 0 0 0 0 0 127 0"/>
<feOffset dy="2"/>
<feGaussianBlur stdDeviation="2"/>
<feColorMatrix type="matrix" values="0 0 0 0 0.283843 0 0 0 0 1 0 0 0 0 0.828122 0 0 0 0.4 0"/>
<feBlend mode="normal" in2="BackgroundImageFix" result="effect1_dropShadow"/>
<feBlend mode="normal" in="SourceGraphic" in2="effect1_dropShadow" result="shape"/>
</filter>
<filter id="filter7_d" x="563" y="98" width="81" height="81" filterUnits="userSpaceOnUse" color-interpolation-filters="sRGB">
<feFlood flood-opacity="0" result="BackgroundImageFix"/>
<feColorMatrix in="SourceAlpha" type="matrix" values="0 0 0 0 0 0 0 0 0 0 0 0 0 0 0 0 0 0 127 0"/>
<feOffset dy="6"/>
<feGaussianBlur stdDeviation="7.5"/>
<feColorMatrix type="matrix" values="0 0 0 0 0 0 0 0 0 0.138341 0 0 0 0 0.864629 0 0 0 0.2 0"/>
<feBlend mode="normal" in2="BackgroundImageFix" result="effect1_dropShadow"/>
<feBlend mode="normal" in="SourceGraphic" in2="effect1_dropShadow" result="shape"/>
</filter>
<filter id="filter8_d" x="574" y="105" width="59" height="59" filterUnits="userSpaceOnUse" color-interpolation-filters="sRGB">
<feFlood flood-opacity="0" result="BackgroundImageFix"/>
<feColorMatrix in="SourceAlpha" type="matrix" values="0 0 0 0 0 0 0 0 0 0 0 0 0 0 0 0 0 0 127 0"/>
<feOffset dy="2"/>
<feGaussianBlur stdDeviation="2"/>
<feColorMatrix type="matrix" values="0 0 0 0 0.283843 0 0 0 0 1 0 0 0 0 0.828122 0 0 0 0.4 0"/>
<feBlend mode="normal" in2="BackgroundImageFix" result="effect1_dropShadow"/>
<feBlend mode="normal" in="SourceGraphic" in2="effect1_dropShadow" result="shape"/>
</filter>
<filter id="filter9_d" x="517" y="286" width="67" height="67" filterUnits="userSpaceOnUse" color-interpolation-filters="sRGB">
<feFlood flood-opacity="0" result="BackgroundImageFix"/>
<feColorMatrix in="SourceAlpha" type="matrix" values="0 0 0 0 0 0 0 0 0 0 0 0 0 0 0 0 0 0 127 0"/>
<feOffset dy="6"/>
<feGaussianBlur stdDeviation="7.5"/>
<feColorMatrix type="matrix" values="0 0 0 0 0 0 0 0 0 0.138341 0 0 0 0 0.864629 0 0 0 0.2 0"/>
<feBlend mode="normal" in2="BackgroundImageFix" result="effect1_dropShadow"/>
<feBlend mode="normal" in="SourceGraphic" in2="effect1_dropShadow" result="shape"/>
</filter>
<filter id="filter10_d" x="528" y="293" width="45" height="45" filterUnits="userSpaceOnUse" color-interpolation-filters="sRGB">
<feFlood flood-opacity="0" result="BackgroundImageFix"/>
<feColorMatrix in="SourceAlpha" type="matrix" values="0 0 0 0 0 0 0 0 0 0 0 0 0 0 0 0 0 0 127 0"/>
<feOffset dy="2"/>
<feGaussianBlur stdDeviation="2"/>
<feColorMatrix type="matrix" values="0 0 0 0 0.283843 0 0 0 0 1 0 0 0 0 0.828122 0 0 0 0.4 0"/>
<feBlend mode="normal" in2="BackgroundImageFix" result="effect1_dropShadow"/>
<feBlend mode="normal" in="SourceGraphic" in2="effect1_dropShadow" result="shape"/>
</filter>
<linearGradient id="paint0_linear" x1="185.728" y1="56.9312" x2="185.728" y2="78.6783" gradientUnits="userSpaceOnUse">
<stop stop-color="#00EDD8"/>
<stop offset="1" stop-color="#00D7AF"/>
</linearGradient>
<linearGradient id="paint1_linear" x1="185.728" y1="56.9312" x2="185.728" y2="78.6783" gradientUnits="userSpaceOnUse">
<stop stop-color="#58C1A4"/>
<stop offset="1" stop-color="#00D7AF"/>
</linearGradient>
<linearGradient id="paint2_linear" x1="132" y1="257" x2="132" y2="297" gradientUnits="userSpaceOnUse">
<stop stop-color="#00EDD8"/>
<stop offset="1" stop-color="#00D7AF"/>
</linearGradient>
<linearGradient id="paint3_linear" x1="132" y1="257" x2="132" y2="297" gradientUnits="userSpaceOnUse">
<stop stop-color="#58C1A4"/>
<stop offset="1" stop-color="#00D7AF"/>
</linearGradient>
<linearGradient id="paint4_linear" x1="603.5" y1="109" x2="603.5" y2="156" gradientUnits="userSpaceOnUse">
<stop stop-color="#00EDD8"/>
<stop offset="1" stop-color="#00D7AF"/>
</linearGradient>
<linearGradient id="paint5_linear" x1="603.5" y1="109" x2="603.5" y2="156" gradientUnits="userSpaceOnUse">
<stop stop-color="#58C1A4"/>
<stop offset="1" stop-color="#00D7AF"/>
</linearGradient>
<linearGradient id="paint6_linear" x1="550.5" y1="297" x2="550.5" y2="330" gradientUnits="userSpaceOnUse">
<stop stop-color="#00EDD8"/>
<stop offset="1" stop-color="#00D7AF"/>
</linearGradient>
<linearGradient id="paint7_linear" x1="550.5" y1="297" x2="550.5" y2="330" gradientUnits="userSpaceOnUse">
<stop stop-color="#58C1A4"/>
<stop offset="1" stop-color="#00D7AF"/>
</linearGradient>
</defs>
</svg>
