<svg width="266" height="194" viewBox="0 0 266 194" fill="none" xmlns="http://www.w3.org/2000/svg">
<path fill-rule="evenodd" clip-rule="evenodd" d="M92.5149 134.621C92.5149 160.672 74.9804 179.731 48.9023 179.731C41.9583 179.731 23.3887 187.007 17.4508 190.398C2.82461 198.751 2.45343 186.959 2.05953 170.313C1.68263 154.39 1.68262 137.164 1.68262 135.135C1.68262 109.085 21.2915 88 50.6269 88C76.7057 88 92.5149 108.569 92.5149 134.621Z" fill="#02065A"/>
<path fill-rule="evenodd" clip-rule="evenodd" d="M30.0378 95.2996C38.0928 91.4089 49.3467 91.3443 50.808 91.3525C50.844 91.3525 50.8536 91.4014 50.8202 91.4157C49.28 92.064 36.0056 97.7659 31.7889 103.411C27.7689 108.792 32.0985 116.013 30.0378 116.013C24.5578 116.013 20.4201 113.337 19.4867 112.951C18.5975 112.583 16.0545 111.774 15.815 111.698C15.8028 111.694 15.7926 111.696 15.7837 111.706C15.5123 112.007 11.0276 117.009 9.54655 120.945C8.81112 122.901 7.11507 127.861 6.99329 128.216C6.98921 128.229 6.97766 128.236 6.96337 128.236H5.05302C5.03193 128.236 5.0156 128.219 5.02036 128.198C5.12717 127.702 6.29392 122.354 7.93145 117.686C9.14854 114.216 13.2264 108.365 14.7149 106.707C18.3043 102.709 21.4086 99.4676 30.0378 95.2996Z" fill="#2B2F86"/>
<path fill-rule="evenodd" clip-rule="evenodd" d="M0.0253683 141.076C-0.307989 144.786 2.68813 147.824 6.41629 147.812C8.14158 147.806 8.95798 147.735 9.09812 147.722C9.11309 147.72 9.12328 147.727 9.12873 147.741C9.18315 147.883 9.5131 148.744 10.0342 150.22C15.3462 165.244 29.6901 176.008 46.5566 176.008C63.3231 176.008 77.601 165.361 82.9823 150.468C83.3932 149.33 83.8687 147.876 83.9313 147.681C83.9361 147.667 83.9463 147.66 83.9613 147.661C84.2123 147.677 86.4798 147.812 88.414 147.812C91.6516 147.812 94.3055 145.329 94.5736 142.164C94.8852 138.486 91.9026 135.461 88.2065 135.461C86.8036 135.461 85.5104 135.462 85.3008 135.462C85.2824 135.462 85.2709 135.45 85.2709 135.432C85.2682 135.273 85.2559 134.519 85.2396 134.11C85.1478 131.852 84.8627 131.234 84.3953 129.09C82.6761 121.172 77.8112 115.706 77.5214 115.385C77.5118 115.375 77.5016 115.372 77.4894 115.377C76.6335 115.685 46.4538 126.547 31.414 128.235C16.3265 129.93 9.43351 128.73 8.95524 128.641C8.93823 128.638 8.92599 128.646 8.92123 128.663C8.83551 128.984 8.00483 132.127 7.89666 134.026C7.8606 134.666 7.85856 135.286 7.85856 135.43C7.85856 135.449 7.84564 135.462 7.82659 135.462C7.73883 135.462 7.41024 135.461 6.18226 135.461C2.9555 135.461 0.308382 137.927 0.0253683 141.076Z" fill="#D9DDFC"/>
<path fill-rule="evenodd" clip-rule="evenodd" d="M63.9285 145.604C65.3361 145.604 66.4879 144.454 66.4879 143.048V138.019C66.4879 136.612 65.3361 135.462 63.9285 135.462C62.5209 135.462 61.3691 136.612 61.3691 138.019V143.048C61.3691 144.454 62.5209 145.604 63.9285 145.604Z" fill="#02065A"/>
<path fill-rule="evenodd" clip-rule="evenodd" d="M28.8543 145.604C30.2619 145.604 31.4137 144.454 31.4137 143.048V138.019C31.4137 136.612 30.2619 135.462 28.8543 135.462C27.4467 135.462 26.2949 136.612 26.2949 138.019V143.048C26.2949 144.454 27.4467 145.604 28.8543 145.604Z" fill="#02065A"/>
<path fill-rule="evenodd" clip-rule="evenodd" d="M66.2021 136.963V139.809C66.2021 139.837 66.2328 139.854 66.2545 139.837C66.4654 139.667 67.2702 139.011 67.7376 138.545C68.2785 138.004 68.4778 137.351 68.8717 136.644C69.2656 135.939 69.4895 134.649 68.9241 135.305C68.5588 135.728 68.086 136.249 67.5158 136.818C67.0818 137.251 66.4273 137.009 66.2484 136.932C66.2266 136.922 66.2021 136.939 66.2021 136.963Z" fill="#02065A"/>
<path fill-rule="evenodd" clip-rule="evenodd" d="M26.9503 136.963V139.809C26.9503 139.837 26.9204 139.854 26.8986 139.837C26.687 139.667 25.8822 139.011 25.4155 138.545C24.8746 138.004 24.6746 137.351 24.2807 136.644C23.8868 135.939 23.663 134.649 24.229 135.305C24.5937 135.728 25.0665 136.249 25.6366 136.818C26.0706 137.251 26.7258 137.009 26.904 136.932C26.9258 136.922 26.9503 136.939 26.9503 136.963Z" fill="#02065A"/>
<path fill-rule="evenodd" clip-rule="evenodd" d="M55.4316 160.423C54.5928 161.762 53.1083 165.465 46.4527 165.465C39.7972 165.465 38.9917 161.38 37.4222 160.578C35.9642 159.834 35.3982 161.156 37.6331 163.787C39.1318 165.55 42.5756 167.154 46.4527 167.154C53.5526 167.154 57.212 162.567 57.212 161.116C57.212 159.665 56.1249 159.318 55.4316 160.423Z" fill="#02065A"/>
<g filter="url(#filter0_d)">
<path d="M235.687 50C235.687 33.4314 222.255 20 205.687 20H110.164C93.5953 20 80.1638 33.4315 80.1638 50V88.6852C80.1638 96.9173 86.8372 103.591 95.0694 103.591C99.223 103.591 101.543 108.385 98.9658 111.642L97.5362 113.449C93.1926 118.939 100.036 126.216 105.782 122.217L129.974 105.383C131.65 104.216 133.643 103.591 135.686 103.591H205.686C222.255 103.591 235.687 90.1593 235.687 73.5907V50Z" fill="white"/>
</g>
<path d="M104.447 49H102.335V44.6865H98.377V49H96.2578V39.0059H98.377V42.9229H102.335V39.0059H104.447V49ZM109.978 42.6973C109.535 42.6973 109.189 42.8385 108.938 43.1211C108.688 43.3991 108.544 43.7956 108.508 44.3105H111.434C111.424 43.7956 111.29 43.3991 111.03 43.1211C110.771 42.8385 110.42 42.6973 109.978 42.6973ZM110.271 49.1367C109.041 49.1367 108.079 48.7972 107.387 48.1182C106.694 47.4391 106.348 46.4775 106.348 45.2334C106.348 43.9528 106.667 42.9639 107.305 42.2666C107.947 41.5648 108.834 41.2139 109.964 41.2139C111.044 41.2139 111.885 41.5215 112.486 42.1367C113.088 42.752 113.389 43.6019 113.389 44.6865V45.6982H108.46C108.483 46.2907 108.658 46.7533 108.986 47.0859C109.314 47.4186 109.775 47.585 110.367 47.585C110.827 47.585 111.263 47.5371 111.673 47.4414C112.083 47.3457 112.511 47.193 112.958 46.9834V48.5967C112.593 48.779 112.204 48.9134 111.789 49C111.374 49.0911 110.868 49.1367 110.271 49.1367ZM113.99 41.3574H116.273L117.716 45.6572C117.839 46.0309 117.923 46.473 117.969 46.9834H118.01C118.06 46.514 118.158 46.0719 118.304 45.6572L119.719 41.3574H121.954L118.721 49.9775C118.424 50.7751 118.001 51.3721 117.449 51.7686C116.902 52.165 116.262 52.3633 115.528 52.3633C115.168 52.3633 114.815 52.3245 114.469 52.2471V50.5928C114.719 50.652 114.993 50.6816 115.289 50.6816C115.658 50.6816 115.979 50.5677 116.253 50.3398C116.531 50.1165 116.747 49.777 116.902 49.3213L117.025 48.9453L113.99 41.3574ZM125.099 47.5303C124.862 48.4508 124.461 49.5423 123.896 50.8047H122.392C122.688 49.5924 122.918 48.4486 123.082 47.373H124.996L125.099 47.5303ZM137.034 49L136.446 46.3271L135.653 42.9502H135.605L134.211 49H131.969L129.795 41.3574H131.873L132.755 44.7412C132.896 45.3473 133.04 46.1836 133.186 47.25H133.227C133.245 46.9036 133.325 46.3545 133.466 45.6025L133.575 45.0215L134.519 41.3574H136.815L137.711 45.0215C137.729 45.1217 137.757 45.2699 137.793 45.4658C137.834 45.6618 137.873 45.8714 137.909 46.0947C137.946 46.3135 137.978 46.5299 138.005 46.7441C138.037 46.9538 138.055 47.1224 138.06 47.25H138.101C138.142 46.9219 138.215 46.473 138.319 45.9033C138.424 45.3291 138.499 44.9417 138.545 44.7412L139.461 41.3574H141.505L139.304 49H137.034ZM145.907 42.6973C145.465 42.6973 145.119 42.8385 144.868 43.1211C144.618 43.3991 144.474 43.7956 144.438 44.3105H147.363C147.354 43.7956 147.22 43.3991 146.96 43.1211C146.7 42.8385 146.349 42.6973 145.907 42.6973ZM146.201 49.1367C144.971 49.1367 144.009 48.7972 143.316 48.1182C142.624 47.4391 142.277 46.4775 142.277 45.2334C142.277 43.9528 142.596 42.9639 143.234 42.2666C143.877 41.5648 144.763 41.2139 145.894 41.2139C146.974 41.2139 147.814 41.5215 148.416 42.1367C149.018 42.752 149.318 43.6019 149.318 44.6865V45.6982H144.39C144.412 46.2907 144.588 46.7533 144.916 47.0859C145.244 47.4186 145.704 47.585 146.297 47.585C146.757 47.585 147.192 47.5371 147.603 47.4414C148.013 47.3457 148.441 47.193 148.888 46.9834V48.5967C148.523 48.779 148.133 48.9134 147.719 49C147.304 49.0911 146.798 49.1367 146.201 49.1367ZM159.504 49L159.101 47.9609H159.046C158.695 48.403 158.333 48.7106 157.959 48.8838C157.59 49.0524 157.107 49.1367 156.51 49.1367C155.776 49.1367 155.197 48.9271 154.773 48.5078C154.354 48.0885 154.145 47.4915 154.145 46.7168C154.145 45.9056 154.427 45.3086 154.992 44.9258C155.562 44.5384 156.419 44.3242 157.562 44.2832L158.889 44.2422V43.9072C158.889 43.1325 158.492 42.7451 157.699 42.7451C157.089 42.7451 156.371 42.9297 155.546 43.2988L154.855 41.8906C155.735 41.4303 156.71 41.2002 157.781 41.2002C158.807 41.2002 159.593 41.4235 160.14 41.8701C160.687 42.3167 160.96 42.9958 160.96 43.9072V49H159.504ZM158.889 45.459L158.082 45.4863C157.476 45.5046 157.025 45.6139 156.729 45.8145C156.432 46.015 156.284 46.3203 156.284 46.7305C156.284 47.3184 156.621 47.6123 157.296 47.6123C157.779 47.6123 158.164 47.4733 158.451 47.1953C158.743 46.9173 158.889 46.5482 158.889 46.0879V45.459ZM167.379 41.2139C167.661 41.2139 167.896 41.2344 168.083 41.2754L167.926 43.2305C167.757 43.1849 167.552 43.1621 167.311 43.1621C166.645 43.1621 166.126 43.333 165.752 43.6748C165.383 44.0166 165.198 44.4951 165.198 45.1104V49H163.113V41.3574H164.692L165 42.6426H165.103C165.34 42.2142 165.659 41.8701 166.06 41.6104C166.465 41.346 166.905 41.2139 167.379 41.2139ZM172.636 42.6973C172.194 42.6973 171.847 42.8385 171.597 43.1211C171.346 43.3991 171.202 43.7956 171.166 44.3105H174.092C174.083 43.7956 173.948 43.3991 173.688 43.1211C173.429 42.8385 173.078 42.6973 172.636 42.6973ZM172.93 49.1367C171.699 49.1367 170.738 48.7972 170.045 48.1182C169.352 47.4391 169.006 46.4775 169.006 45.2334C169.006 43.9528 169.325 42.9639 169.963 42.2666C170.605 41.5648 171.492 41.2139 172.622 41.2139C173.702 41.2139 174.543 41.5215 175.145 42.1367C175.746 42.752 176.047 43.6019 176.047 44.6865V45.6982H171.118C171.141 46.2907 171.316 46.7533 171.645 47.0859C171.973 47.4186 172.433 47.585 173.025 47.585C173.486 47.585 173.921 47.5371 174.331 47.4414C174.741 47.3457 175.17 47.193 175.616 46.9834V48.5967C175.252 48.779 174.862 48.9134 174.447 49C174.033 49.0911 173.527 49.1367 172.93 49.1367ZM184.544 42.6973C184.102 42.6973 183.756 42.8385 183.505 43.1211C183.254 43.3991 183.111 43.7956 183.074 44.3105H186C185.991 43.7956 185.856 43.3991 185.597 43.1211C185.337 42.8385 184.986 42.6973 184.544 42.6973ZM184.838 49.1367C183.607 49.1367 182.646 48.7972 181.953 48.1182C181.26 47.4391 180.914 46.4775 180.914 45.2334C180.914 43.9528 181.233 42.9639 181.871 42.2666C182.514 41.5648 183.4 41.2139 184.53 41.2139C185.61 41.2139 186.451 41.5215 187.053 42.1367C187.654 42.752 187.955 43.6019 187.955 44.6865V45.6982H183.026C183.049 46.2907 183.225 46.7533 183.553 47.0859C183.881 47.4186 184.341 47.585 184.934 47.585C185.394 47.585 185.829 47.5371 186.239 47.4414C186.649 47.3457 187.078 47.193 187.524 46.9834V48.5967C187.16 48.779 186.77 48.9134 186.355 49C185.941 49.0911 185.435 49.1367 184.838 49.1367ZM191.469 49L188.557 41.3574H190.737L192.214 45.7119C192.378 46.2633 192.48 46.7852 192.521 47.2773H192.562C192.585 46.8398 192.688 46.318 192.87 45.7119L194.34 41.3574H196.521L193.608 49H191.469ZM200.786 42.6973C200.344 42.6973 199.998 42.8385 199.747 43.1211C199.496 43.3991 199.353 43.7956 199.316 44.3105H202.242C202.233 43.7956 202.099 43.3991 201.839 43.1211C201.579 42.8385 201.228 42.6973 200.786 42.6973ZM201.08 49.1367C199.85 49.1367 198.888 48.7972 198.195 48.1182C197.503 47.4391 197.156 46.4775 197.156 45.2334C197.156 43.9528 197.475 42.9639 198.113 42.2666C198.756 41.5648 199.642 41.2139 200.772 41.2139C201.853 41.2139 202.693 41.5215 203.295 42.1367C203.896 42.752 204.197 43.6019 204.197 44.6865V45.6982H199.269C199.291 46.2907 199.467 46.7533 199.795 47.0859C200.123 47.4186 200.583 47.585 201.176 47.585C201.636 47.585 202.071 47.5371 202.481 47.4414C202.892 47.3457 203.32 47.193 203.767 46.9834V48.5967C203.402 48.779 203.012 48.9134 202.598 49C202.183 49.0911 201.677 49.1367 201.08 49.1367ZM212.947 49H210.862V44.5361C210.862 43.9847 210.764 43.5723 210.568 43.2988C210.372 43.0208 210.06 42.8818 209.632 42.8818C209.049 42.8818 208.627 43.0778 208.367 43.4697C208.107 43.8571 207.978 44.502 207.978 45.4043V49H205.893V41.3574H207.485L207.766 42.335H207.882C208.114 41.9658 208.433 41.6878 208.839 41.501C209.249 41.3096 209.714 41.2139 210.233 41.2139C211.122 41.2139 211.797 41.4554 212.257 41.9385C212.717 42.417 212.947 43.1097 212.947 44.0166V49ZM100.318 61.9229H98.5137V68H96.4287V61.9229H95.2803V60.918L96.4287 60.3574V59.7969C96.4287 58.9264 96.6429 58.2907 97.0713 57.8896C97.4997 57.4886 98.1855 57.2881 99.1289 57.2881C99.849 57.2881 100.489 57.3952 101.05 57.6094L100.517 59.1406C100.097 59.0085 99.71 58.9424 99.3545 58.9424C99.0583 58.9424 98.8441 59.0312 98.7119 59.209C98.5798 59.3822 98.5137 59.6055 98.5137 59.8789V60.3574H100.318V61.9229ZM104.687 61.6973C104.244 61.6973 103.898 61.8385 103.647 62.1211C103.397 62.3991 103.253 62.7956 103.217 63.3105H106.143C106.133 62.7956 105.999 62.3991 105.739 62.1211C105.479 61.8385 105.129 61.6973 104.687 61.6973ZM104.98 68.1367C103.75 68.1367 102.788 67.7972 102.096 67.1182C101.403 66.4391 101.057 65.4775 101.057 64.2334C101.057 62.9528 101.376 61.9639 102.014 61.2666C102.656 60.5648 103.543 60.2139 104.673 60.2139C105.753 60.2139 106.594 60.5215 107.195 61.1367C107.797 61.752 108.098 62.6019 108.098 63.6865V64.6982H103.169C103.192 65.2907 103.367 65.7533 103.695 66.0859C104.023 66.4186 104.484 66.585 105.076 66.585C105.536 66.585 105.972 66.5371 106.382 66.4414C106.792 66.3457 107.22 66.193 107.667 65.9834V67.5967C107.302 67.779 106.913 67.9134 106.498 68C106.083 68.0911 105.577 68.1367 104.98 68.1367ZM114.646 68L114.243 66.9609H114.188C113.838 67.403 113.475 67.7106 113.102 67.8838C112.732 68.0524 112.249 68.1367 111.652 68.1367C110.919 68.1367 110.34 67.9271 109.916 67.5078C109.497 67.0885 109.287 66.4915 109.287 65.7168C109.287 64.9056 109.57 64.3086 110.135 63.9258C110.704 63.5384 111.561 63.3242 112.705 63.2832L114.031 63.2422V62.9072C114.031 62.1325 113.635 61.7451 112.842 61.7451C112.231 61.7451 111.513 61.9297 110.688 62.2988L109.998 60.8906C110.878 60.4303 111.853 60.2002 112.924 60.2002C113.949 60.2002 114.735 60.4235 115.282 60.8701C115.829 61.3167 116.103 61.9958 116.103 62.9072V68H114.646ZM114.031 64.459L113.225 64.4863C112.618 64.5046 112.167 64.6139 111.871 64.8145C111.575 65.015 111.427 65.3203 111.427 65.7305C111.427 66.3184 111.764 66.6123 112.438 66.6123C112.922 66.6123 113.307 66.4733 113.594 66.1953C113.885 65.9173 114.031 65.5482 114.031 65.0879V64.459ZM121.476 66.4756C121.84 66.4756 122.278 66.3958 122.788 66.2363V67.7881C122.269 68.0205 121.631 68.1367 120.874 68.1367C120.04 68.1367 119.432 67.9271 119.049 67.5078C118.671 67.084 118.481 66.4505 118.481 65.6074V61.9229H117.483V61.041L118.632 60.3438L119.233 58.7305H120.566V60.3574H122.706V61.9229H120.566V65.6074C120.566 65.9036 120.648 66.1224 120.812 66.2637C120.981 66.4049 121.202 66.4756 121.476 66.4756ZM129.754 68L129.474 67.0225H129.364C129.141 67.3779 128.824 67.6536 128.414 67.8496C128.004 68.041 127.537 68.1367 127.013 68.1367C126.115 68.1367 125.438 67.8975 124.982 67.4189C124.527 66.9359 124.299 66.2432 124.299 65.3408V60.3574H126.384V64.8213C126.384 65.3727 126.482 65.7874 126.678 66.0654C126.874 66.3389 127.186 66.4756 127.614 66.4756C128.198 66.4756 128.619 66.2819 128.879 65.8945C129.139 65.5026 129.269 64.8555 129.269 63.9531V60.3574H131.354V68H129.754ZM137.807 60.2139C138.089 60.2139 138.324 60.2344 138.511 60.2754L138.354 62.2305C138.185 62.1849 137.98 62.1621 137.738 62.1621C137.073 62.1621 136.553 62.333 136.18 62.6748C135.811 63.0166 135.626 63.4951 135.626 64.1104V68H133.541V60.3574H135.12L135.428 61.6426H135.53C135.767 61.2142 136.086 60.8701 136.487 60.6104C136.893 60.346 137.333 60.2139 137.807 60.2139ZM143.063 61.6973C142.621 61.6973 142.275 61.8385 142.024 62.1211C141.774 62.3991 141.63 62.7956 141.594 63.3105H144.52C144.51 62.7956 144.376 62.3991 144.116 62.1211C143.856 61.8385 143.506 61.6973 143.063 61.6973ZM143.357 68.1367C142.127 68.1367 141.165 67.7972 140.473 67.1182C139.78 66.4391 139.434 65.4775 139.434 64.2334C139.434 62.9528 139.753 61.9639 140.391 61.2666C141.033 60.5648 141.92 60.2139 143.05 60.2139C144.13 60.2139 144.971 60.5215 145.572 61.1367C146.174 61.752 146.475 62.6019 146.475 63.6865V64.6982H141.546C141.569 65.2907 141.744 65.7533 142.072 66.0859C142.4 66.4186 142.861 66.585 143.453 66.585C143.913 66.585 144.349 66.5371 144.759 66.4414C145.169 66.3457 145.597 66.193 146.044 65.9834V67.5967C145.679 67.779 145.29 67.9134 144.875 68C144.46 68.0911 143.954 68.1367 143.357 68.1367ZM150.59 68.1367C149.692 68.1367 148.986 67.7881 148.471 67.0908C147.96 66.3936 147.705 65.4274 147.705 64.1924C147.705 62.9391 147.965 61.9639 148.484 61.2666C149.008 60.5648 149.729 60.2139 150.645 60.2139C151.606 60.2139 152.34 60.5876 152.846 61.335H152.914C152.809 60.7653 152.757 60.2572 152.757 59.8105V57.3633H154.849V68H153.249L152.846 67.0088H152.757C152.283 67.7607 151.561 68.1367 150.59 68.1367ZM151.321 66.4756C151.854 66.4756 152.244 66.3206 152.49 66.0107C152.741 65.7008 152.878 65.1745 152.9 64.4316V64.2061C152.9 63.3857 152.773 62.7979 152.518 62.4424C152.267 62.0869 151.857 61.9092 151.287 61.9092C150.822 61.9092 150.46 62.1074 150.2 62.5039C149.945 62.8958 149.817 63.4678 149.817 64.2197C149.817 64.9717 149.947 65.5368 150.207 65.915C150.467 66.2887 150.838 66.4756 151.321 66.4756ZM160.577 58.3818C160.577 57.7028 160.955 57.3633 161.712 57.3633C162.468 57.3633 162.847 57.7028 162.847 58.3818C162.847 58.7054 162.751 58.9583 162.56 59.1406C162.373 59.3184 162.09 59.4072 161.712 59.4072C160.955 59.4072 160.577 59.0654 160.577 58.3818ZM162.751 68H160.666V60.3574H162.751V68ZM172 68H169.915V63.5361C169.915 62.9847 169.817 62.5723 169.621 62.2988C169.425 62.0208 169.113 61.8818 168.685 61.8818C168.101 61.8818 167.68 62.0778 167.42 62.4697C167.16 62.8571 167.03 63.502 167.03 64.4043V68H164.945V60.3574H166.538L166.818 61.335H166.935C167.167 60.9658 167.486 60.6878 167.892 60.501C168.302 60.3096 168.767 60.2139 169.286 60.2139C170.175 60.2139 170.849 60.4554 171.31 60.9385C171.77 61.417 172 62.1097 172 63.0166V68ZM181.003 66.4756C181.368 66.4756 181.805 66.3958 182.315 66.2363V67.7881C181.796 68.0205 181.158 68.1367 180.401 68.1367C179.567 68.1367 178.959 67.9271 178.576 67.5078C178.198 67.084 178.009 66.4505 178.009 65.6074V61.9229H177.011V61.041L178.159 60.3438L178.761 58.7305H180.094V60.3574H182.233V61.9229H180.094V65.6074C180.094 65.9036 180.176 66.1224 180.34 66.2637C180.508 66.4049 180.729 66.4756 181.003 66.4756ZM190.922 68H188.837V63.5361C188.837 62.4333 188.427 61.8818 187.606 61.8818C187.023 61.8818 186.602 62.0801 186.342 62.4766C186.082 62.873 185.952 63.5156 185.952 64.4043V68H183.867V57.3633H185.952V59.5303C185.952 59.6989 185.936 60.0954 185.904 60.7197L185.856 61.335H185.966C186.431 60.5876 187.169 60.2139 188.181 60.2139C189.078 60.2139 189.76 60.4554 190.225 60.9385C190.689 61.4215 190.922 62.1143 190.922 63.0166V68ZM196.233 61.6973C195.791 61.6973 195.445 61.8385 195.194 62.1211C194.944 62.3991 194.8 62.7956 194.764 63.3105H197.689C197.68 62.7956 197.546 62.3991 197.286 62.1211C197.026 61.8385 196.675 61.6973 196.233 61.6973ZM196.527 68.1367C195.297 68.1367 194.335 67.7972 193.643 67.1182C192.95 66.4391 192.604 65.4775 192.604 64.2334C192.604 62.9528 192.923 61.9639 193.561 61.2666C194.203 60.5648 195.09 60.2139 196.22 60.2139C197.3 60.2139 198.141 60.5215 198.742 61.1367C199.344 61.752 199.645 62.6019 199.645 63.6865V64.6982H194.716C194.739 65.2907 194.914 65.7533 195.242 66.0859C195.57 66.4186 196.031 66.585 196.623 66.585C197.083 66.585 197.519 66.5371 197.929 66.4414C198.339 66.3457 198.767 66.193 199.214 65.9834V67.5967C198.849 67.779 198.46 67.9134 198.045 68C197.63 68.0911 197.124 68.1367 196.527 68.1367ZM206.672 65.7305C206.672 66.5143 206.398 67.1113 205.852 67.5215C205.309 67.9316 204.496 68.1367 203.411 68.1367C202.855 68.1367 202.381 68.098 201.989 68.0205C201.597 67.9476 201.23 67.8382 200.889 67.6924V65.9697C201.276 66.152 201.711 66.3047 202.194 66.4277C202.682 66.5508 203.11 66.6123 203.479 66.6123C204.236 66.6123 204.614 66.3936 204.614 65.9561C204.614 65.792 204.564 65.6598 204.464 65.5596C204.364 65.4548 204.19 65.3385 203.944 65.2109C203.698 65.0788 203.37 64.9261 202.96 64.7529C202.372 64.5068 201.939 64.279 201.661 64.0693C201.388 63.8597 201.187 63.6204 201.06 63.3516C200.937 63.0781 200.875 62.7432 200.875 62.3467C200.875 61.6676 201.137 61.1436 201.661 60.7744C202.19 60.4007 202.937 60.2139 203.903 60.2139C204.824 60.2139 205.719 60.4144 206.59 60.8154L205.961 62.3193C205.578 62.1553 205.22 62.0208 204.888 61.916C204.555 61.8112 204.215 61.7588 203.869 61.7588C203.254 61.7588 202.946 61.9251 202.946 62.2578C202.946 62.4447 203.044 62.6064 203.24 62.7432C203.441 62.8799 203.876 63.0827 204.546 63.3516C205.143 63.5931 205.58 63.8187 205.858 64.0283C206.136 64.238 206.341 64.4795 206.474 64.7529C206.606 65.0264 206.672 65.3522 206.672 65.7305ZM211.464 61.6973C211.022 61.6973 210.675 61.8385 210.425 62.1211C210.174 62.3991 210.031 62.7956 209.994 63.3105H212.92C212.911 62.7956 212.776 62.3991 212.517 62.1211C212.257 61.8385 211.906 61.6973 211.464 61.6973ZM211.758 68.1367C210.527 68.1367 209.566 67.7972 208.873 67.1182C208.18 66.4391 207.834 65.4775 207.834 64.2334C207.834 62.9528 208.153 61.9639 208.791 61.2666C209.434 60.5648 210.32 60.2139 211.45 60.2139C212.53 60.2139 213.371 60.5215 213.973 61.1367C214.574 61.752 214.875 62.6019 214.875 63.6865V64.6982H209.946C209.969 65.2907 210.145 65.7533 210.473 66.0859C210.801 66.4186 211.261 66.585 211.854 66.585C212.314 66.585 212.749 66.5371 213.159 66.4414C213.569 66.3457 213.998 66.193 214.444 65.9834V67.5967C214.08 67.779 213.69 67.9134 213.275 68C212.861 68.0911 212.355 68.1367 211.758 68.1367ZM103.148 87H101.063V82.5361C101.063 81.9847 100.965 81.5723 100.77 81.2988C100.574 81.0208 100.261 80.8818 99.833 80.8818C99.2497 80.8818 98.8281 81.0778 98.5684 81.4697C98.3086 81.8571 98.1787 82.502 98.1787 83.4043V87H96.0938V79.3574H97.6865L97.9668 80.335H98.083C98.3154 79.9658 98.6344 79.6878 99.04 79.501C99.4502 79.3096 99.915 79.2139 100.435 79.2139C101.323 79.2139 101.998 79.4554 102.458 79.9385C102.918 80.417 103.148 81.1097 103.148 82.0166V87ZM108.46 80.6973C108.018 80.6973 107.672 80.8385 107.421 81.1211C107.17 81.3991 107.027 81.7956 106.99 82.3105H109.916C109.907 81.7956 109.772 81.3991 109.513 81.1211C109.253 80.8385 108.902 80.6973 108.46 80.6973ZM108.754 87.1367C107.523 87.1367 106.562 86.7972 105.869 86.1182C105.176 85.4391 104.83 84.4775 104.83 83.2334C104.83 81.9528 105.149 80.9639 105.787 80.2666C106.43 79.5648 107.316 79.2139 108.446 79.2139C109.526 79.2139 110.367 79.5215 110.969 80.1367C111.57 80.752 111.871 81.6019 111.871 82.6865V83.6982H106.942C106.965 84.2907 107.141 84.7533 107.469 85.0859C107.797 85.4186 108.257 85.585 108.85 85.585C109.31 85.585 109.745 85.5371 110.155 85.4414C110.565 85.3457 110.994 85.193 111.44 84.9834V86.5967C111.076 86.779 110.686 86.9134 110.271 87C109.857 87.0911 109.351 87.1367 108.754 87.1367ZM119.849 87L119.261 84.3271L118.468 80.9502H118.42L117.025 87H114.783L112.609 79.3574H114.688L115.569 82.7412C115.711 83.3473 115.854 84.1836 116 85.25H116.041C116.059 84.9036 116.139 84.3545 116.28 83.6025L116.39 83.0215L117.333 79.3574H119.63L120.525 83.0215C120.544 83.1217 120.571 83.2699 120.607 83.4658C120.648 83.6618 120.687 83.8714 120.724 84.0947C120.76 84.3135 120.792 84.5299 120.819 84.7441C120.851 84.9538 120.869 85.1224 120.874 85.25H120.915C120.956 84.9219 121.029 84.473 121.134 83.9033C121.239 83.3291 121.314 82.9417 121.359 82.7412L122.275 79.3574H124.319L122.118 87H119.849ZM130.889 84.7305C130.889 85.5143 130.615 86.1113 130.068 86.5215C129.526 86.9316 128.713 87.1367 127.628 87.1367C127.072 87.1367 126.598 87.098 126.206 87.0205C125.814 86.9476 125.447 86.8382 125.105 86.6924V84.9697C125.493 85.152 125.928 85.3047 126.411 85.4277C126.899 85.5508 127.327 85.6123 127.696 85.6123C128.453 85.6123 128.831 85.3936 128.831 84.9561C128.831 84.792 128.781 84.6598 128.681 84.5596C128.58 84.4548 128.407 84.3385 128.161 84.2109C127.915 84.0788 127.587 83.9261 127.177 83.7529C126.589 83.5068 126.156 83.279 125.878 83.0693C125.604 82.8597 125.404 82.6204 125.276 82.3516C125.153 82.0781 125.092 81.7432 125.092 81.3467C125.092 80.6676 125.354 80.1436 125.878 79.7744C126.407 79.4007 127.154 79.2139 128.12 79.2139C129.041 79.2139 129.936 79.4144 130.807 79.8154L130.178 81.3193C129.795 81.1553 129.437 81.0208 129.104 80.916C128.772 80.8112 128.432 80.7588 128.086 80.7588C127.471 80.7588 127.163 80.9251 127.163 81.2578C127.163 81.4447 127.261 81.6064 127.457 81.7432C127.658 81.8799 128.093 82.0827 128.763 82.3516C129.36 82.5931 129.797 82.8187 130.075 83.0283C130.353 83.238 130.558 83.4795 130.69 83.7529C130.823 84.0264 130.889 84.3522 130.889 84.7305ZM140.35 87.1367C139.452 87.1367 138.748 86.8109 138.237 86.1592H138.128C138.201 86.7972 138.237 87.1663 138.237 87.2666V90.3633H136.152V79.3574H137.848L138.142 80.3486H138.237C138.725 79.5921 139.447 79.2139 140.404 79.2139C141.307 79.2139 142.013 79.5625 142.523 80.2598C143.034 80.957 143.289 81.9255 143.289 83.165C143.289 83.9808 143.168 84.6895 142.927 85.291C142.69 85.8926 142.35 86.3506 141.908 86.665C141.466 86.9795 140.947 87.1367 140.35 87.1367ZM139.734 80.8818C139.219 80.8818 138.843 81.0413 138.606 81.3604C138.369 81.6748 138.246 82.1966 138.237 82.9258V83.1514C138.237 83.9717 138.358 84.5596 138.6 84.915C138.846 85.2705 139.233 85.4482 139.762 85.4482C140.696 85.4482 141.163 84.6781 141.163 83.1377C141.163 82.3857 141.047 81.8229 140.814 81.4492C140.587 81.071 140.227 80.8818 139.734 80.8818ZM150.426 87L150.146 86.0225H150.036C149.813 86.3779 149.496 86.6536 149.086 86.8496C148.676 87.041 148.209 87.1367 147.685 87.1367C146.787 87.1367 146.11 86.8975 145.654 86.4189C145.199 85.9359 144.971 85.2432 144.971 84.3408V79.3574H147.056V83.8213C147.056 84.3727 147.154 84.7874 147.35 85.0654C147.546 85.3389 147.858 85.4756 148.286 85.4756C148.869 85.4756 149.291 85.2819 149.551 84.8945C149.811 84.5026 149.94 83.8555 149.94 82.9531V79.3574H152.025V87H150.426ZM158.465 79.2139C159.367 79.2139 160.074 79.5671 160.584 80.2734C161.094 80.9753 161.35 81.9391 161.35 83.165C161.35 84.4274 161.085 85.4049 160.557 86.0977C160.033 86.7904 159.317 87.1367 158.41 87.1367C157.512 87.1367 156.808 86.8109 156.298 86.1592H156.154L155.806 87H154.213V76.3633H156.298V78.8379C156.298 79.1523 156.271 79.6559 156.216 80.3486H156.298C156.785 79.5921 157.508 79.2139 158.465 79.2139ZM157.795 80.8818C157.28 80.8818 156.904 81.0413 156.667 81.3604C156.43 81.6748 156.307 82.1966 156.298 82.9258V83.1514C156.298 83.9717 156.419 84.5596 156.66 84.915C156.906 85.2705 157.294 85.4482 157.822 85.4482C158.251 85.4482 158.59 85.2523 158.841 84.8604C159.096 84.4639 159.224 83.8896 159.224 83.1377C159.224 82.3857 159.096 81.8229 158.841 81.4492C158.586 81.071 158.237 80.8818 157.795 80.8818ZM165.157 87H163.072V76.3633H165.157V87ZM167.263 77.3818C167.263 76.7028 167.641 76.3633 168.397 76.3633C169.154 76.3633 169.532 76.7028 169.532 77.3818C169.532 77.7054 169.437 77.9583 169.245 78.1406C169.058 78.3184 168.776 78.4072 168.397 78.4072C167.641 78.4072 167.263 78.0654 167.263 77.3818ZM169.437 87H167.352V79.3574H169.437V87ZM174.734 87.1367C172.355 87.1367 171.166 85.8311 171.166 83.2197C171.166 81.9209 171.49 80.9297 172.137 80.2461C172.784 79.5579 173.711 79.2139 174.919 79.2139C175.803 79.2139 176.596 79.387 177.298 79.7334L176.683 81.3467C176.354 81.2145 176.049 81.1074 175.767 81.0254C175.484 80.9388 175.201 80.8955 174.919 80.8955C173.834 80.8955 173.292 81.6657 173.292 83.2061C173.292 84.7008 173.834 85.4482 174.919 85.4482C175.32 85.4482 175.691 85.3958 176.033 85.291C176.375 85.1816 176.717 85.013 177.059 84.7852V86.5693C176.721 86.7835 176.38 86.9316 176.033 87.0137C175.691 87.0957 175.258 87.1367 174.734 87.1367ZM183.689 87L183.286 85.9609H183.231C182.881 86.403 182.518 86.7106 182.145 86.8838C181.775 87.0524 181.292 87.1367 180.695 87.1367C179.962 87.1367 179.383 86.9271 178.959 86.5078C178.54 86.0885 178.33 85.4915 178.33 84.7168C178.33 83.9056 178.613 83.3086 179.178 82.9258C179.747 82.5384 180.604 82.3242 181.748 82.2832L183.074 82.2422V81.9072C183.074 81.1325 182.678 80.7451 181.885 80.7451C181.274 80.7451 180.556 80.9297 179.731 81.2988L179.041 79.8906C179.921 79.4303 180.896 79.2002 181.967 79.2002C182.992 79.2002 183.778 79.4235 184.325 79.8701C184.872 80.3167 185.146 80.9958 185.146 81.9072V87H183.689ZM183.074 83.459L182.268 83.4863C181.661 83.5046 181.21 83.6139 180.914 83.8145C180.618 84.015 180.47 84.3203 180.47 84.7305C180.47 85.3184 180.807 85.6123 181.481 85.6123C181.965 85.6123 182.35 85.4733 182.637 85.1953C182.928 84.9173 183.074 84.5482 183.074 84.0879V83.459ZM190.519 85.4756C190.883 85.4756 191.321 85.3958 191.831 85.2363V86.7881C191.312 87.0205 190.674 87.1367 189.917 87.1367C189.083 87.1367 188.475 86.9271 188.092 86.5078C187.714 86.084 187.524 85.4505 187.524 84.6074V80.9229H186.526V80.041L187.675 79.3438L188.276 77.7305H189.609V79.3574H191.749V80.9229H189.609V84.6074C189.609 84.9036 189.691 85.1224 189.855 85.2637C190.024 85.4049 190.245 85.4756 190.519 85.4756ZM193.294 77.3818C193.294 76.7028 193.672 76.3633 194.429 76.3633C195.185 76.3633 195.563 76.7028 195.563 77.3818C195.563 77.7054 195.468 77.9583 195.276 78.1406C195.09 78.3184 194.807 78.4072 194.429 78.4072C193.672 78.4072 193.294 78.0654 193.294 77.3818ZM195.468 87H193.383V79.3574H195.468V87ZM199.323 83.165C199.323 83.9215 199.446 84.4935 199.692 84.8809C199.943 85.2682 200.349 85.4619 200.909 85.4619C201.465 85.4619 201.864 85.2705 202.105 84.8877C202.352 84.5003 202.475 83.9261 202.475 83.165C202.475 82.4085 202.352 81.8411 202.105 81.4629C201.859 81.0846 201.456 80.8955 200.896 80.8955C200.34 80.8955 199.938 81.0846 199.692 81.4629C199.446 81.8366 199.323 82.404 199.323 83.165ZM204.607 83.165C204.607 84.4092 204.279 85.3822 203.623 86.084C202.967 86.7858 202.053 87.1367 200.882 87.1367C200.148 87.1367 199.501 86.9772 198.94 86.6582C198.38 86.3346 197.949 85.8721 197.648 85.2705C197.348 84.6689 197.197 83.9671 197.197 83.165C197.197 81.9163 197.523 80.9456 198.175 80.2529C198.826 79.5602 199.743 79.2139 200.923 79.2139C201.657 79.2139 202.304 79.3734 202.864 79.6924C203.425 80.0114 203.855 80.4694 204.156 81.0664C204.457 81.6634 204.607 82.363 204.607 83.165ZM213.385 87H211.3V82.5361C211.3 81.9847 211.202 81.5723 211.006 81.2988C210.81 81.0208 210.498 80.8818 210.069 80.8818C209.486 80.8818 209.064 81.0778 208.805 81.4697C208.545 81.8571 208.415 82.502 208.415 83.4043V87H206.33V79.3574H207.923L208.203 80.335H208.319C208.552 79.9658 208.871 79.6878 209.276 79.501C209.687 79.3096 210.151 79.2139 210.671 79.2139C211.56 79.2139 212.234 79.4554 212.694 79.9385C213.155 80.417 213.385 81.1097 213.385 82.0166V87ZM220.863 84.7305C220.863 85.5143 220.59 86.1113 220.043 86.5215C219.501 86.9316 218.687 87.1367 217.603 87.1367C217.047 87.1367 216.573 87.098 216.181 87.0205C215.789 86.9476 215.422 86.8382 215.08 86.6924V84.9697C215.467 85.152 215.903 85.3047 216.386 85.4277C216.873 85.5508 217.302 85.6123 217.671 85.6123C218.427 85.6123 218.806 85.3936 218.806 84.9561C218.806 84.792 218.756 84.6598 218.655 84.5596C218.555 84.4548 218.382 84.3385 218.136 84.2109C217.89 84.0788 217.562 83.9261 217.151 83.7529C216.563 83.5068 216.131 83.279 215.853 83.0693C215.579 82.8597 215.379 82.6204 215.251 82.3516C215.128 82.0781 215.066 81.7432 215.066 81.3467C215.066 80.6676 215.328 80.1436 215.853 79.7744C216.381 79.4007 217.129 79.2139 218.095 79.2139C219.015 79.2139 219.911 79.4144 220.781 79.8154L220.152 81.3193C219.77 81.1553 219.412 81.0208 219.079 80.916C218.746 80.8112 218.407 80.7588 218.061 80.7588C217.445 80.7588 217.138 80.9251 217.138 81.2578C217.138 81.4447 217.236 81.6064 217.432 81.7432C217.632 81.8799 218.067 82.0827 218.737 82.3516C219.334 82.5931 219.772 82.8187 220.05 83.0283C220.328 83.238 220.533 83.4795 220.665 83.7529C220.797 84.0264 220.863 84.3522 220.863 84.7305ZM224.24 83.6846H222.572L222.224 77.0059H224.589L224.24 83.6846ZM222.196 86.0225C222.196 85.6396 222.299 85.3503 222.504 85.1543C222.709 84.9583 223.007 84.8604 223.399 84.8604C223.778 84.8604 224.069 84.9606 224.274 85.1611C224.484 85.3617 224.589 85.6488 224.589 86.0225C224.589 86.3825 224.484 86.6673 224.274 86.877C224.065 87.082 223.773 87.1846 223.399 87.1846C223.017 87.1846 222.72 87.0843 222.511 86.8838C222.301 86.6787 222.196 86.3916 222.196 86.0225Z" fill="#6480EB"/>
<defs>
<filter id="filter0_d" x="50.1641" y="0" width="215.523" height="163.368" filterUnits="userSpaceOnUse" color-interpolation-filters="sRGB">
<feFlood flood-opacity="0" result="BackgroundImageFix"/>
<feColorMatrix in="SourceAlpha" type="matrix" values="0 0 0 0 0 0 0 0 0 0 0 0 0 0 0 0 0 0 127 0"/>
<feOffset dy="10"/>
<feGaussianBlur stdDeviation="15"/>
<feColorMatrix type="matrix" values="0 0 0 0 0.392157 0 0 0 0 0.501961 0 0 0 0 0.921569 0 0 0 0.15 0"/>
<feBlend mode="normal" in2="BackgroundImageFix" result="effect1_dropShadow"/>
<feBlend mode="normal" in="SourceGraphic" in2="effect1_dropShadow" result="shape"/>
</filter>
</defs>
</svg>
