<svg width="130" height="130" viewBox="0 0 130 130" fill="none" xmlns="http://www.w3.org/2000/svg">
<g filter="url(#filter0_d)">
<circle cx="65" cy="59" r="50" fill="white"/>
</g>
<path fill-rule="evenodd" clip-rule="evenodd" d="M78.4667 56.584L41.9999 56.5855C40.8954 56.5855 40 57.4809 40 58.5855V59.4924C40 60.597 40.8954 61.4924 42 61.4924H78.4667V62.4852C78.4667 63.2027 79.1999 63.6867 79.8596 63.4048L87.8788 59.9779C88.6836 59.634 88.6896 58.4953 87.8884 58.143L79.8692 54.6167C79.2083 54.3261 78.4667 54.8102 78.4667 55.5321V56.584Z" stroke="#00D7AF" stroke-width="2"/>
<path d="M45.7217 48.7499V39.75C45.7217 38.6454 46.6171 37.75 47.7217 37.75H59.2368C60.3414 37.75 61.2368 38.6454 61.2368 39.75V39.8879C61.2368 40.9925 60.3414 41.8879 59.2368 41.8879H56.599M65.6246 37.75H81.0833C82.1878 37.75 83.0833 38.6454 83.0833 39.75V46.7499C83.0833 47.8545 82.1878 48.7499 81.0833 48.7499H72.821M50.2148 41.8879V46.7499C50.2148 47.8545 51.1102 48.7499 52.2148 48.7499H61.2368M65.6246 48.7499H66.9485C68.0531 48.7499 68.9485 47.8545 68.9485 46.7499V45.3707C68.9485 44.2661 69.8439 43.3707 70.9485 43.3707H78.348" stroke="#6480EB" stroke-width="2" stroke-linecap="round"/>
<path d="M64.4658 69.7537C65.018 69.7527 65.4649 69.3041 65.4638 68.7518C65.4627 68.1995 65.0141 67.7527 64.4618 67.7537L64.4658 69.7537ZM56.4288 75.2423C56.4299 75.7946 56.8785 76.2414 57.4308 76.2404C57.9831 76.2393 58.4299 75.7907 58.4288 75.2384L56.4288 75.2423ZM84.6939 67.1307C84.6927 66.5784 84.2441 66.1317 83.6918 66.1328C83.1395 66.134 82.6927 66.5826 82.6939 67.1349L84.6939 67.1307ZM83.7108 75.1896L84.7108 75.1876V75.1875L83.7108 75.1896ZM78.7067 80.1867L78.7083 81.1867L78.7086 81.1867L78.7067 80.1867ZM76.9529 80.1895L76.9513 79.1895L76.9508 79.1895L76.9529 80.1895ZM63.2244 74.2265C62.6722 74.2276 62.2253 74.6762 62.2264 75.2285C62.2276 75.7808 62.6762 76.2276 63.2285 76.2265L63.2244 74.2265ZM56.1901 80.2281L56.1881 79.228L56.178 79.2281L56.1901 80.2281ZM54.3628 79.2501C53.8105 79.2568 53.3683 79.7099 53.375 80.2621C53.3816 80.8144 53.8347 81.2566 54.387 81.2499L54.3628 79.2501ZM51.5992 67.1953C51.5981 66.643 51.1494 66.1962 50.5972 66.1973C50.0449 66.1985 49.5981 66.6471 49.5992 67.1994L51.5992 67.1953ZM46.7695 67.2036C46.7684 66.6514 46.3198 66.2046 45.7675 66.2057C45.2152 66.2068 44.7684 66.6555 44.7695 67.2077L46.7695 67.2036ZM73.2371 67.2057C73.2371 66.6534 72.7894 66.2057 72.2371 66.2057C71.6848 66.2057 71.2371 66.6534 71.2371 67.2057H73.2371ZM74.2413 80.1951L74.2392 79.1951L74.2413 80.1951ZM66.7115 75.2195L66.7135 76.2195L66.7115 75.2195ZM68.7155 77.215L69.7155 77.2127L68.7155 77.215ZM83.7167 78.177L82.7167 78.179L83.7167 78.177ZM66.7217 80.2072L66.7197 79.2072L66.7217 80.2072ZM57.4201 70.7676L56.4201 70.7695L57.4201 70.7676ZM64.4618 67.7537L59.4142 67.7637L59.4181 69.7637L64.4658 69.7537L64.4618 67.7537ZM56.4201 70.7695L56.4288 75.2423L58.4288 75.2384L58.4201 70.7656L56.4201 70.7695ZM82.6939 67.1349L82.7108 75.1917L84.7108 75.1875L84.6939 67.1307L82.6939 67.1349ZM82.7108 75.1915L82.7167 78.179L84.7167 78.175L84.7108 75.1876L82.7108 75.1915ZM81.7186 79.181L78.7048 79.1867L78.7086 81.1867L81.7224 81.181L81.7186 79.181ZM78.7051 79.1867L76.9513 79.1895L76.9545 81.1895L78.7083 81.1867L78.7051 79.1867ZM76.9508 79.1895L74.2392 79.1951L74.2433 81.1951L76.955 81.1895L76.9508 79.1895ZM63.2285 76.2265L66.7135 76.2195L66.7095 74.2195L63.2244 74.2265L63.2285 76.2265ZM67.7155 77.2173L67.7177 78.2049L69.7177 78.2004L69.7155 77.2127L67.7155 77.2173ZM66.7197 79.2072L56.1881 79.2281L56.1921 81.2281L66.7237 81.2072L66.7197 79.2072ZM56.178 79.2281L54.3628 79.2501L54.387 81.2499L56.2022 81.228L56.178 79.2281ZM49.5992 67.1994L49.6218 78.2431L51.6218 78.239L51.5992 67.1953L49.5992 67.1994ZM48.6236 79.2451L47.7939 79.2465L47.7974 81.2465L48.627 81.2451L48.6236 79.2451ZM46.7922 78.2486L46.7695 67.2036L44.7695 67.2077L44.7922 78.2527L46.7922 78.2486ZM73.2371 78.1951V67.2057H71.2371V78.1951H73.2371ZM49.6218 78.2431C49.623 78.7955 49.176 79.2442 48.6236 79.2451L48.627 81.2451C50.2843 81.2422 51.6252 79.8962 51.6218 78.239L49.6218 78.2431ZM74.2392 79.1951C73.6861 79.1962 73.2371 78.7482 73.2371 78.1951H71.2371C71.2371 79.8544 72.5841 81.1985 74.2433 81.1951L74.2392 79.1951ZM66.7135 76.2195C67.2657 76.2184 67.7142 76.6651 67.7155 77.2173L69.7155 77.2127C69.7117 75.5562 68.366 74.2162 66.7095 74.2195L66.7135 76.2195ZM47.7939 79.2465C47.2417 79.2475 46.7933 78.8008 46.7922 78.2486L44.7922 78.2527C44.7956 79.9092 46.1409 81.2494 47.7974 81.2465L47.7939 79.2465ZM82.7167 78.179C82.7178 78.7313 82.2709 79.1799 81.7186 79.181L81.7224 81.181C83.3793 81.1778 84.7199 79.832 84.7167 78.175L82.7167 78.179ZM67.7177 78.2049C67.719 78.7573 67.2721 79.2061 66.7197 79.2072L66.7237 81.2072C68.3808 81.2039 69.7215 79.8576 69.7177 78.2004L67.7177 78.2049ZM59.4142 67.7637C57.7573 67.7669 56.4168 69.1127 56.4201 70.7695L58.4201 70.7656C58.419 70.2133 58.8658 69.7648 59.4181 69.7637L59.4142 67.7637Z" fill="#6480EB"/>
<defs>
<filter id="filter0_d" x="0" y="0" width="130" height="130" filterUnits="userSpaceOnUse" color-interpolation-filters="sRGB">
<feFlood flood-opacity="0" result="BackgroundImageFix"/>
<feColorMatrix in="SourceAlpha" type="matrix" values="0 0 0 0 0 0 0 0 0 0 0 0 0 0 0 0 0 0 127 0"/>
<feOffset dy="6"/>
<feGaussianBlur stdDeviation="7.5"/>
<feColorMatrix type="matrix" values="0 0 0 0 0 0 0 0 0 0 0 0 0 0 0 0 0 0 0.05 0"/>
<feBlend mode="normal" in2="BackgroundImageFix" result="effect1_dropShadow"/>
<feBlend mode="normal" in="SourceGraphic" in2="effect1_dropShadow" result="shape"/>
</filter>
</defs>
</svg>
