<svg xmlns="http://www.w3.org/2000/svg" width="65" height="54" viewBox="0 0 65 54">
    <g fill="none" fill-rule="evenodd" stroke="#FFF" stroke-width="2">
        <path d="M47.024 24.741L1 24.742v4.275h46.024v2.185l13.8-4.294-13.8-4.418zM52.992 1H8.25C6.5 1 5.066 2.42 5.066 4.157v16.01h3.912V5.05H26.73v4.735h-5.307v1.697h7.258V5.051H51.73v10.733H39.987v1.854H51.73v2.529h4.447V4.157C56.177 2.42 54.744 1 52.992 1zM33.737 9.786v5.998H16.21V9.786h-2.09v7.852H26.73v2.529h1.95v-2.529h6.875v-6.155H46.31V9.786H33.737zM30.427 36.613l-.003-1.806-8.064.016.014 7.406 1.912-.003-.011-5.6 6.152-.013zm0 0l-.003-1.806-8.064.016.014 7.406 1.912-.003-.011-5.6 6.152-.013zm16.264-3.65l-2.007.005.02 9.219 2.006-.005-.019-9.219zm10.034-.019l-4.297.008.02 9.22.011 5.706-5.737.011-2.007.004-5.396.01-.011-5.705-.02-9.22-1.876.004.014 7.298-6.99.013.002 1.92 6.991-.012.013 5.707-15.055.029-5.92.01-.014-5.707-.017-9.219-1.877.005.03 14.926-5.526.01-.03-14.926-3.967.007.032 15.933c.003 1.728 1.455 3.14 3.225 3.135l45.222-.086c1.77-.004 3.216-1.42 3.213-3.148l-.033-15.933zm-26.298 3.669l-.003-1.806-8.064.016.014 7.406 1.912-.003-.011-5.6 6.152-.013z"/>
    </g>
</svg>
