<svg width="258" height="394" viewBox="0 0 258 394" fill="none" xmlns="http://www.w3.org/2000/svg">
<path d="M179.896 65.7906V59.9651C179.896 55.5395 180.885 51.8139 182.865 48.7882C184.844 45.7174 188.357 42.7369 193.404 39.8467C197.412 37.5436 200.282 35.4662 202.014 33.6147C203.795 31.7632 204.686 29.6407 204.686 27.2473C204.686 25.3506 203.746 23.8603 201.866 22.7765C199.985 21.6475 197.536 21.083 194.518 21.083C187.046 21.083 178.312 23.4991 168.317 28.3311L158 9.90614C170.321 3.49353 183.186 0.287231 196.596 0.287231C207.63 0.287231 216.29 2.50003 222.574 6.92563C228.858 11.3512 232 17.38 232 25.0119C232 30.4761 230.59 35.2179 227.769 39.237C224.998 43.211 220.545 46.9818 214.409 50.5494C209.214 53.6202 205.948 55.8782 204.612 57.3233C203.325 58.7232 202.682 60.3941 202.682 62.3359V65.7906H179.896ZM176.704 89.4992C176.704 85.3445 178.015 82.1382 180.638 79.8803C183.31 77.6223 187.219 76.4933 192.365 76.4933C197.313 76.4933 201.099 77.6449 203.721 79.948C206.393 82.206 207.729 85.3897 207.729 89.4992C207.729 93.6087 206.344 96.7924 203.573 99.0504C200.851 101.308 197.115 102.437 192.365 102.437C187.466 102.437 183.632 101.331 180.861 99.1181C178.09 96.8601 176.704 93.6538 176.704 89.4992Z" fill="#E2E6FB"/>
<path d="M131 393.902C178.496 393.902 217 387.777 217 380.222C217 372.666 178.496 366.541 131 366.541C83.5035 366.541 45 372.666 45 380.222C45 387.777 83.5035 393.902 131 393.902Z" fill="#E2E6FB"/>
<path d="M155.68 377.184L139.28 377.121L139.15 270.511H124.73L124.7 377.184H109.26V248.329H155.68V377.184Z" fill="#484FF5"/>
<path d="M153.6 263.479H146.62V375.616H153.6V263.479Z" fill="#5E62F6"/>
<path d="M121.41 173.486C97.5 173.641 91.5 201.915 89.5 201.915C86.5 201.915 70.5 183.674 70.5 183.674L60.5 190.97C60.5 190.97 84.5 218.332 89.5 218.332C92.39 218.332 97.13 213.918 101.5 209.211C104.7 205.764 107.08 202.444 107.5 202.827C108.5 203.739 107.5 271.231 107.5 271.231C107.5 271.231 113.82 272.727 121.5 269.407C130.12 265.677 132.5 263.935 132.5 263.935C132.5 263.935 140.25 268.413 145.5 270.319C154.59 273.612 158.5 271.231 158.5 271.231L157.68 201.359L157.83 228.246L168.26 228.091C168.26 228.091 170.25 224.735 170.25 219.928C170.25 194.336 170.24 173.933 147.31 173.933L121.41 173.486Z" fill="#63D4C8"/>
<path d="M143.6 166.354C143.6 166.354 144.27 176.925 142.24 181.284C140.44 185.151 136.36 187.431 133.41 187.431C130.23 187.431 124.83 186.054 122.51 181.731C120.25 177.517 121.5 166.181 121.5 166.181C121.5 166.181 127.55 168.88 132 168.88C136.45 168.889 143.6 166.354 143.6 166.354Z" fill="#D9DDFC"/>
<path d="M143.6 156.422C143.6 156.422 144.27 166.992 142.24 171.352C140.44 175.219 136.36 177.499 133.41 177.499C130.23 177.499 124.83 176.122 122.51 171.799C120.25 167.585 121.5 156.248 121.5 156.248C121.5 156.248 127.55 158.948 132 158.948C136.45 158.957 143.6 156.422 143.6 156.422Z" fill="#C9D0FB"/>
<path d="M132.99 204.907L130.5 201.322V189.146H135.25V201.35L132.99 204.907Z" fill="white" stroke="#6D6E71" stroke-width="3" stroke-miterlimit="10"/>
<path d="M150.9 174.152L135.92 192.338L132.98 189L129.58 192.603L113.61 174.681L121.16 172.665L132.99 186.109L143.71 172.647L150.9 174.152Z" fill="#5CABA5"/>
<path d="M111.64 189.402L113.6 183.254L107.25 177.217C107.25 177.217 108.92 175.903 110.77 175.283C112.62 174.663 114.77 174.289 114.77 174.289L133.5 199.179L111.64 189.402Z" fill="#5AC5BA"/>
<path d="M154.78 188.617L151.67 182.88L156.76 175.921C156.76 175.921 154.86 174.891 152.92 174.581C150.98 174.261 149.29 174.07 149.29 174.07L133.5 198.267L154.78 188.617Z" fill="#3EBEB1"/>
<path d="M132.99 194.318L129.23 191.892L132.99 188.59L136.15 191.892L132.99 194.318Z" fill="white" stroke="#6D6E71" stroke-width="3" stroke-miterlimit="10"/>
<path d="M153.63 214.83C153.63 214.83 149.68 220.192 148.67 220.192C147.66 220.192 143.71 214.83 143.71 214.83V207.898H153.64V214.83H153.63Z" fill="white" stroke="#6D6E71" stroke-width="3" stroke-miterlimit="10"/>
<path d="M152.18 214.219L148.94 217.848V209.494H152.18V214.219Z" fill="#8DE2D2"/>
<path d="M133 198.723H131V263.479H133V198.723Z" fill="#3EBEB1"/>
<path d="M124.78 374.895L115.14 374.831C115.14 374.831 105.87 370.244 101.66 374.083C98.6102 376.865 99.3702 383.395 99.3702 383.395H124.78V374.895Z" fill="#02065A"/>
<path d="M139.33 374.895L148.97 374.831C148.97 374.831 158.24 370.244 162.45 374.083C165.5 376.865 164.74 383.395 164.74 383.395H139.33V374.895Z" fill="#02065A"/>
<path d="M123.3 381.972H100.96C100.96 381.972 100.26 379.72 101.55 378.844C102.84 377.969 123.3 378.844 123.3 378.844V381.972Z" fill="#242883"/>
<path d="M140.81 381.972H163.15C163.15 381.972 163.85 379.72 162.56 378.844C161.26 377.969 140.81 378.844 140.81 378.844V381.972Z" fill="#242883"/>
<g filter="url(#filter0_d)">
<path d="M154.12 183.619H126.53C125.426 183.619 124.53 184.515 124.53 185.619V225.708C124.53 226.812 125.426 227.708 126.53 227.708H154.12C155.225 227.708 156.12 226.812 156.12 225.708V185.619C156.12 184.515 155.225 183.619 154.12 183.619Z" fill="white"/>
<path d="M148.49 180.673H131.34V186.447H148.49V180.673Z" fill="#D6DBFA"/>
</g>
<path d="M133.62 211.163C137.408 211.163 140.48 208.362 140.48 204.907C140.48 201.451 137.408 198.65 133.62 198.65C129.831 198.65 126.76 201.451 126.76 204.907C126.76 208.362 129.831 211.163 133.62 211.163Z" fill="#D9DDFC"/>
<path d="M163.95 230.928C159.74 231.903 134.4 211.163 134.4 211.163L140.31 203.529C140.31 203.529 148.44 207.661 156.12 212.385C163.06 216.654 169.63 221.415 169.52 224.069C169.33 228.456 168.14 229.961 163.95 230.928Z" fill="#63D4C8"/>
<path d="M64.9 192.895C68.6887 192.895 71.76 190.094 71.76 186.638C71.76 183.183 68.6887 180.381 64.9 180.381C61.1114 180.381 58.04 183.183 58.04 186.638C58.04 190.094 61.1114 192.895 64.9 192.895Z" fill="#D9DDFC"/>
<path d="M166.99 227.161C166.99 227.161 164.17 230.116 162.62 229.286C162 228.957 155.63 225.099 151.94 222.473C148.25 219.846 136.89 211.172 136.89 211.172C136.89 211.172 146.56 217.502 151.96 220.95C157.36 224.397 166.99 227.161 166.99 227.161Z" fill="#84EEE3"/>
<path d="M174.37 136.019C174.37 136.019 175.19 130.419 173.83 120.824C172.88 114.112 171 112.351 169.87 110.919C169.87 110.919 170.83 109.314 170.37 104.608C169.64 96.9923 165.66 89.6685 165.66 89.6685C161.58 92.6145 156.4 95.305 151.1 97.0379C145.96 94.9128 137.13 94.5206 131.12 94.5206C123.93 94.5206 117.18 96.2171 111.31 99.1995C104.6 102.601 98.8904 107.171 95.2004 113.318C92.0104 118.617 89.1304 130.2 90.9104 136.904L174.37 136.019Z" fill="#02065A"/>
<path d="M116.54 100.303C124.75 96.6821 136.45 98.2965 136.45 98.2965C136.45 98.2965 122.47 102.136 118.2 107.344C114.38 112.023 118.49 118.289 116.53 118.289C111.32 118.289 105.16 115.854 104.28 115.525C103.39 115.188 101.71 115.106 101.71 115.106C101.71 115.106 100.19 116.173 97.9703 119.356C97.4503 120.104 94.7803 126.506 94.7803 126.506H93.5503C93.5503 126.506 94.6103 122.211 96.2503 117.96C97.4103 114.941 99.6903 111.95 101.11 110.509C104.54 107.034 108.33 103.924 116.54 100.303Z" fill="#2B2F86"/>
<path d="M177 141.546C177 144.51 174.37 146.909 171.12 146.909C169.14 146.909 168.32 146.827 168.32 146.827C168.32 146.827 168 147.593 167.45 148.998C162.4 162.049 148.75 171.398 132.7 171.398C116.75 171.398 103.16 162.149 98.0402 149.207C97.6202 148.149 97.1302 146.772 97.1302 146.772C97.1302 146.772 94.8202 146.9 92.8702 146.9C89.6202 146.9 86.9902 144.501 86.9902 141.537C86.9902 138.573 89.6202 136.174 92.8702 136.174C94.4002 136.174 95.8602 136.174 95.8602 136.174C95.8602 136.174 95.8702 135.399 95.8902 134.998C95.9802 133.037 96.2502 132.499 96.6902 130.638C98.3802 123.551 103.24 118.717 103.24 118.717C103.24 118.717 120.44 123.332 132 123.396C142.89 123.46 160.22 117.96 160.22 117.96C160.22 117.96 165.54 122.794 168.13 129.762C168.54 130.857 168.95 132.216 169.2 133.411C169.33 134.04 169.52 136.183 169.52 136.183C169.52 136.183 169.56 136.183 171.11 136.183C174.37 136.183 177 138.582 177 141.546Z" fill="#D9DDFC"/>
<path d="M115.99 142.996C114.62 142.996 113.5 141.975 113.5 140.725V136.256C113.5 135.007 114.62 133.985 115.99 133.985C117.36 133.985 118.48 135.007 118.48 136.256V140.725C118.48 141.975 117.36 142.996 115.99 142.996Z" fill="#02065A"/>
<path d="M150.13 142.996C148.76 142.996 147.64 141.975 147.64 140.725V136.256C147.64 135.007 148.76 133.985 150.13 133.985C151.5 133.985 152.62 135.007 152.62 136.256V140.725C152.63 141.975 151.51 142.996 150.13 142.996Z" fill="#02065A"/>
<path d="M96.3101 137.077C96.3101 137.077 98.9101 136.739 100.75 136.739C102.24 136.739 103.81 137.424 103.81 137.424L105.84 132.106L96.3201 132.343L96.3101 137.077Z" fill="#02065A"/>
<path d="M169.32 136.913C169.32 136.913 167.87 136.484 165.97 136.484C164.07 136.484 162.97 137.743 162.97 137.743C162.97 137.743 163.34 136.356 161.84 134.423C160.34 132.489 158.01 131.349 158.01 131.349L168.71 132.106L169.32 136.913Z" fill="#02065A"/>
<path d="M137.99 138.737C137.99 138.737 135.5 136.037 133.75 136.037C131.99 136.037 129.67 138.418 129.67 138.418C129.67 138.418 130.3 137.205 129.86 135.198C129.41 133.192 128.26 132.106 128.26 132.106H139.46C139.46 132.106 138.49 132.991 137.82 134.925C137.15 136.849 137.99 138.737 137.99 138.737Z" fill="#02065A"/>
<path d="M138.22 139.22C140.06 144.756 141.62 149.654 152.29 149.654C159.24 149.654 162.69 144.893 162.69 139.22C162.69 133.547 162.16 130.601 150.11 130.601C138.06 130.601 136.22 133.192 138.22 139.22Z" stroke="#02065A" stroke-width="3" stroke-miterlimit="10"/>
<path d="M128.92 139.22C126.4 144.528 125.68 149.654 114.49 149.654C107.37 149.654 103.82 144.893 103.82 139.22C103.82 133.547 104.37 130.601 116.72 130.601C129.07 130.601 131.53 133.73 128.92 139.22Z" stroke="#02065A" stroke-width="3" stroke-miterlimit="10"/>
<path d="M125.71 156.923C126.49 158.063 127.87 161.21 134.07 161.21C140.27 161.21 141.02 157.735 142.48 157.06C143.84 156.431 144.36 157.553 142.28 159.787C140.89 161.283 137.68 162.651 134.07 162.651C127.46 162.651 124.05 158.747 124.05 157.516C124.05 156.285 125.06 155.984 125.71 156.923Z" fill="#02065A"/>
<path d="M132 234.293C133.657 234.293 135 233.068 135 231.557C135 230.046 133.657 228.821 132 228.821C130.343 228.821 129 230.046 129 231.557C129 233.068 130.343 234.293 132 234.293Z" fill="#3EBEB1"/>
<g filter="url(#filter1_d)">
<path fill-rule="evenodd" clip-rule="evenodd" d="M82.3742 167.75C81.3008 166.771 79.8801 166.281 78.4752 166.281C77.0546 166.281 75.6497 166.771 74.5921 167.735L66.8573 174.79L65.2945 176.215L62.7531 178.533C62.4402 178.818 62.4219 179.288 62.7291 179.576L62.705 179.598L57.4011 184.436L56.4382 185.314L53.9599 187.574L52.997 188.453L52.2393 189.144L51.2764 190.022L50.5187 190.713L49.5401 191.605L48.7824 192.297L47.8195 193.175L47.4406 193.52C47.0302 193.895 47.0302 194.499 47.4406 194.874L47.5511 194.974L47.5672 194.989L46.131 196.299L44 202.374L44.4262 202.763L51.1034 200.82L52.5244 199.51L52.634 199.61C53.0444 199.985 53.7074 199.985 54.1178 199.61L54.4966 199.265L55.4595 198.386L55.649 198.214L63.8889 190.684L69.3821 185.674L69.3983 185.659L69.3987 185.659C69.7144 185.933 70.2353 185.933 70.551 185.645L74.0238 182.478L74.6394 181.916L82.3742 174.862C83.053 174.243 83.5107 173.508 83.7633 172.717C84.3158 171.018 83.8422 169.088 82.3742 167.75Z" fill="white"/>
</g>
<path d="M48.7797 192.31L47.8086 193.196L54.4722 199.274L55.4432 198.388L48.7797 192.31Z" fill="#C9D0FB"/>
<path d="M50.5187 190.742L57.1485 196.803L56.2014 197.695L49.54 191.62L50.5187 190.742Z" fill="#C9D0FB"/>
<path d="M57.8904 196.083L51.2764 190.051L52.2393 189.158L58.9638 195.19L57.8904 196.083Z" fill="#C9D0FB"/>
<path d="M53.9543 187.593L52.9834 188.479L59.6479 194.556L60.6188 193.67L53.9543 187.593Z" fill="#C9D0FB"/>
<path d="M55.6962 186.011L54.7251 186.897L61.3887 192.974L62.3597 192.089L55.6962 186.011Z" fill="#C9D0FB"/>
<path d="M57.4222 184.444L56.4512 185.33L63.1147 191.407L64.0858 190.522L57.4222 184.444Z" fill="#C9D0FB"/>
<path d="M66.8415 174.804L70.0775 177.755L70.6931 178.317L71.4193 178.979L74.6395 181.931L74.0238 182.492L73.0767 183.356L72.5242 182.838L69.8565 180.405L68.5148 179.181L65.8471 176.748L65.2788 176.229L66.8415 174.804Z" fill="#BAC4F4"/>
<path d="M44.0016 202.372L44.4258 202.759L48.3994 199.135L47.9752 198.748L44.0016 202.372Z" fill="#63D4C8"/>
<path d="M47.7248 200.013C48.1607 200.013 48.5141 199.691 48.5141 199.293C48.5141 198.896 48.1607 198.573 47.7248 198.573C47.2889 198.573 46.9355 198.896 46.9355 199.293C46.9355 199.691 47.2889 200.013 47.7248 200.013Z" fill="#63D4C8"/>
<path d="M68.0096 180.865C68.3884 181.211 68.9883 181.211 69.3513 180.865L79.596 171.522C79.9748 171.176 79.9748 170.629 79.596 170.298C79.2171 169.952 78.6173 169.952 78.2542 170.298L68.0096 179.641C67.6465 179.973 67.6465 180.52 68.0096 180.865Z" fill="#EC5C8C"/>
<path d="M132 250.71C133.657 250.71 135 249.485 135 247.974C135 246.463 133.657 245.238 132 245.238C130.343 245.238 129 246.463 129 247.974C129 249.485 130.343 250.71 132 250.71Z" fill="#3EBEB1"/>
<path d="M22.2128 90.2085C22.2128 93.8655 18.808 97.6051 13.6064 97.6051C8.40487 97.6051 5 93.8655 5 90.2085C5 86.5514 8.40487 82.8118 13.6064 82.8118C18.808 82.8118 22.2128 86.5514 22.2128 90.2085Z" stroke="#D1F7F4" stroke-width="10"/>
<path d="M252.213 210.6C252.213 214.257 248.808 217.996 243.606 217.996C238.405 217.996 235 214.257 235 210.6C235 206.943 238.405 203.203 243.606 203.203C248.808 203.203 252.213 206.943 252.213 210.6Z" stroke="#FDF0C6" stroke-width="10"/>
<path d="M39.2128 280.828C39.2128 284.485 35.808 288.224 30.6064 288.224C25.4049 288.224 22 284.485 22 280.828C22 277.171 25.4049 273.431 30.6064 273.431C35.808 273.431 39.2128 277.171 39.2128 280.828Z" stroke="#F8D4E1" stroke-width="10"/>
<defs>
<filter id="filter0_d" x="109.53" y="171.673" width="61.59" height="77.0346" filterUnits="userSpaceOnUse" color-interpolation-filters="sRGB">
<feFlood flood-opacity="0" result="BackgroundImageFix"/>
<feColorMatrix in="SourceAlpha" type="matrix" values="0 0 0 0 0 0 0 0 0 0 0 0 0 0 0 0 0 0 127 0"/>
<feOffset dy="6"/>
<feGaussianBlur stdDeviation="7.5"/>
<feColorMatrix type="matrix" values="0 0 0 0 0 0 0 0 0 0.138341 0 0 0 0 0.864629 0 0 0 0.2 0"/>
<feBlend mode="normal" in2="BackgroundImageFix" result="effect1_dropShadow"/>
<feBlend mode="normal" in="SourceGraphic" in2="effect1_dropShadow" result="shape"/>
</filter>
<filter id="filter1_d" x="36" y="158.281" width="55.987" height="52.4822" filterUnits="userSpaceOnUse" color-interpolation-filters="sRGB">
<feFlood flood-opacity="0" result="BackgroundImageFix"/>
<feColorMatrix in="SourceAlpha" type="matrix" values="0 0 0 0 0 0 0 0 0 0 0 0 0 0 0 0 0 0 127 0"/>
<feOffset/>
<feGaussianBlur stdDeviation="4"/>
<feColorMatrix type="matrix" values="0 0 0 0 0 0 0 0 0 0.138341 0 0 0 0 0.864629 0 0 0 0.2 0"/>
<feBlend mode="normal" in2="BackgroundImageFix" result="effect1_dropShadow"/>
<feBlend mode="normal" in="SourceGraphic" in2="effect1_dropShadow" result="shape"/>
</filter>
</defs>
</svg>
