<svg width="522" height="409" viewBox="0 0 522 409" fill="none" xmlns="http://www.w3.org/2000/svg">
<path fill-rule="evenodd" clip-rule="evenodd" d="M493.232 380.195L443.898 341.046L439.411 337.486L429.667 329.753L382.409 265.553L329.764 274.27C329.748 274.273 327.546 335.665 328.549 354.469C328.724 357.75 328.994 359.766 329.393 359.899C329.54 359.948 329.929 359.891 330.467 359.767C334.58 358.82 349.389 353.135 364.664 347.074C367.553 345.928 370.451 344.77 373.302 343.628C389.455 337.152 403.874 331.21 403.874 331.21L391.884 320.098L350.88 330.648L356.551 298.114L365.504 295.428L409.672 336.618L426.1 348.484L430.152 351.41L479.759 387.24C479.759 387.24 482.211 393.747 484.28 397.11C488.145 403.391 493.901 410.379 496.068 408.476C499.406 405.545 499.266 402.207 499.1 400.429C498.793 397.139 497.928 394.673 495.956 391.165C495.351 390.089 495.313 390.026 493.568 387.098L505.77 391.186C506.28 391.357 506.658 390.707 506.258 390.349L493.232 380.195Z" fill="#6480EB"/>
<g filter="url(#filter0_d)">
<path d="M182 34C182 22.9543 190.954 14 202 14H282C293.046 14 302 22.9543 302 34V76.8403C302 87.886 293.046 96.8403 282 96.8403H259.766C257.7 96.8403 256.026 98.5149 256.026 100.58C256.026 103.447 252.935 105.248 250.441 103.834L240.491 98.1935C238.926 97.3065 237.159 96.8403 235.36 96.8403H202C190.954 96.8403 182 87.886 182 76.8403V34Z" fill="white"/>
</g>
<path d="M213.124 51H210.431L206.083 43.4395H206.021C206.108 44.7747 206.151 45.7272 206.151 46.2969V51H204.258V41.0059H206.931L211.271 48.4912H211.319C211.251 47.1924 211.217 46.2741 211.217 45.7363V41.0059H213.124V51ZM224.718 45.9893C224.718 47.6436 224.308 48.915 223.487 49.8037C222.667 50.6924 221.491 51.1367 219.96 51.1367C218.429 51.1367 217.253 50.6924 216.433 49.8037C215.612 48.915 215.202 47.639 215.202 45.9756C215.202 44.3122 215.612 43.043 216.433 42.168C217.257 41.2884 218.438 40.8486 219.974 40.8486C221.509 40.8486 222.683 41.2907 223.494 42.1748C224.31 43.0589 224.718 44.3304 224.718 45.9893ZM217.424 45.9893C217.424 47.1058 217.636 47.9466 218.06 48.5117C218.483 49.0768 219.117 49.3594 219.96 49.3594C221.651 49.3594 222.496 48.236 222.496 45.9893C222.496 43.738 221.655 42.6123 219.974 42.6123C219.131 42.6123 218.495 42.8971 218.066 43.4668C217.638 44.0319 217.424 44.8727 217.424 45.9893ZM236.523 51H234.11L232.757 45.75C232.707 45.5632 232.62 45.1781 232.497 44.5947C232.379 44.0068 232.31 43.6126 232.292 43.4121C232.265 43.6582 232.196 44.0547 232.087 44.6016C231.978 45.1439 231.893 45.5312 231.834 45.7637L230.487 51H228.081L225.531 41.0059H227.616L228.895 46.4609C229.118 47.4681 229.28 48.3408 229.38 49.0791C229.407 48.8193 229.469 48.4183 229.564 47.876C229.665 47.3291 229.758 46.9053 229.845 46.6045L231.301 41.0059H233.304L234.76 46.6045C234.824 46.8551 234.903 47.238 234.999 47.7529C235.095 48.2679 235.168 48.71 235.218 49.0791C235.263 48.7236 235.336 48.2816 235.437 47.7529C235.537 47.2197 235.628 46.7891 235.71 46.4609L236.981 41.0059H239.066L236.523 51ZM253.695 51H251.282L249.929 45.75C249.879 45.5632 249.792 45.1781 249.669 44.5947C249.55 44.0068 249.482 43.6126 249.464 43.4121C249.437 43.6582 249.368 44.0547 249.259 44.6016C249.149 45.1439 249.065 45.5312 249.006 45.7637L247.659 51H245.253L242.703 41.0059H244.788L246.066 46.4609C246.29 47.4681 246.451 48.3408 246.552 49.0791C246.579 48.8193 246.641 48.4183 246.736 47.876C246.837 47.3291 246.93 46.9053 247.017 46.6045L248.473 41.0059H250.476L251.932 46.6045C251.995 46.8551 252.075 47.238 252.171 47.7529C252.267 48.2679 252.34 48.71 252.39 49.0791C252.435 48.7236 252.508 48.2816 252.608 47.7529C252.709 47.2197 252.8 46.7891 252.882 46.4609L254.153 41.0059H256.238L253.695 51ZM257.496 51V41.0059H259.615V51H257.496ZM265.986 51H263.867V42.7695H261.153V41.0059H268.7V42.7695H265.986V51ZM278.428 51H276.315V46.6865H272.357V51H270.238V41.0059H272.357V44.9229H276.315V41.0059H278.428V51ZM208.503 61.626C207.705 61.626 207.088 61.9268 206.65 62.5283C206.213 63.1253 205.994 63.9593 205.994 65.0303C205.994 67.2588 206.83 68.373 208.503 68.373C209.205 68.373 210.055 68.1976 211.053 67.8467V69.624C210.232 69.9658 209.316 70.1367 208.305 70.1367C206.851 70.1367 205.739 69.6969 204.969 68.8174C204.199 67.9333 203.813 66.6663 203.813 65.0166C203.813 63.9775 204.003 63.0684 204.381 62.2891C204.759 61.5052 205.301 60.9059 206.008 60.4912C206.719 60.0719 207.55 59.8623 208.503 59.8623C209.474 59.8623 210.449 60.097 211.429 60.5664L210.745 62.2891C210.371 62.1113 209.995 61.9564 209.617 61.8242C209.239 61.6921 208.868 61.626 208.503 61.626ZM219.304 70L218.579 67.6211H214.936L214.211 70H211.928L215.455 59.9648H218.046L221.587 70H219.304ZM218.073 65.8438C217.403 63.6882 217.025 62.4691 216.938 62.1865C216.856 61.904 216.797 61.6807 216.761 61.5166C216.61 62.0999 216.18 63.5423 215.469 65.8438H218.073ZM228.751 67.2246C228.751 68.127 228.425 68.8379 227.773 69.3574C227.126 69.877 226.224 70.1367 225.066 70.1367C224 70.1367 223.057 69.9362 222.236 69.5352V67.5664C222.911 67.8672 223.48 68.0791 223.945 68.2021C224.415 68.3252 224.843 68.3867 225.23 68.3867C225.695 68.3867 226.051 68.2979 226.297 68.1201C226.548 67.9424 226.673 67.6781 226.673 67.3271C226.673 67.1312 226.618 66.958 226.509 66.8076C226.399 66.6527 226.238 66.5046 226.023 66.3633C225.814 66.222 225.383 65.9964 224.731 65.6865C224.121 65.3994 223.663 65.1237 223.357 64.8594C223.052 64.5951 222.808 64.2874 222.626 63.9365C222.444 63.5856 222.353 63.1755 222.353 62.7061C222.353 61.8219 222.651 61.127 223.248 60.6211C223.85 60.1152 224.679 59.8623 225.736 59.8623C226.256 59.8623 226.75 59.9238 227.22 60.0469C227.694 60.1699 228.188 60.3431 228.703 60.5664L228.02 62.2139C227.486 61.9951 227.044 61.8424 226.693 61.7559C226.347 61.6693 226.005 61.626 225.668 61.626C225.267 61.626 224.959 61.7194 224.745 61.9062C224.531 62.0931 224.424 62.3369 224.424 62.6377C224.424 62.8245 224.467 62.9886 224.554 63.1299C224.64 63.2666 224.777 63.401 224.964 63.5332C225.155 63.6608 225.604 63.8932 226.311 64.2305C227.245 64.6771 227.885 65.126 228.231 65.5771C228.578 66.0238 228.751 66.5729 228.751 67.2246ZM238.752 70H236.64V65.6865H232.682V70H230.562V60.0059H232.682V63.9229H236.64V60.0059H238.752V70ZM241.281 60.0059H244.392C245.809 60.0059 246.837 60.2087 247.475 60.6143C248.117 61.0153 248.438 61.6556 248.438 62.5352C248.438 63.1322 248.297 63.6221 248.015 64.0049C247.737 64.3877 247.365 64.6178 246.9 64.6953V64.7637C247.534 64.9049 247.99 65.1693 248.268 65.5566C248.55 65.944 248.691 66.459 248.691 67.1016C248.691 68.013 248.361 68.724 247.7 69.2344C247.044 69.7448 246.151 70 245.021 70H241.281V60.0059ZM243.4 63.9639H244.631C245.205 63.9639 245.62 63.875 245.875 63.6973C246.135 63.5195 246.265 63.2256 246.265 62.8154C246.265 62.4326 246.123 62.1592 245.841 61.9951C245.563 61.8265 245.121 61.7422 244.515 61.7422H243.4V63.9639ZM243.4 65.6455V68.25H244.781C245.365 68.25 245.795 68.1383 246.073 67.915C246.351 67.6917 246.49 67.3499 246.49 66.8896C246.49 66.0602 245.898 65.6455 244.713 65.6455H243.4ZM256.806 70L256.081 67.6211H252.438L251.713 70H249.43L252.957 59.9648H255.548L259.089 70H256.806ZM255.575 65.8438C254.905 63.6882 254.527 62.4691 254.44 62.1865C254.358 61.904 254.299 61.6807 254.263 61.5166C254.112 62.0999 253.682 63.5423 252.971 65.8438H255.575ZM264.599 61.626C263.801 61.626 263.184 61.9268 262.746 62.5283C262.309 63.1253 262.09 63.9593 262.09 65.0303C262.09 67.2588 262.926 68.373 264.599 68.373C265.3 68.373 266.15 68.1976 267.148 67.8467V69.624C266.328 69.9658 265.412 70.1367 264.4 70.1367C262.947 70.1367 261.835 69.6969 261.064 68.8174C260.294 67.9333 259.909 66.6663 259.909 65.0166C259.909 63.9775 260.098 63.0684 260.477 62.2891C260.855 61.5052 261.397 60.9059 262.104 60.4912C262.814 60.0719 263.646 59.8623 264.599 59.8623C265.569 59.8623 266.545 60.097 267.524 60.5664L266.841 62.2891C266.467 62.1113 266.091 61.9564 265.713 61.8242C265.335 61.6921 264.963 61.626 264.599 61.626ZM277.32 70H274.914L272.296 65.7891L271.4 66.4316V70H269.281V60.0059H271.4V64.5791L272.234 63.4033L274.941 60.0059H277.293L273.807 64.4287L277.32 70ZM280.164 66.6846H278.496L278.147 60.0059H280.513L280.164 66.6846ZM278.12 69.0225C278.12 68.6396 278.223 68.3503 278.428 68.1543C278.633 67.9583 278.931 67.8604 279.323 67.8604C279.701 67.8604 279.993 67.9606 280.198 68.1611C280.408 68.3617 280.513 68.6488 280.513 69.0225C280.513 69.3825 280.408 69.6673 280.198 69.877C279.989 70.082 279.697 70.1846 279.323 70.1846C278.94 70.1846 278.644 70.0843 278.435 69.8838C278.225 69.6787 278.12 69.3916 278.12 69.0225Z" fill="#6480EB"/>
<path fill-rule="evenodd" clip-rule="evenodd" d="M310.205 230.688L324.223 361.927C324.223 361.927 325.792 360.951 328.494 359.467C327.315 337.255 329.905 264.737 329.905 264.737L328.084 265.047C328.084 265.047 315.5 240.721 310.205 230.688Z" fill="#FF6560"/>
<path fill-rule="evenodd" clip-rule="evenodd" d="M521.798 365.585C521.798 365.585 518.128 334.292 505.384 310.666C498.544 297.984 464.514 266.178 435.832 240.594C435.344 241.966 434.856 243.23 434.436 244.398C432.843 248.643 431.349 252.267 430.004 255.32L489.063 324.075L521.798 365.585Z" fill="#FF6560"/>
<path fill-rule="evenodd" clip-rule="evenodd" d="M421.038 227.517C417.212 224.165 413.64 221.056 410.42 218.267C403.748 214.321 395.138 210.002 388.225 206.682L418.25 241.636C419.773 236.287 420.954 231.063 421.038 227.517Z" fill="#FF6560"/>
<path fill-rule="evenodd" clip-rule="evenodd" d="M489.063 324.074L430.003 255.32C426.056 264.28 423.401 268.273 423.401 268.273L423.357 268.25C423.797 269.372 424.038 270.581 424.038 271.856C424.038 277.286 419.62 281.706 414.19 281.706C408.739 281.706 404.343 277.286 404.343 271.856C404.343 267.459 407.222 263.744 411.201 262.468C411.675 261.256 415.508 251.259 418.249 241.635L388.225 206.681C381.411 203.409 376.249 201.109 376.249 201.109L375.701 199.275H375.701L376.248 201.109C376.248 201.109 378.723 220.336 378.817 230.214C378.899 238.995 382.813 265.281 382.813 265.281L329.765 274.269L382.409 265.553L429.667 329.753L439.412 337.485C444.082 333.523 449.164 329.835 455.631 327.862C472.041 322.854 489.063 324.074 489.063 324.074Z" fill="#CC5955"/>
<path fill-rule="evenodd" clip-rule="evenodd" d="M417.356 352.536C420.555 351.722 423.405 350.27 426.101 348.484L409.673 336.617L365.505 295.427L356.551 298.113L350.881 330.648L391.884 320.098L403.874 331.21C403.874 331.21 389.455 337.152 373.303 343.627C387.186 347.237 401.872 356.477 417.356 352.536Z" fill="#CC5955"/>
<path fill-rule="evenodd" clip-rule="evenodd" d="M215.607 106.155C216.025 105.078 216.245 103.913 216.245 102.704C216.245 97.2516 211.827 92.8545 206.397 92.8545C200.946 92.8545 196.549 97.2516 196.549 102.704C196.549 107.937 200.616 112.223 205.781 112.531C205.98 112.553 206.199 112.553 206.397 112.553C210.618 112.553 214.222 109.893 215.607 106.155Z" fill="#FBE2CA"/>
<path fill-rule="evenodd" clip-rule="evenodd" d="M284.783 120.232C286.749 120.232 288.616 120.233 288.616 120.233C288.616 120.233 288.631 119.142 288.655 118.583C288.767 115.824 289.114 115.07 289.684 112.452C291.845 102.484 298.084 95.6974 298.084 95.6974C298.084 95.6974 335.697 109.316 354.306 111.408C373.398 113.555 381.731 111.897 381.731 111.897C381.731 111.897 382.85 116.034 382.989 118.479C383.04 119.373 383.036 120.233 383.036 120.233C383.036 120.233 383.089 120.232 385.081 120.232C389.246 120.232 392.621 123.607 392.621 127.773C392.621 131.94 389.246 135.315 385.081 135.315C382.548 135.315 381.497 135.202 381.497 135.202C381.497 135.202 381.08 136.276 380.381 138.254C375.243 152.809 363.16 164.061 348.119 168.103C348.024 170.612 347.856 175.242 347.771 179.018L370.278 180.197L369.532 180.988C369.783 181.028 370.03 181.05 370.28 181.092L370.284 181.105C390.733 184.581 412.092 194.364 425.044 203.704L469.359 209.765C469.359 209.765 424.937 161.396 413.552 146.786C402.592 132.722 395.564 118.144 392.621 113.058C389.677 107.973 388.242 95.7271 387.191 91.368C381.569 68.0305 356.604 60.8252 334.068 60.8252C302.26 60.8252 279.295 87.3925 279.295 119.205C279.295 120.323 279.329 121.428 279.381 122.525C280.751 121.114 282.66 120.232 284.783 120.232Z" fill="#2C3652"/>
<path fill-rule="evenodd" clip-rule="evenodd" d="M291.408 138.558C290.869 137.065 290.241 135.128 290.241 135.128C290.241 135.128 287.283 135.315 284.783 135.315C283.408 135.315 282.137 134.92 281.028 134.278C285.98 155.077 301.298 170.045 322.76 173.513C322.632 171.017 322.49 168.895 322.41 167.777C308.013 163.511 296.473 152.593 291.408 138.558Z" fill="#2C3652"/>
<path fill-rule="evenodd" clip-rule="evenodd" d="M312.998 245.447C317.5 253.941 328.201 274.535 328.201 274.535L329.75 274.271L329.765 274.27L382.814 265.282C382.814 265.282 378.9 238.995 378.816 230.215C378.722 220.336 376.248 201.109 376.248 201.109L375.701 199.274L375.434 198.376L370.271 181.102C370.275 181.103 370.28 181.104 370.284 181.104L370.281 181.093C370.029 181.05 369.783 181.029 369.533 180.987L352.274 199.286H320.441L302.523 177.668C298.083 177.597 295.075 177.529 295.075 177.529L293.161 198.976L292.72 203.935C299.129 211.641 303.775 224.729 308.332 235.523C309.693 238.749 311.046 241.779 312.435 244.388C312.609 244.712 312.8 245.072 312.998 245.447Z" fill="#00D7AF"/>
<path fill-rule="evenodd" clip-rule="evenodd" d="M295.071 177.519C295.071 177.519 277.113 166.768 261.352 152.456C247.481 139.859 219.74 110.53 215.607 106.156C214.222 109.893 210.618 112.553 206.397 112.553C206.199 112.553 205.98 112.553 205.782 112.531C210.222 117.566 231.17 141.222 251.701 162.701C270.539 182.444 289.225 199.723 292.719 203.945L292.72 203.935L293.162 198.976L295.071 177.519Z" fill="#00D7AF"/>
<path fill-rule="evenodd" clip-rule="evenodd" d="M319.242 197.839C320.001 198.755 321.13 199.286 322.321 199.286H350.548C351.649 199.286 352.702 198.832 353.458 198.031L369.533 180.987L370.278 180.197L347.772 179.018C347.739 180.435 347.719 181.738 347.719 182.753C347.719 186.782 342.046 191.359 335.313 191.359C328.582 191.359 323.023 186.683 323.023 182.306C323.023 180.836 322.989 179.27 322.938 177.717L303.022 176.674C302.494 176.647 302.186 177.261 302.523 177.668L319.242 197.839Z" fill="#FF6560"/>
<path fill-rule="evenodd" clip-rule="evenodd" d="M323.023 182.305C323.023 186.682 328.581 191.359 335.314 191.359C342.046 191.359 347.719 186.782 347.719 182.752C347.719 181.737 347.74 180.435 347.771 179.018C347.856 175.242 347.992 170.612 348.089 168.103C344.168 169.157 340.09 169.747 335.837 169.747C331.168 169.747 326.669 169.039 322.411 167.777C322.491 168.895 322.632 171.017 322.76 173.513C322.828 174.84 322.891 176.27 322.939 177.717C322.99 179.269 323.023 180.837 323.023 182.305Z" fill="#FBE2CA"/>
<path fill-rule="evenodd" clip-rule="evenodd" d="M323.023 170.528C323.023 174.905 328.581 179.582 335.314 179.582C342.046 179.582 347.719 175.005 347.719 170.975C347.719 169.96 347.74 168.657 347.771 167.24C347.856 163.464 347.992 158.835 348.089 156.326C344.168 157.379 340.09 157.969 335.837 157.969C331.168 157.969 326.669 157.261 322.411 156C322.491 157.118 322.632 159.24 322.76 161.735C322.828 163.063 322.891 164.492 322.939 165.939C322.99 167.492 323.023 169.059 323.023 170.528Z" fill="#F1D4BA"/>
<path fill-rule="evenodd" clip-rule="evenodd" d="M306.811 120.478C307.257 120.994 307.833 121.63 308.528 122.326C308.794 122.591 309.121 122.631 309.414 122.61C309.752 121.252 310.977 120.233 312.436 120.233C314.152 120.233 315.558 121.638 315.558 123.354V129.496C315.558 131.214 314.152 132.618 312.436 132.618C310.719 132.618 309.315 131.214 309.315 129.496V125.386C308.956 125.081 308.554 124.73 308.258 124.434C307.599 123.774 307.356 122.976 306.875 122.114C306.395 121.252 306.122 119.677 306.811 120.478ZM320.988 146.314C323.438 145.742 324.377 153.295 333.875 153.295C343.374 153.295 344.166 146.739 346.134 145.742C347.796 144.902 349.23 146.894 349.23 148.967C349.23 151.04 344.008 157.595 333.875 157.595C328.342 157.595 323.758 154.979 321.289 152.783C317.909 149.78 318.42 146.912 320.988 146.314ZM352.094 123.354C352.094 121.638 353.5 120.233 355.216 120.233C356.675 120.233 357.899 121.251 358.237 122.609C358.492 122.601 358.757 122.549 358.98 122.326C359.675 121.63 360.253 120.994 360.697 120.478C361.387 119.677 361.115 121.252 360.634 122.114C360.154 122.976 359.911 123.774 359.251 124.434C358.993 124.691 358.658 124.987 358.338 125.262V129.496C358.338 131.214 356.934 132.618 355.216 132.618C353.5 132.618 352.094 131.214 352.094 129.496V123.354Z" fill="#FFC09C"/>
<path fill-rule="evenodd" clip-rule="evenodd" d="M392.626 127.767C392.626 131.943 389.241 135.308 385.087 135.308C382.558 135.308 381.503 135.197 381.503 135.197C381.503 135.197 381.086 136.274 380.382 138.254C375.239 152.808 363.149 164.064 348.113 168.109C344.201 169.164 340.09 169.757 335.825 169.757C331.166 169.757 326.659 169.032 322.416 167.779C308.019 163.514 296.478 152.587 291.401 138.561C290.873 137.066 290.235 135.132 290.235 135.132C290.235 135.132 287.29 135.308 284.784 135.308C283.399 135.308 282.146 134.912 281.025 134.274C278.783 132.977 277.244 130.558 277.244 127.767C277.244 125.721 278.058 123.875 279.376 122.534C280.761 121.105 282.651 120.226 284.784 120.226H288.609C288.609 120.226 288.631 119.148 288.652 118.576C288.763 115.828 289.114 115.06 289.686 112.443C291.84 102.484 298.083 95.6902 298.083 95.6902C298.083 95.6902 335.694 109.321 354.312 111.41C373.393 113.565 381.723 111.893 381.723 111.893C381.723 111.893 382.845 116.026 382.998 118.489C383.043 119.368 383.043 120.226 383.043 120.226H385.087C389.241 120.226 392.626 123.611 392.626 127.767Z" fill="#FBE2CA"/>
<path fill-rule="evenodd" clip-rule="evenodd" d="M355.216 132.618C356.934 132.618 358.338 131.213 358.338 129.496V125.262C358.659 124.987 358.993 124.691 359.251 124.434C359.91 123.774 360.154 122.976 360.634 122.114C361.115 121.253 361.387 119.676 360.698 120.478C360.253 120.994 359.676 121.63 358.98 122.326C358.757 122.549 358.492 122.601 358.237 122.608C357.899 121.25 356.675 120.233 355.216 120.233C353.499 120.233 352.094 121.637 352.094 123.355V129.496C352.094 131.213 353.499 132.618 355.216 132.618Z" fill="#2C3652"/>
<path fill-rule="evenodd" clip-rule="evenodd" d="M350.23 148.967C350.23 146.895 348.796 144.902 347.134 145.743C345.166 146.739 344.374 153.296 334.875 153.296C325.377 153.296 324.439 145.743 321.988 146.314C319.42 146.913 318.91 149.78 322.289 152.784C324.759 154.98 329.342 157.595 334.875 157.595C345.008 157.595 350.23 151.041 350.23 148.967Z" fill="#F7C79B"/>
<path fill-rule="evenodd" clip-rule="evenodd" d="M308.258 124.434C308.554 124.73 308.956 125.081 309.314 125.386V129.496C309.314 131.214 310.719 132.618 312.435 132.618C314.153 132.618 315.557 131.214 315.557 129.496V123.354C315.557 121.638 314.153 120.233 312.435 120.233C310.976 120.233 309.752 121.252 309.415 122.611C309.121 122.631 308.794 122.591 308.529 122.326C307.833 121.631 307.256 120.994 306.811 120.478C306.122 119.677 306.394 121.252 306.875 122.114C307.355 122.976 307.599 123.774 308.258 124.434Z" fill="#2C3652"/>
<path fill-rule="evenodd" clip-rule="evenodd" d="M57.2156 152.922H100.082L88.3464 208.996C76.6342 212.805 64.4303 214.709 51.7344 214.709C39.5069 214.709 30.0201 211.136 23.2739 203.988C16.5277 196.841 13.1547 186.708 13.1547 173.588C13.1547 161.033 15.7313 149.701 20.8847 139.591C26.038 129.481 33.1003 121.781 42.0719 116.491C51.0434 111.201 61.4788 108.556 73.3783 108.556C85.8401 108.556 96.334 111.071 104.86 116.103L94.5304 137.898C87.3626 133.666 80.1948 131.55 73.027 131.55C66.8429 131.55 61.3734 133.254 56.6183 136.663C51.8632 140.073 48.0685 145.116 45.2341 151.793C42.3998 158.47 40.9826 165.594 40.9826 173.165C40.9826 185.579 45.8783 191.786 55.6696 191.786C58.6211 191.786 61.7365 191.457 65.0159 190.798L68.5998 174.435H52.5074L57.2156 152.922ZM163.592 213.299H102.595L124.31 110.178H185.306L180.739 132.537H147.219L143.916 148.76H175.117L170.057 171.119H138.856L134.851 190.587H168.371L163.592 213.299ZM219.162 213.299H191.685L208.34 132.96H186.063L190.912 110.178H263.152L258.163 132.96H235.816L219.162 213.299Z" fill="#2C3652"/>
<path fill-rule="evenodd" clip-rule="evenodd" d="M41.3825 240.295C37.5478 240.295 34.086 241.685 30.9969 244.464C27.9078 247.244 25.4846 251.075 23.727 255.958C21.9694 260.84 21.0907 266.133 21.0907 271.835C21.0907 276.61 22.0848 280.174 24.0732 282.526C26.0616 284.878 28.9198 286.054 32.6479 286.054C35.595 286.054 38.5775 285.689 41.5955 284.958C44.6135 284.228 48.1641 282.989 52.2474 281.243V298.51C45.0396 301.717 37.2283 303.321 28.8133 303.321C19.5816 303.321 12.4716 300.675 7.48293 295.383C2.49428 290.09 0 282.597 0 272.904C0 263.424 1.80192 254.728 5.40582 246.817C9.00971 238.905 13.9095 232.936 20.1054 228.908C26.3012 224.881 33.3935 222.868 41.3825 222.868C50.7916 222.868 59.3308 225.202 67.0002 229.871L59.1178 246.175C55.8157 244.215 52.78 242.745 50.0105 241.765C47.241 240.785 44.365 240.295 41.3825 240.295ZM104.211 222.868C113.442 222.868 120.623 225.514 125.754 230.806C130.885 236.098 133.45 243.484 133.45 252.964C133.45 262.444 131.684 271.113 128.151 278.971C124.618 286.83 119.745 292.852 113.531 297.04C107.317 301.227 100.11 303.321 91.9078 303.321C82.3566 303.321 74.9802 300.666 69.7785 295.356C64.5769 290.046 61.9761 282.669 61.9761 273.225C61.9761 263.78 63.8046 255.103 67.4618 247.191C71.1189 239.279 76.0986 233.247 82.401 229.095C88.7034 224.944 95.9732 222.868 104.211 222.868ZM112.413 253.178C112.413 249.115 111.56 245.935 109.856 243.636C108.152 241.337 105.684 240.188 102.453 240.188C98.938 240.188 95.7069 241.685 92.7599 244.678C89.8129 247.672 87.4606 251.788 85.7031 257.027C83.9455 262.266 83.0667 267.629 83.0667 273.118C83.0667 281.742 86.6173 286.054 93.7186 286.054C97.0917 286.054 100.225 284.575 103.119 281.617C106.013 278.659 108.285 274.668 109.936 269.643C111.587 264.618 112.413 259.13 112.413 253.178ZM184.508 224.097H206.557L167.944 302.252H144.723L139.184 224.097H159.529L160.967 266.917V269.643C160.967 274.775 160.683 279.337 160.115 283.328H160.541C161.038 281.047 161.828 278.241 162.911 274.908C163.994 271.576 164.979 268.984 165.867 267.13L184.508 224.097ZM241.957 302.252H195.728L212.185 224.097H258.414L254.952 241.043H229.548L227.044 253.338H250.691L246.857 270.284H223.21L220.174 285.039H245.579L241.957 302.252ZM279.327 273.813L273.309 302.252H252.484L268.942 224.097H289.553C298.501 224.097 305.353 225.879 310.111 229.443C314.869 233.007 317.248 238.37 317.248 245.534C317.248 251.093 315.987 255.94 313.466 260.074C310.945 264.208 307.2 267.362 302.229 269.536L314.159 297.12L316.289 302.252H293.601L283.215 273.813H279.327ZM282.683 257.936H285.399C288.772 257.936 291.453 256.965 293.441 255.022C295.429 253.08 296.423 250.363 296.423 246.87C296.423 244.66 295.811 242.977 294.586 241.818C293.361 240.66 291.577 240.081 289.233 240.081H286.411L282.683 257.936ZM365.057 302.252H318.828L335.285 224.097H381.514L378.052 241.043H352.647L350.144 253.338H373.791L369.957 270.284H346.31L343.274 285.039H368.678L365.057 302.252ZM445.035 253.659C445.035 263.638 443.277 272.289 439.762 279.613C436.247 286.936 431.143 292.54 424.45 296.425C417.757 300.31 409.83 302.252 400.67 302.252H375.584L392.042 224.097H414.197C423.997 224.097 431.587 226.672 436.966 231.822C442.345 236.972 445.035 244.251 445.035 253.659ZM403.812 284.932C407.718 284.932 411.206 283.684 414.277 281.19C417.349 278.695 419.736 275.14 421.441 270.525C423.145 265.91 423.997 260.644 423.997 254.728C423.997 250.273 423.038 246.897 421.121 244.598C419.204 242.299 416.523 241.15 413.079 241.15H409.298L400.137 284.932H403.812Z" fill="#2C3652"/>
<path fill-rule="evenodd" clip-rule="evenodd" d="M279.206 273.813L273.188 302.252H252.363L268.82 224.097H289.432C298.379 224.097 305.232 225.879 309.99 229.443C314.748 233.007 317.126 238.37 317.126 245.534C317.126 251.093 315.866 255.94 313.345 260.074C310.824 264.208 307.078 267.362 302.107 269.536L314.037 297.12L316.168 302.252H293.479L283.094 273.813H279.206ZM282.561 257.936H285.277C288.651 257.936 291.331 256.965 293.32 255.022C295.308 253.08 296.302 250.363 296.302 246.87C296.302 244.66 295.69 242.977 294.465 241.818C293.24 240.66 291.456 240.081 289.112 240.081H286.289L282.561 257.936ZM364.936 302.252H318.707L335.164 224.097H381.393L377.931 241.043H352.526L350.023 253.338H373.67L369.835 270.284H346.188L343.153 285.039H368.557L364.936 302.252ZM444.913 253.659C444.913 263.638 443.156 272.289 439.641 279.613C436.125 286.936 431.021 292.54 424.329 296.425C417.636 300.31 409.709 302.252 400.548 302.252H375.463L391.92 224.097H414.076C423.876 224.097 431.465 226.672 436.844 231.822C442.224 236.972 444.913 244.251 444.913 253.659ZM403.691 284.932C407.596 284.932 411.085 283.684 414.156 281.19C417.227 278.695 419.615 275.14 421.319 270.525C423.024 265.91 423.876 260.644 423.876 254.728C423.876 250.273 422.917 246.897 421 244.598C419.082 242.299 416.402 241.15 412.958 241.15H409.176L400.016 284.932H403.691Z" fill="#2C3652"/>
<path fill-rule="evenodd" clip-rule="evenodd" d="M403.675 272.172C403.675 277.655 408.075 282.118 413.53 282.118C418.965 282.118 423.387 277.655 423.387 272.172C423.387 270.884 423.145 269.663 422.705 268.531C421.275 264.823 417.689 262.226 413.53 262.226C412.474 262.226 411.484 262.381 410.538 262.691C406.557 263.979 403.675 267.732 403.675 272.172Z" fill="#FBE2CA"/>
<path fill-rule="evenodd" clip-rule="evenodd" d="M370 181L375.166 198.41L375.434 199.315L375.982 201.164C375.982 201.164 381.148 203.482 387.966 206.78C394.883 210.127 403.5 214.48 410.176 218.457C416.316 222.113 420.812 225.448 420.812 227.376C420.812 227.505 420.804 227.646 420.801 227.78C420.717 231.354 419.535 236.618 418.011 242.009C415.267 251.708 411.431 261.783 410.957 263.005C411.903 262.695 412.893 262.541 413.948 262.541C418.106 262.541 421.691 265.133 423.121 268.833L423.165 268.856C423.165 268.856 425.822 264.831 429.773 255.801C431.119 252.724 432.614 249.072 434.208 244.792C434.628 243.616 435.117 242.343 435.605 240.96C437.575 235.391 439.534 227.963 436.891 217.117C435.997 213.425 431.534 208.662 424.81 203.779C411.848 194.366 390.476 184.506 370.013 181.002C370.009 181.002 370.004 181.001 370 181Z" fill="#00D7AF"/>
<defs>
<filter id="filter0_d" x="162" y="0" width="160" height="130.326" filterUnits="userSpaceOnUse" color-interpolation-filters="sRGB">
<feFlood flood-opacity="0" result="BackgroundImageFix"/>
<feColorMatrix in="SourceAlpha" type="matrix" values="0 0 0 0 0 0 0 0 0 0 0 0 0 0 0 0 0 0 127 0"/>
<feOffset dy="6"/>
<feGaussianBlur stdDeviation="10"/>
<feColorMatrix type="matrix" values="0 0 0 0 0 0 0 0 0 0 0 0 0 0 0 0 0 0 0.1 0"/>
<feBlend mode="normal" in2="BackgroundImageFix" result="effect1_dropShadow"/>
<feBlend mode="normal" in="SourceGraphic" in2="effect1_dropShadow" result="shape"/>
</filter>
</defs>
</svg>
