<svg width="342" height="201" viewBox="0 0 342 201" fill="none" xmlns="http://www.w3.org/2000/svg">
<g style="mix-blend-mode:multiply">
<path d="M172 200.841C254.843 200.841 322 195.689 322 189.333C322 182.978 254.843 177.825 172 177.825C89.1573 177.825 22 182.978 22 189.333C22 195.689 89.1573 200.841 172 200.841Z" fill="#E2E6FB"/>
</g>
<path d="M203.746 105.603C203.746 106.488 204.54 107.19 205.511 107.19H231.346C232.316 107.19 233.111 106.488 233.111 105.603C233.111 104.719 232.316 104.016 231.346 104.016H205.511C204.54 104.016 203.746 104.73 203.746 105.603Z" fill="#BAC4F4"/>
<path d="M105.555 105.78C106.121 106.459 107.182 106.491 107.927 105.869L127.775 89.3309C128.521 88.7094 128.681 87.6609 128.115 86.9815C127.549 86.3021 126.488 86.2705 125.743 86.892L105.895 103.43C105.149 104.052 104.996 105.109 105.555 105.78Z" fill="#BAC4F4"/>
<path d="M206.428 107.105C207.388 106.806 207.94 105.823 207.625 104.914L199.408 80.6194C199.106 79.6984 198.067 79.2005 197.094 79.4992C196.135 79.7855 195.583 80.7688 195.898 81.6898L204.115 105.985C204.43 106.893 205.469 107.404 206.428 107.105Z" fill="#BAC4F4"/>
<path d="M239.152 118.302H230.729V184.648H239.152V118.302Z" fill="#BAC4F4"/>
<path d="M122.535 118.302H114.112V184.648H122.535V118.302Z" fill="#BAC4F4"/>
<path d="M256.126 107.031H97.8105V118.83H256.126V107.031Z" fill="#E1E5FA"/>
<path d="M256.126 107.031H97.8105V112.532H256.126V107.031Z" fill="#E1E5FA"/>
<path d="M230.518 100.9C229.306 103.07 230.087 105.805 232.248 107.012C233.085 107.478 234.005 107.647 234.891 107.556C234.891 107.556 259.758 112.197 262.195 111.013C263.361 110.447 270.216 107.085 273.204 104.097C276.2 101.114 280.009 94.1829 280.009 94.1829C280.009 94.1829 281.191 91.6229 279.133 89.5582C277.074 87.4936 274.309 89.3032 274.309 89.3032C274.309 89.3032 272.584 92.1736 269.525 97.0147C267.137 100.801 260.243 103.526 259.485 103.807C257.763 104.445 238.264 100.74 238.264 100.74C237.875 100.099 237.327 99.5486 236.626 99.157C234.465 97.9498 231.73 98.7307 230.518 100.9Z" fill="#63D4C8"/>
<circle cx="234.522" cy="103.087" r="4.74436" transform="rotate(87.9709 234.522 103.087)" fill="#D9DDFC"/>
<path d="M271.966 143.46C282.59 142.954 282.084 135.24 282.084 131.445V123.857H268.805V133.975H252.769C245.813 135.24 245.809 140.298 245.809 142.195L246.672 178.24H254.26C254.26 167.911 254.598 145.735 254.662 144.725C254.753 143.29 258.687 144.092 271.966 143.46Z" fill="#484FF5"/>
<path d="M268.187 90.7617C268.187 88.0003 270.426 85.7617 273.187 85.7617H277.473C280.234 85.7617 282.473 88.0003 282.473 90.7617V130.206H268.187V90.7617Z" fill="#63D4C8"/>
<path d="M261.221 110.552C258.427 110.635 231.267 92.647 231.267 92.647L237.116 87.6189C237.116 87.6189 259.5 102.43 261.411 102.551C262.245 102.612 264.703 99.973 268.433 97.3964C273.21 94.1087 275.962 92.1137 275.962 92.1137C275.962 92.1137 279.297 91.573 280.47 94.413C281.643 97.253 279.53 99.1819 279.53 99.1819C279.53 99.1819 275.119 103.41 269.797 106.729C264.899 109.782 262.552 110.504 261.221 110.552Z" fill="#63D4C8"/>
<circle cx="233.212" cy="89.7018" r="4.42647" transform="rotate(5.98207 233.212 89.7018)" fill="#D9DDFC"/>
<path d="M254.334 176.656L249.312 176.616C249.312 176.616 244.479 174.021 242.284 176.189C240.698 177.76 241.089 181.458 241.089 181.458H254.334V176.656Z" fill="#02065A"/>
<path d="M253.313 180.436H242.164C242.164 180.436 241.812 179.126 242.461 178.617C243.11 178.109 253.313 178.617 253.313 178.617V180.436Z" fill="#242883"/>
<path d="M262.269 144.549L259.461 182.933" stroke="#BAC4F4" stroke-width="2" stroke-miterlimit="10" stroke-linecap="round"/>
<path d="M283.066 144.549L285.887 182.933" stroke="#BAC4F4" stroke-width="2" stroke-miterlimit="10" stroke-linecap="round"/>
<path d="M253.538 152.538H291.783V142.446C291.783 142.446 267.425 142.484 259.609 142.446C250.162 142.395 253.538 152.538 253.538 152.538Z" fill="#BAC4F4"/>
<path d="M291.759 142.674V83.4221C291.759 83.4221 283.993 81.9803 283.614 96.145C283.361 105.909 283.247 121.54 283.614 132.29C283.993 143.281 291.759 142.674 291.759 142.674Z" fill="#BAC4F4"/>
<path d="M288.312 152.485L291.132 190.857" stroke="#BAC4F4" stroke-width="2" stroke-miterlimit="10" stroke-linecap="round"/>
<path d="M257.428 152.485L254.621 190.857" stroke="#BAC4F4" stroke-width="2" stroke-miterlimit="10" stroke-linecap="round"/>
<path d="M81.3725 143.075C70.7489 142.569 71.2547 134.854 71.2548 131.06V123.472H84.5343V133.589H100.57C107.526 134.854 107.53 139.913 107.53 141.81L106.667 177.854H99.0784C99.0784 167.526 98.7412 145.349 98.6772 144.339C98.5862 142.904 94.6519 143.707 81.3725 143.075Z" fill="#3232C8"/>
<path d="M99.0747 177.92L104.097 177.88C104.097 177.88 108.93 175.286 111.125 177.454C112.711 179.024 112.321 182.723 112.321 182.723H99.0747V177.92Z" fill="#EC5C8C"/>
<path d="M100.096 181.701H111.245C111.245 181.701 111.597 180.391 110.948 179.882C110.299 179.374 100.096 179.882 100.096 179.882V181.701Z" fill="#ED86A8"/>
<path d="M81.8141 106.536C87.6927 109.56 107.296 103.237 107.296 103.237L103.134 98.9688C103.134 98.9688 85.0544 100.669 84.4811 100.205C83.9078 99.741 83.8075 96.4751 82.8374 92.4667C81.5925 87.3421 80.9315 84.3294 80.9315 84.3294C80.9315 84.3294 79.0499 81.9404 76.6466 83.1371C74.2432 84.3339 74.5161 86.9205 74.5161 86.9205C74.5161 86.9205 74.9917 92.4566 76.5745 97.9246C78.0315 102.961 80.9623 105.695 81.8141 106.536Z" fill="#F7C645"/>
<path d="M108.392 96.7994C110.17 98.1336 110.53 100.657 109.196 102.435C107.862 104.214 105.338 104.574 103.56 103.24C101.782 101.906 101.421 99.3822 102.756 97.6037C104.09 95.8253 106.613 95.4652 108.392 96.7994Z" fill="#D9DDFC"/>
<path d="M71.2056 88.3809C71.2056 85.6194 73.4441 83.3809 76.2056 83.3809H79.6976C82.4591 83.3809 84.6976 85.6194 84.6976 88.3809V127.825H71.2056V88.3809Z" fill="#F7C645"/>
<path d="M83.5341 110.97C90.8548 112.722 113.065 106.612 113.065 106.612L108.56 101.955C108.56 101.955 86.926 104.828 86.3259 104.342C85.7257 103.857 85.6208 100.438 84.6053 96.2417C83.3021 90.8771 82.6101 87.7234 82.6101 87.7234C82.6101 87.7234 80.6405 85.2226 78.1246 86.4753C75.6088 87.7281 75.8944 90.4358 75.8944 90.4358C75.8944 90.4358 76.3922 96.2311 78.0491 101.955C79.5743 107.227 82.6423 110.089 83.5341 110.97Z" fill="#F7C645"/>
<path d="M115.624 99.6016C117.604 101.086 118.004 103.895 116.52 105.874C115.035 107.853 112.227 108.254 110.247 106.769C108.268 105.284 107.867 102.476 109.352 100.497C110.837 98.5175 113.645 98.1167 115.624 99.6016Z" fill="#D9DDFC"/>
<path d="M101.747 63.2154C101.192 69.5281 97.8141 74.9095 92.9691 78.2304C92.6022 78.4845 92.2353 78.7197 91.8496 78.9454C88.3216 81.0434 84.1257 82.0877 79.7322 81.702C68.5556 80.7235 60.2767 70.8735 61.2551 59.6875C62.2335 48.5109 72.0835 40.2319 83.2695 41.2104C94.4555 42.1794 102.725 52.0389 101.747 63.2154Z" fill="#D9DDFC"/>
<path d="M94.3334 68.2768L94.2299 68.2674C93.4961 68.2016 92.9505 67.5524 93.0164 66.8186L93.261 64.0056C93.3268 63.2718 93.9759 62.7262 94.7097 62.792L94.8132 62.8014C95.547 62.8673 96.0927 63.5164 96.0268 64.2502L95.7822 67.0632C95.7164 67.7876 95.0672 68.3333 94.3334 68.2768Z" fill="#2025B9"/>
<path d="M92.48 77.6C92.1131 77.854 91.7462 78.0892 91.3605 78.315C88.5005 77.5435 87.1834 75.455 87.2398 74.7682C87.3057 73.9779 87.9171 73.8462 88.237 74.4766C88.6227 75.2198 89.2248 77.1672 92.48 77.6Z" fill="#2025B9"/>
<path d="M78.6699 67.2038C78.2841 67.3167 77.8796 67.3637 77.4562 67.3261C75.6593 67.1662 74.3233 65.5857 74.4833 63.7793C74.6432 61.9824 76.2238 60.6465 78.0301 60.8064C78.4534 60.8441 78.8486 60.957 79.2061 61.1357" fill="#C9D0FB"/>
<path d="M93.9756 63.5909L93.7028 65.67C93.7028 65.67 93.0819 65.0209 92.7526 64.5975C92.4234 64.1742 92.3481 63.6944 92.1317 63.1675C91.9247 62.6407 91.887 61.7187 92.2163 62.2267C92.4327 62.556 92.715 62.9605 93.063 63.4121C93.3735 63.8073 93.9756 63.5909 93.9756 63.5909Z" fill="#2025B9"/>
<path d="M99.3652 62.241C102.432 63.9138 102.432 61.2188 102.943 59.6855C102.943 47.4193 96.6025 38.9592 79.2043 38.9592C63.666 38.9592 59.5003 54.8096 59.5003 60.1965C58.4779 60.1965 57.967 61.9524 57.967 62.752C46.1099 62.3431 44.2216 70.6826 44.2216 75.4445C44.2216 79.6024 44.0433 83.9945 43.0396 86.4685C42.959 86.6673 43.2167 86.8958 43.395 86.7764C47.8548 83.7896 50.6394 81.6971 52.1581 76.635C53.3486 72.6667 55.241 67.8629 58.4779 66.3296C58.4779 67.508 58.9422 68.4367 59.6978 69.4921C60.4282 70.5125 61.3741 70.9294 62.0556 71.4405C67.6776 73.996 68.6997 67.3519 72.7885 62.241C76.8772 57.1301 93.7432 59.1744 99.3652 62.241Z" fill="#2025B9"/>
<path d="M82.7304 75.189C82.7304 75.189 84.2466 80.6489 83.9535 83.1114C83.6936 85.2937 81.9434 86.9397 80.7654 87.2078C79.4946 87.4914 77.5707 87.1786 76.1303 85.1306C74.7312 83.1349 73.8862 77.0933 73.8862 77.0933C73.8862 77.0933 76.57 77.727 78.3436 77.3248C80.1173 76.9225 82.7304 75.189 82.7304 75.189Z" fill="#D9DDFC"/>
<path d="M269.052 78.0164C269.052 78.0164 269.084 84.2781 270.111 86.7589C271.022 88.9524 273.315 90.0924 274.622 89.9645C276.021 89.8304 277.93 88.8285 278.817 86.1884C279.682 83.6061 278.789 76.9765 278.789 76.9765C278.789 76.9765 276.195 78.5616 274.231 78.7511C272.268 78.9405 269.052 78.0164 269.052 78.0164Z" fill="#D9DDFC"/>
<path d="M251.106 64.957C251.693 71.6308 255.266 77.3223 260.389 80.8373C260.775 81.0974 261.169 81.3478 261.574 81.5885C265.301 83.8035 269.74 84.911 274.392 84.5065C286.218 83.476 294.971 73.0465 293.941 61.2205C292.901 49.3945 282.481 40.6406 270.655 41.671C258.82 42.7015 250.075 53.131 251.106 64.957Z" fill="#D9DDFC"/>
<path d="M256.156 66.4981L256.81 66.5916C257.435 66.6786 258.013 66.2479 258.1 65.6228L258.608 62.0973C258.695 61.4722 258.264 60.8946 257.639 60.8076L256.986 60.714C256.361 60.6271 255.783 61.0577 255.696 61.6829L255.188 65.2083C255.103 65.824 255.543 66.4039 256.156 66.4981Z" fill="#02065A"/>
<path d="M256.095 76.6329C256.412 76.9754 256.74 77.3106 257.081 77.6386C260.224 77.5314 262.094 75.6956 262.194 74.9742C262.311 74.1375 261.722 73.8507 261.229 74.4302C260.664 75.1022 259.569 76.9805 256.095 76.6329Z" fill="#02065A"/>
<path d="M272.896 69.2297C273.263 69.4448 273.677 69.5817 274.119 69.6456C276.021 69.9225 277.779 68.6067 278.056 66.7053C278.333 64.8038 277.017 63.0454 275.116 62.7685C274.674 62.7047 274.231 62.73 273.822 62.8228" fill="#C9D0FB"/>
<path d="M250.566 51.5425C250.063 58.3068 254.366 56.8389 259.264 57.7639C263.593 58.5814 268.239 57.8514 276.26 59.7316C279.338 60.4532 285.458 65.6345 286.893 69.8044C288.5 74.4714 288.588 77.3895 288.588 77.3895C288.588 77.3895 293.089 75.6441 295.265 68.8153C297.01 63.3435 297.439 54.2604 291.63 47.2892C290.189 45.5604 288.365 43.9614 286.082 42.5797C282.424 40.3656 281.979 39.953 280.528 36.9059C280.528 36.9059 274.486 38.4399 271.345 39.1249C267.157 40.0381 263.473 40.6859 261.032 41.5402C255.12 43.6101 250.785 48.5713 250.566 51.5425Z" fill="#02065A"/>
<path d="M91.1968 144.549L94.0044 182.933" stroke="#BAC4F4" stroke-width="2" stroke-miterlimit="10" stroke-linecap="round"/>
<path d="M70.3989 144.549L67.5786 182.933" stroke="#BAC4F4" stroke-width="2" stroke-miterlimit="10" stroke-linecap="round"/>
<path d="M99.9268 152.538H61.6821V142.446C61.6821 142.446 86.0404 142.484 93.8563 142.446C103.304 142.395 99.9268 152.538 99.9268 152.538Z" fill="#BAC4F4"/>
<path d="M61.7065 142.674V83.4221C61.7065 83.4221 69.4718 81.9803 69.8513 96.145C70.1042 105.909 70.218 121.54 69.8513 132.29C69.4718 143.281 61.7065 142.674 61.7065 142.674Z" fill="#BAC4F4"/>
<path d="M65.1533 152.485L62.333 190.857" stroke="#BAC4F4" stroke-width="2" stroke-miterlimit="10" stroke-linecap="round"/>
<path d="M96.0371 152.485L98.8448 190.857" stroke="#BAC4F4" stroke-width="2" stroke-miterlimit="10" stroke-linecap="round"/>
<path d="M22.2128 100.592C22.2128 105.332 18.3646 109.184 13.6064 109.184C8.84822 109.184 5 105.332 5 100.592C5 95.8518 8.84822 92 13.6064 92C18.3646 92 22.2128 95.8518 22.2128 100.592Z" stroke="#D1F7F4" stroke-width="10"/>
<path d="M336.213 137.592C336.213 142.332 332.365 146.184 327.606 146.184C322.848 146.184 319 142.332 319 137.592C319 132.852 322.848 129 327.606 129C332.365 129 336.213 132.852 336.213 137.592Z" stroke="#FDF0C6" stroke-width="10"/>
<path d="M164.213 13.592C164.213 18.3322 160.365 22.184 155.606 22.184C150.848 22.184 147 18.3322 147 13.592C147 8.85176 150.848 5 155.606 5C160.365 5 164.213 8.85176 164.213 13.592Z" stroke="#F8D4E1" stroke-width="10"/>
</svg>
