<svg width="16" height="16" viewBox="0 0 16 16" fill="none" xmlns="http://www.w3.org/2000/svg">
<path d="M0.24702 0.324508C0.33406 0.0721877 0.606701 -0.0607727 0.855661 0.0270675C1.10478 0.114908 1.2363 0.390588 1.14958 0.642909C0.41374 2.77907 1.87438 4.37364 2.98719 5.22804L3.43791 4.57652C3.58863 4.35876 3.92719 4.17732 4.18975 4.17332L6.71408 4.18484C6.97648 4.18068 7.36768 4.30244 7.58288 4.45508L15.0203 9.72581C15.3805 9.98117 15.4682 10.4836 15.216 10.8484L11.8357 15.7345C11.5834 16.0993 11.1779 16.0556 10.8178 15.8004L3.38047 10.5298C3.16527 10.377 2.91887 10.0466 2.83231 9.79541L2.0419 7.27845C1.95582 7.02708 2.0083 6.6434 2.15918 6.42548L2.4339 6.02852C0.937741 4.8722 -0.614582 2.82643 0.24702 0.324508ZM3.70735 7.80933C4.28383 8.21765 5.07839 8.07573 5.48191 7.49253C5.88559 6.90884 5.74559 6.105 5.16879 5.6962C4.71135 5.37188 4.11711 5.39556 3.68943 5.71028C3.90479 5.84148 4.05247 5.917 4.08063 5.93044C4.31903 6.04436 4.42095 6.33236 4.30879 6.57364C4.22719 6.74884 4.05535 6.8514 3.87599 6.8514C3.80783 6.8514 3.73855 6.83636 3.67263 6.805C3.51935 6.73188 3.35439 6.64356 3.18239 6.54068C3.10479 7.01524 3.29183 7.51493 3.70735 7.80933Z" fill="#6480EB"/>
</svg>
