<svg width="94" height="90" viewBox="0 0 94 90" fill="none" xmlns="http://www.w3.org/2000/svg">
<g filter="url(#filter0_d)">
<ellipse cx="47" cy="39.1476" rx="32" ry="29.1857" fill="white"/>
</g>
<path fill-rule="evenodd" clip-rule="evenodd" d="M62.3396 47.051L47.4391 54.9539L32.5385 47.051V31.2445L47.4391 23.3416L62.3396 31.2445V47.051ZM63.4935 30.2244L47.8236 21.9133C47.5855 21.787 47.2926 21.787 47.0544 21.9133L31.3847 30.2244C31.1464 30.3507 31 30.584 31 30.8366V47.4588C31 47.7114 31.1464 47.9447 31.3847 48.071L47.0544 56.3821C47.1736 56.4453 47.3061 56.4767 47.4391 56.4767C47.572 56.4767 47.7047 56.4453 47.8237 56.3821L63.4936 48.071C63.7317 47.9447 63.8782 47.7113 63.8782 47.4588V30.8366C63.8781 30.584 63.7316 30.3508 63.4935 30.2244Z" fill="#6E7F95" stroke="#6E7F95" stroke-width="0.5"/>
<path fill-rule="evenodd" clip-rule="evenodd" d="M51.9718 31.8998C53.4784 31.8998 54.8951 32.4388 55.9604 33.4174C57.0261 34.3964 57.6127 35.6977 57.6127 37.0822C57.6127 38.4663 57.0261 39.7679 55.9604 40.7468L47.4377 48.5739L38.9181 40.7468C37.8525 39.7678 37.2658 38.4662 37.2658 37.0822C37.2658 35.6977 37.8525 34.3964 38.9181 33.4174C39.9833 32.4388 41.4002 31.8998 42.9067 31.8998C44.4133 31.8998 45.8301 32.4388 46.8954 33.4174C47.1959 33.6935 47.6827 33.6935 47.9832 33.4174C49.0484 32.4388 50.4652 31.8998 51.9718 31.8998ZM42.9067 30.4864C40.9889 30.4864 39.1863 31.1724 37.8303 32.4181C36.474 33.6638 35.7273 35.3202 35.7273 37.0822C35.7273 38.8441 36.474 40.5005 37.8303 41.7462L46.8938 50.0729C47.0441 50.2109 47.2409 50.2799 47.4377 50.2799C47.6346 50.2799 47.8314 50.2109 47.9816 50.0729L57.0481 41.7462C58.4044 40.5005 59.1512 38.8441 59.1512 37.0822C59.1512 35.3202 58.4044 33.6638 57.0481 32.4181C55.6922 31.1724 53.8896 30.4864 51.9717 30.4864C50.3003 30.4864 48.7163 31.0074 47.4392 31.966C46.1622 31.0074 44.5782 30.4864 42.9067 30.4864Z" fill="#6E7F95" stroke="#6E7F95" stroke-width="0.5"/>
<path fill-rule="evenodd" clip-rule="evenodd" d="M53.7836 39.7471C53.9339 39.8851 54.1311 39.9541 54.328 39.9541C54.5248 39.9541 54.7216 39.8851 54.8718 39.7474C55.6467 39.0355 56.0738 38.089 56.0738 37.082C56.0738 36.0751 55.6467 35.1285 54.8718 34.4166C54.5713 34.1413 54.0841 34.1409 53.7836 34.417C53.4835 34.6931 53.4835 35.1406 53.7841 35.4167C54.2686 35.8611 54.5352 36.4526 54.5352 37.082C54.5352 37.7114 54.2686 38.3029 53.7841 38.7473C53.4835 39.0235 53.4835 39.4711 53.7836 39.7471Z" fill="#6E7F95" stroke="#6E7F95" stroke-width="0.5"/>
<defs>
<filter id="filter0_d" x="0" y="0.961914" width="94" height="88.3715" filterUnits="userSpaceOnUse" color-interpolation-filters="sRGB">
<feFlood flood-opacity="0" result="BackgroundImageFix"/>
<feColorMatrix in="SourceAlpha" type="matrix" values="0 0 0 0 0 0 0 0 0 0 0 0 0 0 0 0 0 0 127 0"/>
<feOffset dy="6"/>
<feGaussianBlur stdDeviation="7.5"/>
<feColorMatrix type="matrix" values="0 0 0 0 0 0 0 0 0 0 0 0 0 0 0 0 0 0 0.05 0"/>
<feBlend mode="normal" in2="BackgroundImageFix" result="effect1_dropShadow"/>
<feBlend mode="normal" in="SourceGraphic" in2="effect1_dropShadow" result="shape"/>
</filter>
</defs>
</svg>
