<svg width="702" height="384" viewBox="0 0 702 384" fill="none" xmlns="http://www.w3.org/2000/svg">
<rect x="625.045" y="102" width="3" height="4" fill="white"/>
<rect x="350.045" y="41" width="3" height="4" fill="white"/>
<path d="M667.651 383.017C462.55 382.148 254.863 383.886 49.762 383.017C28 382.925 5.42998e-05 354 0 321C-6.41419e-05 282.019 57.9478 248.724 57.9478 248.724C74.3098 233.96 56.3172 211.164 72.8732 186.428C82.9105 171.431 100.967 161.744 117.649 160.315C146.885 157.808 159.023 181.757 172.127 175.609C193.239 165.709 163.877 102.562 198.247 57.7302C202.821 51.7617 214.758 36.1949 234.441 31.6178C266.706 24.116 282.721 54.7609 311.68 47.6583C336.564 41.5554 335.225 16.3531 367.277 4.7592C371.355 3.28571 391.706 -3.66021 413.546 2.52099C459.315 15.4728 455.307 70.1299 498.248 82.3506C523.102 89.4233 536.416 74.5206 564.666 87.9461C581.323 95.8619 591.181 107.93 594.89 112.566C617.972 141.436 604.685 160.699 622.875 186.428C644.129 216.487 673.047 205.437 684.069 231.938C693.233 253.969 674.405 264.403 682.577 297.219C688.808 322.246 702.808 328.416 700.86 345.341C698.819 363.086 681.215 375.56 667.651 383.017Z" fill="#F8F8FE"/>
<rect x="39.1191" y="380.994" width="625.512" height="2.31871" rx="1.15936" fill="#E2E6FB"/>
<path d="M265.894 336.814C266.261 336.072 267.32 336.072 267.687 336.814L268.969 339.408C269.115 339.703 269.396 339.907 269.721 339.955L272.572 340.371C273.393 340.49 273.72 341.5 273.124 342.078L271.058 344.084C270.821 344.314 270.713 344.645 270.769 344.97L271.258 347.819C271.398 348.636 270.54 349.259 269.806 348.873L267.257 347.529C266.965 347.375 266.616 347.375 266.324 347.529L263.77 348.875C263.037 349.261 262.18 348.64 262.318 347.823L262.802 344.968C262.857 344.644 262.749 344.314 262.514 344.085L260.452 342.077C259.858 341.499 260.185 340.491 261.005 340.371L263.86 339.955C264.185 339.907 264.466 339.703 264.612 339.408L265.894 336.814Z" fill="#D6DBFA"/>
<path d="M234.894 37.8141C235.261 37.0715 236.32 37.0715 236.687 37.8142L237.969 40.4083C238.115 40.703 238.396 40.9073 238.721 40.9548L241.58 41.3718C242.399 41.4913 242.727 42.4981 242.134 43.0767L240.067 45.0952C239.832 45.325 239.725 45.6559 239.78 45.9801L240.27 48.8251C240.41 49.6414 239.554 50.2647 238.82 49.8805L236.255 48.5373C235.964 48.385 235.617 48.3852 235.326 48.5378L232.773 49.8777C232.039 50.2628 231.183 49.6394 231.323 48.8227L231.812 45.981C231.868 45.6563 231.76 45.3249 231.524 45.0951L229.452 43.0772C228.858 42.499 229.185 41.4909 230.005 41.3713L232.86 40.9548C233.185 40.9073 233.466 40.703 233.612 40.4083L234.894 37.8141Z" fill="#D6DBFA"/>
<path d="M314.693 8.77661C314.142 7.66151 312.551 7.66301 312.002 8.77915L310.73 11.3656C310.657 11.5135 310.516 11.616 310.353 11.6397L307.489 12.0567C306.259 12.2358 305.768 13.7482 306.659 14.6157L308.731 16.633C308.849 16.7479 308.903 16.9136 308.875 17.076L308.386 19.9176C308.175 21.1427 309.461 22.0777 310.561 21.5001L313.114 20.1602C313.26 20.0839 313.433 20.0838 313.579 20.1599L316.144 21.5032C317.245 22.0795 318.529 21.1445 318.318 19.9201L317.829 17.075C317.801 16.9129 317.855 16.7475 317.972 16.6326L320.039 14.6141C320.928 13.7462 320.437 12.236 319.208 12.0567L316.349 11.6397C316.186 11.616 316.046 11.5138 315.973 11.3665L314.693 8.77661Z" fill="#3FC3A2" stroke="white"/>
<path d="M184.985 98.2116C185.352 97.469 186.411 97.469 186.778 98.2116L188.059 100.805C188.205 101.1 188.487 101.304 188.813 101.351L191.661 101.761C192.482 101.879 192.811 102.888 192.216 103.467L190.148 105.481C189.912 105.711 189.804 106.042 189.86 106.367L190.349 109.216C190.489 110.034 189.631 110.657 188.897 110.27L186.347 108.926C186.056 108.772 185.707 108.772 185.415 108.925L182.853 110.273C182.119 110.659 181.262 110.036 181.402 109.219L181.892 106.366C181.947 106.042 181.84 105.711 181.605 105.481L179.541 103.467C178.948 102.887 179.277 101.879 180.098 101.761L182.949 101.351C183.275 101.304 183.557 101.1 183.703 100.805L184.985 98.2116Z" fill="#D6DBFA"/>
<path d="M260.934 182.877L261.006 183.372L260.934 182.877C259.703 183.056 259.212 184.569 260.103 185.436L262.175 187.453C262.293 187.568 262.347 187.734 262.319 187.896L261.83 190.746C261.62 191.972 262.908 192.906 264.008 192.326L266.558 190.982C266.704 190.905 266.878 190.905 267.024 190.982L269.586 192.329C270.686 192.908 271.973 191.974 271.763 190.748L271.273 187.896C271.245 187.734 271.299 187.568 271.417 187.453L273.489 185.436C274.38 184.569 273.889 183.056 272.659 182.877L269.793 182.46C269.631 182.436 269.49 182.334 269.417 182.187L268.137 179.597C267.586 178.482 265.996 178.483 265.447 179.599L264.174 182.186C264.102 182.334 263.961 182.436 263.798 182.46L260.934 182.877Z" fill="#3FC3A2" stroke="white"/>
<path d="M539.687 178.814C539.32 178.072 538.261 178.072 537.894 178.814L536.612 181.408C536.466 181.703 536.185 181.907 535.86 181.955L533.005 182.371C532.185 182.491 531.858 183.499 532.452 184.077L534.514 186.085C534.749 186.314 534.857 186.644 534.802 186.968L534.318 189.823C534.18 190.64 535.037 191.261 535.77 190.875L538.324 189.529C538.616 189.375 538.965 189.375 539.257 189.529L541.811 190.875C542.544 191.261 543.401 190.64 543.263 189.823L542.779 186.968C542.724 186.644 542.832 186.314 543.067 186.085L545.129 184.077C545.723 183.499 545.396 182.491 544.576 182.371L541.721 181.955C541.396 181.907 541.115 181.703 540.969 181.408L539.687 178.814Z" fill="#D6DBFA"/>
<path d="M437.82 61.6454C437.271 60.5292 435.68 60.5277 435.129 61.6428L433.849 64.2327C433.776 64.38 433.636 64.4822 433.473 64.5059L430.615 64.9229C429.385 65.1022 428.894 66.6124 429.783 67.4804L431.85 69.4988C431.968 69.6137 432.021 69.7792 431.993 69.9413L431.504 72.7863C431.293 74.0107 432.577 74.9457 433.678 74.3694L436.244 73.0262C436.389 72.95 436.562 72.9501 436.708 73.0264L439.261 74.3663C440.362 74.9439 441.647 74.0089 441.436 72.7839L440.948 69.9422C440.92 69.7798 440.973 69.6141 441.091 69.4992L443.163 67.4819C444.054 66.6144 443.563 65.102 442.333 64.9229L439.469 64.5059C439.306 64.4822 439.165 64.3797 439.092 64.2318L437.82 61.6454Z" fill="#3FC3A2" stroke="white"/>
<path d="M397.523 16.7254C397.157 15.9813 396.097 15.9803 395.729 16.7237L394.45 19.3134C394.304 19.6082 394.023 19.8126 393.697 19.8599L390.832 20.277C390.012 20.3964 389.684 21.4047 390.278 21.983L392.35 24.0004C392.586 24.2302 392.694 24.5616 392.638 24.8863L392.149 27.7304C392.008 28.5467 392.864 29.17 393.598 28.7858L396.164 27.4426C396.454 27.2903 396.802 27.2905 397.092 27.443L399.645 28.7829C400.379 29.168 401.236 28.5447 401.095 27.728L400.607 24.8863C400.551 24.5616 400.659 24.2302 400.895 24.0004L402.966 21.983C403.56 21.4047 403.233 20.3964 402.413 20.277L399.549 19.8601C399.223 19.8126 398.941 19.6076 398.795 19.3119L397.523 16.7254Z" fill="#D6DBFA"/>
<path d="M477.135 203.593C476.585 202.479 474.996 202.479 474.446 203.593L473.164 206.186C473.091 206.333 472.95 206.436 472.787 206.459L469.936 206.869C468.705 207.046 468.212 208.558 469.101 209.427L471.165 211.443C471.283 211.557 471.336 211.722 471.309 211.884L470.825 214.74C470.617 215.965 471.904 216.897 473.003 216.317L475.557 214.971C475.703 214.894 475.878 214.894 476.024 214.971L478.577 216.317C479.677 216.897 480.964 215.965 480.756 214.74L480.272 211.884C480.244 211.722 480.298 211.557 480.416 211.443L482.48 209.427C483.369 208.558 482.876 207.046 481.645 206.869L478.794 206.459C478.631 206.436 478.49 206.333 478.417 206.186L477.135 203.593Z" fill="#3FC3A2" stroke="white"/>
<path d="M419.689 186.818C419.322 186.075 418.261 186.076 417.895 186.82L416.623 189.407C416.478 189.702 416.196 189.907 415.87 189.955L413.006 190.372C412.185 190.491 411.858 191.499 412.452 192.078L414.524 194.095C414.76 194.325 414.868 194.656 414.812 194.981L414.323 197.83C414.183 198.648 415.041 199.271 415.775 198.884L418.325 197.54C418.616 197.386 418.965 197.386 419.257 197.539L421.819 198.887C422.552 199.273 423.41 198.65 423.27 197.833L422.78 194.981C422.725 194.656 422.832 194.325 423.068 194.095L425.14 192.078C425.734 191.499 425.407 190.491 424.587 190.372L421.721 189.955C421.396 189.907 421.115 189.703 420.969 189.408L419.689 186.818Z" fill="#D6DBFA"/>
<g filter="url(#filter0_d)">
<path d="M251.57 137.139C267.901 137.139 281.139 123.901 281.139 107.57C281.139 91.2388 267.901 78 251.57 78C235.239 78 222 91.2388 222 107.57C222 123.901 235.239 137.139 251.57 137.139Z" fill="#E1E5FA"/>
<path d="M251.638 132.726C265.494 132.726 276.726 121.494 276.726 107.638C276.726 93.7814 265.494 82.5488 251.638 82.5488C237.781 82.5488 226.549 93.7814 226.549 107.638C226.549 121.494 237.781 132.726 251.638 132.726Z" fill="white"/>
<path d="M251.865 128.633C263.334 128.633 272.632 119.335 272.632 107.866C272.632 96.3963 263.334 87.0986 251.865 87.0986C240.395 87.0986 231.098 96.3963 231.098 107.866C231.098 119.335 240.395 128.633 251.865 128.633Z" fill="white"/>
<path d="M251.526 129.009C243.337 129.009 235.501 124.312 231.896 116.385C229.519 111.154 229.326 105.308 231.35 99.9286C233.375 94.5492 237.366 90.273 242.598 87.896C247.83 85.5191 253.675 85.3257 259.055 87.3501C264.434 89.3745 268.71 93.3664 271.087 98.598C273.464 103.83 273.657 109.675 271.633 115.055C269.609 120.434 265.617 124.71 260.385 127.087C257.508 128.384 254.494 129.009 251.526 129.009ZM251.48 87.4639C248.66 87.4639 245.862 88.0666 243.212 89.2608C238.344 91.4671 234.626 95.4477 232.749 100.452C230.872 105.456 231.054 110.892 233.261 115.76C237.821 125.813 249.706 130.272 259.76 125.711C264.627 123.505 268.346 119.524 270.223 114.52C272.099 109.516 271.917 104.08 269.711 99.2121C267.505 94.3445 263.524 90.6255 258.52 88.749C256.234 87.896 253.857 87.4639 251.48 87.4639Z" fill="#2CC6A1"/>
<path d="M263.217 98.4717H239.922C238.817 98.4717 237.922 99.3671 237.922 100.472V114.236C237.922 115.341 238.817 116.236 239.922 116.236H263.217C264.322 116.236 265.217 115.341 265.217 114.236V100.472C265.217 99.3671 264.322 98.4717 263.217 98.4717Z" fill="white" stroke="#BAC4F4" stroke-width="2"/>
<path d="M264.08 99.6084H239.06V106.432H264.08V99.6084Z" fill="#8DE2D2"/>
<path d="M253.477 112.801C253.049 112.781 252.637 112.686 252.24 112.514V111.541C252.467 111.656 252.713 111.753 252.979 111.831C253.244 111.907 253.478 111.945 253.679 111.945C253.845 111.945 253.966 111.926 254.042 111.887C254.12 111.846 254.159 111.778 254.159 111.685C254.159 111.62 254.131 111.565 254.074 111.521C254.02 111.476 253.927 111.425 253.796 111.368C253.667 111.312 253.492 111.243 253.271 111.163C253.023 111.071 252.823 110.969 252.671 110.855C252.519 110.74 252.407 110.612 252.337 110.472C252.269 110.329 252.234 110.152 252.234 109.941C252.234 109.619 252.338 109.367 252.545 109.186C252.752 109.004 253.062 108.892 253.477 108.849V108.447H254.083V108.843C254.472 108.864 254.863 108.96 255.258 109.13L254.909 109.965C254.501 109.781 254.133 109.689 253.805 109.689C253.648 109.689 253.538 109.709 253.474 109.748C253.411 109.785 253.38 109.841 253.38 109.915C253.38 109.979 253.402 110.033 253.447 110.076C253.494 110.117 253.574 110.164 253.688 110.217C253.801 110.268 253.958 110.327 254.159 110.396C254.567 110.54 254.86 110.705 255.038 110.891C255.216 111.074 255.305 111.312 255.305 111.603C255.305 111.931 255.2 112.197 254.991 112.402C254.784 112.607 254.481 112.734 254.083 112.783V113.349H253.477V112.801ZM256.992 112.801C256.564 112.781 256.152 112.686 255.756 112.514V111.541C255.982 111.656 256.229 111.753 256.494 111.831C256.76 111.907 256.993 111.945 257.194 111.945C257.36 111.945 257.481 111.926 257.558 111.887C257.636 111.846 257.675 111.778 257.675 111.685C257.675 111.62 257.646 111.565 257.59 111.521C257.535 111.476 257.442 111.425 257.312 111.368C257.183 111.312 257.008 111.243 256.787 111.163C256.539 111.071 256.339 110.969 256.187 110.855C256.034 110.74 255.923 110.612 255.853 110.472C255.784 110.329 255.75 110.152 255.75 109.941C255.75 109.619 255.854 109.367 256.061 109.186C256.268 109.004 256.578 108.892 256.992 108.849V108.447H257.599V108.843C257.987 108.864 258.379 108.96 258.773 109.13L258.425 109.965C258.017 109.781 257.648 109.689 257.32 109.689C257.164 109.689 257.054 109.709 256.989 109.748C256.927 109.785 256.896 109.841 256.896 109.915C256.896 109.979 256.918 110.033 256.963 110.076C257.01 110.117 257.09 110.164 257.203 110.217C257.316 110.268 257.474 110.327 257.675 110.396C258.083 110.54 258.376 110.705 258.554 110.891C258.731 111.074 258.82 111.312 258.82 111.603C258.82 111.931 258.716 112.197 258.507 112.402C258.3 112.607 257.997 112.734 257.599 112.783V113.349H256.992V112.801ZM260.508 112.801C260.08 112.781 259.668 112.686 259.271 112.514V111.541C259.498 111.656 259.744 111.753 260.01 111.831C260.275 111.907 260.509 111.945 260.71 111.945C260.876 111.945 260.997 111.926 261.073 111.887C261.151 111.846 261.19 111.778 261.19 111.685C261.19 111.62 261.162 111.565 261.105 111.521C261.051 111.476 260.958 111.425 260.827 111.368C260.698 111.312 260.523 111.243 260.303 111.163C260.055 111.071 259.854 110.969 259.702 110.855C259.55 110.74 259.438 110.612 259.368 110.472C259.3 110.329 259.266 110.152 259.266 109.941C259.266 109.619 259.369 109.367 259.576 109.186C259.783 109.004 260.094 108.892 260.508 108.849V108.447H261.114V108.843C261.503 108.864 261.895 108.96 262.289 109.13L261.94 109.965C261.532 109.781 261.164 109.689 260.836 109.689C260.68 109.689 260.569 109.709 260.505 109.748C260.442 109.785 260.411 109.841 260.411 109.915C260.411 109.979 260.434 110.033 260.479 110.076C260.525 110.117 260.605 110.164 260.719 110.217C260.832 110.268 260.989 110.327 261.19 110.396C261.599 110.54 261.892 110.705 262.069 110.891C262.247 111.074 262.336 111.312 262.336 111.603C262.336 111.931 262.231 112.197 262.022 112.402C261.815 112.607 261.513 112.734 261.114 112.783V113.349H260.508V112.801Z" fill="#BAC4F4"/>
</g>
<g filter="url(#filter1_d)">
<path d="M623.922 294.529C646.222 290.789 661.269 269.679 657.529 247.379C653.789 225.078 632.679 210.032 610.379 213.771C588.078 217.511 573.032 238.621 576.772 260.922C580.511 283.222 601.621 298.269 623.922 294.529Z" fill="#E1E5FA"/>
<path d="M623.005 288.487C641.926 285.314 654.692 267.403 651.519 248.482C648.346 229.561 630.435 216.794 611.514 219.967C592.593 223.141 579.826 241.052 582.999 259.973C586.172 278.894 604.083 291.66 623.005 288.487Z" fill="white"/>
<path d="M622.378 282.845C638.039 280.218 648.607 265.392 645.98 249.731C643.354 234.069 628.528 223.502 612.866 226.128C597.204 228.755 586.637 243.58 589.264 259.242C591.89 274.904 606.716 285.471 622.378 282.845Z" fill="white"/>
<path d="M622 283.437C610.819 285.312 599.043 280.692 592.304 270.693C587.86 264.094 586.258 256.156 587.79 248.346C589.322 240.537 593.794 233.783 600.394 229.339C606.994 224.895 614.932 223.293 622.741 224.825C630.551 226.358 637.304 230.83 641.748 237.429C646.192 244.029 647.795 251.967 646.262 259.776C644.73 267.586 640.258 274.339 633.658 278.783C630.026 281.213 626.054 282.757 622 283.437ZM612.424 226.715C608.573 227.361 604.89 228.825 601.545 231.062C595.403 235.19 591.237 241.477 589.82 248.74C588.403 256.003 589.897 263.385 594.024 269.527C602.554 282.211 619.805 285.577 632.489 277.047C638.631 272.92 642.797 266.633 644.214 259.369C645.631 252.106 644.137 244.725 640.01 238.583C635.882 232.441 629.595 228.274 622.332 226.858C619.015 226.217 615.67 226.171 612.424 226.715Z" fill="#2CC6A1"/>
<path d="M630.757 239.095L599.377 244.358C597.75 244.63 596.652 246.172 596.925 247.8L600.004 266.161C600.277 267.79 601.818 268.889 603.445 268.616L634.826 263.353C636.453 263.08 637.55 261.539 637.277 259.91L634.198 241.55C633.925 239.921 632.384 238.822 630.757 239.095Z" fill="white" stroke="#BAC4F4" stroke-width="2"/>
<path d="M632.411 240.414L598.244 246.144L599.807 255.462L633.973 249.732L632.411 240.414Z" fill="#8DE2D2"/>
<path d="M622.183 260.63C621.618 260.698 621.058 260.663 620.501 260.525L620.287 259.25C620.609 259.352 620.952 259.424 621.317 259.468C621.682 259.51 621.996 259.509 622.259 259.464C622.477 259.428 622.631 259.376 622.722 259.308C622.815 259.237 622.852 259.14 622.831 259.017C622.817 258.933 622.768 258.867 622.684 258.821C622.602 258.774 622.47 258.728 622.286 258.682C622.105 258.636 621.861 258.585 621.554 258.529C621.209 258.463 620.924 258.372 620.7 258.257C620.475 258.14 620.301 257.997 620.179 257.828C620.058 257.656 619.974 257.432 619.928 257.155C619.857 256.733 619.937 256.38 620.168 256.097C620.399 255.813 620.781 255.598 621.314 255.451L621.226 254.925L622.02 254.791L622.107 255.31C622.62 255.253 623.154 255.292 623.708 255.428L623.435 256.599C622.86 256.448 622.358 256.408 621.928 256.48C621.724 256.515 621.584 256.565 621.508 256.63C621.434 256.692 621.405 256.772 621.422 256.869C621.436 256.954 621.477 257.019 621.545 257.066C621.616 257.109 621.731 257.153 621.891 257.197C622.05 257.239 622.269 257.282 622.548 257.328C623.114 257.428 623.534 257.58 623.807 257.784C624.08 257.985 624.249 258.277 624.313 258.658C624.385 259.088 624.307 259.461 624.078 259.775C623.852 260.089 623.484 260.322 622.973 260.474L623.097 261.215L622.303 261.348L622.183 260.63ZM626.785 259.858C626.221 259.926 625.661 259.891 625.104 259.753L624.89 258.479C625.212 258.58 625.555 258.652 625.92 258.697C626.285 258.738 626.599 258.737 626.862 258.693C627.079 258.656 627.234 258.604 627.325 258.536C627.418 258.465 627.454 258.368 627.434 258.245C627.42 258.161 627.371 258.095 627.287 258.049C627.205 258.002 627.072 257.956 626.889 257.91C626.707 257.865 626.464 257.813 626.157 257.757C625.812 257.691 625.527 257.601 625.303 257.486C625.078 257.368 624.904 257.225 624.781 257.056C624.661 256.884 624.577 256.66 624.531 256.383C624.46 255.961 624.54 255.608 624.771 255.325C625.002 255.041 625.384 254.826 625.917 254.679L625.829 254.153L626.623 254.019L626.71 254.538C627.223 254.481 627.757 254.52 628.311 254.656L628.038 255.827C627.463 255.676 626.961 255.636 626.531 255.708C626.327 255.743 626.186 255.793 626.111 255.858C626.037 255.92 626.008 256 626.025 256.097C626.039 256.182 626.08 256.247 626.148 256.294C626.219 256.337 626.334 256.381 626.494 256.425C626.653 256.467 626.872 256.511 627.151 256.556C627.717 256.656 628.137 256.808 628.41 257.012C628.683 257.213 628.852 257.505 628.916 257.886C628.988 258.316 628.909 258.689 628.681 259.003C628.455 259.318 628.086 259.55 627.576 259.702L627.7 260.443L626.906 260.576L626.785 259.858ZM631.388 259.086C630.824 259.154 630.263 259.12 629.707 258.981L629.493 257.707C629.815 257.808 630.158 257.881 630.523 257.925C630.888 257.966 631.202 257.965 631.465 257.921C631.682 257.884 631.837 257.832 631.928 257.764C632.021 257.693 632.057 257.596 632.037 257.473C632.023 257.389 631.973 257.323 631.889 257.277C631.808 257.23 631.675 257.184 631.492 257.139C631.31 257.093 631.066 257.041 630.76 256.985C630.415 256.919 630.13 256.829 629.906 256.714C629.681 256.596 629.507 256.453 629.384 256.284C629.263 256.112 629.18 255.888 629.134 255.612C629.063 255.189 629.143 254.836 629.374 254.553C629.605 254.269 629.987 254.054 630.52 253.907L630.432 253.381L631.226 253.248L631.312 253.766C631.826 253.709 632.36 253.748 632.914 253.884L632.641 255.055C632.066 254.904 631.564 254.865 631.134 254.937C630.93 254.971 630.789 255.021 630.714 255.086C630.64 255.148 630.611 255.228 630.628 255.325C630.642 255.41 630.683 255.475 630.751 255.522C630.822 255.565 630.937 255.609 631.097 255.653C631.256 255.695 631.475 255.739 631.753 255.784C632.32 255.884 632.739 256.036 633.013 256.24C633.286 256.442 633.455 256.733 633.518 257.114C633.591 257.544 633.512 257.917 633.284 258.231C633.058 258.546 632.689 258.778 632.178 258.93L632.303 259.671L631.509 259.804L631.388 259.086Z" fill="#BAC4F4"/>
</g>
<g filter="url(#filter2_d)">
<path d="M162.02 193.041C175.839 193.041 187.041 181.839 187.041 168.02C187.041 154.202 175.839 143 162.02 143C148.202 143 137 154.202 137 168.02C137 181.839 148.202 193.041 162.02 193.041Z" fill="#E1E5FA"/>
<path d="M162.021 189.629C173.955 189.629 183.629 179.955 183.629 168.021C183.629 156.087 173.955 146.412 162.021 146.412C150.087 146.412 140.412 156.087 140.412 168.021C140.412 179.955 150.087 189.629 162.021 189.629Z" fill="white"/>
<path d="M162.021 186.218C172.071 186.218 180.218 178.071 180.218 168.021C180.218 157.971 172.071 149.824 162.021 149.824C151.971 149.824 143.824 157.971 143.824 168.021C143.824 178.071 151.971 186.218 162.021 186.218Z" fill="white"/>
<path d="M162.021 186.218C151.992 186.218 143.824 178.05 143.824 168.021C143.824 157.992 151.992 149.824 162.021 149.824C172.05 149.824 180.218 157.992 180.218 168.021C180.218 178.05 172.061 186.218 162.021 186.218ZM162.021 151.708C153.022 151.708 145.708 159.022 145.708 168.021C145.708 177.02 153.022 184.334 162.021 184.334C171.02 184.334 178.334 177.02 178.334 168.021C178.334 159.022 171.02 151.708 162.021 151.708Z" fill="#2CC6A1"/>
<path d="M169.347 162.846L169.683 163.567L170.108 164.032L171.61 167.333L153.335 175.635L151.872 172.423L151.763 171.712L151.437 170.99L151.012 170.525L149.51 167.224L167.785 158.922L169.248 162.134L169.347 162.846Z" fill="white" stroke="#8DE2D2" stroke-width="2"/>
<path d="M174.436 170.961V171.761L174.663 172.354V175.982H151.437V172.443L151.664 171.761V170.961L151.437 170.358V166.74H174.663V170.279L174.436 170.961Z" fill="white" stroke="#BAC4F4" stroke-width="2"/>
</g>
<g filter="url(#filter3_d)">
<path d="M459.955 153.847C471.321 148.497 476.197 134.946 470.847 123.58C465.497 112.214 451.946 107.337 440.58 112.687C429.214 118.038 424.337 131.589 429.688 142.955C435.038 154.321 448.589 159.197 459.955 153.847Z" fill="#E1E5FA"/>
<path d="M458.633 151.041C468.449 146.42 472.661 134.717 468.04 124.901C463.42 115.085 451.716 110.873 441.9 115.494C432.084 120.115 427.873 131.818 432.493 141.634C437.114 151.45 448.817 155.661 458.633 151.041Z" fill="white"/>
<path d="M457.313 148.234C465.579 144.343 469.126 134.488 465.235 126.222C461.343 117.956 451.488 114.409 443.222 118.3C434.956 122.191 431.409 132.047 435.3 140.313C439.191 148.579 449.047 152.126 457.313 148.234Z" fill="white"/>
<path d="M457.313 148.234C449.064 152.118 439.184 148.562 435.3 140.313C431.417 132.064 434.973 122.183 443.222 118.3C451.471 114.417 461.351 117.973 465.235 126.222C469.118 134.471 465.571 144.347 457.313 148.234ZM443.951 119.85C436.55 123.334 433.366 132.182 436.85 139.583C440.334 146.985 449.182 150.169 456.584 146.685C463.985 143.201 467.169 134.353 463.685 126.951C460.201 119.55 451.353 116.366 443.951 119.85Z" fill="#2CC6A1"/>
<path d="M454.29 126.174L454.846 126.637L455.376 126.855L457.89 128.988L446.072 142.893L443.626 140.817L443.261 140.274L442.713 139.807L442.184 139.589L439.67 137.456L451.487 123.551L453.934 125.627L454.29 126.174Z" fill="white" stroke="#8DE2D2" stroke-width="2"/>
<path d="M461.619 130.878L461.929 131.536L462.346 131.936L463.75 134.92L444.645 143.913L443.275 141.002L443.198 140.353L442.888 139.695L442.468 139.287L441.067 136.312L460.172 127.318L461.542 130.229L461.619 130.878Z" fill="white" stroke="#BAC4F4" stroke-width="2"/>
</g>
<g filter="url(#filter4_d)">
<path d="M115.485 299.97C136.188 299.97 152.97 283.188 152.97 262.485C152.97 241.783 136.188 225 115.485 225C94.7827 225 78 241.783 78 262.485C78 283.188 94.7827 299.97 115.485 299.97Z" fill="#E1E5FA"/>
<path d="M115.485 294.284C133.047 294.284 147.284 280.047 147.284 262.485C147.284 244.923 133.047 230.687 115.485 230.687C97.9233 230.687 83.6865 244.923 83.6865 262.485C83.6865 280.047 97.9233 294.284 115.485 294.284Z" fill="white"/>
<path d="M115.485 289.326C130.308 289.326 142.325 277.309 142.325 262.486C142.325 247.662 130.308 235.646 115.485 235.646C100.661 235.646 88.6445 247.662 88.6445 262.486C88.6445 277.309 100.661 289.326 115.485 289.326Z" fill="white"/>
<path d="M115.53 290.087C114.586 290.087 113.631 290.042 112.676 289.939C97.5384 288.392 86.4726 274.825 88.0193 259.676C89.566 244.538 103.134 233.473 118.283 235.019C133.42 236.566 144.486 250.134 142.939 265.283C142.189 272.618 138.629 279.226 132.92 283.877C127.95 287.926 121.865 290.087 115.53 290.087ZM115.462 236.407C102.258 236.407 90.908 246.426 89.5433 259.835C88.0875 274.142 98.5393 286.96 112.835 288.427C119.761 289.132 126.551 287.096 131.953 282.695C137.355 278.293 140.71 272.061 141.427 265.123C142.882 250.816 132.431 237.999 118.135 236.532C117.236 236.452 116.349 236.407 115.462 236.407Z" fill="#2CC6A1"/>
<path d="M126.903 281.08L100.541 278.396L103.225 252.033L129.588 254.717L126.903 281.08ZM101.439 277.656L126.176 280.181L128.7 255.445L103.964 252.92L101.439 277.656Z" fill="#BAC4F4" stroke="#BAC4F4"/>
<path d="M126.312 254.91L118.146 254.08L118.624 249.36C118.624 249.36 120.83 246.267 123.89 246.221C127.427 246.176 127.222 246.563 127.222 246.563L126.312 254.91Z" fill="#00D7AF"/>
<path d="M127.689 254.718L118.636 253.796L119.113 249.077C119.113 249.077 121.365 247.507 124.754 247.507C128.667 247.496 128.439 247.882 128.439 247.882L127.689 254.718Z" fill="#8DE2D2"/>
<path d="M106.466 252.761L114.37 253.568L114.848 248.849C114.848 248.849 113.369 245.38 110.48 244.732C107.137 243.981 107.262 244.402 107.262 244.402L106.466 252.761Z" fill="#00D7AF"/>
<path d="M104.885 252.386L113.938 253.307L114.415 248.587C114.415 248.587 112.527 246.597 109.206 245.903C105.374 245.107 105.522 245.528 105.522 245.528L104.885 252.386Z" fill="#8DE2D2"/>
<path d="M117.43 253.546L115.053 253.307C114.155 253.217 113.506 252.42 113.597 251.522L113.757 249.918C113.848 249.02 114.644 248.372 115.542 248.463L117.919 248.701C118.818 248.792 119.466 249.589 119.375 250.487L119.216 252.091C119.125 252.989 118.329 253.637 117.43 253.546Z" fill="#00D7AF"/>
<path d="M130.878 255.253L101.858 252.292L101.206 258.684L130.226 261.645L130.878 255.253Z" fill="white"/>
<path d="M130.599 262.087L100.757 259.039L101.496 251.84L131.339 254.888L130.599 262.087ZM101.655 258.311L129.872 261.188L130.44 255.616L102.224 252.738L101.655 258.311Z" fill="#BAC4F4" stroke="#BAC4F4"/>
<path d="M119.038 253.71L113.427 253.138L110.827 278.616L116.439 279.189L119.038 253.71Z" fill="#8DE2D2"/>
</g>
<g filter="url(#filter5_d)">
<path d="M255.1 272.2C268.962 272.2 280.2 260.962 280.2 247.1C280.2 233.238 268.962 222 255.1 222C241.238 222 230 233.238 230 247.1C230 260.962 241.238 272.2 255.1 272.2Z" fill="#E1E5FA"/>
<path d="M255.009 266.332C265.681 266.332 274.332 257.681 274.332 247.009C274.332 236.338 265.681 227.687 255.009 227.687C244.338 227.687 235.687 236.338 235.687 247.009C235.687 257.681 244.338 266.332 255.009 266.332Z" fill="white"/>
<path d="M254.282 262.601C262.667 262.601 269.464 255.803 269.464 247.418C269.464 239.033 262.667 232.235 254.282 232.235C245.896 232.235 239.099 239.033 239.099 247.418C239.099 255.803 245.896 262.601 254.282 262.601Z" fill="white"/>
<path d="M255.134 263.124C250.22 263.124 245.364 260.872 242.237 256.63C239.7 253.184 238.643 248.965 239.28 244.734C239.917 240.503 242.157 236.773 245.603 234.237C249.038 231.7 253.268 230.643 257.499 231.28C261.73 231.917 265.46 234.157 267.996 237.603C270.532 241.049 271.59 245.268 270.953 249.499C270.316 253.73 268.076 257.46 264.63 259.996C261.775 262.1 258.443 263.124 255.134 263.124ZM255.088 232.758C252.04 232.758 249.083 233.725 246.592 235.567C243.51 237.842 241.497 241.185 240.929 244.973C240.36 248.76 241.293 252.547 243.579 255.64C248.276 262.009 257.283 263.363 263.652 258.666C266.734 256.391 268.747 253.047 269.316 249.26C269.884 245.473 268.952 241.686 266.666 238.592C264.391 235.51 261.047 233.497 257.26 232.929C256.532 232.815 255.805 232.758 255.088 232.758Z" fill="#2CC6A1"/>
<path d="M254.532 245.904C254.915 245.764 255.307 245.642 255.699 245.53C256.092 245.418 256.484 245.362 256.858 245.362C257.241 245.362 257.605 245.446 257.951 245.605C258.306 245.764 258.633 246.044 258.932 246.455C259.221 246.857 259.436 247.277 259.567 247.725C259.698 248.174 259.726 248.631 259.669 249.089C259.613 249.547 259.455 250.005 259.202 250.444C258.95 250.892 258.605 251.303 258.147 251.686L258.847 252.798C258.913 252.891 258.932 253.003 258.922 253.134C258.913 253.265 258.847 253.367 258.735 253.451L258.212 253.844L257.259 252.321C256.699 252.639 256.12 252.863 255.513 252.975C254.915 253.087 254.336 253.106 253.785 253.022L253.728 252.06C253.728 251.976 253.747 251.892 253.775 251.807C253.813 251.723 253.869 251.658 253.943 251.602C254.037 251.537 254.158 251.499 254.326 251.49C254.485 251.48 254.681 251.48 254.896 251.471C255.111 251.462 255.354 251.434 255.625 251.378C255.896 251.331 256.176 251.228 256.475 251.069L254.364 247.707C253.99 247.837 253.607 247.959 253.224 248.062C252.841 248.164 252.458 248.211 252.075 248.192C251.692 248.174 251.328 248.08 250.963 247.893C250.599 247.716 250.263 247.408 249.936 246.969C249.693 246.642 249.525 246.277 249.422 245.866C249.319 245.465 249.31 245.044 249.375 244.615C249.441 244.185 249.6 243.765 249.852 243.344C250.104 242.924 250.45 242.522 250.907 242.158L250.319 241.233C250.254 241.13 250.226 241.018 250.244 240.897C250.263 240.775 250.319 240.663 250.431 240.589L250.954 240.196L251.804 241.56C252.309 241.289 252.804 241.121 253.28 241.056C253.756 240.99 254.205 240.99 254.635 241.056L254.681 241.831C254.7 242.055 254.635 242.223 254.494 242.326C254.429 242.373 254.336 242.41 254.205 242.429C254.083 242.448 253.934 242.466 253.766 242.494C253.598 242.513 253.411 242.55 253.215 242.597C253.009 242.644 252.804 242.718 252.589 242.821L254.532 245.904ZM251.701 243.447C251.459 243.671 251.272 243.886 251.141 244.11C251.01 244.334 250.926 244.54 250.889 244.745C250.851 244.951 250.861 245.147 250.907 245.334C250.954 245.521 251.038 245.698 251.16 245.857C251.3 246.044 251.449 246.175 251.617 246.268C251.785 246.361 251.972 246.418 252.159 246.436C252.355 246.455 252.561 246.455 252.776 246.418C252.99 246.38 253.224 246.333 253.458 246.268L251.701 243.447ZM257.353 250.434C257.829 249.986 258.1 249.528 258.156 249.042C258.222 248.566 258.091 248.099 257.764 247.66C257.624 247.473 257.465 247.333 257.297 247.249C257.119 247.165 256.942 247.109 256.736 247.09C256.54 247.071 256.325 247.09 256.101 247.137C255.877 247.184 255.643 247.249 255.401 247.324L257.353 250.434Z" fill="#BAC4F4" stroke="#BAC4F4"/>
</g>
<g filter="url(#filter6_d)">
<path d="M497.762 345.532C510.309 354.975 528.135 352.458 537.577 339.911C547.019 327.365 544.503 309.539 531.956 300.097C519.409 290.655 501.584 293.171 492.141 305.718C482.699 318.264 485.216 336.09 497.762 345.532Z" fill="#E1E5FA"/>
<path d="M501.677 340.159C511.336 347.428 525.059 345.491 532.327 335.832C539.596 326.174 537.659 312.451 528 305.182C518.342 297.913 504.619 299.85 497.35 309.509C490.081 319.168 492.019 332.89 501.677 340.159Z" fill="white"/>
<path d="M503.559 336.287C511.149 341.999 521.931 340.477 527.643 332.887C533.354 325.298 531.832 314.515 524.243 308.804C516.653 303.092 505.871 304.614 500.159 312.204C494.448 319.793 495.97 330.576 503.559 336.287Z" fill="white"/>
<path d="M503.974 337.339C499.528 333.993 496.666 328.647 496.725 322.677C496.777 317.831 498.693 313.291 502.152 309.896C505.61 306.501 510.179 304.65 515.025 304.702C519.861 304.746 524.411 306.671 527.806 310.129C531.201 313.587 533.052 318.156 533 323.002C532.948 327.849 531.031 332.388 527.573 335.783C524.115 339.179 519.546 341.029 514.7 340.977C510.683 340.937 506.97 339.594 503.974 337.339ZM524.617 309.825C521.858 307.749 518.523 306.609 515.014 306.58C510.675 306.54 506.576 308.195 503.482 311.235C500.387 314.276 498.652 318.339 498.614 322.696C498.527 331.659 505.757 339.02 514.721 339.107C519.06 339.147 523.159 337.492 526.254 334.452C529.348 331.411 531.083 327.348 531.122 322.991C531.162 318.653 529.507 314.553 526.467 311.459C525.885 310.86 525.265 310.313 524.617 309.825Z" fill="#2CC6A1"/>
<path d="M515.16 321.345C515.602 321.479 516.039 321.636 516.471 321.802C516.902 321.968 517.296 322.184 517.634 322.439C517.98 322.7 518.253 323.024 518.458 323.403C518.671 323.789 518.776 324.265 518.766 324.841C518.755 325.401 518.663 325.928 518.476 326.423C518.289 326.918 518.002 327.351 517.64 327.727C517.277 328.104 516.822 328.41 516.295 328.635C515.761 328.869 515.168 329.006 514.493 329.041L514.37 330.524C514.365 330.653 514.306 330.767 514.209 330.879C514.111 330.991 513.982 331.04 513.823 331.04L513.082 331.038L513.257 329.011C512.534 328.917 511.857 328.725 511.231 328.413C510.613 328.107 510.076 327.73 509.635 327.278L510.239 326.369C510.297 326.293 510.371 326.23 510.454 326.173C510.545 326.122 510.64 326.101 510.746 326.101C510.875 326.106 511.01 326.155 511.169 326.261C511.319 326.361 511.496 326.494 511.697 326.632C511.898 326.77 512.137 326.91 512.42 327.044C512.697 327.186 513.021 327.284 513.4 327.344L513.779 322.862C513.352 322.726 512.923 322.575 512.506 322.407C512.09 322.239 511.711 322.021 511.377 321.743C511.043 321.465 510.777 321.132 510.575 320.715C510.366 320.306 510.271 319.798 510.275 319.178C510.277 318.717 510.373 318.273 510.56 317.831C510.741 317.397 511.019 317.01 511.371 316.666C511.723 316.322 512.153 316.049 512.667 315.841C513.182 315.632 513.768 315.504 514.431 315.486L514.528 314.248C514.539 314.11 514.59 313.99 514.689 313.893C514.789 313.796 514.916 313.732 515.068 313.741L515.809 313.742L515.65 315.556C516.291 315.654 516.853 315.839 517.329 316.104C517.805 316.37 518.211 316.675 518.555 317.027L518.069 317.761C517.933 317.976 517.76 318.084 517.563 318.081C517.472 318.079 517.362 318.049 517.231 317.977C517.108 317.911 516.96 317.826 516.789 317.737C516.624 317.64 516.429 317.546 516.22 317.455C516.002 317.357 515.765 317.285 515.501 317.231L515.16 321.345ZM514.271 317.193C513.899 317.231 513.583 317.298 513.312 317.412C513.041 317.526 512.825 317.655 512.651 317.815C512.477 317.976 512.352 318.16 512.267 318.36C512.182 318.561 512.138 318.779 512.139 319.006C512.139 319.27 512.185 319.49 512.274 319.689C512.362 319.889 512.493 320.067 512.649 320.211C512.814 320.361 513 320.501 513.22 320.614C513.44 320.726 513.683 320.843 513.939 320.943L514.271 317.193ZM514.627 327.367C515.364 327.286 515.921 327.056 516.302 326.654C516.686 326.268 516.886 325.756 516.889 325.136C516.889 324.871 516.841 324.636 516.746 324.446C516.643 324.249 516.52 324.077 516.347 323.92C516.182 323.77 515.975 323.64 515.74 323.53C515.505 323.419 515.249 323.32 514.979 323.222L514.627 327.367Z" fill="#BAC4F4" stroke="#BAC4F4"/>
</g>
<path d="M605.07 159.63C604.335 158.145 602.216 158.146 601.483 159.632L598.713 165.247C598.422 165.838 597.859 166.247 597.207 166.342L591.005 167.245C589.366 167.483 588.711 169.498 589.896 170.655L594.38 175.032C594.851 175.492 595.065 176.153 594.954 176.802L593.895 182.975C593.614 184.609 595.329 185.855 596.796 185.084L602.344 182.169C602.927 181.863 603.623 181.863 604.205 182.169L609.753 185.084C611.22 185.855 612.935 184.609 612.655 182.975L611.596 176.802C611.484 176.154 611.699 175.492 612.171 175.032L616.66 170.655C617.847 169.499 617.192 167.483 615.552 167.244L609.352 166.341C608.701 166.247 608.139 165.838 607.847 165.249L605.07 159.63Z" fill="#D6DBFA"/>
<path d="M605.463 328.815C605.096 328.072 604.037 328.071 603.67 328.813L600.91 334.388C600.765 334.683 600.483 334.887 600.158 334.934L594.005 335.829C593.185 335.949 592.857 336.957 593.451 337.535L597.902 341.873C598.137 342.103 598.245 342.433 598.189 342.758L597.141 348.887C597.001 349.704 597.858 350.327 598.592 349.941L604.101 347.045C604.393 346.892 604.741 346.892 605.033 347.045L610.527 349.938C611.261 350.324 612.12 349.7 611.979 348.883L610.923 342.758C610.867 342.434 610.975 342.102 611.21 341.872L615.661 337.535C616.254 336.956 615.927 335.949 615.107 335.829L608.965 334.934C608.64 334.887 608.358 334.682 608.213 334.387L605.463 328.815Z" fill="#D6DBFA"/>
<path d="M512.451 127.815C512.085 127.072 511.026 127.071 510.658 127.813L507.899 133.388C507.753 133.683 507.472 133.887 507.147 133.934L501.004 134.829C500.184 134.949 499.857 135.956 500.451 136.535L504.901 140.872C505.137 141.102 505.244 141.434 505.188 141.758L504.133 147.885C503.992 148.702 504.849 149.325 505.583 148.94L511.09 146.045C511.382 145.892 511.73 145.892 512.021 146.045L517.519 148.939C518.252 149.325 519.11 148.703 518.97 147.886L517.922 141.758C517.867 141.433 517.974 141.103 518.21 140.873L522.661 136.535C523.254 135.957 522.927 134.949 522.107 134.829L515.954 133.934C515.628 133.887 515.347 133.682 515.201 133.387L512.451 127.815Z" fill="#3FC3A2"/>
<path d="M185.933 287.335L185.988 287.711L185.933 287.335C184.703 287.514 184.212 289.026 185.102 289.893L189.552 294.23C189.67 294.345 189.724 294.511 189.696 294.673L188.64 300.8C188.429 302.025 189.715 302.961 190.816 302.382L196.323 299.488C196.468 299.411 196.643 299.411 196.788 299.488L202.286 302.382C203.386 302.961 204.673 302.027 204.463 300.801L203.415 294.673C203.387 294.511 203.441 294.346 203.559 294.231L208.01 289.893C208.9 289.026 208.409 287.514 207.179 287.335L201.026 286.44C200.863 286.416 200.722 286.314 200.65 286.166L197.901 280.596C197.351 279.481 195.761 279.481 195.211 280.596L192.462 286.166C192.389 286.314 192.248 286.416 192.085 286.44L185.933 287.335Z" fill="#3FC3A2" stroke="white"/>
<path d="M64.659 308.817C65.0258 308.074 66.0857 308.074 66.4525 308.817L69.2013 314.387C69.3469 314.682 69.6284 314.887 69.9541 314.934L76.1066 315.829C76.9268 315.949 77.2541 316.957 76.6606 317.535L72.2099 321.873C71.9743 322.103 71.8667 322.433 71.9222 322.758L72.9704 328.886C73.1102 329.703 72.2524 330.325 71.5189 329.939L66.0215 327.045C65.73 326.892 65.3815 326.892 65.0899 327.045L59.5925 329.939C58.8591 330.325 58.0013 329.703 58.141 328.886L59.1893 322.758C59.2447 322.433 59.1371 322.103 58.9015 321.873L54.4508 317.535C53.8573 316.957 54.1847 315.949 55.0049 315.829L61.1574 314.934C61.483 314.887 61.7645 314.682 61.9102 314.387L64.659 308.817Z" fill="#D6DBFA"/>
<path d="M526.825 245.962L523.787 242L512 251.037L515.037 254.999L526.825 245.962Z" fill="#E1E5FA"/>
<path d="M118.705 188.754L117.188 185L106 189.523L107.518 193.276L118.705 188.754Z" fill="#E1E5FA"/>
<path d="M416.045 331.767L418.82 325C418.82 325 424.324 330.152 427.475 331.539C430.625 332.927 438.984 333.28 438.984 333.28L436.209 340.046C436.209 340.046 429.34 340.206 424.575 338.249C419.809 336.293 416.045 331.767 416.045 331.767Z" fill="#E1E5FA"/>
<path d="M288.434 298.169L286 293.245C286 293.245 291.63 292.71 293.972 291.618C296.315 290.526 300.66 286 300.66 286L303.094 290.924C303.094 290.924 299.784 294.871 296.315 296.588C292.847 298.294 288.434 298.169 288.434 298.169Z" fill="#E1E5FA"/>
<path d="M212.024 214.111L210 210.016C210 210.016 214.674 209.573 216.619 208.663C218.564 207.753 222.169 204 222.169 204L224.193 208.094C224.193 208.094 221.441 211.37 218.564 212.803C215.698 214.213 212.024 214.111 212.024 214.111Z" fill="#E1E5FA"/>
<path d="M184.061 351.216L181.764 346.564C181.764 346.564 187.086 346.052 189.293 345.029C191.499 344.005 195.616 339.718 195.616 339.718L197.913 344.369C197.913 344.369 194.786 348.1 191.51 349.726C188.235 351.341 184.061 351.216 184.061 351.216Z" fill="#E1E5FA"/>
<g filter="url(#filter7_d)">
<path d="M429.577 288.078C444.808 296.871 464.284 291.653 473.077 276.422C481.871 261.191 476.653 241.716 461.422 232.922C446.191 224.129 426.715 229.347 417.922 244.578C409.128 259.809 414.347 279.284 429.577 288.078Z" fill="#E1E5FA"/>
<path d="M431.993 283.894C444.914 291.354 461.435 286.927 468.894 274.007C476.354 261.086 471.927 244.565 459.007 237.105C446.086 229.646 429.565 234.073 422.106 246.993C414.646 259.913 419.073 276.435 431.993 283.894Z" fill="white"/>
<path d="M434.1 280.247C445.005 286.543 458.95 282.807 465.246 271.901C471.543 260.995 467.806 247.05 456.901 240.754C445.995 234.458 432.05 238.194 425.754 249.1C419.457 260.005 423.194 273.95 434.1 280.247Z" fill="white"/>
<path d="M433.808 280.826C433.114 280.425 432.43 279.986 431.771 279.505C421.292 271.937 418.913 257.255 426.486 246.767C434.054 236.288 448.736 233.91 459.224 241.482C469.703 249.05 472.081 263.732 464.509 274.22C460.841 279.298 455.415 282.647 449.239 283.644C443.863 284.512 438.469 283.517 433.808 280.826ZM456.559 241.305C446.845 235.696 434.239 238.247 427.539 247.532C420.391 257.439 422.637 271.308 432.531 278.46C437.327 281.921 443.187 283.307 449.031 282.363C454.874 281.42 459.99 278.26 463.464 273.46C470.612 263.553 468.367 249.684 458.472 242.532C457.845 242.092 457.212 241.682 456.559 241.305Z" fill="#2CC6A1"/>
<path d="M446.002 279.03L427.747 265.858L440.919 247.603L459.174 260.775L446.002 279.03ZM428.722 265.696L445.848 278.06L458.212 260.934L441.086 248.57L428.722 265.696Z" fill="#BAC4F4" stroke="#BAC4F4"/>
<path d="M456.682 259.526L451.028 255.447L453.384 252.177C453.384 252.177 456.321 250.838 458.591 252.104C461.212 253.573 460.898 253.771 460.898 253.771L456.682 259.526Z" fill="#00D7AF"/>
<path d="M457.777 259.969L451.508 255.446L453.864 252.176C453.864 252.176 456.188 251.978 458.681 253.417C461.564 255.071 461.233 255.259 461.233 255.259L457.777 259.969Z" fill="#8DE2D2"/>
<path d="M442.994 249.516L448.466 253.467L450.823 250.198C450.823 250.198 451.208 247.018 449.358 245.314C447.217 243.341 447.13 243.704 447.13 243.704L442.994 249.516Z" fill="#00D7AF"/>
<path d="M441.991 248.568L448.26 253.091L450.616 249.821C450.616 249.821 450.073 247.555 447.924 245.634C445.442 243.42 445.373 243.793 445.373 243.793L441.991 248.568Z" fill="#8DE2D2"/>
<path d="M450.727 254.749L449.08 253.564C448.458 253.115 448.319 252.254 448.768 251.632L449.566 250.52C450.014 249.897 450.876 249.758 451.498 250.207L453.145 251.392C453.767 251.841 453.906 252.702 453.458 253.324L452.659 254.436C452.211 255.059 451.35 255.198 450.727 254.749Z" fill="#00D7AF"/>
<path d="M459.896 261.718L439.804 247.213L436.609 251.639L456.701 266.143L459.896 261.718Z" fill="white"/>
<path d="M456.788 266.627L436.128 251.708L439.729 246.726L460.39 261.644L456.788 266.627ZM437.098 251.555L456.634 265.657L459.42 261.798L439.883 247.696L437.098 251.555Z" fill="#BAC4F4" stroke="#BAC4F4"/>
<path d="M451.841 255.554L447.956 252.749L435.221 270.39L439.107 273.194L451.841 255.554Z" fill="#8DE2D2"/>
</g>
<mask id="mask0" mask-type="alpha" maskUnits="userSpaceOnUse" x="259" y="20" width="193" height="363">
<rect x="259.045" y="20" width="192" height="363" fill="#C4C4C4"/>
</mask>
<g mask="url(#mask0)">
<path d="M399.719 89.9502C399.719 117.423 381.243 137.522 353.771 137.522C346.454 137.522 326.729 160.27 320.472 163.851C305.062 172.658 304.836 155.694 304.419 138.137C304.023 121.342 304.023 92.6339 304.023 90.494C304.023 63.0214 324.681 40.7891 355.586 40.7891C383.066 40.7891 399.719 62.4776 399.719 89.9502Z" fill="#02065A"/>
<path d="M333.897 48.4871C342.986 44.0943 355.946 44.3273 355.946 44.3273C355.946 44.3273 340.458 50.7188 335.74 57.0396C331.503 62.7178 336.065 70.331 333.897 70.331C328.127 70.331 323.763 67.506 322.781 67.1035C321.799 66.6939 318.897 65.7758 318.897 65.7758C318.897 65.7758 313.925 71.2562 312.314 75.536C311.509 77.6759 309.617 83.2269 309.617 83.2269H307.533C307.533 83.2269 308.797 77.2662 310.605 72.1036C311.891 68.4453 316.185 62.2728 317.752 60.5284C321.538 56.2981 324.808 52.8799 333.897 48.4871Z" fill="#2B2F86"/>
<path d="M401.491 97.3512C401.491 100.946 398.574 103.863 394.98 103.863C392.79 103.863 391.886 103.764 391.886 103.764C391.886 103.764 391.526 104.689 390.926 106.398C385.332 122.246 370.219 133.595 352.45 133.595C334.787 133.595 319.744 122.366 314.073 106.659C313.607 105.374 313.063 103.7 313.063 103.7C313.063 103.7 310.507 103.863 308.346 103.863C304.751 103.863 301.834 100.946 301.834 97.3512C301.834 93.7564 304.751 90.8397 308.346 90.8397C310.048 90.8397 311.658 90.8397 311.658 90.8397C311.658 90.8397 311.672 89.9004 311.693 89.4131C311.792 87.0331 312.089 86.3763 312.583 84.1163C314.447 75.5073 319.836 69.6455 319.836 69.6455C319.836 69.6455 352.323 81.4044 368.397 83.2123C384.888 85.0697 392.084 83.6361 392.084 83.6361C392.084 83.6361 393.052 87.2096 393.172 89.3213C393.214 90.0911 393.214 90.8397 393.214 90.8397C393.214 90.8397 393.256 90.8397 394.98 90.8397C398.574 90.8397 401.491 93.7494 401.491 97.3512Z" fill="#D9DDFC"/>
<path d="M334.144 101.532C332.661 101.532 331.446 100.318 331.446 98.8347V93.5308C331.446 92.0477 332.661 90.833 334.144 90.833C335.627 90.833 336.842 92.0477 336.842 93.5308V98.8347C336.842 100.325 335.627 101.532 334.144 101.532Z" fill="#02065A"/>
<path d="M371.094 101.532C369.611 101.532 368.396 100.318 368.396 98.8347V93.5308C368.396 92.0477 369.611 90.833 371.094 90.833C372.577 90.833 373.792 92.0477 373.792 93.5308V98.8347C373.792 100.325 372.577 101.532 371.094 101.532Z" fill="#02065A"/>
<path d="M377.719 381.538C377.719 382.646 376.819 383.543 375.711 383.538L361.544 383.478C360.444 383.473 359.554 382.58 359.553 381.48L359.423 256.035C359.422 254.931 358.527 254.037 357.423 254.037H345.445C344.341 254.037 343.446 254.932 343.445 256.037L343.411 381.548C343.411 382.652 342.515 383.547 341.411 383.547H328.312C327.208 383.547 326.312 382.652 326.312 381.547V229.108C326.312 228.004 327.208 227.108 328.312 227.108H375.719C376.824 227.108 377.719 228.004 377.719 229.108V381.538Z" fill="#484FF5"/>
<path d="M374.315 375.195V238.891C374.315 237.331 373.05 236.066 371.49 236.066C369.93 236.066 368.665 237.331 368.665 238.891V375.195C368.665 376.755 369.93 378.02 371.49 378.02C373.05 378.02 374.315 376.755 374.315 375.195Z" fill="#5E62F6"/>
<path d="M344.237 372.765L333.566 372.68C333.566 372.68 323.297 367.108 318.643 371.769C315.267 375.145 316.108 383.076 316.108 383.076H344.237V372.765Z" fill="#EC5C8C"/>
<path d="M358.757 372.765L369.428 372.68C369.428 372.68 379.697 367.108 384.351 371.769C387.727 375.145 386.886 383.076 386.886 383.076H358.757V372.765Z" fill="#EC5C8C"/>
<path d="M342.492 381.36H317.76C317.76 381.36 316.976 378.62 318.417 377.561C319.85 376.501 342.499 377.561 342.499 377.561V381.36H342.492Z" fill="#ED86A8"/>
<path d="M360.396 381.36H385.128C385.128 381.36 385.912 378.62 384.471 377.561C383.038 376.501 360.389 377.561 360.389 377.561V381.36H360.396Z" fill="#ED86A8"/>
<path d="M331.75 92.3658V95.4944C331.75 95.4944 330.705 94.654 330.132 94.089C329.56 93.524 329.356 92.8319 328.939 92.0833C328.522 91.3417 328.289 89.9787 328.882 90.6708C329.264 91.1157 329.765 91.6666 330.366 92.2669C330.895 92.8036 331.75 92.3658 331.75 92.3658Z" fill="#02065A"/>
<path d="M373.101 92.3658V95.4944C373.101 95.4944 374.146 94.654 374.718 94.089C375.29 93.524 375.495 92.8319 375.911 92.0833C376.328 91.3417 376.561 89.9787 375.968 90.6708C375.587 91.1157 375.085 91.6666 374.485 92.2669C373.948 92.8036 373.101 92.3658 373.101 92.3658Z" fill="#02065A"/>
<path d="M397.833 168.582C404.966 166.217 400.643 153.928 395.657 138.906C390.671 123.885 388.305 116.759 388.305 116.759L373.905 121.109L383.863 152.742" fill="#63D4C8"/>
<path d="M352.358 126.731C346.645 126.731 339.9 122.713 338.382 119.422C337.831 118.235 337.923 116.865 338.629 115.763C339.335 114.662 340.536 114.005 341.849 114.005H362.867C364.174 114.005 365.381 114.662 366.087 115.763C366.794 116.865 366.885 118.235 366.335 119.422C364.816 122.713 358.072 126.731 352.358 126.731ZM341.849 116.124C341.256 116.124 340.734 116.406 340.416 116.908C340.098 117.409 340.056 118.002 340.303 118.539C341.532 121.194 347.591 124.62 352.358 124.62C357.118 124.62 363.185 121.194 364.414 118.539C364.661 118.002 364.618 117.409 364.301 116.908C363.983 116.406 363.46 116.124 362.867 116.124H341.849Z" fill="#02065A"/>
<path d="M340.726 136.992C334.871 136.992 330.224 137.974 326.531 139.782C312.307 146.753 303.62 162.036 304.524 166.252C305.909 172.693 330.132 165.56 330.132 165.56C330.132 165.56 331.361 195.843 331.277 204.375C331.216 210.88 327.565 223.917 326.528 227.495C326.377 228.016 326.667 228.555 327.186 228.712C330.45 229.7 341.73 232.877 352.033 232.914C362.329 232.95 373.6 229.728 376.872 228.72C377.394 228.559 377.682 228.012 377.523 227.489C376.455 223.985 372.789 211.479 372.789 205.052C372.789 196.564 375.6 166.986 375.6 166.986C375.6 166.986 397.366 171.923 399.711 167.142C402.875 160.673 388.503 144.952 380.155 140.969C376.603 139.274 369.745 136.985 364.237 136.985C364.23 136.992 340.747 136.992 340.726 136.992Z" fill="#63D4C8"/>
<path d="M364.809 131.668C364.809 131.668 365.431 143.773 363.185 149.07C361.194 153.759 355.593 156.535 352.323 156.535C348.799 156.535 343.905 154.868 341.341 149.613C338.841 144.493 340.218 131.753 340.218 131.753C340.218 131.753 347.379 133.596 351.673 133.596C355.953 133.596 364.809 131.668 364.809 131.668Z" fill="#D9DDFC"/>
<path d="M307.364 168.477C300.231 166.111 304.27 153.928 309.263 138.9C314.256 123.871 316.615 116.752 316.615 116.752L331.015 121.102L321.058 152.735" fill="#63D4C8"/>
<g filter="url(#filter8_d)">
<path d="M327.831 115.064C331.27 119.004 333.742 122.366 329.801 125.813C325.86 129.252 319.878 128.849 316.432 124.909C312.993 120.968 311.177 112.726 315.118 109.28C319.059 105.833 324.391 111.123 327.831 115.064Z" fill="#D9DDFC"/>
</g>
<g filter="url(#filter9_d)">
<path d="M377.084 115.064C373.645 119.004 371.173 122.366 375.114 125.813C379.055 129.252 385.036 128.849 388.483 124.909C391.922 120.968 393.737 112.726 389.796 109.28C385.856 105.833 380.523 111.123 377.084 115.064Z" fill="#D9DDFC"/>
</g>
<path d="M398.324 161.182C397.45 166.987 390.141 166.458 385.587 165.941C380.88 165.412 374.61 163.657 374.61 163.657L362.469 154.469C362.469 154.469 366.686 149.285 366.752 146.392C366.818 143.492 366.924 139.043 366.924 139.043C366.924 139.043 368.116 139.043 371.995 139.99C376.12 140.996 378.404 142.109 378.404 142.109C378.404 142.109 381.747 154.31 384.249 153.919C386.255 153.608 378.397 131.695 378.397 131.695L389.062 128.239C389.062 128.233 399.496 153.383 398.324 161.182Z" fill="#83E5DB"/>
</g>
<path d="M494.213 76.592C494.213 81.3322 490.365 85.184 485.606 85.184C480.848 85.184 477 81.3322 477 76.592C477 71.8518 480.848 68 485.606 68C490.365 68 494.213 71.8518 494.213 76.592Z" stroke="#D1F7F4" stroke-width="10"/>
<path d="M146.213 102.592C146.213 107.332 142.365 111.184 137.606 111.184C132.848 111.184 129 107.332 129 102.592C129 97.8518 132.848 94 137.606 94C142.365 94 146.213 97.8518 146.213 102.592Z" stroke="#FDF0C6" stroke-width="10"/>
<path d="M577.213 102.592C577.213 107.332 573.365 111.184 568.606 111.184C563.848 111.184 560 107.332 560 102.592C560 97.8518 563.848 94 568.606 94C573.365 94 577.213 97.8518 577.213 102.592Z" stroke="#F8D4E1" stroke-width="10"/>
<defs>
<filter id="filter0_d" x="207" y="69" width="89.1393" height="89.1393" filterUnits="userSpaceOnUse" color-interpolation-filters="sRGB">
<feFlood flood-opacity="0" result="BackgroundImageFix"/>
<feColorMatrix in="SourceAlpha" type="matrix" values="0 0 0 0 0 0 0 0 0 0 0 0 0 0 0 0 0 0 127 0"/>
<feOffset dy="6"/>
<feGaussianBlur stdDeviation="7.5"/>
<feColorMatrix type="matrix" values="0 0 0 0 0 0 0 0 0 0.138341 0 0 0 0 0.864629 0 0 0 0.2 0"/>
<feBlend mode="normal" in2="BackgroundImageFix" result="effect1_dropShadow"/>
<feBlend mode="normal" in="SourceGraphic" in2="effect1_dropShadow" result="shape"/>
</filter>
<filter id="filter1_d" x="561.201" y="204.201" width="111.898" height="111.898" filterUnits="userSpaceOnUse" color-interpolation-filters="sRGB">
<feFlood flood-opacity="0" result="BackgroundImageFix"/>
<feColorMatrix in="SourceAlpha" type="matrix" values="0 0 0 0 0 0 0 0 0 0 0 0 0 0 0 0 0 0 127 0"/>
<feOffset dy="6"/>
<feGaussianBlur stdDeviation="7.5"/>
<feColorMatrix type="matrix" values="0 0 0 0 0 0 0 0 0 0.138341 0 0 0 0 0.864629 0 0 0 0.2 0"/>
<feBlend mode="normal" in2="BackgroundImageFix" result="effect1_dropShadow"/>
<feBlend mode="normal" in="SourceGraphic" in2="effect1_dropShadow" result="shape"/>
</filter>
<filter id="filter2_d" x="122" y="134" width="80.0409" height="80.0409" filterUnits="userSpaceOnUse" color-interpolation-filters="sRGB">
<feFlood flood-opacity="0" result="BackgroundImageFix"/>
<feColorMatrix in="SourceAlpha" type="matrix" values="0 0 0 0 0 0 0 0 0 0 0 0 0 0 0 0 0 0 127 0"/>
<feOffset dy="6"/>
<feGaussianBlur stdDeviation="7.5"/>
<feColorMatrix type="matrix" values="0 0 0 0 0 0 0 0 0 0.138341 0 0 0 0 0.864629 0 0 0 0.2 0"/>
<feBlend mode="normal" in2="BackgroundImageFix" result="effect1_dropShadow"/>
<feBlend mode="normal" in="SourceGraphic" in2="effect1_dropShadow" result="shape"/>
</filter>
<filter id="filter3_d" x="412.516" y="101.516" width="75.5025" height="75.5025" filterUnits="userSpaceOnUse" color-interpolation-filters="sRGB">
<feFlood flood-opacity="0" result="BackgroundImageFix"/>
<feColorMatrix in="SourceAlpha" type="matrix" values="0 0 0 0 0 0 0 0 0 0 0 0 0 0 0 0 0 0 127 0"/>
<feOffset dy="6"/>
<feGaussianBlur stdDeviation="7.5"/>
<feColorMatrix type="matrix" values="0 0 0 0 0 0 0 0 0 0.138341 0 0 0 0 0.864629 0 0 0 0.2 0"/>
<feBlend mode="normal" in2="BackgroundImageFix" result="effect1_dropShadow"/>
<feBlend mode="normal" in="SourceGraphic" in2="effect1_dropShadow" result="shape"/>
</filter>
<filter id="filter4_d" x="63" y="216" width="104.97" height="104.97" filterUnits="userSpaceOnUse" color-interpolation-filters="sRGB">
<feFlood flood-opacity="0" result="BackgroundImageFix"/>
<feColorMatrix in="SourceAlpha" type="matrix" values="0 0 0 0 0 0 0 0 0 0 0 0 0 0 0 0 0 0 127 0"/>
<feOffset dy="6"/>
<feGaussianBlur stdDeviation="7.5"/>
<feColorMatrix type="matrix" values="0 0 0 0 0 0 0 0 0 0.138341 0 0 0 0 0.864629 0 0 0 0.2 0"/>
<feBlend mode="normal" in2="BackgroundImageFix" result="effect1_dropShadow"/>
<feBlend mode="normal" in="SourceGraphic" in2="effect1_dropShadow" result="shape"/>
</filter>
<filter id="filter5_d" x="215" y="213" width="80.2002" height="80.2002" filterUnits="userSpaceOnUse" color-interpolation-filters="sRGB">
<feFlood flood-opacity="0" result="BackgroundImageFix"/>
<feColorMatrix in="SourceAlpha" type="matrix" values="0 0 0 0 0 0 0 0 0 0 0 0 0 0 0 0 0 0 127 0"/>
<feOffset dy="6"/>
<feGaussianBlur stdDeviation="7.5"/>
<feColorMatrix type="matrix" values="0 0 0 0 0 0 0 0 0 0.138341 0 0 0 0 0.864629 0 0 0 0.2 0"/>
<feBlend mode="normal" in2="BackgroundImageFix" result="effect1_dropShadow"/>
<feBlend mode="normal" in="SourceGraphic" in2="effect1_dropShadow" result="shape"/>
</filter>
<filter id="filter6_d" x="471.425" y="285.381" width="86.868" height="86.868" filterUnits="userSpaceOnUse" color-interpolation-filters="sRGB">
<feFlood flood-opacity="0" result="BackgroundImageFix"/>
<feColorMatrix in="SourceAlpha" type="matrix" values="0 0 0 0 0 0 0 0 0 0 0 0 0 0 0 0 0 0 127 0"/>
<feOffset dy="6"/>
<feGaussianBlur stdDeviation="7.5"/>
<feColorMatrix type="matrix" values="0 0 0 0 0 0 0 0 0 0.138341 0 0 0 0 0.864629 0 0 0 0.2 0"/>
<feBlend mode="normal" in2="BackgroundImageFix" result="effect1_dropShadow"/>
<feBlend mode="normal" in="SourceGraphic" in2="effect1_dropShadow" result="shape"/>
</filter>
<filter id="filter7_d" x="398.65" y="219.65" width="93.6991" height="93.6991" filterUnits="userSpaceOnUse" color-interpolation-filters="sRGB">
<feFlood flood-opacity="0" result="BackgroundImageFix"/>
<feColorMatrix in="SourceAlpha" type="matrix" values="0 0 0 0 0 0 0 0 0 0 0 0 0 0 0 0 0 0 127 0"/>
<feOffset dy="6"/>
<feGaussianBlur stdDeviation="7.5"/>
<feColorMatrix type="matrix" values="0 0 0 0 0 0 0 0 0 0.138341 0 0 0 0 0.864629 0 0 0 0.2 0"/>
<feBlend mode="normal" in2="BackgroundImageFix" result="effect1_dropShadow"/>
<feBlend mode="normal" in="SourceGraphic" in2="effect1_dropShadow" result="shape"/>
</filter>
<filter id="filter8_d" x="308.888" y="102.165" width="26.9303" height="27.9847" filterUnits="userSpaceOnUse" color-interpolation-filters="sRGB">
<feFlood flood-opacity="0" result="BackgroundImageFix"/>
<feColorMatrix in="SourceAlpha" type="matrix" values="0 0 0 0 0 0 0 0 0 0 0 0 0 0 0 0 0 0 127 0"/>
<feOffset dy="-2"/>
<feGaussianBlur stdDeviation="2"/>
<feColorMatrix type="matrix" values="0 0 0 0 0.0514292 0 0 0 0 0.123696 0 0 0 0 0.379913 0 0 0 0.1 0"/>
<feBlend mode="normal" in2="BackgroundImageFix" result="effect1_dropShadow"/>
<feBlend mode="normal" in="SourceGraphic" in2="effect1_dropShadow" result="shape"/>
</filter>
<filter id="filter9_d" x="369.097" y="102.165" width="26.9302" height="27.9847" filterUnits="userSpaceOnUse" color-interpolation-filters="sRGB">
<feFlood flood-opacity="0" result="BackgroundImageFix"/>
<feColorMatrix in="SourceAlpha" type="matrix" values="0 0 0 0 0 0 0 0 0 0 0 0 0 0 0 0 0 0 127 0"/>
<feOffset dy="-2"/>
<feGaussianBlur stdDeviation="2"/>
<feColorMatrix type="matrix" values="0 0 0 0 0.0514292 0 0 0 0 0.123696 0 0 0 0 0.379913 0 0 0 0.1 0"/>
<feBlend mode="normal" in2="BackgroundImageFix" result="effect1_dropShadow"/>
<feBlend mode="normal" in="SourceGraphic" in2="effect1_dropShadow" result="shape"/>
</filter>
</defs>
</svg>
