<svg width="12" height="12" viewBox="0 0 12 12" fill="none" xmlns="http://www.w3.org/2000/svg">
<circle cx="6" cy="6" r="5.5" stroke="#6E7F95"/>
<path d="M5.17137 7.32972V7.00868C5.17137 6.73102 5.23066 6.48952 5.34924 6.28416C5.46782 6.07881 5.68474 5.86045 6 5.62907C6.30369 5.41215 6.50325 5.23572 6.5987 5.09978C6.69704 4.96385 6.7462 4.812 6.7462 4.64425C6.7462 4.45625 6.67679 4.31309 6.53796 4.21475C6.39913 4.11641 6.20535 4.06725 5.95662 4.06725C5.52278 4.06725 5.0282 4.20897 4.47289 4.49241L4 3.5423C4.64497 3.18077 5.32899 3 6.05206 3C6.64787 3 7.12075 3.14317 7.47072 3.4295C7.82357 3.71584 8 4.09761 8 4.57484C8 4.89299 7.92769 5.16775 7.78308 5.39913C7.63847 5.63051 7.3637 5.89082 6.95879 6.18004C6.68113 6.38539 6.5047 6.54158 6.4295 6.64859C6.35719 6.7556 6.32104 6.89588 6.32104 7.06941V7.32972H5.17137ZM5.03254 8.81345C5.03254 8.5705 5.09761 8.38684 5.22777 8.26247C5.35792 8.13811 5.54736 8.07592 5.7961 8.07592C6.03615 8.07592 6.22126 8.13955 6.35141 8.26681C6.48445 8.39407 6.55098 8.57628 6.55098 8.81345C6.55098 9.04194 6.48445 9.2227 6.35141 9.35575C6.21837 9.4859 6.03326 9.55098 5.7961 9.55098C5.55315 9.55098 5.36515 9.48735 5.2321 9.36009C5.09906 9.22993 5.03254 9.04772 5.03254 8.81345Z" fill="#6E7F95"/>
</svg>
