<svg width="18" height="18" viewBox="0 0 18 18" fill="none" xmlns="http://www.w3.org/2000/svg">
<circle cx="9" cy="9" r="8" stroke="#6480EB" stroke-width="2"/>
<path d="M7.68808 10.6093V10.7093H7.78808H9.54305H9.64305V10.6093V10.2119C9.64305 9.96072 9.69532 9.76824 9.79095 9.62629C9.89546 9.47802 10.1516 9.24867 10.5754 8.93519C11.1964 8.4915 11.6285 8.08513 11.8596 7.71525C12.0919 7.34367 12.206 6.9052 12.206 6.40397C12.206 5.64718 11.9244 5.03524 11.3612 4.57811C10.8041 4.12241 10.0575 3.9 9.13245 3.9C8.01117 3.9 6.95024 4.18053 5.9511 4.74058L5.86805 4.78714L5.91048 4.87237L6.63233 6.3227L6.67734 6.41314L6.76732 6.36721C7.60666 5.9388 8.34569 5.72914 8.98675 5.72914C9.35486 5.72914 9.62752 5.80214 9.81637 5.93591C9.99874 6.06509 10.0921 6.25142 10.0921 6.50993C10.0921 6.74495 10.0236 6.95623 9.88586 7.14669L9.88586 7.14668L9.88505 7.14783C9.74996 7.34023 9.45782 7.60118 8.99486 7.93187L8.99485 7.93186L8.99381 7.93263C8.50775 8.28937 8.16402 8.63246 7.973 8.96324C7.78181 9.29433 7.68808 9.68083 7.68808 10.1192V10.6093ZM9.65934 13.7735L9.66011 13.7727C9.88585 13.547 9.99404 13.2434 9.99404 12.8742C9.99404 12.4934 9.88674 12.186 9.65892 11.9679C9.43622 11.7503 9.12546 11.6483 8.74172 11.6483C8.34625 11.6483 8.0285 11.7473 7.80509 11.9608C7.5805 12.1754 7.47616 12.4859 7.47616 12.8742C7.47616 13.2513 7.58385 13.558 7.81086 13.7801L7.81167 13.7809C8.03871 13.998 8.35359 14.1 8.74172 14.1C9.12239 14.1 9.43281 13.9951 9.65934 13.7735Z" fill="#6480EB" stroke="#6480EB" stroke-width="0.2"/>
</svg>
