<svg width="126" height="126" viewBox="0 0 126 126" fill="none" xmlns="http://www.w3.org/2000/svg">
<g filter="url(#filter0_d)">
<rect x="15" y="9" width="96" height="96" rx="20" fill="white"/>
</g>
<path fill-rule="evenodd" clip-rule="evenodd" d="M60.8304 43.7728C60.8603 43.738 60.9633 43.672 61.1314 43.672H62.1429C62.3305 43.672 62.4364 43.7545 62.4475 43.7651C62.4505 43.7922 62.4552 43.8193 62.4623 43.8458L65.3191 55.0707C65.3873 55.3389 65.6414 55.5351 65.9078 55.5139L70.0954 55.376C72.2336 55.2251 75.5856 55.3094 76.3436 55.9688C76.363 55.9853 76.3854 56.0024 76.4066 56.0165C76.4189 56.0248 77.6256 56.8327 77.6886 57.8521C77.6256 58.8939 76.4183 59.7018 76.4077 59.7089C76.3848 59.723 76.3636 59.7401 76.3431 59.7572C75.5862 60.4148 72.2336 60.4985 70.0942 60.35C70.0466 60.3453 70.0007 60.3494 69.9554 60.3582L65.9054 60.225C65.6402 60.2144 65.385 60.4001 65.3167 60.6682L62.4623 71.8789C62.4552 71.9055 62.4546 71.9155 62.4517 71.9432C62.4364 71.9715 62.3305 72.0534 62.1429 72.0534H61.1314C60.9627 72.0534 60.8603 71.9874 60.8304 71.9526L61.616 60.7065C61.6384 60.3836 61.3978 60.1037 61.0762 60.0777L52.7956 59.416C52.5203 59.3901 52.2698 59.5645 52.1875 59.8267L51.2119 62.9368C51.1884 63.0011 51.1266 63.0453 51.0578 63.0453H50.1016C50.0116 63.0453 49.9381 62.9722 49.9381 62.882V52.8433C49.9381 52.7532 50.0116 52.6801 50.1016 52.6801H51.0472C51.1178 52.6801 51.1801 52.7249 51.1954 52.7714L52.1222 55.9046C52.201 56.1715 52.4539 56.3495 52.7326 56.3247L61.0762 55.6606C61.3978 55.6347 61.639 55.3542 61.616 55.0319L60.8304 43.7728ZM52.3175 52.4167C52.134 51.8693 51.6235 51.5016 51.0478 51.5016H50.1022C49.3636 51.5016 48.7626 52.1032 48.7626 52.8433V62.8815C48.7626 63.6216 49.3636 64.2232 50.1022 64.2232H51.0584C51.6235 64.2232 52.1304 63.8649 52.3275 63.3104L53.1696 60.6275L60.4028 61.205L59.6519 71.9685C59.6519 72.6762 60.3017 73.2319 61.132 73.2319H62.1435C62.8921 73.2319 63.5131 72.7652 63.6108 72.1388L66.34 61.4183L70.0348 61.5397C70.0683 61.5432 70.103 61.5391 70.1354 61.5338C71.2998 61.6086 75.7056 61.8125 77.0846 60.6735C77.3328 60.5032 78.77 59.4496 78.8641 57.8874C78.8641 57.8751 78.8641 57.8138 78.8629 57.802C78.7694 56.2734 77.3328 55.2222 77.0846 55.0519C75.6515 53.8686 70.9475 54.1344 70.0348 54.1992L66.3417 54.3206L63.6102 43.5866C63.5125 42.9602 62.8915 42.4935 62.1429 42.4935H61.1314C60.3017 42.4935 59.6513 43.0486 59.653 43.7987L60.4028 54.5327L53.1155 55.1126L52.3175 52.4167Z" fill="#6480EB" stroke="#6480EB" stroke-width="1.5"/>
<path fill-rule="evenodd" clip-rule="evenodd" d="M86.6627 49.8869C86.3681 49.7465 86.013 49.87 85.8718 50.1601L85.5001 50.9215C82.7089 40.9263 73.5355 34 62.9558 34C52.1509 34 42.8091 41.2211 40.2379 51.5611C40.1596 51.8733 40.3546 52.1885 40.673 52.2654C40.9908 52.3411 41.3121 52.1506 41.3892 51.8378C43.8306 42.0215 52.6993 35.1657 62.9558 35.1657C73.0156 35.1657 81.7366 41.764 84.3713 51.2797L83.6391 50.9326C83.3445 50.7927 82.9899 50.9139 82.8476 51.204C82.706 51.4935 82.8287 51.8419 83.1233 51.9817L85.1663 52.951C85.247 52.9895 85.3359 53.0093 85.4242 53.0093C85.4895 53.0093 85.5564 52.9982 85.6199 52.9761C85.7693 52.9248 85.8908 52.8182 85.959 52.6784L86.942 50.664C87.0831 50.3739 86.958 50.0255 86.6627 49.8869Z" fill="#6480EB" stroke="#6480EB" stroke-width="1.5"/>
<path fill-rule="evenodd" clip-rule="evenodd" d="M84.9256 61.9549C84.6088 61.8725 84.2919 62.0711 84.2149 62.3887C81.7862 72.3609 72.9959 79.3256 62.8378 79.3256C52.8531 79.3256 44.195 72.5949 41.5958 62.8954L42.364 63.3511C42.6444 63.517 43.0036 63.4228 43.1687 63.1407C43.3333 62.8586 43.2398 62.4954 42.9606 62.3294L41.0221 61.1798C40.8875 61.0998 40.7265 61.0779 40.5754 61.1176C40.4244 61.1573 40.295 61.2562 40.2163 61.3925L39.0801 63.3546C38.9167 63.6373 39.0113 64 39.2911 64.1647C39.3846 64.2198 39.4863 64.2459 39.5868 64.2459C39.789 64.2459 39.9859 64.1404 40.0952 63.952L40.482 63.2841C43.2451 73.4589 52.3464 80.512 62.8372 80.512C73.5384 80.512 82.7978 73.1763 85.3552 62.6725C85.4334 62.3537 85.2406 62.0325 84.9256 61.9549Z" fill="#6480EB" stroke="#6480EB" stroke-width="1.5"/>
<defs>
<filter id="filter0_d" x="0" y="0" width="126" height="126" filterUnits="userSpaceOnUse" color-interpolation-filters="sRGB">
<feFlood flood-opacity="0" result="BackgroundImageFix"/>
<feColorMatrix in="SourceAlpha" type="matrix" values="0 0 0 0 0 0 0 0 0 0 0 0 0 0 0 0 0 0 127 0"/>
<feOffset dy="6"/>
<feGaussianBlur stdDeviation="7.5"/>
<feColorMatrix type="matrix" values="0 0 0 0 0 0 0 0 0 0 0 0 0 0 0 0 0 0 0.05 0"/>
<feBlend mode="normal" in2="BackgroundImageFix" result="effect1_dropShadow"/>
<feBlend mode="normal" in="SourceGraphic" in2="effect1_dropShadow" result="shape"/>
</filter>
</defs>
</svg>
