<svg width="150" height="150" viewBox="0 0 150 150" fill="none" xmlns="http://www.w3.org/2000/svg">
<g filter="url(#filter0_d)">
<rect x="15" y="9" width="120" height="120" rx="20" fill="white"/>
</g>
<path d="M58.5514 99H56.4323V90.7695H53.7184V89.0059H61.2653V90.7695H58.5514V99ZM66.8507 91.2139C67.1332 91.2139 67.3679 91.2344 67.5548 91.2754L67.3976 93.2305C67.229 93.1849 67.0239 93.1621 66.7823 93.1621C66.117 93.1621 65.5974 93.333 65.2237 93.6748C64.8546 94.0166 64.67 94.4951 64.67 95.1104V99H62.5851V91.3574H64.1642L64.4718 92.6426H64.5743C64.8113 92.2142 65.1303 91.8701 65.5314 91.6104C65.937 91.346 66.3767 91.2139 66.8507 91.2139ZM73.7418 99L73.3384 97.9609H73.2837C72.9328 98.403 72.5705 98.7106 72.1968 98.8838C71.8277 99.0524 71.3446 99.1367 70.7476 99.1367C70.0139 99.1367 69.4351 98.9271 69.0113 98.5078C68.592 98.0885 68.3824 97.4915 68.3824 96.7168C68.3824 95.9056 68.6649 95.3086 69.23 94.9258C69.7997 94.5384 70.6565 94.3242 71.8003 94.2832L73.1265 94.2422V93.9072C73.1265 93.1325 72.73 92.7451 71.9371 92.7451C71.3264 92.7451 70.6086 92.9297 69.7837 93.2988L69.0933 91.8906C69.9729 91.4303 70.9481 91.2002 72.0191 91.2002C73.0445 91.2002 73.8306 91.4235 74.3775 91.8701C74.9244 92.3167 75.1978 92.9958 75.1978 93.9072V99H73.7418ZM73.1265 95.459L72.3199 95.4863C71.7138 95.5046 71.2626 95.6139 70.9664 95.8145C70.6701 96.015 70.522 96.3203 70.522 96.7305C70.522 97.3184 70.8593 97.6123 71.5337 97.6123C72.0168 97.6123 72.4019 97.4733 72.689 97.1953C72.9807 96.9173 73.1265 96.5482 73.1265 96.0879V95.459ZM79.1152 99L76.2031 91.3574H78.3838L79.8604 95.7119C80.0244 96.2633 80.127 96.7852 80.168 97.2773H80.209C80.2318 96.8398 80.3343 96.318 80.5166 95.7119L81.9863 91.3574H84.167L81.2549 99H79.1152ZM88.3784 92.6973C87.9363 92.6973 87.59 92.8385 87.3393 93.1211C87.0887 93.3991 86.9451 93.7956 86.9086 94.3105H89.8344C89.8253 93.7956 89.6909 93.3991 89.4311 93.1211C89.1713 92.8385 88.8204 92.6973 88.3784 92.6973ZM88.6723 99.1367C87.4418 99.1367 86.4803 98.7972 85.7875 98.1182C85.0948 97.4391 84.7485 96.4775 84.7485 95.2334C84.7485 93.9528 85.0675 92.9639 85.7055 92.2666C86.3481 91.5648 87.2345 91.2139 88.3647 91.2139C89.4448 91.2139 90.2856 91.5215 90.8872 92.1367C91.4887 92.752 91.7895 93.6019 91.7895 94.6865V95.6982H86.8608C86.8836 96.2907 87.059 96.7533 87.3872 97.0859C87.7153 97.4186 88.1756 97.585 88.768 97.585C89.2283 97.585 89.6635 97.5371 90.0737 97.4414C90.4838 97.3457 90.9122 97.193 91.3588 96.9834V98.5967C90.9942 98.779 90.6046 98.9134 90.1899 99C89.7752 99.0911 89.2693 99.1367 88.6723 99.1367ZM95.5155 99H93.4306V88.3633H95.5155V99Z" fill="#2C3652"/>
<path fill-rule="evenodd" clip-rule="evenodd" d="M73.1482 43.1712C73.1731 43.1421 73.2587 43.0869 73.3985 43.0869H74.2394C74.3953 43.0869 74.4833 43.1559 74.4926 43.1648C74.495 43.1874 74.499 43.2101 74.5048 43.2323L76.8798 52.6175C76.9365 52.8416 77.1477 53.0057 77.3691 52.988L80.8504 52.8727C82.628 52.7465 85.4146 52.817 86.0448 53.3683C86.0609 53.3821 86.0795 53.3964 86.0971 53.4082C86.1073 53.4151 87.1105 54.0906 87.1628 54.9429C87.1105 55.814 86.1068 56.4895 86.0981 56.4954C86.079 56.5072 86.0614 56.5215 86.0443 56.5358C85.4151 57.0856 82.628 57.1556 80.8495 57.0314C80.8099 57.0275 80.7717 57.0309 80.7341 57.0383L77.3672 56.927C77.1467 56.9181 76.9345 57.0733 76.8778 57.2975L74.5048 66.6708C74.499 66.693 74.4985 66.7014 74.496 66.7245C74.4833 66.7482 74.3953 66.8167 74.2394 66.8167H73.3985C73.2582 66.8167 73.1731 66.7615 73.1482 66.7324L73.8013 57.3295C73.8199 57.0595 73.62 56.8255 73.3525 56.8038L66.4687 56.2505C66.2399 56.2288 66.0316 56.3747 65.9632 56.5939L65.1521 59.1943C65.1326 59.248 65.0812 59.285 65.024 59.285H64.2291C64.1543 59.285 64.0932 59.2239 64.0932 59.1485V50.7551C64.0932 50.6797 64.1543 50.6186 64.2291 50.6186H65.0152C65.0739 50.6186 65.1257 50.6561 65.1384 50.695L65.9089 53.3146C65.9744 53.5378 66.1846 53.6866 66.4163 53.6659L73.3525 53.1106C73.62 53.089 73.8204 52.8544 73.8013 52.5849L73.1482 43.1712ZM66.0712 50.3984C65.9187 49.9407 65.4943 49.6333 65.0157 49.6333H64.2296C63.6156 49.6333 63.1159 50.1363 63.1159 50.7551V59.148C63.1159 59.7668 63.6156 60.2699 64.2296 60.2699H65.0245C65.4943 60.2699 65.9157 59.9703 66.0795 59.5067L66.7796 57.2635L72.7928 57.7463L72.1685 66.7457C72.1685 67.3374 72.7087 67.802 73.399 67.802H74.2398C74.8622 67.802 75.3784 67.4118 75.4596 66.8881L77.7285 57.9247L80.8001 58.0262C80.828 58.0291 80.8568 58.0257 80.8837 58.0212C81.8517 58.0838 85.5143 58.2543 86.6607 57.3019C86.8671 57.1595 88.0619 56.2786 88.1401 54.9725C88.1401 54.9622 88.1401 54.9109 88.1391 54.9011C88.0614 53.623 86.8671 52.7441 86.6607 52.6017C85.4694 51.6124 81.5588 51.8346 80.8001 51.8888L77.7299 51.9903L75.4591 43.0155C75.378 42.4918 74.8617 42.1016 74.2394 42.1016H73.3985C72.7087 42.1016 72.168 42.5657 72.1695 43.1929L72.7928 52.1676L66.7346 52.6524L66.0712 50.3984Z" fill="#6480EB"/>
<path d="M73.1482 43.1712L72.7687 42.8457L72.6352 43.0013L72.6494 43.2058L73.1482 43.1712ZM74.4926 43.1648L74.9897 43.1112L74.9701 42.9294L74.8379 42.8031L74.4926 43.1648ZM74.5048 43.2323L74.9896 43.1096L74.9882 43.1044L74.5048 43.2323ZM76.8798 52.6175L77.3645 52.4948L77.3645 52.4948L76.8798 52.6175ZM77.3691 52.988L77.3526 52.4882L77.3409 52.4886L77.3292 52.4896L77.3691 52.988ZM80.8504 52.8727L80.867 53.3724L80.8764 53.3721L80.8858 53.3714L80.8504 52.8727ZM86.0448 53.3683L85.7155 53.7446L85.7198 53.7483L86.0448 53.3683ZM86.0971 53.4082L85.8182 53.8232L86.0971 53.4082ZM87.1628 54.9429L87.6619 54.9729L87.6637 54.9426L87.6619 54.9123L87.1628 54.9429ZM86.0981 56.4954L86.3616 56.9203L86.3693 56.9155L86.3769 56.9104L86.0981 56.4954ZM86.0443 56.5358L85.7237 56.1519L85.7153 56.1593L86.0443 56.5358ZM80.8495 57.0314L80.7999 57.529L80.8073 57.5297L80.8146 57.5302L80.8495 57.0314ZM80.7341 57.0383L80.7176 57.5381L80.7745 57.5399L80.8304 57.529L80.7341 57.0383ZM77.3672 56.927L77.3471 57.4266L77.3507 57.4267L77.3672 56.927ZM76.8778 57.2975L77.3625 57.4202L77.3626 57.4201L76.8778 57.2975ZM74.5048 66.6708L74.9882 66.7987L74.9895 66.7935L74.5048 66.6708ZM74.496 66.7245L74.9364 66.9613L74.9829 66.8747L74.9933 66.777L74.496 66.7245ZM73.1482 66.7324L72.6494 66.6978L72.6352 66.9023L72.7687 67.0579L73.1482 66.7324ZM73.8013 57.3295L74.3001 57.3642L74.3001 57.3638L73.8013 57.3295ZM73.3525 56.8038L73.3929 56.3054L73.3926 56.3054L73.3525 56.8038ZM66.4687 56.2505L66.4215 56.7483L66.4286 56.7489L66.4687 56.2505ZM65.9632 56.5939L65.4859 56.4449L65.4858 56.4451L65.9632 56.5939ZM65.1521 59.1943L65.6219 59.3654L65.6259 59.3544L65.6294 59.3432L65.1521 59.1943ZM65.1384 50.695L65.6181 50.5539L65.616 50.5468L65.6137 50.5398L65.1384 50.695ZM65.9089 53.3146L66.3887 53.1738L66.3886 53.1735L65.9089 53.3146ZM66.4163 53.6659L66.3764 53.1675L66.3719 53.1679L66.4163 53.6659ZM73.3525 53.1106L73.3924 53.609L73.3929 53.609L73.3525 53.1106ZM73.8013 52.5849L73.3025 52.6195L73.3026 52.6202L73.8013 52.5849ZM66.0712 50.3984L66.5509 50.2572L66.5484 50.2487L66.5456 50.2403L66.0712 50.3984ZM66.0795 59.5067L66.551 59.6732L66.554 59.6645L66.5568 59.6556L66.0795 59.5067ZM66.7796 57.2635L66.8196 56.7651L66.4213 56.7331L66.3023 57.1145L66.7796 57.2635ZM72.7928 57.7463L73.2916 57.7809L73.3258 57.2875L72.8328 57.2479L72.7928 57.7463ZM72.1685 66.7457L71.6697 66.7111L71.6685 66.7284V66.7457H72.1685ZM75.4596 66.8881L74.9749 66.7654L74.9691 66.7883L74.9655 66.8116L75.4596 66.8881ZM77.7285 57.9247L77.745 57.4249L77.3426 57.4116L77.2438 57.802L77.7285 57.9247ZM80.8001 58.0262L80.8528 57.529L80.8348 57.527L80.8166 57.5264L80.8001 58.0262ZM80.8837 58.0212L80.9159 57.5223L80.8588 57.5186L80.8023 57.5279L80.8837 58.0212ZM86.6607 57.3019L86.3767 56.8904L86.3584 56.9031L86.3412 56.9173L86.6607 57.3019ZM88.1401 54.9725L88.6392 55.0024L88.6401 54.9875V54.9725H88.1401ZM88.1391 54.9011L87.64 54.9314L87.6406 54.9409L87.6416 54.9504L88.1391 54.9011ZM86.6607 52.6017L86.3413 52.9864L86.3584 53.0006L86.3767 53.0132L86.6607 52.6017ZM80.8001 51.8888L80.8166 52.3885L80.8262 52.3882L80.8357 52.3875L80.8001 51.8888ZM77.7299 51.9903L77.2452 52.1129L77.344 52.5033L77.7465 52.49L77.7299 51.9903ZM75.4591 43.0155L74.965 43.0921L74.9686 43.1153L74.9744 43.1381L75.4591 43.0155ZM72.1695 43.1929L71.6695 43.194L71.6695 43.2108L71.6707 43.2275L72.1695 43.1929ZM72.7928 52.1676L72.8327 52.666L73.3258 52.6266L73.2916 52.133L72.7928 52.1676ZM66.7346 52.6524L66.2549 52.7936L66.3696 53.1832L66.7745 53.1508L66.7346 52.6524ZM73.5277 43.4967C73.4973 43.5322 73.4703 43.5518 73.458 43.5601C73.4428 43.5703 73.4305 43.5764 73.422 43.5799C73.4039 43.5875 73.3951 43.5869 73.3985 43.5869V42.5869C73.1413 42.5869 72.9057 42.6859 72.7687 42.8457L73.5277 43.4967ZM73.3985 43.5869H74.2394V42.5869H73.3985V43.5869ZM74.2394 43.5869C74.2419 43.5869 74.2359 43.5872 74.2234 43.5818C74.2176 43.5793 74.2101 43.5755 74.2006 43.5694C74.1958 43.5664 74.19 43.5623 74.183 43.557C74.1795 43.5544 74.1752 43.551 74.1702 43.5468C74.1661 43.5434 74.1577 43.5363 74.1473 43.5264L74.8379 42.8031C74.7491 42.7183 74.5414 42.5869 74.2394 42.5869V43.5869ZM73.9955 43.2184C74.0002 43.262 74.0081 43.3099 74.0215 43.3602L74.9882 43.1044C74.9898 43.1103 74.9899 43.1129 74.9897 43.1112L73.9955 43.2184ZM74.0201 43.3549L76.3951 52.7401L77.3645 52.4948L74.9895 43.1096L74.0201 43.3549ZM76.3951 52.7401C76.505 53.1747 76.9186 53.5256 77.4091 53.4864L77.3292 52.4896C77.3418 52.4885 77.3518 52.4904 77.358 52.4923C77.361 52.4933 77.363 52.4942 77.3642 52.4949C77.3654 52.4955 77.366 52.4959 77.366 52.4959C77.366 52.496 77.3658 52.4958 77.3654 52.4954C77.3651 52.495 77.3647 52.4945 77.3644 52.4941C77.3639 52.4933 77.3641 52.4934 77.3645 52.4948L76.3951 52.7401ZM77.3857 53.4877L80.867 53.3724L80.8339 52.3729L77.3526 52.4882L77.3857 53.4877ZM80.8858 53.3714C81.7544 53.3098 82.8715 53.2963 83.8425 53.3652C84.3287 53.3997 84.7656 53.454 85.111 53.5291C85.4821 53.6099 85.6619 53.6977 85.7155 53.7446L86.374 52.992C86.1126 52.7633 85.7077 52.6356 85.3236 52.552C84.9137 52.4628 84.4247 52.404 83.9133 52.3677C82.889 52.295 81.7241 52.3094 80.8151 52.3739L80.8858 53.3714ZM85.7198 53.7483C85.749 53.7732 85.7829 53.7995 85.8182 53.8232L86.3759 52.9932C86.3766 52.9937 86.3759 52.9932 86.374 52.9918C86.3723 52.9904 86.3707 52.9892 86.3697 52.9883L85.7198 53.7483ZM85.8182 53.8232C85.8086 53.8167 86.0272 53.9631 86.2492 54.2002C86.4828 54.4498 86.6484 54.7239 86.6638 54.9736L87.6619 54.9123C87.6249 54.3097 87.2628 53.8198 86.9792 53.5168C86.6839 53.2014 86.3959 53.0066 86.3759 52.9932L85.8182 53.8232ZM86.6637 54.913C86.648 55.1742 86.4798 55.4534 86.2477 55.7034C86.0262 55.9419 85.8084 56.0876 85.8192 56.0804L86.3769 56.9104C86.3965 56.8972 86.6849 56.7022 86.9805 56.3838C87.2656 56.0768 87.6253 55.5828 87.6619 54.9729L86.6637 54.913ZM85.8345 56.0705C85.7827 56.1026 85.7414 56.1373 85.7238 56.152L86.3647 56.9196C86.3682 56.9167 86.3705 56.9148 86.3723 56.9133C86.374 56.912 86.3746 56.9115 86.3745 56.9116C86.3745 56.9116 86.3698 56.9152 86.3616 56.9203L85.8345 56.0705ZM85.7153 56.1593C85.662 56.2059 85.4825 56.2935 85.1112 56.374C84.7658 56.449 84.3289 56.5031 83.8425 56.5376C82.8713 56.6064 81.7536 56.5933 80.8843 56.5326L80.8146 57.5302C81.7239 57.5937 82.8889 57.6077 83.9132 57.5351C84.4246 57.4989 84.9136 57.4402 85.3233 57.3513C85.7072 57.268 86.112 57.1406 86.3733 56.9123L85.7153 56.1593ZM80.899 56.5339C80.7982 56.5239 80.7093 56.5336 80.6378 56.5477L80.8304 57.529C80.8341 57.5282 80.8215 57.5311 80.7999 57.529L80.899 56.5339ZM80.7506 56.5386L77.3837 56.4273L77.3507 57.4267L80.7176 57.5381L80.7506 56.5386ZM77.3873 56.4274C76.9291 56.409 76.5074 56.7229 76.3931 57.1749L77.3626 57.4201C77.361 57.4261 77.3587 57.4266 77.3609 57.425C77.3617 57.4244 77.3617 57.4247 77.36 57.4252C77.3582 57.4258 77.3539 57.4269 77.3471 57.4266L77.3873 56.4274ZM76.3931 57.1748L74.0201 66.5481L74.9895 66.7935L77.3625 57.4202L76.3931 57.1748ZM74.0215 66.5429C74.015 66.5674 74.0091 66.5934 74.0046 66.6233C74.0027 66.6364 74.0014 66.6476 74.0006 66.655C74 66.6603 73.999 66.6701 73.9988 66.6721L74.9933 66.777C74.9936 66.7736 74.994 66.7703 74.9942 66.7682C74.9944 66.7658 74.9945 66.7647 74.9946 66.764C74.9948 66.7627 74.9944 66.766 74.9936 66.7713C74.9927 66.7773 74.9916 66.7835 74.9903 66.7896C74.9892 66.7951 74.9882 66.7985 74.9882 66.7987L74.0215 66.5429ZM74.0556 66.4878C74.083 66.4368 74.1127 66.4041 74.1252 66.391C74.141 66.3743 74.1549 66.3625 74.1646 66.3549C74.1843 66.3396 74.2001 66.331 74.2102 66.3263C74.2321 66.3161 74.2431 66.3167 74.2394 66.3167V67.3167C74.3916 67.3167 74.5245 67.283 74.6326 67.2327C74.6858 67.2079 74.7357 67.1778 74.7803 67.1429C74.8112 67.1188 74.8841 67.0587 74.9364 66.9613L74.0556 66.4878ZM74.2394 66.3167H73.3985V67.3167H74.2394V66.3167ZM73.3985 66.3167C73.3947 66.3167 73.4035 66.3161 73.422 66.3238C73.4308 66.3274 73.4432 66.3335 73.4585 66.3439C73.4709 66.3523 73.4976 66.3718 73.5277 66.4069L72.7687 67.0579C72.9055 67.2175 73.1404 67.3167 73.3985 67.3167V66.3167ZM73.647 66.7671L74.3001 57.3642L73.3025 57.2949L72.6494 66.6978L73.647 66.7671ZM74.3001 57.3638C74.3373 56.8243 73.9368 56.3495 73.3929 56.3054L73.3121 57.3022C73.3112 57.3021 73.3092 57.3016 73.3071 57.3006C73.3053 57.2996 73.3044 57.2987 73.3039 57.2982C73.3035 57.2977 73.3031 57.2971 73.3028 57.2962C73.3024 57.2951 73.3026 57.2944 73.3025 57.2952L74.3001 57.3638ZM73.3926 56.3054L66.5087 55.7521L66.4286 56.7489L73.3125 57.3022L73.3926 56.3054ZM66.5158 55.7528C66.0399 55.7077 65.6211 56.0117 65.4859 56.4449L66.4404 56.7429C66.4409 56.7414 66.441 56.7426 66.4385 56.7443C66.4371 56.7452 66.4348 56.7465 66.4314 56.7474C66.4278 56.7483 66.4242 56.7486 66.4215 56.7483L66.5158 55.7528ZM65.4858 56.4451L64.6748 59.0455L65.6294 59.3432L66.4405 56.7428L65.4858 56.4451ZM64.6823 59.0232C64.7326 58.8852 64.865 58.785 65.024 58.785V59.785C65.2974 59.785 65.5325 59.6109 65.6219 59.3654L64.6823 59.0232ZM65.024 58.785H64.2291V59.785H65.024V58.785ZM64.2291 58.785C64.4318 58.785 64.5932 58.9491 64.5932 59.1485H63.5932C63.5932 59.4987 63.8769 59.785 64.2291 59.785V58.785ZM64.5932 59.1485V50.7551H63.5932V59.1485H64.5932ZM64.5932 50.7551C64.5932 50.9545 64.4318 51.1186 64.2291 51.1186V50.1186C63.8769 50.1186 63.5932 50.4049 63.5932 50.7551H64.5932ZM64.2291 51.1186H65.0152V50.1186H64.2291V51.1186ZM65.0152 51.1186C64.9397 51.1186 64.8737 51.0953 64.8215 51.0614C64.7758 51.0317 64.7014 50.9675 64.6631 50.8502L65.6137 50.5398C65.5627 50.3836 65.456 50.2812 65.3666 50.223C65.2707 50.1607 65.1494 50.1186 65.0152 50.1186V51.1186ZM64.6587 50.8361L65.4292 53.4557L66.3886 53.1735L65.6181 50.5539L64.6587 50.8361ZM65.4291 53.4554C65.5593 53.8988 65.9826 54.2066 66.4608 54.1639L66.3719 53.1679C66.3739 53.1677 66.3768 53.1679 66.3799 53.1687C66.3828 53.1695 66.3849 53.1706 66.3861 53.1715C66.3886 53.1732 66.3889 53.1747 66.3887 53.1738L65.4291 53.4554ZM66.4562 54.1643L73.3924 53.609L73.3126 52.6122L66.3764 53.1675L66.4562 54.1643ZM73.3929 53.609C73.9362 53.565 74.3383 53.09 74.3001 52.5497L73.3026 52.6202C73.3026 52.6205 73.3026 52.6195 73.303 52.6181C73.3034 52.6171 73.3038 52.6164 73.3041 52.616C73.3045 52.6156 73.3053 52.6148 73.307 52.6139C73.309 52.6128 73.3111 52.6124 73.3121 52.6123L73.3929 53.609ZM74.3001 52.5503L73.647 43.1366L72.6494 43.2058L73.3025 52.6195L74.3001 52.5503ZM66.5456 50.2403C66.3257 49.5805 65.7117 49.1333 65.0157 49.1333V50.1333C65.2769 50.1333 65.5117 50.3009 65.5968 50.5565L66.5456 50.2403ZM65.0157 49.1333H64.2296V50.1333H65.0157V49.1333ZM64.2296 49.1333C63.3361 49.1333 62.6159 49.8635 62.6159 50.7551H63.6159C63.6159 50.4091 63.8951 50.1333 64.2296 50.1333V49.1333ZM62.6159 50.7551V59.148H63.6159V50.7551H62.6159ZM62.6159 59.148C62.6159 60.0396 63.3361 60.7699 64.2296 60.7699V59.7699C63.8951 59.7699 63.6159 59.4941 63.6159 59.148H62.6159ZM64.2296 60.7699H65.0245V59.7699H64.2296V60.7699ZM65.0245 60.7699C65.713 60.7699 66.3189 60.3303 66.551 59.6732L65.6081 59.3401C65.5126 59.6103 65.2757 59.7699 65.0245 59.7699V60.7699ZM66.5568 59.6556L67.2569 57.4124L66.3023 57.1145L65.6022 59.3577L66.5568 59.6556ZM66.7396 57.7619L72.7528 58.2447L72.8328 57.2479L66.8196 56.7651L66.7396 57.7619ZM72.294 57.7117L71.6697 66.7111L72.6673 66.7803L73.2916 57.7809L72.294 57.7117ZM71.6685 66.7457C71.6685 67.6822 72.5066 68.302 73.399 68.302V67.302C72.9108 67.302 72.6685 66.9927 72.6685 66.7457H71.6685ZM73.399 68.302H74.2398V67.302H73.399V68.302ZM74.2398 68.302C75.0503 68.302 75.8265 67.7857 75.9537 66.9647L74.9655 66.8116C74.9304 67.038 74.6741 67.302 74.2398 67.302V68.302ZM75.9443 67.0108L78.2132 58.0474L77.2438 57.802L74.9749 66.7654L75.9443 67.0108ZM77.712 58.4244L80.7836 58.5259L80.8166 57.5264L77.745 57.4249L77.712 58.4244ZM80.7473 58.5234C80.8452 58.5338 80.9291 58.5205 80.965 58.5146L80.8023 57.5279C80.7958 57.529 80.7982 57.5284 80.8051 57.5279C80.8122 57.5273 80.8292 57.5265 80.8528 57.529L80.7473 58.5234ZM80.8514 58.5202C81.3432 58.552 82.5243 58.6117 83.7343 58.5413C84.3388 58.5062 84.964 58.4379 85.5203 58.3127C86.0635 58.1904 86.6013 58.0013 86.9802 57.6865L86.3412 56.9173C86.1469 57.0787 85.7971 57.2254 85.3008 57.3371C84.8177 57.4458 84.2518 57.5096 83.6763 57.543C82.5263 57.6099 81.3921 57.5531 80.9159 57.5223L80.8514 58.5202ZM86.9448 57.7134C87.0688 57.6278 87.4587 57.3425 87.8326 56.8936C88.2045 56.4471 88.5913 55.8014 88.6392 55.0024L87.641 54.9426C87.6106 55.4497 87.3609 55.8975 87.0643 56.2536C86.7696 56.6073 86.459 56.8336 86.3767 56.8904L86.9448 57.7134ZM88.6401 54.9725C88.6401 54.9673 88.6401 54.9501 88.64 54.9326C88.6399 54.9307 88.64 54.8854 88.6367 54.8517L87.6416 54.9504C87.6411 54.9457 87.6408 54.9418 87.6406 54.9391C87.6404 54.9364 87.6402 54.9341 87.6401 54.9325C87.64 54.9294 87.6399 54.9272 87.6398 54.9263C87.6398 54.9246 87.6398 54.9242 87.6398 54.9257C87.6399 54.9288 87.6399 54.9339 87.64 54.9406C87.6401 54.9537 87.6401 54.9674 87.6401 54.9725H88.6401ZM88.6382 54.8707C88.5903 54.0834 88.2016 53.4447 87.8308 53.0037C87.4574 52.5597 87.0681 52.2753 86.9448 52.1902L86.3767 53.0132C86.4597 53.0704 86.7707 53.2968 87.0655 53.6473C87.3628 54.0009 87.6102 54.4407 87.64 54.9314L88.6382 54.8707ZM86.9802 52.217C86.5873 51.8908 86.0221 51.6986 85.4542 51.5765C84.8718 51.4512 84.2181 51.3859 83.5933 51.3545C82.3424 51.2917 81.1521 51.3624 80.7645 51.39L80.8357 52.3875C81.2068 52.361 82.3511 52.2934 83.5431 52.3533C84.1397 52.3832 84.7344 52.4445 85.244 52.5541C85.7681 52.6669 86.1385 52.818 86.3413 52.9864L86.9802 52.217ZM80.7836 51.389L77.7134 51.4905L77.7465 52.49L80.8166 52.3885L80.7836 51.389ZM78.2147 51.8676L75.9438 42.8928L74.9744 43.1381L77.2452 52.1129L78.2147 51.8676ZM75.9532 42.9389C75.826 42.1179 75.0498 41.6016 74.2394 41.6016V42.6016C74.6736 42.6016 74.9299 42.8656 74.965 43.0921L75.9532 42.9389ZM74.2394 41.6016H73.3985V42.6016H74.2394V41.6016ZM73.3985 41.6016C72.4959 41.6016 71.6672 42.2304 71.6695 43.194L72.6695 43.1917C72.6688 42.9009 72.9214 42.6016 73.3985 42.6016V41.6016ZM71.6707 43.2275L72.294 52.2023L73.2916 52.133L72.6683 43.1582L71.6707 43.2275ZM72.7529 51.6692L66.6947 52.154L66.7745 53.1508L72.8327 52.666L72.7529 51.6692ZM67.2143 52.5113L66.5509 50.2572L65.5915 50.5396L66.2549 52.7936L67.2143 52.5113Z" fill="#6480EB"/>
<path fill-rule="evenodd" clip-rule="evenodd" d="M94.623 48.2831C94.3781 48.1657 94.0828 48.269 93.9655 48.5115L93.6565 49.1481C91.3361 40.7911 83.71 35 74.9149 35C65.9325 35 58.1664 41.0376 56.0289 49.6829C55.9638 49.944 56.126 50.2075 56.3906 50.2717C56.6548 50.3351 56.9219 50.1758 56.986 49.9142C59.0156 41.7068 66.3883 35.9746 74.9149 35.9746C83.2778 35.9746 90.5278 41.4915 92.7181 49.4476L92.1094 49.1574C91.8645 49.0405 91.5697 49.1418 91.4514 49.3843C91.3336 49.6264 91.4357 49.9177 91.6806 50.0345L93.379 50.845C93.446 50.8772 93.52 50.8937 93.5934 50.8937C93.6476 50.8937 93.7033 50.8845 93.7561 50.866C93.8803 50.8231 93.9813 50.734 94.038 50.6171L94.8551 48.9328C94.9725 48.6903 94.8685 48.399 94.623 48.2831Z" fill="#6480EB"/>
<path d="M94.623 48.2831C94.3781 48.1657 94.0828 48.269 93.9655 48.5115L93.6565 49.1481C91.3361 40.7911 83.71 35 74.9149 35C65.9325 35 58.1664 41.0376 56.0289 49.6829C55.9638 49.944 56.126 50.2075 56.3906 50.2717C56.6548 50.3351 56.9219 50.1758 56.986 49.9142C59.0156 41.7068 66.3883 35.9746 74.9149 35.9746C83.2778 35.9746 90.5278 41.4915 92.7181 49.4476L92.1094 49.1574C91.8645 49.0405 91.5697 49.1418 91.4514 49.3843C91.3336 49.6264 91.4357 49.9177 91.6806 50.0345L93.379 50.845C93.4461 50.8772 93.52 50.8937 93.5934 50.8937C93.6476 50.8937 93.7033 50.8845 93.7561 50.866C93.8803 50.8231 93.9813 50.734 94.038 50.6171L94.8551 48.9328C94.9724 48.6903 94.8685 48.399 94.623 48.2831" stroke="#6480EB"/>
<path fill-rule="evenodd" clip-rule="evenodd" d="M93.1791 58.3732C92.9157 58.3044 92.6523 58.4703 92.5883 58.7359C90.5692 67.0737 83.2616 72.8969 74.8169 72.8969C66.5164 72.8969 59.3187 67.2694 57.158 59.1595L57.7966 59.5405C58.0297 59.6793 58.3283 59.6005 58.4656 59.3647C58.6024 59.1288 58.5247 58.8251 58.2926 58.6864L56.6811 57.7251C56.5692 57.6583 56.4353 57.6399 56.3097 57.6731C56.1841 57.7063 56.0766 57.7891 56.0111 57.903L55.0666 59.5435C54.9307 59.7799 55.0094 60.0831 55.242 60.2208C55.3197 60.2669 55.4042 60.2887 55.4878 60.2887C55.6559 60.2887 55.8196 60.2005 55.9105 60.043L56.232 59.4846C58.5291 67.9918 66.0952 73.8889 74.8165 73.8889C83.7126 73.8889 91.4102 67.7554 93.5363 58.9732C93.6013 58.7067 93.441 58.4381 93.1791 58.3732Z" fill="#6480EB"/>
<path d="M93.1791 58.3732C92.9157 58.3044 92.6523 58.4703 92.5883 58.7359C90.5692 67.0737 83.2616 72.8969 74.8169 72.8969C66.5164 72.8969 59.3187 67.2694 57.158 59.1595L57.7966 59.5405C58.0297 59.6793 58.3283 59.6005 58.4656 59.3647C58.6024 59.1288 58.5247 58.8251 58.2926 58.6864L56.6811 57.7251C56.5692 57.6583 56.4353 57.6399 56.3097 57.6731C56.1841 57.7063 56.0766 57.7891 56.0111 57.903L55.0666 59.5435C54.9307 59.7799 55.0094 60.0831 55.242 60.2208C55.3197 60.2669 55.4042 60.2887 55.4878 60.2887C55.6559 60.2887 55.8196 60.2005 55.9105 60.043L56.232 59.4846C58.5291 67.9918 66.0952 73.8889 74.8165 73.8889C83.7126 73.8889 91.4102 67.7554 93.5363 58.9732C93.6013 58.7067 93.441 58.4381 93.1791 58.3732" stroke="#6480EB"/>
<defs>
<filter id="filter0_d" x="0" y="0" width="150" height="150" filterUnits="userSpaceOnUse" color-interpolation-filters="sRGB">
<feFlood flood-opacity="0" result="BackgroundImageFix"/>
<feColorMatrix in="SourceAlpha" type="matrix" values="0 0 0 0 0 0 0 0 0 0 0 0 0 0 0 0 0 0 127 0"/>
<feOffset dy="6"/>
<feGaussianBlur stdDeviation="7.5"/>
<feColorMatrix type="matrix" values="0 0 0 0 0 0 0 0 0 0 0 0 0 0 0 0 0 0 0.05 0"/>
<feBlend mode="normal" in2="BackgroundImageFix" result="effect1_dropShadow"/>
<feBlend mode="normal" in="SourceGraphic" in2="effect1_dropShadow" result="shape"/>
</filter>
</defs>
</svg>
