<svg width="150" height="150" viewBox="0 0 150 150" fill="none" xmlns="http://www.w3.org/2000/svg">
<g filter="url(#filter0_d)">
<rect x="15" y="9" width="120" height="120" rx="20" fill="white"/>
</g>
<path d="M58.5514 99H56.4323V90.7695H53.7184V89.0059H61.2653V90.7695H58.5514V99ZM66.8507 91.2139C67.1332 91.2139 67.3679 91.2344 67.5548 91.2754L67.3976 93.2305C67.229 93.1849 67.0239 93.1621 66.7823 93.1621C66.117 93.1621 65.5974 93.333 65.2237 93.6748C64.8546 94.0166 64.67 94.4951 64.67 95.1104V99H62.5851V91.3574H64.1642L64.4718 92.6426H64.5743C64.8113 92.2142 65.1303 91.8701 65.5314 91.6104C65.937 91.346 66.3767 91.2139 66.8507 91.2139ZM73.7418 99L73.3384 97.9609H73.2837C72.9328 98.403 72.5705 98.7106 72.1968 98.8838C71.8277 99.0524 71.3446 99.1367 70.7476 99.1367C70.0139 99.1367 69.4351 98.9271 69.0113 98.5078C68.592 98.0885 68.3824 97.4915 68.3824 96.7168C68.3824 95.9056 68.6649 95.3086 69.23 94.9258C69.7997 94.5384 70.6565 94.3242 71.8003 94.2832L73.1265 94.2422V93.9072C73.1265 93.1325 72.73 92.7451 71.9371 92.7451C71.3264 92.7451 70.6086 92.9297 69.7837 93.2988L69.0933 91.8906C69.9729 91.4303 70.9481 91.2002 72.0191 91.2002C73.0445 91.2002 73.8306 91.4235 74.3775 91.8701C74.9244 92.3167 75.1978 92.9958 75.1978 93.9072V99H73.7418ZM73.1265 95.459L72.3199 95.4863C71.7138 95.5046 71.2626 95.6139 70.9664 95.8145C70.6701 96.015 70.522 96.3203 70.522 96.7305C70.522 97.3184 70.8593 97.6123 71.5337 97.6123C72.0168 97.6123 72.4019 97.4733 72.689 97.1953C72.9807 96.9173 73.1265 96.5482 73.1265 96.0879V95.459ZM79.1152 99L76.2031 91.3574H78.3838L79.8604 95.7119C80.0244 96.2633 80.127 96.7852 80.168 97.2773H80.209C80.2318 96.8398 80.3343 96.318 80.5166 95.7119L81.9863 91.3574H84.167L81.2549 99H79.1152ZM88.3784 92.6973C87.9363 92.6973 87.59 92.8385 87.3393 93.1211C87.0887 93.3991 86.9451 93.7956 86.9086 94.3105H89.8344C89.8253 93.7956 89.6909 93.3991 89.4311 93.1211C89.1713 92.8385 88.8204 92.6973 88.3784 92.6973ZM88.6723 99.1367C87.4418 99.1367 86.4803 98.7972 85.7875 98.1182C85.0948 97.4391 84.7485 96.4775 84.7485 95.2334C84.7485 93.9528 85.0675 92.9639 85.7055 92.2666C86.3481 91.5648 87.2345 91.2139 88.3647 91.2139C89.4448 91.2139 90.2856 91.5215 90.8872 92.1367C91.4887 92.752 91.7895 93.6019 91.7895 94.6865V95.6982H86.8608C86.8836 96.2907 87.059 96.7533 87.3872 97.0859C87.7153 97.4186 88.1756 97.585 88.768 97.585C89.2283 97.585 89.6635 97.5371 90.0737 97.4414C90.4838 97.3457 90.9122 97.193 91.3588 96.9834V98.5967C90.9942 98.779 90.6046 98.9134 90.1899 99C89.7752 99.0911 89.2693 99.1367 88.6723 99.1367ZM95.5155 99H93.4306V88.3633H95.5155V99Z" fill="#2C3652"/>
<path fill-rule="evenodd" clip-rule="evenodd" d="M73.1482 43.1711C73.1731 43.142 73.2587 43.0868 73.3985 43.0868H74.2394C74.3953 43.0868 74.4833 43.1558 74.4926 43.1647C74.495 43.1873 74.499 43.21 74.5048 43.2322L76.8798 52.6173C76.9365 52.8415 77.1477 53.0056 77.3692 52.9878L80.8505 52.8726C82.628 52.7464 85.4146 52.8169 86.0448 53.3682C86.0609 53.382 86.0795 53.3963 86.0971 53.4081C86.1073 53.415 87.1105 54.0905 87.1628 54.9428C87.1105 55.8139 86.1069 56.4894 86.0981 56.4953C86.079 56.5071 86.0614 56.5214 86.0443 56.5357C85.4151 57.0855 82.628 57.1555 80.8495 57.0313C80.8099 57.0274 80.7717 57.0308 80.7341 57.0382L77.3672 56.9269C77.1467 56.918 76.9345 57.0732 76.8778 57.2974L74.5048 66.6707C74.499 66.6929 74.4985 66.7013 74.496 66.7244C74.4833 66.7481 74.3953 66.8166 74.2394 66.8166H73.3985C73.2582 66.8166 73.1731 66.7614 73.1482 66.7323L73.8013 57.3294C73.8199 57.0594 73.62 56.8254 73.3525 56.8037L66.4687 56.2504C66.2399 56.2287 66.0316 56.3746 65.9632 56.5938L65.1521 59.1942C65.1326 59.2479 65.0812 59.2849 65.024 59.2849H64.2291C64.1543 59.2849 64.0932 59.2238 64.0932 59.1484V50.755C64.0932 50.6796 64.1543 50.6185 64.2291 50.6185H65.0152C65.0739 50.6185 65.1257 50.656 65.1384 50.6949L65.9089 53.3145C65.9744 53.5377 66.1846 53.6865 66.4164 53.6658L73.3525 53.1105C73.62 53.0888 73.8204 52.8543 73.8013 52.5848L73.1482 43.1711ZM66.0712 50.3983C65.9187 49.9406 65.4943 49.6331 65.0157 49.6331H64.2296C63.6156 49.6331 63.1159 50.1362 63.1159 50.755V59.1479C63.1159 59.7667 63.6156 60.2697 64.2296 60.2697H65.0245C65.4943 60.2697 65.9157 59.9702 66.0795 59.5066L66.7796 57.2634L72.7928 57.7462L72.1685 66.7456C72.1685 67.3373 72.7087 67.8019 73.399 67.8019H74.2399C74.8622 67.8019 75.3784 67.4117 75.4596 66.888L77.7285 57.9246L80.8001 58.0261C80.828 58.029 80.8568 58.0256 80.8837 58.0211C81.8517 58.0837 85.5143 58.2542 86.6608 57.3018C86.8671 57.1594 88.0619 56.2785 88.1401 54.9724C88.1401 54.962 88.1401 54.9108 88.1391 54.9009C88.0614 53.6229 86.8671 52.744 86.6608 52.6016C85.4694 51.6123 81.5588 51.8345 80.8001 51.8887L77.7299 51.9902L75.4591 43.0154C75.378 42.4917 74.8617 42.1014 74.2394 42.1014H73.3985C72.7087 42.1014 72.168 42.5656 72.1695 43.1927L72.7928 52.1675L66.7346 52.6523L66.0712 50.3983Z" fill="url(#paint0_linear)"/>
<path fill-rule="evenodd" clip-rule="evenodd" d="M94.623 48.2831C94.3781 48.1657 94.0828 48.269 93.9655 48.5115L93.6565 49.1481C91.3361 40.7911 83.71 35 74.9149 35C65.9324 35 58.1664 41.0376 56.0289 49.6829C55.9638 49.944 56.1259 50.2075 56.3906 50.2717C56.6548 50.3351 56.9219 50.1758 56.986 49.9142C59.0156 41.7068 66.3883 35.9746 74.9149 35.9746C83.2778 35.9746 90.5278 41.4915 92.7181 49.4476L92.1094 49.1574C91.8644 49.0405 91.5697 49.1418 91.4514 49.3843C91.3336 49.6264 91.4357 49.9177 91.6806 50.0345L93.379 50.845C93.446 50.8772 93.52 50.8937 93.5934 50.8937C93.6476 50.8937 93.7033 50.8845 93.7561 50.866C93.8803 50.8231 93.9813 50.734 94.038 50.6171L94.8551 48.9328C94.9724 48.6903 94.8685 48.399 94.623 48.2831Z" fill="url(#paint1_linear)"/>
<path fill-rule="evenodd" clip-rule="evenodd" d="M93.1791 58.3732C92.9157 58.3044 92.6523 58.4704 92.5883 58.7359C90.5692 67.0737 83.2616 72.897 74.8169 72.897C66.5164 72.897 59.3187 67.2694 57.158 59.1596L57.7966 59.5406C58.0297 59.6793 58.3283 59.6005 58.4656 59.3647C58.6024 59.1288 58.5247 58.8251 58.2926 58.6864L56.6811 57.7252C56.5692 57.6583 56.4353 57.6399 56.3097 57.6731C56.1841 57.7063 56.0766 57.7891 56.0111 57.903L55.0666 59.5435C54.9307 59.7799 55.0094 60.0831 55.242 60.2209C55.3197 60.2669 55.4042 60.2887 55.4878 60.2887C55.6559 60.2887 55.8196 60.2005 55.9105 60.043L56.232 59.4846C58.5291 67.9918 66.0952 73.8889 74.8165 73.8889C83.7126 73.8889 91.4102 67.7555 93.5363 58.9733C93.6013 58.7067 93.441 58.4382 93.1791 58.3732Z" fill="url(#paint2_linear)"/>
<path d="M73.1482 43.1711L72.7687 42.8455L72.6352 43.0012L72.6494 43.2057L73.1482 43.1711ZM74.4926 43.1647L74.9897 43.111L74.9701 42.9293L74.8379 42.803L74.4926 43.1647ZM74.5048 43.2322L74.9896 43.1095L74.9882 43.1043L74.5048 43.2322ZM76.8798 52.6173L77.3645 52.4947L77.3645 52.4947L76.8798 52.6173ZM77.3692 52.9878L77.3526 52.4881L77.3409 52.4885L77.3292 52.4894L77.3692 52.9878ZM80.8505 52.8726L80.867 53.3723L80.8764 53.372L80.8858 53.3713L80.8505 52.8726ZM86.0448 53.3682L85.7155 53.7445L85.7198 53.7482L86.0448 53.3682ZM86.0971 53.4081L85.8182 53.8231L85.8182 53.8231L86.0971 53.4081ZM87.1628 54.9428L87.6619 54.9728L87.6638 54.9425L87.6619 54.9122L87.1628 54.9428ZM86.0981 56.4953L86.3616 56.9202L86.3693 56.9154L86.3769 56.9103L86.0981 56.4953ZM86.0443 56.5357L85.7237 56.1518L85.7153 56.1592L86.0443 56.5357ZM80.8495 57.0313L80.7999 57.5289L80.8073 57.5296L80.8147 57.5301L80.8495 57.0313ZM80.7341 57.0382L80.7176 57.5379L80.7745 57.5398L80.8304 57.5289L80.7341 57.0382ZM77.3672 56.9269L77.3471 57.4265L77.3507 57.4266L77.3672 56.9269ZM76.8778 57.2974L77.3625 57.4201L77.3626 57.42L76.8778 57.2974ZM74.5048 66.6707L74.9882 66.7986L74.9895 66.7934L74.5048 66.6707ZM74.496 66.7244L74.9364 66.9611L74.9829 66.8746L74.9933 66.7769L74.496 66.7244ZM73.1482 66.7323L72.6494 66.6977L72.6352 66.9022L72.7687 67.0578L73.1482 66.7323ZM73.8013 57.3294L74.3001 57.364L74.3002 57.3637L73.8013 57.3294ZM73.3525 56.8037L73.3929 56.3053L73.3926 56.3053L73.3525 56.8037ZM66.4687 56.2504L66.4215 56.7482L66.4286 56.7488L66.4687 56.2504ZM65.9632 56.5938L65.4859 56.4448L65.4858 56.4449L65.9632 56.5938ZM65.1521 59.1942L65.6219 59.3653L65.6259 59.3543L65.6294 59.3431L65.1521 59.1942ZM65.1384 50.6949L65.6181 50.5538L65.616 50.5467L65.6137 50.5397L65.1384 50.6949ZM65.9089 53.3145L66.3887 53.1737L66.3886 53.1734L65.9089 53.3145ZM66.4164 53.6658L66.3765 53.1674L66.3719 53.1678L66.4164 53.6658ZM73.3525 53.1105L73.3924 53.6089L73.3929 53.6089L73.3525 53.1105ZM73.8013 52.5848L73.3025 52.6194L73.3026 52.6201L73.8013 52.5848ZM66.0712 50.3983L66.5509 50.2571L66.5484 50.2486L66.5456 50.2402L66.0712 50.3983ZM66.0795 59.5066L66.551 59.6731L66.5541 59.6644L66.5568 59.6555L66.0795 59.5066ZM66.7796 57.2634L66.8196 56.765L66.4213 56.733L66.3023 57.1144L66.7796 57.2634ZM72.7928 57.7462L73.2916 57.7808L73.3258 57.2874L72.8328 57.2478L72.7928 57.7462ZM72.1685 66.7456L71.6697 66.711L71.6685 66.7283V66.7456H72.1685ZM75.4596 66.888L74.9749 66.7653L74.9691 66.7882L74.9655 66.8114L75.4596 66.888ZM77.7285 57.9246L77.745 57.4248L77.3426 57.4115L77.2438 57.8019L77.7285 57.9246ZM80.8001 58.0261L80.8528 57.5288L80.8348 57.5269L80.8166 57.5263L80.8001 58.0261ZM80.8837 58.0211L80.9159 57.5222L80.8588 57.5185L80.8023 57.5278L80.8837 58.0211ZM86.6608 57.3018L86.3767 56.8903L86.3584 56.903L86.3413 56.9172L86.6608 57.3018ZM88.1401 54.9724L88.6392 55.0023L88.6401 54.9873V54.9724H88.1401ZM88.1391 54.9009L87.64 54.9313L87.6406 54.9408L87.6416 54.9503L88.1391 54.9009ZM86.6608 52.6016L86.3413 52.9862L86.3584 53.0005L86.3767 53.0131L86.6608 52.6016ZM80.8001 51.8887L80.8166 52.3884L80.8262 52.3881L80.8357 52.3874L80.8001 51.8887ZM77.7299 51.9902L77.2452 52.1128L77.344 52.5032L77.7465 52.4899L77.7299 51.9902ZM75.4591 43.0154L74.965 43.0919L74.9686 43.1152L74.9744 43.138L75.4591 43.0154ZM72.1695 43.1927L71.6695 43.1939L71.6695 43.2107L71.6707 43.2274L72.1695 43.1927ZM72.7928 52.1675L72.8327 52.6659L73.3259 52.6265L73.2916 52.1329L72.7928 52.1675ZM66.7346 52.6523L66.255 52.7935L66.3696 53.1831L66.7745 53.1507L66.7346 52.6523ZM94.623 48.2831L94.4069 48.734L94.4095 48.7352L94.623 48.2831ZM93.9655 48.5115L94.4153 48.7299L94.4157 48.7292L93.9655 48.5115ZM93.6565 49.1481L93.1747 49.2819L93.5286 50.5564L94.1063 49.3665L93.6565 49.1481ZM56.0289 49.6829L56.514 49.8038L56.5142 49.8029L56.0289 49.6829ZM56.3906 50.2717L56.2726 50.7576L56.2741 50.758L56.3906 50.2717ZM56.986 49.9142L56.5006 49.7942L56.5004 49.7953L56.986 49.9142ZM92.7181 49.4476L92.5029 49.8989L93.4906 50.37L93.2002 49.3149L92.7181 49.4476ZM92.1094 49.1574L91.8941 49.6086L91.8942 49.6087L92.1094 49.1574ZM91.4514 49.3843L91.002 49.1652L91.0018 49.1655L91.4514 49.3843ZM91.6806 50.0345L91.4653 50.4858L91.4653 50.4858L91.6806 50.0345ZM93.379 50.845L93.5952 50.3942L93.5944 50.3938L93.379 50.845ZM93.7561 50.866L93.5929 50.3933L93.5905 50.3942L93.7561 50.866ZM94.038 50.6171L93.5881 50.3988L93.5881 50.3989L94.038 50.6171ZM94.8551 48.9328L95.305 49.1511L95.3053 49.1505L94.8551 48.9328ZM93.1791 58.3732L93.0526 58.857L93.0588 58.8586L93.1791 58.3732ZM92.5883 58.7359L93.0743 58.8536L93.0744 58.8531L92.5883 58.7359ZM57.158 59.1596L57.4141 58.7302L56.3583 58.1002L56.6748 59.2883L57.158 59.1596ZM57.7966 59.5406L57.5404 59.97L57.5409 59.9702L57.7966 59.5406ZM58.4656 59.3647L58.8977 59.6163L58.8981 59.6156L58.4656 59.3647ZM58.2926 58.6864L58.5491 58.2572L58.5487 58.257L58.2926 58.6864ZM56.6811 57.7252L56.4245 58.1543L56.4249 58.1546L56.6811 57.7252ZM56.0111 57.903L56.4444 58.1525L56.4447 58.1521L56.0111 57.903ZM55.0666 59.5435L54.6333 59.2941L54.6331 59.2944L55.0666 59.5435ZM55.242 60.2209L55.4971 59.7908L55.4968 59.7906L55.242 60.2209ZM55.9105 60.043L56.3436 60.2928L56.3438 60.2925L55.9105 60.043ZM56.232 59.4846L56.7147 59.3542L56.4004 58.1901L55.7987 59.2351L56.232 59.4846ZM93.5363 58.9733L93.0505 58.8548L93.0503 58.8556L93.5363 58.9733ZM73.5277 43.4966C73.4973 43.5321 73.4703 43.5517 73.458 43.56C73.4428 43.5702 73.4306 43.5763 73.422 43.5798C73.4039 43.5873 73.3951 43.5868 73.3985 43.5868V42.5868C73.1413 42.5868 72.9057 42.6857 72.7687 42.8455L73.5277 43.4966ZM73.3985 43.5868H74.2394V42.5868H73.3985V43.5868ZM74.2394 43.5868C74.2419 43.5868 74.2359 43.5871 74.2234 43.5817C74.2176 43.5792 74.2101 43.5754 74.2006 43.5693C74.1958 43.5662 74.19 43.5622 74.183 43.5569C74.1795 43.5543 74.1752 43.5509 74.1702 43.5467C74.1661 43.5433 74.1577 43.5362 74.1473 43.5263L74.8379 42.803C74.7491 42.7182 74.5414 42.5868 74.2394 42.5868V43.5868ZM73.9955 43.2183C74.0002 43.2618 74.0082 43.3098 74.0215 43.3601L74.9882 43.1043C74.9898 43.1102 74.9899 43.1128 74.9897 43.111L73.9955 43.2183ZM74.0201 43.3548L76.3951 52.74L77.3645 52.4947L74.9895 43.1095L74.0201 43.3548ZM76.3951 52.74C76.505 53.1745 76.9186 53.5255 77.4091 53.4862L77.3292 52.4894C77.3418 52.4884 77.3518 52.4903 77.358 52.4922C77.361 52.4932 77.363 52.4941 77.3642 52.4947C77.3654 52.4954 77.366 52.4958 77.366 52.4958C77.366 52.4958 77.3658 52.4957 77.3654 52.4953C77.3651 52.4949 77.3647 52.4944 77.3644 52.494C77.3639 52.4932 77.3642 52.4933 77.3645 52.4947L76.3951 52.74ZM77.3857 53.4876L80.867 53.3723L80.8339 52.3728L77.3526 52.4881L77.3857 53.4876ZM80.8858 53.3713C81.7544 53.3097 82.8716 53.2962 83.8425 53.3651C84.3287 53.3996 84.7656 53.4539 85.111 53.529C85.4821 53.6097 85.6619 53.6976 85.7155 53.7445L86.374 52.9919C86.1126 52.7632 85.7077 52.6354 85.3236 52.5519C84.9137 52.4627 84.4247 52.4039 83.9133 52.3676C82.889 52.2949 81.7241 52.3093 80.8151 52.3738L80.8858 53.3713ZM85.7198 53.7482C85.749 53.7731 85.7829 53.7994 85.8182 53.8231L86.3759 52.9931C86.3766 52.9935 86.3759 52.9931 86.374 52.9917C86.3723 52.9903 86.3707 52.989 86.3697 52.9882L85.7198 53.7482ZM85.8182 53.8231C85.8086 53.8166 86.0272 53.963 86.2492 54.2001C86.4828 54.4497 86.6484 54.7238 86.6638 54.9735L87.6619 54.9122C87.6249 54.3095 87.2628 53.8197 86.9792 53.5167C86.6839 53.2013 86.3959 53.0065 86.3759 52.9931L85.8182 53.8231ZM86.6637 54.9129C86.648 55.1741 86.4798 55.4533 86.2477 55.7033C86.0262 55.9418 85.8084 56.0875 85.8192 56.0802L86.3769 56.9103C86.3965 56.8971 86.6849 56.7021 86.9806 56.3837C87.2656 56.0767 87.6253 55.5826 87.6619 54.9728L86.6637 54.9129ZM85.8345 56.0704C85.7827 56.1025 85.7414 56.1372 85.7238 56.1519L86.3648 56.9195C86.3682 56.9166 86.3705 56.9147 86.3723 56.9132C86.374 56.9119 86.3746 56.9114 86.3745 56.9114C86.3745 56.9115 86.3698 56.9151 86.3616 56.9202L85.8345 56.0704ZM85.7153 56.1592C85.662 56.2058 85.4825 56.2933 85.1112 56.3739C84.7658 56.4489 84.3289 56.503 83.8425 56.5375C82.8713 56.6063 81.7536 56.5932 80.8843 56.5325L80.8147 57.5301C81.7239 57.5936 82.8889 57.6076 83.9132 57.535C84.4246 57.4988 84.9136 57.4401 85.3233 57.3512C85.7072 57.2679 86.112 57.1405 86.3733 56.9122L85.7153 56.1592ZM80.899 56.5338C80.7982 56.5237 80.7093 56.5335 80.6378 56.5476L80.8304 57.5289C80.8341 57.5281 80.8215 57.531 80.7999 57.5289L80.899 56.5338ZM80.7506 56.5385L77.3837 56.4271L77.3507 57.4266L80.7176 57.5379L80.7506 56.5385ZM77.3873 56.4273C76.9291 56.4088 76.5074 56.7228 76.3931 57.1747L77.3626 57.42C77.3611 57.426 77.3588 57.4265 77.3609 57.4249C77.3617 57.4243 77.3617 57.4245 77.36 57.4251C77.3583 57.4257 77.3539 57.4267 77.3471 57.4265L77.3873 56.4273ZM76.3931 57.1747L74.0201 66.548L74.9895 66.7934L77.3625 57.4201L76.3931 57.1747ZM74.0215 66.5428C74.015 66.5673 74.0091 66.5933 74.0046 66.6232C74.0027 66.6363 74.0014 66.6475 74.0006 66.6549C74 66.6602 73.999 66.67 73.9988 66.6719L74.9933 66.7769C74.9936 66.7735 74.994 66.7701 74.9942 66.7681C74.9944 66.7657 74.9946 66.7646 74.9946 66.7639C74.9948 66.7625 74.9944 66.7659 74.9936 66.7712C74.9927 66.7772 74.9916 66.7834 74.9903 66.7894C74.9892 66.7949 74.9883 66.7984 74.9882 66.7986L74.0215 66.5428ZM74.0556 66.4877C74.083 66.4367 74.1127 66.404 74.1252 66.3909C74.141 66.3742 74.1549 66.3624 74.1647 66.3548C74.1843 66.3394 74.2001 66.3309 74.2102 66.3262C74.2321 66.3159 74.2431 66.3166 74.2394 66.3166V67.3166C74.3916 67.3166 74.5245 67.2829 74.6326 67.2326C74.6858 67.2078 74.7357 67.1777 74.7803 67.1428C74.8112 67.1187 74.8841 67.0586 74.9364 66.9611L74.0556 66.4877ZM74.2394 66.3166H73.3985V67.3166H74.2394V66.3166ZM73.3985 66.3166C73.3947 66.3166 73.4035 66.316 73.422 66.3236C73.4308 66.3273 73.4432 66.3334 73.4585 66.3438C73.4709 66.3522 73.4976 66.3717 73.5277 66.4068L72.7687 67.0578C72.9055 67.2174 73.1404 67.3166 73.3985 67.3166V66.3166ZM73.647 66.767L74.3001 57.364L73.3025 57.2947L72.6494 66.6977L73.647 66.767ZM74.3002 57.3637C74.3373 56.8242 73.9368 56.3494 73.3929 56.3053L73.3121 57.3021C73.3112 57.302 73.3092 57.3015 73.3071 57.3004C73.3053 57.2995 73.3044 57.2986 73.3039 57.2981C73.3035 57.2976 73.3031 57.297 73.3029 57.2961C73.3025 57.2949 73.3026 57.2943 73.3025 57.2951L74.3002 57.3637ZM73.3926 56.3053L66.5087 55.752L66.4286 56.7488L73.3125 57.3021L73.3926 56.3053ZM66.5158 55.7526C66.0399 55.7075 65.6211 56.0116 65.4859 56.4448L66.4404 56.7428C66.4409 56.7413 66.441 56.7424 66.4385 56.7442C66.4371 56.7451 66.4348 56.7464 66.4314 56.7473C66.4278 56.7482 66.4242 56.7484 66.4215 56.7482L66.5158 55.7526ZM65.4858 56.4449L64.6748 59.0453L65.6294 59.3431L66.4405 56.7427L65.4858 56.4449ZM64.6823 59.0231C64.7326 58.8851 64.865 58.7849 65.024 58.7849V59.7849C65.2974 59.7849 65.5325 59.6108 65.6219 59.3653L64.6823 59.0231ZM65.024 58.7849H64.2291V59.7849H65.024V58.7849ZM64.2291 58.7849C64.4318 58.7849 64.5932 58.9489 64.5932 59.1484H63.5932C63.5932 59.4986 63.8769 59.7849 64.2291 59.7849V58.7849ZM64.5932 59.1484V50.755H63.5932V59.1484H64.5932ZM64.5932 50.755C64.5932 50.9544 64.4318 51.1185 64.2291 51.1185V50.1185C63.8769 50.1185 63.5932 50.4048 63.5932 50.755H64.5932ZM64.2291 51.1185H65.0152V50.1185H64.2291V51.1185ZM65.0152 51.1185C64.9397 51.1185 64.8737 51.0952 64.8215 51.0613C64.7758 51.0316 64.7014 50.9674 64.6631 50.8501L65.6137 50.5397C65.5627 50.3835 65.456 50.2811 65.3666 50.2229C65.2707 50.1605 65.1494 50.1185 65.0152 50.1185V51.1185ZM64.6587 50.836L65.4292 53.4556L66.3886 53.1734L65.6181 50.5538L64.6587 50.836ZM65.4291 53.4553C65.5593 53.8987 65.9826 54.2065 66.4608 54.1638L66.3719 53.1678C66.3739 53.1676 66.3769 53.1677 66.3799 53.1686C66.3828 53.1694 66.3849 53.1705 66.3861 53.1714C66.3886 53.1731 66.3889 53.1746 66.3887 53.1737L65.4291 53.4553ZM66.4562 54.1642L73.3924 53.6089L73.3126 52.6121L66.3765 53.1674L66.4562 54.1642ZM73.3929 53.6089C73.9362 53.5648 74.3383 53.0899 74.3001 52.5495L73.3026 52.6201C73.3026 52.6204 73.3026 52.6193 73.303 52.618C73.3034 52.617 73.3038 52.6163 73.3042 52.6159C73.3045 52.6155 73.3053 52.6146 73.307 52.6138C73.309 52.6127 73.3111 52.6122 73.3121 52.6122L73.3929 53.6089ZM74.3001 52.5502L73.647 43.1365L72.6494 43.2057L73.3025 52.6194L74.3001 52.5502ZM66.5456 50.2402C66.3257 49.5804 65.7117 49.1331 65.0157 49.1331V50.1331C65.277 50.1331 65.5117 50.3008 65.5969 50.5564L66.5456 50.2402ZM65.0157 49.1331H64.2296V50.1331H65.0157V49.1331ZM64.2296 49.1331C63.3361 49.1331 62.6159 49.8634 62.6159 50.755H63.6159C63.6159 50.4089 63.8951 50.1331 64.2296 50.1331V49.1331ZM62.6159 50.755V59.1479H63.6159V50.755H62.6159ZM62.6159 59.1479C62.6159 60.0395 63.3361 60.7697 64.2296 60.7697V59.7697C63.8951 59.7697 63.6159 59.494 63.6159 59.1479H62.6159ZM64.2296 60.7697H65.0245V59.7697H64.2296V60.7697ZM65.0245 60.7697C65.713 60.7697 66.3189 60.3302 66.551 59.6731L65.6081 59.34C65.5126 59.6102 65.2757 59.7697 65.0245 59.7697V60.7697ZM66.5568 59.6555L67.2569 57.4123L66.3023 57.1144L65.6022 59.3576L66.5568 59.6555ZM66.7396 57.7618L72.7528 58.2446L72.8328 57.2478L66.8196 56.765L66.7396 57.7618ZM72.294 57.7116L71.6697 66.711L72.6673 66.7802L73.2916 57.7808L72.294 57.7116ZM71.6685 66.7456C71.6685 67.6821 72.5066 68.3019 73.399 68.3019V67.3019C72.9108 67.3019 72.6685 66.9925 72.6685 66.7456H71.6685ZM73.399 68.3019H74.2399V67.3019H73.399V68.3019ZM74.2399 68.3019C75.0503 68.3019 75.8265 67.7856 75.9537 66.9646L74.9655 66.8114C74.9304 67.0379 74.6741 67.3019 74.2399 67.3019V68.3019ZM75.9443 67.0107L78.2132 58.0473L77.2438 57.8019L74.9749 66.7653L75.9443 67.0107ZM77.712 58.4243L80.7836 58.5258L80.8166 57.5263L77.745 57.4248L77.712 58.4243ZM80.7473 58.5233C80.8452 58.5336 80.9291 58.5204 80.9651 58.5145L80.8023 57.5278C80.7958 57.5289 80.7982 57.5283 80.8051 57.5277C80.8122 57.5272 80.8292 57.5263 80.8528 57.5288L80.7473 58.5233ZM80.8514 58.5201C81.3432 58.5519 82.5244 58.6116 83.7343 58.5412C84.3388 58.5061 84.964 58.4378 85.5204 58.3126C86.0635 58.1903 86.6013 58.0012 86.9803 57.6864L86.3413 56.9172C86.147 57.0786 85.7971 57.2253 85.3008 57.337C84.8177 57.4457 84.2518 57.5094 83.6763 57.5429C82.5263 57.6098 81.3921 57.5529 80.9159 57.5222L80.8514 58.5201ZM86.9448 57.7133C87.0688 57.6277 87.4588 57.3423 87.8326 56.8935C88.2045 56.447 88.5913 55.8013 88.6392 55.0023L87.641 54.9425C87.6106 55.4496 87.3609 55.8974 87.0643 56.2535C86.7696 56.6072 86.459 56.8335 86.3767 56.8903L86.9448 57.7133ZM88.6401 54.9724C88.6401 54.9672 88.6401 54.95 88.64 54.9325C88.6399 54.9306 88.64 54.8853 88.6367 54.8516L87.6416 54.9503C87.6411 54.9455 87.6408 54.9416 87.6406 54.939C87.6404 54.9363 87.6402 54.934 87.6401 54.9324C87.64 54.9293 87.6399 54.9271 87.6398 54.9262C87.6398 54.9244 87.6398 54.924 87.6398 54.9256C87.6399 54.9287 87.6399 54.9337 87.64 54.9405C87.6401 54.9536 87.6401 54.9672 87.6401 54.9724H88.6401ZM88.6382 54.8706C88.5903 54.0833 88.2016 53.4446 87.8308 53.0036C87.4574 52.5596 87.0681 52.2752 86.9448 52.1901L86.3767 53.0131C86.4597 53.0703 86.7707 53.2966 87.0655 53.6472C87.3628 54.0008 87.6102 54.4406 87.64 54.9313L88.6382 54.8706ZM86.9802 52.2169C86.5873 51.8906 86.0221 51.6985 85.4542 51.5764C84.8718 51.4511 84.2181 51.3858 83.5933 51.3544C82.3424 51.2916 81.1521 51.3622 80.7645 51.3899L80.8357 52.3874C81.2068 52.3609 82.3511 52.2933 83.5431 52.3532C84.1397 52.3831 84.7344 52.4444 85.244 52.554C85.7681 52.6668 86.1385 52.8178 86.3413 52.9862L86.9802 52.2169ZM80.7836 51.3889L77.7134 51.4904L77.7465 52.4899L80.8166 52.3884L80.7836 51.3889ZM78.2147 51.8675L75.9438 42.8927L74.9744 43.138L77.2452 52.1128L78.2147 51.8675ZM75.9532 42.9388C75.826 42.1178 75.0498 41.6014 74.2394 41.6014V42.6014C74.6736 42.6014 74.9299 42.8655 74.965 43.0919L75.9532 42.9388ZM74.2394 41.6014H73.3985V42.6014H74.2394V41.6014ZM73.3985 41.6014C72.4959 41.6014 71.6672 42.2303 71.6695 43.1939L72.6695 43.1916C72.6688 42.9008 72.9214 42.6014 73.3985 42.6014V41.6014ZM71.6707 43.2274L72.294 52.2022L73.2916 52.1329L72.6683 43.1581L71.6707 43.2274ZM72.7529 51.6691L66.6947 52.1539L66.7745 53.1507L72.8327 52.6659L72.7529 51.6691ZM67.2143 52.5112L66.5509 50.2571L65.5915 50.5395L66.255 52.7935L67.2143 52.5112ZM94.8391 47.8322C94.3472 47.5965 93.7533 47.8019 93.5154 48.2938L94.4157 48.7292C94.415 48.7305 94.4137 48.7322 94.4124 48.7334C94.4118 48.7339 94.4113 48.7342 94.4111 48.7344C94.411 48.7344 94.4109 48.7345 94.4109 48.7345C94.4108 48.7345 94.4108 48.7345 94.4108 48.7345C94.4108 48.7345 94.4108 48.7345 94.4108 48.7345C94.4107 48.7345 94.4107 48.7345 94.4106 48.7346C94.4105 48.7346 94.4102 48.7346 94.4097 48.7346C94.4092 48.7346 94.4086 48.7345 94.408 48.7343C94.4073 48.7341 94.4069 48.734 94.4069 48.734L94.8391 47.8322ZM93.5157 48.2932L93.2067 48.9297L94.1063 49.3665L94.4153 48.7299L93.5157 48.2932ZM94.1383 49.0143C91.7572 40.4389 83.9325 34.5 74.9149 34.5V35.5C83.4875 35.5 90.915 41.1434 93.1747 49.2819L94.1383 49.0143ZM74.9149 34.5C65.7054 34.5 57.7369 40.6916 55.5435 49.5629L56.5142 49.8029C58.5959 41.3836 66.1595 35.5 74.9149 35.5V34.5ZM55.5437 49.562C55.41 50.0985 55.7449 50.6294 56.2726 50.7576L56.5086 49.7859C56.5077 49.7856 56.5084 49.7857 56.5096 49.7866C56.5105 49.7873 56.5114 49.7881 56.5121 49.7893C56.5128 49.7904 56.5137 49.7924 56.5142 49.7954C56.5147 49.7989 56.5145 49.802 56.514 49.8038L55.5437 49.562ZM56.2741 50.758C56.7986 50.8837 57.3403 50.5692 57.4716 50.0332L56.5004 49.7953C56.5008 49.7935 56.5019 49.7909 56.5036 49.7886C56.505 49.7868 56.5061 49.7861 56.5064 49.7859C56.5066 49.7858 56.5068 49.7857 56.5071 49.7857C56.5077 49.7856 56.508 49.7857 56.5072 49.7855L56.2741 50.758ZM57.4714 50.0343C59.4451 42.0527 66.6154 36.4746 74.9149 36.4746V35.4746C66.1613 35.4746 58.5861 41.3609 56.5006 49.7942L57.4714 50.0343ZM74.9149 36.4746C83.0548 36.4746 90.106 41.8432 92.236 49.5804L93.2002 49.3149C90.9496 41.1398 83.5007 35.4746 74.9149 35.4746V36.4746ZM92.9333 48.9963L92.3246 48.706L91.8942 49.6087L92.5029 49.8989L92.9333 48.9963ZM92.3247 48.7061C91.8355 48.4726 91.2423 48.6725 91.002 49.1652L91.9008 49.6035C91.9003 49.6046 91.8991 49.6062 91.8976 49.6075C91.897 49.6081 91.8965 49.6084 91.8962 49.6086C91.8959 49.6087 91.8958 49.6088 91.8958 49.6088C91.8958 49.6088 91.8958 49.6088 91.8958 49.6088C91.8957 49.6088 91.8956 49.6088 91.8953 49.6088C91.8944 49.6087 91.8938 49.6085 91.8941 49.6086L92.3247 48.7061ZM91.0018 49.1655C90.7618 49.6589 90.9714 50.2501 91.4653 50.4858L91.896 49.5833C91.8959 49.5833 91.8973 49.584 91.8989 49.5858C91.9002 49.5873 91.9011 49.5889 91.9017 49.5905C91.9022 49.592 91.9026 49.5941 91.9025 49.5967C91.9023 49.5997 91.9015 49.6021 91.901 49.6031L91.0018 49.1655ZM91.4653 50.4858L93.1637 51.2963L93.5944 50.3938L91.8959 49.5833L91.4653 50.4858ZM93.1628 51.2958C93.2979 51.3606 93.4458 51.3937 93.5934 51.3937V50.3937C93.5942 50.3937 93.5943 50.3938 93.5942 50.3938C93.5941 50.3937 93.5944 50.3938 93.5952 50.3942L93.1628 51.2958ZM93.5934 51.3937C93.7035 51.3937 93.8152 51.3751 93.9216 51.3377L93.5905 50.3942C93.5913 50.3939 93.5917 50.3938 93.5917 50.3938C93.5917 50.3938 93.5922 50.3937 93.5934 50.3937V51.3937ZM93.9192 51.3386C94.1672 51.253 94.3724 51.0734 94.4879 50.8352L93.5881 50.3989C93.589 50.3971 93.5902 50.3955 93.5915 50.3944C93.5927 50.3933 93.5934 50.3932 93.5929 50.3933L93.9192 51.3386ZM94.4878 50.8353L95.305 49.1511L94.4053 48.7146L93.5881 50.3988L94.4878 50.8353ZM95.3053 49.1505C95.545 48.6547 95.3303 48.0642 94.8365 47.831L94.4095 48.7352C94.4096 48.7352 94.4083 48.7345 94.4068 48.7329C94.4056 48.7315 94.4048 48.7301 94.4042 48.7287C94.4037 48.7272 94.4033 48.7251 94.4034 48.7223C94.4036 48.7191 94.4044 48.7164 94.405 48.7151L95.3053 49.1505ZM93.3056 57.8895C92.7577 57.7462 92.2285 58.095 92.1022 58.6188L93.0744 58.8531C93.0749 58.8509 93.075 58.8525 93.0721 58.8543C93.0706 58.8552 93.0678 58.8566 93.0636 58.8572C93.0589 58.858 93.0548 58.8576 93.0526 58.857L93.3056 57.8895ZM92.1024 58.6183C90.1364 66.7368 83.0256 72.397 74.8169 72.397V73.397C83.4977 73.397 91.0021 67.4106 93.0743 58.8536L92.1024 58.6183ZM74.8169 72.397C66.7485 72.397 59.745 66.9272 57.6411 59.0308L56.6748 59.2883C58.8925 67.6116 66.2843 73.397 74.8169 73.397V72.397ZM56.9018 59.5889L57.5404 59.97L58.0528 59.1112L57.4141 58.7302L56.9018 59.5889ZM57.5409 59.9702C58.0162 60.2531 58.6224 60.0891 58.8977 59.6163L58.0335 59.1131C58.033 59.114 58.0334 59.1131 58.035 59.1118C58.0364 59.1108 58.038 59.11 58.0397 59.1096C58.0415 59.1091 58.0438 59.1088 58.0466 59.1092C58.048 59.1094 58.0494 59.1097 58.0505 59.1101C58.0511 59.1103 58.0515 59.1105 58.0519 59.1107C58.0522 59.1108 58.0524 59.1109 58.0523 59.1109L57.5409 59.9702ZM58.8981 59.6156C59.1706 59.1457 59.0187 58.5379 58.5491 58.2572L58.0361 59.1156C58.0352 59.115 58.034 59.114 58.0332 59.1129C58.0326 59.1121 58.0328 59.112 58.033 59.1128C58.0331 59.1135 58.0331 59.114 58.0331 59.114C58.0332 59.1136 58.0333 59.1133 58.0331 59.1138L58.8981 59.6156ZM58.5487 58.257L56.9372 57.2958L56.4249 58.1546L58.0365 59.1158L58.5487 58.257ZM56.9376 57.296C56.709 57.1594 56.4364 57.1225 56.1819 57.1897L56.4375 58.1565C56.4341 58.1574 56.4293 58.1572 56.4245 58.1543L56.9376 57.296ZM56.1819 57.1897C55.9256 57.2575 55.7088 57.4256 55.5776 57.6539L56.4447 58.1521C56.4444 58.1525 56.4426 58.1552 56.4375 58.1565L56.1819 57.1897ZM55.5778 57.6536L54.6333 59.2941L55.4999 59.793L56.4444 58.1525L55.5778 57.6536ZM54.6331 59.2944C54.3626 59.7649 54.5163 60.3722 54.9872 60.6511L55.4968 59.7906C55.4977 59.7912 55.499 59.7923 55.4998 59.7934C55.5004 59.7943 55.5003 59.7944 55.5001 59.7937C55.5 59.7931 55.5 59.7926 55.5 59.7926C55.5 59.793 55.4998 59.7932 55.5001 59.7927L54.6331 59.2944ZM54.9869 60.6509C55.1433 60.7437 55.3162 60.7887 55.4878 60.7887V59.7887C55.4896 59.7887 55.4916 59.789 55.4937 59.7895C55.4947 59.7898 55.4955 59.7901 55.4962 59.7904C55.4968 59.7907 55.4971 59.7908 55.4971 59.7908L54.9869 60.6509ZM55.4878 60.7887C55.8299 60.7887 56.1611 60.6092 56.3436 60.2928L55.4774 59.7931C55.4771 59.7936 55.4773 59.7932 55.4781 59.7924C55.4788 59.7917 55.4797 59.791 55.4806 59.7905C55.4823 59.7895 55.4846 59.7887 55.4878 59.7887V60.7887ZM56.3438 60.2925L56.6653 59.7341L55.7987 59.2351L55.4772 59.7935L56.3438 60.2925ZM55.7493 59.6149C58.1038 68.3349 65.8637 74.3889 74.8165 74.3889V73.3889C66.3267 73.3889 58.9544 67.6487 56.7147 59.3542L55.7493 59.6149ZM74.8165 74.3889C83.9487 74.3889 91.8431 68.0924 94.0222 59.0909L93.0503 58.8556C90.9773 67.4186 83.4766 73.3889 74.8165 73.3889V74.3889ZM94.022 59.0917C94.1507 58.564 93.835 58.0207 93.2993 57.8879L93.0588 58.8586C93.0571 58.8581 93.0548 58.8571 93.0528 58.8556C93.052 58.855 93.0515 58.8545 93.0512 58.8541C93.0509 58.8538 93.0507 58.8536 93.0507 58.8535C93.0507 58.8535 93.0507 58.8535 93.0507 58.8536C93.0507 58.8536 93.0507 58.8536 93.0507 58.8536C93.0507 58.8532 93.0508 58.8534 93.0505 58.8548L94.022 59.0917Z" fill="url(#paint3_linear)"/>
<defs>
<filter id="filter0_d" x="0" y="0" width="150" height="150" filterUnits="userSpaceOnUse" color-interpolation-filters="sRGB">
<feFlood flood-opacity="0" result="BackgroundImageFix"/>
<feColorMatrix in="SourceAlpha" type="matrix" values="0 0 0 0 0 0 0 0 0 0 0 0 0 0 0 0 0 0 127 0"/>
<feOffset dy="6"/>
<feGaussianBlur stdDeviation="7.5"/>
<feColorMatrix type="matrix" values="0 0 0 0 0 0 0 0 0 0 0 0 0 0 0 0 0 0 0.05 0"/>
<feBlend mode="normal" in2="BackgroundImageFix" result="effect1_dropShadow"/>
<feBlend mode="normal" in="SourceGraphic" in2="effect1_dropShadow" result="shape"/>
</filter>
<linearGradient id="paint0_linear" x1="55" y1="54.4445" x2="94.9221" y2="54.6036" gradientUnits="userSpaceOnUse">
<stop stop-color="#00D7AF"/>
<stop offset="1" stop-color="#46737A"/>
</linearGradient>
<linearGradient id="paint1_linear" x1="55" y1="54.4445" x2="94.9221" y2="54.6036" gradientUnits="userSpaceOnUse">
<stop stop-color="#00D7AF"/>
<stop offset="1" stop-color="#46737A"/>
</linearGradient>
<linearGradient id="paint2_linear" x1="55" y1="54.4445" x2="94.9221" y2="54.6036" gradientUnits="userSpaceOnUse">
<stop stop-color="#00D7AF"/>
<stop offset="1" stop-color="#46737A"/>
</linearGradient>
<linearGradient id="paint3_linear" x1="55" y1="54.4445" x2="94.9221" y2="54.6036" gradientUnits="userSpaceOnUse">
<stop stop-color="#00D7AF"/>
<stop offset="1" stop-color="#46737A"/>
</linearGradient>
</defs>
</svg>
