<svg xmlns="http://www.w3.org/2000/svg" width="53" height="52" viewBox="0 0 53 52">
    <defs>
        <linearGradient id="a" x1="0%" y1="9.057%" y2="100%">
            <stop offset="0%" stop-color="#00D7AF"/>
            <stop offset="100%" stop-color="#46737A"/>
        </linearGradient>
    </defs>
    <g fill="url(#a)" fill-rule="evenodd" stroke="url(#a)" transform="translate(-252 -1709)">
        <path d="M276.139 1720.506c.032-.038.14-.109.32-.109h1.071c.199 0 .311.089.323.1.003.03.008.059.016.087l3.028 12.067c.072.288.341.499.624.476l4.438-.148c2.267-.162 5.82-.072 6.623.637a.75.75 0 0 0 .067.052c.013.008 1.292.877 1.359 1.973-.067 1.12-1.347 1.988-1.358 1.996a.613.613 0 0 0-.069.052c-.802.707-4.355.797-6.623.637-.05-.005-.099 0-.147.009l-4.293-.143a.631.631 0 0 0-.624.476l-3.025 12.052c-.008.028-.008.039-.012.069-.016.03-.128.118-.327.118h-1.072c-.179 0-.287-.07-.32-.108l.834-12.09a.63.63 0 0 0-.573-.676l-8.776-.711a.618.618 0 0 0-.645.441l-1.034 3.344a.175.175 0 0 1-.163.116h-1.014a.175.175 0 0 1-.173-.175v-10.792c0-.097.078-.175.173-.175h1.002c.075 0 .141.048.157.098l.983 3.368a.62.62 0 0 0 .647.452l8.843-.714a.63.63 0 0 0 .573-.676l-.833-12.103zm-9.023 9.292a1.42 1.42 0 0 0-1.346-.984h-1.002c-.783 0-1.42.647-1.42 1.442v10.791c0 .796.637 1.443 1.42 1.443h1.013c.6 0 1.137-.385 1.345-.982l.893-2.884 7.667.621-.796 11.57c0 .762.689 1.359 1.569 1.359h1.072c.793 0 1.452-.502 1.555-1.175l2.893-11.525 3.916.13a.4.4 0 0 0 .107-.005c1.234.08 5.904.3 7.365-.925.264-.183 1.787-1.316 1.887-2.995 0-.014 0-.08-.002-.092-.099-1.643-1.621-2.773-1.885-2.956-1.519-1.272-6.504-.987-7.472-.917l-3.914.13-2.896-11.539c-.103-.673-.761-1.175-1.555-1.175h-1.072c-.88 0-1.569.597-1.567 1.404l.795 11.539-7.724.623-.846-2.898z"/>
        <path d="M303.52 1727.078a.628.628 0 0 0-.839.294l-.394.818a24.728 24.728 0 0 0-23.896-18.19 24.732 24.732 0 0 0-24.08 18.878.628.628 0 0 0 1.22.297 23.48 23.48 0 0 1 22.86-17.922 23.477 23.477 0 0 1 22.7 17.323l-.777-.374a.626.626 0 1 0-.547 1.128l2.166 1.042a.63.63 0 0 0 .84-.293l1.042-2.165a.626.626 0 0 0-.296-.836M301.678 1740.051a.617.617 0 0 0-.753.467c-2.574 10.72-11.891 18.207-22.658 18.207-10.584 0-19.76-7.236-22.516-17.663l.815.49a.616.616 0 0 0 .853-.226.646.646 0 0 0-.221-.872l-2.055-1.236a.611.611 0 0 0-.473-.067.624.624 0 0 0-.38.296l-1.205 2.109a.645.645 0 0 0 .224.87c.099.06.206.088.313.088a.621.621 0 0 0 .539-.316l.41-.718c2.929 10.938 12.575 18.52 23.695 18.52 11.343 0 21.157-7.886 23.868-19.177a.637.637 0 0 0-.456-.772"/>
    </g>
</svg>
