<svg width="94" height="90" viewBox="0 0 94 90" fill="none" xmlns="http://www.w3.org/2000/svg">
<g filter="url(#filter0_d)">
<ellipse cx="47" cy="39.1476" rx="32" ry="29.1857" fill="white"/>
</g>
<path fill-rule="evenodd" clip-rule="evenodd" d="M45.2822 29.787C45.3059 29.7619 45.3874 29.7143 45.5205 29.7143H46.3213C46.4698 29.7143 46.5536 29.7739 46.5625 29.7815C46.5648 29.8011 46.5685 29.8207 46.5741 29.8398L48.8358 37.9447C48.8898 38.1383 49.0909 38.2799 49.3018 38.2646L52.617 38.1651C54.3098 38.0562 56.9634 38.117 57.5635 38.5931C57.5789 38.605 57.5966 38.6174 57.6133 38.6276C57.6231 38.6335 58.5784 39.2168 58.6283 39.9529C58.5784 40.7052 57.6227 41.2885 57.6143 41.2936C57.5961 41.3038 57.5794 41.3161 57.5631 41.3285C56.9639 41.8033 54.3098 41.8637 52.6161 41.7565C52.5784 41.7531 52.542 41.7561 52.5062 41.7625L49.2999 41.6663C49.09 41.6586 48.8879 41.7927 48.8339 41.9863L46.5741 50.0809C46.5685 50.1001 46.568 50.1073 46.5657 50.1273C46.5536 50.1477 46.4698 50.2069 46.3213 50.2069H45.5205C45.3869 50.2069 45.3059 50.1592 45.2822 50.1341L45.9042 42.0139C45.9218 41.7808 45.7314 41.5787 45.4768 41.5599L38.9213 41.0821C38.7034 41.0634 38.5051 41.1893 38.4399 41.3787L37.6676 43.6243C37.6489 43.6707 37.6 43.7026 37.5456 43.7026H36.7886C36.7174 43.7026 36.6592 43.6499 36.6592 43.5848V36.3364C36.6592 36.2713 36.7174 36.2185 36.7886 36.2185H37.5372C37.5931 36.2185 37.6424 36.2509 37.6545 36.2845L38.3882 38.5467C38.4506 38.7395 38.6508 38.868 38.8715 38.8501L45.4768 38.3706C45.7314 38.3519 45.9223 38.1493 45.9042 37.9166L45.2822 29.787ZM38.5428 36.0283C38.3975 35.6331 37.9934 35.3676 37.5377 35.3676H36.7891C36.2043 35.3676 35.7285 35.802 35.7285 36.3364V43.5843C35.7285 44.1187 36.2043 44.5531 36.7891 44.5531H37.546C37.9934 44.5531 38.3948 44.2945 38.5507 43.8941L39.2174 41.9569L44.9437 42.3739L44.3492 50.1456C44.3492 50.6566 44.8636 51.0578 45.521 51.0578H46.3218C46.9144 51.0578 47.406 50.7208 47.4833 50.2686L49.644 42.5279L52.569 42.6155C52.5956 42.6181 52.6231 42.6151 52.6487 42.6113C53.5705 42.6653 57.0584 42.8125 58.1501 41.9901C58.3466 41.8671 59.4844 41.1064 59.5589 39.9784C59.5589 39.9695 59.5589 39.9253 59.558 39.9168C59.4839 38.8131 58.3466 38.054 58.1501 37.9311C57.0156 37.0767 53.2916 37.2686 52.569 37.3154L49.6454 37.403L47.4829 29.6526C47.4056 29.2003 46.9139 28.8633 46.3213 28.8633H45.5205C44.8636 28.8633 44.3487 29.2641 44.3501 29.8058L44.9437 37.5562L39.1746 37.9749L38.5428 36.0283Z" fill="#6E7F95" stroke="#6E7F95"/>
<path fill-rule="evenodd" clip-rule="evenodd" d="M65.733 34.2017C65.4997 34.1003 65.2186 34.1895 65.1069 34.399L64.8126 34.9487C62.6029 27.7318 55.3406 22.7307 46.9651 22.7307C38.4111 22.7307 31.0156 27.9446 28.98 35.4106C28.918 35.636 29.0724 35.8636 29.3245 35.9191C29.5761 35.9738 29.8304 35.8362 29.8915 35.6103C31.8243 28.5226 38.8453 23.5723 46.9651 23.5723C54.929 23.5723 61.8332 28.3366 63.919 35.2074L63.3393 34.9567C63.106 34.8558 62.8254 34.9433 62.7127 35.1527C62.6006 35.3618 62.6977 35.6133 62.931 35.7142L64.5484 36.4141C64.6122 36.4419 64.6826 36.4562 64.7525 36.4562C64.8042 36.4562 64.8572 36.4482 64.9074 36.4322C65.0257 36.3952 65.1219 36.3182 65.1759 36.2173L65.9541 34.7628C66.0658 34.5533 65.9667 34.3018 65.733 34.2017Z" fill="#6E7F95" stroke="#6E7F95"/>
<path fill-rule="evenodd" clip-rule="evenodd" d="M64.3577 42.9153C64.1069 42.8558 63.8561 42.9991 63.7952 43.2285C61.8724 50.4288 54.9134 55.4577 46.8716 55.4577C38.967 55.4577 32.1127 50.5978 30.055 43.5943L30.6632 43.9234C30.8852 44.0432 31.1695 43.9751 31.3002 43.7715C31.4305 43.5678 31.3565 43.3055 31.1355 43.1857L29.6009 42.3556C29.4943 42.2979 29.3668 42.282 29.2472 42.3107C29.1276 42.3394 29.0252 42.4108 28.9629 42.5092L28.0634 43.9259C27.934 44.13 28.009 44.3919 28.2305 44.5108C28.3044 44.5506 28.3849 44.5695 28.4645 44.5695C28.6246 44.5695 28.7805 44.4933 28.867 44.3572L29.1732 43.875C31.3607 51.2217 38.5659 56.3143 46.8711 56.3143C55.3429 56.3143 62.6733 51.0176 64.6979 43.4334C64.7598 43.2032 64.6072 42.9713 64.3577 42.9153Z" fill="#6E7F95" stroke="#6E7F95"/>
<defs>
<filter id="filter0_d" x="0" y="0.961914" width="94" height="88.3715" filterUnits="userSpaceOnUse" color-interpolation-filters="sRGB">
<feFlood flood-opacity="0" result="BackgroundImageFix"/>
<feColorMatrix in="SourceAlpha" type="matrix" values="0 0 0 0 0 0 0 0 0 0 0 0 0 0 0 0 0 0 127 0"/>
<feOffset dy="6"/>
<feGaussianBlur stdDeviation="7.5"/>
<feColorMatrix type="matrix" values="0 0 0 0 0 0 0 0 0 0 0 0 0 0 0 0 0 0 0.05 0"/>
<feBlend mode="normal" in2="BackgroundImageFix" result="effect1_dropShadow"/>
<feBlend mode="normal" in="SourceGraphic" in2="effect1_dropShadow" result="shape"/>
</filter>
</defs>
</svg>
