<svg width="283" height="259" viewBox="0 0 283 259" fill="none" xmlns="http://www.w3.org/2000/svg">
<path fill-rule="evenodd" clip-rule="evenodd" d="M222.415 251.434L209.369 251.378L209.356 158.977H197.799L197.773 251.434H185.495V139.749H222.415V251.434Z" fill="white"/>
<path fill-rule="evenodd" clip-rule="evenodd" d="M222.415 251.434L209.369 251.378L209.356 158.977H197.799L197.773 251.434H185.495V139.749H222.415V251.434Z" stroke="#B6BDCB" stroke-width="3"/>
<path fill-rule="evenodd" clip-rule="evenodd" d="M216.354 248.509H220.165V142.674H216.354V248.509Z" fill="#F9FAFF"/>
<path fill-rule="evenodd" clip-rule="evenodd" d="M237.634 43.1806C237.634 43.1806 238.284 38.3283 237.203 30.0147C236.446 24.1957 234.954 22.672 234.054 21.4299C234.054 21.4299 234.815 20.0423 234.454 15.9617C233.871 9.36056 230.708 3.01404 230.708 3.01404C227.46 5.56754 223.341 7.90104 219.132 9.40473C215.047 7.55976 208.025 7.22195 203.246 7.22195C197.527 7.22195 192.156 8.69446 187.491 11.2783C182.151 14.2311 177.616 18.1852 174.681 23.5122C172.144 28.1039 169.858 38.1447 171.27 43.9567L237.634 43.1806Z" fill="white"/>
<path fill-rule="evenodd" clip-rule="evenodd" d="M237.634 43.1806C237.634 43.1806 238.284 38.3283 237.203 30.0147C236.446 24.1957 234.954 22.672 234.054 21.4299C234.054 21.4299 234.815 20.0423 234.454 15.9617C233.871 9.36056 230.708 3.01404 230.708 3.01404C227.46 5.56754 223.341 7.90104 219.132 9.40473C215.047 7.55976 208.025 7.22195 203.246 7.22195C197.527 7.22195 192.156 8.69446 187.491 11.2783C182.151 14.2311 177.616 18.1852 174.681 23.5122C172.144 28.1039 169.858 38.1447 171.27 43.9567L237.634 43.1806Z" stroke="#B6BDCB" stroke-width="3"/>
<path fill-rule="evenodd" clip-rule="evenodd" d="M199.037 249.45L191.373 249.392C191.373 249.392 183.998 245.414 180.653 248.74C178.229 251.149 178.834 256.812 178.834 256.812H199.037V249.45Z" fill="white"/>
<path fill-rule="evenodd" clip-rule="evenodd" d="M199.037 249.45L191.373 249.392C191.373 249.392 183.998 245.414 180.653 248.74C178.229 251.149 178.834 256.812 178.834 256.812H199.037V249.45Z" stroke="#B6BDCB" stroke-width="3"/>
<path fill-rule="evenodd" clip-rule="evenodd" d="M208.124 249.45L215.789 249.392C215.789 249.392 223.163 245.414 226.508 248.74C228.932 251.149 228.327 256.812 228.327 256.812H208.124V249.45Z" fill="white"/>
<path fill-rule="evenodd" clip-rule="evenodd" d="M208.124 249.45L215.789 249.392C215.789 249.392 223.163 245.414 226.508 248.74C228.932 251.149 228.327 256.812 228.327 256.812H208.124V249.45Z" stroke="#B6BDCB" stroke-width="3"/>
<path fill-rule="evenodd" clip-rule="evenodd" d="M197.549 255.303H180.402C180.402 255.303 179.86 253.565 180.856 252.89C181.851 252.217 197.549 252.89 197.549 252.89V255.303Z" fill="#F9FAFF"/>
<path fill-rule="evenodd" clip-rule="evenodd" d="M209.677 255.36H226.808C226.808 255.36 227.348 253.548 226.354 252.846C225.359 252.144 209.677 252.846 209.677 252.846V255.36Z" fill="#F9FAFF"/>
<path fill-rule="evenodd" clip-rule="evenodd" d="M239.845 47.1985C239.845 49.7676 237.752 51.8482 235.167 51.8482C233.596 51.8482 232.944 51.778 232.944 51.778C232.944 51.778 232.687 52.4406 232.253 53.6602C228.234 64.9726 217.382 73.0766 204.621 73.0766C191.935 73.0766 181.132 65.0609 177.061 53.8473C176.728 52.9274 176.337 51.7338 176.337 51.7338C176.337 51.7338 174.503 51.8482 172.952 51.8482C170.367 51.8482 168.274 49.7676 168.274 47.1985C168.274 44.6294 170.367 42.5488 172.952 42.5488C174.172 42.5488 175.329 42.5497 175.329 42.5497C175.329 42.5497 175.339 41.8776 175.353 41.5328C175.423 39.8316 175.638 39.3665 175.992 37.7519C177.332 31.6072 181.203 27.4227 181.203 27.4227C181.203 27.4227 194.867 31.4106 204.06 31.4652C212.723 31.5171 226.503 26.7575 226.503 26.7575C226.503 26.7575 230.732 30.9463 232.795 36.9845C233.121 37.9364 233.447 39.1084 233.647 40.1478C233.751 40.6909 233.899 42.5497 233.899 42.5497C233.899 42.5497 233.932 42.5488 235.167 42.5488C237.752 42.5488 239.845 44.6294 239.845 47.1985Z" fill="white"/>
<path fill-rule="evenodd" clip-rule="evenodd" d="M239.845 47.1985C239.845 49.7676 237.752 51.8482 235.167 51.8482C233.596 51.8482 232.944 51.778 232.944 51.778C232.944 51.778 232.687 52.4406 232.253 53.6602C228.234 64.9726 217.382 73.0766 204.621 73.0766C191.935 73.0766 181.132 65.0609 177.061 53.8473C176.728 52.9274 176.337 51.7338 176.337 51.7338C176.337 51.7338 174.503 51.8482 172.952 51.8482C170.367 51.8482 168.274 49.7676 168.274 47.1985C168.274 44.6294 170.367 42.5488 172.952 42.5488C174.172 42.5488 175.329 42.5497 175.329 42.5497C175.329 42.5497 175.339 41.8776 175.353 41.5328C175.423 39.8316 175.638 39.3665 175.992 37.7519C177.332 31.6072 181.203 27.4227 181.203 27.4227C181.203 27.4227 194.867 31.4106 204.06 31.4652C212.723 31.5171 226.503 26.7575 226.503 26.7575C226.503 26.7575 230.732 30.9463 232.795 36.9845C233.121 37.9364 233.447 39.1084 233.647 40.1478C233.751 40.6909 233.899 42.5497 233.899 42.5497C233.899 42.5497 233.932 42.5488 235.167 42.5488C237.752 42.5488 239.845 44.6294 239.845 47.1985Z" stroke="#B6BDCB" stroke-width="3"/>
<path fill-rule="evenodd" clip-rule="evenodd" d="M190.425 48.8424H189.889C188.947 48.8424 188.176 48.0758 188.176 47.1386V42.7323C188.176 41.7951 188.947 41.0285 189.889 41.0285H190.425C191.368 41.0285 192.139 41.7951 192.139 42.7323V47.1386C192.139 48.0758 191.368 48.8424 190.425 48.8424Z" fill="#6D6E71"/>
<path fill-rule="evenodd" clip-rule="evenodd" d="M217.313 48.8424C216.222 48.8424 215.331 47.9562 215.331 46.8727V42.9982C215.331 41.9146 216.222 41.0285 217.313 41.0285C218.403 41.0285 219.294 41.9146 219.294 42.9982V46.8727C219.294 47.9562 218.403 48.8424 217.313 48.8424Z" fill="#B6BDCB"/>
<path fill-rule="evenodd" clip-rule="evenodd" d="M191.764 11.4527C198.292 8.31455 207.598 9.71604 207.598 9.71604C207.598 9.71604 196.478 13.0448 193.089 17.5602C190.047 21.6113 193.324 27.0475 191.764 27.0475C187.618 27.0475 182.726 24.9409 182.019 24.6507C181.313 24.3597 179.973 24.287 179.973 24.287C179.973 24.287 178.767 25.2146 177.001 27.9682C176.587 28.6161 174.468 34.1675 174.468 34.1675H173.493C173.493 34.1675 174.337 30.4464 175.637 26.7573C176.559 24.1449 178.376 21.5472 179.502 20.2999C182.219 17.2899 185.235 14.5909 191.764 11.4527Z" fill="#F9FAFF"/>
<path fill-rule="evenodd" clip-rule="evenodd" d="M269.71 257.505H268.787C267.163 257.505 265.834 256.184 265.834 254.569V245.669C265.834 244.055 267.163 242.734 268.787 242.734H269.71C271.334 242.734 272.663 244.055 272.663 245.669V254.569C272.663 256.184 271.334 257.505 269.71 257.505Z" fill="#B6BDCB"/>
<path fill-rule="evenodd" clip-rule="evenodd" d="M247.575 257.505H246.652C245.028 257.505 243.699 256.184 243.699 254.569V245.669C243.699 244.055 245.028 242.734 246.652 242.734H247.575C249.199 242.734 250.528 244.055 250.528 245.669V254.569C250.528 256.184 249.199 257.505 247.575 257.505Z" fill="#B6BDCB"/>
<path fill-rule="evenodd" clip-rule="evenodd" d="M270.236 181.698H246.23C240.479 181.698 235.773 186.375 235.773 192.092V240.574C235.773 246.291 240.479 250.968 246.23 250.968H270.236C275.987 250.968 280.692 246.291 280.692 240.574V192.092C280.692 186.375 275.987 181.698 270.236 181.698Z" fill="white"/>
<path fill-rule="evenodd" clip-rule="evenodd" d="M270.236 181.698H246.23C240.479 181.698 235.773 186.375 235.773 192.092V240.574C235.773 246.291 240.479 250.968 246.23 250.968H270.236C275.987 250.968 280.692 246.291 280.692 240.574V192.092C280.692 186.375 275.987 181.698 270.236 181.698Z" stroke="#B6BDCB" stroke-width="3"/>
<path fill-rule="evenodd" clip-rule="evenodd" d="M247.174 243.752H246.712C245.901 243.752 245.236 243.092 245.236 242.285V193.013C245.236 192.206 245.901 191.545 246.712 191.545H247.174C247.986 191.545 248.65 192.206 248.65 193.013V242.285C248.65 243.092 247.986 243.752 247.174 243.752Z" fill="#F9FAFF"/>
<path fill-rule="evenodd" clip-rule="evenodd" d="M258.464 243.752H258.002C257.191 243.752 256.526 243.092 256.526 242.285V193.013C256.526 192.206 257.191 191.545 258.002 191.545H258.464C259.276 191.545 259.94 192.206 259.94 193.013V242.285C259.94 243.092 259.276 243.752 258.464 243.752Z" fill="#F9FAFF"/>
<path fill-rule="evenodd" clip-rule="evenodd" d="M269.992 243.752H269.53C268.719 243.752 268.054 243.092 268.054 242.285V193.013C268.054 192.206 268.719 191.545 269.53 191.545H269.992C270.804 191.545 271.468 192.206 271.468 193.013V242.285C271.468 243.092 270.804 243.752 269.992 243.752Z" fill="#F9FAFF"/>
<path fill-rule="evenodd" clip-rule="evenodd" d="M245.296 181.698H271.171V148.259H245.296V181.698Z" stroke="#B6BDCB" stroke-width="3"/>
<path fill-rule="evenodd" clip-rule="evenodd" d="M243.7 148.259H272.663V142.594H243.7V148.259Z" fill="white"/>
<path fill-rule="evenodd" clip-rule="evenodd" d="M243.7 148.259H272.663V142.594H243.7V148.259Z" stroke="#B6BDCB" stroke-width="3"/>
<path fill-rule="evenodd" clip-rule="evenodd" d="M167.385 79.1049C165.044 76.1123 162.878 54.9965 162.878 54.9965L154.338 53.4772C154.338 53.4772 153.646 81.4012 156.51 89.6221C159.02 96.8218 185.494 96.141 185.494 96.141L185.601 140.557L222.485 140.668L222.214 98.8686L223.353 98.6192L251.902 135.089L260.107 134.992C260.107 134.992 250.709 117.841 243.699 105.981C234.03 89.6221 228.885 77.0365 216.385 77.0365L194.957 76.0343C194.957 76.0343 189.912 76.3756 185.494 77.7528C176.259 80.632 170.029 82.4839 167.385 79.1049Z" fill="white"/>
<path fill-rule="evenodd" clip-rule="evenodd" d="M167.385 79.1049C165.044 76.1123 162.878 54.9965 162.878 54.9965L154.338 53.4772C154.338 53.4772 153.646 81.4012 156.51 89.6221C159.02 96.8218 185.494 96.141 185.494 96.141L185.601 140.557L222.485 140.668L222.214 98.8686L223.353 98.6192L251.902 135.089L260.107 134.992C260.107 134.992 250.709 117.841 243.699 105.981C234.03 89.6221 228.885 77.0365 216.385 77.0365L194.957 76.0343C194.957 76.0343 189.912 76.3756 185.494 77.7528C176.259 80.632 170.029 82.4839 167.385 79.1049Z" stroke="#B6BDCB" stroke-width="3"/>
<path fill-rule="evenodd" clip-rule="evenodd" d="M212.81 72.1348C212.81 72.1348 213.342 80.5134 211.725 84.2951C210.293 87.6429 206.271 89.6221 203.926 89.6221C201.397 89.6221 197.879 88.4303 196.036 84.6823C194.239 81.027 195.229 71.9841 195.229 71.9841C195.229 71.9841 198.481 73.5423 203.581 73.5423C208.681 73.5423 212.81 72.1348 212.81 72.1348Z" fill="white"/>
<path fill-rule="evenodd" clip-rule="evenodd" d="M212.81 72.1348C212.81 72.1348 213.342 80.5134 211.725 84.2951C210.293 87.6429 206.271 89.6221 203.926 89.6221C201.397 89.6221 197.879 88.4303 196.036 84.6823C194.239 81.027 195.229 71.9841 195.229 71.9841C195.229 71.9841 198.481 73.5423 203.581 73.5423C208.681 73.5423 212.81 72.1348 212.81 72.1348Z" stroke="#B6BDCB" stroke-width="3"/>
<path fill-rule="evenodd" clip-rule="evenodd" d="M220.164 138.358H216.353C216.353 138.358 217.956 97.7497 216.353 95.1529C214.752 92.5561 211.159 88.7682 211.159 88.7682C211.159 88.7682 212.593 88.038 213.88 84.6019C215.168 81.1658 215.022 79.3615 215.022 79.3615C215.022 79.3615 222.631 78.2883 228.673 86.0805C229.627 87.3113 233.883 93.5314 238.702 101.538C246.305 114.172 254.818 129.494 254.818 129.494L251.821 131.217L224.101 96.1013L220.164 97.0472V138.358Z" fill="#F9FBFF"/>
<path fill-rule="evenodd" clip-rule="evenodd" d="M166.164 61.0433H203.018V38.9721H174.724V34.1674H166.164V41.8253V61.0433Z" fill="white"/>
<path fill-rule="evenodd" clip-rule="evenodd" d="M166.164 61.0433H203.018V38.9721H174.724V34.1674H166.164V41.8253V61.0433Z" stroke="#B6BDCB" stroke-width="3"/>
<path fill-rule="evenodd" clip-rule="evenodd" d="M194.411 50.0561C194.411 54.6374 190.674 58.3516 186.066 58.3516C181.457 58.3516 177.721 54.6374 177.721 50.0561C177.721 45.4749 181.457 41.7607 186.066 41.7607C190.674 41.7607 194.411 45.4749 194.411 50.0561Z" fill="#F9FAFF"/>
<path fill-rule="evenodd" clip-rule="evenodd" d="M182.125 50.0561C182.125 53.7876 185.168 56.8124 188.922 56.8124C192.675 56.8124 195.719 53.7876 195.719 50.0561C195.719 46.3246 192.675 43.2999 188.922 43.2999C185.168 43.2999 182.125 46.3246 182.125 50.0561Z" fill="white"/>
<path fill-rule="evenodd" clip-rule="evenodd" d="M182.125 50.0561C182.125 53.7876 185.168 56.8124 188.922 56.8124C192.675 56.8124 195.719 53.7876 195.719 50.0561C195.719 46.3246 192.675 43.2999 188.922 43.2999C185.168 43.2999 182.125 46.3246 182.125 50.0561Z" stroke="#B6BDCB" stroke-width="3"/>
<path fill-rule="evenodd" clip-rule="evenodd" d="M168.181 58.641H172.593V40.7733H168.181V58.641Z" fill="#F9FAFF"/>
<path fill-rule="evenodd" clip-rule="evenodd" d="M199.829 46.8041H199.557C199.078 46.8041 198.686 46.4143 198.686 45.9379V42.5087C198.686 42.0323 199.078 41.6425 199.557 41.6425H199.829C200.308 41.6425 200.7 42.0323 200.7 42.5087V45.9379C200.7 46.4143 200.308 46.8041 199.829 46.8041Z" fill="#F9FAFF"/>
<path fill-rule="evenodd" clip-rule="evenodd" d="M168.361 49.917C168.361 53.8971 165.115 57.1237 161.111 57.1237C157.106 57.1237 153.86 53.8971 153.86 49.917C153.86 45.9369 157.106 42.7104 161.111 42.7104C165.115 42.7104 168.361 45.9369 168.361 49.917Z" fill="white"/>
<path fill-rule="evenodd" clip-rule="evenodd" d="M168.361 49.917C168.361 53.8971 165.115 57.1237 161.111 57.1237C157.106 57.1237 153.86 53.8971 153.86 49.917C153.86 45.9369 157.106 42.7104 161.111 42.7104C165.115 42.7104 168.361 45.9369 168.361 49.917Z" stroke="#B6BDCB" stroke-width="3"/>
<path fill-rule="evenodd" clip-rule="evenodd" d="M261.949 137.204C261.949 140.181 259.522 142.594 256.527 142.594C253.532 142.594 251.104 140.181 251.104 137.204C251.104 134.227 253.532 131.813 256.527 131.813C259.522 131.813 261.949 134.227 261.949 137.204Z" fill="white"/>
<path fill-rule="evenodd" clip-rule="evenodd" d="M261.949 137.204C261.949 140.181 259.522 142.594 256.527 142.594C253.532 142.594 251.104 140.181 251.104 137.204C251.104 134.227 253.532 131.813 256.527 131.813C259.522 131.813 261.949 134.227 261.949 137.204Z" stroke="#B6BDCB" stroke-width="3"/>
<path fill-rule="evenodd" clip-rule="evenodd" d="M197.603 60.7777C198.248 61.8016 199.39 64.634 204.505 64.634C209.621 64.634 210.241 61.5105 211.448 60.8973C212.567 60.3273 213.003 61.3382 211.285 63.3512C210.134 64.6998 207.486 65.9263 204.505 65.9263C199.048 65.9263 196.234 62.4174 196.234 61.3078C196.234 60.1983 197.071 59.9323 197.603 60.7777Z" fill="#B6BDCB"/>
<path fill-rule="evenodd" clip-rule="evenodd" d="M12.9592 258.798H13.8799C15.5005 258.798 16.8263 257.477 16.8263 255.862V246.96C16.8263 245.345 15.5005 244.024 13.8799 244.024H12.9592C11.3386 244.024 10.0127 245.345 10.0127 246.96V255.862C10.0127 257.477 11.3386 258.798 12.9592 258.798Z" fill="#B6BDCB"/>
<path fill-rule="evenodd" clip-rule="evenodd" d="M35.0431 258.798H35.9639C37.5845 258.798 38.9103 257.477 38.9103 255.862V246.96C38.9103 245.345 37.5845 244.024 35.9639 244.024H35.0431C33.4225 244.024 32.0967 245.345 32.0967 246.96V255.862C32.0967 257.477 33.4225 258.798 35.0431 258.798Z" fill="#B6BDCB"/>
<path fill-rule="evenodd" clip-rule="evenodd" d="M12.433 182.978H36.3855C42.1237 182.978 46.8186 187.656 46.8186 193.374V241.864C46.8186 247.582 42.1237 252.26 36.3855 252.26H12.433C6.69486 252.26 2 247.582 2 241.864V193.374C2 187.656 6.69486 182.978 12.433 182.978Z" fill="white"/>
<path fill-rule="evenodd" clip-rule="evenodd" d="M12.433 182.978H36.3855C42.1237 182.978 46.8186 187.656 46.8186 193.374V241.864C46.8186 247.582 42.1237 252.26 36.3855 252.26H12.433C6.69486 252.26 2 247.582 2 241.864V193.374C2 187.656 6.69486 182.978 12.433 182.978Z" stroke="#B6BDCB" stroke-width="3"/>
<path fill-rule="evenodd" clip-rule="evenodd" d="M35.4435 245.043H35.9043C36.7137 245.043 37.3771 244.383 37.3771 243.576V194.295C37.3771 193.488 36.7137 192.827 35.9043 192.827H35.4435C34.6332 192.827 33.9707 193.488 33.9707 194.295V243.576C33.9707 244.383 34.6332 245.043 35.4435 245.043Z" fill="#F9FAFF"/>
<path fill-rule="evenodd" clip-rule="evenodd" d="M24.1789 245.043H24.6396C25.4491 245.043 26.1124 244.383 26.1124 243.576V194.295C26.1124 193.488 25.4491 192.827 24.6396 192.827H24.1789C23.3686 192.827 22.7061 193.488 22.7061 194.295V243.576C22.7061 244.383 23.3686 245.043 24.1789 245.043Z" fill="#F9FAFF"/>
<path fill-rule="evenodd" clip-rule="evenodd" d="M12.6779 245.043H13.1387C13.9481 245.043 14.6115 244.383 14.6115 243.576V194.295C14.6115 193.488 13.9481 192.827 13.1387 192.827H12.6779C11.8676 192.827 11.2051 193.488 11.2051 194.295V243.576C11.2051 244.383 11.8676 245.043 12.6779 245.043Z" fill="#F9FAFF"/>
<path fill-rule="evenodd" clip-rule="evenodd" d="M11.501 182.978H37.3184V149.534H11.501V182.978Z" stroke="#B6BDCB" stroke-width="3"/>
<path fill-rule="evenodd" clip-rule="evenodd" d="M10.0127 149.534H38.9105V143.868H10.0127V149.534Z" fill="white"/>
<path fill-rule="evenodd" clip-rule="evenodd" d="M10.0127 149.534H38.9105V143.868H10.0127V149.534Z" stroke="#B6BDCB" stroke-width="3"/>
<path fill-rule="evenodd" clip-rule="evenodd" d="M24.1113 147.242H36.7649V146.159H24.1113V147.242Z" fill="#F9FAFF"/>
<path fill-rule="evenodd" clip-rule="evenodd" d="M93.7392 250.51L80.7996 250.453L80.7022 158.585H69.3233L69.2981 250.51H57.1201V139.469H93.7392V250.51Z" fill="white"/>
<path fill-rule="evenodd" clip-rule="evenodd" d="M93.7392 250.51L80.7996 250.453L80.7022 158.585H69.3233L69.2981 250.51H57.1201V139.469H93.7392V250.51Z" stroke="#B6BDCB" stroke-width="3"/>
<path fill-rule="evenodd" clip-rule="evenodd" d="M87.8955 248.922H91.6975V143.069H87.8955V248.922Z" fill="#F9FAFF"/>
<path fill-rule="evenodd" clip-rule="evenodd" d="M69.89 249.693L62.2878 249.635C62.2878 249.635 54.9734 245.681 51.6557 248.987C49.2518 251.383 49.8517 257.013 49.8517 257.013H69.89V249.693Z" fill="white"/>
<path fill-rule="evenodd" clip-rule="evenodd" d="M69.89 249.693L62.2878 249.635C62.2878 249.635 54.9734 245.681 51.6557 248.987C49.2518 251.383 49.8517 257.013 49.8517 257.013H69.89V249.693Z" stroke="#B6BDCB" stroke-width="3"/>
<path fill-rule="evenodd" clip-rule="evenodd" d="M80.2285 249.693L87.8307 249.635C87.8307 249.635 95.1451 245.681 98.4628 248.987C100.867 251.383 100.267 257.013 100.267 257.013H80.2285V249.693Z" fill="white"/>
<path fill-rule="evenodd" clip-rule="evenodd" d="M80.2285 249.693L87.8307 249.635C87.8307 249.635 95.1451 245.681 98.4628 248.987C100.867 251.383 100.267 257.013 100.267 257.013H80.2285V249.693Z" stroke="#B6BDCB" stroke-width="3"/>
<path fill-rule="evenodd" clip-rule="evenodd" d="M68.6466 255.79H51.027C51.027 255.79 50.4706 253.847 51.4939 253.094C52.5163 252.341 68.6466 253.094 68.6466 253.094V255.79Z" fill="#F9FAFF"/>
<path fill-rule="evenodd" clip-rule="evenodd" d="M81.3955 255.79H99.0152C99.0152 255.79 99.5716 253.847 98.5483 253.094C97.5258 252.341 81.3955 253.094 81.3955 253.094V255.79Z" fill="#F9FAFF"/>
<path fill-rule="evenodd" clip-rule="evenodd" d="M109.468 43.2701C109.468 62.7704 96.3094 77.038 76.7396 77.038C71.5292 77.038 57.4768 93.1864 53.021 95.7256C42.0454 101.978 41.8829 89.9342 41.5872 77.4737C41.3047 65.5548 41.3047 45.1735 41.3047 43.6557C41.3047 24.1545 56.0196 8.37173 78.0342 8.37173C97.6039 8.37173 109.468 23.7699 109.468 43.2701Z" fill="white"/>
<path fill-rule="evenodd" clip-rule="evenodd" d="M109.468 43.2701C109.468 62.7704 96.3094 77.038 76.7396 77.038C71.5292 77.038 57.4768 93.1864 53.021 95.7256C42.0454 101.978 41.8829 89.9342 41.5872 77.4737C41.3047 65.5548 41.3047 45.1735 41.3047 43.6557C41.3047 24.1545 56.0196 8.37173 78.0342 8.37173C97.6039 8.37173 109.468 23.7699 109.468 43.2701Z" stroke="#B6BDCB" stroke-width="3"/>
<path fill-rule="evenodd" clip-rule="evenodd" d="M62.5831 13.8365C69.0585 10.7168 78.2891 10.8831 78.2891 10.8831C78.2891 10.8831 67.2588 15.4192 63.8976 19.9086C60.8807 23.937 64.3036 27.2663 62.7569 27.2663C58.6446 27.2663 55.366 27.3382 54.6653 27.0497C53.9645 26.7604 51.8962 26.1072 51.8962 26.1072C51.8962 26.1072 48.3524 29.9953 47.2056 33.0335C46.6336 34.5522 45.2851 38.4914 45.2851 38.4914H43.8027C43.8027 38.4914 44.7035 34.2619 45.9937 30.5939C46.9074 27.9958 49.9669 23.6165 51.0841 22.3759C53.7785 19.3836 56.1076 16.9561 62.5831 13.8365Z" fill="#F9FAFF"/>
<path fill-rule="evenodd" clip-rule="evenodd" d="M67.4446 76.6604C51.1812 76.6604 50.763 83.0288 45.1301 96.4457C40.0109 108.639 23.8467 133.58 23.8467 133.58L31.5228 138.476C31.5228 138.476 41.0716 124.157 46.8185 115.733C50.1066 110.914 59.0677 98.8238 59.0677 98.8238H60.1519C60.1519 98.8238 61.8368 118.437 61.7794 124.492C61.7438 128.207 57.1202 137.852 57.1202 137.852V140.79L93.7393 140.896V138.217C93.7393 138.217 89.1444 128.65 89.1444 124.975C89.1444 118.949 91.8761 95.5005 91.8761 95.5005C91.8761 95.5005 114.299 80.8448 118.048 76.0895C122.371 70.6074 131.463 29.7755 131.463 29.7755L123.819 27.4294C123.819 27.4294 115.763 60.1837 110.73 64.9944C105.651 69.8519 97.816 76.6604 84.1983 76.6604H67.4446Z" fill="white"/>
<path fill-rule="evenodd" clip-rule="evenodd" d="M67.4446 76.6604C51.1812 76.6604 50.763 83.0288 45.1301 96.4457C40.0109 108.639 23.8467 133.58 23.8467 133.58L31.5228 138.476C31.5228 138.476 41.0716 124.157 46.8185 115.733C50.1066 110.914 59.0677 98.8238 59.0677 98.8238H60.1519C60.1519 98.8238 61.8368 118.437 61.7794 124.492C61.7438 128.207 57.1202 137.852 57.1202 137.852V140.79L93.7393 140.896V138.217C93.7393 138.217 89.1444 128.65 89.1444 124.975C89.1444 118.949 91.8761 95.5005 91.8761 95.5005C91.8761 95.5005 114.299 80.8448 118.048 76.0895C122.371 70.6074 131.463 29.7755 131.463 29.7755L123.819 27.4294C123.819 27.4294 115.763 60.1837 110.73 64.9944C105.651 69.8519 97.816 76.6604 84.1983 76.6604H67.4446Z" stroke="#B6BDCB" stroke-width="3"/>
<path fill-rule="evenodd" clip-rule="evenodd" d="M110.73 48.5223C110.73 51.0762 108.654 53.145 106.091 53.145C104.533 53.145 103.886 53.0757 103.886 53.0757C103.886 53.0757 103.63 53.7341 103.2 54.947C99.2149 66.1937 88.4506 74.2514 75.7936 74.2514C63.2114 74.2514 52.4967 66.2812 48.4582 55.1332C48.127 54.2184 47.7401 53.0315 47.7401 53.0315C47.7401 53.0315 45.9213 53.145 44.3824 53.145C41.8193 53.145 39.7432 51.0762 39.7432 48.5223C39.7432 45.9683 41.8193 43.8995 44.3824 43.8995C45.5917 43.8995 46.7402 43.9004 46.7402 43.9004C46.7402 43.9004 46.7507 43.2316 46.7646 42.8894C46.8333 41.1983 47.0472 40.7357 47.3975 39.1304C48.7277 33.021 52.5662 28.86 52.5662 28.86C52.5662 28.86 75.7076 32.509 87.1569 33.792C98.9028 35.108 102.719 34.8923 102.719 34.8923C102.719 34.8923 104.719 41.3265 104.804 42.8244C104.836 43.3728 104.833 43.9004 104.833 43.9004C104.833 43.9004 104.865 43.8995 106.091 43.8995C108.654 43.8995 110.73 45.9683 110.73 48.5223Z" fill="white"/>
<path fill-rule="evenodd" clip-rule="evenodd" d="M110.73 48.5223C110.73 51.0762 108.654 53.145 106.091 53.145C104.533 53.145 103.886 53.0757 103.886 53.0757C103.886 53.0757 103.63 53.7341 103.2 54.947C99.2149 66.1937 88.4506 74.2514 75.7936 74.2514C63.2114 74.2514 52.4967 66.2812 48.4582 55.1332C48.127 54.2184 47.7401 53.0315 47.7401 53.0315C47.7401 53.0315 45.9213 53.145 44.3824 53.145C41.8193 53.145 39.7432 51.0762 39.7432 48.5223C39.7432 45.9683 41.8193 43.8995 44.3824 43.8995C45.5917 43.8995 46.7402 43.9004 46.7402 43.9004C46.7402 43.9004 46.7507 43.2316 46.7646 42.8894C46.8333 41.1983 47.0472 40.7357 47.3975 39.1304C48.7277 33.021 52.5662 28.86 52.5662 28.86C52.5662 28.86 75.7076 32.509 87.1569 33.792C98.9028 35.108 102.719 34.8923 102.719 34.8923C102.719 34.8923 104.719 41.3265 104.804 42.8244C104.836 43.3728 104.833 43.9004 104.833 43.9004C104.833 43.9004 104.865 43.8995 106.091 43.8995C108.654 43.8995 110.73 45.9683 110.73 48.5223Z" stroke="#B6BDCB" stroke-width="3"/>
<path fill-rule="evenodd" clip-rule="evenodd" d="M90.7648 138.476H86.9629L82.6992 125.523C82.6992 125.523 86.8307 98.8527 86.7281 94.2811C86.6255 89.7095 87.1576 79.2087 87.1576 79.2087C87.1576 79.2087 93.6565 78.4281 100.17 75.7451C105.29 73.6364 111.758 68.0772 114.232 64.5148C117.333 60.0506 124.393 33.8571 124.393 33.8571L128.224 34.6151C128.224 34.6151 120.156 67.5193 117.007 73.7967C115.201 77.3963 89.3616 94.1728 89.3616 94.1728L86.4995 125.535L90.7648 138.476Z" fill="#F9FAFF"/>
<path fill-rule="evenodd" clip-rule="evenodd" d="M20.7021 138.476C20.7021 141.454 23.1244 143.867 26.1125 143.867C29.1007 143.867 31.5229 141.454 31.5229 138.476C31.5229 135.499 29.1007 133.085 26.1125 133.085C23.1244 133.085 20.7021 135.499 20.7021 138.476Z" fill="white"/>
<path fill-rule="evenodd" clip-rule="evenodd" d="M20.7021 138.476C20.7021 141.454 23.1244 143.867 26.1125 143.867C29.1007 143.867 31.5229 141.454 31.5229 138.476C31.5229 135.499 29.1007 133.085 26.1125 133.085C23.1244 133.085 20.7021 135.499 20.7021 138.476Z" stroke="#B6BDCB" stroke-width="3"/>
<path fill-rule="evenodd" clip-rule="evenodd" d="M122.233 26.4501C122.233 29.7664 124.931 32.4546 128.259 32.4546C131.587 32.4546 134.285 29.7664 134.285 26.4501C134.285 23.1337 131.587 20.4455 128.259 20.4455C124.931 20.4455 122.233 23.1337 122.233 26.4501Z" fill="white"/>
<path fill-rule="evenodd" clip-rule="evenodd" d="M122.233 26.4501C122.233 29.7664 124.931 32.4546 128.259 32.4546C131.587 32.4546 134.285 29.7664 134.285 26.4501C134.285 23.1337 131.587 20.4455 128.259 20.4455C124.931 20.4455 122.233 23.1337 122.233 26.4501Z" stroke="#B6BDCB" stroke-width="3"/>
<path fill-rule="evenodd" clip-rule="evenodd" d="M84.5158 74.2515C84.5158 74.2515 85.0435 81.4724 83.4395 85.2314C82.0188 88.5607 78.0308 90.529 75.7034 90.529C73.1951 90.529 69.707 89.3439 67.8786 85.6169C66.0963 81.9826 67.0787 72.7129 67.0787 72.7129C68.6019 72.9927 68.6254 74.5417 75.3617 74.5417C82.0753 74.5417 84.5158 74.2515 84.5158 74.2515Z" fill="white"/>
<path fill-rule="evenodd" clip-rule="evenodd" d="M84.5158 74.2515C84.5158 74.2515 85.0435 81.4724 83.4395 85.2314C82.0188 88.5607 78.0308 90.529 75.7034 90.529C73.1951 90.529 69.707 89.3439 67.8786 85.6169C66.0963 81.9826 67.0787 72.7129 67.0787 72.7129C68.6019 72.9927 68.6254 74.5417 75.3617 74.5417C82.0753 74.5417 84.5158 74.2515 84.5158 74.2515Z" stroke="#B6BDCB" stroke-width="3"/>
<path fill-rule="evenodd" clip-rule="evenodd" d="M62.7565 44.4436C61.7001 44.4436 60.8359 43.5824 60.8359 42.5299V38.7648C60.8359 37.7122 61.7001 36.8511 62.7565 36.8511C63.8128 36.8511 64.677 37.7122 64.677 38.7648V42.5299C64.677 43.5824 63.8128 44.4436 62.7565 44.4436Z" fill="#B6BDCB"/>
<path fill-rule="evenodd" clip-rule="evenodd" d="M61.426 38.2035V40.4256C61.426 40.4256 60.68 39.8313 60.274 39.4267C59.868 39.0222 59.7185 38.5327 59.4229 38.0051C59.1273 37.4766 58.9595 36.5107 59.3837 37.001C59.6576 37.3181 60.0123 37.7079 60.4401 38.1342C60.82 38.5128 61.426 38.2035 61.426 38.2035Z" fill="#B6BDCB"/>
<path fill-rule="evenodd" clip-rule="evenodd" d="M89.0778 44.4436C88.0214 44.4436 87.1572 43.5824 87.1572 42.5299V38.7648C87.1572 37.7122 88.0214 36.8511 89.0778 36.8511C90.1341 36.8511 90.9983 37.7122 90.9983 38.7648V42.5299C90.9983 43.5824 90.1341 44.4436 89.0778 44.4436Z" fill="#B6BDCB"/>
<path fill-rule="evenodd" clip-rule="evenodd" d="M90.4951 38.2035V40.4256C90.4951 40.4256 91.2411 39.8313 91.6471 39.4267C92.0531 39.0222 92.2027 38.5327 92.4983 38.0051C92.7939 37.4766 92.9617 36.5107 92.5374 37.001C92.2635 37.3181 91.9088 37.7079 91.481 38.1342C91.1011 38.5128 90.4951 38.2035 90.4951 38.2035Z" fill="#B6BDCB"/>
<path fill-rule="evenodd" clip-rule="evenodd" d="M69.6842 53.2717C70.3276 54.2958 71.4665 57.1287 76.5709 57.1287C81.6753 57.1287 82.2934 54.0047 83.4976 53.3913C84.6148 52.8213 85.0495 53.8323 83.335 55.8456C82.1865 57.1945 79.5452 58.4212 76.5709 58.4212C71.1257 58.4212 68.3184 54.9117 68.3184 53.8019C68.3184 52.6922 69.153 52.4262 69.6842 53.2717Z" fill="#B6BDCB"/>
</svg>
