<svg width="37" height="38" viewBox="0 0 37 38" fill="none" xmlns="http://www.w3.org/2000/svg">
<path fill-rule="evenodd" clip-rule="evenodd" d="M18.5 36.6001C28.165 36.6001 36 28.7651 36 19.1001C36 9.43511 28.165 1.6001 18.5 1.6001C8.83502 1.6001 1 9.43511 1 19.1001C1 28.7651 8.83502 36.6001 18.5 36.6001Z" stroke="white" stroke-width="2"/>
<path fill-rule="evenodd" clip-rule="evenodd" d="M27.1968 13.7556C26.5626 14.0303 25.8724 14.2194 25.1439 14.3138C25.8911 13.8694 26.4585 13.188 26.7241 12.3554C26.0331 12.7622 25.2572 13.0554 24.4437 13.2163C23.7996 12.5259 22.8638 12.1001 21.8228 12.1001C19.8547 12.1001 18.2458 13.6803 18.2458 15.6196C18.2458 15.9034 18.2938 16.1684 18.3504 16.4242C15.37 16.2821 12.7302 14.8817 10.9701 12.7433C10.6674 13.2733 10.4783 13.8694 10.4783 14.5126C10.4783 15.7426 11.1217 16.8213 12.0674 17.4459C11.4812 17.4365 10.9324 17.2754 10.45 17.0104V17.0578C10.45 17.5119 10.5353 17.9285 10.6957 18.3256C11.1316 19.433 12.1248 20.2654 13.3265 20.5019C13.0138 20.5871 12.7113 20.6343 12.3804 20.6343C12.1531 20.6343 11.9261 20.6058 11.708 20.5587C12.172 21.9589 13.4871 22.9806 15.0487 23.0188C13.8183 23.9649 12.2855 24.5231 10.6106 24.5231C10.3174 24.5231 10.0432 24.5038 9.75 24.4757C11.3394 25.4692 13.2222 26.0559 15.2376 26.0559C20.8293 26.0559 24.2829 22.1859 25.1814 18.1647C25.3425 17.4459 25.4179 16.7363 25.4179 16.036V15.5817C26.1087 15.0803 26.7241 14.4559 27.1968 13.7556Z" fill="white"/>
</svg>
