<svg xmlns="http://www.w3.org/2000/svg" width="37" height="37" viewBox="0 0 37 37">
    <g fill="none" fill-rule="evenodd" transform="translate(1 1)">
        <circle cx="17.5" cy="17.5" r="17.5" stroke="#99BBC1" stroke-width="2"/>
        <path fill="#99BBC1" d="M26.197 12.156a7.633 7.633 0 0 1-2.053.558 3.529 3.529 0 0 0 1.58-1.959c-.691.407-1.467.7-2.28.861a3.568 3.568 0 0 0-2.621-1.116c-1.968 0-3.577 1.58-3.577 3.52 0 .283.048.548.104.804a10.16 10.16 0 0 1-7.38-3.68 3.551 3.551 0 0 0-.492 1.769c0 1.23.644 2.308 1.59 2.933a3.467 3.467 0 0 1-1.618-.436v.048c0 .454.085.87.246 1.268a3.57 3.57 0 0 0 2.63 2.176 3.515 3.515 0 0 1-.946.132c-.227 0-.454-.028-.672-.075a3.61 3.61 0 0 0 3.34 2.46 7.24 7.24 0 0 1-4.437 1.504c-.294 0-.568-.02-.861-.047 1.59.993 3.472 1.58 5.488 1.58 5.591 0 9.045-3.87 9.943-7.891a9.703 9.703 0 0 0 .237-2.129v-.454a7.4 7.4 0 0 0 1.779-1.826"/>
    </g>
</svg>
