<svg width="82" height="40" viewBox="0 0 82 40" fill="none" xmlns="http://www.w3.org/2000/svg">
<path fill-rule="evenodd" clip-rule="evenodd" d="M81 37.4257C81.0001 37.5596 81 37.6935 80.9833 37.8274C78.9075 34.5966 75.275 32.4539 71.1402 32.4539C66.8715 32.4539 63.1385 34.7473 61.0963 38.1622C59.054 34.7473 55.321 32.4539 51.0523 32.4539C46.7836 32.4539 43.0506 34.7473 41.0084 38.1622C38.9661 34.7473 35.2164 32.4539 30.9477 32.4539C26.679 32.4539 22.946 34.7473 20.9037 38.1622C18.8615 34.7473 15.1285 32.4539 10.8598 32.4539C6.72505 32.4539 3.09249 34.5966 1.01674 37.8442C1 37.7103 1 37.5596 1 37.4257C1.01674 19.1818 21.0167 8.27268 41.0084 8.27268C61 8.27267 80.9833 19.1818 81 37.4257Z" stroke="#6480EB" stroke-width="2" stroke-linecap="round" stroke-linejoin="round"/>
<path d="M40.3925 1V7.51163" stroke="#6480EB" stroke-width="2" stroke-linecap="round" stroke-linejoin="round"/>
</svg>
