<svg xmlns="http://www.w3.org/2000/svg" width="60" height="60" viewBox="0 0 60 60">
    <path fill="#00D7AF" fill-rule="evenodd" d="M42.3 28.5c-.3-4.5-.9-10.2-3.3-15 6.3 2.4 11.4 7.8 13.8 14.1-3.597-.9-7.197-.9-10.5.9m-18.3 0c.3-6 1.8-12.9 6-16.2 4.5 3 5.703 10.5 6 16.2-3.6-2.1-7.8-2.1-12 0m-16.5-.6c2.4-6.3 7.2-12 14.4-14.4-2.7 4.8-3.6 10.8-3.9 15.3-3.3-2.1-7.2-2.4-10.5-.9M33 6.3V3c0-1.8-1.2-3-3-3s-3 1.2-3 3v3C12 7.5 0 20.4 0 36c0 1.8 1.2 3 3 3 1.5 0 2.7-.6 3.3-2.1.9-2.4 3-3.9 5.7-3.9 2.4 0 4.8 1.5 5.7 3.9.3 1.2 1.5 2.1 2.7 2.1h1.203C22.8 39 24 38.1 24.3 36.9c.6-1.5 1.5-2.4 2.7-3V51c0 1.8-1.2 3-3 3s-3-1.2-3-3-1.2-3-3-3-3 1.2-3 3c0 5.1 3.9 9 9 9 5.103 0 9-3.9 9-9V33.9c1.203.6 2.103 1.8 2.703 3C36 38.1 37.203 39 38.4 39h1.203C40.8 39 42 38.1 42.3 36.9c.903-2.4 3-3.9 5.7-3.9 2.4 0 4.8 1.5 5.703 3.9C54 38.4 55.5 39 57 39c1.8 0 3-1.2 3-3C60 20.4 48.3 7.8 33 6.3" opacity=".25"/>
</svg>
