<svg width="159" height="159" viewBox="0 0 159 159" fill="none" xmlns="http://www.w3.org/2000/svg">
<g clip-path="url(#clip0)">
<path d="M75.6447 0.0920125C33.6529 2.09142 0.515557 37.0624 0.642944 79.1017C0.681731 91.9058 3.77286 103.991 9.22579 114.67L0.853608 155.309C0.400719 157.507 2.38339 159.432 4.56723 158.915L44.3892 149.481C54.6201 154.577 66.1115 157.52 78.2734 157.706C121.193 158.362 156.98 124.282 158.318 81.3787C159.752 35.3889 121.795 -2.10589 75.6447 0.0920125ZM123.161 122.519C111.499 134.181 95.9927 140.603 79.5001 140.603C69.843 140.603 60.5974 138.437 52.0191 134.164L46.4734 131.401L22.0584 137.186L27.1976 112.238L24.4655 106.888C20.0122 98.1664 17.7543 88.7355 17.7543 78.8575C17.7543 62.3645 24.1768 46.859 35.839 35.1965C47.397 23.6385 63.1558 17.1113 79.5013 17.1113C95.9939 17.1117 111.499 23.5343 123.161 35.1961C134.823 46.8583 141.246 62.3638 141.246 78.8564C141.246 95.2022 134.719 110.961 123.161 122.519Z" fill="#E2E6FB"/>
<path d="M117.771 95.959L102.496 91.5731C100.488 90.9966 98.3256 91.5662 96.8623 93.0572L93.127 96.8629C91.552 98.4676 89.1621 98.9832 87.0775 98.1398C79.8518 95.2156 64.652 81.7011 60.7703 74.9413C59.6505 72.9913 59.8356 70.5534 61.2107 68.7742L64.4718 64.5552C65.7495 62.9022 66.0191 60.6823 65.1741 58.7715L58.7477 44.2368C57.2084 40.7555 52.7598 39.7421 49.8534 42.2001C45.5904 45.8057 40.5321 51.2849 39.9172 57.355C38.8331 68.057 43.4229 81.5479 60.7791 97.747C80.8302 116.461 96.8871 118.934 107.342 116.401C113.271 114.965 118.01 109.207 121.001 104.493C123.04 101.278 121.43 97.0097 117.771 95.959Z" fill="#E2E6FB"/>
</g>
<defs>
<clipPath id="clip0">
<rect width="159" height="159" fill="white"/>
</clipPath>
</defs>
</svg>
